<svg viewBox="0 0 155 58" preserveAspectRatio="none" class="svggraph" id="svgthumb_us" style="overflow:visible;width:155px;height:58px;" xmlns="http://www.w3.org/2000/svg" xlink="http://www.w3.org/1999/xlink" title="Chart for aaliyah">
<title>Last ranked
#65 in 2020</title>
<rect x="2" y="43" height="13" width="17" style="fill:rgb(200,200,200)"/>
<image x="2.5" y="43.5" href="/images/flags/24/us.png" preserveAspectRatio="xMinYMax meet" width="16" height="12"/>
<text x="153" y="55" class="svgtitle" text-anchor="end" style="fill:#000000;font-size:13px;">United States</text>
<line x1="0" y1="41" x2="155" y2="41" class="svggridline" style="stroke:rgb(200,200,200);stroke-width:1.3"/>
<g id="svgthumb_us-namepaths">
<g style="fill:none;stroke:#ff0000;stroke-width:1.3;" class="svgcurveline" id="svgthumb_us-aaliyah-f">
<path d=" M125.6607 39.8 L126.2143 31.1333 L127.3214 32.3333 L128.4286 35.2667 L129.5357 28.8667 L130.6429 31.4 L131.75 33.5333 L132.8571 31 L133.9643 18.4667 L135.0714 8.7333 L136.1786 16.6 L137.2857 17.9333 L138.3929 18.3333 L139.5 17.1333 L140.6071 16.0667 L141.7143 15.1333 L142.8214 12.2 L143.9286 9.2667 L145.0357 5.6667 L146.1429 3.1333 L147.25 4.7333 L148.3571 7.6667 L149.4643 7.6667 L150.5714 9 L151.6786 11.4 L152.7857 13.4 L153.8929 14.3333 L155 13.9333"/>
</g>
</g>
</svg>