<svg viewBox="0 0 155 58" preserveAspectRatio="none" class="svggraph" id="svgthumb_us" style="overflow:visible;width:155px;height:58px;" xmlns="http://www.w3.org/2000/svg" xlink="http://www.w3.org/1999/xlink" title="Chart for abby">
<title>Last ranked
#508 in 2020</title>
<rect x="2" y="43" height="13" width="17" style="fill:rgb(200,200,200)"/>
<image x="2.5" y="43.5" href="/images/flags/24/us.png" preserveAspectRatio="xMinYMax meet" width="16" height="12"/>
<text x="153" y="55" class="svgtitle" text-anchor="end" style="fill:#000000;font-size:13px;">United States</text>
<line x1="0" y1="41" x2="155" y2="41" class="svggridline" style="stroke:rgb(200,200,200);stroke-width:1.3"/>
<g id="svgthumb_us-namepaths">
<g style="fill:none;stroke:#ff0000;stroke-width:1.3;" class="svgcurveline" id="svgthumb_us-abby-f">
<path d="M0 39.8 L1.1071 39.6 L2.2143 39 L2.7679 40.2 M3.875 40.2 L4.4286 40.2 L4.9821 40.2 M6.0893 40.2 L6.6429 40 L7.1964 40 M8.3036 40 L8.8571 40 L9.9643 40.2 L10.5179 40.2 M11.625 40.2 L12.1786 39.8 L12.7321 40.2 M13.8393 40.2 L14.3929 40.2 L14.9464 40.2 M79.1607 40 L79.7143 40 L80.2679 40 M81.375 40 L81.9286 40 L83.0357 40 L84.1429 39.8 L85.25 39.4 L86.3571 39.6 L87.4643 39.4 L88.5714 38.6 L89.6786 38.8 L90.7857 38.2 L91.8929 38.6 L93 38.8 L94.1071 38.6 L95.2143 38.8 L96.3214 39.2 L97.4286 39.4 L98.5357 39.4 L99.6429 39.2 L100.75 38.6 L101.8571 39 L102.9643 38.6 L104.0714 38.2 L105.1786 38 L106.2857 37.8 L107.3929 37.6 L108.5 33.4 L109.6071 31.8 L110.7143 30.6 L111.8214 27.4 L112.9286 26.6 L114.0357 26.4 L115.1429 27 L116.25 28 L117.3571 28.8 L118.4643 29.8 L119.5714 28.2 L120.6786 28.2 L121.7857 28.4 L122.8929 29.4 L124 30.2 L125.1071 29 L126.2143 27 L127.3214 26.6 L128.4286 26.2 L129.5357 24.6 L130.6429 24.4 L131.75 22.4 L132.8571 25.4 L133.9643 21 L135.0714 21.2 L136.1786 20.6 L137.2857 21 L138.3929 23.8 L139.5 24.8 L140.6071 26 L141.7143 28.2 L142.8214 28.4 L143.9286 29.2 L145.0357 30 L146.1429 30.2 L147.25 31.6 L148.3571 32.4 L149.4643 33.6 L150.5714 33.4 L151.6786 33.6 L152.7857 34 L153.8929 34.2 L155 34.2"/>
</g>
</g>
</svg>