<svg viewBox="0 0 155 58" preserveAspectRatio="none" class="svggraph" id="svgthumb_us" style="overflow:visible;width:155px;height:58px;" xmlns="http://www.w3.org/2000/svg" xlink="http://www.w3.org/1999/xlink" title="Chart for abigail">
<title>Last ranked
#13 in 2020</title>
<rect x="2" y="43" height="13" width="17" style="fill:rgb(200,200,200)"/>
<image x="2.5" y="43.5" href="/images/flags/24/us.png" preserveAspectRatio="xMinYMax meet" width="16" height="12"/>
<text x="153" y="55" class="svgtitle" text-anchor="end" style="fill:#000000;font-size:13px;">United States</text>
<line x1="0" y1="41" x2="155" y2="41" class="svggridline" style="stroke:rgb(200,200,200);stroke-width:1.3"/>
<g id="svgthumb_us-namepaths">
<g style="fill:none;stroke:#ff0000;stroke-width:1.3;" class="svgcurveline" id="svgthumb_us-abigail-f">
<path d="M0 40.4 L1.1071 40.6 L2.2143 40.4 L3.3214 40.55 L4.4286 40.55 L5.5357 40.7 L6.6429 40.5 L7.75 40.6 L8.8571 40.5 L9.9643 40.45 L11.0714 40.8 L12.1786 40.7 L13.2857 40.75 L14.3929 40.55 L15.5 40.7 L16.6071 40.7 L17.7143 40.7 L18.8214 40.7 L19.375 40.75 M22.6964 40.75 L23.25 40.75 L24.3571 40.7 L25.4643 40.65 L26.0179 40.75 M28.2321 40.75 L28.7857 40.75 L29.3393 40.8 M64.7679 40.8 L65.3214 40.75 L65.875 40.8 M69.1964 40.8 L69.75 40.8 L70.3036 40.8 M72.5179 40.8 L73.0714 40.75 L73.625 40.8 M75.8393 40.8 L76.3929 40.7 L77.5 40.7 L78.6071 40.65 L79.7143 40.6 L80.8214 40.55 L81.9286 40.65 L83.0357 40.55 L84.1429 40.55 L85.25 40.55 L86.3571 40.55 L87.4643 40.5 L88.5714 40.45 L89.6786 40.45 L90.7857 40.35 L91.8929 40.35 L93 40.4 L94.1071 40.45 L95.2143 40.45 L96.3214 40.3 L97.4286 40.25 L98.5357 40.2 L99.6429 40 L100.75 39.9 L101.8571 39.8 L102.9643 39.45 L104.0714 39.05 L105.1786 39.05 L106.2857 38.35 L107.3929 38.6 L108.5 37.95 L109.6071 37.45 L110.7143 36.6 L111.8214 35.95 L112.9286 35.8 L114.0357 35.65 L115.1429 35.9 L116.25 36 L117.3571 35.6 L118.4643 35.65 L119.5714 34.8 L120.6786 32.45 L121.7857 31.95 L122.8929 31.65 L124 31.05 L125.1071 27.85 L126.2143 22.45 L127.3214 20.65 L128.4286 18.55 L129.5357 15.8 L130.6429 12.35 L131.75 11 L132.8571 8.2 L133.9643 3.6 L135.0714 2.25 L136.1786 1.3 L137.2857 2.75 L138.3929 2.2 L139.5 3.6 L140.6071 4.45 L141.7143 4.8 L142.8214 5.45 L143.9286 4.65 L145.0357 6.8 L146.1429 8.2 L147.25 8.8 L148.3571 10.05 L149.4643 9.15 L150.5714 10.5 L151.6786 12.8 L152.7857 14.45 L153.8929 15.95 L155 18.7"/>
</g>
</g>
</svg>