<svg viewBox="0 0 155 58" preserveAspectRatio="none" class="svggraph" id="svgthumb_us" style="overflow:visible;width:155px;height:58px;" xmlns="http://www.w3.org/2000/svg" xlink="http://www.w3.org/1999/xlink" title="Chart for adaline">
<title>Last ranked
#285 in 2020</title>
<rect x="2" y="43" height="13" width="17" style="fill:rgb(200,200,200)"/>
<image x="2.5" y="43.5" href="/images/flags/24/us.png" preserveAspectRatio="xMinYMax meet" width="16" height="12"/>
<text x="153" y="55" class="svgtitle" text-anchor="end" style="fill:#000000;font-size:13px;">United States</text>
<line x1="0" y1="41" x2="155" y2="41" class="svggridline" style="stroke:rgb(200,200,200);stroke-width:1.3"/>
<g id="svgthumb_us-namepaths">
<g style="fill:none;stroke:#ff0000;stroke-width:1.3;" class="svgcurveline" id="svgthumb_us-adaline-f">
<path d="M0 36.2 L1.1071 37.4 L2.2143 38.2 L3.3214 39.2 L4.4286 38 L5.5357 38.4 L6.6429 38.6 L7.75 38.2 L8.8571 39.4 L9.9643 39.4 L11.0714 39.2 L12.1786 39.4 L13.2857 39.2 L14.3929 38.4 L15.5 39.4 L16.6071 39.6 L17.7143 39.2 L18.8214 39.4 L19.9286 39.2 L21.0357 39.4 L22.1429 39.8 L23.25 39 L24.3571 39.6 L25.4643 40 L26.5714 39.2 L27.6786 39.4 L28.7857 39.6 L29.8929 39.2 L31 39.8 L32.1071 39.6 L33.2143 39.8 L34.3214 39.8 L35.4286 40 L36.5357 40 L37.6429 39.4 L38.75 39.6 L39.8571 39.8 L40.9643 39.8 L42.0714 39.6 L43.1786 39.8 L44.2857 39.8 L45.3929 40 L46.5 39.8 L47.6071 40 L48.7143 40 L49.2679 40.2 M148.9107 38.2 L149.4643 31.8 L150.5714 21.6 L151.6786 23.2 L152.7857 26.2 L153.8929 28.2 L155 28.4"/>
</g>
</g>
</svg>