<svg viewBox="0 0 155 58" preserveAspectRatio="none" class="svggraph" id="svgthumb_us" style="overflow:visible;width:155px;height:58px;" xmlns="http://www.w3.org/2000/svg" xlink="http://www.w3.org/1999/xlink" title="Chart for addison">
<title>Last ranked
#47 in 2020 (f)
#871 in 2009 (m)</title>
<rect x="2" y="43" height="13" width="17" style="fill:rgb(200,200,200)"/>
<image x="2.5" y="43.5" href="/images/flags/24/us.png" preserveAspectRatio="xMinYMax meet" width="16" height="12"/>
<text x="153" y="55" class="svgtitle" text-anchor="end" style="fill:#000000;font-size:13px;">United States</text>
<line x1="0" y1="41" x2="155" y2="41" class="svggridline" style="stroke:rgb(200,200,200);stroke-width:1.3"/>
<g id="svgthumb_us-namepaths">
<g style="fill:none;stroke:#ff0000;stroke-width:1.3;" class="svgcurveline" id="svgthumb_us-addison-f">
<path d=" M125.6607 40.4 L126.2143 40.1333 L127.3214 39.9333 L128.4286 39.5333 L129.5357 39.1333 L130.6429 38.6667 L131.75 38.2667 L132.8571 37.7333 L133.9643 37.0667 L135.0714 36.0667 L136.1786 35.3333 L137.2857 34.2 L138.3929 31.0667 L139.5 16.6667 L140.6071 3.3333 L141.7143 6.5333 L142.8214 5.8667 L143.9286 5.8667 L145.0357 8.9333 L146.1429 12.8667 L147.25 14.2667 L148.3571 17.1333 L149.4643 18 L150.5714 19.1333 L151.6786 21.1333 L152.7857 22.2 L153.8929 24.6 L155 24"/>
</g>
<g style="fill:none;stroke:#0000ff;stroke-width:1.3;" class="svgcurveline" id="svgthumb_us-addison-m">
<path d="M0 39.9333 L1.1071 39.9333 L2.2143 39.8667 L3.3214 39.8 L4.4286 40.0667 L5.5357 40 L6.6429 40.1333 L7.75 40.2667 L8.8571 40 L9.9643 40.4 L11.0714 40.2 L12.1786 40.4 L13.2857 40.4 L14.3929 40.5333 L15.5 39.9333 L16.6071 40 L17.7143 40.2667 L18.8214 40.5333 L19.9286 40.0667 L21.0357 40.3333 L22.1429 40.5333 L23.25 40.4667 L24.3571 40.2667 L25.4643 40.2 L26.5714 40.6 L27.6786 40.2667 L28.2321 40.6 M29.3393 40.6 L29.8929 40.5333 L31 40.3333 L32.1071 40.5333 L33.2143 40.6 L34.3214 40.4667 L35.4286 40.5333 L36.5357 40.6 L37.6429 40.4 L38.75 40.5333 L39.8571 40.4667 L40.9643 40.4667 L42.0714 40.5333 L43.1786 40.6 L44.2857 40.6667 L45.3929 40.5333 L46.5 40.5333 L47.6071 40.6 L48.7143 40.6667 L49.2679 40.7333 M50.375 40.7333 L50.9286 40.6667 L52.0357 40.6 L53.1429 40.6667 L54.25 40.7333 L55.3571 40.6667 L56.4643 40.6667 L57.0179 40.7333 M58.125 40.7333 L58.6786 40.7333 L59.7857 40.7333 L60.3393 40.7333 M116.8036 40.7333 L117.3571 40 L118.4643 40.0667 L119.5714 40.2 L120.6786 40.2667 L121.7857 40.2667 L122.8929 40.2667 L124 40.1333 L125.1071 40 L126.2143 39.8667 L127.3214 39.8667 L128.4286 39.8667 L129.5357 39.8 L130.6429 39.8 L131.75 39.6 L132.8571 39.6 L133.9643 39.6 L135.0714 39.7333 L136.1786 39.6667 L137.2857 39.6667 L138.3929 39.8 L139.5 39.6667 L140.6071 40 L141.7143 40.2 L142.8214 40.2667 L143.375 40.3333"/>
</g>
</g>
</svg>