<svg viewBox="0 0 155 58" preserveAspectRatio="none" class="svggraph" id="svgthumb_us" style="overflow:visible;width:155px;height:58px;" xmlns="http://www.w3.org/2000/svg" xlink="http://www.w3.org/1999/xlink" title="Chart for adeline">
<title>Last ranked
#100 in 2020</title>
<rect x="2" y="43" height="13" width="17" style="fill:rgb(200,200,200)"/>
<image x="2.5" y="43.5" href="/images/flags/24/us.png" preserveAspectRatio="xMinYMax meet" width="16" height="12"/>
<text x="153" y="55" class="svgtitle" text-anchor="end" style="fill:#000000;font-size:13px;">United States</text>
<line x1="0" y1="41" x2="155" y2="41" class="svggridline" style="stroke:rgb(200,200,200);stroke-width:1.3"/>
<g id="svgthumb_us-namepaths">
<g style="fill:none;stroke:#ff0000;stroke-width:1.3;" class="svgcurveline" id="svgthumb_us-adeline-f">
<path d="M0 33.6667 L1.1071 33.1333 L2.2143 32.8667 L3.3214 31.9333 L4.4286 30.2 L5.5357 32.8667 L6.6429 33.6667 L7.75 32.2 L8.8571 31.9333 L9.9643 30.2 L11.0714 31.1333 L12.1786 32.0667 L13.2857 32.2 L14.3929 32.6 L15.5 31.1333 L16.6071 31.2667 L17.7143 31.1333 L18.8214 31.8 L19.9286 30.6 L21.0357 30.2 L22.1429 31 L23.25 30.8667 L24.3571 29.5333 L25.4643 30.8667 L26.5714 29.1333 L27.6786 30.8667 L28.7857 29.8 L29.8929 28.6 L31 27.9333 L32.1071 28.4667 L33.2143 28.4667 L34.3214 28.6 L35.4286 28.0667 L36.5357 27.4 L37.6429 26.3333 L38.75 26.7333 L39.8571 26.6 L40.9643 26.3333 L42.0714 26.6 L43.1786 26.7333 L44.2857 27.5333 L45.3929 28.0667 L46.5 29.4 L47.6071 29.5333 L48.7143 29.2667 L49.8214 30.2 L50.9286 30.7333 L52.0357 32.3333 L53.1429 33 L54.25 33.9333 L55.3571 34.6 L56.4643 35.1333 L57.5714 35.4 L58.6786 36.3333 L59.7857 37 L60.8929 37.5333 L62 37.6667 L63.1071 38.0667 L64.2143 38.2 L65.3214 38.4667 L66.4286 38.7333 L67.5357 39 L68.6429 39.4 L69.75 39.4 L70.8571 39.2667 L71.9643 39.6667 L73.0714 39.6667 L74.1786 39.9333 L75.2857 39.9333 L76.3929 40.0667 L77.5 40.2 L78.6071 40.2 L79.7143 40.2 L80.2679 40.3333 M131.1964 39.6667 L131.75 39.4 L132.8571 39.1333 L133.9643 38.8667 L135.0714 38.6 L136.1786 38.3333 L137.2857 37.8 L138.3929 37.5333 L139.5 36.7333 L140.6071 35.6667 L141.7143 35.1333 L142.8214 34.8667 L143.9286 34.2 L145.0357 33.4 L146.1429 31.8 L147.25 31.4 L148.3571 30.6 L149.4643 24.4667 L150.5714 12.6 L151.6786 13.2667 L152.7857 15.9333 L153.8929 18.6 L155 20.4667"/>
</g>
</g>
</svg>