<svg viewBox="0 0 155 58" preserveAspectRatio="none" class="svggraph" id="svgthumb_us" style="overflow:visible;width:155px;height:58px;" xmlns="http://www.w3.org/2000/svg" xlink="http://www.w3.org/1999/xlink" title="Chart for adelaide">
<title>Last ranked
#274 in 2020</title>
<rect x="2" y="43" height="13" width="17" style="fill:rgb(200,200,200)"/>
<image x="2.5" y="43.5" href="/images/flags/24/us.png" preserveAspectRatio="xMinYMax meet" width="16" height="12"/>
<text x="153" y="55" class="svgtitle" text-anchor="end" style="fill:#000000;font-size:13px;">United States</text>
<line x1="0" y1="41" x2="155" y2="41" class="svggridline" style="stroke:rgb(200,200,200);stroke-width:1.3"/>
<g id="svgthumb_us-namepaths">
<g style="fill:none;stroke:#ff0000;stroke-width:1.3;" class="svgcurveline" id="svgthumb_us-adelaide-f">
<path d="M0 11.2222 L1.1071 13 L2.2143 12.5556 L3.3214 9.4444 L4.4286 9.4444 L5.5357 11.6667 L6.6429 13.8889 L7.75 11.2222 L8.8571 17.8889 L9.9643 16.5556 L11.0714 18.3333 L12.1786 13.8889 L13.2857 18.7778 L14.3929 12.5556 L15.5 15.2222 L16.6071 15.6667 L17.7143 17.8889 L18.8214 15.6667 L19.9286 17 L21.0357 15.2222 L22.1429 15.2222 L23.25 15.2222 L24.3571 17 L25.4643 17.8889 L26.5714 22.3333 L27.6786 22.3333 L28.7857 19.2222 L29.8929 21.4444 L31 20.1111 L32.1071 17 L33.2143 19.2222 L34.3214 18.7778 L35.4286 18.3333 L36.5357 19.2222 L37.6429 18.7778 L38.75 19.2222 L39.8571 22.7778 L40.9643 19.6667 L42.0714 23.2222 L43.1786 22.3333 L44.2857 24.1111 L45.3929 25.8889 L46.5 26.3333 L47.6071 28.1111 L48.7143 29.8889 L49.8214 30.3333 L50.9286 31.2222 L52.0357 30.7778 L53.1429 32.1111 L54.25 32.5556 L55.3571 33 L56.4643 35.2222 L57.5714 35.6667 L58.6786 36.1111 L59.7857 35.2222 L60.8929 37 L62 35.6667 L63.1071 36.5556 L64.2143 36.5556 L65.3214 37 L66.4286 37 L67.5357 37 L68.6429 37.8889 L69.75 37.4444 L70.8571 38.7778 L71.9643 38.7778 L72.5179 39.2222 M73.625 39.2222 L74.1786 39.2222 L75.2857 38.7778 L75.8393 38.7778 M137.8393 35.6667 L138.3929 34.7778 L139.5 34.7778 L140.6071 32.5556 L141.7143 29 L142.8214 29.4444 L143.9286 25 L145.0357 23.2222 L146.1429 20.1111 L147.25 17.4444 L148.3571 17 L149.4643 14.3333 L150.5714 12.5556 L151.6786 13.4444 L152.7857 14.3333 L153.8929 15.2222 L155 12.5556"/>
</g>
</g>
</svg>