<svg viewBox="0 0 155 58" preserveAspectRatio="none" class="svggraph" id="svgthumb_us" style="overflow:visible;width:155px;height:58px;" xmlns="http://www.w3.org/2000/svg" xlink="http://www.w3.org/1999/xlink" title="Chart for adriana">
<title>Last ranked
#304 in 2020</title>
<rect x="2" y="43" height="13" width="17" style="fill:rgb(200,200,200)"/>
<image x="2.5" y="43.5" href="/images/flags/24/us.png" preserveAspectRatio="xMinYMax meet" width="16" height="12"/>
<text x="153" y="55" class="svgtitle" text-anchor="end" style="fill:#000000;font-size:13px;">United States</text>
<line x1="0" y1="41" x2="155" y2="41" class="svggridline" style="stroke:rgb(200,200,200);stroke-width:1.3"/>
<g id="svgthumb_us-namepaths">
<g style="fill:none;stroke:#ff0000;stroke-width:1.3;" class="svgcurveline" id="svgthumb_us-adriana-f">
<path d=" M88.0179 40 L88.5714 39.6 L89.6786 39.6 L90.7857 39.6 L91.8929 39.2 L93 38.8 L94.1071 38.4 L95.2143 38 L96.3214 37.8 L97.4286 36.8 L98.5357 35.6 L99.6429 36 L100.75 35.8 L101.8571 35.4 L102.9643 34.6 L104.0714 34.4 L105.1786 33.2 L106.2857 32.4 L107.3929 31.4 L108.5 31.2 L109.6071 30.2 L110.7143 28.6 L111.8214 29.4 L112.9286 28 L114.0357 29.2 L115.1429 30.2 L116.25 28.8 L117.3571 27.4 L118.4643 28 L119.5714 26 L120.6786 18.4 L121.7857 20 L122.8929 19 L124 19 L125.1071 20 L126.2143 18.8 L127.3214 19.4 L128.4286 19 L129.5357 14.2 L130.6429 15.4 L131.75 17.4 L132.8571 14.2 L133.9643 14.4 L135.0714 16.8 L136.1786 12.6 L137.2857 13 L138.3929 14.4 L139.5 11.4 L140.6071 13.4 L141.7143 14.8 L142.8214 15.6 L143.9286 15.8 L145.0357 17 L146.1429 18.8 L147.25 19.2 L148.3571 21.8 L149.4643 23.2 L150.5714 25.6 L151.6786 26.2 L152.7857 26.4 L153.8929 27 L155 29"/>
</g>
</g>
</svg>