<svg viewBox="0 0 155 58" preserveAspectRatio="none" class="svggraph" id="svgthumb_us" style="overflow:visible;width:155px;height:58px;" xmlns="http://www.w3.org/2000/svg" xlink="http://www.w3.org/1999/xlink" title="Chart for alaina">
<title>Last ranked
#196 in 2020</title>
<rect x="2" y="43" height="13" width="17" style="fill:rgb(200,200,200)"/>
<image x="2.5" y="43.5" href="/images/flags/24/us.png" preserveAspectRatio="xMinYMax meet" width="16" height="12"/>
<text x="153" y="55" class="svgtitle" text-anchor="end" style="fill:#000000;font-size:13px;">United States</text>
<line x1="0" y1="41" x2="155" y2="41" class="svggridline" style="stroke:rgb(200,200,200);stroke-width:1.3"/>
<g id="svgthumb_us-namepaths">
<g style="fill:none;stroke:#ff0000;stroke-width:1.3;" class="svgcurveline" id="svgthumb_us-alaina-f">
<path d=" M107.9464 39.4 L108.5 39.2 L109.6071 38.8 L110.7143 36.4 L111.8214 35.8 L112.9286 36 L114.0357 36.4 L115.1429 37 L116.25 36.6 L117.3571 36.2 L118.4643 36.2 L119.5714 36 L120.6786 35.6 L121.7857 35.4 L122.8929 35.8 L124 35.2 L125.1071 34.8 L126.2143 34.2 L127.3214 34 L128.4286 33.8 L129.5357 34.2 L130.6429 33.8 L131.75 32 L132.8571 31 L133.9643 30.8 L135.0714 30.8 L136.1786 29.8 L137.2857 29 L138.3929 28.4 L139.5 28 L140.6071 26.4 L141.7143 26.6 L142.8214 28 L143.9286 25.8 L145.0357 20.4 L146.1429 21 L147.25 22.8 L148.3571 23.2 L149.4643 22.4 L150.5714 22.8 L151.6786 23.4 L152.7857 24.6 L153.8929 23.6 L155 24.2"/>
</g>
</g>
</svg>