<svg viewBox="0 0 155 58" preserveAspectRatio="none" class="svggraph" id="svgthumb_us" style="overflow:visible;width:155px;height:58px;" xmlns="http://www.w3.org/2000/svg" xlink="http://www.w3.org/1999/xlink" title="Chart for alana">
<title>Last ranked
#206 in 2020</title>
<rect x="2" y="43" height="13" width="17" style="fill:rgb(200,200,200)"/>
<image x="2.5" y="43.5" href="/images/flags/24/us.png" preserveAspectRatio="xMinYMax meet" width="16" height="12"/>
<text x="153" y="55" class="svgtitle" text-anchor="end" style="fill:#000000;font-size:13px;">United States</text>
<line x1="0" y1="41" x2="155" y2="41" class="svggridline" style="stroke:rgb(200,200,200);stroke-width:1.3"/>
<g id="svgthumb_us-namepaths">
<g style="fill:none;stroke:#ff0000;stroke-width:1.3;" class="svgcurveline" id="svgthumb_us-alana-f">
<path d=" M70.3036 40.2 L70.8571 39.4 L71.9643 39 L73.0714 38.6 L74.1786 38.6 L75.2857 38.4 L76.3929 38.8 L77.5 39 L78.6071 39 L79.7143 39.2 L80.8214 39.4 L81.9286 39.6 L83.0357 39.8 L84.1429 39.8 L85.25 39.8 L85.8036 40 M88.0179 40 L88.5714 39.8 L89.6786 39.4 L90.7857 39.4 L91.8929 39 L93 38.8 L94.1071 38.8 L95.2143 38.8 L96.3214 38.4 L97.4286 38.6 L98.5357 38.6 L99.6429 38.2 L100.75 38.6 L101.8571 38.2 L102.9643 37.4 L104.0714 36.6 L105.1786 35.4 L106.2857 36.2 L107.3929 36.6 L108.5 35.6 L109.6071 34 L110.7143 33.8 L111.8214 33.8 L112.9286 33.2 L114.0357 34 L115.1429 33.8 L116.25 30.4 L117.3571 33 L118.4643 34.4 L119.5714 34.2 L120.6786 34.4 L121.7857 34 L122.8929 34.2 L124 34.4 L125.1071 33.2 L126.2143 32.8 L127.3214 31.6 L128.4286 29 L129.5357 30.2 L130.6429 28.4 L131.75 28.2 L132.8571 28.2 L133.9643 28.6 L135.0714 27 L136.1786 24.8 L137.2857 22 L138.3929 21.6 L139.5 20.8 L140.6071 17.8 L141.7143 21.4 L142.8214 22.2 L143.9286 22.4 L145.0357 23.4 L146.1429 22.6 L147.25 22.8 L148.3571 23.8 L149.4643 24.2 L150.5714 24.8 L151.6786 25.8 L152.7857 24.6 L153.8929 26.4 L155 25.2"/>
</g>
</g>
</svg>