<svg viewBox="0 0 155 58" preserveAspectRatio="none" class="svggraph" id="svgthumb_us" style="overflow:visible;width:155px;height:58px;" xmlns="http://www.w3.org/2000/svg" xlink="http://www.w3.org/1999/xlink" title="Chart for alayna">
<title>Last ranked
#247 in 2020</title>
<rect x="2" y="43" height="13" width="17" style="fill:rgb(200,200,200)"/>
<image x="2.5" y="43.5" href="/images/flags/24/us.png" preserveAspectRatio="xMinYMax meet" width="16" height="12"/>
<text x="153" y="55" class="svgtitle" text-anchor="end" style="fill:#000000;font-size:13px;">United States</text>
<line x1="0" y1="41" x2="155" y2="41" class="svggridline" style="stroke:rgb(200,200,200);stroke-width:1.3"/>
<g id="svgthumb_us-namepaths">
<g style="fill:none;stroke:#ff0000;stroke-width:1.3;" class="svgcurveline" id="svgthumb_us-alayna-f">
<path d=" M122.3393 37.4 L122.8929 36.6 L124 36.2 L125.1071 35 L126.2143 34.2 L127.3214 34.2 L128.4286 33.4 L129.5357 33.8 L130.6429 32.2 L131.75 29 L132.8571 27.8 L133.9643 26.6 L135.0714 25.4 L136.1786 23 L137.2857 19.8 L138.3929 18.2 L139.5 17.8 L140.6071 17.4 L141.7143 18.2 L142.8214 17.4 L143.9286 13.8 L145.0357 11.8 L146.1429 9 L147.25 8.6 L148.3571 9.4 L149.4643 11 L150.5714 11.4 L151.6786 11.8 L152.7857 11.8 L153.8929 10.6 L155 13.4"/>
</g>
</g>
</svg>