<svg viewBox="0 0 155 58" preserveAspectRatio="none" class="svggraph" id="svgthumb_us" style="overflow:visible;width:155px;height:58px;" xmlns="http://www.w3.org/2000/svg" xlink="http://www.w3.org/1999/xlink" title="Chart for alessandra">
<title>Last ranked
#368 in 2020</title>
<rect x="2" y="43" height="13" width="17" style="fill:rgb(200,200,200)"/>
<image x="2.5" y="43.5" href="/images/flags/24/us.png" preserveAspectRatio="xMinYMax meet" width="16" height="12"/>
<text x="153" y="55" class="svgtitle" text-anchor="end" style="fill:#000000;font-size:13px;">United States</text>
<line x1="0" y1="41" x2="155" y2="41" class="svggridline" style="stroke:rgb(200,200,200);stroke-width:1.3"/>
<g id="svgthumb_us-namepaths">
<g style="fill:none;stroke:#ff0000;stroke-width:1.3;" class="svgcurveline" id="svgthumb_us-alessandra-f">
<path d=" M117.9107 37 L118.4643 36.5 L119.5714 35.5 L120.6786 35.5 L121.7857 35 L122.8929 35.5 L124 35 L125.1071 36 L126.2143 35 L127.3214 34.5 L128.4286 34 L129.5357 34 L130.6429 33.5 L131.75 33 L132.8571 32 L133.9643 32.5 L135.0714 31 L136.1786 29.5 L137.2857 27 L138.3929 24.5 L139.5 19.5 L140.6071 20.5 L141.7143 22 L142.8214 25 L143.9286 20 L145.0357 20.5 L146.1429 17 L147.25 13.5 L148.3571 13.5 L149.4643 12 L150.5714 13.5 L151.6786 13.5 L152.7857 14 L153.8929 13.5 L155 17"/>
</g>
</g>
</svg>