<svg viewBox="0 0 155 58" preserveAspectRatio="none" class="svggraph" id="svgthumb_us" style="overflow:visible;width:155px;height:58px;" xmlns="http://www.w3.org/2000/svg" xlink="http://www.w3.org/1999/xlink" title="Chart for alexandra">
<title>Last ranked
#137 in 2020</title>
<rect x="2" y="43" height="13" width="17" style="fill:rgb(200,200,200)"/>
<image x="2.5" y="43.5" href="/images/flags/24/us.png" preserveAspectRatio="xMinYMax meet" width="16" height="12"/>
<text x="153" y="55" class="svgtitle" text-anchor="end" style="fill:#000000;font-size:13px;">United States</text>
<line x1="0" y1="41" x2="155" y2="41" class="svggridline" style="stroke:rgb(200,200,200);stroke-width:1.3"/>
<g id="svgthumb_us-namepaths">
<g style="fill:none;stroke:#ff0000;stroke-width:1.3;" class="svgcurveline" id="svgthumb_us-alexandra-f">
<path d=" M38.1964 40.6667 L38.75 40.6667 L39.3036 40.7333 M59.2321 40.7333 L59.7857 40.7333 L60.3393 40.7333 M61.4464 40.7333 L62 40.6667 L62.5536 40.6667 M63.6607 40.6667 L64.2143 40.6 L65.3214 40.6 L66.4286 40.6667 L67.5357 40.6667 L68.6429 40.4 L69.75 40.4 L70.8571 40.4 L71.9643 40.4 L73.0714 40.4667 L74.1786 40.4667 L75.2857 40.5333 L76.3929 40.4 L77.5 40.5333 L78.6071 40.5333 L79.7143 40.4 L80.8214 40.5333 L81.9286 40.4667 L83.0357 40.4667 L84.1429 40.4667 L85.25 40.4667 L86.3571 40.4667 L87.4643 40.4 L88.5714 40.3333 L89.6786 40.3333 L90.7857 40.2667 L91.8929 40.2 L93 40 L94.1071 39.8667 L95.2143 39.8 L96.3214 39.5333 L97.4286 39 L98.5357 38.9333 L99.6429 38.7333 L100.75 38.8 L101.8571 38.4 L102.9643 38.1333 L104.0714 38 L105.1786 37.9333 L106.2857 38.0667 L107.3929 38 L108.5 37.9333 L109.6071 37.8 L110.7143 37.7333 L111.8214 36.5333 L112.9286 35.4 L114.0357 34.6667 L115.1429 30.6 L116.25 30.1333 L117.3571 27.2667 L118.4643 22.4667 L119.5714 16.8667 L120.6786 15.2667 L121.7857 13.4 L122.8929 10 L124 7 L125.1071 4.8667 L126.2143 6 L127.3214 5.7333 L128.4286 6.1333 L129.5357 10.4667 L130.6429 11.4 L131.75 13.0667 L132.8571 15.8 L133.9643 17.2667 L135.0714 17.6 L136.1786 19.2667 L137.2857 19.1333 L138.3929 20.2667 L139.5 21.5333 L140.6071 24.1333 L141.7143 26.2667 L142.8214 27.2667 L143.9286 27.3333 L145.0357 28.5333 L146.1429 29 L147.25 28.8667 L148.3571 29.6667 L149.4643 30.7333 L150.5714 31.2 L151.6786 31.8 L152.7857 32.3333 L153.8929 33.2 L155 33.5333"/>
</g>
</g>
</svg>