<svg viewBox="0 0 155 58" preserveAspectRatio="none" class="svggraph" id="svgthumb_us" style="overflow:visible;width:155px;height:58px;" xmlns="http://www.w3.org/2000/svg" xlink="http://www.w3.org/1999/xlink" title="Chart for alexa">
<title>Last ranked
#230 in 2020</title>
<rect x="2" y="43" height="13" width="17" style="fill:rgb(200,200,200)"/>
<image x="2.5" y="43.5" href="/images/flags/24/us.png" preserveAspectRatio="xMinYMax meet" width="16" height="12"/>
<text x="153" y="55" class="svgtitle" text-anchor="end" style="fill:#000000;font-size:13px;">United States</text>
<line x1="0" y1="41" x2="155" y2="41" class="svggridline" style="stroke:rgb(200,200,200);stroke-width:1.3"/>
<g id="svgthumb_us-namepaths">
<g style="fill:none;stroke:#ff0000;stroke-width:1.3;" class="svgcurveline" id="svgthumb_us-alexa-f">
<path d=" M102.4107 40.3 L102.9643 40 L104.0714 39.6 L105.1786 39.6 L106.2857 39.7 L107.3929 39.9 L108.5 39.9 L109.6071 40 L110.7143 40 L111.8214 39.8 L112.9286 39.8 L114.0357 39.8 L115.1429 39.8 L116.25 39.9 L117.3571 38.3 L118.4643 36.6 L119.5714 36.2 L120.6786 34.4 L121.7857 30.6 L122.8929 28.8 L124 29.9 L125.1071 25.6 L126.2143 23.3 L127.3214 23.5 L128.4286 24 L129.5357 24.8 L130.6429 22.3 L131.75 22.3 L132.8571 22.6 L133.9643 21.3 L135.0714 18.7 L136.1786 18.1 L137.2857 19 L138.3929 18 L139.5 11.8 L140.6071 13.7 L141.7143 15.9 L142.8214 14.8 L143.9286 15.3 L145.0357 17.7 L146.1429 18.8 L147.25 19.7 L148.3571 19.3 L149.4643 9.9 L150.5714 16.3 L151.6786 20.4 L152.7857 24.5 L153.8929 30 L155 33.7"/>
</g>
</g>
</svg>