<svg viewBox="0 0 155 58" preserveAspectRatio="none" class="svggraph" id="svgthumb_us" style="overflow:visible;width:155px;height:58px;" xmlns="http://www.w3.org/2000/svg" xlink="http://www.w3.org/1999/xlink" title="Chart for alexandria">
<title>Last ranked
#320 in 2020</title>
<rect x="2" y="43" height="13" width="17" style="fill:rgb(200,200,200)"/>
<image x="2.5" y="43.5" href="/images/flags/24/us.png" preserveAspectRatio="xMinYMax meet" width="16" height="12"/>
<text x="153" y="55" class="svgtitle" text-anchor="end" style="fill:#000000;font-size:13px;">United States</text>
<line x1="0" y1="41" x2="155" y2="41" class="svggridline" style="stroke:rgb(200,200,200);stroke-width:1.3"/>
<g id="svgthumb_us-namepaths">
<g style="fill:none;stroke:#ff0000;stroke-width:1.3;" class="svgcurveline" id="svgthumb_us-alexandria-f">
<path d=" M97.9821 40.2 L98.5357 40.0667 L99.6429 40.0667 L100.75 39.9333 L101.8571 39.9333 L102.9643 39.9333 L104.0714 39.6667 L105.1786 39.8 L106.2857 39.8 L107.3929 39.8 L108.5 39.4 L109.6071 39.5333 L110.7143 39.1333 L111.8214 36.8667 L112.9286 36.6 L114.0357 36.8667 L115.1429 34.7333 L116.25 34.8667 L117.3571 32.8667 L118.4643 29.9333 L119.5714 25.2667 L120.6786 20.4667 L121.7857 17.6667 L122.8929 11.6667 L124 9.1333 L125.1071 7 L126.2143 7.9333 L127.3214 7.9333 L128.4286 9.2667 L129.5357 11.4 L130.6429 13.4 L131.75 15 L132.8571 17.2667 L133.9643 18.0667 L135.0714 19.8 L136.1786 22.7333 L137.2857 23.5333 L138.3929 24.8667 L139.5 26.0667 L140.6071 27.1333 L141.7143 29.5333 L142.8214 30.2 L143.9286 30.7333 L145.0357 30.4667 L146.1429 30.6 L147.25 30.2 L148.3571 30.0667 L149.4643 30.4667 L150.5714 30.8667 L151.6786 32.2 L152.7857 32.4667 L153.8929 33 L155 33.5333"/>
</g>
</g>
</svg>