<svg viewBox="0 0 155 58" preserveAspectRatio="none" class="svggraph" id="svgthumb_us" style="overflow:visible;width:155px;height:58px;" xmlns="http://www.w3.org/2000/svg" xlink="http://www.w3.org/1999/xlink" title="Chart for alexis">
<title>Last ranked
#309 in 2020 (f)
#483 in 2020 (m)</title>
<rect x="2" y="43" height="13" width="17" style="fill:rgb(200,200,200)"/>
<image x="2.5" y="43.5" href="/images/flags/24/us.png" preserveAspectRatio="xMinYMax meet" width="16" height="12"/>
<text x="153" y="55" class="svgtitle" text-anchor="end" style="fill:#000000;font-size:13px;">United States</text>
<line x1="0" y1="41" x2="155" y2="41" class="svggridline" style="stroke:rgb(200,200,200);stroke-width:1.3"/>
<g id="svgthumb_us-namepaths">
<g style="fill:none;stroke:#ff0000;stroke-width:1.3;" class="svgcurveline" id="svgthumb_us-alexis-f">
<path d=" M69.1964 40.8545 L69.75 40.7818 L70.8571 40.6727 L71.9643 40.6727 L73.0714 40.4909 L74.1786 40.4909 L75.2857 40.5636 L76.3929 40.4545 L77.5 40.5273 L78.6071 40.4909 L79.7143 40.5273 L80.8214 40.6 L81.9286 40.6727 L83.0357 40.6727 L84.1429 40.6727 L85.25 40.6727 L86.3571 40.6727 L87.4643 40.7091 L88.5714 40.7091 L89.6786 40.7455 L90.7857 40.7091 L91.8929 40.6727 L92.4464 40.7818 M93.5536 40.7818 L94.1071 40.6727 L95.2143 40.6 L96.3214 40.6 L97.4286 40.6364 L98.5357 40.5636 L99.6429 40.3091 L100.75 40.2727 L101.8571 40.0909 L102.9643 39.8364 L104.0714 39.6182 L105.1786 39.4364 L106.2857 39.4 L107.3929 39.4 L108.5 39.2909 L109.6071 38.8545 L110.7143 38.4182 L111.8214 37.7636 L112.9286 34.7455 L114.0357 33.9455 L115.1429 34.3455 L116.25 36.0545 L117.3571 36.6727 L118.4643 36.2364 L119.5714 35.5091 L120.6786 34.5636 L121.7857 31.6909 L122.8929 28.4545 L124 26.6 L125.1071 21.0364 L126.2143 16.6727 L127.3214 13.8727 L128.4286 9.5455 L129.5357 8.3091 L130.6429 3.9091 L131.75 5.0727 L132.8571 8.8545 L133.9643 10.8909 L135.0714 12.2 L136.1786 14.0545 L137.2857 16.7091 L138.3929 19.5455 L139.5 21.4364 L140.6071 23.9455 L141.7143 24.0182 L142.8214 23.1455 L143.9286 25.6545 L145.0357 28.7455 L146.1429 30.9273 L147.25 31.9818 L148.3571 33.1091 L149.4643 34.6 L150.5714 35.9455 L151.6786 37.0364 L152.7857 37.7636 L153.8929 38.3455 L155 38.8909"/>
</g>
<g style="fill:none;stroke:#0000ff;stroke-width:1.3;" class="svgcurveline" id="svgthumb_us-alexis-m">
<path d=" M1.6607 40.8545 L2.2143 40.8182 L2.7679 40.8545 M7.1964 40.8545 L7.75 40.8182 L8.3036 40.8182 M88.0179 40.8909 L88.5714 40.8909 L89.6786 40.8909 L90.7857 40.8545 L91.8929 40.8909 L93 40.8545 L94.1071 40.7818 L95.2143 40.7818 L96.3214 40.7091 L97.4286 40.7818 L98.5357 40.7455 L99.6429 40.7455 L100.75 40.6727 L101.8571 40.7091 L102.9643 40.6727 L104.0714 40.6 L105.1786 40.5273 L106.2857 40.5273 L107.3929 40.4909 L108.5 40.4545 L109.6071 40.3455 L110.7143 40.3091 L111.8214 40.2 L112.9286 39.5455 L114.0357 39.7273 L115.1429 40.0909 L116.25 40.0182 L117.3571 40.2 L118.4643 40.1273 L119.5714 40.2364 L120.6786 40.0545 L121.7857 39.7636 L122.8929 39.6909 L124 39.6545 L125.1071 39.0727 L126.2143 38.7091 L127.3214 37.5818 L128.4286 37.7273 L129.5357 35.2182 L130.6429 36.8545 L131.75 36.6727 L132.8571 36.2727 L133.9643 36.1273 L135.0714 36.8182 L136.1786 36.2727 L137.2857 33.8 L138.3929 35.8 L139.5 35.6909 L140.6071 36.6364 L141.7143 37.1091 L142.8214 37.5455 L143.9286 38.1273 L145.0357 38.3455 L146.1429 38.2 L147.25 38.8545 L148.3571 38.9273 L149.4643 39.2182 L150.5714 39.2545 L151.6786 39.5091 L152.7857 39.7273 L153.8929 39.7273 L155 39.8"/>
</g>
</g>
</svg>