<svg viewBox="0 0 155 58" preserveAspectRatio="none" class="svggraph" id="svgthumb_us" style="overflow:visible;width:155px;height:58px;" xmlns="http://www.w3.org/2000/svg" xlink="http://www.w3.org/1999/xlink" title="Chart for alice">
<title>Last ranked
#76 in 2020 (f)
#981 in 1937 (m)</title>
<rect x="2" y="43" height="13" width="17" style="fill:rgb(200,200,200)"/>
<image x="2.5" y="43.5" href="/images/flags/24/us.png" preserveAspectRatio="xMinYMax meet" width="16" height="12"/>
<text x="153" y="55" class="svgtitle" text-anchor="end" style="fill:#000000;font-size:13px;">United States</text>
<line x1="0" y1="41" x2="155" y2="41" class="svggridline" style="stroke:rgb(200,200,200);stroke-width:1.3"/>
<g id="svgthumb_us-namepaths">
<g style="fill:none;stroke:#ff0000;stroke-width:1.3;" class="svgcurveline" id="svgthumb_us-alice-f">
<path d="M0 2.36 L1.1071 5.72 L2.2143 5.4533 L3.3214 7.96 L4.4286 7.4267 L5.5357 9.4267 L6.6429 9.5867 L7.75 9.8 L8.8571 10.0133 L9.9643 10.76 L11.0714 10.9733 L12.1786 13.6667 L13.2857 12.8667 L14.3929 12.1733 L15.5 13.72 L16.6071 14.4933 L17.7143 12.9467 L18.8214 14.8933 L19.9286 13.32 L21.0357 13.8267 L22.1429 15.32 L23.25 14.12 L24.3571 11.1867 L25.4643 12.28 L26.5714 12.44 L27.6786 9.9333 L28.7857 5.3467 L29.8929 8.5467 L31 8.8933 L32.1071 10.7867 L33.2143 11.32 L34.3214 11.96 L35.4286 12.44 L36.5357 12.76 L37.6429 13.56 L38.75 13.5867 L39.8571 14.68 L40.9643 14.92 L42.0714 15.2933 L43.1786 15.72 L44.2857 16.1467 L45.3929 16.0933 L46.5 16.8933 L47.6071 16.8667 L48.7143 17.2667 L49.8214 16.5733 L50.9286 17.24 L52.0357 17.96 L53.1429 18.3867 L54.25 19.16 L55.3571 19.24 L56.4643 19.6933 L57.5714 20.4133 L58.6786 21.3733 L59.7857 21.8267 L60.8929 22.7333 L62 23.1867 L63.1071 23.7733 L64.2143 23.5067 L65.3214 23.6667 L66.4286 23.8533 L67.5357 25.0533 L68.6429 26.84 L69.75 26.7867 L70.8571 27.1333 L71.9643 28.4133 L73.0714 28.8133 L74.1786 29.48 L75.2857 30.3067 L76.3929 30.8933 L77.5 31.3467 L78.6071 31.88 L79.7143 32.7067 L80.8214 33.0533 L81.9286 33.9333 L83.0357 34.2533 L84.1429 34.9467 L85.25 35.3733 L86.3571 35.6667 L87.4643 35.6667 L88.5714 35.8 L89.6786 36.3867 L90.7857 36.7333 L91.8929 36.8933 L93 37.1333 L94.1071 37.2667 L95.2143 37.6133 L96.3214 38.0133 L97.4286 38.3067 L98.5357 38.4133 L99.6429 38.6533 L100.75 38.7067 L101.8571 39.0267 L102.9643 38.9733 L104.0714 39 L105.1786 39.1867 L106.2857 39.3733 L107.3929 39.6133 L108.5 39.72 L109.6071 39.8 L110.7143 39.88 L111.8214 39.88 L112.9286 39.9067 L114.0357 39.96 L115.1429 39.9867 L116.25 40.04 L117.3571 39.96 L118.4643 39.9067 L119.5714 39.8533 L120.6786 40.0133 L121.7857 39.9867 L122.8929 40.04 L124 40.0933 L125.1071 40.0667 L126.2143 40.1733 L127.3214 40.2 L128.4286 40.1733 L129.5357 40.2 L130.6429 40.1733 L131.75 40.12 L132.8571 40.12 L133.9643 40.1467 L135.0714 40.12 L136.1786 40.0667 L137.2857 40.0133 L138.3929 40.0133 L139.5 39.9333 L140.6071 39.8 L141.7143 39.6933 L142.8214 39.32 L143.9286 38.5733 L145.0357 37.9867 L146.1429 37.56 L147.25 36.92 L148.3571 36.84 L149.4643 36.3067 L150.5714 35.9067 L151.6786 35.5867 L152.7857 35.7467 L153.8929 35.8267 L155 36.0133"/>
</g>
<g style="fill:none;stroke:#0000ff;stroke-width:1.3;" class="svgcurveline" id="svgthumb_us-alice-m">
<path d=" M0.5536 40.8933 L1.1071 40.84 L1.6607 40.8933 M2.7679 40.8933 L3.3214 40.8667 L3.875 40.8933 M4.9821 40.8933 L5.5357 40.7867 L6.6429 40.7867 L7.75 40.76 L8.3036 40.8667 M9.4107 40.8667 L9.9643 40.7867 L11.0714 40.7867 L12.1786 40.7867 L13.2857 40.84 L14.3929 40.76 L14.9464 40.8667 M16.0536 40.8667 L16.6071 40.84 L17.7143 40.7333 L18.8214 40.6267 L19.9286 40.76 L21.0357 40.84 L22.1429 40.8667 L23.25 40.76 L24.3571 40.76 L25.4643 40.8133 L26.5714 40.84 L27.6786 40.7333 L28.7857 40.6267 L29.8929 40.76 L31 40.8133 L32.1071 40.7867 L33.2143 40.8133 L34.3214 40.84 L35.4286 40.8667 L35.9821 40.8667 M49.2679 40.8933 L49.8214 40.8933 L50.9286 40.8933 L51.4821 40.8933 M53.6964 40.8933 L54.25 40.8933 L55.3571 40.8667 L55.9107 40.8933 M57.0179 40.8933 L57.5714 40.8667 L58.125 40.8933 M62.5536 40.8933 L63.1071 40.8933 L63.6607 40.8933"/>
</g>
</g>
</svg>