<svg viewBox="0 0 155 58" preserveAspectRatio="none" class="svggraph" id="svgthumb_us" style="overflow:visible;width:155px;height:58px;" xmlns="http://www.w3.org/2000/svg" xlink="http://www.w3.org/1999/xlink" title="Chart for alicia">
<title>Last ranked
#414 in 2020</title>
<rect x="2" y="43" height="13" width="17" style="fill:rgb(200,200,200)"/>
<image x="2.5" y="43.5" href="/images/flags/24/us.png" preserveAspectRatio="xMinYMax meet" width="16" height="12"/>
<text x="153" y="55" class="svgtitle" text-anchor="end" style="fill:#000000;font-size:13px;">United States</text>
<line x1="0" y1="41" x2="155" y2="41" class="svggridline" style="stroke:rgb(200,200,200);stroke-width:1.3"/>
<g id="svgthumb_us-namepaths">
<g style="fill:none;stroke:#ff0000;stroke-width:1.3;" class="svgcurveline" id="svgthumb_us-alicia-f">
<path d="M0 40.68 L1.1071 40.44 L2.2143 40.52 L3.3214 40.44 L3.875 40.68 M4.9821 40.68 L5.5357 40.52 L6.6429 40.44 L7.75 40.6 L8.8571 40.6 L9.9643 40.6 L11.0714 40.52 L11.625 40.6 M12.7321 40.6 L13.2857 40.6 L14.3929 40.52 L15.5 40.52 L16.6071 40.52 L17.7143 40.6 L18.8214 40.52 L19.9286 40.52 L21.0357 40.52 L22.1429 40.52 L22.6964 40.6 M24.9107 40.6 L25.4643 40.6 L26.5714 40.44 L27.6786 40.6 L28.7857 40.6 L29.8929 40.52 L31 40.2 L32.1071 40.28 L33.2143 40.44 L34.3214 40.2 L35.4286 40.36 L36.5357 40.28 L37.6429 40.44 L38.75 40.44 L39.8571 40.28 L40.9643 40.2 L42.0714 40.2 L43.1786 40.12 L44.2857 40.04 L45.3929 40.12 L46.5 39.96 L47.6071 39.8 L48.7143 39.64 L49.8214 39.56 L50.9286 39.24 L52.0357 39 L53.1429 39 L54.25 38.92 L55.3571 38.68 L56.4643 38.92 L57.5714 39.16 L58.6786 39.24 L59.7857 39.24 L60.8929 39.32 L62 39 L63.1071 39 L64.2143 38.84 L65.3214 38.52 L66.4286 38.92 L67.5357 38.68 L68.6429 38.92 L69.75 38.84 L70.8571 38.52 L71.9643 38.28 L73.0714 38.2 L74.1786 37.72 L75.2857 37.88 L76.3929 37.8 L77.5 37.48 L78.6071 37.4 L79.7143 37.32 L80.8214 37.24 L81.9286 37.32 L83.0357 36.92 L84.1429 37 L85.25 36.76 L86.3571 36.92 L87.4643 35.72 L88.5714 34.68 L89.6786 34.6 L90.7857 33.16 L91.8929 32.12 L93 31.16 L94.1071 30.68 L95.2143 30.84 L96.3214 30.28 L97.4286 29 L98.5357 27.16 L99.6429 26.52 L100.75 24.6 L101.8571 24.76 L102.9643 23.32 L104.0714 23.48 L105.1786 21.96 L106.2857 21.72 L107.3929 19.64 L108.5 17.88 L109.6071 15.24 L110.7143 15.16 L111.8214 14.84 L112.9286 16.28 L114.0357 7.48 L115.1429 6.28 L116.25 10.12 L117.3571 10.6 L118.4643 12.04 L119.5714 13.16 L120.6786 13.64 L121.7857 15.64 L122.8929 19.16 L124 21.4 L125.1071 23 L126.2143 24.2 L127.3214 24.76 L128.4286 24.92 L129.5357 25.16 L130.6429 26.92 L131.75 28.6 L132.8571 29.96 L133.9643 30.28 L135.0714 29.56 L136.1786 30.84 L137.2857 31 L138.3929 31.8 L139.5 32.84 L140.6071 33.64 L141.7143 33.8 L142.8214 34.84 L143.9286 35.16 L145.0357 35.88 L146.1429 36.04 L147.25 36.76 L148.3571 37 L149.4643 37.24 L150.5714 37.4 L151.6786 37.32 L152.7857 37.64 L153.8929 37.72 L155 37.64"/>
</g>
</g>
</svg>