<svg viewBox="0 0 155 58" preserveAspectRatio="none" class="svggraph" id="svgthumb_us" style="overflow:visible;width:155px;height:58px;" xmlns="http://www.w3.org/2000/svg" xlink="http://www.w3.org/1999/xlink" title="Chart for alina">
<title>Last ranked
#170 in 2020</title>
<rect x="2" y="43" height="13" width="17" style="fill:rgb(200,200,200)"/>
<image x="2.5" y="43.5" href="/images/flags/24/us.png" preserveAspectRatio="xMinYMax meet" width="16" height="12"/>
<text x="153" y="55" class="svgtitle" text-anchor="end" style="fill:#000000;font-size:13px;">United States</text>
<line x1="0" y1="41" x2="155" y2="41" class="svggridline" style="stroke:rgb(200,200,200);stroke-width:1.3"/>
<g id="svgthumb_us-namepaths">
<g style="fill:none;stroke:#ff0000;stroke-width:1.3;" class="svgcurveline" id="svgthumb_us-alina-f">
<path d=" M104.625 39.4 L105.1786 39.4 L105.7321 39.4 M106.8393 39.4 L107.3929 39.2 L107.9464 39.4 M109.0536 39.4 L109.6071 39 L110.7143 39.2 L111.8214 39.4 L112.9286 39.2 L114.0357 39.4 L114.5893 39.4 M115.6964 39.4 L116.25 39 L117.3571 39 L118.4643 38.8 L119.5714 38.4 L120.6786 38.2 L121.7857 37.8 L122.8929 37.4 L124 37.4 L125.1071 37.4 L126.2143 36.6 L127.3214 36 L128.4286 36.6 L129.5357 35.4 L130.6429 35.8 L131.75 35.6 L132.8571 35 L133.9643 35.2 L135.0714 34.2 L136.1786 33.4 L137.2857 33.2 L138.3929 33 L139.5 32 L140.6071 24.6 L141.7143 27.4 L142.8214 28 L143.9286 28.4 L145.0357 28.6 L146.1429 28.6 L147.25 27.8 L148.3571 23.4 L149.4643 22 L150.5714 22.2 L151.6786 23.4 L152.7857 21.6 L153.8929 21 L155 21.8"/>
</g>
</g>
</svg>