<svg viewBox="0 0 155 58" preserveAspectRatio="none" class="svggraph" id="svgthumb_us" style="overflow:visible;width:155px;height:58px;" xmlns="http://www.w3.org/2000/svg" xlink="http://www.w3.org/1999/xlink" title="Chart for alison">
<title>Last ranked
#436 in 2020</title>
<rect x="2" y="43" height="13" width="17" style="fill:rgb(200,200,200)"/>
<image x="2.5" y="43.5" href="/images/flags/24/us.png" preserveAspectRatio="xMinYMax meet" width="16" height="12"/>
<text x="153" y="55" class="svgtitle" text-anchor="end" style="fill:#000000;font-size:13px;">United States</text>
<line x1="0" y1="41" x2="155" y2="41" class="svggridline" style="stroke:rgb(200,200,200);stroke-width:1.3"/>
<g id="svgthumb_us-namepaths">
<g style="fill:none;stroke:#ff0000;stroke-width:1.3;" class="svgcurveline" id="svgthumb_us-alison-f">
<path d=" M59.2321 40 L59.7857 40 L60.3393 40.2 M61.4464 40.2 L62 40 L62.5536 40 M68.0893 40.2 L68.6429 39.8 L69.75 40 L70.8571 39.8 L71.9643 39.2 L73.0714 38.4 L74.1786 38.4 L75.2857 38 L76.3929 37.4 L77.5 37 L78.6071 36.4 L79.7143 36.4 L80.8214 36 L81.9286 34.8 L83.0357 35.6 L84.1429 35.2 L85.25 35.6 L86.3571 31.4 L87.4643 29.4 L88.5714 28.8 L89.6786 27.4 L90.7857 27 L91.8929 27 L93 26.2 L94.1071 25 L95.2143 30 L96.3214 30.6 L97.4286 30.4 L98.5357 28.8 L99.6429 21.8 L100.75 15.8 L101.8571 18.6 L102.9643 16.2 L104.0714 14.4 L105.1786 12 L106.2857 12 L107.3929 12.2 L108.5 11.4 L109.6071 7 L110.7143 7.4 L111.8214 10.8 L112.9286 11 L114.0357 13.2 L115.1429 13.2 L116.25 10.4 L117.3571 8.8 L118.4643 11.4 L119.5714 14.6 L120.6786 16 L121.7857 18 L122.8929 19.8 L124 20.4 L125.1071 18.2 L126.2143 19.2 L127.3214 20.6 L128.4286 21.2 L129.5357 22.6 L130.6429 24 L131.75 25.4 L132.8571 27.2 L133.9643 27.2 L135.0714 27.2 L136.1786 27 L137.2857 26.8 L138.3929 28.6 L139.5 29.4 L140.6071 30 L141.7143 29 L142.8214 26.8 L143.9286 28.6 L145.0357 27.8 L146.1429 28.8 L147.25 29.8 L148.3571 29.6 L149.4643 31 L150.5714 31 L151.6786 32.4 L152.7857 32.8 L153.8929 32.8 L155 33"/>
</g>
</g>
</svg>