<svg viewBox="0 0 155 58" preserveAspectRatio="none" class="svggraph" id="svgthumb_us" style="overflow:visible;width:155px;height:58px;" xmlns="http://www.w3.org/2000/svg" xlink="http://www.w3.org/1999/xlink" title="Chart for alivia">
<title>Last ranked
#253 in 2020</title>
<rect x="2" y="43" height="13" width="17" style="fill:rgb(200,200,200)"/>
<image x="2.5" y="43.5" href="/images/flags/24/us.png" preserveAspectRatio="xMinYMax meet" width="16" height="12"/>
<text x="153" y="55" class="svgtitle" text-anchor="end" style="fill:#000000;font-size:13px;">United States</text>
<line x1="0" y1="41" x2="155" y2="41" class="svggridline" style="stroke:rgb(200,200,200);stroke-width:1.3"/>
<g id="svgthumb_us-namepaths">
<g style="fill:none;stroke:#ff0000;stroke-width:1.3;" class="svgcurveline" id="svgthumb_us-alivia-f">
<path d=" M126.7679 39 L127.3214 38.8 L128.4286 39 L129.5357 38.2 L130.6429 37.4 L131.75 37 L132.8571 36.4 L133.9643 35.2 L135.0714 34.2 L136.1786 32.2 L137.2857 31.4 L138.3929 29.8 L139.5 28.4 L140.6071 25.4 L141.7143 23.4 L142.8214 23 L143.9286 23 L145.0357 23.8 L146.1429 23.6 L147.25 22.8 L148.3571 24.6 L149.4643 25.4 L150.5714 25.8 L151.6786 26.8 L152.7857 26.2 L153.8929 27 L155 27.6"/>
</g>
</g>
</svg>