<svg viewBox="0 0 155 58" preserveAspectRatio="none" class="svggraph" id="svgthumb_us" style="overflow:visible;width:155px;height:58px;" xmlns="http://www.w3.org/2000/svg" xlink="http://www.w3.org/1999/xlink" title="Chart for allie">
<title>Last ranked
#429 in 2020 (f)
#905 in 1933 (m)</title>
<rect x="2" y="43" height="13" width="17" style="fill:rgb(200,200,200)"/>
<image x="2.5" y="43.5" href="/images/flags/24/us.png" preserveAspectRatio="xMinYMax meet" width="16" height="12"/>
<text x="153" y="55" class="svgtitle" text-anchor="end" style="fill:#000000;font-size:13px;">United States</text>
<line x1="0" y1="41" x2="155" y2="41" class="svggridline" style="stroke:rgb(200,200,200);stroke-width:1.3"/>
<g id="svgthumb_us-namepaths">
<g style="fill:none;stroke:#ff0000;stroke-width:1.3;" class="svgcurveline" id="svgthumb_us-allie-f">
<path d="M0 19.4 L1.1071 21.2 L2.2143 21.4 L3.3214 16.6 L4.4286 19.4 L5.5357 16.2 L6.6429 17.8 L7.75 17.4 L8.8571 17.4 L9.9643 16 L11.0714 18.2 L12.1786 21.4 L13.2857 19.4 L14.3929 22 L15.5 21.4 L16.6071 20.6 L17.7143 23.4 L18.8214 19.6 L19.9286 21.2 L21.0357 23.4 L22.1429 23 L23.25 24.2 L24.3571 22.4 L25.4643 23.2 L26.5714 23.2 L27.6786 21.8 L28.7857 26.6 L29.8929 25.2 L31 27.2 L32.1071 26.2 L33.2143 29.8 L34.3214 29.6 L35.4286 30 L36.5357 32 L37.6429 32.2 L38.75 32.6 L39.8571 32.8 L40.9643 33.6 L42.0714 33.8 L43.1786 33.6 L44.2857 34.4 L45.3929 34.4 L46.5 34.6 L47.6071 34.6 L48.7143 34.8 L49.8214 35.4 L50.9286 35.6 L52.0357 35.6 L53.1429 36.2 L54.25 37 L55.3571 36.4 L56.4643 37.4 L57.5714 37 L58.6786 36.6 L59.7857 37.4 L60.8929 37.2 L62 37.6 L63.1071 38 L64.2143 38.4 L65.3214 38.4 L66.4286 38.6 L67.5357 38.8 L68.6429 39.2 L69.75 39.2 L70.8571 39.4 L71.9643 40 L73.0714 39.8 L74.1786 40 L75.2857 40 L75.8393 40 M76.9464 40 L77.5 40 L78.0536 40 M116.8036 39.4 L117.3571 38.6 L118.4643 38.2 L119.5714 38.2 L120.6786 37.2 L121.7857 37.2 L122.8929 37 L124 36.8 L125.1071 35.6 L126.2143 35.2 L127.3214 35 L128.4286 35 L129.5357 34 L130.6429 31 L131.75 32.4 L132.8571 33.6 L133.9643 33.2 L135.0714 32.8 L136.1786 31.4 L137.2857 30 L138.3929 28.4 L139.5 26.6 L140.6071 27 L141.7143 27 L142.8214 27.2 L143.9286 24.4 L145.0357 24.8 L146.1429 25 L147.25 25.8 L148.3571 28 L149.4643 28 L150.5714 30.2 L151.6786 30.4 L152.7857 31.2 L153.8929 31.6 L155 33"/>
</g>
<g style="fill:none;stroke:#0000ff;stroke-width:1.3;" class="svgcurveline" id="svgthumb_us-allie-m">
<path d="M0 35.8 L1.1071 37.2 L2.2143 36.6 L3.3214 36.8 L4.4286 36.8 L5.5357 37.8 L6.6429 37.4 L7.75 37.4 L8.8571 35.2 L9.9643 39 L11.0714 37.4 L12.1786 36.4 L13.2857 36.6 L14.3929 36.8 L15.5 37.4 L16.6071 35.8 L17.7143 36.2 L18.8214 37.8 L19.9286 37 L21.0357 38.4 L22.1429 37.6 L23.25 37.8 L24.3571 36.6 L25.4643 38.2 L26.5714 39 L27.6786 38.6 L28.7857 37.8 L29.8929 38.8 L31 38.8 L32.1071 38.8 L33.2143 38.8 L34.3214 38.2 L35.4286 39.6 L36.5357 39.6 L37.6429 39 L38.75 39.4 L39.8571 39.6 L40.9643 39.6 L42.0714 39.6 L43.1786 39.8 L44.2857 39.6 L45.3929 40 L46.5 40 L47.6071 39.6 L48.7143 39.8 L49.8214 39.8 L50.9286 40 L52.0357 40 L52.5893 40.2 M55.9107 40.2 L56.4643 40 L57.5714 40.2 L58.6786 40 L59.2321 40.2"/>
</g>
</g>
</svg>