<svg viewBox="0 0 155 58" preserveAspectRatio="none" class="svggraph" id="svgthumb_us" style="overflow:visible;width:155px;height:58px;" xmlns="http://www.w3.org/2000/svg" xlink="http://www.w3.org/1999/xlink" title="Chart for allison">
<title>Last ranked
#80 in 2020 (f)
#967 in 1946 (m)</title>
<rect x="2" y="43" height="13" width="17" style="fill:rgb(200,200,200)"/>
<image x="2.5" y="43.5" href="/images/flags/24/us.png" preserveAspectRatio="xMinYMax meet" width="16" height="12"/>
<text x="153" y="55" class="svgtitle" text-anchor="end" style="fill:#000000;font-size:13px;">United States</text>
<line x1="0" y1="41" x2="155" y2="41" class="svggridline" style="stroke:rgb(200,200,200);stroke-width:1.3"/>
<g id="svgthumb_us-namepaths">
<g style="fill:none;stroke:#ff0000;stroke-width:1.3;" class="svgcurveline" id="svgthumb_us-allison-f">
<path d=" M72.5179 40.68 L73.0714 40.6 L74.1786 40.52 L75.2857 40.44 L76.3929 40.36 L77.5 40.28 L78.6071 39.88 L79.7143 39.96 L80.8214 39.8 L81.9286 39.8 L83.0357 39.64 L84.1429 39.4 L85.25 39.24 L86.3571 37.16 L87.4643 36.68 L88.5714 36.92 L89.6786 36.44 L90.7857 35.8 L91.8929 35.24 L93 32.52 L94.1071 27.64 L95.2143 32.92 L96.3214 34.2 L97.4286 33.8 L98.5357 33.48 L99.6429 29.48 L100.75 27.24 L101.8571 27.08 L102.9643 26.04 L104.0714 25.88 L105.1786 23.8 L106.2857 20.52 L107.3929 20.52 L108.5 22.2 L109.6071 20.52 L110.7143 19.08 L111.8214 19.08 L112.9286 18.2 L114.0357 18.76 L115.1429 14.2 L116.25 10.52 L117.3571 8.12 L118.4643 9.64 L119.5714 11.32 L120.6786 11.72 L121.7857 13.24 L122.8929 14.36 L124 13.48 L125.1071 9.64 L126.2143 7.56 L127.3214 7.16 L128.4286 9.88 L129.5357 10.52 L130.6429 8.52 L131.75 12.12 L132.8571 15.72 L133.9643 15.88 L135.0714 15.72 L136.1786 17.64 L137.2857 17.72 L138.3929 18.76 L139.5 19.72 L140.6071 20.36 L141.7143 17 L142.8214 15 L143.9286 17.08 L145.0357 18.44 L146.1429 18.6 L147.25 18.36 L148.3571 18.6 L149.4643 19 L150.5714 21.24 L151.6786 23.88 L152.7857 25.08 L153.8929 25.96 L155 26.68"/>
</g>
<g style="fill:none;stroke:#0000ff;stroke-width:1.3;" class="svgcurveline" id="svgthumb_us-allison-m">
<path d="M0 40.6 L1.1071 40.36 L2.2143 40.44 L3.3214 40.12 L4.4286 40.52 L5.5357 40.28 L6.6429 40.68 L7.1964 40.68 M9.4107 40.6 L9.9643 40.52 L11.0714 40.28 L12.1786 40.36 L13.2857 40.52 L13.8393 40.6 M14.9464 40.6 L15.5 40.6 L16.6071 40.52 L17.7143 39.88 L18.8214 40.6 L19.9286 40.6 L21.0357 40.52 L22.1429 40.52 L23.25 40.52 L24.3571 40.44 L25.4643 40.28 L26.0179 40.6 M28.2321 40.52 L28.7857 40.52 L29.8929 40.36 L30.4464 40.6 M32.6607 40.6 L33.2143 40.6 L34.3214 40.28 L35.4286 40.52 L36.5357 40.52 L37.6429 40.44 L38.75 40.6 L39.8571 40.44 L40.9643 40.36 L42.0714 40.6 L43.1786 40.6 L44.2857 40.6 L45.3929 40.6 L46.5 40.6 L47.6071 40.6 L48.7143 40.52 L49.8214 40.52 L50.9286 40.52 L52.0357 40.52 L53.1429 40.6 L54.25 40.68 L55.3571 40.68 L55.9107 40.68 M59.2321 40.68 L59.7857 40.6 L60.8929 40.68 L62 40.68 L63.1071 40.68 L63.6607 40.68 M72.5179 40.76 L73.0714 40.76 L73.625 40.76"/>
</g>
</g>
</svg>