<svg viewBox="0 0 155 58" preserveAspectRatio="none" class="svggraph" id="svgthumb_us" style="overflow:visible;width:155px;height:58px;" xmlns="http://www.w3.org/2000/svg" xlink="http://www.w3.org/1999/xlink" title="Chart for alyssa">
<title>Last ranked
#199 in 2020</title>
<rect x="2" y="43" height="13" width="17" style="fill:rgb(200,200,200)"/>
<image x="2.5" y="43.5" href="/images/flags/24/us.png" preserveAspectRatio="xMinYMax meet" width="16" height="12"/>
<text x="153" y="55" class="svgtitle" text-anchor="end" style="fill:#000000;font-size:13px;">United States</text>
<line x1="0" y1="41" x2="155" y2="41" class="svggridline" style="stroke:rgb(200,200,200);stroke-width:1.3"/>
<g id="svgthumb_us-namepaths">
<g style="fill:none;stroke:#ff0000;stroke-width:1.3;" class="svgcurveline" id="svgthumb_us-alyssa-f">
<path d=" M91.3393 40.7 L91.8929 40.7 L93 40.7 L94.1071 40.65 L95.2143 40.6 L96.3214 40.6 L97.4286 40.4 L98.5357 39.9 L99.6429 39.8 L100.75 39.85 L101.8571 39.95 L102.9643 39.55 L104.0714 39.5 L105.1786 39.2 L106.2857 38.85 L107.3929 38.7 L108.5 38.55 L109.6071 37.6 L110.7143 37.7 L111.8214 37.85 L112.9286 37.95 L114.0357 37.65 L115.1429 36.75 L116.25 34.9 L117.3571 32.25 L118.4643 27.3 L119.5714 22.45 L120.6786 18.3 L121.7857 13.6 L122.8929 14.75 L124 15.65 L125.1071 13 L126.2143 13.8 L127.3214 14.7 L128.4286 12.25 L129.5357 7.85 L130.6429 5.65 L131.75 4.95 L132.8571 7.05 L133.9643 7.5 L135.0714 8.45 L136.1786 9.2 L137.2857 11 L138.3929 14.15 L139.5 16.65 L140.6071 14.35 L141.7143 17.85 L142.8214 21.3 L143.9286 23.15 L145.0357 25.45 L146.1429 27.85 L147.25 30.1 L148.3571 31.2 L149.4643 32.65 L150.5714 34.1 L151.6786 35.05 L152.7857 35.95 L153.8929 36.4 L155 36.85"/>
</g>
</g>
</svg>