<svg viewBox="0 0 155 58" preserveAspectRatio="none" class="svggraph" id="svgthumb_us" style="overflow:visible;width:155px;height:58px;" xmlns="http://www.w3.org/2000/svg" xlink="http://www.w3.org/1999/xlink" title="Chart for amanda">
<title>Last ranked
#447 in 2020 (f)
#869 in 1989 (m)</title>
<rect x="2" y="43" height="13" width="17" style="fill:rgb(200,200,200)"/>
<image x="2.5" y="43.5" href="/images/flags/24/us.png" preserveAspectRatio="xMinYMax meet" width="16" height="12"/>
<text x="153" y="55" class="svgtitle" text-anchor="end" style="fill:#000000;font-size:13px;">United States</text>
<line x1="0" y1="41" x2="155" y2="41" class="svggridline" style="stroke:rgb(200,200,200);stroke-width:1.3"/>
<g id="svgthumb_us-namepaths">
<g style="fill:none;stroke:#ff0000;stroke-width:1.3;" class="svgcurveline" id="svgthumb_us-amanda-f">
<path d="M0 36.7043 L1.1071 36.3739 L2.2143 36.6696 L3.3214 36.8435 L4.4286 36.7391 L5.5357 36.8435 L6.6429 36.8087 L7.75 37.2261 L8.8571 37.2957 L9.9643 37.2087 L11.0714 37.6261 L12.1786 37.713 L13.2857 37.487 L14.3929 38.0087 L15.5 37.9217 L16.6071 37.9739 L17.7143 38.4609 L18.8214 38.513 L19.9286 38.6522 L21.0357 38.7043 L22.1429 38.9304 L23.25 38.8261 L24.3571 39.1391 L25.4643 39.4522 L26.5714 39.2435 L27.6786 39.2609 L28.7857 39.5565 L29.8929 39.5391 L31 39.7304 L32.1071 39.713 L33.2143 39.8522 L34.3214 39.9043 L35.4286 40.0783 L36.5357 40.0783 L37.6429 40.1826 L38.75 40.3043 L39.8571 40.3217 L40.9643 40.3043 L42.0714 40.4261 L43.1786 40.4435 L44.2857 40.4783 L45.3929 40.4609 L46.5 40.5304 L47.6071 40.4957 L48.7143 40.5478 L49.8214 40.5652 L50.9286 40.5652 L52.0357 40.6696 L53.1429 40.6348 L54.25 40.687 L55.3571 40.7043 L56.4643 40.6696 L57.5714 40.6696 L58.6786 40.6696 L59.7857 40.7043 L60.8929 40.6522 L62 40.687 L63.1071 40.7217 L64.2143 40.7043 L65.3214 40.7217 L66.4286 40.687 L67.5357 40.687 L68.6429 40.6348 L69.75 40.6522 L70.8571 40.7043 L71.9643 40.6348 L73.0714 40.7043 L74.1786 40.7043 L75.2857 40.687 L76.3929 40.6696 L77.5 40.6174 L78.6071 40.6174 L79.7143 40.6174 L80.8214 40.6174 L81.9286 40.6348 L83.0357 40.6 L84.1429 40.4609 L85.25 40.4435 L86.3571 40.3391 L87.4643 40.287 L88.5714 40.1826 L89.6786 40.113 L90.7857 40.1826 L91.8929 40.0957 L93 39.8696 L94.1071 39.4348 L95.2143 38.687 L96.3214 38.3043 L97.4286 38.5304 L98.5357 38.2174 L99.6429 37.6261 L100.75 36.8957 L101.8571 36.4957 L102.9643 34.7043 L104.0714 32.7043 L105.1786 26.8957 L106.2857 23.7478 L107.3929 21.6783 L108.5 19.2957 L109.6071 8.7739 L110.7143 6.0087 L111.8214 7.5739 L112.9286 8.2 L114.0357 8.2 L115.1429 8.3043 L116.25 4.2174 L117.3571 2.8087 L118.4643 2.2174 L119.5714 5.313 L120.6786 8.8435 L121.7857 11.8696 L122.8929 16.287 L124 19.2783 L125.1071 22.6348 L126.2143 24.3043 L127.3214 26.2 L128.4286 28.3217 L129.5357 29.8522 L130.6429 31.2087 L131.75 32.287 L132.8571 33.5391 L133.9643 34.8783 L135.0714 35.5913 L136.1786 36.3739 L137.2857 36.9652 L138.3929 37.487 L139.5 38.2 L140.6071 38.4957 L141.7143 38.9652 L142.8214 39.313 L143.9286 39.5217 L145.0357 39.7304 L146.1429 39.887 L147.25 40.0261 L148.3571 40.0609 L149.4643 40.0783 L150.5714 40.0957 L151.6786 40.113 L152.7857 40.2 L153.8929 40.2696 L155 40.3217"/>
</g>
<g style="fill:none;stroke:#0000ff;stroke-width:1.3;" class="svgcurveline" id="svgthumb_us-amanda-m">
<path d=" M107.9464 40.9304 L108.5 40.913 L109.6071 40.8957 L110.7143 40.913 L111.8214 40.913 L112.9286 40.8957 L114.0357 40.8957 L115.1429 40.8957 L116.25 40.8783 L117.3571 40.8783 L118.4643 40.8957 L119.5714 40.8957 L120.6786 40.8957 L121.2321 40.913"/>
</g>
</g>
</svg>