<svg viewBox="0 0 155 58" preserveAspectRatio="none" class="svggraph" id="svgthumb_us" style="overflow:visible;width:155px;height:58px;" xmlns="http://www.w3.org/2000/svg" xlink="http://www.w3.org/1999/xlink" title="Chart for amari">
<title>Last ranked
#217 in 2020 (m)
#334 in 2020 (f)</title>
<rect x="2" y="43" height="13" width="17" style="fill:rgb(200,200,200)"/>
<image x="2.5" y="43.5" href="/images/flags/24/us.png" preserveAspectRatio="xMinYMax meet" width="16" height="12"/>
<text x="153" y="55" class="svgtitle" text-anchor="end" style="fill:#000000;font-size:13px;">United States</text>
<line x1="0" y1="41" x2="155" y2="41" class="svggridline" style="stroke:rgb(200,200,200);stroke-width:1.3"/>
<g id="svgthumb_us-namepaths">
<g style="fill:none;stroke:#0000ff;stroke-width:1.3;" class="svgcurveline" id="svgthumb_us-amari-m">
<path d=" M128.9821 39.8 L129.5357 39.6 L130.6429 38.6 L131.75 38.8 L132.8571 38.6 L133.9643 38 L135.0714 36.2 L136.1786 35.2 L137.2857 35 L138.3929 34.8 L139.5 34.8 L140.6071 33 L141.7143 32.2 L142.8214 30.8 L143.9286 31.2 L145.0357 30.6 L146.1429 30.4 L147.25 31.6 L148.3571 31.4 L149.4643 27.6 L150.5714 27.6 L151.6786 27.6 L152.7857 27.4 L153.8929 24.4 L155 22.2"/>
</g>
<g style="fill:none;stroke:#ff0000;stroke-width:1.3;" class="svgcurveline" id="svgthumb_us-amari-f">
<path d=" M127.875 39 L128.4286 38.6 L129.5357 37.6 L130.6429 35.8 L131.75 36.8 L132.8571 35.8 L133.9643 35 L135.0714 34.2 L136.1786 33.2 L137.2857 34 L138.3929 34.8 L139.5 35.4 L140.6071 34.6 L141.7143 33 L142.8214 34.8 L143.9286 34.2 L145.0357 35 L146.1429 34.4 L147.25 35 L148.3571 35 L149.4643 34 L150.5714 33.8 L151.6786 33 L152.7857 32.2 L153.8929 29.6 L155 30.4"/>
</g>
</g>
</svg>