<svg viewBox="0 0 155 58" preserveAspectRatio="none" class="svggraph" id="svgthumb_us" style="overflow:visible;width:155px;height:58px;" xmlns="http://www.w3.org/2000/svg" xlink="http://www.w3.org/1999/xlink" title="Chart for amelia">
<title>Last ranked
#6 in 2020</title>
<rect x="2" y="43" height="13" width="17" style="fill:rgb(200,200,200)"/>
<image x="2.5" y="43.5" href="/images/flags/24/us.png" preserveAspectRatio="xMinYMax meet" width="16" height="12"/>
<text x="153" y="55" class="svgtitle" text-anchor="end" style="fill:#000000;font-size:13px;">United States</text>
<line x1="0" y1="41" x2="155" y2="41" class="svggridline" style="stroke:rgb(200,200,200);stroke-width:1.3"/>
<g id="svgthumb_us-namepaths">
<g style="fill:none;stroke:#ff0000;stroke-width:1.3;" class="svgcurveline" id="svgthumb_us-amelia-f">
<path d="M0 29.7 L1.1071 29.1 L2.2143 30.1 L3.3214 30.1 L4.4286 29.55 L5.5357 30.5 L6.6429 30.4 L7.75 29.95 L8.8571 31.55 L9.9643 31.85 L11.0714 31.9 L12.1786 32 L13.2857 32.45 L14.3929 32.45 L15.5 32.75 L16.6071 33.35 L17.7143 33.75 L18.8214 32.8 L19.9286 34.45 L21.0357 34.3 L22.1429 34.75 L23.25 34.1 L24.3571 34.65 L25.4643 34.75 L26.5714 34.95 L27.6786 35.1 L28.7857 35.3 L29.8929 35.35 L31 35.8 L32.1071 35.75 L33.2143 35.65 L34.3214 36.15 L35.4286 35.25 L36.5357 35.5 L37.6429 35.2 L38.75 35.55 L39.8571 35.65 L40.9643 35.85 L42.0714 36.35 L43.1786 36.4 L44.2857 36.75 L45.3929 37.1 L46.5 36.85 L47.6071 37.15 L48.7143 37.5 L49.8214 37.5 L50.9286 37.95 L52.0357 37.95 L53.1429 37.85 L54.25 38.05 L55.3571 38.1 L56.4643 38.3 L57.5714 38.1 L58.6786 38.1 L59.7857 38.45 L60.8929 38.2 L62 38.3 L63.1071 38.05 L64.2143 38.5 L65.3214 38.85 L66.4286 38.85 L67.5357 38.9 L68.6429 39.05 L69.75 39.05 L70.8571 39.25 L71.9643 39.25 L73.0714 39.3 L74.1786 39.5 L75.2857 39.4 L76.3929 39.3 L77.5 39.65 L78.6071 39.55 L79.7143 39.55 L80.8214 39.55 L81.9286 39.7 L83.0357 39.7 L84.1429 39.7 L85.25 39.75 L86.3571 39.85 L87.4643 39.8 L88.5714 39.7 L89.6786 39.65 L90.7857 39.8 L91.8929 39.75 L93 39.7 L94.1071 39.7 L95.2143 39.8 L96.3214 39.7 L97.4286 39.85 L98.5357 39.7 L99.6429 39.65 L100.75 39.65 L101.8571 39.75 L102.9643 39.55 L104.0714 39.4 L105.1786 39.3 L106.2857 39.35 L107.3929 39.15 L108.5 39.05 L109.6071 38.95 L110.7143 38.85 L111.8214 38.65 L112.9286 38.7 L114.0357 38.85 L115.1429 37.95 L116.25 38.25 L117.3571 38.25 L118.4643 38.3 L119.5714 38.05 L120.6786 37.8 L121.7857 37.3 L122.8929 37.2 L124 37.65 L125.1071 37.85 L126.2143 37.8 L127.3214 37.85 L128.4286 37.65 L129.5357 37.55 L130.6429 37.35 L131.75 37.35 L132.8571 37.15 L133.9643 36.85 L135.0714 34.8 L136.1786 33.3 L137.2857 32.7 L138.3929 31.35 L139.5 31.3 L140.6071 31.1 L141.7143 30.55 L142.8214 29.4 L143.9286 27.05 L145.0357 24.55 L146.1429 22.3 L147.25 20.1 L148.3571 18.5 L149.4643 15.7 L150.5714 13.1 L151.6786 9.55 L152.7857 7.65 L153.8929 5.6 L155 4.7"/>
</g>
</g>
</svg>