<svg viewBox="0 0 155 58" preserveAspectRatio="none" class="svggraph" id="svgthumb_us" style="overflow:visible;width:155px;height:58px;" xmlns="http://www.w3.org/2000/svg" xlink="http://www.w3.org/1999/xlink" title="Chart for amina">
<title>Last ranked
#330 in 2020</title>
<rect x="2" y="43" height="13" width="17" style="fill:rgb(200,200,200)"/>
<image x="2.5" y="43.5" href="/images/flags/24/us.png" preserveAspectRatio="xMinYMax meet" width="16" height="12"/>
<text x="153" y="55" class="svgtitle" text-anchor="end" style="fill:#000000;font-size:13px;">United States</text>
<line x1="0" y1="41" x2="155" y2="41" class="svggridline" style="stroke:rgb(200,200,200);stroke-width:1.3"/>
<g id="svgthumb_us-namepaths">
<g style="fill:none;stroke:#ff0000;stroke-width:1.3;" class="svgcurveline" id="svgthumb_us-amina-f">
<path d=" M132.3036 35.5 L132.8571 35.5 L133.4107 35.5 M134.5179 35.5 L135.0714 35 L136.1786 34 L137.2857 34.5 L138.3929 34 L139.5 34.5 L140.6071 32.5 L141.7143 31.5 L142.8214 31 L143.9286 30.5 L145.0357 31.5 L146.1429 30.5 L147.25 29.5 L148.3571 21 L149.4643 13.5 L150.5714 12.5 L151.6786 10 L152.7857 11 L153.8929 14 L155 14.5"/>
</g>
</g>
</svg>