<svg viewBox="0 0 155 58" preserveAspectRatio="none" class="svggraph" id="svgthumb_us" style="overflow:visible;width:155px;height:58px;" xmlns="http://www.w3.org/2000/svg" xlink="http://www.w3.org/1999/xlink" title="Chart for amy">
<title>Last ranked
#216 in 2020 (f)
#999 in 1977 (m)</title>
<rect x="2" y="43" height="13" width="17" style="fill:rgb(200,200,200)"/>
<image x="2.5" y="43.5" href="/images/flags/24/us.png" preserveAspectRatio="xMinYMax meet" width="16" height="12"/>
<text x="153" y="55" class="svgtitle" text-anchor="end" style="fill:#000000;font-size:13px;">United States</text>
<line x1="0" y1="41" x2="155" y2="41" class="svggridline" style="stroke:rgb(200,200,200);stroke-width:1.3"/>
<g id="svgthumb_us-namepaths">
<g style="fill:none;stroke:#ff0000;stroke-width:1.3;" class="svgcurveline" id="svgthumb_us-amy-f">
<path d="M0 37.7429 L1.1071 38.2 L2.2143 37.781 L3.3214 37.6857 L4.4286 38.1619 L5.5357 37.781 L6.6429 38.2 L7.75 37.9333 L8.8571 38.619 L9.9643 38.4667 L11.0714 38.4095 L12.1786 38.4286 L13.2857 38.2 L14.3929 38.619 L15.5 38.3524 L16.6071 38.6571 L17.7143 38.581 L18.8214 38.581 L19.9286 38.6381 L21.0357 38.8286 L22.1429 39 L23.25 39.1714 L24.3571 39.2667 L25.4643 39.3429 L26.5714 39.3429 L27.6786 39.3429 L28.7857 39.5333 L29.8929 39.6095 L31 39.6857 L32.1071 39.7429 L33.2143 39.7048 L34.3214 39.7238 L35.4286 39.8 L36.5357 39.8762 L37.6429 39.8762 L38.75 39.8381 L39.8571 39.9524 L40.9643 39.9714 L42.0714 40.0857 L43.1786 40.0095 L44.2857 40.0476 L45.3929 40.0857 L46.5 40.0667 L47.6071 40.0857 L48.7143 40.1048 L49.8214 40.1619 L50.9286 40.2381 L52.0357 40.3143 L53.1429 40.4095 L54.25 40.4286 L55.3571 40.3714 L56.4643 40.4095 L57.5714 40.4095 L58.6786 40.4476 L59.7857 40.4286 L60.8929 40.4286 L62 40.4095 L63.1071 40.4286 L64.2143 40.4095 L65.3214 40.3905 L66.4286 40.3714 L67.5357 40.3524 L68.6429 40.3524 L69.75 40.3905 L70.8571 40.3714 L71.9643 40.3714 L73.0714 40.3905 L74.1786 40.3905 L75.2857 40.3333 L76.3929 39.9333 L77.5 39.7238 L78.6071 39.5143 L79.7143 39.2476 L80.8214 38.7143 L81.9286 38.4476 L83.0357 37.9714 L84.1429 37.7238 L85.25 37.3048 L86.3571 36.5619 L87.4643 35.8762 L88.5714 35.5333 L89.6786 34.9429 L90.7857 34.2571 L91.8929 33.1143 L93 31.6857 L94.1071 28.981 L95.2143 26.9048 L96.3214 23.1143 L97.4286 21.9524 L98.5357 17.8 L99.6429 14.7905 L100.75 12.4857 L101.8571 10.4286 L102.9643 7.9524 L104.0714 5.0381 L105.1786 1.6476 L106.2857 3.019 L107.3929 10.0476 L108.5 14.1048 L109.6071 17.1143 L110.7143 19.781 L111.8214 19.3238 L112.9286 21.2667 L114.0357 22.8095 L115.1429 24.1048 L116.25 26.1048 L117.3571 27.1143 L118.4643 29.019 L119.5714 31.0571 L120.6786 32.4857 L121.7857 33.1524 L122.8929 34.181 L124 34.981 L125.1071 35.7619 L126.2143 36.4095 L127.3214 36.5048 L128.4286 36.9619 L129.5357 37.3238 L130.6429 37.5714 L131.75 37.8571 L132.8571 37.9714 L133.9643 38.181 L135.0714 38.0095 L136.1786 38.2571 L137.2857 38.0667 L138.3929 38.219 L139.5 38.5048 L140.6071 38.4476 L141.7143 38.6762 L142.8214 38.6571 L143.9286 38.7905 L145.0357 38.8476 L146.1429 38.8095 L147.25 38.7905 L148.3571 38.8667 L149.4643 39 L150.5714 39.1905 L151.6786 39.2476 L152.7857 39.4571 L153.8929 39.4571 L155 39.5524"/>
</g>
<g style="fill:none;stroke:#0000ff;stroke-width:1.3;" class="svgcurveline" id="svgthumb_us-amy-m">
<path d=" M97.9821 40.9429 L98.5357 40.9238 L99.0893 40.9429 M100.1964 40.9429 L100.75 40.9238 L101.8571 40.9238 L102.9643 40.9048 L104.0714 40.8857 L105.1786 40.9048 L106.2857 40.8857 L107.3929 40.9238 L107.9464 40.9238"/>
</g>
</g>
</svg>