<svg viewBox="0 0 155 58" preserveAspectRatio="none" class="svggraph" id="svgthumb_us" style="overflow:visible;width:155px;height:58px;" xmlns="http://www.w3.org/2000/svg" xlink="http://www.w3.org/1999/xlink" title="Chart for ana">
<title>Last ranked
#245 in 2020</title>
<rect x="2" y="43" height="13" width="17" style="fill:rgb(200,200,200)"/>
<image x="2.5" y="43.5" href="/images/flags/24/us.png" preserveAspectRatio="xMinYMax meet" width="16" height="12"/>
<text x="153" y="55" class="svgtitle" text-anchor="end" style="fill:#000000;font-size:13px;">United States</text>
<line x1="0" y1="41" x2="155" y2="41" class="svggridline" style="stroke:rgb(200,200,200);stroke-width:1.3"/>
<g id="svgthumb_us-namepaths">
<g style="fill:none;stroke:#ff0000;stroke-width:1.3;" class="svgcurveline" id="svgthumb_us-ana-f">
<path d="M0 40 L1.1071 39.2 L2.2143 39.8 L3.3214 39.8 L4.4286 39.2 L5.5357 40.2 L6.6429 39.6 L7.1964 40 M8.3036 40 L8.8571 39.8 L9.9643 40 L11.0714 39.4 L11.625 40 M13.8393 40.2 L14.3929 40.2 L14.9464 40.2 M17.1607 40.2 L17.7143 40 L18.2679 40.2 M19.375 40.2 L19.9286 39.8 L21.0357 40 L22.1429 39.8 L22.6964 40 M23.8036 40 L24.3571 39.8 L25.4643 40 L26.0179 40 M27.125 40 L27.6786 39.4 L28.7857 39.8 L29.8929 39.8 L30.4464 40 M33.7679 40 L34.3214 39.4 L34.875 40 M40.4107 40.2 L40.9643 40 L42.0714 40 L43.1786 40 L44.2857 40 L45.3929 40 L46.5 40 L47.6071 40 L48.7143 40 L49.8214 40 L50.9286 39.8 L52.0357 39.6 L53.1429 39.6 L54.25 39.6 L55.3571 39.4 L56.4643 39.6 L57.5714 39.8 L58.6786 39.8 L59.7857 39.4 L60.8929 39.6 L62 39.6 L63.1071 39.8 L64.2143 39.6 L65.3214 39.8 L66.4286 39.8 L67.5357 39.8 L68.6429 39.8 L69.75 39.4 L70.8571 39.4 L71.9643 39.2 L73.0714 39.4 L74.1786 39.2 L75.2857 38.4 L76.3929 38.4 L77.5 38.4 L78.6071 38.2 L79.7143 38 L80.8214 37.6 L81.9286 37.2 L83.0357 37.2 L84.1429 36.4 L85.25 36.4 L86.3571 35.8 L87.4643 35.4 L88.5714 35 L89.6786 34.8 L90.7857 34.2 L91.8929 33.2 L93 33.2 L94.1071 32.2 L95.2143 31.6 L96.3214 31.2 L97.4286 30.2 L98.5357 30 L99.6429 29.6 L100.75 28.8 L101.8571 27.6 L102.9643 27 L104.0714 26 L105.1786 26.2 L106.2857 26.2 L107.3929 27.2 L108.5 27.2 L109.6071 27.8 L110.7143 26.2 L111.8214 24.8 L112.9286 26 L114.0357 26.4 L115.1429 25.6 L116.25 25 L117.3571 23.2 L118.4643 23.4 L119.5714 23.8 L120.6786 18.2 L121.7857 15.6 L122.8929 15 L124 17.8 L125.1071 17 L126.2143 18.4 L127.3214 16.4 L128.4286 17 L129.5357 16.8 L130.6429 17.6 L131.75 19.4 L132.8571 16.6 L133.9643 15.6 L135.0714 15.4 L136.1786 15.2 L137.2857 17.8 L138.3929 17.8 L139.5 18 L140.6071 20 L141.7143 22.2 L142.8214 23 L143.9286 25 L145.0357 27.2 L146.1429 26 L147.25 27 L148.3571 25.4 L149.4643 25.2 L150.5714 26.2 L151.6786 25.6 L152.7857 25.4 L153.8929 25.8 L155 27"/>
</g>
</g>
</svg>