<svg viewBox="0 0 155 58" preserveAspectRatio="none" class="svggraph" id="svgthumb_us" style="overflow:visible;width:155px;height:58px;" xmlns="http://www.w3.org/2000/svg" xlink="http://www.w3.org/1999/xlink" title="Chart for anastasia">
<title>Last ranked
#158 in 2020</title>
<rect x="2" y="43" height="13" width="17" style="fill:rgb(200,200,200)"/>
<image x="2.5" y="43.5" href="/images/flags/24/us.png" preserveAspectRatio="xMinYMax meet" width="16" height="12"/>
<text x="153" y="55" class="svgtitle" text-anchor="end" style="fill:#000000;font-size:13px;">United States</text>
<line x1="0" y1="41" x2="155" y2="41" class="svggridline" style="stroke:rgb(200,200,200);stroke-width:1.3"/>
<g id="svgthumb_us-namepaths">
<g style="fill:none;stroke:#ff0000;stroke-width:1.3;" class="svgcurveline" id="svgthumb_us-anastasia-f">
<path d="M0 39 L1.1071 38.8 L2.2143 39 L3.3214 38.6 L4.4286 38.6 L5.5357 38.8 L6.6429 38 L7.75 38.2 L8.8571 38.8 L9.9643 38.8 L11.0714 38.2 L12.1786 37.6 L13.2857 38.8 L14.3929 38.6 L15.5 36.6 L16.6071 39 L17.7143 38.2 L18.8214 38.4 L19.9286 38.6 L21.0357 39.2 L22.1429 39 L23.25 38 L24.3571 39.2 L25.4643 38.8 L26.5714 38.2 L27.6786 39 L28.7857 38 L29.8929 38.8 L31 39 L32.1071 39.2 L33.2143 38.8 L34.3214 38.4 L35.4286 39 L36.5357 38.8 L37.6429 37.8 L38.75 38.8 L39.8571 38.6 L40.9643 38.6 L42.0714 38.4 L43.1786 38.6 L44.2857 39 L45.3929 38.8 L46.5 38.8 L47.6071 39.2 L48.7143 39.6 L49.8214 39.4 L50.9286 39.6 L52.0357 39.6 L53.1429 39.6 L54.25 39.8 L55.3571 40 L56.4643 40.2 L57.5714 40 L58.125 40 M59.2321 40 L59.7857 39.8 L60.3393 40.2 M84.6964 40 L85.25 40 L85.8036 40 M86.9107 40 L87.4643 39.8 L88.0179 39.8 M91.3393 39.8 L91.8929 39.8 L93 39.6 L94.1071 39.4 L95.2143 39.2 L96.3214 38.8 L97.4286 38.4 L98.5357 38.6 L99.6429 38.4 L100.75 38.4 L101.8571 38.4 L102.9643 38 L104.0714 38.2 L105.1786 37.8 L106.2857 38 L107.3929 37.8 L108.5 38.2 L109.6071 38 L110.7143 38.4 L111.8214 37.8 L112.9286 37.8 L114.0357 36.8 L115.1429 36.6 L116.25 36.8 L117.3571 36.4 L118.4643 31.4 L119.5714 32.8 L120.6786 33.4 L121.7857 34.4 L122.8929 34 L124 33.6 L125.1071 33 L126.2143 32.4 L127.3214 33.2 L128.4286 32 L129.5357 31 L130.6429 28.8 L131.75 30.6 L132.8571 30.8 L133.9643 30.6 L135.0714 29 L136.1786 29.2 L137.2857 29.6 L138.3929 29.8 L139.5 30 L140.6071 30.8 L141.7143 32.2 L142.8214 31 L143.9286 32 L145.0357 32 L146.1429 31.4 L147.25 28 L148.3571 27.2 L149.4643 25.6 L150.5714 23.2 L151.6786 21.8 L152.7857 20.6 L153.8929 20.2 L155 21"/>
</g>
</g>
</svg>