<svg viewBox="0 0 155 58" preserveAspectRatio="none" class="svggraph" id="svgthumb_us" style="overflow:visible;width:155px;height:58px;" xmlns="http://www.w3.org/2000/svg" xlink="http://www.w3.org/1999/xlink" title="Chart for angelina">
<title>Last ranked
#290 in 2020</title>
<rect x="2" y="43" height="13" width="17" style="fill:rgb(200,200,200)"/>
<image x="2.5" y="43.5" href="/images/flags/24/us.png" preserveAspectRatio="xMinYMax meet" width="16" height="12"/>
<text x="153" y="55" class="svgtitle" text-anchor="end" style="fill:#000000;font-size:13px;">United States</text>
<line x1="0" y1="41" x2="155" y2="41" class="svggridline" style="stroke:rgb(200,200,200);stroke-width:1.3"/>
<g id="svgthumb_us-namepaths">
<g style="fill:none;stroke:#ff0000;stroke-width:1.3;" class="svgcurveline" id="svgthumb_us-angelina-f">
<path d="M0 39.8 L1.1071 39.9333 L2.2143 39.6667 L3.3214 38.0667 L4.4286 39.4 L5.5357 39.2667 L6.6429 39.9333 L7.75 39.2667 L8.8571 38.3333 L9.9643 39 L11.0714 38.7333 L12.1786 38.2 L13.2857 38.0667 L14.3929 37.8 L15.5 37.1333 L16.6071 38.2 L17.7143 37.1333 L18.8214 36.6 L19.9286 36.4667 L21.0357 35.8 L22.1429 36.2 L23.25 34.6 L24.3571 35.4 L25.4643 33.8 L26.5714 33.6667 L27.6786 33.6667 L28.7857 33 L29.8929 33.2667 L31 31.5333 L32.1071 32.7333 L33.2143 33.1333 L34.3214 30.2 L35.4286 32.2 L36.5357 30.4667 L37.6429 29.5333 L38.75 30.2 L39.8571 30.3333 L40.9643 30.4667 L42.0714 30.6 L43.1786 30.3333 L44.2857 29.9333 L45.3929 29.8 L46.5 30.0667 L47.6071 29.8 L48.7143 29.8 L49.8214 30.2 L50.9286 31.5333 L52.0357 31.2667 L53.1429 31.2667 L54.25 32.0667 L55.3571 31.5333 L56.4643 33.5333 L57.5714 33.6667 L58.6786 35.4 L59.7857 36.2 L60.8929 36.4667 L62 36.6 L63.1071 36.8667 L64.2143 37.4 L65.3214 37.4 L66.4286 38.4667 L67.5357 38.2 L68.6429 38.6 L69.75 38.6 L70.8571 39.1333 L71.9643 38.8667 L73.0714 39.1333 L74.1786 39.1333 L75.2857 39.4 L76.3929 39.1333 L77.5 39 L78.6071 39.4 L79.7143 39.1333 L80.8214 39.4 L81.9286 39.2667 L83.0357 39.2667 L84.1429 39.2667 L85.25 39.4 L86.3571 39.5333 L87.4643 39.4 L88.5714 39.5333 L89.6786 39.5333 L90.7857 39.1333 L91.8929 39.1333 L93 38.6 L94.1071 37.9333 L95.2143 37.5333 L96.3214 37.6667 L97.4286 37.4 L98.5357 37 L99.6429 37.1333 L100.75 37.1333 L101.8571 36.2 L102.9643 36.0667 L104.0714 35.6667 L105.1786 35.1333 L106.2857 35.4 L107.3929 35.5333 L108.5 35.5333 L109.6071 34.4667 L110.7143 35 L111.8214 34.4667 L112.9286 34.7333 L114.0357 34.8667 L115.1429 35.4 L116.25 35.2667 L117.3571 35.1333 L118.4643 35.4 L119.5714 35.4 L120.6786 35 L121.7857 33.8 L122.8929 34.8667 L124 34.6 L125.1071 34.8667 L126.2143 34.7333 L127.3214 34.7333 L128.4286 34.6 L129.5357 33.5333 L130.6429 33 L131.75 31.9333 L132.8571 26.7333 L133.9643 18.3333 L135.0714 14.0667 L136.1786 12.6 L137.2857 8.4667 L138.3929 2.8667 L139.5 5.8 L140.6071 10.3333 L141.7143 13.5333 L142.8214 17 L143.9286 19.6667 L145.0357 21.2667 L146.1429 24.4667 L147.25 26.3333 L148.3571 26.4667 L149.4643 27.5333 L150.5714 28.2 L151.6786 29.9333 L152.7857 31.1333 L153.8929 32.6 L155 32.7333"/>
</g>
</g>
</svg>