<svg viewBox="0 0 155 58" preserveAspectRatio="none" class="svggraph" id="svgthumb_us" style="overflow:visible;width:155px;height:58px;" xmlns="http://www.w3.org/2000/svg" xlink="http://www.w3.org/1999/xlink" title="Chart for angela">
<title>Last ranked
#251 in 2020 (f)
#999 in 1977 (m)</title>
<rect x="2" y="43" height="13" width="17" style="fill:rgb(200,200,200)"/>
<image x="2.5" y="43.5" href="/images/flags/24/us.png" preserveAspectRatio="xMinYMax meet" width="16" height="12"/>
<text x="153" y="55" class="svgtitle" text-anchor="end" style="fill:#000000;font-size:13px;">United States</text>
<line x1="0" y1="41" x2="155" y2="41" class="svggridline" style="stroke:rgb(200,200,200);stroke-width:1.3"/>
<g id="svgthumb_us-namepaths">
<g style="fill:none;stroke:#ff0000;stroke-width:1.3;" class="svgcurveline" id="svgthumb_us-angela-f">
<path d="M0 40.825 L1.1071 40.775 L2.2143 40.475 L3.3214 40.55 L4.4286 40.625 L5.5357 40.675 L6.6429 40.6 L7.75 40.475 L8.8571 40.575 L9.9643 40.45 L11.0714 40.45 L12.1786 40.625 L13.2857 40.3 L14.3929 40.25 L15.5 40.325 L16.6071 40.3 L17.7143 40.4 L18.8214 40.05 L19.9286 40.1 L21.0357 40.2 L22.1429 40.15 L23.25 40.125 L24.3571 39.975 L25.4643 39.825 L26.5714 39.95 L27.6786 39.8 L28.7857 40.025 L29.8929 39.7 L31 39.7 L32.1071 39.625 L33.2143 39.45 L34.3214 39.35 L35.4286 39.3 L36.5357 39.3 L37.6429 39.15 L38.75 39.3 L39.8571 39.35 L40.9643 39.35 L42.0714 39.5 L43.1786 39.6 L44.2857 39.675 L45.3929 39.7 L46.5 39.725 L47.6071 39.675 L48.7143 39.85 L49.8214 39.9 L50.9286 39.85 L52.0357 39.775 L53.1429 39.7 L54.25 39.55 L55.3571 39.625 L56.4643 39.6 L57.5714 39.625 L58.6786 39.625 L59.7857 39.55 L60.8929 39.575 L62 39.625 L63.1071 39.225 L64.2143 39.425 L65.3214 39.375 L66.4286 39.475 L67.5357 39.35 L68.6429 39.175 L69.75 39.375 L70.8571 39.15 L71.9643 39.025 L73.0714 39.025 L74.1786 38.725 L75.2857 38.425 L76.3929 38.2 L77.5 38.075 L78.6071 38.1 L79.7143 37.525 L80.8214 36.875 L81.9286 36.55 L83.0357 36.15 L84.1429 34.9 L85.25 34.65 L86.3571 34.025 L87.4643 32.85 L88.5714 30.575 L89.6786 27.95 L90.7857 26.625 L91.8929 24.3 L93 20.225 L94.1071 15.35 L95.2143 14.6 L96.3214 12.525 L97.4286 10.775 L98.5357 11.125 L99.6429 6.975 L100.75 4.05 L101.8571 4.475 L102.9643 7.375 L104.0714 4.6 L105.1786 3.575 L106.2857 5.95 L107.3929 9.1 L108.5 9.8 L109.6071 11.6 L110.7143 15.775 L111.8214 18.75 L112.9286 20.325 L114.0357 22.525 L115.1429 25.35 L116.25 27.15 L117.3571 28.45 L118.4643 29.55 L119.5714 30.7 L120.6786 31.975 L121.7857 32.9 L122.8929 33.875 L124 34.675 L125.1071 35.2 L126.2143 35.35 L127.3214 35.65 L128.4286 35.95 L129.5357 36.225 L130.6429 36.65 L131.75 36.325 L132.8571 36.2 L133.9643 36.05 L135.0714 36.3 L136.1786 36.875 L137.2857 37.075 L138.3929 37.425 L139.5 37.5 L140.6071 37.75 L141.7143 37.95 L142.8214 38.2 L143.9286 38.55 L145.0357 38.825 L146.1429 38.875 L147.25 38.85 L148.3571 38.775 L149.4643 39.1 L150.5714 39.05 L151.6786 39.225 L152.7857 39.325 L153.8929 39.25 L155 39.3"/>
</g>
<g style="fill:none;stroke:#0000ff;stroke-width:1.3;" class="svgcurveline" id="svgthumb_us-angela-m">
<path d=" M95.7679 40.925 L96.3214 40.9 L96.875 40.925 M99.0893 40.925 L99.6429 40.9 L100.75 40.875 L101.8571 40.9 L102.9643 40.875 L104.0714 40.875 L105.1786 40.85 L105.7321 40.9 M106.8393 40.9 L107.3929 40.9 L107.9464 40.9"/>
</g>
</g>
</svg>