<svg viewBox="0 0 155 58" preserveAspectRatio="none" class="svggraph" id="svgthumb_us" style="overflow:visible;width:155px;height:58px;" xmlns="http://www.w3.org/2000/svg" xlink="http://www.w3.org/1999/xlink" title="Chart for angel">
<title>Last ranked
#76 in 2020 (m)
#440 in 2020 (f)</title>
<rect x="2" y="43" height="13" width="17" style="fill:rgb(200,200,200)"/>
<image x="2.5" y="43.5" href="/images/flags/24/us.png" preserveAspectRatio="xMinYMax meet" width="16" height="12"/>
<text x="153" y="55" class="svgtitle" text-anchor="end" style="fill:#000000;font-size:13px;">United States</text>
<line x1="0" y1="41" x2="155" y2="41" class="svggridline" style="stroke:rgb(200,200,200);stroke-width:1.3"/>
<g id="svgthumb_us-namepaths">
<g style="fill:none;stroke:#0000ff;stroke-width:1.3;" class="svgcurveline" id="svgthumb_us-angel-m">
<path d=" M8.3036 40.6667 L8.8571 40.6 L9.4107 40.7333 M11.625 40.7333 L12.1786 40.6667 L12.7321 40.6667 M20.4821 40.6667 L21.0357 40.6 L21.5893 40.6667 M29.3393 40.6 L29.8929 40.6 L31 40.6667 L32.1071 40.6 L33.2143 40.6 L34.3214 40.6667 L35.4286 40.6 L36.5357 40.6 L37.6429 40.6667 L38.1964 40.6667 M39.3036 40.6667 L39.8571 40.5333 L40.9643 40.6 L42.0714 40.6667 L43.1786 40.5333 L44.2857 40.4667 L45.3929 40.6 L46.5 40.4667 L47.6071 40.5333 L48.7143 40.3333 L49.8214 40.2667 L50.9286 40.2667 L52.0357 40.2667 L53.1429 40.2 L54.25 40.2 L55.3571 40 L56.4643 40.3333 L57.5714 40.2 L58.6786 40.3333 L59.7857 40.2667 L60.8929 40.4 L62 40.4 L63.1071 40.4 L64.2143 40.4667 L65.3214 40.4667 L66.4286 40.4667 L67.5357 40.4 L68.6429 40.5333 L69.75 40.4667 L70.8571 40.4667 L71.9643 40.4 L73.0714 40.4667 L74.1786 40.4 L75.2857 40.1333 L76.3929 40.3333 L77.5 40.1333 L78.6071 40.0667 L79.7143 39.9333 L80.8214 39.9333 L81.9286 39.6 L83.0357 39.6 L84.1429 39.4667 L85.25 39.2667 L86.3571 39.3333 L87.4643 39.1333 L88.5714 38.9333 L89.6786 38.9333 L90.7857 38.8 L91.8929 38.9333 L93 38.7333 L94.1071 38.4667 L95.2143 38.2 L96.3214 38.1333 L97.4286 37.8667 L98.5357 37.6 L99.6429 37.4 L100.75 37.3333 L101.8571 37.2 L102.9643 36.6667 L104.0714 36.4667 L105.1786 36.5333 L106.2857 36.3333 L107.3929 36.1333 L108.5 36.1333 L109.6071 36.1333 L110.7143 35.8667 L111.8214 36.3333 L112.9286 35.9333 L114.0357 36.2 L115.1429 35.9333 L116.25 35.6 L117.3571 35.2667 L118.4643 35.3333 L119.5714 34.9333 L120.6786 34.0667 L121.7857 33.5333 L122.8929 32.5333 L124 31.3333 L125.1071 31.2 L126.2143 29.6 L127.3214 28.6 L128.4286 28 L129.5357 25.9333 L130.6429 25.3333 L131.75 23.3333 L132.8571 20.8667 L133.9643 18.5333 L135.0714 14.6 L136.1786 11.9333 L137.2857 11 L138.3929 6.5333 L139.5 5.7333 L140.6071 6.7333 L141.7143 9.3333 L142.8214 10 L143.9286 12.5333 L145.0357 16.2667 L146.1429 17.9333 L147.25 20 L148.3571 20.4667 L149.4643 21.0667 L150.5714 22.7333 L151.6786 23.2667 L152.7857 23.6 L153.8929 23.9333 L155 24.6667"/>
</g>
<g style="fill:none;stroke:#ff0000;stroke-width:1.3;" class="svgcurveline" id="svgthumb_us-angel-f">
<path d=" M83.5893 40.6667 L84.1429 40.6 L85.25 40.5333 L86.3571 40.4 L87.4643 40.3333 L88.5714 40.1333 L89.6786 39.0667 L90.7857 39.5333 L91.8929 39.6 L93 39.5333 L94.1071 39.5333 L95.2143 39.3333 L96.3214 39.4667 L97.4286 39.0667 L98.5357 38.6 L99.6429 36.9333 L100.75 35.3333 L101.8571 32.9333 L102.9643 33.2 L104.0714 34.8 L105.1786 34.2 L106.2857 34.0667 L107.3929 32.3333 L108.5 33.1333 L109.6071 34.4 L110.7143 34.6667 L111.8214 34.2667 L112.9286 34.6 L114.0357 35.1333 L115.1429 34.8 L116.25 34.6 L117.3571 35.2667 L118.4643 35.8667 L119.5714 35.0667 L120.6786 35.2667 L121.7857 35.6 L122.8929 35 L124 35.3333 L125.1071 35.4667 L126.2143 35.2667 L127.3214 35 L128.4286 34.2667 L129.5357 33.2667 L130.6429 32.8 L131.75 31.6667 L132.8571 31.5333 L133.9643 30.6 L135.0714 30.5333 L136.1786 31.4 L137.2857 32.3333 L138.3929 33.1333 L139.5 33.9333 L140.6071 33.7333 L141.7143 34.2 L142.8214 34.8 L143.9286 35.5333 L145.0357 35.9333 L146.1429 36.2 L147.25 36.7333 L148.3571 36.9333 L149.4643 37.2 L150.5714 37.5333 L151.6786 37.7333 L152.7857 37.9333 L153.8929 38.1333 L155 38.4"/>
</g>
</g>
</svg>