<svg viewBox="0 0 155 58" preserveAspectRatio="none" class="svggraph" id="svgthumb_us" style="overflow:visible;width:155px;height:58px;" xmlns="http://www.w3.org/2000/svg" xlink="http://www.w3.org/1999/xlink" title="Chart for annalise">
<title>Last ranked
#440 in 2020</title>
<rect x="2" y="43" height="13" width="17" style="fill:rgb(200,200,200)"/>
<image x="2.5" y="43.5" href="/images/flags/24/us.png" preserveAspectRatio="xMinYMax meet" width="16" height="12"/>
<text x="153" y="55" class="svgtitle" text-anchor="end" style="fill:#000000;font-size:13px;">United States</text>
<line x1="0" y1="41" x2="155" y2="41" class="svggridline" style="stroke:rgb(200,200,200);stroke-width:1.3"/>
<g id="svgthumb_us-namepaths">
<g style="fill:none;stroke:#ff0000;stroke-width:1.3;" class="svgcurveline" id="svgthumb_us-annalise-f">
<path d=" M128.9821 35.2857 L129.5357 34.1429 L130.0893 35.2857 M131.1964 35.2857 L131.75 34.7143 L132.8571 33 L133.9643 32.4286 L135.0714 31.2857 L136.1786 30.7143 L137.2857 31.2857 L138.3929 29 L139.5 27.2857 L140.6071 29 L141.7143 29 L142.8214 27.8571 L143.9286 25 L145.0357 25.5714 L146.1429 23.2857 L147.25 21 L148.3571 20.4286 L149.4643 18.1429 L150.5714 16.4286 L151.6786 17 L152.7857 18.1429 L153.8929 19.8571 L155 18.7143"/>
</g>
</g>
</svg>