<svg viewBox="0 0 155 58" preserveAspectRatio="none" class="svggraph" id="svgthumb_us" style="overflow:visible;width:155px;height:58px;" xmlns="http://www.w3.org/2000/svg" xlink="http://www.w3.org/1999/xlink" title="Chart for annabelle">
<title>Last ranked
#222 in 2020</title>
<rect x="2" y="43" height="13" width="17" style="fill:rgb(200,200,200)"/>
<image x="2.5" y="43.5" href="/images/flags/24/us.png" preserveAspectRatio="xMinYMax meet" width="16" height="12"/>
<text x="153" y="55" class="svgtitle" text-anchor="end" style="fill:#000000;font-size:13px;">United States</text>
<line x1="0" y1="41" x2="155" y2="41" class="svggridline" style="stroke:rgb(200,200,200);stroke-width:1.3"/>
<g id="svgthumb_us-namepaths">
<g style="fill:none;stroke:#ff0000;stroke-width:1.3;" class="svgcurveline" id="svgthumb_us-annabelle-f">
<path d="M0 39.8 L1.1071 39.2667 L2.2143 38.4667 L3.3214 39.8 L4.4286 39.6667 L5.5357 38.4667 L6.6429 39.1333 L7.75 39.1333 L8.8571 39.6667 L9.9643 39 L11.0714 38.3333 L12.1786 38.7333 L13.2857 38.6 L14.3929 39.1333 L15.5 39.1333 L16.6071 38.7333 L17.7143 38.7333 L18.8214 39.5333 L19.9286 37.2667 L21.0357 38.6 L22.1429 37.9333 L23.25 38.2 L24.3571 37.9333 L25.4643 38.0667 L26.5714 37.5333 L27.6786 37.1333 L28.7857 37.6667 L29.8929 37.2667 L31 36.7333 L32.1071 37.1333 L33.2143 37.1333 L34.3214 36.0667 L35.4286 36.0667 L36.5357 36.0667 L37.6429 35.6667 L38.75 35.4 L39.8571 35.5333 L40.9643 35.1333 L42.0714 35.6667 L43.1786 35.6667 L44.2857 34.8667 L45.3929 34.4667 L46.5 34.7333 L47.6071 34.4667 L48.7143 34.0667 L49.8214 35 L50.9286 34.2 L52.0357 34.8667 L53.1429 34.7333 L54.25 35.5333 L55.3571 35.6667 L56.4643 35.5333 L57.5714 36.7333 L58.6786 37.6667 L59.7857 37.5333 L60.8929 37.9333 L62 38.3333 L63.1071 38.8667 L64.2143 38.4667 L65.3214 38.7333 L66.4286 38.8667 L67.5357 39.2667 L68.6429 39.5333 L69.75 39.8 L70.8571 39.6667 L71.9643 39.9333 L73.0714 40.0667 L74.1786 40.2 L75.2857 40.0667 L76.3929 40.2 L77.5 40.2 L78.0536 40.3333 M126.7679 39.6667 L127.3214 39.6667 L128.4286 39.5333 L129.5357 39.2667 L130.6429 38.4667 L131.75 37.4 L132.8571 37 L133.9643 35.1333 L135.0714 34.8667 L136.1786 33.9333 L137.2857 33.9333 L138.3929 31.8 L139.5 30.3333 L140.6071 30.0667 L141.7143 29.4 L142.8214 27.4 L143.9286 23 L145.0357 22.2 L146.1429 19.9333 L147.25 16.3333 L148.3571 11.2667 L149.4643 18.6 L150.5714 20.3333 L151.6786 22.4667 L152.7857 26.7333 L153.8929 28.6 L155 31.1333"/>
</g>
</g>
</svg>