<svg viewBox="0 0 155 58" preserveAspectRatio="none" class="svggraph" id="svgthumb_us" style="overflow:visible;width:155px;height:58px;" xmlns="http://www.w3.org/2000/svg" xlink="http://www.w3.org/1999/xlink" title="Chart for anna">
<title>Last ranked
#68 in 2020 (f)
#929 in 1930 (m)</title>
<rect x="2" y="43" height="13" width="17" style="fill:rgb(200,200,200)"/>
<image x="2.5" y="43.5" href="/images/flags/24/us.png" preserveAspectRatio="xMinYMax meet" width="16" height="12"/>
<text x="153" y="55" class="svgtitle" text-anchor="end" style="fill:#000000;font-size:13px;">United States</text>
<line x1="0" y1="41" x2="155" y2="41" class="svggridline" style="stroke:rgb(200,200,200);stroke-width:1.3"/>
<g id="svgthumb_us-namepaths">
<g style="fill:none;stroke:#ff0000;stroke-width:1.3;" class="svgcurveline" id="svgthumb_us-anna-f">
<path d="M0 4.2 L1.1071 3.3586 L2.2143 3.5241 L3.3214 3.0138 L4.4286 2.2966 L5.5357 2.1862 L6.6429 2.5724 L7.75 3.4828 L8.8571 4.7241 L9.9643 4.1034 L11.0714 5.2069 L12.1786 5.2207 L13.2857 7.0138 L14.3929 6.1172 L15.5 8.4759 L16.6071 7.7862 L17.7143 8.931 L18.8214 10.8345 L19.9286 11.9517 L21.0357 12.4897 L22.1429 14.4621 L23.25 14.2966 L24.3571 14.9862 L25.4643 15.7172 L26.5714 15.8552 L27.6786 16.8621 L28.7857 16.7931 L29.8929 18.2138 L31 18.2 L32.1071 19.2483 L33.2143 19.8414 L34.3214 19.9241 L35.4286 20.8207 L36.5357 20.6 L37.6429 20.4621 L38.75 20.6276 L39.8571 21.6483 L40.9643 22.3931 L42.0714 23.0276 L43.1786 23.9793 L44.2857 24.8345 L45.3929 25.4 L46.5 26.1724 L47.6071 26.8345 L48.7143 27.0828 L49.8214 27.6207 L50.9286 27.8828 L52.0357 28.4897 L53.1429 28.7931 L54.25 29.3862 L55.3571 30.269 L56.4643 30.4621 L57.5714 31.1241 L58.6786 31.6759 L59.7857 32.4897 L60.8929 33.1793 L62 33.6759 L63.1071 34.1724 L64.2143 34.7931 L65.3214 35 L66.4286 35.4966 L67.5357 36.0897 L68.6429 36.5448 L69.75 36.931 L70.8571 37.331 L71.9643 37.3034 L73.0714 37.5793 L74.1786 37.7862 L75.2857 37.8 L76.3929 37.9379 L77.5 38.0069 L78.6071 38.1172 L79.7143 38.3103 L80.8214 38.2552 L81.9286 38.2276 L83.0357 38.1862 L84.1429 38.0621 L85.25 38.0759 L86.3571 37.8828 L87.4643 37.7586 L88.5714 37.9103 L89.6786 37.8966 L90.7857 37.9793 L91.8929 38.0483 L93 37.9793 L94.1071 38.0345 L95.2143 38.1172 L96.3214 38.0069 L97.4286 38.1172 L98.5357 38.0897 L99.6429 38.1448 L100.75 38.1862 L101.8571 38.0483 L102.9643 37.8966 L104.0714 37.8138 L105.1786 37.8414 L106.2857 37.8552 L107.3929 37.7724 L108.5 37.4966 L109.6071 37.2621 L110.7143 37.0966 L111.8214 37 L112.9286 37 L114.0357 36.9724 L115.1429 36.9448 L116.25 36.6 L117.3571 36.5862 L118.4643 36.4621 L119.5714 36.3793 L120.6786 36.2276 L121.7857 36.1034 L122.8929 36.1724 L124 36.2828 L125.1071 36.2276 L126.2143 35.6759 L127.3214 34.8483 L128.4286 34.8345 L129.5357 34.9724 L130.6429 35.0414 L131.75 34.5448 L132.8571 33.6759 L133.9643 33.6345 L135.0714 33.7448 L136.1786 34.5034 L137.2857 34.4897 L138.3929 34.8069 L139.5 35.3172 L140.6071 35.8552 L141.7143 36.1862 L142.8214 36.3655 L143.9286 36.5448 L145.0357 36.9586 L146.1429 37 L147.25 37.1379 L148.3571 36.9862 L149.4643 37.3586 L150.5714 37.5793 L151.6786 37.6759 L152.7857 37.8966 L153.8929 38.1034 L155 38.2552"/>
</g>
<g style="fill:none;stroke:#0000ff;stroke-width:1.3;" class="svgcurveline" id="svgthumb_us-anna-m">
<path d="M0 40.8621 L1.1071 40.7931 L1.6607 40.9448 M2.7679 40.9448 L3.3214 40.8069 L4.4286 40.7793 L5.5357 40.7655 L6.6429 40.8207 L7.75 40.8345 L8.8571 40.7241 L9.9643 40.7379 L11.0714 40.7655 L12.1786 40.8069 L13.2857 40.7931 L14.3929 40.8069 L15.5 40.7793 L16.6071 40.8069 L17.7143 40.8207 L18.8214 40.7793 L19.9286 40.6828 L21.0357 40.7241 L22.1429 40.7931 L23.25 40.7793 L24.3571 40.8345 L25.4643 40.8069 L26.5714 40.8345 L27.6786 40.7931 L28.7857 40.8759 L29.8929 40.8207 L31 40.9172 L32.1071 40.8069 L33.2143 40.8621 L34.3214 40.8897 L35.4286 40.9172 L36.5357 40.9172 L37.6429 40.9172 L38.1964 40.931 M50.375 40.9448 L50.9286 40.9448 L51.4821 40.9448 M52.5893 40.9448 L53.1429 40.9448 L53.6964 40.9448 M54.8036 40.9448 L55.3571 40.931 L55.9107 40.9448"/>
</g>
</g>
</svg>