<svg viewBox="0 0 155 58" preserveAspectRatio="none" class="svggraph" id="svgthumb_us" style="overflow:visible;width:155px;height:58px;" xmlns="http://www.w3.org/2000/svg" xlink="http://www.w3.org/1999/xlink" title="Chart for annie">
<title>Last ranked
#288 in 2020 (f)
#905 in 1937 (m)</title>
<rect x="2" y="43" height="13" width="17" style="fill:rgb(200,200,200)"/>
<image x="2.5" y="43.5" href="/images/flags/24/us.png" preserveAspectRatio="xMinYMax meet" width="16" height="12"/>
<text x="153" y="55" class="svgtitle" text-anchor="end" style="fill:#000000;font-size:13px;">United States</text>
<line x1="0" y1="41" x2="155" y2="41" class="svggridline" style="stroke:rgb(200,200,200);stroke-width:1.3"/>
<g id="svgthumb_us-namepaths">
<g style="fill:none;stroke:#ff0000;stroke-width:1.3;" class="svgcurveline" id="svgthumb_us-annie-f">
<path d="M0 4.1714 L1.1071 2.6857 L2.2143 4.1429 L3.3214 3.1714 L4.4286 4.8857 L5.5357 6.7143 L6.6429 8.2 L7.75 7.1143 L8.8571 8 L9.9643 8.9429 L11.0714 9.5429 L12.1786 10.5429 L13.2857 11.1714 L14.3929 12.4571 L15.5 12.0286 L16.6071 13.3714 L17.7143 14.2571 L18.8214 14.4571 L19.9286 15.2571 L21.0357 14.5714 L22.1429 11.1143 L23.25 14.0857 L24.3571 13.8571 L25.4643 14.8 L26.5714 15.2857 L27.6786 15.2571 L28.7857 15.7143 L29.8929 16.5143 L31 18.2857 L32.1071 18.4571 L33.2143 17.0286 L34.3214 19.6857 L35.4286 21.1143 L36.5357 22.3714 L37.6429 23.7714 L38.75 24.4286 L39.8571 24.9429 L40.9643 24.7143 L42.0714 24.9714 L43.1786 23.6286 L44.2857 24.3143 L45.3929 24.9143 L46.5 23.8857 L47.6071 24.8286 L48.7143 24.8 L49.8214 24.3714 L50.9286 25.0286 L52.0357 25.8286 L53.1429 25.8857 L54.25 26.3143 L55.3571 26.9143 L56.4643 27.8286 L57.5714 27.0857 L58.6786 27 L59.7857 27.7714 L60.8929 28.2571 L62 29 L63.1071 29.3714 L64.2143 29.5714 L65.3214 30.5429 L66.4286 30.8 L67.5357 31.6571 L68.6429 32.1714 L69.75 32.9143 L70.8571 33.1714 L71.9643 33.0571 L73.0714 34.5429 L74.1786 35.0857 L75.2857 34.9143 L76.3929 35.3714 L77.5 35.6 L78.6071 36.2571 L79.7143 36.7429 L80.8214 37.2 L81.9286 37.5429 L83.0357 37.8286 L84.1429 38.0571 L85.25 38.5143 L86.3571 38.6286 L87.4643 38.8286 L88.5714 38.9714 L89.6786 39.2 L90.7857 39.1714 L91.8929 39.4 L93 39.4857 L94.1071 39.7143 L95.2143 39.8 L96.3214 39.8571 L97.4286 39.9714 L98.5357 40.0857 L99.6429 40.2286 L100.75 40.2 L101.8571 40.2286 L102.9643 40.1429 L104.0714 40.1429 L105.1786 40.1143 L106.2857 40.1429 L107.3929 40.0571 L108.5 39.8571 L109.6071 39.4857 L110.7143 39.4 L111.8214 39.4571 L112.9286 39.4 L114.0357 39.7143 L115.1429 39.7429 L116.25 39.7143 L117.3571 39.8857 L118.4643 40 L119.5714 39.9143 L120.6786 39.9429 L121.7857 39.8571 L122.8929 39.9714 L124 39.9714 L125.1071 39.8857 L126.2143 39.8286 L127.3214 39.6286 L128.4286 39.5143 L129.5357 39.6286 L130.6429 39.6571 L131.75 39.5429 L132.8571 39.5143 L133.9643 39.6 L135.0714 39.6 L136.1786 39.6857 L137.2857 39.8571 L138.3929 39.8286 L139.5 39.8857 L140.6071 39.9429 L141.7143 39.8857 L142.8214 39.8 L143.9286 39.8286 L145.0357 39.7714 L146.1429 39.7714 L147.25 39.6571 L148.3571 39.4571 L149.4643 39.5143 L150.5714 39.3429 L151.6786 39.3429 L152.7857 39.3143 L153.8929 39.2857 L155 39.2286"/>
</g>
<g style="fill:none;stroke:#0000ff;stroke-width:1.3;" class="svgcurveline" id="svgthumb_us-annie-m">
<path d="M0 40.8571 L1.1071 40.8571 L2.2143 40.8 L3.3214 40.8 L3.875 40.8857 M4.9821 40.8857 L5.5357 40.7714 L6.6429 40.8857 L7.75 40.6571 L8.8571 40.7714 L9.9643 40.6571 L11.0714 40.8571 L12.1786 40.8571 L13.2857 40.8571 L14.3929 40.7714 L15.5 40.7714 L16.6071 40.6571 L17.7143 40.8571 L18.2679 40.8571 M19.375 40.8571 L19.9286 40.6857 L21.0357 40.7143 L22.1429 40.6571 L23.25 40.5714 L24.3571 40.7714 L25.4643 40.7143 L26.5714 40.7429 L27.6786 40.6286 L28.7857 40.7714 L29.8929 40.7429 L31 40.8 L32.1071 40.7143 L33.2143 40.6571 L33.7679 40.8571 M35.9821 40.8571 L36.5357 40.8571 L37.0893 40.8571 M51.4821 40.8857 L52.0357 40.8571 L53.1429 40.8571 L54.25 40.8857 L55.3571 40.8857 L56.4643 40.8571 L57.5714 40.8571 L58.125 40.8857 M59.2321 40.8857 L59.7857 40.8571 L60.8929 40.8571 L61.4464 40.8857 M62.5536 40.8857 L63.1071 40.8857 L63.6607 40.8857"/>
</g>
</g>
</svg>