<svg viewBox="0 0 155 58" preserveAspectRatio="none" class="svggraph" id="svgthumb_us" style="overflow:visible;width:155px;height:58px;" xmlns="http://www.w3.org/2000/svg" xlink="http://www.w3.org/1999/xlink" title="Chart for arabella">
<title>Last ranked
#202 in 2020</title>
<rect x="2" y="43" height="13" width="17" style="fill:rgb(200,200,200)"/>
<image x="2.5" y="43.5" href="/images/flags/24/us.png" preserveAspectRatio="xMinYMax meet" width="16" height="12"/>
<text x="153" y="55" class="svgtitle" text-anchor="end" style="fill:#000000;font-size:13px;">United States</text>
<line x1="0" y1="41" x2="155" y2="41" class="svggridline" style="stroke:rgb(200,200,200);stroke-width:1.3"/>
<g id="svgthumb_us-namepaths">
<g style="fill:none;stroke:#ff0000;stroke-width:1.3;" class="svgcurveline" id="svgthumb_us-arabella-f">
<path d=" M0.5536 40.2 L1.1071 39.6 L1.6607 40.2 M4.9821 40.2 L5.5357 39.4 L6.6429 40.2 L7.75 40 L8.8571 39.8 L9.4107 40.2 M13.8393 40.2 L14.3929 40.2 L14.9464 40.2 M137.8393 38.6 L138.3929 37.8 L139.5 36.8 L140.6071 36.6 L141.7143 36.6 L142.8214 34 L143.9286 32.4 L145.0357 31.2 L146.1429 27.4 L147.25 25.2 L148.3571 21.4 L149.4643 23.8 L150.5714 23 L151.6786 21 L152.7857 22.8 L153.8929 24.2 L155 24.8"/>
</g>
</g>
</svg>