<svg viewBox="0 0 155 58" preserveAspectRatio="none" class="svggraph" id="svgthumb_us" style="overflow:visible;width:155px;height:58px;" xmlns="http://www.w3.org/2000/svg" xlink="http://www.w3.org/1999/xlink" title="Chart for arianna">
<title>Last ranked
#123 in 2020</title>
<rect x="2" y="43" height="13" width="17" style="fill:rgb(200,200,200)"/>
<image x="2.5" y="43.5" href="/images/flags/24/us.png" preserveAspectRatio="xMinYMax meet" width="16" height="12"/>
<text x="153" y="55" class="svgtitle" text-anchor="end" style="fill:#000000;font-size:13px;">United States</text>
<line x1="0" y1="41" x2="155" y2="41" class="svggridline" style="stroke:rgb(200,200,200);stroke-width:1.3"/>
<g id="svgthumb_us-namepaths">
<g style="fill:none;stroke:#ff0000;stroke-width:1.3;" class="svgcurveline" id="svgthumb_us-arianna-f">
<path d=" M112.375 39.9333 L112.9286 39.9333 L113.4821 39.9333 M116.8036 39.9333 L117.3571 39.8 L118.4643 39.5333 L119.5714 39.2667 L120.6786 37.6667 L121.7857 36.8667 L122.8929 35.5333 L124 36.7333 L125.1071 36.0667 L126.2143 34.3333 L127.3214 33 L128.4286 31.5333 L129.5357 29.1333 L130.6429 28.3333 L131.75 26.8667 L132.8571 23.2667 L133.9643 20.7333 L135.0714 21 L136.1786 15.8 L137.2857 16.6 L138.3929 16.8667 L139.5 13.6667 L140.6071 12.7333 L141.7143 12.7333 L142.8214 9.1333 L143.9286 8.0667 L145.0357 8.6 L146.1429 8.4667 L147.25 6.3333 L148.3571 5 L149.4643 9.9333 L150.5714 14.0667 L151.6786 17.8 L152.7857 19.6667 L153.8929 22.7333 L155 24.3333"/>
</g>
</g>
</svg>