<svg viewBox="0 0 155 58" preserveAspectRatio="none" class="svggraph" id="svgthumb_us" style="overflow:visible;width:155px;height:58px;" xmlns="http://www.w3.org/2000/svg" xlink="http://www.w3.org/1999/xlink" title="Chart for ariana">
<title>Last ranked
#79 in 2020</title>
<rect x="2" y="43" height="13" width="17" style="fill:rgb(200,200,200)"/>
<image x="2.5" y="43.5" href="/images/flags/24/us.png" preserveAspectRatio="xMinYMax meet" width="16" height="12"/>
<text x="153" y="55" class="svgtitle" text-anchor="end" style="fill:#000000;font-size:13px;">United States</text>
<line x1="0" y1="41" x2="155" y2="41" class="svggridline" style="stroke:rgb(200,200,200);stroke-width:1.3"/>
<g id="svgthumb_us-namepaths">
<g style="fill:none;stroke:#ff0000;stroke-width:1.3;" class="svgcurveline" id="svgthumb_us-ariana-f">
<path d=" M107.9464 39.9333 L108.5 39.8 L109.0536 39.9333 M110.1607 39.9333 L110.7143 38.7333 L111.8214 38.4667 L112.9286 38.3333 L114.0357 38.2 L115.1429 38.3333 L116.25 38.3333 L117.3571 37.9333 L118.4643 37.2667 L119.5714 36.6 L120.6786 34.4667 L121.7857 32.8667 L122.8929 30.7333 L124 31.9333 L125.1071 30.6 L126.2143 28.2 L127.3214 27.5333 L128.4286 26.7333 L129.5357 24.8667 L130.6429 24.3333 L131.75 23.6667 L132.8571 19.9333 L133.9643 18.2 L135.0714 17.4 L136.1786 15.5333 L137.2857 14.6 L138.3929 14.8667 L139.5 13.9333 L140.6071 13.8 L141.7143 15.9333 L142.8214 16.7333 L143.9286 17.4 L145.0357 17.2667 L146.1429 16.3333 L147.25 10.4667 L148.3571 3.5333 L149.4643 7 L150.5714 9.2667 L151.6786 13.5333 L152.7857 14.2 L153.8929 14.2 L155 17.1333"/>
</g>
</g>
</svg>