<svg viewBox="0 0 155 58" preserveAspectRatio="none" class="svggraph" id="svgthumb_us" style="overflow:visible;width:155px;height:58px;" xmlns="http://www.w3.org/2000/svg" xlink="http://www.w3.org/1999/xlink" title="Chart for arielle">
<title>Last ranked
#346 in 2020</title>
<rect x="2" y="43" height="13" width="17" style="fill:rgb(200,200,200)"/>
<image x="2.5" y="43.5" href="/images/flags/24/us.png" preserveAspectRatio="xMinYMax meet" width="16" height="12"/>
<text x="153" y="55" class="svgtitle" text-anchor="end" style="fill:#000000;font-size:13px;">United States</text>
<line x1="0" y1="41" x2="155" y2="41" class="svggridline" style="stroke:rgb(200,200,200);stroke-width:1.3"/>
<g id="svgthumb_us-namepaths">
<g style="fill:none;stroke:#ff0000;stroke-width:1.3;" class="svgcurveline" id="svgthumb_us-arielle-f">
<path d=" M112.375 37.8 L112.9286 37.4 L114.0357 35.4 L115.1429 34.2 L116.25 34.2 L117.3571 34.2 L118.4643 33.8 L119.5714 27.4 L120.6786 10.2 L121.7857 10.6 L122.8929 9 L124 21.4 L125.1071 28.6 L126.2143 28.6 L127.3214 26.6 L128.4286 28.2 L129.5357 27 L130.6429 28.2 L131.75 30.2 L132.8571 31.4 L133.9643 31.8 L135.0714 31.8 L136.1786 31.4 L137.2857 32.6 L138.3929 32.2 L139.5 31.4 L140.6071 31.8 L141.7143 31.4 L142.8214 30.2 L143.9286 29 L145.0357 29 L146.1429 25.4 L147.25 23.4 L148.3571 21 L149.4643 21.8 L150.5714 18.6 L151.6786 19.4 L152.7857 19 L153.8929 19.8 L155 21"/>
</g>
</g>
</svg>