<svg viewBox="0 0 155 58" preserveAspectRatio="none" class="svggraph" id="svgthumb_us" style="overflow:visible;width:155px;height:58px;" xmlns="http://www.w3.org/2000/svg" xlink="http://www.w3.org/1999/xlink" title="Chart for ariel">
<title>Last ranked
#200 in 2020 (f)
#565 in 2020 (m)</title>
<rect x="2" y="43" height="13" width="17" style="fill:rgb(200,200,200)"/>
<image x="2.5" y="43.5" href="/images/flags/24/us.png" preserveAspectRatio="xMinYMax meet" width="16" height="12"/>
<text x="153" y="55" class="svgtitle" text-anchor="end" style="fill:#000000;font-size:13px;">United States</text>
<line x1="0" y1="41" x2="155" y2="41" class="svggridline" style="stroke:rgb(200,200,200);stroke-width:1.3"/>
<g id="svgthumb_us-namepaths">
<g style="fill:none;stroke:#ff0000;stroke-width:1.3;" class="svgcurveline" id="svgthumb_us-ariel-f">
<path d=" M107.9464 39.9333 L108.5 39.6667 L109.6071 39.8 L110.7143 39.6667 L111.8214 39.2667 L112.9286 36.7333 L114.0357 36.2 L115.1429 36.3333 L116.25 36.6 L117.3571 36.3333 L118.4643 36.6 L119.5714 34.7333 L120.6786 32.3333 L121.7857 17.5333 L122.8929 5.5333 L124 14.6 L125.1071 22.7333 L126.2143 26.0667 L127.3214 26.0667 L128.4286 27.6667 L129.5357 25.5333 L130.6429 26.2 L131.75 28.4667 L132.8571 29.2667 L133.9643 29.8 L135.0714 30.6 L136.1786 30.7333 L137.2857 30.7333 L138.3929 30.7333 L139.5 29.9333 L140.6071 29.8 L141.7143 31 L142.8214 30.6 L143.9286 31 L145.0357 31.1333 L146.1429 29 L147.25 26.2 L148.3571 24.3333 L149.4643 24.8667 L150.5714 25.9333 L151.6786 26.3333 L152.7857 27.9333 L153.8929 28.7333 L155 29.9333"/>
</g>
<g style="fill:none;stroke:#0000ff;stroke-width:1.3;" class="svgcurveline" id="svgthumb_us-ariel-m">
<path d=" M95.7679 40.6 L96.3214 40.6 L97.4286 40.3333 L98.5357 40.4667 L99.6429 40.4667 L100.75 40.3333 L101.8571 40.2 L102.9643 40.0667 L104.0714 39.6667 L105.1786 39.5333 L106.2857 39.5333 L107.3929 39.8 L108.5 39.2667 L109.6071 39.4 L110.7143 39.2667 L111.8214 39.2667 L112.9286 38.8667 L114.0357 38.7333 L115.1429 39 L116.25 39 L117.3571 38.8667 L118.4643 39 L119.5714 38.7333 L120.6786 38.6 L121.7857 38.4667 L122.8929 36.8667 L124 38.0667 L125.1071 38.2 L126.2143 38.0667 L127.3214 38.0667 L128.4286 37.9333 L129.5357 38.0667 L130.6429 37.9333 L131.75 38.2 L132.8571 38.6 L133.9643 38.3333 L135.0714 38.2 L136.1786 38.6 L137.2857 38.3333 L138.3929 38.2 L139.5 37.5333 L140.6071 37.8 L141.7143 38.2 L142.8214 38.0667 L143.9286 38.3333 L145.0357 38.4667 L146.1429 39 L147.25 39 L148.3571 38.8667 L149.4643 38.0667 L150.5714 37 L151.6786 37 L152.7857 37.8 L153.8929 37.4 L155 37.4"/>
</g>
</g>
</svg>