<svg viewBox="0 0 155 58" preserveAspectRatio="none" class="svggraph" id="svgthumb_us" style="overflow:visible;width:155px;height:58px;" xmlns="http://www.w3.org/2000/svg" xlink="http://www.w3.org/1999/xlink" title="Chart for ashley">
<title>Last ranked
#154 in 2020 (f)
#958 in 1994 (m)</title>
<rect x="2" y="43" height="13" width="17" style="fill:rgb(200,200,200)"/>
<image x="2.5" y="43.5" href="/images/flags/24/us.png" preserveAspectRatio="xMinYMax meet" width="16" height="12"/>
<text x="153" y="55" class="svgtitle" text-anchor="end" style="fill:#000000;font-size:13px;">United States</text>
<line x1="0" y1="41" x2="155" y2="41" class="svggridline" style="stroke:rgb(200,200,200);stroke-width:1.3"/>
<g id="svgthumb_us-namepaths">
<g style="fill:none;stroke:#ff0000;stroke-width:1.3;" class="svgcurveline" id="svgthumb_us-ashley-f">
<path d=" M92.4464 40.92 L93 40.88 L94.1071 40.84 L95.2143 40.8 L96.3214 40.7067 L97.4286 40.5733 L98.5357 40.52 L99.6429 40.32 L100.75 40.12 L101.8571 40.0267 L102.9643 39.92 L104.0714 39.6133 L105.1786 39.3067 L106.2857 39.0533 L107.3929 38.8133 L108.5 38.1733 L109.6071 37.56 L110.7143 35.5333 L111.8214 34.3867 L112.9286 30.08 L114.0357 16.1867 L115.1429 12.3333 L116.25 7.0533 L117.3571 5.1067 L118.4643 1.9733 L119.5714 6.3467 L120.6786 9.1467 L121.7857 11.4267 L122.8929 12.4933 L124 15.4267 L125.1071 17.4267 L126.2143 20.28 L127.3214 22.5467 L128.4286 24.5333 L129.5357 26.4 L130.6429 27.3333 L131.75 28.5733 L132.8571 28.9733 L133.9643 29.8667 L135.0714 30.64 L136.1786 31.3467 L137.2857 31.4933 L138.3929 32.28 L139.5 33.12 L140.6071 33.8 L141.7143 34.9733 L142.8214 35.8533 L143.9286 36.7067 L145.0357 37.28 L146.1429 37.76 L147.25 38.28 L148.3571 38.5733 L149.4643 38.6533 L150.5714 38.9067 L151.6786 39.2133 L152.7857 39.36 L153.8929 39.52 L155 39.64"/>
</g>
<g style="fill:none;stroke:#0000ff;stroke-width:1.3;" class="svgcurveline" id="svgthumb_us-ashley-m">
<path d="M0 40.9067 L1.1071 40.92 L2.2143 40.92 L3.3214 40.8933 L4.4286 40.9333 L5.5357 40.8533 L6.6429 40.84 L7.75 40.88 L8.8571 40.9333 L9.4107 40.9467 M10.5179 40.9467 L11.0714 40.8667 L12.1786 40.9067 L13.2857 40.88 L14.3929 40.8933 L15.5 40.8133 L16.6071 40.8933 L17.7143 40.8933 L18.8214 40.8133 L19.375 40.9333 M20.4821 40.9333 L21.0357 40.92 L21.5893 40.9333 M22.6964 40.9333 L23.25 40.88 L24.3571 40.8533 L25.4643 40.9333 L26.5714 40.8933 L27.6786 40.9067 L28.7857 40.88 L29.3393 40.9333 M30.4464 40.9333 L31 40.9333 L32.1071 40.92 L32.6607 40.9333 M33.7679 40.9333 L34.3214 40.9067 L35.4286 40.9333 L36.5357 40.92 L37.6429 40.92 L38.75 40.9333 L39.8571 40.9333 L40.9643 40.9333 L41.5179 40.9467 M42.625 40.9467 L43.1786 40.92 L43.7321 40.9467 M45.9464 40.9467 L46.5 40.9333 L47.0536 40.9467 M49.2679 40.9467 L49.8214 40.9333 L50.375 40.9467 M51.4821 40.9467 L52.0357 40.9467 L52.5893 40.9467 M65.875 40.9467 L66.4286 40.9467 L67.5357 40.9467 L68.6429 40.9333 L69.75 40.9467 L70.8571 40.9467 L71.9643 40.9467 L73.0714 40.9467 L74.1786 40.9467 L75.2857 40.9467 L76.3929 40.96 L77.5 40.96 L78.6071 40.96 L79.7143 40.96 L80.8214 40.96 L81.9286 40.9467 L83.0357 40.9467 L84.1429 40.96 L85.25 40.96 L86.3571 40.96 L87.4643 40.9467 L88.5714 40.9467 L89.6786 40.92 L90.7857 40.9333 L91.8929 40.92 L93 40.9333 L94.1071 40.92 L95.2143 40.92 L96.3214 40.8933 L97.4286 40.8667 L98.5357 40.8533 L99.6429 40.8267 L100.75 40.8 L101.8571 40.7867 L102.9643 40.6533 L104.0714 40.6667 L105.1786 40.6533 L106.2857 40.6133 L107.3929 40.5467 L108.5 40.5867 L109.6071 40.56 L110.7143 40.4667 L111.8214 40.52 L112.9286 40.5467 L114.0357 40.5733 L115.1429 40.6133 L116.25 40.6533 L117.3571 40.7067 L118.4643 40.72 L119.5714 40.8 L120.6786 40.76 L121.7857 40.8533 L122.8929 40.8933 L124 40.8933 L125.1071 40.9067 L126.2143 40.92 L126.7679 40.92"/>
</g>
</g>
</svg>