<svg viewBox="0 0 155 58" preserveAspectRatio="none" class="svggraph" id="svgthumb_us" style="overflow:visible;width:155px;height:58px;" xmlns="http://www.w3.org/2000/svg" xlink="http://www.w3.org/1999/xlink" title="Chart for aspen">
<title>Last ranked
#224 in 2020</title>
<rect x="2" y="43" height="13" width="17" style="fill:rgb(200,200,200)"/>
<image x="2.5" y="43.5" href="/images/flags/24/us.png" preserveAspectRatio="xMinYMax meet" width="16" height="12"/>
<text x="153" y="55" class="svgtitle" text-anchor="end" style="fill:#000000;font-size:13px;">United States</text>
<line x1="0" y1="41" x2="155" y2="41" class="svggridline" style="stroke:rgb(200,200,200);stroke-width:1.3"/>
<g id="svgthumb_us-namepaths">
<g style="fill:none;stroke:#ff0000;stroke-width:1.3;" class="svgcurveline" id="svgthumb_us-aspen-f">
<path d=" M124.5536 37.4 L125.1071 37.4 L126.2143 35 L127.3214 34.2 L128.4286 33.4 L129.5357 32.6 L130.6429 32.6 L131.75 31.4 L132.8571 31.8 L133.9643 31.4 L135.0714 31.4 L136.1786 31 L137.2857 30.6 L138.3929 30.6 L139.5 31.4 L140.6071 31.8 L141.7143 32.6 L142.8214 31 L143.9286 31 L145.0357 29.4 L146.1429 28.6 L147.25 28.2 L148.3571 24.2 L149.4643 23 L150.5714 22.2 L151.6786 19.8 L152.7857 14.6 L153.8929 13 L155 11.4"/>
</g>
</g>
</svg>