<svg viewBox="0 0 155 58" preserveAspectRatio="none" class="svggraph" id="svgthumb_us" style="overflow:visible;width:155px;height:58px;" xmlns="http://www.w3.org/2000/svg" xlink="http://www.w3.org/1999/xlink" title="Chart for astrid">
<title>Last ranked
#452 in 2020</title>
<rect x="2" y="43" height="13" width="17" style="fill:rgb(200,200,200)"/>
<image x="2.5" y="43.5" href="/images/flags/24/us.png" preserveAspectRatio="xMinYMax meet" width="16" height="12"/>
<text x="153" y="55" class="svgtitle" text-anchor="end" style="fill:#000000;font-size:13px;">United States</text>
<line x1="0" y1="41" x2="155" y2="41" class="svggridline" style="stroke:rgb(200,200,200);stroke-width:1.3"/>
<g id="svgthumb_us-namepaths">
<g style="fill:none;stroke:#ff0000;stroke-width:1.3;" class="svgcurveline" id="svgthumb_us-astrid-f">
<path d=" M27.125 38.1429 L27.6786 38.1429 L28.2321 38.1429 M29.3393 38.1429 L29.8929 36.4286 L31 37.5714 L32.1071 38.1429 L32.6607 38.1429 M33.7679 38.1429 L34.3214 38.1429 L35.4286 37 L36.5357 37.5714 L37.6429 37.5714 L38.75 37 L39.8571 38.1429 L40.4107 38.7143 M126.7679 35.2857 L127.3214 35.2857 L128.4286 35.2857 L128.9821 35.2857 M136.7321 34.1429 L137.2857 33.5714 L138.3929 33.5714 L138.9464 34.1429 M146.6964 33.5714 L147.25 33.5714 L148.3571 32.4286 L149.4643 31.8571 L150.5714 30.1429 L151.6786 29 L152.7857 27.2857 L153.8929 22.1429 L155 18.7143"/>
</g>
</g>
</svg>