<svg viewBox="0 0 155 58" preserveAspectRatio="none" class="svggraph" id="svgthumb_us" style="overflow:visible;width:155px;height:58px;" xmlns="http://www.w3.org/2000/svg" xlink="http://www.w3.org/1999/xlink" title="Chart for athena">
<title>Last ranked
#108 in 2020</title>
<rect x="2" y="43" height="13" width="17" style="fill:rgb(200,200,200)"/>
<image x="2.5" y="43.5" href="/images/flags/24/us.png" preserveAspectRatio="xMinYMax meet" width="16" height="12"/>
<text x="153" y="55" class="svgtitle" text-anchor="end" style="fill:#000000;font-size:13px;">United States</text>
<line x1="0" y1="41" x2="155" y2="41" class="svggridline" style="stroke:rgb(200,200,200);stroke-width:1.3"/>
<g id="svgthumb_us-namepaths">
<g style="fill:none;stroke:#ff0000;stroke-width:1.3;" class="svgcurveline" id="svgthumb_us-athena-f">
<path d=" M82.4821 40 L83.0357 39.2 L84.1429 39.8 L85.25 40 L85.8036 40 M86.9107 40 L87.4643 39.8 L88.5714 39.6 L89.6786 39.6 L90.7857 39.4 L91.8929 39.8 L93 39.4 L94.1071 39.6 L95.2143 39.4 L96.3214 39.2 L97.4286 39 L98.5357 39 L99.6429 38.8 L100.75 38.4 L101.8571 38.2 L102.9643 38.2 L104.0714 37.8 L105.1786 37.8 L106.2857 38 L107.3929 37.8 L108.5 37.8 L109.6071 35.8 L110.7143 37.2 L111.8214 37.4 L112.9286 37.4 L114.0357 37.2 L115.1429 37.4 L116.25 37.4 L117.3571 38.2 L118.4643 38.8 L119.5714 38.6 L120.6786 38.2 L121.7857 38.2 L122.8929 38.4 L124 38.4 L125.1071 38.2 L126.2143 38.4 L127.3214 38 L128.4286 37.6 L129.5357 37.6 L130.6429 36.4 L131.75 36 L132.8571 36 L133.9643 35.4 L135.0714 35.4 L136.1786 35.6 L137.2857 35 L138.3929 34.6 L139.5 35.2 L140.6071 34.2 L141.7143 34.4 L142.8214 33.6 L143.9286 32 L145.0357 30.6 L146.1429 27.4 L147.25 25.8 L148.3571 23.8 L149.4643 20 L150.5714 18.4 L151.6786 15.8 L152.7857 13 L153.8929 11.4 L155 12.6"/>
</g>
</g>
</svg>