<svg viewBox="0 0 155 58" preserveAspectRatio="none" class="svggraph" id="svgthumb_us" style="overflow:visible;width:155px;height:58px;" xmlns="http://www.w3.org/2000/svg" xlink="http://www.w3.org/1999/xlink" title="Chart for aubree">
<title>Last ranked
#156 in 2020</title>
<rect x="2" y="43" height="13" width="17" style="fill:rgb(200,200,200)"/>
<image x="2.5" y="43.5" href="/images/flags/24/us.png" preserveAspectRatio="xMinYMax meet" width="16" height="12"/>
<text x="153" y="55" class="svgtitle" text-anchor="end" style="fill:#000000;font-size:13px;">United States</text>
<line x1="0" y1="41" x2="155" y2="41" class="svggridline" style="stroke:rgb(200,200,200);stroke-width:1.3"/>
<g id="svgthumb_us-namepaths">
<g style="fill:none;stroke:#ff0000;stroke-width:1.3;" class="svgcurveline" id="svgthumb_us-aubree-f">
<path d=" M122.3393 39.8 L122.8929 39.8 L124 39.4 L125.1071 39.8 L126.2143 39.6667 L127.3214 39.2667 L128.4286 39.5333 L129.5357 39.4 L130.6429 39.2667 L131.75 39.2667 L132.8571 39 L133.9643 38.8667 L135.0714 38.6 L136.1786 38.2 L137.2857 38.6 L138.3929 37.6667 L139.5 36.2 L140.6071 34.3333 L141.7143 33.1333 L142.8214 33.4 L143.9286 31.4 L145.0357 20.7333 L146.1429 13.1333 L147.25 10.2 L148.3571 11.8 L149.4643 16.2 L150.5714 17.4 L151.6786 17.5333 L152.7857 21 L153.8929 23.9333 L155 27.5333"/>
</g>
</g>
</svg>