<svg viewBox="0 0 155 58" preserveAspectRatio="none" class="svggraph" id="svgthumb_us" style="overflow:visible;width:155px;height:58px;" xmlns="http://www.w3.org/2000/svg" xlink="http://www.w3.org/1999/xlink" title="Chart for aubrey">
<title>Last ranked
#56 in 2020 (f)
#929 in 2002 (m)</title>
<rect x="2" y="43" height="13" width="17" style="fill:rgb(200,200,200)"/>
<image x="2.5" y="43.5" href="/images/flags/24/us.png" preserveAspectRatio="xMinYMax meet" width="16" height="12"/>
<text x="153" y="55" class="svgtitle" text-anchor="end" style="fill:#000000;font-size:13px;">United States</text>
<line x1="0" y1="41" x2="155" y2="41" class="svggridline" style="stroke:rgb(200,200,200);stroke-width:1.3"/>
<g id="svgthumb_us-namepaths">
<g style="fill:none;stroke:#ff0000;stroke-width:1.3;" class="svgcurveline" id="svgthumb_us-aubrey-f">
<path d=" M102.4107 40.44 L102.9643 40.28 L104.0714 40.04 L105.1786 39.8 L106.2857 39.64 L107.3929 39.4 L108.5 39.08 L109.6071 38.84 L110.7143 38.84 L111.8214 38.68 L112.9286 38.2 L114.0357 38.36 L115.1429 38.2 L116.25 37.64 L117.3571 37.88 L118.4643 37.48 L119.5714 37.48 L120.6786 37.8 L121.7857 37.32 L122.8929 37.4 L124 36.6 L125.1071 36.68 L126.2143 36.44 L127.3214 36.68 L128.4286 36.44 L129.5357 36.28 L130.6429 35.8 L131.75 35.88 L132.8571 35.32 L133.9643 34.92 L135.0714 34.36 L136.1786 33.96 L137.2857 33.8 L138.3929 32.04 L139.5 27 L140.6071 23.96 L141.7143 19.64 L142.8214 19.64 L143.9286 19.08 L145.0357 11.32 L146.1429 7.72 L147.25 7.88 L148.3571 9.8 L149.4643 10.68 L150.5714 13.88 L151.6786 15.88 L152.7857 18.6 L153.8929 20.92 L155 23.24"/>
</g>
<g style="fill:none;stroke:#0000ff;stroke-width:1.3;" class="svgcurveline" id="svgthumb_us-aubrey-m">
<path d="M0 39.56 L1.1071 39.88 L2.2143 39.96 L3.3214 39.56 L4.4286 39.8 L5.5357 40.28 L6.6429 40.36 L7.75 38.52 L8.8571 39.88 L9.9643 39.96 L11.0714 39.56 L12.1786 39.56 L13.2857 38.84 L14.3929 38.92 L15.5 38.52 L16.6071 38.68 L17.7143 37.88 L18.8214 37.96 L19.9286 38.28 L21.0357 38.12 L22.1429 37.96 L23.25 38.04 L24.3571 38.04 L25.4643 37.56 L26.5714 37.56 L27.6786 37.16 L28.7857 37.24 L29.8929 37.16 L31 37.8 L32.1071 37.24 L33.2143 37 L34.3214 37.48 L35.4286 36.84 L36.5357 37.16 L37.6429 37.32 L38.75 37.4 L39.8571 37.32 L40.9643 37.32 L42.0714 37.72 L43.1786 37.88 L44.2857 37.56 L45.3929 37.64 L46.5 37.72 L47.6071 37.8 L48.7143 37.88 L49.8214 37.8 L50.9286 37.56 L52.0357 38.28 L53.1429 37.96 L54.25 38.12 L55.3571 38.2 L56.4643 38.12 L57.5714 37.96 L58.6786 38.2 L59.7857 38.2 L60.8929 38.36 L62 38.28 L63.1071 38.28 L64.2143 38.28 L65.3214 38.28 L66.4286 38.6 L67.5357 38.6 L68.6429 38.76 L69.75 38.92 L70.8571 39.16 L71.9643 39.32 L73.0714 39.4 L74.1786 39.64 L75.2857 39.56 L76.3929 39.64 L77.5 39.72 L78.6071 39.56 L79.7143 39.72 L80.8214 39.64 L81.9286 39.72 L83.0357 39.88 L84.1429 39.64 L85.25 39.64 L86.3571 39.64 L87.4643 39.72 L88.5714 39.96 L89.6786 40.04 L90.7857 40.04 L91.8929 40.04 L93 40.04 L94.1071 40.2 L95.2143 40.12 L96.3214 40.12 L97.4286 40.04 L98.5357 40.12 L99.6429 40.12 L100.75 40.04 L101.8571 40.12 L102.9643 40.2 L104.0714 40.12 L105.1786 40.04 L106.2857 40.2 L107.3929 40.2 L108.5 40.2 L109.6071 40.2 L110.7143 40.28 L111.8214 40.2 L112.9286 40.2 L114.0357 40.2 L115.1429 40.2 L116.25 40.04 L117.3571 40.04 L118.4643 40.2 L119.5714 40.2 L120.6786 40.28 L121.7857 40.28 L122.8929 40.28 L124 40.2 L125.1071 40.2 L126.2143 40.12 L127.3214 40.2 L128.4286 40.2 L129.5357 40.2 L130.6429 40.28 L131.75 40.28 L132.8571 40.28 L133.9643 40.36 L135.0714 40.36 L135.625 40.36"/>
</g>
</g>
</svg>