<svg viewBox="0 0 155 58" preserveAspectRatio="none" class="svggraph" id="svgthumb_us" style="overflow:visible;width:155px;height:58px;" xmlns="http://www.w3.org/2000/svg" xlink="http://www.w3.org/1999/xlink" title="Chart for audrey">
<title>Last ranked
#60 in 2020 (f)
#887 in 1939 (m)</title>
<rect x="2" y="43" height="13" width="17" style="fill:rgb(200,200,200)"/>
<image x="2.5" y="43.5" href="/images/flags/24/us.png" preserveAspectRatio="xMinYMax meet" width="16" height="12"/>
<text x="153" y="55" class="svgtitle" text-anchor="end" style="fill:#000000;font-size:13px;">United States</text>
<line x1="0" y1="41" x2="155" y2="41" class="svggridline" style="stroke:rgb(200,200,200);stroke-width:1.3"/>
<g id="svgthumb_us-namepaths">
<g style="fill:none;stroke:#ff0000;stroke-width:1.3;" class="svgcurveline" id="svgthumb_us-audrey-f">
<path d="M0 40.6 L1.1071 39.9 L2.2143 40.4 L3.3214 39.8 L4.4286 39.2 L5.5357 39 L6.6429 39.3 L7.75 38.5 L8.8571 38.8 L9.9643 37.8 L11.0714 36.8 L12.1786 37.5 L13.2857 37.6 L14.3929 37.7 L15.5 37.5 L16.6071 36.9 L17.7143 36.7 L18.8214 37 L19.9286 36.5 L21.0357 35.8 L22.1429 34.8 L23.25 35.7 L24.3571 33.5 L25.4643 31.1 L26.5714 31.6 L27.6786 32.2 L28.7857 32.1 L29.8929 31.4 L31 30.6 L32.1071 30.9 L33.2143 30.2 L34.3214 29.1 L35.4286 28.3 L36.5357 27.5 L37.6429 27.6 L38.75 25.7 L39.8571 23.9 L40.9643 24 L42.0714 24.2 L43.1786 23 L44.2857 19.6 L45.3929 14.2 L46.5 15.6 L47.6071 14.8 L48.7143 13.8 L49.8214 12.9 L50.9286 4.6 L52.0357 5.6 L53.1429 2.3 L54.25 2.5 L55.3571 5.6 L56.4643 6.7 L57.5714 7.2 L58.6786 6.5 L59.7857 7.9 L60.8929 8.7 L62 10 L63.1071 14.8 L64.2143 16.1 L65.3214 18.4 L66.4286 19.8 L67.5357 23.1 L68.6429 24.6 L69.75 27.5 L70.8571 29 L71.9643 28.8 L73.0714 29.6 L74.1786 30 L75.2857 30.4 L76.3929 30.8 L77.5 30.7 L78.6071 31.1 L79.7143 31.2 L80.8214 30.9 L81.9286 28.7 L83.0357 28.3 L84.1429 28.6 L85.25 28.7 L86.3571 29.7 L87.4643 29.9 L88.5714 30 L89.6786 31.1 L90.7857 31.3 L91.8929 32 L93 31.5 L94.1071 31.9 L95.2143 30.9 L96.3214 31.2 L97.4286 32.7 L98.5357 33.3 L99.6429 33.9 L100.75 34.6 L101.8571 35.3 L102.9643 35.1 L104.0714 34.8 L105.1786 35 L106.2857 34.7 L107.3929 35.1 L108.5 34.5 L109.6071 34.2 L110.7143 34.1 L111.8214 33.8 L112.9286 32.5 L114.0357 32.8 L115.1429 32.7 L116.25 33.2 L117.3571 32.9 L118.4643 33.1 L119.5714 32.9 L120.6786 32.5 L121.7857 32.2 L122.8929 32.3 L124 32.3 L125.1071 31.1 L126.2143 31.1 L127.3214 31.8 L128.4286 31 L129.5357 30.5 L130.6429 29.6 L131.75 28.4 L132.8571 26.6 L133.9643 26.1 L135.0714 24.3 L136.1786 21.1 L137.2857 21.7 L138.3929 20.6 L139.5 18.8 L140.6071 16.2 L141.7143 14.9 L142.8214 16.3 L143.9286 15.7 L145.0357 14.1 L146.1429 13.7 L147.25 11.9 L148.3571 12.5 L149.4643 12.2 L150.5714 13.3 L151.6786 15.4 L152.7857 15.7 L153.8929 16.6 L155 19.7"/>
</g>
<g style="fill:none;stroke:#0000ff;stroke-width:1.3;" class="svgcurveline" id="svgthumb_us-audrey-m">
<path d=" M14.9464 40.5 L15.5 40.4 L16.0536 40.5 M23.8036 40.5 L24.3571 39.9 L24.9107 40.5 M28.2321 40.4 L28.7857 40.3 L29.8929 40.1 L31 40.4 L32.1071 40 L33.2143 40.3 L34.3214 40.5 L35.4286 40.4 L36.5357 40.3 L37.6429 40.4 L38.75 40.3 L39.8571 40.4 L40.9643 40.4 L41.5179 40.6 M42.625 40.6 L43.1786 40.5 L44.2857 40.4 L45.3929 40.3 L46.5 40.5 L47.6071 40.5 L48.7143 40.5 L49.8214 40.5 L50.9286 40.4 L52.0357 40.5 L53.1429 40.4 L54.25 40.5 L55.3571 40.5 L56.4643 40.5 L57.0179 40.6 M59.2321 40.6 L59.7857 40.5 L60.8929 40.5 L62 40.6 L63.1071 40.6 L64.2143 40.6 L65.3214 40.6 L65.875 40.6"/>
</g>
</g>
</svg>