<svg viewBox="0 0 155 58" preserveAspectRatio="none" class="svggraph" id="svgthumb_us" style="overflow:visible;width:155px;height:58px;" xmlns="http://www.w3.org/2000/svg" xlink="http://www.w3.org/1999/xlink" title="Chart for aurora">
<title>Last ranked
#36 in 2020</title>
<rect x="2" y="43" height="13" width="17" style="fill:rgb(200,200,200)"/>
<image x="2.5" y="43.5" href="/images/flags/24/us.png" preserveAspectRatio="xMinYMax meet" width="16" height="12"/>
<text x="153" y="55" class="svgtitle" text-anchor="end" style="fill:#000000;font-size:13px;">United States</text>
<line x1="0" y1="41" x2="155" y2="41" class="svggridline" style="stroke:rgb(200,200,200);stroke-width:1.3"/>
<g id="svgthumb_us-namepaths">
<g style="fill:none;stroke:#ff0000;stroke-width:1.3;" class="svgcurveline" id="svgthumb_us-aurora-f">
<path d="M0 40.4 L1.1071 40.4 L2.2143 40.3 L3.3214 40.2 L4.4286 40.2 L4.9821 40.6 M6.0893 40.6 L6.6429 40.4 L7.75 40 L8.8571 40.3 L9.4107 40.6 M11.625 40.6 L12.1786 40.2 L13.2857 40.3 L14.3929 40.1 L15.5 40.4 L16.6071 40.4 L17.7143 40 L18.8214 40.4 L19.9286 40.5 L21.0357 40.3 L22.1429 40.3 L23.25 40 L24.3571 40.3 L25.4643 40 L26.5714 39.9 L27.6786 39.6 L28.7857 39.9 L29.8929 39.4 L31 39.7 L32.1071 39.6 L33.2143 39.5 L34.3214 39.5 L35.4286 39.3 L36.5357 39.6 L37.6429 39.7 L38.75 39.6 L39.8571 39.3 L40.9643 39.4 L42.0714 39.1 L43.1786 39.1 L44.2857 38.8 L45.3929 38.4 L46.5 38.7 L47.6071 38.3 L48.7143 38.2 L49.8214 38.3 L50.9286 38.3 L52.0357 38.1 L53.1429 38 L54.25 38 L55.3571 38.2 L56.4643 38.7 L57.5714 38.7 L58.6786 39 L59.7857 39 L60.8929 39.2 L62 39.2 L63.1071 39.4 L64.2143 39.3 L65.3214 39.4 L66.4286 39.7 L67.5357 39.6 L68.6429 39.4 L69.75 39.4 L70.8571 39.5 L71.9643 39.4 L73.0714 39.7 L74.1786 39.6 L75.2857 39.9 L76.3929 40 L77.5 39.8 L78.6071 40 L79.7143 40 L80.8214 40 L81.9286 40.2 L83.0357 40.1 L84.1429 40.2 L85.25 40.2 L86.3571 40.3 L87.4643 40.2 L88.5714 40.2 L89.6786 40.3 L90.7857 40.1 L91.8929 40.2 L93 40.2 L94.1071 40 L95.2143 40 L96.3214 40.1 L97.4286 40.1 L98.5357 40.3 L99.6429 40.1 L100.75 40 L101.8571 40 L102.9643 39.9 L104.0714 39.9 L105.1786 39.9 L106.2857 39.8 L107.3929 39.9 L108.5 40 L109.6071 39.9 L110.7143 39.8 L111.8214 39.8 L112.9286 39.7 L114.0357 40 L115.1429 39.9 L116.25 39.9 L117.3571 39.8 L118.4643 39.7 L119.5714 39.8 L120.6786 39.6 L121.7857 39.6 L122.8929 39.7 L124 39.4 L125.1071 39.1 L126.2143 39.4 L127.3214 39.3 L128.4286 39.1 L129.5357 38.7 L130.6429 38.4 L131.75 38.3 L132.8571 38.2 L133.9643 37.5 L135.0714 37.6 L136.1786 37 L137.2857 36.1 L138.3929 36.3 L139.5 35.9 L140.6071 36 L141.7143 35.4 L142.8214 33.6 L143.9286 33.2 L145.0357 32.1 L146.1429 31.2 L147.25 29.9 L148.3571 27 L149.4643 22.3 L150.5714 20.3 L151.6786 16.6 L152.7857 15 L153.8929 13.7 L155 11.4"/>
</g>
</g>
</svg>