<svg viewBox="0 0 155 58" preserveAspectRatio="none" class="svggraph" id="svgthumb_us" style="overflow:visible;width:155px;height:58px;" xmlns="http://www.w3.org/2000/svg" xlink="http://www.w3.org/1999/xlink" title="Chart for autumn">
<title>Last ranked
#82 in 2020</title>
<rect x="2" y="43" height="13" width="17" style="fill:rgb(200,200,200)"/>
<image x="2.5" y="43.5" href="/images/flags/24/us.png" preserveAspectRatio="xMinYMax meet" width="16" height="12"/>
<text x="153" y="55" class="svgtitle" text-anchor="end" style="fill:#000000;font-size:13px;">United States</text>
<line x1="0" y1="41" x2="155" y2="41" class="svggridline" style="stroke:rgb(200,200,200);stroke-width:1.3"/>
<g id="svgthumb_us-namepaths">
<g style="fill:none;stroke:#ff0000;stroke-width:1.3;" class="svgcurveline" id="svgthumb_us-autumn-f">
<path d=" M97.9821 40.2 L98.5357 39.8 L99.6429 39.5333 L100.75 39.1333 L101.8571 38.4667 L102.9643 38.3333 L104.0714 35.8 L105.1786 33.8 L106.2857 33.1333 L107.3929 32.2 L108.5 30.3333 L109.6071 29.4 L110.7143 29.5333 L111.8214 29.8 L112.9286 30.4667 L114.0357 31.6667 L115.1429 32.2 L116.25 32.2 L117.3571 32.8667 L118.4643 30.7333 L119.5714 29.4 L120.6786 31.1333 L121.7857 30.3333 L122.8929 29.5333 L124 29.1333 L125.1071 26.8667 L126.2143 22.4667 L127.3214 20.3333 L128.4286 19.4 L129.5357 14.8667 L130.6429 12.0667 L131.75 12.7333 L132.8571 14.0667 L133.9643 12.7333 L135.0714 13.2667 L136.1786 14.0667 L137.2857 15.4 L138.3929 17.4 L139.5 18.2 L140.6071 17.5333 L141.7143 17.5333 L142.8214 16.6 L143.9286 17 L145.0357 15.1333 L146.1429 15 L147.25 13.5333 L148.3571 13.2667 L149.4643 12.8667 L150.5714 13.1333 L151.6786 15.5333 L152.7857 15.9333 L153.8929 17.1333 L155 17.4"/>
</g>
</g>
</svg>