<svg viewBox="0 0 155 58" preserveAspectRatio="none" class="svggraph" id="svgthumb_us" style="overflow:visible;width:155px;height:58px;" xmlns="http://www.w3.org/2000/svg" xlink="http://www.w3.org/1999/xlink" title="Chart for avery">
<title>Last ranked
#19 in 2020 (f)
#211 in 2020 (m)</title>
<rect x="2" y="43" height="13" width="17" style="fill:rgb(200,200,200)"/>
<image x="2.5" y="43.5" href="/images/flags/24/us.png" preserveAspectRatio="xMinYMax meet" width="16" height="12"/>
<text x="153" y="55" class="svgtitle" text-anchor="end" style="fill:#000000;font-size:13px;">United States</text>
<line x1="0" y1="41" x2="155" y2="41" class="svggridline" style="stroke:rgb(200,200,200);stroke-width:1.3"/>
<g id="svgthumb_us-namepaths">
<g style="fill:none;stroke:#ff0000;stroke-width:1.3;" class="svgcurveline" id="svgthumb_us-avery-f">
<path d=" M120.125 40.28 L120.6786 40.28 L121.7857 40.04 L122.8929 39.64 L124 39.24 L125.1071 39.16 L126.2143 38.84 L127.3214 38.76 L128.4286 38.92 L129.5357 37.08 L130.6429 35.88 L131.75 34.84 L132.8571 33.64 L133.9643 32.36 L135.0714 30.52 L136.1786 26.28 L137.2857 25 L138.3929 22.68 L139.5 20.92 L140.6071 20.68 L141.7143 18.6 L142.8214 16.12 L143.9286 13.72 L145.0357 10.68 L146.1429 6.68 L147.25 2.84 L148.3571 1.8 L149.4643 2.6 L150.5714 4.68 L151.6786 6.12 L152.7857 6.12 L153.8929 8.84 L155 10.36"/>
</g>
<g style="fill:none;stroke:#0000ff;stroke-width:1.3;" class="svgcurveline" id="svgthumb_us-avery-m">
<path d="M0 40.36 L1.1071 39.16 L2.2143 40.12 L3.3214 40.04 L4.4286 39.96 L5.5357 40.2 L6.6429 40.6 L7.75 39.96 L8.8571 40.2 L9.9643 40.36 L11.0714 39.88 L12.1786 40.36 L13.2857 39.88 L14.3929 39.72 L15.5 39.88 L16.6071 39.72 L17.7143 39.8 L18.8214 39.64 L19.9286 40.12 L21.0357 39.8 L22.1429 40.44 L23.25 39.72 L24.3571 39.88 L25.4643 40.2 L26.5714 39.96 L27.6786 39.8 L28.7857 40.04 L29.8929 40.12 L31 39.88 L32.1071 40.2 L33.2143 40.2 L34.3214 40.28 L35.4286 39.96 L36.5357 40.04 L37.6429 39.96 L38.75 39.88 L39.8571 40.12 L40.9643 40.04 L42.0714 40.12 L43.1786 40.12 L44.2857 40.2 L45.3929 40.12 L46.5 40.04 L47.6071 40.2 L48.7143 40.12 L49.8214 40.28 L50.9286 40.28 L52.0357 40.28 L53.1429 40.36 L54.25 40.28 L55.3571 40.28 L56.4643 40.44 L57.5714 40.36 L58.6786 40.28 L59.7857 40.28 L60.8929 40.52 L62 40.52 L63.1071 40.52 L64.2143 40.44 L65.3214 40.6 L66.4286 40.44 L67.5357 40.52 L68.6429 40.52 L69.75 40.6 L70.8571 40.6 L71.9643 40.52 L73.0714 40.6 L74.1786 40.6 L75.2857 40.68 L76.3929 40.76 L77.5 40.68 L78.6071 40.68 L79.7143 40.6 L80.8214 40.6 L81.9286 40.52 L83.0357 40.44 L84.1429 40.44 L85.25 40.44 L86.3571 40.36 L87.4643 40.28 L88.5714 40.28 L89.6786 40.36 L90.7857 40.28 L91.8929 40.28 L93 40.28 L94.1071 40.12 L95.2143 40.12 L96.3214 40.2 L97.4286 40.28 L98.5357 40.36 L99.6429 40.28 L100.75 40.28 L101.8571 40.2 L102.9643 39.96 L104.0714 40.12 L105.1786 39.96 L106.2857 39.88 L107.3929 40.04 L108.5 39.96 L109.6071 40.12 L110.7143 40.04 L111.8214 39.96 L112.9286 40.12 L114.0357 39.96 L115.1429 40.12 L116.25 39.96 L117.3571 39.8 L118.4643 39.48 L119.5714 39.56 L120.6786 39.24 L121.7857 39.56 L122.8929 39.48 L124 39.24 L125.1071 37.4 L126.2143 36.6 L127.3214 36.28 L128.4286 36.28 L129.5357 36.28 L130.6429 36.12 L131.75 35.64 L132.8571 35.72 L133.9643 35.56 L135.0714 35.64 L136.1786 34.92 L137.2857 35.24 L138.3929 34.76 L139.5 34.44 L140.6071 34.68 L141.7143 34.6 L142.8214 34.84 L143.9286 34.36 L145.0357 33.96 L146.1429 33.08 L147.25 32.84 L148.3571 32.04 L149.4643 32.28 L150.5714 32.6 L151.6786 32.12 L152.7857 32.28 L153.8929 32.92 L155 33.24"/>
</g>
</g>
</svg>