<svg viewBox="0 0 155 58" preserveAspectRatio="none" class="svggraph" id="svgthumb_us" style="overflow:visible;width:155px;height:58px;" xmlns="http://www.w3.org/2000/svg" xlink="http://www.w3.org/1999/xlink" title="Chart for bailey">
<title>Last ranked
#171 in 2020 (f)
#996 in 2010 (m)</title>
<rect x="2" y="43" height="13" width="17" style="fill:rgb(200,200,200)"/>
<image x="2.5" y="43.5" href="/images/flags/24/us.png" preserveAspectRatio="xMinYMax meet" width="16" height="12"/>
<text x="153" y="55" class="svgtitle" text-anchor="end" style="fill:#000000;font-size:13px;">United States</text>
<line x1="0" y1="41" x2="155" y2="41" class="svggridline" style="stroke:rgb(200,200,200);stroke-width:1.3"/>
<g id="svgthumb_us-namepaths">
<g style="fill:none;stroke:#ff0000;stroke-width:1.3;" class="svgcurveline" id="svgthumb_us-bailey-f">
<path d=" M113.4821 39.9333 L114.0357 39.8 L115.1429 39 L116.25 38.7333 L117.3571 37.4 L118.4643 36.6 L119.5714 34.4667 L120.6786 33.9333 L121.7857 32.8667 L122.8929 31.5333 L124 29.5333 L125.1071 26.6 L126.2143 24.8667 L127.3214 16.7333 L128.4286 11.8 L129.5357 5.9333 L130.6429 5.2667 L131.75 8.0667 L132.8571 9.9333 L133.9643 11.8 L135.0714 16.3333 L136.1786 17.9333 L137.2857 19.1333 L138.3929 21.4 L139.5 21.9333 L140.6071 16.2 L141.7143 15.9333 L142.8214 17 L143.9286 16.4667 L145.0357 18.2 L146.1429 17.5333 L147.25 20.0667 L148.3571 20.8667 L149.4643 21.5333 L150.5714 22.3333 L151.6786 23.8 L152.7857 25.4 L153.8929 27.6667 L155 28.4667"/>
</g>
<g style="fill:none;stroke:#0000ff;stroke-width:1.3;" class="svgcurveline" id="svgthumb_us-bailey-m">
<path d="M0 39.6667 L1.1071 40.0667 L2.2143 40.0667 L3.3214 40.0667 L4.4286 40.3333 L5.5357 40.2 L6.6429 40.2 L7.75 40.3333 L8.8571 40.3333 L9.9643 39.9333 L11.0714 39.5333 L12.1786 39.8 L13.2857 39.9333 L14.3929 39.2667 L15.5 39.8 L16.6071 39.9333 L17.7143 40.2 L18.8214 39.5333 L19.9286 39.5333 L21.0357 39.6667 L22.1429 39.4 L23.25 39.6667 L24.3571 39.9333 L24.9107 40.3333 M26.0179 40.3333 L26.5714 40.0667 L27.6786 40.0667 L28.7857 39.6667 L29.8929 39.8 L30.4464 40.3333 M34.875 40.3333 L35.4286 40.2 L35.9821 40.3333 M37.0893 40.3333 L37.6429 40.3333 L38.1964 40.3333 M39.3036 40.3333 L39.8571 40.3333 L40.4107 40.4667 M43.7321 40.4667 L44.2857 40.4667 L44.8393 40.4667 M62.5536 40.4667 L63.1071 40.4667 L63.6607 40.4667 M123.4464 40.3333 L124 40.2 L125.1071 40.2 L126.2143 39.8 L127.3214 34.3333 L128.4286 30.7333 L129.5357 25.6667 L130.6429 26.3333 L131.75 26.6 L132.8571 29.8 L133.9643 33 L135.0714 35.5333 L136.1786 36.2 L137.2857 37.2667 L138.3929 38.0667 L139.5 38.7333 L140.6071 38.8667 L141.7143 39.2667 L142.8214 39.6667 L143.9286 39.6667 L144.4821 39.6667"/>
</g>
</g>
</svg>