<svg viewBox="0 0 155 58" preserveAspectRatio="none" class="svggraph" id="svgthumb_us" style="overflow:visible;width:155px;height:58px;" xmlns="http://www.w3.org/2000/svg" xlink="http://www.w3.org/1999/xlink" title="Chart for bella">
<title>Last ranked
#64 in 2020</title>
<rect x="2" y="43" height="13" width="17" style="fill:rgb(200,200,200)"/>
<image x="2.5" y="43.5" href="/images/flags/24/us.png" preserveAspectRatio="xMinYMax meet" width="16" height="12"/>
<text x="153" y="55" class="svgtitle" text-anchor="end" style="fill:#000000;font-size:13px;">United States</text>
<line x1="0" y1="41" x2="155" y2="41" class="svggridline" style="stroke:rgb(200,200,200);stroke-width:1.3"/>
<g id="svgthumb_us-namepaths">
<g style="fill:none;stroke:#ff0000;stroke-width:1.3;" class="svgcurveline" id="svgthumb_us-bella-f">
<path d="M0 39.2667 L1.1071 37.8 L2.2143 39.1333 L3.3214 39.1333 L4.4286 37.9333 L5.5357 38.6 L6.6429 39.1333 L7.75 38.7333 L8.8571 38.8667 L9.9643 38.3333 L11.0714 38.2 L12.1786 38.4667 L13.2857 37.8 L14.3929 38.3333 L15.5 39 L16.6071 38.8667 L17.7143 38.7333 L18.8214 38.6 L19.9286 39.1333 L21.0357 38.2 L22.1429 37.9333 L23.25 39.1333 L24.3571 38.4667 L25.4643 38.8667 L26.5714 39 L27.6786 38.7333 L28.7857 38.7333 L29.8929 38.6 L31 38.6 L32.1071 38.3333 L33.2143 38.7333 L34.3214 38.4667 L35.4286 38.4667 L36.5357 38.4667 L37.6429 38.4667 L38.75 38.8667 L39.8571 38.4667 L40.9643 38.4667 L42.0714 38.3333 L43.1786 38.6 L44.2857 39 L45.3929 39 L46.5 39.1333 L47.6071 39.1333 L48.7143 39.6667 L49.8214 39.5333 L50.9286 39.8 L52.0357 40.0667 L53.1429 40.2 L54.25 40.0667 L55.3571 40.3333 L56.4643 40.3333 L57.0179 40.3333 M132.3036 39.5333 L132.8571 39 L133.9643 38.2 L135.0714 36.3333 L136.1786 34.6 L137.2857 32.8667 L138.3929 30.0667 L139.5 28.4667 L140.6071 26.7333 L141.7143 23.1333 L142.8214 11.1333 L143.9286 6.0667 L145.0357 11.6667 L146.1429 11 L147.25 12.0667 L148.3571 13 L149.4643 15 L150.5714 15.6667 L151.6786 8.0667 L152.7857 8.3333 L153.8929 9.1333 L155 13.6667"/>
</g>
</g>
</svg>