<svg viewBox="0 0 155 58" preserveAspectRatio="none" class="svggraph" id="svgthumb_us" style="overflow:visible;width:155px;height:58px;" xmlns="http://www.w3.org/2000/svg" xlink="http://www.w3.org/1999/xlink" title="Chart for bianca">
<title>Last ranked
#423 in 2020</title>
<rect x="2" y="43" height="13" width="17" style="fill:rgb(200,200,200)"/>
<image x="2.5" y="43.5" href="/images/flags/24/us.png" preserveAspectRatio="xMinYMax meet" width="16" height="12"/>
<text x="153" y="55" class="svgtitle" text-anchor="end" style="fill:#000000;font-size:13px;">United States</text>
<line x1="0" y1="41" x2="155" y2="41" class="svggridline" style="stroke:rgb(200,200,200);stroke-width:1.3"/>
<g id="svgthumb_us-namepaths">
<g style="fill:none;stroke:#ff0000;stroke-width:1.3;" class="svgcurveline" id="svgthumb_us-bianca-f">
<path d=" M102.4107 40.0667 L102.9643 39.5333 L104.0714 39.4 L105.1786 38.8667 L106.2857 37.6667 L107.3929 36.7333 L108.5 36.2 L109.6071 36.2 L110.7143 36.2 L111.8214 35.9333 L112.9286 35.2667 L114.0357 33.9333 L115.1429 36.0667 L116.25 35.2667 L117.3571 35 L118.4643 34.4667 L119.5714 22.7333 L120.6786 17 L121.7857 16.2 L122.8929 15.8 L124 18.4667 L125.1071 19.2667 L126.2143 21 L127.3214 23.6667 L128.4286 23.4 L129.5357 24.4667 L130.6429 27.1333 L131.75 27.6667 L132.8571 27.9333 L133.9643 27 L135.0714 27.8 L136.1786 27.4 L137.2857 27.9333 L138.3929 28.3333 L139.5 28.6 L140.6071 28.6 L141.7143 30.4667 L142.8214 31.8 L143.9286 33 L145.0357 33.2667 L146.1429 33.9333 L147.25 33.6667 L148.3571 34.8667 L149.4643 35.1333 L150.5714 35.1333 L151.6786 35.1333 L152.7857 35.5333 L153.8929 36.0667 L155 35.5333"/>
</g>
</g>
</svg>