<svg viewBox="0 0 155 58" preserveAspectRatio="none" class="svggraph" id="svgthumb_us" style="overflow:visible;width:155px;height:58px;" xmlns="http://www.w3.org/2000/svg" xlink="http://www.w3.org/1999/xlink" title="Chart for blair">
<title>Last ranked
#333 in 2020 (f)
#949 in 1995 (m)</title>
<rect x="2" y="43" height="13" width="17" style="fill:rgb(200,200,200)"/>
<image x="2.5" y="43.5" href="/images/flags/24/us.png" preserveAspectRatio="xMinYMax meet" width="16" height="12"/>
<text x="153" y="55" class="svgtitle" text-anchor="end" style="fill:#000000;font-size:13px;">United States</text>
<line x1="0" y1="41" x2="155" y2="41" class="svggridline" style="stroke:rgb(200,200,200);stroke-width:1.3"/>
<g id="svgthumb_us-namepaths">
<g style="fill:none;stroke:#ff0000;stroke-width:1.3;" class="svgcurveline" id="svgthumb_us-blair-f">
<path d=" M110.1607 37 L110.7143 36 L111.8214 30.5 L112.9286 27.5 L114.0357 29.5 L115.1429 27.5 L116.25 27 L117.3571 27.5 L118.4643 29 L119.5714 27 L120.6786 29 L121.7857 29 L122.8929 30 L124 29.5 L125.1071 32 L126.2143 32.5 L127.3214 32 L128.4286 32.5 L129.5357 33 L130.6429 34.5 L131.75 35 L132.8571 35.5 L133.4107 35.5 M144.4821 34.5 L145.0357 34 L146.1429 33 L147.25 31 L148.3571 30 L149.4643 28.5 L150.5714 25.5 L151.6786 24.5 L152.7857 21.5 L153.8929 20 L155 14.5"/>
</g>
<g style="fill:none;stroke:#0000ff;stroke-width:1.3;" class="svgcurveline" id="svgthumb_us-blair-m">
<path d=" M0.5536 39 L1.1071 38.5 L1.6607 39 M2.7679 39 L3.3214 39 L4.4286 39 L5.5357 39 L6.0893 39 M7.1964 39 L7.75 38.5 L8.8571 37 L9.9643 38 L10.5179 39 M11.625 39 L12.1786 36.5 L13.2857 38 L14.3929 37.5 L15.5 38.5 L16.6071 38 L17.7143 36.5 L18.2679 38.5 M21.5893 38.5 L22.1429 38 L23.25 38.5 L24.3571 37 L24.9107 38.5 M26.0179 38.5 L26.5714 38.5 L27.125 38 M28.2321 38 L28.7857 36.5 L29.3393 38.5 M30.4464 38.5 L31 36 L31.5536 38 M33.7679 38.5 L34.3214 38 L35.4286 38 L36.5357 38 L37.6429 38 L38.75 37 L39.8571 37.5 L40.9643 37 L42.0714 37.5 L43.1786 37 L44.2857 37.5 L45.3929 37.5 L46.5 37.5 L47.6071 38 L48.7143 37.5 L49.8214 37 L50.9286 37 L52.0357 38 L53.1429 38 L54.25 37.5 L55.3571 37.5 L56.4643 37.5 L57.5714 38.5 L58.6786 37 L59.7857 38 L60.8929 38 L62 38.5 L63.1071 39 L64.2143 38 L65.3214 38.5 L66.4286 39 L67.5357 39 L68.6429 38 L69.75 37 L70.8571 38.5 L71.9643 38 L73.0714 38.5 L74.1786 38.5 L75.2857 38 L76.3929 38.5 L77.5 37 L78.6071 36 L79.7143 35.5 L80.8214 34.5 L81.9286 34.5 L83.0357 35.5 L84.1429 35.5 L85.25 35.5 L86.3571 36 L87.4643 35.5 L88.5714 35 L89.6786 35.5 L90.7857 33.5 L91.8929 33 L93 35.5 L94.1071 35.5 L95.2143 35 L96.3214 35.5 L97.4286 35 L98.5357 36 L99.6429 36 L100.75 37 L101.8571 37 L102.9643 37 L104.0714 36.5 L105.1786 36.5 L106.2857 36 L107.3929 35.5 L108.5 35 L109.6071 34.5 L110.7143 34.5 L111.8214 33.5 L112.9286 35 L114.0357 34.5 L115.1429 35 L116.25 36.5 L117.3571 36 L118.4643 37 L119.5714 36 L120.6786 35 L121.7857 34 L122.8929 34.5 L124 35 L125.1071 36.5 L126.2143 37 L127.3214 37.5 L127.875 38"/>
</g>
</g>
</svg>