<svg viewBox="0 0 155 58" preserveAspectRatio="none" class="svggraph" id="svgthumb_us" style="overflow:visible;width:155px;height:58px;" xmlns="http://www.w3.org/2000/svg" xlink="http://www.w3.org/1999/xlink" title="Chart for blake">
<title>Last ranked
#209 in 2020 (m)
#219 in 2020 (f)</title>
<rect x="2" y="43" height="13" width="17" style="fill:rgb(200,200,200)"/>
<image x="2.5" y="43.5" href="/images/flags/24/us.png" preserveAspectRatio="xMinYMax meet" width="16" height="12"/>
<text x="153" y="55" class="svgtitle" text-anchor="end" style="fill:#000000;font-size:13px;">United States</text>
<line x1="0" y1="41" x2="155" y2="41" class="svggridline" style="stroke:rgb(200,200,200);stroke-width:1.3"/>
<g id="svgthumb_us-namepaths">
<g style="fill:none;stroke:#0000ff;stroke-width:1.3;" class="svgcurveline" id="svgthumb_us-blake-m">
<path d=" M2.7679 40.6 L3.3214 40.6 L3.875 40.6 M6.0893 40.6 L6.6429 40.2 L7.1964 40.5 M12.7321 40.5 L13.2857 40.4 L14.3929 40.5 L15.5 40.4 L16.0536 40.5 M18.2679 40.5 L18.8214 40.5 L19.375 40.5 M24.9107 40.5 L25.4643 40.5 L26.0179 40.5 M28.2321 40.4 L28.7857 40.4 L29.3393 40.5 M33.7679 40.5 L34.3214 40.5 L34.875 40.5 M43.7321 40.5 L44.2857 40.5 L45.3929 40.5 L45.9464 40.6 M58.125 40.6 L58.6786 40.6 L59.2321 40.6 M69.1964 40.7 L69.75 40.6 L70.3036 40.7 M71.4107 40.7 L71.9643 40.6 L73.0714 40.6 L74.1786 40.5 L75.2857 40.6 L76.3929 40.5 L77.5 40.3 L78.6071 40.3 L79.7143 39.9 L80.8214 40 L81.9286 39.7 L83.0357 39.7 L84.1429 39.7 L85.25 39.7 L86.3571 39.3 L87.4643 39.1 L88.5714 39 L89.6786 38.6 L90.7857 38.4 L91.8929 38.2 L93 38.7 L94.1071 38.7 L95.2143 38.8 L96.3214 38.6 L97.4286 38.7 L98.5357 38.2 L99.6429 38.2 L100.75 38.4 L101.8571 38.2 L102.9643 38.3 L104.0714 38.4 L105.1786 37.8 L106.2857 37.6 L107.3929 37.2 L108.5 37.1 L109.6071 36.8 L110.7143 35.8 L111.8214 31.9 L112.9286 28.5 L114.0357 27.6 L115.1429 26.3 L116.25 25.8 L117.3571 26.5 L118.4643 26.7 L119.5714 25.5 L120.6786 24.2 L121.7857 21.9 L122.8929 20.8 L124 20.1 L125.1071 19.2 L126.2143 17.1 L127.3214 17 L128.4286 17.3 L129.5357 17.3 L130.6429 18.3 L131.75 17.4 L132.8571 16.4 L133.9643 15.1 L135.0714 15.1 L136.1786 15.9 L137.2857 18.8 L138.3929 20.2 L139.5 20.3 L140.6071 17.2 L141.7143 17.6 L142.8214 17.7 L143.9286 18.1 L145.0357 13.4 L146.1429 11.2 L147.25 13 L148.3571 16.8 L149.4643 20.3 L150.5714 24.8 L151.6786 27.7 L152.7857 28.3 L153.8929 29.8 L155 31.2"/>
</g>
<g style="fill:none;stroke:#ff0000;stroke-width:1.3;" class="svgcurveline" id="svgthumb_us-blake-f">
<path d=" M121.2321 40.1 L121.7857 40 L122.8929 40 L124 40.1 L125.1071 40 L126.2143 40 L127.3214 39.9 L128.4286 40 L129.5357 39.9 L130.0893 40 M144.4821 39.7 L145.0357 39.3 L146.1429 38.9 L147.25 38.2 L148.3571 38.4 L149.4643 37.1 L150.5714 35.3 L151.6786 34.7 L152.7857 34.6 L153.8929 33.4 L155 33.5"/>
</g>
</g>
</svg>