<svg viewBox="0 0 155 58" preserveAspectRatio="none" class="svggraph" id="svgthumb_us" style="overflow:visible;width:155px;height:58px;" xmlns="http://www.w3.org/2000/svg" xlink="http://www.w3.org/1999/xlink" title="Chart for brianna">
<title>Last ranked
#146 in 2020</title>
<rect x="2" y="43" height="13" width="17" style="fill:rgb(200,200,200)"/>
<image x="2.5" y="43.5" href="/images/flags/24/us.png" preserveAspectRatio="xMinYMax meet" width="16" height="12"/>
<text x="153" y="55" class="svgtitle" text-anchor="end" style="fill:#000000;font-size:13px;">United States</text>
<line x1="0" y1="41" x2="155" y2="41" class="svggridline" style="stroke:rgb(200,200,200);stroke-width:1.3"/>
<g id="svgthumb_us-namepaths">
<g style="fill:none;stroke:#ff0000;stroke-width:1.3;" class="svgcurveline" id="svgthumb_us-brianna-f">
<path d=" M105.7321 40.5429 L106.2857 40.4857 L107.3929 40.2 L108.5 39.9714 L109.6071 38.6571 L110.7143 38.7143 L111.8214 38.6571 L112.9286 38.2 L114.0357 37.9143 L115.1429 36.7143 L116.25 36.6 L117.3571 35.4 L118.4643 34.0286 L119.5714 32.2 L120.6786 29.5714 L121.7857 25.2286 L122.8929 22.5429 L124 20.2 L125.1071 15.5714 L126.2143 10.1429 L127.3214 5.6857 L128.4286 5.4571 L129.5357 5.0571 L130.6429 5.4571 L131.75 4.5429 L132.8571 4.0857 L133.9643 7 L135.0714 7.6857 L136.1786 10.8286 L137.2857 13.2286 L138.3929 14.6 L139.5 15.4 L140.6071 17.1143 L141.7143 18.3143 L142.8214 20.2571 L143.9286 22.7143 L145.0357 25.6857 L146.1429 27.3429 L147.25 29.4 L148.3571 30.4286 L149.4643 30.8286 L150.5714 31.8571 L151.6786 33.4 L152.7857 34.0857 L153.8929 34.9429 L155 34.9429"/>
</g>
</g>
</svg>