<svg viewBox="0 0 155 58" preserveAspectRatio="none" class="svggraph" id="svgthumb_us" style="overflow:visible;width:155px;height:58px;" xmlns="http://www.w3.org/2000/svg" xlink="http://www.w3.org/1999/xlink" title="Chart for brielle">
<title>Last ranked
#99 in 2020</title>
<rect x="2" y="43" height="13" width="17" style="fill:rgb(200,200,200)"/>
<image x="2.5" y="43.5" href="/images/flags/24/us.png" preserveAspectRatio="xMinYMax meet" width="16" height="12"/>
<text x="153" y="55" class="svgtitle" text-anchor="end" style="fill:#000000;font-size:13px;">United States</text>
<line x1="0" y1="41" x2="155" y2="41" class="svggridline" style="stroke:rgb(200,200,200);stroke-width:1.3"/>
<g id="svgthumb_us-namepaths">
<g style="fill:none;stroke:#ff0000;stroke-width:1.3;" class="svgcurveline" id="svgthumb_us-brielle-f">
<path d=" M122.3393 39.2 L122.8929 39 L124 38.6 L125.1071 38.6 L126.2143 38.2 L127.3214 38.2 L128.4286 37.2 L129.5357 37.4 L130.6429 37.4 L131.75 37.2 L132.8571 37.6 L133.9643 37.2 L135.0714 37.4 L136.1786 36.4 L137.2857 35 L138.3929 34.6 L139.5 34.4 L140.6071 33.6 L141.7143 31.6 L142.8214 27.6 L143.9286 24.4 L145.0357 15.2 L146.1429 12.4 L147.25 13 L148.3571 13.8 L149.4643 15 L150.5714 13.4 L151.6786 10.2 L152.7857 9.4 L153.8929 10.8 L155 10.2"/>
</g>
</g>
</svg>