<svg viewBox="0 0 155 58" preserveAspectRatio="none" class="svggraph" id="svgthumb_us" style="overflow:visible;width:155px;height:58px;" xmlns="http://www.w3.org/2000/svg" xlink="http://www.w3.org/1999/xlink" title="Chart for brooklynn">
<title>Last ranked
#262 in 2020</title>
<rect x="2" y="43" height="13" width="17" style="fill:rgb(200,200,200)"/>
<image x="2.5" y="43.5" href="/images/flags/24/us.png" preserveAspectRatio="xMinYMax meet" width="16" height="12"/>
<text x="153" y="55" class="svgtitle" text-anchor="end" style="fill:#000000;font-size:13px;">United States</text>
<line x1="0" y1="41" x2="155" y2="41" class="svggridline" style="stroke:rgb(200,200,200);stroke-width:1.3"/>
<g id="svgthumb_us-namepaths">
<g style="fill:none;stroke:#ff0000;stroke-width:1.3;" class="svgcurveline" id="svgthumb_us-brooklynn-f">
<path d=" M126.7679 39 L127.3214 38.8 L128.4286 38.2 L129.5357 37 L130.6429 36.2 L131.75 36 L132.8571 35.8 L133.9643 35.8 L135.0714 34.8 L136.1786 33.6 L137.2857 31.8 L138.3929 29.2 L139.5 27.2 L140.6071 24.6 L141.7143 23.4 L142.8214 21.6 L143.9286 18.6 L145.0357 16.2 L146.1429 17 L147.25 18.6 L148.3571 20 L149.4643 21.6 L150.5714 23.8 L151.6786 26 L152.7857 25.6 L153.8929 27.2 L155 27.8"/>
</g>
</g>
</svg>