<svg viewBox="0 0 155 58" preserveAspectRatio="none" class="svggraph" id="svgthumb_us" style="overflow:visible;width:155px;height:58px;" xmlns="http://www.w3.org/2000/svg" xlink="http://www.w3.org/1999/xlink" title="Chart for brooke">
<title>Last ranked
#237 in 2020</title>
<rect x="2" y="43" height="13" width="17" style="fill:rgb(200,200,200)"/>
<image x="2.5" y="43.5" href="/images/flags/24/us.png" preserveAspectRatio="xMinYMax meet" width="16" height="12"/>
<text x="153" y="55" class="svgtitle" text-anchor="end" style="fill:#000000;font-size:13px;">United States</text>
<line x1="0" y1="41" x2="155" y2="41" class="svggridline" style="stroke:rgb(200,200,200);stroke-width:1.3"/>
<g id="svgthumb_us-namepaths">
<g style="fill:none;stroke:#ff0000;stroke-width:1.3;" class="svgcurveline" id="svgthumb_us-brooke-f">
<path d=" M80.2679 40.5 L80.8214 40.3 L81.9286 40.5 L82.4821 40.5 M89.125 40.4 L89.6786 40.4 L90.7857 40.3 L91.8929 40.3 L93 40.4 L94.1071 40.2 L95.2143 39.4 L96.3214 39.4 L97.4286 39.1 L98.5357 38.7 L99.6429 36.9 L100.75 36.8 L101.8571 36.4 L102.9643 36 L104.0714 34.8 L105.1786 33.4 L106.2857 31.7 L107.3929 29.6 L108.5 25.6 L109.6071 20.6 L110.7143 13.2 L111.8214 11.2 L112.9286 23.7 L114.0357 25 L115.1429 25.8 L116.25 26.2 L117.3571 26.4 L118.4643 25.2 L119.5714 23.2 L120.6786 20.2 L121.7857 16.7 L122.8929 13.7 L124 12.2 L125.1071 9.7 L126.2143 10.4 L127.3214 7.8 L128.4286 5.9 L129.5357 6.1 L130.6429 8.3 L131.75 9.8 L132.8571 12.7 L133.9643 14.7 L135.0714 14 L136.1786 11.2 L137.2857 12.7 L138.3929 13.5 L139.5 13.5 L140.6071 15 L141.7143 16.1 L142.8214 17.3 L143.9286 22.1 L145.0357 23.6 L146.1429 25.7 L147.25 26.7 L148.3571 28.8 L149.4643 30 L150.5714 31.3 L151.6786 32.4 L152.7857 32.8 L153.8929 33.1 L155 33.8"/>
</g>
</g>
</svg>