<svg viewBox="0 0 155 58" preserveAspectRatio="none" class="svggraph" id="svgthumb_us" style="overflow:visible;width:155px;height:58px;" xmlns="http://www.w3.org/2000/svg" xlink="http://www.w3.org/1999/xlink" title="Chart for brooklyn">
<title>Last ranked
#54 in 2020</title>
<rect x="2" y="43" height="13" width="17" style="fill:rgb(200,200,200)"/>
<image x="2.5" y="43.5" href="/images/flags/24/us.png" preserveAspectRatio="xMinYMax meet" width="16" height="12"/>
<text x="153" y="55" class="svgtitle" text-anchor="end" style="fill:#000000;font-size:13px;">United States</text>
<line x1="0" y1="41" x2="155" y2="41" class="svggridline" style="stroke:rgb(200,200,200);stroke-width:1.3"/>
<g id="svgthumb_us-namepaths">
<g style="fill:none;stroke:#ff0000;stroke-width:1.3;" class="svgcurveline" id="svgthumb_us-brooklyn-f">
<path d=" M121.2321 40.1 L121.7857 40 L122.8929 39.6 L124 38.9 L125.1071 38.3 L126.2143 37.6 L127.3214 37 L128.4286 35.7 L129.5357 34 L130.6429 33 L131.75 32.3 L132.8571 31.8 L133.9643 31.4 L135.0714 29.8 L136.1786 26.4 L137.2857 24.8 L138.3929 20.6 L139.5 18.4 L140.6071 17.9 L141.7143 15.5 L142.8214 13 L143.9286 9.7 L145.0357 4 L146.1429 6 L147.25 5.2 L148.3571 6.1 L149.4643 8.6 L150.5714 10.2 L151.6786 13.4 L152.7857 16 L153.8929 17.5 L155 18.2"/>
</g>
</g>
</svg>