<svg viewBox="0 0 155 58" preserveAspectRatio="none" class="svggraph" id="svgthumb_us" style="overflow:visible;width:155px;height:58px;" xmlns="http://www.w3.org/2000/svg" xlink="http://www.w3.org/1999/xlink" title="Chart for brynn">
<title>Last ranked
#332 in 2020</title>
<rect x="2" y="43" height="13" width="17" style="fill:rgb(200,200,200)"/>
<image x="2.5" y="43.5" href="/images/flags/24/us.png" preserveAspectRatio="xMinYMax meet" width="16" height="12"/>
<text x="153" y="55" class="svgtitle" text-anchor="end" style="fill:#000000;font-size:13px;">United States</text>
<line x1="0" y1="41" x2="155" y2="41" class="svggridline" style="stroke:rgb(200,200,200);stroke-width:1.3"/>
<g id="svgthumb_us-namepaths">
<g style="fill:none;stroke:#ff0000;stroke-width:1.3;" class="svgcurveline" id="svgthumb_us-brynn-f">
<path d=" M110.1607 39.4 L110.7143 39.2 L111.8214 39.4 L112.9286 37.8 L114.0357 38.4 L115.1429 38.6 L116.25 39.2 L117.3571 39.2 L117.9107 39.4 M120.125 39.2 L120.6786 39.2 L121.2321 39.2 M130.0893 39 L130.6429 37.8 L131.75 36.4 L132.8571 36.8 L133.9643 37.2 L135.0714 36.6 L136.1786 30.4 L137.2857 32.2 L138.3929 33.8 L139.5 33.4 L140.6071 32.2 L141.7143 31 L142.8214 31.6 L143.9286 29.4 L145.0357 23.8 L146.1429 24 L147.25 25.6 L148.3571 28.2 L149.4643 28.4 L150.5714 28.2 L151.6786 29.4 L152.7857 29.2 L153.8929 29.4 L155 30.4"/>
</g>
</g>
</svg>