<svg viewBox="0 0 155 58" preserveAspectRatio="none" class="svggraph" id="svgthumb_us" style="overflow:visible;width:155px;height:58px;" xmlns="http://www.w3.org/2000/svg" xlink="http://www.w3.org/1999/xlink" title="Chart for callie">
<title>Last ranked
#165 in 2020 (f)
#946 in 1908 (m)</title>
<rect x="2" y="43" height="13" width="17" style="fill:rgb(200,200,200)"/>
<image x="2.5" y="43.5" href="/images/flags/24/us.png" preserveAspectRatio="xMinYMax meet" width="16" height="12"/>
<text x="153" y="55" class="svgtitle" text-anchor="end" style="fill:#000000;font-size:13px;">United States</text>
<line x1="0" y1="41" x2="155" y2="41" class="svggridline" style="stroke:rgb(200,200,200);stroke-width:1.3"/>
<g id="svgthumb_us-namepaths">
<g style="fill:none;stroke:#ff0000;stroke-width:1.3;" class="svgcurveline" id="svgthumb_us-callie-f">
<path d="M0 14.2 L1.1071 20 L2.2143 18.6 L3.3214 18.6 L4.4286 17.6 L5.5357 18.8 L6.6429 20.8 L7.75 19.6 L8.8571 20.4 L9.9643 21.8 L11.0714 18.2 L12.1786 21.2 L13.2857 24.2 L14.3929 23.8 L15.5 21.8 L16.6071 24 L17.7143 24.2 L18.8214 22.4 L19.9286 23.8 L21.0357 24.2 L22.1429 21.4 L23.25 26.6 L24.3571 25.2 L25.4643 26.6 L26.5714 29.4 L27.6786 27 L28.7857 27.8 L29.8929 27.2 L31 29 L32.1071 30.4 L33.2143 29.4 L34.3214 31 L35.4286 32.4 L36.5357 32.6 L37.6429 33 L38.75 34.2 L39.8571 34.4 L40.9643 34.6 L42.0714 35.4 L43.1786 35.2 L44.2857 35.2 L45.3929 35.6 L46.5 35.6 L47.6071 36.2 L48.7143 36 L49.8214 36 L50.9286 36 L52.0357 36.8 L53.1429 37 L54.25 36.8 L55.3571 37 L56.4643 37.8 L57.5714 37.4 L58.6786 37 L59.7857 37.2 L60.8929 37.4 L62 37.8 L63.1071 38 L64.2143 37.8 L65.3214 38.4 L66.4286 38 L67.5357 39 L68.6429 38.6 L69.75 38.6 L70.8571 38.4 L71.9643 39 L73.0714 39.6 L74.1786 39.4 L75.2857 39.4 L76.3929 39.6 L77.5 39.6 L78.6071 39.6 L79.7143 39.6 L80.8214 39.8 L81.9286 40 L83.0357 39.6 L84.1429 39.8 L84.6964 40 M86.9107 40 L87.4643 39.8 L88.5714 39.8 L89.125 39.8 M91.3393 39.8 L91.8929 39.8 L92.4464 39.8 M100.1964 39.6 L100.75 39.4 L101.3036 39.6 M102.4107 39.6 L102.9643 39 L104.0714 38.6 L105.1786 38.2 L106.2857 38.6 L107.3929 38.2 L108.5 38.2 L109.6071 38.6 L110.7143 38.2 L111.8214 37 L112.9286 36.4 L114.0357 36 L115.1429 35.6 L116.25 34.8 L117.3571 34.6 L118.4643 34.4 L119.5714 35.2 L120.6786 33.6 L121.7857 31.8 L122.8929 32 L124 31.6 L125.1071 32.4 L126.2143 33 L127.3214 31 L128.4286 31.8 L129.5357 31.2 L130.6429 30.6 L131.75 28.6 L132.8571 31 L133.9643 31.8 L135.0714 31.8 L136.1786 31.8 L137.2857 31.8 L138.3929 31.2 L139.5 30.6 L140.6071 28.2 L141.7143 26.8 L142.8214 28 L143.9286 27.6 L145.0357 25.8 L146.1429 26.4 L147.25 26.2 L148.3571 23 L149.4643 23.8 L150.5714 25 L151.6786 23.6 L152.7857 24 L153.8929 23.2 L155 21.4"/>
</g>
<g style="fill:none;stroke:#0000ff;stroke-width:1.3;" class="svgcurveline" id="svgthumb_us-callie-m">
<path d=" M0.5536 40.2 L1.1071 40 L2.2143 40.2 L2.7679 40.2 M3.875 40.2 L4.4286 39.6 L4.9821 40.2 M6.0893 40.2 L6.6429 39.8 L7.1964 40 M8.3036 40 L8.8571 40 L9.9643 40 L10.5179 40.2 M12.7321 40 L13.2857 39.8 L14.3929 40 L14.9464 40 M18.2679 40 L18.8214 40 L19.375 40 M20.4821 40 L21.0357 40 L22.1429 39.8 L22.6964 40 M30.4464 40 L31 40 L31.5536 40"/>
</g>
</g>
</svg>