<svg viewBox="0 0 155 58" preserveAspectRatio="none" class="svggraph" id="svgthumb_us" style="overflow:visible;width:155px;height:58px;" xmlns="http://www.w3.org/2000/svg" xlink="http://www.w3.org/1999/xlink" title="Chart for cameron">
<title>Last ranked
#64 in 2020 (m)
#489 in 2020 (f)</title>
<rect x="2" y="43" height="13" width="17" style="fill:rgb(200,200,200)"/>
<image x="2.5" y="43.5" href="/images/flags/24/us.png" preserveAspectRatio="xMinYMax meet" width="16" height="12"/>
<text x="153" y="55" class="svgtitle" text-anchor="end" style="fill:#000000;font-size:13px;">United States</text>
<line x1="0" y1="41" x2="155" y2="41" class="svggridline" style="stroke:rgb(200,200,200);stroke-width:1.3"/>
<g id="svgthumb_us-namepaths">
<g style="fill:none;stroke:#0000ff;stroke-width:1.3;" class="svgcurveline" id="svgthumb_us-cameron-m">
<path d=" M1.6607 40.7714 L2.2143 40.7143 L3.3214 40.7143 L4.4286 40.6571 L5.5357 40.7714 L6.0893 40.7714 M8.3036 40.7143 L8.8571 40.7143 L9.4107 40.7714 M16.0536 40.7143 L16.6071 40.6571 L17.7143 40.7143 L18.2679 40.7143 M21.5893 40.7143 L22.1429 40.6571 L22.6964 40.7143 M33.7679 40.7143 L34.3214 40.6571 L35.4286 40.7143 L35.9821 40.7143 M39.3036 40.7143 L39.8571 40.7143 L40.4107 40.7714 M43.7321 40.7143 L44.2857 40.6 L45.3929 40.7143 L46.5 40.7143 L47.6071 40.7143 L48.7143 40.7143 L49.2679 40.7714 M50.375 40.7714 L50.9286 40.6571 L51.4821 40.7714 M54.8036 40.7714 L55.3571 40.7714 L56.4643 40.7714 L57.0179 40.7714 M59.2321 40.7714 L59.7857 40.7714 L60.3393 40.7714 M64.7679 40.7714 L65.3214 40.7714 L65.875 40.7714 M66.9821 40.7714 L67.5357 40.7714 L68.6429 40.7714 L69.75 40.7714 L70.8571 40.7714 L71.9643 40.7143 L73.0714 40.7714 L74.1786 40.7714 L75.2857 40.7714 L76.3929 40.7143 L77.5 40.7143 L78.6071 40.7143 L79.7143 40.6571 L80.8214 40.6 L81.9286 40.5429 L83.0357 40.4857 L84.1429 40.3714 L85.25 40.2571 L86.3571 40.3143 L87.4643 40.3143 L88.5714 40.2571 L89.6786 40.1429 L90.7857 39.6857 L91.8929 39.9714 L93 40.1429 L94.1071 40.0286 L95.2143 40.0286 L96.3214 39.9143 L97.4286 39.6286 L98.5357 39.5143 L99.6429 39.4571 L100.75 39.4 L101.8571 39.1143 L102.9643 39.1714 L104.0714 38.7143 L105.1786 37.4 L106.2857 37.2286 L107.3929 37.6286 L108.5 37.4 L109.6071 37.4 L110.7143 37.4571 L111.8214 36.9429 L112.9286 36.5429 L114.0357 36.5429 L115.1429 36.0286 L116.25 35.6857 L117.3571 34.8857 L118.4643 31.7429 L119.5714 26.7714 L120.6786 25.7429 L121.7857 23.2857 L122.8929 22.9429 L124 21 L125.1071 21.4 L126.2143 21.8571 L127.3214 21 L128.4286 19.9143 L129.5357 17.5143 L130.6429 8.8286 L131.75 6.1429 L132.8571 6.0857 L133.9643 9 L135.0714 12.4286 L136.1786 13.9143 L137.2857 16.9429 L138.3929 17.9714 L139.5 17.9143 L140.6071 17.8 L141.7143 19.2286 L142.8214 20.4286 L143.9286 21 L145.0357 19.8 L146.1429 20.2571 L147.25 21.5714 L148.3571 21.2857 L149.4643 22.0857 L150.5714 21.6286 L151.6786 23.7429 L152.7857 25.4 L153.8929 25.3429 L155 25.3429"/>
</g>
<g style="fill:none;stroke:#ff0000;stroke-width:1.3;" class="svgcurveline" id="svgthumb_us-cameron-f">
<path d=" M110.1607 40.5429 L110.7143 40.5429 L111.8214 40.4286 L112.9286 40.3714 L114.0357 40.4857 L115.1429 40.3143 L116.25 40.3714 L117.3571 40.4286 L118.4643 40.2 L119.5714 40.0857 L120.6786 40.2 L121.7857 40.1429 L122.8929 40.1429 L124 40.1429 L125.1071 40.0286 L126.2143 39.9714 L127.3214 39.8 L128.4286 39.6286 L129.5357 38.4286 L130.6429 36.3714 L131.75 35.8 L132.8571 36.4286 L133.9643 37.1714 L135.0714 37.4 L136.1786 38.0286 L137.2857 37.4 L138.3929 37.5143 L139.5 37.9143 L140.6071 38.0286 L141.7143 38.1429 L142.8214 38.4286 L143.9286 38.7714 L145.0357 38.9429 L146.1429 39.4 L147.25 39.5143 L148.3571 39.4571 L149.4643 39.2857 L150.5714 39.2857 L151.6786 39.2286 L152.7857 39.1143 L153.8929 39.2286 L155 39"/>
</g>
</g>
</svg>