<svg viewBox="0 0 155 58" preserveAspectRatio="none" class="svggraph" id="svgthumb_us" style="overflow:visible;width:155px;height:58px;" xmlns="http://www.w3.org/2000/svg" xlink="http://www.w3.org/1999/xlink" title="Chart for camila">
<title>Last ranked
#11 in 2020</title>
<rect x="2" y="43" height="13" width="17" style="fill:rgb(200,200,200)"/>
<image x="2.5" y="43.5" href="/images/flags/24/us.png" preserveAspectRatio="xMinYMax meet" width="16" height="12"/>
<text x="153" y="55" class="svgtitle" text-anchor="end" style="fill:#000000;font-size:13px;">United States</text>
<line x1="0" y1="41" x2="155" y2="41" class="svggridline" style="stroke:rgb(200,200,200);stroke-width:1.3"/>
<g id="svgthumb_us-namepaths">
<g style="fill:none;stroke:#ff0000;stroke-width:1.3;" class="svgcurveline" id="svgthumb_us-camila-f">
<path d=" M128.9821 40.2 L129.5357 40.04 L130.6429 39.96 L131.75 39.56 L132.8571 39.48 L133.9643 39.24 L135.0714 38.44 L136.1786 36.92 L137.2857 36.44 L138.3929 34.2 L139.5 33.48 L140.6071 30.92 L141.7143 26.2 L142.8214 26.2 L143.9286 23.4 L145.0357 20.44 L146.1429 21.24 L147.25 19.64 L148.3571 19.64 L149.4643 19.32 L150.5714 15.96 L151.6786 12.28 L152.7857 8.6 L153.8929 6.68 L155 4.04"/>
</g>
</g>
</svg>