<svg viewBox="0 0 155 58" preserveAspectRatio="none" class="svggraph" id="svgthumb_us" style="overflow:visible;width:155px;height:58px;" xmlns="http://www.w3.org/2000/svg" xlink="http://www.w3.org/1999/xlink" title="Chart for camille">
<title>Last ranked
#264 in 2020 (f)
#996 in 1915 (m)</title>
<rect x="2" y="43" height="13" width="17" style="fill:rgb(200,200,200)"/>
<image x="2.5" y="43.5" href="/images/flags/24/us.png" preserveAspectRatio="xMinYMax meet" width="16" height="12"/>
<text x="153" y="55" class="svgtitle" text-anchor="end" style="fill:#000000;font-size:13px;">United States</text>
<line x1="0" y1="41" x2="155" y2="41" class="svggridline" style="stroke:rgb(200,200,200);stroke-width:1.3"/>
<g id="svgthumb_us-namepaths">
<g style="fill:none;stroke:#ff0000;stroke-width:1.3;" class="svgcurveline" id="svgthumb_us-camille-f">
<path d="M0 37.4444 L1.1071 35.6667 L2.2143 38.3333 L3.3214 37 L4.4286 38.7778 L5.5357 35.6667 L6.6429 35.2222 L7.75 38.7778 L8.8571 37.4444 L9.9643 36.1111 L11.0714 36.5556 L12.1786 35.6667 L13.2857 36.5556 L14.3929 35.2222 L15.5 33.8889 L16.6071 35.2222 L17.7143 36.1111 L18.8214 36.5556 L19.9286 34.3333 L21.0357 34.3333 L22.1429 34.3333 L23.25 35.2222 L24.3571 34.7778 L25.4643 34.3333 L26.5714 33.4444 L27.6786 36.1111 L28.7857 36.1111 L29.8929 32.1111 L31 33.4444 L32.1071 33 L33.2143 33.8889 L34.3214 33.4444 L35.4286 33.8889 L36.5357 33.4444 L37.6429 34.7778 L38.75 33.8889 L39.8571 33.4444 L40.9643 34.3333 L42.0714 33.8889 L43.1786 35.2222 L44.2857 34.3333 L45.3929 35.6667 L46.5 35.2222 L47.6071 34.7778 L48.7143 34.7778 L49.8214 35.6667 L50.9286 35.6667 L52.0357 36.1111 L53.1429 34.3333 L54.25 35.2222 L55.3571 35.2222 L56.4643 34.3333 L57.5714 34.3333 L58.6786 34.7778 L59.7857 34.3333 L60.8929 34.3333 L62 33 L63.1071 29.4444 L64.2143 29 L65.3214 27.6667 L66.4286 29.8889 L67.5357 28.5556 L68.6429 26.7778 L69.75 24.1111 L70.8571 25.4444 L71.9643 28.5556 L73.0714 25.8889 L74.1786 28.5556 L75.2857 29 L76.3929 28.1111 L77.5 29 L78.6071 30.3333 L79.7143 31.2222 L80.8214 29.8889 L81.9286 30.3333 L83.0357 29.8889 L84.1429 30.3333 L85.25 30.3333 L86.3571 29.4444 L87.4643 29.4444 L88.5714 30.3333 L89.6786 29.4444 L90.7857 29.8889 L91.8929 30.3333 L93 30.3333 L94.1071 29.8889 L95.2143 29.4444 L96.3214 28.1111 L97.4286 26.7778 L98.5357 21.4444 L99.6429 21 L100.75 25 L101.8571 26.7778 L102.9643 24.5556 L104.0714 28.1111 L105.1786 28.1111 L106.2857 26.7778 L107.3929 26.3333 L108.5 25.8889 L109.6071 25.4444 L110.7143 24.5556 L111.8214 25.4444 L112.9286 25.4444 L114.0357 25.4444 L115.1429 25.4444 L116.25 23.6667 L117.3571 25 L118.4643 24.1111 L119.5714 22.3333 L120.6786 21.4444 L121.7857 15.6667 L122.8929 17.8889 L124 17 L125.1071 18.3333 L126.2143 19.2222 L127.3214 17.8889 L128.4286 18.7778 L129.5357 17.4444 L130.6429 16.5556 L131.75 14.7778 L132.8571 14.3333 L133.9643 13.4444 L135.0714 14.3333 L136.1786 12.5556 L137.2857 13 L138.3929 16.1111 L139.5 18.3333 L140.6071 17.4444 L141.7143 17.4444 L142.8214 15.6667 L143.9286 13.4444 L145.0357 10.7778 L146.1429 10.3333 L147.25 10.3333 L148.3571 11.6667 L149.4643 11.2222 L150.5714 11.2222 L151.6786 11.2222 L152.7857 10.3333 L153.8929 10.3333 L155 11.6667"/>
</g>
<g style="fill:none;stroke:#0000ff;stroke-width:1.3;" class="svgcurveline" id="svgthumb_us-camille-m">
<path d=" M1.6607 39.2222 L2.2143 38.7778 L2.7679 39.2222 M7.1964 39.2222 L7.75 38.7778 L8.3036 38.7778 M14.9464 38.7778 L15.5 38.7778 L16.0536 38.7778 M33.7679 38.7778 L34.3214 38.7778 L34.875 38.7778 M38.1964 38.7778 L38.75 38.7778 L39.3036 39.2222"/>
</g>
</g>
</svg>