<svg viewBox="0 0 155 58" preserveAspectRatio="none" class="svggraph" id="svgthumb_us" style="overflow:visible;width:155px;height:58px;" xmlns="http://www.w3.org/2000/svg" xlink="http://www.w3.org/1999/xlink" title="Chart for camilla">
<title>Last ranked
#257 in 2020</title>
<rect x="2" y="43" height="13" width="17" style="fill:rgb(200,200,200)"/>
<image x="2.5" y="43.5" href="/images/flags/24/us.png" preserveAspectRatio="xMinYMax meet" width="16" height="12"/>
<text x="153" y="55" class="svgtitle" text-anchor="end" style="fill:#000000;font-size:13px;">United States</text>
<line x1="0" y1="41" x2="155" y2="41" class="svggridline" style="stroke:rgb(200,200,200);stroke-width:1.3"/>
<g id="svgthumb_us-namepaths">
<g style="fill:none;stroke:#ff0000;stroke-width:1.3;" class="svgcurveline" id="svgthumb_us-camilla-f">
<path d="M0 38.3333 L1.1071 36.1111 L2.2143 36.5556 L3.3214 36.5556 L4.4286 35.6667 L5.5357 36.1111 L6.6429 37 L7.75 35.6667 L8.8571 37.4444 L9.9643 37.8889 L11.0714 36.1111 L12.1786 36.5556 L13.2857 37 L14.3929 37 L15.5 36.5556 L16.6071 35.6667 L17.7143 35.6667 L18.8214 37 L19.9286 36.1111 L21.0357 34.3333 L22.1429 35.2222 L23.25 36.5556 L24.3571 37.4444 L25.4643 35.6667 L26.5714 35.6667 L27.6786 35.6667 L28.7857 36.5556 L29.8929 34.7778 L31 37.4444 L32.1071 35.6667 L33.2143 36.1111 L34.3214 37 L35.4286 35.6667 L36.5357 36.1111 L37.6429 36.1111 L38.75 35.2222 L39.8571 35.6667 L40.9643 36.5556 L42.0714 34.7778 L43.1786 36.5556 L44.2857 36.1111 L45.3929 36.5556 L46.5 36.1111 L47.6071 35.6667 L48.7143 36.1111 L49.8214 36.5556 L50.9286 37 L52.0357 37.4444 L53.1429 36.1111 L54.25 36.1111 L55.3571 36.5556 L56.4643 36.5556 L57.5714 36.5556 L58.6786 36.1111 L59.7857 37.4444 L60.8929 36.5556 L62 37 L63.1071 36.5556 L64.2143 37 L65.3214 36.1111 L66.4286 36.5556 L67.5357 36.5556 L68.6429 37 L69.75 37 L70.8571 33.8889 L71.9643 37 L73.0714 37 L74.1786 37.4444 L75.2857 37 L76.3929 37.4444 L77.5 37 L78.6071 37.4444 L79.7143 37.8889 L80.8214 38.3333 L81.9286 37.8889 L83.0357 37.4444 L84.1429 38.3333 L85.25 38.7778 L86.3571 38.3333 L87.4643 37.8889 L88.5714 37.8889 L89.6786 37.4444 L90.7857 37.8889 L91.8929 37.4444 L93 37 L94.1071 37 L95.2143 37.4444 L96.3214 37 L97.4286 37.4444 L98.5357 36.5556 L99.6429 37.4444 L100.75 37.8889 L101.8571 37.4444 L102.9643 37.4444 L104.0714 37.4444 L104.625 37.4444 M107.9464 37.4444 L108.5 37 L109.0536 37.4444 M133.4107 36.1111 L133.9643 36.1111 L134.5179 36.1111 M135.625 36.1111 L136.1786 34.7778 L137.2857 35.2222 L138.3929 34.7778 L139.5 33.8889 L140.6071 32.5556 L141.7143 30.7778 L142.8214 29 L143.9286 27.6667 L145.0357 26.3333 L146.1429 25 L147.25 23.2222 L148.3571 20.5556 L149.4643 21 L150.5714 18.7778 L151.6786 16.1111 L152.7857 14.7778 L153.8929 11.2222 L155 11.6667"/>
</g>
</g>
</svg>