<svg viewBox="0 0 155 58" preserveAspectRatio="none" class="svggraph" id="svgthumb_us" style="overflow:visible;width:155px;height:58px;" xmlns="http://www.w3.org/2000/svg" xlink="http://www.w3.org/1999/xlink" title="Chart for camryn">
<title>Last ranked
#405 in 2020 (f)
#965 in 2013 (m)</title>
<rect x="2" y="43" height="13" width="17" style="fill:rgb(200,200,200)"/>
<image x="2.5" y="43.5" href="/images/flags/24/us.png" preserveAspectRatio="xMinYMax meet" width="16" height="12"/>
<text x="153" y="55" class="svgtitle" text-anchor="end" style="fill:#000000;font-size:13px;">United States</text>
<line x1="0" y1="41" x2="155" y2="41" class="svggridline" style="stroke:rgb(200,200,200);stroke-width:1.3"/>
<g id="svgthumb_us-namepaths">
<g style="fill:none;stroke:#ff0000;stroke-width:1.3;" class="svgcurveline" id="svgthumb_us-camryn-f">
<path d=" M128.9821 39 L129.5357 38.4 L130.6429 33 L131.75 20 L132.8571 23.4 L133.9643 24.8 L135.0714 28.2 L136.1786 31 L137.2857 26 L138.3929 26.8 L139.5 25.8 L140.6071 26 L141.7143 27.4 L142.8214 27.8 L143.9286 29 L145.0357 30 L146.1429 31.6 L147.25 32.6 L148.3571 32.6 L149.4643 32.6 L150.5714 32.6 L151.6786 33 L152.7857 32.8 L153.8929 32.6 L155 32.2"/>
</g>
<g style="fill:none;stroke:#0000ff;stroke-width:1.3;" class="svgcurveline" id="svgthumb_us-camryn-m">
<path d=" M137.8393 39.4 L138.3929 39.4 L139.5 39.2 L140.6071 39 L141.7143 38.8 L142.8214 38.2 L143.9286 38.6 L145.0357 38.4 L146.1429 38.8 L147.25 39 L147.8036 39"/>
</g>
</g>
</svg>