<svg viewBox="0 0 155 58" preserveAspectRatio="none" class="svggraph" id="svgthumb_us" style="overflow:visible;width:155px;height:58px;" xmlns="http://www.w3.org/2000/svg" xlink="http://www.w3.org/1999/xlink" title="Chart for carmen">
<title>Last ranked
#433 in 2020 (f)
#852 in 1981 (m)</title>
<rect x="2" y="43" height="13" width="17" style="fill:rgb(200,200,200)"/>
<image x="2.5" y="43.5" href="/images/flags/24/us.png" preserveAspectRatio="xMinYMax meet" width="16" height="12"/>
<text x="153" y="55" class="svgtitle" text-anchor="end" style="fill:#000000;font-size:13px;">United States</text>
<line x1="0" y1="41" x2="155" y2="41" class="svggridline" style="stroke:rgb(200,200,200);stroke-width:1.3"/>
<g id="svgthumb_us-namepaths">
<g style="fill:none;stroke:#ff0000;stroke-width:1.3;" class="svgcurveline" id="svgthumb_us-carmen-f">
<path d=" M0.5536 40.2 L1.1071 39.6 L2.2143 39.8 L3.3214 39.6 L4.4286 39 L5.5357 37.6 L6.6429 39 L7.75 39.4 L8.8571 38.2 L9.9643 38.2 L11.0714 38.2 L12.1786 37.8 L13.2857 37.4 L14.3929 37.6 L15.5 36.8 L16.6071 38.6 L17.7143 37.2 L18.8214 36.8 L19.9286 36.4 L21.0357 38 L22.1429 35.2 L23.25 35 L24.3571 35.6 L25.4643 34.6 L26.5714 35.6 L27.6786 35.2 L28.7857 32.4 L29.8929 33.6 L31 34.2 L32.1071 32.4 L33.2143 32.4 L34.3214 32 L35.4286 33.2 L36.5357 31.8 L37.6429 31.6 L38.75 31.6 L39.8571 31.6 L40.9643 31 L42.0714 30.4 L43.1786 30.2 L44.2857 28.8 L45.3929 28.8 L46.5 28.4 L47.6071 26.2 L48.7143 26.4 L49.8214 26.2 L50.9286 25.4 L52.0357 24.6 L53.1429 24 L54.25 22.6 L55.3571 23.2 L56.4643 24 L57.5714 25 L58.6786 25.2 L59.7857 25.2 L60.8929 25.8 L62 25.2 L63.1071 27 L64.2143 27 L65.3214 27.4 L66.4286 27 L67.5357 25.6 L68.6429 26.8 L69.75 26.6 L70.8571 27.2 L71.9643 28 L73.0714 27.8 L74.1786 27.4 L75.2857 26 L76.3929 24.4 L77.5 24.4 L78.6071 24 L79.7143 24.2 L80.8214 23.2 L81.9286 23 L83.0357 20.6 L84.1429 19.6 L85.25 19.8 L86.3571 20.4 L87.4643 19.8 L88.5714 17.6 L89.6786 17.8 L90.7857 17.2 L91.8929 17.4 L93 16.8 L94.1071 17.6 L95.2143 16.8 L96.3214 15.6 L97.4286 14.4 L98.5357 16 L99.6429 17 L100.75 16.6 L101.8571 16.6 L102.9643 18.4 L104.0714 18.6 L105.1786 18.2 L106.2857 20.4 L107.3929 21.2 L108.5 23.6 L109.6071 22.4 L110.7143 24.6 L111.8214 24.8 L112.9286 26.6 L114.0357 27.2 L115.1429 26.6 L116.25 28.4 L117.3571 28 L118.4643 28.8 L119.5714 28.8 L120.6786 29 L121.7857 28.2 L122.8929 28.8 L124 29 L125.1071 30 L126.2143 29 L127.3214 30.6 L128.4286 32 L129.5357 30.4 L130.6429 29.4 L131.75 29.2 L132.8571 29 L133.9643 29.2 L135.0714 30.6 L136.1786 28.2 L137.2857 27.4 L138.3929 29 L139.5 28.8 L140.6071 29.2 L141.7143 28.4 L142.8214 30 L143.9286 30.6 L145.0357 31.6 L146.1429 31.2 L147.25 31.8 L148.3571 32.2 L149.4643 32.2 L150.5714 32.4 L151.6786 32.8 L152.7857 33.2 L153.8929 32.8 L155 33"/>
</g>
<g style="fill:none;stroke:#0000ff;stroke-width:1.3;" class="svgcurveline" id="svgthumb_us-carmen-m">
<path d=" M17.1607 40 L17.7143 39.8 L18.2679 40 M19.375 40 L19.9286 39.8 L21.0357 39.2 L22.1429 39.8 L23.25 39 L23.8036 40 M24.9107 40 L25.4643 39.2 L26.5714 39.2 L27.6786 39.4 L28.7857 38.2 L29.8929 38 L31 39.6 L32.1071 38 L33.2143 37 L34.3214 36.4 L35.4286 36.8 L36.5357 36.4 L37.6429 36 L38.75 36.2 L39.8571 35 L40.9643 35.6 L42.0714 35.8 L43.1786 36 L44.2857 35.6 L45.3929 35.4 L46.5 35.4 L47.6071 35.6 L48.7143 35.2 L49.8214 35.2 L50.9286 35.4 L52.0357 35.4 L53.1429 35.2 L54.25 36.2 L55.3571 36.2 L56.4643 36.4 L57.5714 36.6 L58.6786 35.8 L59.7857 36.8 L60.8929 37 L62 37 L63.1071 37 L64.2143 37.4 L65.3214 37.4 L66.4286 37.2 L67.5357 37.4 L68.6429 37.2 L69.75 37.8 L70.8571 38.2 L71.9643 38.6 L73.0714 38.4 L74.1786 38.4 L75.2857 38.4 L76.3929 38.6 L77.5 38.8 L78.6071 38.8 L79.7143 39 L80.8214 38.8 L81.9286 39 L83.0357 39.2 L84.1429 39 L85.25 38.8 L86.3571 39 L87.4643 38.8 L88.5714 39.4 L89.6786 39 L90.7857 39.2 L91.8929 39.4 L93 39.2 L94.1071 39.4 L95.2143 39.6 L96.3214 39.4 L97.4286 39.2 L98.5357 39.4 L99.6429 39.6 L100.75 39.6 L101.8571 39.6 L102.9643 39.6 L104.0714 39.8 L105.1786 39.6 L106.2857 39.8 L107.3929 39.8 L108.5 39.8 L109.0536 40.2 M110.1607 40.2 L110.7143 40 L111.8214 39.8 L112.375 40.2"/>
</g>
</g>
</svg>