<svg viewBox="0 0 155 58" preserveAspectRatio="none" class="svggraph" id="svgthumb_us" style="overflow:visible;width:155px;height:58px;" xmlns="http://www.w3.org/2000/svg" xlink="http://www.w3.org/1999/xlink" title="Chart for caroline">
<title>Last ranked
#71 in 2020 (f)
#963 in 1891 (m)</title>
<rect x="2" y="43" height="13" width="17" style="fill:rgb(200,200,200)"/>
<image x="2.5" y="43.5" href="/images/flags/24/us.png" preserveAspectRatio="xMinYMax meet" width="16" height="12"/>
<text x="153" y="55" class="svgtitle" text-anchor="end" style="fill:#000000;font-size:13px;">United States</text>
<line x1="0" y1="41" x2="155" y2="41" class="svggridline" style="stroke:rgb(200,200,200);stroke-width:1.3"/>
<g id="svgthumb_us-namepaths">
<g style="fill:none;stroke:#ff0000;stroke-width:1.3;" class="svgcurveline" id="svgthumb_us-caroline-f">
<path d="M0 9.6 L1.1071 9 L2.2143 14.7 L3.3214 14.3 L4.4286 13.4 L5.5357 12.9 L6.6429 16.9 L7.75 15.4 L8.8571 16.8 L9.9643 15.1 L11.0714 18.4 L12.1786 20.5 L13.2857 19.8 L14.3929 19.6 L15.5 21 L16.6071 21.4 L17.7143 23.7 L18.8214 22.6 L19.9286 24.9 L21.0357 25.1 L22.1429 26.7 L23.25 25 L24.3571 24.9 L25.4643 27 L26.5714 26.3 L27.6786 27.9 L28.7857 28 L29.8929 28 L31 28.3 L32.1071 29 L33.2143 27.8 L34.3214 28.6 L35.4286 27.6 L36.5357 28.7 L37.6429 28.6 L38.75 27.3 L39.8571 28.2 L40.9643 28.8 L42.0714 28.9 L43.1786 30 L44.2857 29.5 L45.3929 29.9 L46.5 30.8 L47.6071 30.6 L48.7143 31 L49.8214 31.6 L50.9286 31.1 L52.0357 31.6 L53.1429 31.1 L54.25 30.7 L55.3571 31.1 L56.4643 30.8 L57.5714 31 L58.6786 31 L59.7857 31.1 L60.8929 31.4 L62 31 L63.1071 31.1 L64.2143 31.2 L65.3214 32.1 L66.4286 31.2 L67.5357 31.6 L68.6429 31 L69.75 31.6 L70.8571 32.1 L71.9643 33.5 L73.0714 34.2 L74.1786 34.7 L75.2857 34.8 L76.3929 35.3 L77.5 36 L78.6071 36 L79.7143 36.2 L80.8214 36.4 L81.9286 37.1 L83.0357 37.3 L84.1429 37.6 L85.25 35.6 L86.3571 36.2 L87.4643 36 L88.5714 35.2 L89.6786 30.4 L90.7857 31.2 L91.8929 32.5 L93 30.2 L94.1071 31.1 L95.2143 32.2 L96.3214 32.6 L97.4286 32.7 L98.5357 33.3 L99.6429 33.5 L100.75 34.1 L101.8571 34.4 L102.9643 33.9 L104.0714 33.4 L105.1786 33.1 L106.2857 33.2 L107.3929 33.7 L108.5 33 L109.6071 33.2 L110.7143 33.6 L111.8214 33.2 L112.9286 32.5 L114.0357 32.7 L115.1429 31.9 L116.25 31.5 L117.3571 31.2 L118.4643 30.1 L119.5714 28.9 L120.6786 27.6 L121.7857 27.3 L122.8929 27 L124 25.2 L125.1071 25.4 L126.2143 23.3 L127.3214 21.2 L128.4286 17.7 L129.5357 17.7 L130.6429 18.9 L131.75 18 L132.8571 15.8 L133.9643 16.4 L135.0714 17.4 L136.1786 18.1 L137.2857 19.3 L138.3929 21.4 L139.5 22.9 L140.6071 24.9 L141.7143 24 L142.8214 23.1 L143.9286 23.9 L145.0357 23.6 L146.1429 23.4 L147.25 20.3 L148.3571 18.8 L149.4643 18.8 L150.5714 18.1 L151.6786 18.3 L152.7857 18.6 L153.8929 19.6 L155 21.9"/>
</g>
<g style="fill:none;stroke:#0000ff;stroke-width:1.3;" class="svgcurveline" id="svgthumb_us-caroline-m">
<path d=" M11.625 40.6 L12.1786 40.5 L12.7321 40.5"/>
</g>
</g>
</svg>