<svg viewBox="0 0 155 58" preserveAspectRatio="none" class="svggraph" id="svgthumb_us" style="overflow:visible;width:155px;height:58px;" xmlns="http://www.w3.org/2000/svg" xlink="http://www.w3.org/1999/xlink" title="Chart for carolina">
<title>Last ranked
#451 in 2020</title>
<rect x="2" y="43" height="13" width="17" style="fill:rgb(200,200,200)"/>
<image x="2.5" y="43.5" href="/images/flags/24/us.png" preserveAspectRatio="xMinYMax meet" width="16" height="12"/>
<text x="153" y="55" class="svgtitle" text-anchor="end" style="fill:#000000;font-size:13px;">United States</text>
<line x1="0" y1="41" x2="155" y2="41" class="svggridline" style="stroke:rgb(200,200,200);stroke-width:1.3"/>
<g id="svgthumb_us-namepaths">
<g style="fill:none;stroke:#ff0000;stroke-width:1.3;" class="svgcurveline" id="svgthumb_us-carolina-f">
<path d="M0 34.5 L1.1071 36 L2.2143 36.5 L3.3214 32.5 L4.4286 36.5 L5.5357 34.5 L6.6429 33 L7.75 35 L8.8571 34.5 L9.9643 34 L11.0714 35.5 L12.1786 35.5 L13.2857 35 L14.3929 35.5 L15.5 34 L16.6071 34 L17.7143 35.5 L18.8214 37.5 L19.9286 36.5 L21.0357 38 L22.1429 34.5 L23.25 33.5 L24.3571 35.5 L25.4643 35 L26.5714 33.5 L27.6786 36 L28.7857 34 L29.8929 36 L31 34.5 L32.1071 35.5 L33.2143 36 L34.3214 34.5 L35.4286 35.5 L36.5357 36.5 L37.6429 36 L38.75 36 L39.8571 36 L40.9643 36.5 L42.0714 37 L43.1786 36.5 L44.2857 35.5 L45.3929 35.5 L46.5 36.5 L47.6071 36 L48.7143 35.5 L49.8214 35.5 L50.9286 36 L52.0357 36 L53.1429 35 L54.25 34.5 L55.3571 35.5 L56.4643 36 L57.5714 36 L58.6786 35.5 L59.7857 36 L60.8929 36.5 L62 36.5 L63.1071 36 L64.2143 36.5 L65.3214 37 L66.4286 37.5 L67.5357 37 L68.6429 38 L69.75 36.5 L70.8571 36.5 L71.9643 37 L73.0714 37.5 L74.1786 37.5 L75.2857 38 L76.3929 37.5 L77.5 38 L78.6071 38 L79.7143 38 L80.8214 37.5 L81.9286 38.5 L83.0357 38.5 L84.1429 38.5 L85.25 38 L85.8036 38.5 M88.0179 38.5 L88.5714 37.5 L89.6786 37 L90.7857 37 L91.8929 36.5 L93 35 L94.1071 35.5 L95.2143 35.5 L96.3214 36.5 L97.4286 35.5 L98.5357 36 L99.6429 35 L100.75 35.5 L101.8571 36 L102.9643 33.5 L104.0714 34.5 L105.1786 33 L106.2857 33 L107.3929 33 L108.5 29 L109.6071 28.5 L110.7143 28.5 L111.8214 29 L112.9286 30 L114.0357 29 L115.1429 30.5 L116.25 30 L117.3571 28.5 L118.4643 28 L119.5714 27.5 L120.6786 21 L121.7857 19 L122.8929 20 L124 18 L125.1071 17 L126.2143 14 L127.3214 15.5 L128.4286 13.5 L129.5357 13 L130.6429 15 L131.75 14.5 L132.8571 11 L133.9643 10.5 L135.0714 14 L136.1786 10.5 L137.2857 9.5 L138.3929 13 L139.5 12.5 L140.6071 17 L141.7143 19 L142.8214 20.5 L143.9286 20 L145.0357 22 L146.1429 22.5 L147.25 22.5 L148.3571 21 L149.4643 22 L150.5714 21 L151.6786 22 L152.7857 21 L153.8929 20.5 L155 21.5"/>
</g>
</g>
</svg>