<svg viewBox="0 0 155 58" preserveAspectRatio="none" class="svggraph" id="svgthumb_us" style="overflow:visible;width:155px;height:58px;" xmlns="http://www.w3.org/2000/svg" xlink="http://www.w3.org/1999/xlink" title="Chart for cassidy">
<title>Last ranked
#405 in 2020 (f)
#987 in 1992 (m)</title>
<rect x="2" y="43" height="13" width="17" style="fill:rgb(200,200,200)"/>
<image x="2.5" y="43.5" href="/images/flags/24/us.png" preserveAspectRatio="xMinYMax meet" width="16" height="12"/>
<text x="153" y="55" class="svgtitle" text-anchor="end" style="fill:#000000;font-size:13px;">United States</text>
<line x1="0" y1="41" x2="155" y2="41" class="svggridline" style="stroke:rgb(200,200,200);stroke-width:1.3"/>
<g id="svgthumb_us-namepaths">
<g style="fill:none;stroke:#ff0000;stroke-width:1.3;" class="svgcurveline" id="svgthumb_us-cassidy-f">
<path d=" M111.2679 39.4 L111.8214 39.2 L112.9286 38.6 L114.0357 37 L115.1429 36.4 L116.25 36.4 L117.3571 37 L118.4643 36.8 L119.5714 36.8 L120.6786 36.2 L121.7857 36 L122.8929 35 L124 33.8 L125.1071 30.6 L126.2143 17.4 L127.3214 9.4 L128.4286 11.4 L129.5357 8 L130.6429 9.6 L131.75 6.2 L132.8571 9.2 L133.9643 10.4 L135.0714 14.4 L136.1786 18.8 L137.2857 21.2 L138.3929 23 L139.5 24 L140.6071 25.4 L141.7143 26.8 L142.8214 27.6 L143.9286 27.8 L145.0357 29.4 L146.1429 29.2 L147.25 27.8 L148.3571 27.6 L149.4643 28.4 L150.5714 29.4 L151.6786 30.4 L152.7857 31.6 L153.8929 31.6 L155 32.2"/>
</g>
<g style="fill:none;stroke:#0000ff;stroke-width:1.3;" class="svgcurveline" id="svgthumb_us-cassidy-m">
<path d=" M113.4821 40.2 L114.0357 39.2 L115.1429 39.2 L116.25 39.4 L117.3571 40 L118.4643 39.8 L119.5714 39.8 L120.6786 39.8 L121.7857 39.8 L122.3393 40 M123.4464 40 L124 39.8 L124.5536 39.8"/>
</g>
</g>
</svg>