<svg viewBox="0 0 155 58" preserveAspectRatio="none" class="svggraph" id="svgthumb_us" style="overflow:visible;width:155px;height:58px;" xmlns="http://www.w3.org/2000/svg" xlink="http://www.w3.org/1999/xlink" title="Chart for catalina">
<title>Last ranked
#178 in 2020</title>
<rect x="2" y="43" height="13" width="17" style="fill:rgb(200,200,200)"/>
<image x="2.5" y="43.5" href="/images/flags/24/us.png" preserveAspectRatio="xMinYMax meet" width="16" height="12"/>
<text x="153" y="55" class="svgtitle" text-anchor="end" style="fill:#000000;font-size:13px;">United States</text>
<line x1="0" y1="41" x2="155" y2="41" class="svggridline" style="stroke:rgb(200,200,200);stroke-width:1.3"/>
<g id="svgthumb_us-namepaths">
<g style="fill:none;stroke:#ff0000;stroke-width:1.3;" class="svgcurveline" id="svgthumb_us-catalina-f">
<path d=" M43.7321 40.2 L44.2857 40 L45.3929 40 L46.5 39.8 L47.6071 40 L48.7143 39.4 L49.8214 39.4 L50.9286 39.6 L52.0357 39.8 L53.1429 39.4 L54.25 39.4 L55.3571 39 L56.4643 39.8 L57.5714 39.8 L58.6786 39.8 L59.7857 39.8 L60.8929 40 L61.4464 40.2 M120.125 39.2 L120.6786 38.8 L121.7857 39 L122.8929 38.8 L124 38.8 L125.1071 38.8 L126.2143 38.6 L127.3214 39 L128.4286 38.6 L129.5357 38.6 L130.6429 38.8 L131.75 38.4 L132.8571 38 L133.9643 37.8 L135.0714 38 L136.1786 37.8 L137.2857 37.6 L138.3929 36.8 L139.5 37 L140.6071 37.2 L141.7143 37 L142.8214 36 L143.9286 36.8 L145.0357 36.4 L146.1429 34.4 L147.25 32.8 L148.3571 32 L149.4643 30.8 L150.5714 30.4 L151.6786 28 L152.7857 26.4 L153.8929 23.8 L155 23"/>
</g>
</g>
</svg>