<svg viewBox="0 0 155 58" preserveAspectRatio="none" class="svggraph" id="svgthumb_us" style="overflow:visible;width:155px;height:58px;" xmlns="http://www.w3.org/2000/svg" xlink="http://www.w3.org/1999/xlink" title="Chart for catherine">
<title>Last ranked
#267 in 2020 (f)
#877 in 1908 (m)</title>
<rect x="2" y="43" height="13" width="17" style="fill:rgb(200,200,200)"/>
<image x="2.5" y="43.5" href="/images/flags/24/us.png" preserveAspectRatio="xMinYMax meet" width="16" height="12"/>
<text x="153" y="55" class="svgtitle" text-anchor="end" style="fill:#000000;font-size:13px;">United States</text>
<line x1="0" y1="41" x2="155" y2="41" class="svggridline" style="stroke:rgb(200,200,200);stroke-width:1.3"/>
<g id="svgthumb_us-namepaths">
<g style="fill:none;stroke:#ff0000;stroke-width:1.3;" class="svgcurveline" id="svgthumb_us-catherine-f">
<path d="M0 9.6667 L1.1071 12.4667 L2.2143 13.0889 L3.3214 9.4444 L4.4286 12.7778 L5.5357 14.5111 L6.6429 14.5111 L7.75 13.3556 L8.8571 12.5556 L9.9643 12.8667 L11.0714 13.8444 L12.1786 13.4444 L13.2857 14.6444 L14.3929 14.6444 L15.5 14.0667 L16.6071 13.7556 L17.7143 12.8667 L18.8214 13.9333 L19.9286 13.3556 L21.0357 11.7556 L22.1429 11.8889 L23.25 13.0444 L24.3571 10.9556 L25.4643 10.3778 L26.5714 10.8667 L27.6786 9.4889 L28.7857 9.4 L29.8929 8.6444 L31 6.5111 L32.1071 6.0222 L33.2143 7.5333 L34.3214 5.1333 L35.4286 5.6667 L36.5357 5 L37.6429 4.1111 L38.75 5.4889 L39.8571 6.3333 L40.9643 6.6444 L42.0714 8.3333 L43.1786 9.4444 L44.2857 9.2667 L45.3929 10.1556 L46.5 10.6 L47.6071 11.0444 L48.7143 12.3333 L49.8214 13.3111 L50.9286 14.0222 L52.0357 14.9111 L53.1429 15.3111 L54.25 16.9111 L55.3571 17 L56.4643 18.2889 L57.5714 19.1333 L58.6786 20.1556 L59.7857 20.7333 L60.8929 21.8 L62 22.2889 L63.1071 23 L64.2143 23.4 L65.3214 23.0444 L66.4286 23.7556 L67.5357 23.5778 L68.6429 24.1556 L69.75 24.2 L70.8571 23.8889 L71.9643 24.3778 L73.0714 23.4444 L74.1786 21.7111 L75.2857 19.9778 L76.3929 17.8889 L77.5 16.6 L78.6071 15.5778 L79.7143 15.1778 L80.8214 16.0222 L81.9286 16.2889 L83.0357 15.2222 L84.1429 14.9556 L85.25 17.3556 L86.3571 17.8444 L87.4643 19.5778 L88.5714 20.6 L89.6786 21.2222 L90.7857 21.9333 L91.8929 22.4667 L93 22.2889 L94.1071 23.4 L95.2143 23.3556 L96.3214 24.5556 L97.4286 25.0444 L98.5357 25.6222 L99.6429 26.4222 L100.75 27.4889 L101.8571 28.0667 L102.9643 28.8222 L104.0714 29.1333 L105.1786 29.8 L106.2857 30.3333 L107.3929 30.6 L108.5 30.2889 L109.6071 31 L110.7143 30.8222 L111.8214 30.9111 L112.9286 30.9556 L114.0357 30.4667 L115.1429 30.5556 L116.25 30.6444 L117.3571 30.7778 L118.4643 31.2667 L119.5714 30.6 L120.6786 30.8222 L121.7857 30.4222 L122.8929 30.4667 L124 30.9556 L125.1071 30.9111 L126.2143 31.6667 L127.3214 32.0667 L128.4286 32.3333 L129.5357 32.6444 L130.6429 33.3111 L131.75 33.2222 L132.8571 32.5111 L133.9643 32.6444 L135.0714 33.5778 L136.1786 33.8444 L137.2857 33.9778 L138.3929 34.4667 L139.5 35.0444 L140.6071 35.8 L141.7143 36.0222 L142.8214 36.8667 L143.9286 37.3556 L145.0357 36.5556 L146.1429 36.6 L147.25 36.6889 L148.3571 36.6 L149.4643 36.8667 L150.5714 37.1778 L151.6786 37.2667 L152.7857 37.4 L153.8929 37.8444 L155 38.1111"/>
</g>
<g style="fill:none;stroke:#0000ff;stroke-width:1.3;" class="svgcurveline" id="svgthumb_us-catherine-m">
<path d=" M3.875 40.8222 L4.4286 40.7333 L4.9821 40.8222 M7.1964 40.8222 L7.75 40.7778 L8.8571 40.7778 L9.4107 40.8222 M11.625 40.8222 L12.1786 40.7778 L12.7321 40.7778 M26.0179 40.7778 L26.5714 40.7333 L27.125 40.7333 M30.4464 40.7778 L31 40.7333 L31.5536 40.7333"/>
</g>
</g>
</svg>