<svg viewBox="0 0 155 58" preserveAspectRatio="none" class="svggraph" id="svgthumb_us" style="overflow:visible;width:155px;height:58px;" xmlns="http://www.w3.org/2000/svg" xlink="http://www.w3.org/1999/xlink" title="Chart for cecilia">
<title>Last ranked
#147 in 2020</title>
<rect x="2" y="43" height="13" width="17" style="fill:rgb(200,200,200)"/>
<image x="2.5" y="43.5" href="/images/flags/24/us.png" preserveAspectRatio="xMinYMax meet" width="16" height="12"/>
<text x="153" y="55" class="svgtitle" text-anchor="end" style="fill:#000000;font-size:13px;">United States</text>
<line x1="0" y1="41" x2="155" y2="41" class="svggridline" style="stroke:rgb(200,200,200);stroke-width:1.3"/>
<g id="svgthumb_us-namepaths">
<g style="fill:none;stroke:#ff0000;stroke-width:1.3;" class="svgcurveline" id="svgthumb_us-cecilia-f">
<path d="M0 32 L1.1071 33.2 L2.2143 34.6 L3.3214 34.6 L4.4286 31.8 L5.5357 31 L6.6429 32.2 L7.75 30.4 L8.8571 30.8 L9.9643 31.6 L11.0714 32 L12.1786 28.6 L13.2857 28.8 L14.3929 29.8 L15.5 28.8 L16.6071 29.8 L17.7143 27.6 L18.8214 28.2 L19.9286 25.4 L21.0357 24.4 L22.1429 25.4 L23.25 25.6 L24.3571 27 L25.4643 25.4 L26.5714 24 L27.6786 25.8 L28.7857 27 L29.8929 27.2 L31 26.2 L32.1071 27 L33.2143 27.4 L34.3214 25.6 L35.4286 25.6 L36.5357 26.2 L37.6429 27.8 L38.75 26.8 L39.8571 28.4 L40.9643 28.4 L42.0714 28.4 L43.1786 28.2 L44.2857 28.8 L45.3929 29.2 L46.5 29.2 L47.6071 29.2 L48.7143 29.2 L49.8214 29.8 L50.9286 29.4 L52.0357 30.4 L53.1429 31.4 L54.25 32.4 L55.3571 31.2 L56.4643 32.6 L57.5714 32.6 L58.6786 32.8 L59.7857 33 L60.8929 32 L62 31.6 L63.1071 30.8 L64.2143 31.4 L65.3214 31 L66.4286 30.4 L67.5357 30.2 L68.6429 29 L69.75 29.2 L70.8571 30.6 L71.9643 31.2 L73.0714 31 L74.1786 30.4 L75.2857 30 L76.3929 30.2 L77.5 30.6 L78.6071 30.6 L79.7143 30.6 L80.8214 30.2 L81.9286 31.2 L83.0357 31 L84.1429 31.4 L85.25 31 L86.3571 31.2 L87.4643 31 L88.5714 31 L89.6786 31.8 L90.7857 30.6 L91.8929 32.2 L93 32.4 L94.1071 33 L95.2143 33.6 L96.3214 33.8 L97.4286 34.6 L98.5357 34.8 L99.6429 34.2 L100.75 34.2 L101.8571 34 L102.9643 34.6 L104.0714 34.2 L105.1786 34.4 L106.2857 34.4 L107.3929 34.6 L108.5 34.2 L109.6071 33.6 L110.7143 33.6 L111.8214 33.4 L112.9286 33.6 L114.0357 33.8 L115.1429 33 L116.25 33.8 L117.3571 33.6 L118.4643 33 L119.5714 33.4 L120.6786 32.8 L121.7857 32.8 L122.8929 31.6 L124 30.8 L125.1071 30.8 L126.2143 31 L127.3214 29.2 L128.4286 29.8 L129.5357 31 L130.6429 30.2 L131.75 29.6 L132.8571 29.6 L133.9643 29.2 L135.0714 29.2 L136.1786 29.4 L137.2857 29.4 L138.3929 29.2 L139.5 29 L140.6071 29.2 L141.7143 29 L142.8214 28.8 L143.9286 28.8 L145.0357 27.4 L146.1429 26 L147.25 26.2 L148.3571 24.2 L149.4643 22.8 L150.5714 22.2 L151.6786 21.8 L152.7857 21.6 L153.8929 20.6 L155 20"/>
</g>
</g>
</svg>