<svg viewBox="0 0 155 58" preserveAspectRatio="none" class="svggraph" id="svgthumb_us" style="overflow:visible;width:155px;height:58px;" xmlns="http://www.w3.org/2000/svg" xlink="http://www.w3.org/1999/xlink" title="Chart for celeste">
<title>Last ranked
#353 in 2020</title>
<rect x="2" y="43" height="13" width="17" style="fill:rgb(200,200,200)"/>
<image x="2.5" y="43.5" href="/images/flags/24/us.png" preserveAspectRatio="xMinYMax meet" width="16" height="12"/>
<text x="153" y="55" class="svgtitle" text-anchor="end" style="fill:#000000;font-size:13px;">United States</text>
<line x1="0" y1="41" x2="155" y2="41" class="svggridline" style="stroke:rgb(200,200,200);stroke-width:1.3"/>
<g id="svgthumb_us-namepaths">
<g style="fill:none;stroke:#ff0000;stroke-width:1.3;" class="svgcurveline" id="svgthumb_us-celeste-f">
<path d="M0 39.4 L1.1071 35.4 L2.2143 37.8 L3.3214 38.2 L4.4286 36.6 L5.5357 36.6 L6.6429 36.2 L7.75 35.8 L8.8571 35.4 L9.9643 38.6 L11.0714 37 L12.1786 36.6 L13.2857 36.2 L14.3929 36.2 L15.5 36.6 L16.6071 35.8 L17.7143 36.2 L18.8214 35 L19.9286 35 L21.0357 35.8 L22.1429 35 L23.25 35 L24.3571 36.2 L25.4643 35.8 L26.5714 36.2 L27.6786 34.6 L28.7857 34.6 L29.8929 35 L31 36.2 L32.1071 35.8 L33.2143 34.2 L34.3214 35.4 L35.4286 35 L36.5357 35.8 L37.6429 36.2 L38.75 35.8 L39.8571 35.4 L40.9643 35.4 L42.0714 35.8 L43.1786 36.2 L44.2857 36.2 L45.3929 35.8 L46.5 37.4 L47.6071 36.2 L48.7143 37 L49.8214 36.6 L50.9286 37.4 L52.0357 37.4 L53.1429 36.6 L54.25 37 L55.3571 37.8 L56.4643 37.4 L57.5714 36.6 L58.6786 37 L59.7857 36.6 L60.8929 37.4 L62 37.4 L63.1071 36.2 L64.2143 36.6 L65.3214 37 L66.4286 36.2 L67.5357 35.8 L68.6429 36.6 L69.75 36.2 L70.8571 36.6 L71.9643 35.8 L73.0714 35.4 L74.1786 34.2 L75.2857 34.2 L76.3929 31.8 L77.5 29 L78.6071 28.2 L79.7143 27.8 L80.8214 27.8 L81.9286 28.6 L83.0357 27 L84.1429 27 L85.25 27.8 L86.3571 25.8 L87.4643 26.6 L88.5714 26.2 L89.6786 24.6 L90.7857 25 L91.8929 25 L93 27 L94.1071 26.6 L95.2143 26.2 L96.3214 26.6 L97.4286 27.8 L98.5357 27.4 L99.6429 28.2 L100.75 26.2 L101.8571 27.4 L102.9643 25.8 L104.0714 26.2 L105.1786 27.4 L106.2857 27 L107.3929 29.4 L108.5 29 L109.6071 29 L110.7143 27.8 L111.8214 27.8 L112.9286 27.8 L114.0357 29.4 L115.1429 29.8 L116.25 30.2 L117.3571 30.6 L118.4643 31 L119.5714 31.4 L120.6786 29 L121.7857 28.2 L122.8929 27.4 L124 27.8 L125.1071 26.2 L126.2143 19 L127.3214 17 L128.4286 17 L129.5357 14.6 L130.6429 15.8 L131.75 16.2 L132.8571 17.8 L133.9643 19 L135.0714 20.6 L136.1786 20.2 L137.2857 8.6 L138.3929 17.4 L139.5 21.8 L140.6071 23.8 L141.7143 25.4 L142.8214 27.8 L143.9286 27.4 L145.0357 27 L146.1429 27.4 L147.25 27.4 L148.3571 27 L149.4643 27.8 L150.5714 27.8 L151.6786 26.6 L152.7857 25.4 L153.8929 22.6 L155 21.4"/>
</g>
</g>
</svg>