<svg viewBox="0 0 155 58" preserveAspectRatio="none" class="svggraph" id="svgthumb_us" style="overflow:visible;width:155px;height:58px;" xmlns="http://www.w3.org/2000/svg" xlink="http://www.w3.org/1999/xlink" title="Chart for celine">
<title>Last ranked
#458 in 2020</title>
<rect x="2" y="43" height="13" width="17" style="fill:rgb(200,200,200)"/>
<image x="2.5" y="43.5" href="/images/flags/24/us.png" preserveAspectRatio="xMinYMax meet" width="16" height="12"/>
<text x="153" y="55" class="svgtitle" text-anchor="end" style="fill:#000000;font-size:13px;">United States</text>
<line x1="0" y1="41" x2="155" y2="41" class="svggridline" style="stroke:rgb(200,200,200);stroke-width:1.3"/>
<g id="svgthumb_us-namepaths">
<g style="fill:none;stroke:#ff0000;stroke-width:1.3;" class="svgcurveline" id="svgthumb_us-celine-f">
<path d=" M55.9107 38.3333 L56.4643 38.3333 L57.0179 38.3333 M125.6607 35 L126.2143 32.3333 L127.3214 33 L128.4286 31.6667 L129.5357 25.6667 L130.6429 21.6667 L131.75 27.6667 L132.8571 29 L133.9643 31.6667 L135.0714 31 L136.1786 31 L137.2857 30.3333 L138.3929 32.3333 L138.9464 33 M140.0536 33 L140.6071 32.3333 L141.1607 32.3333 M145.5893 32.3333 L146.1429 31.6667 L147.25 29 L148.3571 27.6667 L149.4643 29.6667 L150.5714 24.3333 L151.6786 21 L152.7857 19 L153.8929 17.6667 L155 15.6667"/>
</g>
</g>
</svg>