<svg viewBox="0 0 155 58" preserveAspectRatio="none" class="svggraph" id="svgthumb_us" style="overflow:visible;width:155px;height:58px;" xmlns="http://www.w3.org/2000/svg" xlink="http://www.w3.org/1999/xlink" title="Chart for charlie">
<title>Last ranked
#204 in 2020 (m)
#122 in 2020 (f)</title>
<rect x="2" y="43" height="13" width="17" style="fill:rgb(200,200,200)"/>
<image x="2.5" y="43.5" href="/images/flags/24/us.png" preserveAspectRatio="xMinYMax meet" width="16" height="12"/>
<text x="153" y="55" class="svgtitle" text-anchor="end" style="fill:#000000;font-size:13px;">United States</text>
<line x1="0" y1="41" x2="155" y2="41" class="svggridline" style="stroke:rgb(200,200,200);stroke-width:1.3"/>
<g id="svgthumb_us-namepaths">
<g style="fill:none;stroke:#0000ff;stroke-width:1.3;" class="svgcurveline" id="svgthumb_us-charlie-m">
<path d="M0 10.15 L1.1071 10.15 L2.2143 10.15 L3.3214 12.4 L4.4286 10.6 L5.5357 10.6 L6.6429 10.65 L7.75 11.65 L8.8571 10.35 L9.9643 12.25 L11.0714 7.7 L12.1786 8.65 L13.2857 12.05 L14.3929 12.45 L15.5 12.8 L16.6071 10.7 L17.7143 13.35 L18.8214 11.7 L19.9286 13.45 L21.0357 11.55 L22.1429 6.35 L23.25 12.7 L24.3571 12.35 L25.4643 12.45 L26.5714 14.3 L27.6786 13.05 L28.7857 15.2 L29.8929 16 L31 18.75 L32.1071 17.45 L33.2143 14.45 L34.3214 20.75 L35.4286 25 L36.5357 25.9 L37.6429 27.05 L38.75 28.55 L39.8571 27.9 L40.9643 27.8 L42.0714 27.9 L43.1786 26.75 L44.2857 28.35 L45.3929 29.7 L46.5 29.2 L47.6071 30.1 L48.7143 30.3 L49.8214 29.8 L50.9286 30.3 L52.0357 30.2 L53.1429 30.2 L54.25 31.15 L55.3571 31.65 L56.4643 31.75 L57.5714 31.1 L58.6786 31.3 L59.7857 32.1 L60.8929 32 L62 32.35 L63.1071 32.95 L64.2143 33.1 L65.3214 33.3 L66.4286 33.55 L67.5357 34 L68.6429 34.35 L69.75 34.7 L70.8571 34.25 L71.9643 34.7 L73.0714 35.6 L74.1786 35.85 L75.2857 35.65 L76.3929 35.9 L77.5 36.4 L78.6071 36.6 L79.7143 36.8 L80.8214 37.15 L81.9286 37.5 L83.0357 37.55 L84.1429 37.45 L85.25 37.7 L86.3571 37.7 L87.4643 37.75 L88.5714 38.15 L89.6786 38.15 L90.7857 38.1 L91.8929 38.2 L93 38.35 L94.1071 38.45 L95.2143 38.7 L96.3214 38.75 L97.4286 38.9 L98.5357 38.9 L99.6429 39 L100.75 39.1 L101.8571 39.1 L102.9643 39.1 L104.0714 39.3 L105.1786 39.25 L106.2857 39.25 L107.3929 39.2 L108.5 39.05 L109.6071 39.05 L110.7143 39.4 L111.8214 39.35 L112.9286 39.65 L114.0357 39.5 L115.1429 39.55 L116.25 39.6 L117.3571 39.6 L118.4643 39.65 L119.5714 39.75 L120.6786 39.75 L121.7857 39.75 L122.8929 39.8 L124 39.85 L125.1071 39.95 L126.2143 39.9 L127.3214 39.75 L128.4286 39.85 L129.5357 39.85 L130.6429 39.8 L131.75 39.65 L132.8571 39.75 L133.9643 39.65 L135.0714 39.55 L136.1786 39.3 L137.2857 39.1 L138.3929 38.8 L139.5 38.9 L140.6071 38.85 L141.7143 38.5 L142.8214 38.05 L143.9286 37.5 L145.0357 37.25 L146.1429 37.2 L147.25 37.15 L148.3571 36.85 L149.4643 36.9 L150.5714 36.75 L151.6786 36.5 L152.7857 36.55 L153.8929 36.2 L155 35.95"/>
</g>
<g style="fill:none;stroke:#ff0000;stroke-width:1.3;" class="svgcurveline" id="svgthumb_us-charlie-f">
<path d="M0 40.8 L1.1071 40.75 L2.2143 40.75 L3.3214 40.6 L4.4286 40.75 L5.5357 40.7 L6.6429 40.65 L7.75 40.65 L8.8571 40.65 L9.9643 40.7 L11.0714 40.7 L12.1786 40.6 L13.2857 40.6 L14.3929 40.8 L15.5 40.65 L16.6071 40.65 L17.7143 40.7 L18.8214 40.55 L19.9286 40.6 L21.0357 40.35 L22.1429 40.6 L23.25 40.45 L24.3571 40.4 L25.4643 40.35 L26.5714 40.5 L27.6786 40.35 L28.7857 40.55 L29.8929 40.35 L31 40.4 L32.1071 40.45 L33.2143 40.25 L34.3214 40.5 L35.4286 40.35 L36.5357 40.4 L37.6429 40.35 L38.75 40.4 L39.8571 40.45 L40.9643 40.35 L42.0714 40.25 L43.1786 40.15 L44.2857 40.2 L45.3929 40.45 L46.5 40.25 L47.6071 40.25 L48.7143 40.3 L49.8214 40.3 L50.9286 40.2 L52.0357 40.2 L53.1429 40.2 L54.25 40.2 L55.3571 40.25 L56.4643 40.3 L57.5714 40.25 L58.6786 40.25 L59.7857 40.4 L60.8929 40.4 L62 40.4 L63.1071 40.25 L64.2143 40.4 L65.3214 40.4 L66.4286 40.45 L67.5357 40.55 L68.6429 40.6 L69.75 40.5 L70.8571 40.5 L71.9643 40.6 L73.0714 40.65 L74.1786 40.7 L75.2857 40.7 L76.3929 40.65 L77.5 40.7 L78.6071 40.7 L79.1607 40.75 M137.8393 40.4 L138.3929 40.35 L139.5 40.15 L140.6071 40.15 L141.7143 40.05 L142.8214 39.8 L143.9286 39.3 L145.0357 38.8 L146.1429 38.3 L147.25 37.55 L148.3571 37.3 L149.4643 37 L150.5714 36.45 L151.6786 35.95 L152.7857 36.05 L153.8929 35.3 L155 34.65"/>
</g>
</g>
</svg>