<svg viewBox="0 0 155 58" preserveAspectRatio="none" class="svggraph" id="svgthumb_us" style="overflow:visible;width:155px;height:58px;" xmlns="http://www.w3.org/2000/svg" xlink="http://www.w3.org/1999/xlink" title="Chart for charlotte">
<title>Last ranked
#4 in 2020</title>
<rect x="2" y="43" height="13" width="17" style="fill:rgb(200,200,200)"/>
<image x="2.5" y="43.5" href="/images/flags/24/us.png" preserveAspectRatio="xMinYMax meet" width="16" height="12"/>
<text x="153" y="55" class="svgtitle" text-anchor="end" style="fill:#000000;font-size:13px;">United States</text>
<line x1="0" y1="41" x2="155" y2="41" class="svggridline" style="stroke:rgb(200,200,200);stroke-width:1.3"/>
<g id="svgthumb_us-namepaths">
<g style="fill:none;stroke:#ff0000;stroke-width:1.3;" class="svgcurveline" id="svgthumb_us-charlotte-f">
<path d="M0 28.85 L1.1071 29.5 L2.2143 29.9 L3.3214 28.9 L4.4286 28.5 L5.5357 29.85 L6.6429 29.05 L7.75 29.7 L8.8571 28.75 L9.9643 29 L11.0714 30.65 L12.1786 31.15 L13.2857 30.2 L14.3929 30.45 L15.5 30.75 L16.6071 31.45 L17.7143 31.25 L18.8214 31.1 L19.9286 30.6 L21.0357 31 L22.1429 31.55 L23.25 31.1 L24.3571 31.65 L25.4643 31.95 L26.5714 31.55 L27.6786 31.1 L28.7857 31.15 L29.8929 31.1 L31 30.2 L32.1071 29.6 L33.2143 30.3 L34.3214 30.15 L35.4286 29.3 L36.5357 28.75 L37.6429 28.4 L38.75 27.55 L39.8571 27.2 L40.9643 26.65 L42.0714 26.95 L43.1786 26.75 L44.2857 26.45 L45.3929 27 L46.5 26.65 L47.6071 26.65 L48.7143 27.05 L49.8214 26.95 L50.9286 26.75 L52.0357 26.15 L53.1429 26.45 L54.25 25.7 L55.3571 26.4 L56.4643 25.6 L57.5714 25.8 L58.6786 26.1 L59.7857 25.15 L60.8929 25.05 L62 24.5 L63.1071 24.95 L64.2143 25.1 L65.3214 24.5 L66.4286 22.85 L67.5357 22.7 L68.6429 22.95 L69.75 21.9 L70.8571 22.95 L71.9643 24.2 L73.0714 25.6 L74.1786 26.2 L75.2857 26.2 L76.3929 26.35 L77.5 27.55 L78.6071 28.4 L79.7143 29.95 L80.8214 31.1 L81.9286 31.55 L83.0357 32.7 L84.1429 33.05 L85.25 33.25 L86.3571 33.7 L87.4643 33.85 L88.5714 34.3 L89.6786 33.95 L90.7857 34.4 L91.8929 34.45 L93 34.8 L94.1071 34.25 L95.2143 34.45 L96.3214 35.1 L97.4286 35.15 L98.5357 35.25 L99.6429 35.55 L100.75 36 L101.8571 36.25 L102.9643 36.7 L104.0714 37 L105.1786 37.55 L106.2857 37.95 L107.3929 38.15 L108.5 38.5 L109.6071 38.5 L110.7143 38.6 L111.8214 38.65 L112.9286 38.8 L114.0357 38.65 L115.1429 38.8 L116.25 38.45 L117.3571 38.65 L118.4643 38.8 L119.5714 38.75 L120.6786 38.75 L121.7857 38.65 L122.8929 38.6 L124 38.6 L125.1071 38.6 L126.2143 38.6 L127.3214 38.4 L128.4286 38.55 L129.5357 38.5 L130.6429 38.45 L131.75 38.45 L132.8571 38.25 L133.9643 37.5 L135.0714 36.95 L136.1786 36.6 L137.2857 36.05 L138.3929 35 L139.5 34.35 L140.6071 33.15 L141.7143 32.2 L142.8214 30.65 L143.9286 27.35 L145.0357 24.4 L146.1429 21.7 L147.25 16.85 L148.3571 15.1 L149.4643 11.75 L150.5714 7.1 L151.6786 6.65 L152.7857 5.95 L153.8929 4.8 L155 3.85"/>
</g>
</g>
</svg>