<svg viewBox="0 0 155 58" preserveAspectRatio="none" class="svggraph" id="svgthumb_us" style="overflow:visible;width:155px;height:58px;" xmlns="http://www.w3.org/2000/svg" xlink="http://www.w3.org/1999/xlink" title="Chart for chloe">
<title>Last ranked
#26 in 2020</title>
<rect x="2" y="43" height="13" width="17" style="fill:rgb(200,200,200)"/>
<image x="2.5" y="43.5" href="/images/flags/24/us.png" preserveAspectRatio="xMinYMax meet" width="16" height="12"/>
<text x="153" y="55" class="svgtitle" text-anchor="end" style="fill:#000000;font-size:13px;">United States</text>
<line x1="0" y1="41" x2="155" y2="41" class="svggridline" style="stroke:rgb(200,200,200);stroke-width:1.3"/>
<g id="svgthumb_us-namepaths">
<g style="fill:none;stroke:#ff0000;stroke-width:1.3;" class="svgcurveline" id="svgthumb_us-chloe-f">
<path d="M0 39.8571 L1.1071 40.2 L2.2143 39.3429 L3.3214 40.0857 L4.4286 39.5143 L5.5357 39.6286 L6.6429 39.7429 L7.75 39.5143 L8.8571 39.1143 L9.9643 39.0571 L11.0714 39.2857 L12.1786 39.6286 L13.2857 39.0571 L14.3929 39.0571 L15.5 39.4 L16.6071 39.2857 L17.7143 39.8 L18.8214 39.8571 L19.9286 39.6286 L21.0357 39.7429 L22.1429 39.6857 L23.25 40.1429 L24.3571 40.1429 L25.4643 39.8571 L26.5714 39.9714 L27.6786 40.2 L28.7857 40.0286 L29.8929 40.2571 L31 40.3143 L32.1071 40.3714 L33.2143 40.3143 L34.3214 40.0857 L35.4286 40.3143 L36.5357 40.3714 L37.6429 40.4857 L38.75 40.3143 L39.8571 40.3143 L40.9643 40.4857 L42.0714 40.5429 L43.1786 40.6571 L44.2857 40.5429 L45.3929 40.6 L46.5 40.6571 L47.6071 40.6571 L48.7143 40.6571 L49.8214 40.7143 L50.9286 40.7143 L52.0357 40.7143 L53.1429 40.7143 L54.25 40.6571 L55.3571 40.5429 L56.4643 40.7143 L57.5714 40.6 L58.6786 40.6 L59.7857 40.6 L60.8929 40.6 L62 40.5429 L63.1071 40.5429 L64.2143 40.6 L65.3214 40.6571 L66.4286 40.6571 L67.5357 40.6571 L68.6429 40.7143 L69.75 40.7143 L70.3036 40.7714 M112.375 40.5429 L112.9286 40.4286 L114.0357 40.4286 L115.1429 40.0286 L116.25 39.9143 L117.3571 39.5714 L118.4643 39.4571 L119.5714 39.5714 L120.6786 38.5429 L121.7857 37.1714 L122.8929 36.3143 L124 35.6286 L125.1071 35.3429 L126.2143 34.8857 L127.3214 34.0286 L128.4286 32.7143 L129.5357 31.9714 L130.6429 29.8 L131.75 26.4286 L132.8571 20.6571 L133.9643 17.4 L135.0714 15.2286 L136.1786 15.1143 L137.2857 16.2571 L138.3929 13.9714 L139.5 12.5429 L140.6071 11.9714 L141.7143 8.5429 L142.8214 7.3429 L143.9286 6.7143 L145.0357 8.5429 L146.1429 12.4857 L147.25 14.9429 L148.3571 16.0286 L149.4643 17.7429 L150.5714 18.8857 L151.6786 19.9143 L152.7857 20.4857 L153.8929 21 L155 21.1143"/>
</g>
</g>
</svg>