<svg viewBox="0 0 155 58" preserveAspectRatio="none" class="svggraph" id="svgthumb_us" style="overflow:visible;width:155px;height:58px;" xmlns="http://www.w3.org/2000/svg" xlink="http://www.w3.org/1999/xlink" title="Chart for claire">
<title>Last ranked
#57 in 2020 (f)
#990 in 1936 (m)</title>
<rect x="2" y="43" height="13" width="17" style="fill:rgb(200,200,200)"/>
<image x="2.5" y="43.5" href="/images/flags/24/us.png" preserveAspectRatio="xMinYMax meet" width="16" height="12"/>
<text x="153" y="55" class="svgtitle" text-anchor="end" style="fill:#000000;font-size:13px;">United States</text>
<line x1="0" y1="41" x2="155" y2="41" class="svggridline" style="stroke:rgb(200,200,200);stroke-width:1.3"/>
<g id="svgthumb_us-namepaths">
<g style="fill:none;stroke:#ff0000;stroke-width:1.3;" class="svgcurveline" id="svgthumb_us-claire-f">
<path d="M0 38.0667 L1.1071 37.9333 L2.2143 37.5333 L3.3214 36.7333 L4.4286 37.8 L5.5357 36.3333 L6.6429 35.6667 L7.75 36.0667 L8.8571 35.8 L9.9643 36.6 L11.0714 36.2 L12.1786 35.2667 L13.2857 35.9333 L14.3929 35.5333 L15.5 35.5333 L16.6071 34.6 L17.7143 35.4 L18.8214 35.4 L19.9286 34.4667 L21.0357 34.4667 L22.1429 34.4667 L23.25 34.6 L24.3571 33.5333 L25.4643 33.1333 L26.5714 33.5333 L27.6786 33.1333 L28.7857 31.9333 L29.8929 32.8667 L31 32.2 L32.1071 31.6667 L33.2143 32.3333 L34.3214 31 L35.4286 31 L36.5357 31 L37.6429 31.4 L38.75 30.4667 L39.8571 30.7333 L40.9643 30.0667 L42.0714 29.1333 L43.1786 30.2 L44.2857 30.0667 L45.3929 28.3333 L46.5 26.7333 L47.6071 26.2 L48.7143 24.7333 L49.8214 25.1333 L50.9286 22.8667 L52.0357 21.2667 L53.1429 21.6667 L54.25 21.4 L55.3571 22.0667 L56.4643 21.4 L57.5714 22.8667 L58.6786 23.5333 L59.7857 24.8667 L60.8929 27.2667 L62 27.5333 L63.1071 29.4 L64.2143 28.4667 L65.3214 30.0667 L66.4286 30.3333 L67.5357 30.8667 L68.6429 31.1333 L69.75 31.6667 L70.8571 31.1333 L71.9643 31.9333 L73.0714 31.8 L74.1786 32.3333 L75.2857 33.1333 L76.3929 32.7333 L77.5 33.1333 L78.6071 33.4 L79.7143 33.4 L80.8214 33.5333 L81.9286 34.0667 L83.0357 34.3333 L84.1429 34.6 L85.25 34.4667 L86.3571 34.7333 L87.4643 34.6 L88.5714 35.2667 L89.6786 35.8 L90.7857 35.6667 L91.8929 36.4667 L93 36.8667 L94.1071 37.1333 L95.2143 37.2667 L96.3214 37.9333 L97.4286 38.2 L98.5357 38.0667 L99.6429 38.4667 L100.75 38.7333 L101.8571 38.7333 L102.9643 37.5333 L104.0714 37.9333 L105.1786 37.6667 L106.2857 37.8 L107.3929 37.1333 L108.5 37.1333 L109.6071 36.8667 L110.7143 36.7333 L111.8214 35.9333 L112.9286 35 L114.0357 34.6 L115.1429 33.8 L116.25 32.4667 L117.3571 31.5333 L118.4643 31.5333 L119.5714 31 L120.6786 29.8 L121.7857 28.8667 L122.8929 29.1333 L124 28.0667 L125.1071 28.2 L126.2143 26.0667 L127.3214 23.8 L128.4286 21.9333 L129.5357 19.8 L130.6429 15.9333 L131.75 15.4 L132.8571 16.2 L133.9643 16.4667 L135.0714 18.0667 L136.1786 17.2667 L137.2857 19 L138.3929 19.4 L139.5 15.4 L140.6071 11.9333 L141.7143 11.5333 L142.8214 9.2667 L143.9286 7.5333 L145.0357 7.2667 L146.1429 7 L147.25 8.7333 L148.3571 6.7333 L149.4643 7.9333 L150.5714 5 L151.6786 7.8 L152.7857 9.4 L153.8929 10.8667 L155 11.9333"/>
</g>
<g style="fill:none;stroke:#0000ff;stroke-width:1.3;" class="svgcurveline" id="svgthumb_us-claire-m">
<path d=" M4.9821 40.4667 L5.5357 40.0667 L6.6429 40.4667 L7.1964 40.4667 M10.5179 40.4667 L11.0714 40.3333 L11.625 40.3333 M14.9464 40.3333 L15.5 40.2 L16.0536 40.3333 M17.1607 40.3333 L17.7143 39.8 L18.8214 40.0667 L19.9286 40.0667 L21.0357 39.6667 L21.5893 40.3333 M23.8036 40.3333 L24.3571 40.3333 L25.4643 39.8 L26.5714 40.3333 L27.6786 39.2667 L28.7857 40.0667 L29.8929 39.4 L31 39.9333 L32.1071 40.2 L33.2143 40.2 L34.3214 40.2 L35.4286 40.2 L36.5357 40.0667 L37.6429 40.3333 L38.75 40.2 L39.8571 40.0667 L40.9643 40.2 L42.0714 40.2 L42.625 40.3333 M43.7321 40.3333 L44.2857 40.0667 L45.3929 40.2 L46.5 40.2 L47.6071 40.0667 L48.7143 40.2 L49.8214 40.2 L50.9286 40.4667 L52.0357 40.2 L53.1429 40.2 L54.25 40.3333 L55.3571 40.4667 L56.4643 40.2 L57.0179 40.4667 M59.2321 40.4667 L59.7857 40.4667 L60.3393 40.4667 M61.4464 40.4667 L62 40.4667 L62.5536 40.4667"/>
</g>
</g>
</svg>