<svg viewBox="0 0 155 58" preserveAspectRatio="none" class="svggraph" id="svgthumb_us" style="overflow:visible;width:155px;height:58px;" xmlns="http://www.w3.org/2000/svg" xlink="http://www.w3.org/1999/xlink" title="Chart for clara">
<title>Last ranked
#103 in 2020 (f)
#859 in 1910 (m)</title>
<rect x="2" y="43" height="13" width="17" style="fill:rgb(200,200,200)"/>
<image x="2.5" y="43.5" href="/images/flags/24/us.png" preserveAspectRatio="xMinYMax meet" width="16" height="12"/>
<text x="153" y="55" class="svgtitle" text-anchor="end" style="fill:#000000;font-size:13px;">United States</text>
<line x1="0" y1="41" x2="155" y2="41" class="svggridline" style="stroke:rgb(200,200,200);stroke-width:1.3"/>
<g id="svgthumb_us-namepaths">
<g style="fill:none;stroke:#ff0000;stroke-width:1.3;" class="svgcurveline" id="svgthumb_us-clara-f">
<path d="M0 5.1143 L1.1071 5.1143 L2.2143 4.2 L3.3214 4.1714 L4.4286 2.5429 L5.5357 2.5429 L6.6429 5.4 L7.75 4.5143 L8.8571 7.3714 L9.9643 5.9714 L11.0714 5.6286 L12.1786 6.6857 L13.2857 7.2 L14.3929 8.8857 L15.5 9.4857 L16.6071 10.8 L17.7143 11.7143 L18.8214 12.7714 L19.9286 12.5429 L21.0357 12.8286 L22.1429 15.6 L23.25 14.9429 L24.3571 16.2 L25.4643 16.9429 L26.5714 18.7143 L27.6786 18.8857 L28.7857 20.6857 L29.8929 21.3714 L31 22.0571 L32.1071 22.3429 L33.2143 22.8571 L34.3214 23.6 L35.4286 24.0571 L36.5357 25.1429 L37.6429 25.8 L38.75 26.2571 L39.8571 26.4 L40.9643 26.6857 L42.0714 27.2571 L43.1786 27.8571 L44.2857 28.4286 L45.3929 28.4857 L46.5 29.2571 L47.6071 29.2857 L48.7143 30 L49.8214 30.2 L50.9286 30.6286 L52.0357 30.9143 L53.1429 31.2 L54.25 30.7714 L55.3571 30.8857 L56.4643 30.9143 L57.5714 31.8 L58.6786 31.6857 L59.7857 32.4857 L60.8929 32.9429 L62 33.8857 L63.1071 34.3143 L64.2143 34.3429 L65.3214 34.8286 L66.4286 35.4 L67.5357 35.7143 L68.6429 36.3714 L69.75 36.8571 L70.8571 36.9714 L71.9643 37.1714 L73.0714 37.6 L74.1786 37.9714 L75.2857 38.0571 L76.3929 38.2286 L77.5 38.4571 L78.6071 38.6 L79.7143 38.7429 L80.8214 38.9429 L81.9286 39.3143 L83.0357 39.1429 L84.1429 39.4 L85.25 39.4857 L86.3571 39.5714 L87.4643 39.6571 L88.5714 39.7429 L89.6786 39.8 L90.7857 39.8857 L91.8929 39.9143 L93 39.9714 L94.1071 40.1143 L95.2143 40.1143 L96.3214 40.1429 L97.4286 40.3143 L98.5357 40.3143 L99.6429 40.4286 L100.75 40.4571 L101.8571 40.3429 L102.9643 40.4 L104.0714 40.4286 L105.1786 40.3714 L106.2857 40.4286 L107.3929 40.4857 L108.5 40.5143 L109.6071 40.4286 L110.7143 40.3714 L111.8214 40.4857 L112.9286 40.4857 L114.0357 40.5143 L115.1429 40.4857 L116.25 40.4571 L117.3571 40.4 L118.4643 40.3714 L119.5714 40.3714 L120.6786 40.4 L121.7857 40.3429 L122.8929 40.2571 L124 40.2286 L125.1071 40.1429 L126.2143 40.1429 L127.3214 40.0286 L128.4286 40 L129.5357 40.0286 L130.6429 39.8571 L131.75 39.8286 L132.8571 39.7429 L133.9643 39.6286 L135.0714 39.5143 L136.1786 39.4857 L137.2857 39.3429 L138.3929 39.1429 L139.5 38.9429 L140.6071 38.9143 L141.7143 38.7429 L142.8214 38.6857 L143.9286 38.3143 L145.0357 37.9429 L146.1429 37.5714 L147.25 37.2857 L148.3571 36.8286 L149.4643 36.5143 L150.5714 36.4571 L151.6786 36.4 L152.7857 36.5429 L153.8929 36.4 L155 36.6571"/>
</g>
<g style="fill:none;stroke:#0000ff;stroke-width:1.3;" class="svgcurveline" id="svgthumb_us-clara-m">
<path d="M0 40.8 L1.1071 40.8571 L1.6607 40.8857 M2.7679 40.8857 L3.3214 40.7714 L4.4286 40.7143 L5.5357 40.8571 L6.6429 40.6286 L7.75 40.7714 L8.8571 40.7714 L9.9643 40.7714 L10.5179 40.8857 M11.625 40.8857 L12.1786 40.7429 L13.2857 40.7429 L14.3929 40.8 L15.5 40.8 L16.6071 40.7429 L17.7143 40.6857 L18.2679 40.8571 M20.4821 40.8571 L21.0357 40.8286 L22.1429 40.8 L23.25 40.6 L24.3571 40.8286 L25.4643 40.7714 L26.5714 40.7429 L27.6786 40.8286 L28.7857 40.7714 L29.8929 40.7714 L31 40.8 L32.1071 40.8 L33.2143 40.8286 L33.7679 40.8571"/>
</g>
</g>
</svg>