<svg viewBox="0 0 155 58" preserveAspectRatio="none" class="svggraph" id="svgthumb_us" style="overflow:visible;width:155px;height:58px;" xmlns="http://www.w3.org/2000/svg" xlink="http://www.w3.org/1999/xlink" title="Chart for cora">
<title>Last ranked
#88 in 2020 (f)
#783 in 1903 (m)</title>
<rect x="2" y="43" height="13" width="17" style="fill:rgb(200,200,200)"/>
<image x="2.5" y="43.5" href="/images/flags/24/us.png" preserveAspectRatio="xMinYMax meet" width="16" height="12"/>
<text x="153" y="55" class="svgtitle" text-anchor="end" style="fill:#000000;font-size:13px;">United States</text>
<line x1="0" y1="41" x2="155" y2="41" class="svggridline" style="stroke:rgb(200,200,200);stroke-width:1.3"/>
<g id="svgthumb_us-namepaths">
<g style="fill:none;stroke:#ff0000;stroke-width:1.3;" class="svgcurveline" id="svgthumb_us-cora-f">
<path d="M0 2.0545 L1.1071 5.3636 L2.2143 7.1818 L3.3214 8.2727 L4.4286 8.1273 L5.5357 8.8909 L6.6429 11.8727 L7.75 11.5818 L8.8571 13.5091 L9.9643 14.7818 L11.0714 16.0182 L12.1786 16.1636 L13.2857 18.0545 L14.3929 19.8727 L15.5 20.6727 L16.6071 21.9455 L17.7143 23.6182 L18.8214 22.7455 L19.9286 23.6909 L21.0357 25.4727 L22.1429 25.1091 L23.25 26.3091 L24.3571 26.9636 L25.4643 28.1273 L26.5714 28.6364 L27.6786 28.7455 L28.7857 29.9455 L29.8929 30.5636 L31 31.1455 L32.1071 31.4364 L33.2143 31.6545 L34.3214 32.6 L35.4286 33.2182 L36.5357 33.8364 L37.6429 34.1636 L38.75 35.0364 L39.8571 34.6364 L40.9643 35.3636 L42.0714 35.2182 L43.1786 35 L44.2857 35.6909 L45.3929 35.8 L46.5 35.8727 L47.6071 36.0909 L48.7143 36.4182 L49.8214 36.1636 L50.9286 36.6364 L52.0357 36.6 L53.1429 36.7455 L54.25 36.6364 L55.3571 37.0364 L56.4643 37.1091 L57.5714 37.2545 L58.6786 36.9636 L59.7857 37.2545 L60.8929 37.4 L62 37.5818 L63.1071 37.2545 L64.2143 37.4 L65.3214 37.6545 L66.4286 38.0182 L67.5357 38.0545 L68.6429 38.3818 L69.75 38.7818 L70.8571 38.8182 L71.9643 38.9636 L73.0714 39.1818 L74.1786 39.2909 L75.2857 39.2545 L76.3929 39.2545 L77.5 39.4727 L78.6071 39.6909 L79.7143 39.7273 L80.8214 39.7636 L81.9286 39.8727 L83.0357 39.9455 L84.1429 40.0182 L85.25 40.0909 L86.3571 40.2364 L87.4643 40.2 L88.5714 40.2 L89.6786 40.2727 L90.7857 40.2727 L91.8929 40.2727 L93 40.3455 L94.1071 40.2727 L95.2143 40.3455 L96.3214 40.4909 L97.4286 40.4909 L98.5357 40.6 L99.6429 40.5273 L100.75 40.5273 L101.8571 40.5636 L102.9643 40.5273 L104.0714 40.5273 L105.1786 40.5636 L106.2857 40.5273 L107.3929 40.4909 L108.5 40.4909 L109.6071 40.6 L110.7143 40.5636 L111.8214 40.5636 L112.9286 40.5273 L114.0357 40.5273 L115.1429 40.5636 L116.25 40.5636 L117.3571 40.5273 L118.4643 40.6364 L119.5714 40.6364 L120.6786 40.5636 L121.7857 40.6 L122.8929 40.5273 L124 40.5636 L125.1071 40.4545 L126.2143 40.3818 L127.3214 40.4182 L128.4286 40.3818 L129.5357 40.3818 L130.6429 40.1273 L131.75 40.0182 L132.8571 39.9818 L133.9643 39.9091 L135.0714 39.8727 L136.1786 39.7273 L137.2857 39.7273 L138.3929 39.8 L139.5 39.5455 L140.6071 39.4364 L141.7143 39.1818 L142.8214 39.0364 L143.9286 38.7818 L145.0357 38.0909 L146.1429 37.1091 L147.25 36.1273 L148.3571 35.4727 L149.4643 34.6364 L150.5714 34.6364 L151.6786 34.3455 L152.7857 33.9455 L153.8929 33.8364 L155 34.7455"/>
</g>
<g style="fill:none;stroke:#0000ff;stroke-width:1.3;" class="svgcurveline" id="svgthumb_us-cora-m">
<path d="M0 40.8182 L1.1071 40.7818 L1.6607 40.8545 M3.875 40.8545 L4.4286 40.7455 L5.5357 40.8545 L6.6429 40.8182 L7.1964 40.8182 M8.3036 40.8182 L8.8571 40.7455 L9.9643 40.7818 L11.0714 40.7091 L12.1786 40.8182 L12.7321 40.8182 M14.9464 40.8182 L15.5 40.7818 L16.6071 40.7455 L17.1607 40.8182 M21.5893 40.8182 L22.1429 40.8182 L22.6964 40.8182 M24.9107 40.8182 L25.4643 40.7455 L26.0179 40.8182"/>
</g>
</g>
</svg>