<svg viewBox="0 0 155 58" preserveAspectRatio="none" class="svggraph" id="svgthumb_us" style="overflow:visible;width:155px;height:58px;" xmlns="http://www.w3.org/2000/svg" xlink="http://www.w3.org/1999/xlink" title="Chart for daisy">
<title>Last ranked
#143 in 2020 (f)
#910 in 1903 (m)</title>
<rect x="2" y="43" height="13" width="17" style="fill:rgb(200,200,200)"/>
<image x="2.5" y="43.5" href="/images/flags/24/us.png" preserveAspectRatio="xMinYMax meet" width="16" height="12"/>
<text x="153" y="55" class="svgtitle" text-anchor="end" style="fill:#000000;font-size:13px;">United States</text>
<line x1="0" y1="41" x2="155" y2="41" class="svggridline" style="stroke:rgb(200,200,200);stroke-width:1.3"/>
<g id="svgthumb_us-namepaths">
<g style="fill:none;stroke:#ff0000;stroke-width:1.3;" class="svgcurveline" id="svgthumb_us-daisy-f">
<path d="M0 7.9714 L1.1071 8.4857 L2.2143 9 L3.3214 9.6286 L4.4286 12.5429 L5.5357 16.5429 L6.6429 18.6 L7.75 21.4571 L8.8571 22.5429 L9.9643 23.4 L11.0714 24.3143 L12.1786 24.8286 L13.2857 26.6571 L14.3929 26.4857 L15.5 25.4 L16.6071 25.6286 L17.7143 26.0286 L18.8214 26.6571 L19.9286 26.1429 L21.0357 25.7429 L22.1429 24.2571 L23.25 26.3143 L24.3571 25.7429 L25.4643 25.0571 L26.5714 25.9143 L27.6786 26.7143 L28.7857 26.8857 L29.8929 28.4857 L31 28.6571 L32.1071 29.2857 L33.2143 29.0571 L34.3214 30.2 L35.4286 30.8286 L36.5357 31.8 L37.6429 32.3714 L38.75 32.5429 L39.8571 33.0571 L40.9643 33.8 L42.0714 33.7429 L43.1786 33.7429 L44.2857 34.1429 L45.3929 34.3714 L46.5 33.9714 L47.6071 34.4286 L48.7143 34.5429 L49.8214 34.6571 L50.9286 35 L52.0357 35.2857 L53.1429 35.0571 L54.25 35.6857 L55.3571 35.8 L56.4643 35.7429 L57.5714 35.4 L58.6786 36.2571 L59.7857 36.0286 L60.8929 36.2571 L62 36.8857 L63.1071 36.7714 L64.2143 37.0571 L65.3214 36.8286 L66.4286 37.2857 L67.5357 37.6286 L68.6429 37.6857 L69.75 37.9714 L70.8571 37.9143 L71.9643 38.3143 L73.0714 38.9429 L74.1786 38.8857 L75.2857 38.8857 L76.3929 39.1143 L77.5 39.2857 L78.6071 39.3429 L79.7143 39.5143 L80.8214 39.3429 L81.9286 39.5714 L83.0357 39.5714 L84.1429 39.6286 L85.25 39.6286 L86.3571 39.5143 L87.4643 39.7429 L88.5714 39.7429 L89.6786 39.8571 L90.7857 39.8571 L91.8929 39.8571 L93 39.9143 L94.1071 39.9714 L95.2143 39.9714 L96.3214 40.0857 L97.4286 40.0857 L98.5357 40.0286 L99.6429 40.0286 L100.75 40.0286 L101.8571 40.1429 L102.9643 39.9143 L104.0714 39.8571 L105.1786 39.8 L106.2857 39.8571 L107.3929 39.9143 L108.5 40.0286 L109.6071 39.8 L110.7143 39.2857 L111.8214 38.7143 L112.9286 39 L114.0357 37.2286 L115.1429 37.4 L116.25 38.0286 L117.3571 38.5429 L118.4643 38.6571 L119.5714 37.5143 L120.6786 37.4 L121.7857 36.7714 L122.8929 36.4857 L124 36.3143 L125.1071 36.4286 L126.2143 36.0857 L127.3214 34.3714 L128.4286 33.5143 L129.5357 34.0857 L130.6429 33.8 L131.75 33.7429 L132.8571 34.2 L133.9643 34.1429 L135.0714 33.9143 L136.1786 34.1429 L137.2857 34.5429 L138.3929 34.4286 L139.5 34.7143 L140.6071 35.1714 L141.7143 35.2857 L142.8214 35.1714 L143.9286 35.1143 L145.0357 35.4 L146.1429 35.7429 L147.25 36.1429 L148.3571 35.8 L149.4643 35.8 L150.5714 35.9143 L151.6786 35.5714 L152.7857 35.7429 L153.8929 35.5714 L155 34.8857"/>
</g>
<g style="fill:none;stroke:#0000ff;stroke-width:1.3;" class="svgcurveline" id="svgthumb_us-daisy-m">
<path d="M0 40.7714 L0.5536 40.7714 M2.7679 40.7714 L3.3214 40.7714 L3.875 40.7714 M6.0893 40.7714 L6.6429 40.7714 L7.1964 40.7143 M8.3036 40.7143 L8.8571 40.6571 L9.4107 40.7714 M13.8393 40.7143 L14.3929 40.7143 L14.9464 40.7143 M24.9107 40.7143 L25.4643 40.7143 L26.0179 40.7143"/>
</g>
</g>
</svg>