<svg viewBox="0 0 155 58" preserveAspectRatio="none" class="svggraph" id="svgthumb_us" style="overflow:visible;width:155px;height:58px;" xmlns="http://www.w3.org/2000/svg" xlink="http://www.w3.org/1999/xlink" title="Chart for dakota">
<title>Last ranked
#348 in 2020 (m)
#261 in 2020 (f)</title>
<rect x="2" y="43" height="13" width="17" style="fill:rgb(200,200,200)"/>
<image x="2.5" y="43.5" href="/images/flags/24/us.png" preserveAspectRatio="xMinYMax meet" width="16" height="12"/>
<text x="153" y="55" class="svgtitle" text-anchor="end" style="fill:#000000;font-size:13px;">United States</text>
<line x1="0" y1="41" x2="155" y2="41" class="svggridline" style="stroke:rgb(200,200,200);stroke-width:1.3"/>
<g id="svgthumb_us-namepaths">
<g style="fill:none;stroke:#0000ff;stroke-width:1.3;" class="svgcurveline" id="svgthumb_us-dakota-m">
<path d=" M115.6964 40.6 L116.25 40.4 L117.3571 39.3 L118.4643 38.8 L119.5714 38.2 L120.6786 37.1 L121.7857 33.8 L122.8929 28.1 L124 23.8 L125.1071 19.6 L126.2143 13.8 L127.3214 8.3 L128.4286 10.7 L129.5357 12.6 L130.6429 14.4 L131.75 16 L132.8571 19.2 L133.9643 21.8 L135.0714 24.1 L136.1786 26 L137.2857 27.2 L138.3929 28.2 L139.5 30.2 L140.6071 32.2 L141.7143 33.5 L142.8214 34.5 L143.9286 35.5 L145.0357 35.9 L146.1429 36.3 L147.25 36.5 L148.3571 36.7 L149.4643 36.4 L150.5714 36.7 L151.6786 36 L152.7857 36.2 L153.8929 35.9 L155 36.1"/>
</g>
<g style="fill:none;stroke:#ff0000;stroke-width:1.3;" class="svgcurveline" id="svgthumb_us-dakota-f">
<path d=" M121.2321 40.1 L121.7857 39.2 L122.8929 37.9 L124 37.2 L125.1071 37.3 L126.2143 36.4 L127.3214 35.1 L128.4286 35.5 L129.5357 34.8 L130.6429 34.6 L131.75 35 L132.8571 35.6 L133.9643 36.2 L135.0714 36.2 L136.1786 36.4 L137.2857 35.2 L138.3929 33.5 L139.5 32.2 L140.6071 34 L141.7143 34.8 L142.8214 35.1 L143.9286 35.2 L145.0357 35.5 L146.1429 35.6 L147.25 35.4 L148.3571 35.1 L149.4643 34.2 L150.5714 33.7 L151.6786 33.8 L152.7857 33.9 L153.8929 34.1 L155 34.4"/>
</g>
</g>
</svg>