<svg viewBox="0 0 155 58" preserveAspectRatio="none" class="svggraph" id="svgthumb_us" style="overflow:visible;width:155px;height:58px;" xmlns="http://www.w3.org/2000/svg" xlink="http://www.w3.org/1999/xlink" title="Chart for daniella">
<title>Last ranked
#413 in 2020</title>
<rect x="2" y="43" height="13" width="17" style="fill:rgb(200,200,200)"/>
<image x="2.5" y="43.5" href="/images/flags/24/us.png" preserveAspectRatio="xMinYMax meet" width="16" height="12"/>
<text x="153" y="55" class="svgtitle" text-anchor="end" style="fill:#000000;font-size:13px;">United States</text>
<line x1="0" y1="41" x2="155" y2="41" class="svggridline" style="stroke:rgb(200,200,200);stroke-width:1.3"/>
<g id="svgthumb_us-namepaths">
<g style="fill:none;stroke:#ff0000;stroke-width:1.3;" class="svgcurveline" id="svgthumb_us-daniella-f">
<path d=" M102.4107 37.5 L102.9643 37 L103.5179 37 M111.2679 37 L111.8214 36.5 L112.9286 36.5 L114.0357 35.5 L115.1429 34.5 L116.25 33.5 L117.3571 32.5 L118.4643 31 L119.5714 32 L120.6786 29.5 L121.7857 29 L122.8929 30.5 L124 28 L125.1071 26 L126.2143 26 L127.3214 25 L128.4286 25.5 L129.5357 24.5 L130.6429 23 L131.75 21 L132.8571 20.5 L133.9643 21 L135.0714 18 L136.1786 17 L137.2857 17 L138.3929 16 L139.5 15.5 L140.6071 13.5 L141.7143 14.5 L142.8214 15 L143.9286 13 L145.0357 11.5 L146.1429 14.5 L147.25 12.5 L148.3571 14.5 L149.4643 15 L150.5714 15.5 L151.6786 16.5 L152.7857 18.5 L153.8929 20 L155 19.5"/>
</g>
</g>
</svg>