<svg viewBox="0 0 155 58" preserveAspectRatio="none" class="svggraph" id="svgthumb_us" style="overflow:visible;width:155px;height:58px;" xmlns="http://www.w3.org/2000/svg" xlink="http://www.w3.org/1999/xlink" title="Chart for daniela">
<title>Last ranked
#229 in 2020</title>
<rect x="2" y="43" height="13" width="17" style="fill:rgb(200,200,200)"/>
<image x="2.5" y="43.5" href="/images/flags/24/us.png" preserveAspectRatio="xMinYMax meet" width="16" height="12"/>
<text x="153" y="55" class="svgtitle" text-anchor="end" style="fill:#000000;font-size:13px;">United States</text>
<line x1="0" y1="41" x2="155" y2="41" class="svggridline" style="stroke:rgb(200,200,200);stroke-width:1.3"/>
<g id="svgthumb_us-namepaths">
<g style="fill:none;stroke:#ff0000;stroke-width:1.3;" class="svgcurveline" id="svgthumb_us-daniela-f">
<path d=" M102.4107 39.6 L102.9643 39 L104.0714 39 L105.1786 39.2 L106.2857 38.8 L107.3929 38.6 L108.5 39 L109.6071 38.8 L110.7143 38.4 L111.8214 38.2 L112.9286 37.8 L114.0357 37.2 L115.1429 36.8 L116.25 36.6 L117.3571 35.6 L118.4643 35 L119.5714 35.4 L120.6786 34.4 L121.7857 34.2 L122.8929 33 L124 31.4 L125.1071 28.2 L126.2143 29 L127.3214 30.4 L128.4286 29.4 L129.5357 27 L130.6429 24.6 L131.75 18.4 L132.8571 19.4 L133.9643 20.6 L135.0714 10.4 L136.1786 10.4 L137.2857 12.8 L138.3929 14.8 L139.5 15.8 L140.6071 12 L141.7143 14.2 L142.8214 17.6 L143.9286 20.2 L145.0357 21.6 L146.1429 24.2 L147.25 26 L148.3571 25.8 L149.4643 24.2 L150.5714 23.8 L151.6786 24.2 L152.7857 24.2 L153.8929 25.6 L155 26.4"/>
</g>
</g>
</svg>