<svg viewBox="0 0 155 58" preserveAspectRatio="none" class="svggraph" id="svgthumb_us" style="overflow:visible;width:155px;height:58px;" xmlns="http://www.w3.org/2000/svg" xlink="http://www.w3.org/1999/xlink" title="Chart for danielle">
<title>Last ranked
#448 in 2020 (f)
#940 in 1989 (m)</title>
<rect x="2" y="43" height="13" width="17" style="fill:rgb(200,200,200)"/>
<image x="2.5" y="43.5" href="/images/flags/24/us.png" preserveAspectRatio="xMinYMax meet" width="16" height="12"/>
<text x="153" y="55" class="svgtitle" text-anchor="end" style="fill:#000000;font-size:13px;">United States</text>
<line x1="0" y1="41" x2="155" y2="41" class="svggridline" style="stroke:rgb(200,200,200);stroke-width:1.3"/>
<g id="svgthumb_us-namepaths">
<g style="fill:none;stroke:#ff0000;stroke-width:1.3;" class="svgcurveline" id="svgthumb_us-danielle-f">
<path d=" M63.6607 40.8 L64.2143 40.68 L65.3214 40.76 L65.875 40.84 M66.9821 40.84 L67.5357 40.8 L68.0893 40.84 M69.1964 40.84 L69.75 40.8 L70.8571 40.8 L71.9643 40.72 L73.0714 40.68 L74.1786 40.72 L75.2857 40.76 L76.3929 40.72 L77.5 40.8 L78.6071 40.72 L79.7143 40.6 L80.8214 40.64 L81.9286 40.68 L83.0357 40.64 L84.1429 40.56 L85.25 40.64 L86.3571 40.68 L87.4643 40.6 L88.5714 40.4 L89.6786 39.72 L90.7857 39.8 L91.8929 39.6 L93 38.84 L94.1071 38.16 L95.2143 38 L96.3214 37.24 L97.4286 35.36 L98.5357 33.8 L99.6429 33.64 L100.75 32.52 L101.8571 30.6 L102.9643 26.48 L104.0714 24.08 L105.1786 24.56 L106.2857 22.28 L107.3929 22.48 L108.5 21.56 L109.6071 22.48 L110.7143 21.12 L111.8214 18.56 L112.9286 18.48 L114.0357 17.24 L115.1429 6.24 L116.25 7.6 L117.3571 8.6 L118.4643 4.68 L119.5714 7.2 L120.6786 10.16 L121.7857 13.08 L122.8929 14.2 L124 12.88 L125.1071 14.64 L126.2143 15.44 L127.3214 18.84 L128.4286 21.64 L129.5357 24.16 L130.6429 25.8 L131.75 27.12 L132.8571 28.8 L133.9643 31.32 L135.0714 32.48 L136.1786 33.28 L137.2857 34 L138.3929 34.84 L139.5 35.44 L140.6071 35.76 L141.7143 36.4 L142.8214 37.2 L143.9286 37.72 L145.0357 37.92 L146.1429 38.16 L147.25 38.44 L148.3571 38.44 L149.4643 38.76 L150.5714 38.96 L151.6786 39.04 L152.7857 39.24 L153.8929 39.4 L155 39.44"/>
</g>
<g style="fill:none;stroke:#0000ff;stroke-width:1.3;" class="svgcurveline" id="svgthumb_us-danielle-m">
<path d=" M114.5893 40.84 L115.1429 40.8 L116.25 40.8 L116.8036 40.84 M120.125 40.8 L120.6786 40.76 L121.2321 40.8"/>
</g>
</g>
</svg>