<svg viewBox="0 0 155 58" preserveAspectRatio="none" class="svggraph" id="svgthumb_us" style="overflow:visible;width:155px;height:58px;" xmlns="http://www.w3.org/2000/svg" xlink="http://www.w3.org/1999/xlink" title="Chart for danna">
<title>Last ranked
#488 in 2020</title>
<rect x="2" y="43" height="13" width="17" style="fill:rgb(200,200,200)"/>
<image x="2.5" y="43.5" href="/images/flags/24/us.png" preserveAspectRatio="xMinYMax meet" width="16" height="12"/>
<text x="153" y="55" class="svgtitle" text-anchor="end" style="fill:#000000;font-size:13px;">United States</text>
<line x1="0" y1="41" x2="155" y2="41" class="svggridline" style="stroke:rgb(200,200,200);stroke-width:1.3"/>
<g id="svgthumb_us-namepaths">
<g style="fill:none;stroke:#ff0000;stroke-width:1.3;" class="svgcurveline" id="svgthumb_us-danna-f">
<path d=" M70.3036 39.2222 L70.8571 38.3333 L71.9643 38.3333 L73.0714 37.8889 L74.1786 37.8889 L75.2857 37.8889 L76.3929 38.3333 L77.5 38.3333 L78.6071 38.7778 L79.7143 37.8889 L80.8214 38.3333 L81.9286 38.7778 L83.0357 38.3333 L84.1429 37.8889 L85.25 37.4444 L86.3571 37.8889 L87.4643 37 L88.5714 37 L89.6786 37 L90.7857 36.5556 L91.8929 35.6667 L93 35.2222 L94.1071 36.1111 L95.2143 34.7778 L96.3214 35.6667 L97.4286 34.7778 L98.5357 35.2222 L99.6429 35.2222 L100.75 34.7778 L101.8571 36.5556 L102.9643 36.1111 L104.0714 36.1111 L105.1786 36.5556 L106.2857 37.4444 L106.8393 37.4444 M107.9464 37.4444 L108.5 37 L109.0536 37.4444 M134.5179 36.1111 L135.0714 34.7778 L136.1786 34.3333 L137.2857 31.6667 L138.3929 29 L139.5 28.5556 L140.6071 31.2222 L141.7143 25 L142.8214 23.2222 L143.9286 13 L145.0357 21 L146.1429 26.7778 L147.25 25.8889 L148.3571 28.1111 L149.4643 27.2222 L150.5714 26.7778 L151.6786 27.2222 L152.7857 26.7778 L153.8929 25.8889 L155 25.4444"/>
</g>
</g>
</svg>