<svg viewBox="0 0 155 58" preserveAspectRatio="none" class="svggraph" id="svgthumb_us" style="overflow:visible;width:155px;height:58px;" xmlns="http://www.w3.org/2000/svg" xlink="http://www.w3.org/1999/xlink" title="Chart for daphne">
<title>Last ranked
#414 in 2020</title>
<rect x="2" y="43" height="13" width="17" style="fill:rgb(200,200,200)"/>
<image x="2.5" y="43.5" href="/images/flags/24/us.png" preserveAspectRatio="xMinYMax meet" width="16" height="12"/>
<text x="153" y="55" class="svgtitle" text-anchor="end" style="fill:#000000;font-size:13px;">United States</text>
<line x1="0" y1="41" x2="155" y2="41" class="svggridline" style="stroke:rgb(200,200,200);stroke-width:1.3"/>
<g id="svgthumb_us-namepaths">
<g style="fill:none;stroke:#ff0000;stroke-width:1.3;" class="svgcurveline" id="svgthumb_us-daphne-f">
<path d=" M9.4107 39 L9.9643 38.5 L11.0714 37.5 L11.625 38.5 M12.7321 38.5 L13.2857 38.5 L14.3929 39 L15.5 38 L16.6071 38.5 L17.7143 38 L18.8214 37.5 L19.9286 38.5 L21.0357 38.5 L22.1429 38.5 L23.25 38.5 L24.3571 38 L25.4643 38.5 L26.0179 38.5 M28.2321 38.5 L28.7857 37.5 L29.3393 39 M30.4464 39 L31 38 L32.1071 37.5 L32.6607 38.5 M34.875 38.5 L35.4286 38.5 L35.9821 38.5 M37.0893 38.5 L37.6429 38.5 L38.75 38 L39.8571 38 L40.9643 38 L42.0714 37 L43.1786 37.5 L44.2857 37 L45.3929 37 L46.5 37 L47.6071 36.5 L48.7143 36.5 L49.8214 36 L50.9286 36.5 L52.0357 37 L53.1429 36.5 L54.25 37 L55.3571 37 L56.4643 37.5 L57.5714 37 L58.6786 37 L59.7857 37.5 L60.8929 37.5 L62 37.5 L63.1071 36.5 L63.6607 39 M64.7679 39 L65.3214 38.5 L66.4286 37 L67.5357 36.5 L68.6429 37 L69.75 37.5 L70.8571 37 L71.9643 37 L73.0714 37 L74.1786 36 L75.2857 36 L76.3929 35 L77.5 34 L78.6071 35 L79.7143 34 L80.8214 34.5 L81.9286 34.5 L83.0357 35 L84.1429 34.5 L85.25 33.5 L86.3571 31.5 L87.4643 33.5 L88.5714 34 L89.6786 25 L90.7857 13 L91.8929 17.5 L93 21.5 L94.1071 23.5 L95.2143 23.5 L96.3214 23.5 L97.4286 22.5 L98.5357 23 L99.6429 22.5 L100.75 19 L101.8571 24 L102.9643 24 L104.0714 25 L105.1786 28.5 L106.2857 27 L107.3929 30.5 L108.5 32 L109.6071 32.5 L110.7143 33 L111.8214 33.5 L112.9286 33 L114.0357 32.5 L115.1429 33 L116.25 33.5 L117.3571 34.5 L118.4643 34.5 L119.5714 34 L120.6786 35.5 L121.7857 34.5 L122.8929 35.5 L124 35.5 L125.1071 35.5 L126.2143 34 L127.3214 35 L128.4286 34.5 L129.5357 34.5 L130.6429 33.5 L131.75 32.5 L132.8571 31 L133.9643 26 L135.0714 29 L136.1786 29.5 L137.2857 29 L138.3929 28 L139.5 29.5 L140.6071 29 L141.7143 27.5 L142.8214 25 L143.9286 25 L145.0357 23.5 L146.1429 22 L147.25 21 L148.3571 17.5 L149.4643 19 L150.5714 20 L151.6786 19.5 L152.7857 19 L153.8929 21 L155 20"/>
</g>
</g>
</svg>