<svg viewBox="0 0 155 58" preserveAspectRatio="none" class="svggraph" id="svgthumb_us" style="overflow:visible;width:155px;height:58px;" xmlns="http://www.w3.org/2000/svg" xlink="http://www.w3.org/1999/xlink" title="Chart for delaney">
<title>Last ranked
#312 in 2020</title>
<rect x="2" y="43" height="13" width="17" style="fill:rgb(200,200,200)"/>
<image x="2.5" y="43.5" href="/images/flags/24/us.png" preserveAspectRatio="xMinYMax meet" width="16" height="12"/>
<text x="153" y="55" class="svgtitle" text-anchor="end" style="fill:#000000;font-size:13px;">United States</text>
<line x1="0" y1="41" x2="155" y2="41" class="svggridline" style="stroke:rgb(200,200,200);stroke-width:1.3"/>
<g id="svgthumb_us-namepaths">
<g style="fill:none;stroke:#ff0000;stroke-width:1.3;" class="svgcurveline" id="svgthumb_us-delaney-f">
<path d=" M122.3393 39.2 L122.8929 38.8 L124 38 L125.1071 36.8 L126.2143 36 L127.3214 32.4 L128.4286 29.8 L129.5357 29.2 L130.6429 26.6 L131.75 26 L132.8571 25.6 L133.9643 25 L135.0714 23.2 L136.1786 22.4 L137.2857 21.2 L138.3929 23 L139.5 23.6 L140.6071 25 L141.7143 25.4 L142.8214 27.2 L143.9286 25.8 L145.0357 27.2 L146.1429 28 L147.25 27.8 L148.3571 28.4 L149.4643 27.4 L150.5714 28.6 L151.6786 27.6 L152.7857 26.8 L153.8929 28.4 L155 29.4"/>
</g>
</g>
</svg>