<svg viewBox="0 0 155 58" preserveAspectRatio="none" class="svggraph" id="svgthumb_us" style="overflow:visible;width:155px;height:58px;" xmlns="http://www.w3.org/2000/svg" xlink="http://www.w3.org/1999/xlink" title="Chart for delilah">
<title>Last ranked
#69 in 2020</title>
<rect x="2" y="43" height="13" width="17" style="fill:rgb(200,200,200)"/>
<image x="2.5" y="43.5" href="/images/flags/24/us.png" preserveAspectRatio="xMinYMax meet" width="16" height="12"/>
<text x="153" y="55" class="svgtitle" text-anchor="end" style="fill:#000000;font-size:13px;">United States</text>
<line x1="0" y1="41" x2="155" y2="41" class="svggridline" style="stroke:rgb(200,200,200);stroke-width:1.3"/>
<g id="svgthumb_us-namepaths">
<g style="fill:none;stroke:#ff0000;stroke-width:1.3;" class="svgcurveline" id="svgthumb_us-delilah-f">
<path d="M0 39.6667 L1.1071 39.6667 L2.2143 39.8 L3.3214 39.8 L4.4286 39.4 L5.5357 39.9333 L6.6429 39.6667 L7.75 39.8 L8.8571 39.6667 L9.9643 39.5333 L11.0714 39.6667 L12.1786 39.1333 L13.2857 39.8 L14.3929 39.9333 L15.5 39.8 L16.6071 40.2 L17.7143 40.0667 L18.8214 40.2 L19.9286 39.6667 L21.0357 39.6667 L22.1429 40.0667 L23.25 40.2 L24.3571 39.9333 L25.4643 40.2 L26.5714 40.0667 L27.6786 40.0667 L28.2321 40.3333 M30.4464 40.4667 L31 40.2 L32.1071 39.9333 L33.2143 40.0667 L34.3214 40.3333 L35.4286 40.2 L36.5357 40.0667 L37.6429 40.2 L38.75 40.3333 L39.8571 40.2 L40.9643 40.2 L42.0714 40.2 L43.1786 40.3333 L44.2857 40.3333 L45.3929 40.3333 L46.5 40.3333 L47.6071 40.3333 L48.7143 40.3333 L49.2679 40.4667 M50.375 40.4667 L50.9286 40.2 L51.4821 40.3333 M52.5893 40.3333 L53.1429 40.3333 L54.25 40.3333 L55.3571 40.3333 L56.4643 40.3333 L57.5714 40.3333 L58.6786 40.3333 L59.7857 40.3333 L60.8929 40.2 L62 40.3333 L63.1071 40.3333 L63.6607 40.4667 M66.9821 40.4667 L67.5357 40.2 L68.6429 39.6667 L69.75 40.3333 L70.8571 40.3333 L71.4107 40.4667 M74.7321 40.4667 L75.2857 40.3333 L76.3929 40.3333 L77.5 40.0667 L78.6071 39.6667 L79.7143 39.4 L80.8214 39.5333 L81.9286 39.9333 L83.0357 40.0667 L84.1429 39.9333 L85.25 39.9333 L86.3571 40.2 L86.9107 40.3333 M88.0179 40.3333 L88.5714 40.0667 L89.125 40.2 M99.0893 40.0667 L99.6429 39.8 L100.75 40.0667 L101.3036 40.0667 M102.4107 40.0667 L102.9643 39.6667 L104.0714 39.8 L105.1786 39.9333 L106.2857 39.8 L107.3929 39.8 L108.5 39.8 L109.6071 39.5333 L110.7143 39.8 L111.2679 39.9333 M112.375 39.9333 L112.9286 39.8 L114.0357 39.1333 L115.1429 39.4 L116.25 39.2667 L117.3571 39.6667 L118.4643 39.4 L119.5714 39.6667 L120.125 39.8 M128.9821 39.6667 L129.5357 39.4 L130.6429 39.4 L131.75 38.6 L132.8571 38.6 L133.9643 38.4667 L135.0714 38.6 L136.1786 38.0667 L137.2857 37.9333 L138.3929 37.8 L139.5 37.5333 L140.6071 33.8 L141.7143 29.8 L142.8214 29.8 L143.9286 29.6667 L145.0357 28.3333 L146.1429 26.6 L147.25 24.7333 L148.3571 23.8 L149.4643 22.3333 L150.5714 22.2 L151.6786 20.6 L152.7857 19.4 L153.8929 18.0667 L155 15.2667"/>
</g>
</g>
</svg>