<svg viewBox="0 0 155 58" preserveAspectRatio="none" class="svggraph" id="svgthumb_us" style="overflow:visible;width:155px;height:58px;" xmlns="http://www.w3.org/2000/svg" xlink="http://www.w3.org/1999/xlink" title="Chart for demi">
<title>Last ranked
#338 in 2020</title>
<rect x="2" y="43" height="13" width="17" style="fill:rgb(200,200,200)"/>
<image x="2.5" y="43.5" href="/images/flags/24/us.png" preserveAspectRatio="xMinYMax meet" width="16" height="12"/>
<text x="153" y="55" class="svgtitle" text-anchor="end" style="fill:#000000;font-size:13px;">United States</text>
<line x1="0" y1="41" x2="155" y2="41" class="svggridline" style="stroke:rgb(200,200,200);stroke-width:1.3"/>
<g id="svgthumb_us-namepaths">
<g style="fill:none;stroke:#ff0000;stroke-width:1.3;" class="svgcurveline" id="svgthumb_us-demi-f">
<path d=" M122.3393 36.5 L122.8929 33 L124 32 L125.1071 32 L126.2143 33 L127.3214 31.5 L128.4286 32 L129.5357 33.5 L130.6429 34.5 L131.1964 35.5 M142.2679 34.5 L142.8214 33.5 L143.9286 33 L145.0357 32.5 L146.1429 32.5 L147.25 31.5 L148.3571 29.5 L149.4643 28.5 L150.5714 27 L151.6786 24 L152.7857 20 L153.8929 19 L155 15"/>
</g>
</g>
</svg>