<svg viewBox="0 0 155 58" preserveAspectRatio="none" class="svggraph" id="svgthumb_us" style="overflow:visible;width:155px;height:58px;" xmlns="http://www.w3.org/2000/svg" xlink="http://www.w3.org/1999/xlink" title="Chart for destiny">
<title>Last ranked
#351 in 2020</title>
<rect x="2" y="43" height="13" width="17" style="fill:rgb(200,200,200)"/>
<image x="2.5" y="43.5" href="/images/flags/24/us.png" preserveAspectRatio="xMinYMax meet" width="16" height="12"/>
<text x="153" y="55" class="svgtitle" text-anchor="end" style="fill:#000000;font-size:13px;">United States</text>
<line x1="0" y1="41" x2="155" y2="41" class="svggridline" style="stroke:rgb(200,200,200);stroke-width:1.3"/>
<g id="svgthumb_us-namepaths">
<g style="fill:none;stroke:#ff0000;stroke-width:1.3;" class="svgcurveline" id="svgthumb_us-destiny-f">
<path d=" M104.625 40.4667 L105.1786 40.3333 L106.2857 40.2 L107.3929 40.1333 L108.5 39.6667 L109.6071 39.5333 L110.7143 39.3333 L111.8214 39.2667 L112.9286 39.2667 L114.0357 39.0667 L115.1429 38.9333 L116.25 38.9333 L117.3571 38.8 L118.4643 38.1333 L119.5714 37.7333 L120.6786 37.1333 L121.7857 36.4 L122.8929 34.8 L124 32.3333 L125.1071 31.0667 L126.2143 27 L127.3214 22.3333 L128.4286 20.6667 L129.5357 17.5333 L130.6429 12.9333 L131.75 9.6 L132.8571 8.0667 L133.9643 8.2 L135.0714 14.6667 L136.1786 17.8 L137.2857 19.3333 L138.3929 18.3333 L139.5 20.8667 L140.6071 22.9333 L141.7143 24 L142.8214 25.8 L143.9286 28.2667 L145.0357 29.7333 L146.1429 31.6667 L147.25 33 L148.3571 33.9333 L149.4643 35.0667 L150.5714 35.4667 L151.6786 36.1333 L152.7857 36.6667 L153.8929 37.2 L155 37.6667"/>
</g>
</g>
</svg>