<svg viewBox="0 0 155 58" preserveAspectRatio="none" class="svggraph" id="svgthumb_us" style="overflow:visible;width:155px;height:58px;" xmlns="http://www.w3.org/2000/svg" xlink="http://www.w3.org/1999/xlink" title="Chart for diana">
<title>Last ranked
#244 in 2020</title>
<rect x="2" y="43" height="13" width="17" style="fill:rgb(200,200,200)"/>
<image x="2.5" y="43.5" href="/images/flags/24/us.png" preserveAspectRatio="xMinYMax meet" width="16" height="12"/>
<text x="153" y="55" class="svgtitle" text-anchor="end" style="fill:#000000;font-size:13px;">United States</text>
<line x1="0" y1="41" x2="155" y2="41" class="svggridline" style="stroke:rgb(200,200,200);stroke-width:1.3"/>
<g id="svgthumb_us-namepaths">
<g style="fill:none;stroke:#ff0000;stroke-width:1.3;" class="svgcurveline" id="svgthumb_us-diana-f">
<path d="M0 40.2 L1.1071 40.44 L2.2143 40.44 L3.3214 40.36 L4.4286 40.12 L5.5357 40.28 L6.6429 40.36 L7.75 40.2 L8.3036 40.68 M9.4107 40.68 L9.9643 40.12 L11.0714 40.52 L12.1786 40.36 L13.2857 40.28 L14.3929 40.12 L15.5 40.2 L16.6071 40.28 L17.7143 40.04 L18.8214 40.44 L19.9286 40.2 L21.0357 39.96 L22.1429 40.28 L23.25 40.28 L24.3571 39.96 L25.4643 40.28 L26.5714 40.04 L27.6786 40.2 L28.7857 40.04 L29.8929 40.2 L31 39.72 L32.1071 40.04 L33.2143 39.96 L34.3214 39.96 L35.4286 39.8 L36.5357 39.8 L37.6429 39.48 L38.75 39.8 L39.8571 39.8 L40.9643 39.96 L42.0714 39.64 L43.1786 39.56 L44.2857 39.48 L45.3929 39.48 L46.5 39.32 L47.6071 39.16 L48.7143 39.32 L49.8214 39.08 L50.9286 38.92 L52.0357 38.76 L53.1429 38.28 L54.25 37.24 L55.3571 37.16 L56.4643 37.08 L57.5714 36.2 L58.6786 35.4 L59.7857 34.68 L60.8929 35.08 L62 34.84 L63.1071 31.32 L64.2143 30.76 L65.3214 28.92 L66.4286 26.12 L67.5357 24.68 L68.6429 18.84 L69.75 16.84 L70.8571 15.8 L71.9643 5.08 L73.0714 3.56 L74.1786 7.48 L75.2857 5.64 L76.3929 6.68 L77.5 7.16 L78.6071 9 L79.7143 9.88 L80.8214 10.12 L81.9286 10.36 L83.0357 9.72 L84.1429 10.52 L85.25 5 L86.3571 5.48 L87.4643 7.72 L88.5714 9 L89.6786 9.4 L90.7857 10.04 L91.8929 11.56 L93 12.12 L94.1071 15.08 L95.2143 15.88 L96.3214 16.12 L97.4286 17.64 L98.5357 20.44 L99.6429 21.88 L100.75 21.8 L101.8571 23.4 L102.9643 22.92 L104.0714 23.08 L105.1786 26.04 L106.2857 27 L107.3929 27.16 L108.5 26.92 L109.6071 28.12 L110.7143 29.24 L111.8214 23.24 L112.9286 21.48 L114.0357 22.92 L115.1429 23.4 L116.25 25 L117.3571 25.08 L118.4643 26.68 L119.5714 26.52 L120.6786 26.2 L121.7857 27.16 L122.8929 27.88 L124 28.04 L125.1071 27.24 L126.2143 27.16 L127.3214 27.8 L128.4286 28.68 L129.5357 25.96 L130.6429 25.08 L131.75 27.32 L132.8571 28.28 L133.9643 28.12 L135.0714 29.24 L136.1786 28.44 L137.2857 26.92 L138.3929 28.52 L139.5 30.12 L140.6071 29 L141.7143 31.64 L142.8214 33.32 L143.9286 34.36 L145.0357 34.6 L146.1429 35.72 L147.25 36.12 L148.3571 36.52 L149.4643 36.52 L150.5714 36.12 L151.6786 35.24 L152.7857 34.04 L153.8929 34.68 L155 35.4"/>
</g>
</g>
</svg>