<svg viewBox="0 0 155 58" preserveAspectRatio="none" class="svggraph" id="svgthumb_us" style="overflow:visible;width:155px;height:58px;" xmlns="http://www.w3.org/2000/svg" xlink="http://www.w3.org/1999/xlink" title="Chart for dylan">
<title>Last ranked
#43 in 2020 (m)
#496 in 2020 (f)</title>
<rect x="2" y="43" height="13" width="17" style="fill:rgb(200,200,200)"/>
<image x="2.5" y="43.5" href="/images/flags/24/us.png" preserveAspectRatio="xMinYMax meet" width="16" height="12"/>
<text x="153" y="55" class="svgtitle" text-anchor="end" style="fill:#000000;font-size:13px;">United States</text>
<line x1="0" y1="41" x2="155" y2="41" class="svggridline" style="stroke:rgb(200,200,200);stroke-width:1.3"/>
<g id="svgthumb_us-namepaths">
<g style="fill:none;stroke:#0000ff;stroke-width:1.3;" class="svgcurveline" id="svgthumb_us-dylan-m">
<path d=" M94.6607 40.8667 L95.2143 40.8667 L96.3214 40.8222 L97.4286 40.6889 L98.5357 40.4222 L99.6429 40.2444 L100.75 40.3778 L101.8571 40.2 L102.9643 40.2444 L104.0714 39.9333 L105.1786 39.7556 L106.2857 39.9333 L107.3929 39.6222 L108.5 39.7556 L109.6071 39.4 L110.7143 39.0444 L111.8214 39.2667 L112.9286 39.3556 L114.0357 39.1333 L115.1429 38.6889 L116.25 37.9333 L117.3571 36.7778 L118.4643 36.4667 L119.5714 36.2 L120.6786 34.9556 L121.7857 31.8889 L122.8929 20.5111 L124 9.0889 L125.1071 13.7111 L126.2143 13.6667 L127.3214 14.2889 L128.4286 14.2889 L129.5357 12.1556 L130.6429 9.1333 L131.75 6.1556 L132.8571 8.2 L133.9643 5.5333 L135.0714 9.1333 L136.1786 7.7556 L137.2857 9.7556 L138.3929 12.2 L139.5 14.2889 L140.6071 15.2667 L141.7143 17.1333 L142.8214 17.1778 L143.9286 18.2444 L145.0357 19.5778 L146.1429 19.0889 L147.25 18.7333 L148.3571 18.3778 L149.4643 18.6 L150.5714 19.6667 L151.6786 20.0667 L152.7857 21.3111 L153.8929 23.4444 L155 24.5111"/>
</g>
<g style="fill:none;stroke:#ff0000;stroke-width:1.3;" class="svgcurveline" id="svgthumb_us-dylan-f">
<path d=" M124.5536 40.6 L125.1071 40.4222 L126.2143 40.5111 L126.7679 40.5556 M134.5179 40.5111 L135.0714 40.4222 L136.1786 39.7111 L137.2857 39.6222 L138.3929 39.9778 L139.5 40.2 L140.6071 40.1111 L141.7143 39.7556 L142.8214 39.8 L143.9286 39.8444 L145.0357 39.6222 L146.1429 39.6222 L147.25 39.5778 L148.3571 39.1333 L149.4643 39.1333 L150.5714 39.0444 L151.6786 38.9111 L152.7857 39.1333 L153.8929 39.2222 L155 39.4444"/>
</g>
</g>
</svg>