<svg viewBox="0 0 155 58" preserveAspectRatio="none" class="svggraph" id="svgthumb_us" style="overflow:visible;width:155px;height:58px;" xmlns="http://www.w3.org/2000/svg" xlink="http://www.w3.org/1999/xlink" title="Chart for eden">
<title>Last ranked
#130 in 2020 (f)
#490 in 2020 (m)</title>
<rect x="2" y="43" height="13" width="17" style="fill:rgb(200,200,200)"/>
<image x="2.5" y="43.5" href="/images/flags/24/us.png" preserveAspectRatio="xMinYMax meet" width="16" height="12"/>
<text x="153" y="55" class="svgtitle" text-anchor="end" style="fill:#000000;font-size:13px;">United States</text>
<line x1="0" y1="41" x2="155" y2="41" class="svggridline" style="stroke:rgb(200,200,200);stroke-width:1.3"/>
<g id="svgthumb_us-namepaths">
<g style="fill:none;stroke:#ff0000;stroke-width:1.3;" class="svgcurveline" id="svgthumb_us-eden-f">
<path d=" M116.8036 39.4 L117.3571 39.2 L118.4643 38.8 L119.5714 38 L120.6786 38 L121.7857 38 L122.8929 38.2 L124 38 L125.1071 37.8 L126.2143 38 L127.3214 37.6 L128.4286 37.4 L129.5357 37.4 L130.6429 36.6 L131.75 36 L132.8571 36 L133.9643 33.6 L135.0714 32.6 L136.1786 32 L137.2857 31.6 L138.3929 31.2 L139.5 31.2 L140.6071 28 L141.7143 26.8 L142.8214 25.6 L143.9286 23.4 L145.0357 23.2 L146.1429 21 L147.25 19.8 L148.3571 19.2 L149.4643 19.8 L150.5714 19.4 L151.6786 18.8 L152.7857 20.4 L153.8929 19.6 L155 18"/>
</g>
<g style="fill:none;stroke:#0000ff;stroke-width:1.3;" class="svgcurveline" id="svgthumb_us-eden-m">
<path d=" M141.1607 39.2 L141.7143 38.8 L142.8214 38.8 L143.9286 38.8 L145.0357 38.4 L146.1429 37.6 L147.25 37.2 L148.3571 36.6 L149.4643 35.4 L150.5714 35.4 L151.6786 35 L152.7857 34.8 L153.8929 34.4 L155 34.6"/>
</g>
</g>
</svg>