<svg viewBox="0 0 155 58" preserveAspectRatio="none" class="svggraph" id="svgthumb_us" style="overflow:visible;width:155px;height:58px;" xmlns="http://www.w3.org/2000/svg" xlink="http://www.w3.org/1999/xlink" title="Chart for edith">
<title>Last ranked
#473 in 2020 (f)
#822 in 1910 (m)</title>
<rect x="2" y="43" height="13" width="17" style="fill:rgb(200,200,200)"/>
<image x="2.5" y="43.5" href="/images/flags/24/us.png" preserveAspectRatio="xMinYMax meet" width="16" height="12"/>
<text x="153" y="55" class="svgtitle" text-anchor="end" style="fill:#000000;font-size:13px;">United States</text>
<line x1="0" y1="41" x2="155" y2="41" class="svggridline" style="stroke:rgb(200,200,200);stroke-width:1.3"/>
<g id="svgthumb_us-namepaths">
<g style="fill:none;stroke:#ff0000;stroke-width:1.3;" class="svgcurveline" id="svgthumb_us-edith-f">
<path d="M0 6.0222 L1.1071 6.0222 L2.2143 7.3556 L3.3214 8.3778 L4.4286 5.3556 L5.5357 7.4444 L6.6429 6.7778 L7.75 5.4444 L8.8571 6.9111 L9.9643 5.2222 L11.0714 8.1111 L12.1786 6.8667 L13.2857 8.8667 L14.3929 6.8222 L15.5 6.7333 L16.6071 6.1111 L17.7143 6.9111 L18.8214 8.3778 L19.9286 8.8667 L21.0357 8.8222 L22.1429 12.0667 L23.25 8.4222 L24.3571 11.6222 L25.4643 10.6444 L26.5714 11.4444 L27.6786 10.3333 L28.7857 10.3778 L29.8929 12.3333 L31 10.7778 L32.1071 12.3778 L33.2143 13.5333 L34.3214 12.6 L35.4286 11.8889 L36.5357 11.3556 L37.6429 11.9333 L38.75 11.6667 L39.8571 11.0889 L40.9643 11.2222 L42.0714 11.9333 L43.1786 11.6222 L44.2857 13.2222 L45.3929 14.6444 L46.5 15.5778 L47.6071 16.7333 L48.7143 17.3556 L49.8214 18.9111 L50.9286 20.1111 L52.0357 21.5778 L53.1429 23 L54.25 23.8889 L55.3571 24.7333 L56.4643 25.8 L57.5714 26.6444 L58.6786 27.8 L59.7857 28.6444 L60.8929 29.4444 L62 29.6222 L63.1071 30.3333 L64.2143 30.8667 L65.3214 31.3111 L66.4286 31.5778 L67.5357 32.2 L68.6429 33.1333 L69.75 33.6222 L70.8571 33.9333 L71.9643 34.9111 L73.0714 35.5333 L74.1786 35.6222 L75.2857 35.7111 L76.3929 35.7556 L77.5 36.0667 L78.6071 36.5556 L79.7143 37.1778 L80.8214 37.4889 L81.9286 37.8444 L83.0357 37.6222 L84.1429 37.8 L85.25 38.0222 L86.3571 38.1556 L87.4643 38.1111 L88.5714 38.2444 L89.6786 38.5111 L90.7857 38.7778 L91.8929 38.7778 L93 38.8222 L94.1071 38.8222 L95.2143 39 L96.3214 39.2667 L97.4286 39.4444 L98.5357 39.4889 L99.6429 39.5333 L100.75 39.6667 L101.8571 39.7111 L102.9643 39.8 L104.0714 39.8444 L105.1786 39.8889 L106.2857 39.8 L107.3929 40.0667 L108.5 40.1111 L109.6071 40.1111 L110.7143 40.1556 L111.8214 40.2 L112.9286 40.2889 L114.0357 40.2889 L115.1429 40.2889 L116.25 40.2444 L117.3571 40.2 L118.4643 40.2444 L119.5714 40.2444 L120.6786 40.2 L121.7857 40.0667 L122.8929 40.0222 L124 40.0667 L125.1071 40.0667 L126.2143 39.8444 L127.3214 39.6667 L128.4286 40.0667 L129.5357 39.9778 L130.6429 40.0667 L131.75 40.0222 L132.8571 39.9778 L133.9643 40.0222 L135.0714 39.9778 L136.1786 40.1556 L137.2857 40.1111 L138.3929 40.0222 L139.5 40.0667 L140.6071 40.1556 L141.7143 40.2444 L142.8214 40.2889 L143.9286 40.2444 L145.0357 40.2 L146.1429 40.1556 L147.25 40.1111 L148.3571 39.9333 L149.4643 39.6222 L150.5714 39.5333 L151.6786 39.4444 L152.7857 39.5333 L153.8929 39.4889 L155 39.3556"/>
</g>
<g style="fill:none;stroke:#0000ff;stroke-width:1.3;" class="svgcurveline" id="svgthumb_us-edith-m">
<path d="M0 40.8222 L1.1071 40.6444 L1.6607 40.8222 M4.9821 40.8222 L5.5357 40.8222 L6.6429 40.6444 L7.75 40.7333 L8.8571 40.7778 L9.9643 40.7333 L11.0714 40.6444 L11.625 40.7778 M12.7321 40.7778 L13.2857 40.7778 L14.3929 40.7333 L14.9464 40.7778 M17.1607 40.7778 L17.7143 40.6444 L18.8214 40.7333 L19.9286 40.7333 L21.0357 40.5556 L22.1429 40.7333 L22.6964 40.7778 M26.0179 40.7778 L26.5714 40.6889 L27.125 40.7333 M29.3393 40.7333 L29.8929 40.7333 L30.4464 40.7778 M31.5536 40.7778 L32.1071 40.6889 L33.2143 40.6889 L33.7679 40.7778"/>
</g>
</g>
</svg>