<svg viewBox="0 0 155 58" preserveAspectRatio="none" class="svggraph" id="svgthumb_us" style="overflow:visible;width:155px;height:58px;" xmlns="http://www.w3.org/2000/svg" xlink="http://www.w3.org/1999/xlink" title="Chart for elaina">
<title>Last ranked
#249 in 2020</title>
<rect x="2" y="43" height="13" width="17" style="fill:rgb(200,200,200)"/>
<image x="2.5" y="43.5" href="/images/flags/24/us.png" preserveAspectRatio="xMinYMax meet" width="16" height="12"/>
<text x="153" y="55" class="svgtitle" text-anchor="end" style="fill:#000000;font-size:13px;">United States</text>
<line x1="0" y1="41" x2="155" y2="41" class="svggridline" style="stroke:rgb(200,200,200);stroke-width:1.3"/>
<g id="svgthumb_us-namepaths">
<g style="fill:none;stroke:#ff0000;stroke-width:1.3;" class="svgcurveline" id="svgthumb_us-elaina-f">
<path d=" M92.4464 38.3333 L93 38.3333 L94.1071 37.8889 L95.2143 38.3333 L95.7679 38.3333 M103.5179 37.4444 L104.0714 37.4444 L104.625 37.4444 M106.8393 37.4444 L107.3929 37 L108.5 34.3333 L109.6071 37 L110.7143 37 L111.8214 35.6667 L112.9286 35.6667 L114.0357 36.1111 L115.1429 37 L116.25 36.5556 L117.3571 36.1111 L118.4643 36.5556 L119.5714 36.1111 L120.6786 35.6667 L121.7857 35.6667 L122.8929 35.2222 L124 35.2222 L125.1071 34.7778 L126.2143 33 L127.3214 33 L128.4286 33 L129.5357 33.8889 L130.6429 33 L131.75 30.7778 L132.8571 29 L133.9643 29 L135.0714 29.4444 L136.1786 26.7778 L137.2857 26.3333 L138.3929 25.8889 L139.5 25.8889 L140.6071 25 L141.7143 26.3333 L142.8214 26.3333 L143.9286 22.7778 L145.0357 20.5556 L146.1429 19.6667 L147.25 17 L148.3571 14.7778 L149.4643 15.6667 L150.5714 13.4444 L151.6786 13.8889 L152.7857 12.1111 L153.8929 12.5556 L155 10.7778"/>
</g>
</g>
</svg>