<svg viewBox="0 0 155 58" preserveAspectRatio="none" class="svggraph" id="svgthumb_us" style="overflow:visible;width:155px;height:58px;" xmlns="http://www.w3.org/2000/svg" xlink="http://www.w3.org/1999/xlink" title="Chart for eleanor">
<title>Last ranked
#22 in 2020 (f)
#946 in 1908 (m)</title>
<rect x="2" y="43" height="13" width="17" style="fill:rgb(200,200,200)"/>
<image x="2.5" y="43.5" href="/images/flags/24/us.png" preserveAspectRatio="xMinYMax meet" width="16" height="12"/>
<text x="153" y="55" class="svgtitle" text-anchor="end" style="fill:#000000;font-size:13px;">United States</text>
<line x1="0" y1="41" x2="155" y2="41" class="svggridline" style="stroke:rgb(200,200,200);stroke-width:1.3"/>
<g id="svgthumb_us-namepaths">
<g style="fill:none;stroke:#ff0000;stroke-width:1.3;" class="svgcurveline" id="svgthumb_us-eleanor-f">
<path d="M0 33.4571 L1.1071 34.6571 L2.2143 32.4286 L3.3214 32.2 L4.4286 32.7714 L5.5357 32.0857 L6.6429 30.9429 L7.75 31.9143 L8.8571 32.3143 L9.9643 31.5714 L11.0714 31.0571 L12.1786 30.0857 L13.2857 31.1143 L14.3929 30.9429 L15.5 30.0857 L16.6071 28.4286 L17.7143 29.8 L18.8214 28.1429 L19.9286 28.0857 L21.0357 27.7429 L22.1429 27.4571 L23.25 25.5714 L24.3571 23.9143 L25.4643 23.7429 L26.5714 24.0286 L27.6786 21.8 L28.7857 21.1714 L29.8929 21.4571 L31 20.0286 L32.1071 18.3143 L33.2143 16.4857 L34.3214 14.6571 L35.4286 10.6 L36.5357 6.6571 L37.6429 2.4286 L38.75 1.7429 L39.8571 2.0286 L40.9643 2.0286 L42.0714 2.1429 L43.1786 3.9714 L44.2857 1.9714 L45.3929 5.0571 L46.5 5.0571 L47.6071 5.5143 L48.7143 4.8857 L49.8214 6.0286 L50.9286 7.0571 L52.0357 8.8286 L53.1429 9.7429 L54.25 12.0286 L55.3571 12.4857 L56.4643 13.8 L57.5714 16.0286 L58.6786 13.1143 L59.7857 16.0857 L60.8929 19.1143 L62 17.9714 L63.1071 18.8286 L64.2143 20.7143 L65.3214 21.8 L66.4286 23.6857 L67.5357 26.0857 L68.6429 27.9714 L69.75 30.1429 L70.8571 31.8571 L71.9643 33.0571 L73.0714 34.1429 L74.1786 35.1714 L75.2857 35.5714 L76.3929 36.0857 L77.5 36.5429 L78.6071 37 L79.7143 37.2286 L80.8214 37.2857 L81.9286 37.8 L83.0357 38.0286 L84.1429 38.0857 L85.25 38.3714 L86.3571 38.6 L87.4643 38.6 L88.5714 38.7143 L89.6786 38.9429 L90.7857 38.8286 L91.8929 39.0571 L93 39.1143 L94.1071 39.1143 L95.2143 39.4571 L96.3214 39.5143 L97.4286 39.6286 L98.5357 39.8571 L99.6429 39.8571 L100.75 39.9143 L101.8571 39.9143 L102.9643 40.0286 L104.0714 40.1429 L105.1786 40.1429 L106.2857 40.0857 L107.3929 40.2 L108.5 40.0857 L109.6071 40.0857 L110.7143 40.2 L111.8214 40.1429 L112.9286 40.1429 L114.0357 40.1429 L115.1429 40.2 L116.25 40.1429 L117.3571 40.2 L118.4643 40.0857 L119.5714 40.0857 L120.6786 39.9714 L121.7857 39.9714 L122.8929 39.9143 L124 39.8571 L125.1071 39.6857 L126.2143 39.8571 L127.3214 39.6857 L128.4286 39.5714 L129.5357 39.4 L130.6429 38.8857 L131.75 39 L132.8571 38.7714 L133.9643 38.6 L135.0714 38.2 L136.1786 38.1429 L137.2857 37.9714 L138.3929 37.5143 L139.5 37.6857 L140.6071 37.5714 L141.7143 37.3429 L142.8214 36.8286 L143.9286 35.6286 L145.0357 34.8286 L146.1429 33.9714 L147.25 32.0857 L148.3571 30.0857 L149.4643 27.9714 L150.5714 25.8 L151.6786 24.2 L152.7857 23.3429 L153.8929 21.6286 L155 20.3143"/>
</g>
<g style="fill:none;stroke:#0000ff;stroke-width:1.3;" class="svgcurveline" id="svgthumb_us-eleanor-m">
<path d=" M30.4464 40.7143 L31 40.7143 L31.5536 40.7143"/>
</g>
</g>
</svg>