<svg viewBox="0 0 155 58" preserveAspectRatio="none" class="svggraph" id="svgthumb_us" style="overflow:visible;width:155px;height:58px;" xmlns="http://www.w3.org/2000/svg" xlink="http://www.w3.org/1999/xlink" title="Chart for elena">
<title>Last ranked
#55 in 2020</title>
<rect x="2" y="43" height="13" width="17" style="fill:rgb(200,200,200)"/>
<image x="2.5" y="43.5" href="/images/flags/24/us.png" preserveAspectRatio="xMinYMax meet" width="16" height="12"/>
<text x="153" y="55" class="svgtitle" text-anchor="end" style="fill:#000000;font-size:13px;">United States</text>
<line x1="0" y1="41" x2="155" y2="41" class="svggridline" style="stroke:rgb(200,200,200);stroke-width:1.3"/>
<g id="svgthumb_us-namepaths">
<g style="fill:none;stroke:#ff0000;stroke-width:1.3;" class="svgcurveline" id="svgthumb_us-elena-f">
<path d="M0 39.9333 L1.1071 40.3333 L1.6607 40.4667 M3.875 40.4667 L4.4286 40.0667 L5.5357 40.3333 L6.6429 40.0667 L7.75 40.3333 L8.8571 39.9333 L9.9643 40.2 L11.0714 40.3333 L12.1786 39.8 L13.2857 40.0667 L14.3929 39.9333 L15.5 39.5333 L16.6071 39.6667 L17.7143 39.6667 L18.8214 40.0667 L19.9286 39.9333 L21.0357 39.8 L22.1429 40.0667 L23.25 39.5333 L24.3571 39.2667 L25.4643 39.9333 L26.5714 39.1333 L27.6786 39.5333 L28.7857 39.2667 L29.8929 39.2667 L31 38.8667 L32.1071 39.1333 L33.2143 39 L34.3214 38.4667 L35.4286 39.1333 L36.5357 38.6 L37.6429 38.7333 L38.75 38.8667 L39.8571 39 L40.9643 39.1333 L42.0714 38.8667 L43.1786 39 L44.2857 39.1333 L45.3929 38.8667 L46.5 38.8667 L47.6071 38.7333 L48.7143 38.8667 L49.8214 38.7333 L50.9286 38.4667 L52.0357 38.3333 L53.1429 38.2 L54.25 38.6 L55.3571 38.4667 L56.4643 38.8667 L57.5714 38.7333 L58.6786 38.7333 L59.7857 39 L60.8929 39.4 L62 39.1333 L63.1071 39.2667 L64.2143 39.2667 L65.3214 39.5333 L66.4286 39.5333 L67.5357 38.8667 L68.6429 39 L69.75 38.8667 L70.8571 38.8667 L71.9643 38.8667 L73.0714 39 L74.1786 39.1333 L75.2857 38.8667 L76.3929 39 L77.5 39 L78.6071 39.1333 L79.7143 39 L80.8214 38.8667 L81.9286 38.7333 L83.0357 38.3333 L84.1429 38.7333 L85.25 38.4667 L86.3571 38.2 L87.4643 38.4667 L88.5714 38.2 L89.6786 38.4667 L90.7857 38.2 L91.8929 37.8 L93 37.5333 L94.1071 37.6667 L95.2143 37 L96.3214 37 L97.4286 37.2667 L98.5357 37 L99.6429 37.2667 L100.75 37.1333 L101.8571 37 L102.9643 37.2667 L104.0714 36.3333 L105.1786 36.6 L106.2857 36.4667 L107.3929 36.6 L108.5 36.3333 L109.6071 36.0667 L110.7143 36.2 L111.8214 36.0667 L112.9286 36.4667 L114.0357 36.8667 L115.1429 37 L116.25 35.8 L117.3571 36.3333 L118.4643 36.7333 L119.5714 36.7333 L120.6786 36.2 L121.7857 36.0667 L122.8929 36.2 L124 35.8 L125.1071 35.5333 L126.2143 34.7333 L127.3214 34.4667 L128.4286 34.4667 L129.5357 34.2 L130.6429 33.1333 L131.75 31 L132.8571 31.9333 L133.9643 31.6667 L135.0714 31.8 L136.1786 31.2667 L137.2857 30.4667 L138.3929 30.4667 L139.5 29 L140.6071 30.0667 L141.7143 30.6 L142.8214 29.9333 L143.9286 28.2 L145.0357 27.6667 L146.1429 25.4 L147.25 24.4667 L148.3571 23.1333 L149.4643 21.1333 L150.5714 19 L151.6786 13.6667 L152.7857 13.9333 L153.8929 12.2 L155 11.2667"/>
</g>
</g>
</svg>