<svg viewBox="0 0 155 58" preserveAspectRatio="none" class="svggraph" id="svgthumb_us" style="overflow:visible;width:155px;height:58px;" xmlns="http://www.w3.org/2000/svg" xlink="http://www.w3.org/1999/xlink" title="Chart for elise">
<title>Last ranked
#212 in 2020</title>
<rect x="2" y="43" height="13" width="17" style="fill:rgb(200,200,200)"/>
<image x="2.5" y="43.5" href="/images/flags/24/us.png" preserveAspectRatio="xMinYMax meet" width="16" height="12"/>
<text x="153" y="55" class="svgtitle" text-anchor="end" style="fill:#000000;font-size:13px;">United States</text>
<line x1="0" y1="41" x2="155" y2="41" class="svggridline" style="stroke:rgb(200,200,200);stroke-width:1.3"/>
<g id="svgthumb_us-namepaths">
<g style="fill:none;stroke:#ff0000;stroke-width:1.3;" class="svgcurveline" id="svgthumb_us-elise-f">
<path d="M0 36 L1.1071 36.6 L2.2143 36 L3.3214 36.6 L4.4286 37 L5.5357 37.4 L6.6429 36.8 L7.75 36.8 L8.8571 37.6 L9.9643 36.6 L11.0714 37.8 L12.1786 36.6 L13.2857 37.4 L14.3929 36.4 L15.5 37.4 L16.6071 37 L17.7143 37.4 L18.8214 37 L19.9286 36.6 L21.0357 37.2 L22.1429 36.2 L23.25 37.4 L24.3571 37.4 L25.4643 37.2 L26.5714 37 L27.6786 37.6 L28.7857 37.4 L29.8929 37 L31 37 L32.1071 37.6 L33.2143 38 L34.3214 37.6 L35.4286 36.2 L36.5357 36.6 L37.6429 37 L38.75 37.4 L39.8571 37.4 L40.9643 37.2 L42.0714 37.6 L43.1786 37 L44.2857 37.6 L45.3929 37.6 L46.5 37.8 L47.6071 37.8 L48.7143 38 L49.8214 38.6 L50.9286 38.4 L52.0357 38.4 L53.1429 38.6 L54.25 38.2 L55.3571 38.6 L56.4643 38.4 L57.5714 38.6 L58.6786 38.6 L59.7857 39.2 L60.8929 38.4 L62 38.8 L63.1071 38.8 L64.2143 39.2 L65.3214 39 L66.4286 39 L67.5357 39 L68.6429 39.4 L69.75 39.2 L70.8571 39 L71.9643 39.4 L73.0714 39.4 L74.1786 39 L75.2857 39 L76.3929 39 L77.5 38.8 L78.6071 37.8 L79.7143 37.8 L80.8214 37.4 L81.9286 37 L83.0357 37 L84.1429 37.2 L85.25 37.6 L86.3571 37.2 L87.4643 37 L88.5714 37.4 L89.6786 37.2 L90.7857 37.4 L91.8929 37.2 L93 36.6 L94.1071 37 L95.2143 36.8 L96.3214 37 L97.4286 37 L98.5357 37.2 L99.6429 37.4 L100.75 37.4 L101.8571 37.8 L102.9643 37.2 L104.0714 38.2 L105.1786 38 L106.2857 37.8 L107.3929 37.8 L108.5 37.6 L109.6071 37.6 L110.7143 37.2 L111.8214 36.6 L112.9286 36.2 L114.0357 34.8 L115.1429 32.6 L116.25 30.8 L117.3571 29.6 L118.4643 28.8 L119.5714 29.6 L120.6786 30.2 L121.7857 30.6 L122.8929 31.4 L124 31.6 L125.1071 31 L126.2143 32.8 L127.3214 32.8 L128.4286 31.2 L129.5357 30 L130.6429 30.4 L131.75 29.2 L132.8571 28.2 L133.9643 27.4 L135.0714 27.4 L136.1786 26.8 L137.2857 26 L138.3929 26.2 L139.5 26 L140.6071 26.2 L141.7143 26.2 L142.8214 26 L143.9286 24.8 L145.0357 21 L146.1429 19.2 L147.25 20 L148.3571 20.8 L149.4643 22 L150.5714 21.2 L151.6786 22.8 L152.7857 23 L153.8929 24.8 L155 25.6"/>
</g>
</g>
</svg>