<svg viewBox="0 0 155 58" preserveAspectRatio="none" class="svggraph" id="svgthumb_us" style="overflow:visible;width:155px;height:58px;" xmlns="http://www.w3.org/2000/svg" xlink="http://www.w3.org/1999/xlink" title="Chart for elizabeth">
<title>Last ranked
#16 in 2020 (f)
#847 in 1989 (m)</title>
<rect x="2" y="43" height="13" width="17" style="fill:rgb(200,200,200)"/>
<image x="2.5" y="43.5" href="/images/flags/24/us.png" preserveAspectRatio="xMinYMax meet" width="16" height="12"/>
<text x="153" y="55" class="svgtitle" text-anchor="end" style="fill:#000000;font-size:13px;">United States</text>
<line x1="0" y1="41" x2="155" y2="41" class="svggridline" style="stroke:rgb(200,200,200);stroke-width:1.3"/>
<g id="svgthumb_us-namepaths">
<g style="fill:none;stroke:#ff0000;stroke-width:1.3;" class="svgcurveline" id="svgthumb_us-elizabeth-f">
<path d="M0 1.26 L1.1071 3.54 L2.2143 3.22 L3.3214 3.44 L4.4286 3.94 L5.5357 4.62 L6.6429 6.14 L7.75 6.5 L8.8571 6.96 L9.9643 8.68 L11.0714 10.14 L12.1786 9.88 L13.2857 10.22 L14.3929 11.16 L15.5 11.98 L16.6071 11.84 L17.7143 13.46 L18.8214 13.28 L19.9286 14.3 L21.0357 14.44 L22.1429 15.22 L23.25 15.7 L24.3571 14.64 L25.4643 14.24 L26.5714 14.78 L27.6786 14.4 L28.7857 13.44 L29.8929 13.6 L31 13.34 L32.1071 12.88 L33.2143 13.34 L34.3214 12.5 L35.4286 11.92 L36.5357 11.98 L37.6429 12.46 L38.75 13.46 L39.8571 13.48 L40.9643 14.06 L42.0714 14.64 L43.1786 14.98 L44.2857 15.42 L45.3929 16.3 L46.5 16.56 L47.6071 16.32 L48.7143 17.92 L49.8214 18.94 L50.9286 20.14 L52.0357 20.74 L53.1429 21.32 L54.25 21.56 L55.3571 22.14 L56.4643 22.34 L57.5714 22.92 L58.6786 23.76 L59.7857 23.72 L60.8929 24.3 L62 24.56 L63.1071 23.96 L64.2143 23.82 L65.3214 23.88 L66.4286 24.14 L67.5357 24.52 L68.6429 24.92 L69.75 24.78 L70.8571 24.86 L71.9643 25.64 L73.0714 26.42 L74.1786 26.22 L75.2857 25.84 L76.3929 25.38 L77.5 24.7 L78.6071 24.64 L79.7143 24.16 L80.8214 24.32 L81.9286 24.34 L83.0357 24.34 L84.1429 25.12 L85.25 24.32 L86.3571 23.06 L87.4643 23.28 L88.5714 22.86 L89.6786 22.84 L90.7857 23.44 L91.8929 23.3 L93 23.32 L94.1071 23.14 L95.2143 22.9 L96.3214 22.22 L97.4286 23.58 L98.5357 23.64 L99.6429 24.5 L100.75 25.48 L101.8571 25.88 L102.9643 25.1 L104.0714 25.34 L105.1786 25.02 L106.2857 23.76 L107.3929 21.02 L108.5 20.54 L109.6071 20.02 L110.7143 19.06 L111.8214 18.44 L112.9286 18.38 L114.0357 18.82 L115.1429 18.42 L116.25 18.74 L117.3571 20.32 L118.4643 21.14 L119.5714 20.16 L120.6786 20.62 L121.7857 20.8 L122.8929 20.94 L124 22 L125.1071 23.18 L126.2143 23.78 L127.3214 24.14 L128.4286 24.3 L129.5357 24.84 L130.6429 25.32 L131.75 25.24 L132.8571 25.86 L133.9643 26.06 L135.0714 26.2 L136.1786 26.94 L137.2857 27.56 L138.3929 28.44 L139.5 29.1 L140.6071 28.66 L141.7143 29.46 L142.8214 30.08 L143.9286 30.52 L145.0357 30.58 L146.1429 30.98 L147.25 31.18 L148.3571 31.2 L149.4643 31 L150.5714 31.1 L151.6786 31.48 L152.7857 31.76 L153.8929 32.36 L155 32.76"/>
</g>
<g style="fill:none;stroke:#0000ff;stroke-width:1.3;" class="svgcurveline" id="svgthumb_us-elizabeth-m">
<path d="M0 40.84 L0.5536 40.92 M1.6607 40.92 L2.2143 40.88 L3.3214 40.76 L4.4286 40.74 L5.5357 40.84 L6.6429 40.82 L7.75 40.74 L8.8571 40.82 L9.9643 40.74 L11.0714 40.8 L12.1786 40.9 L13.2857 40.88 L14.3929 40.8 L15.5 40.84 L16.6071 40.74 L17.7143 40.82 L18.8214 40.8 L19.9286 40.78 L21.0357 40.78 L22.1429 40.8 L23.25 40.84 L24.3571 40.68 L25.4643 40.82 L26.5714 40.82 L27.6786 40.82 L28.7857 40.8 L29.8929 40.84 L31 40.86 L32.1071 40.86 L33.2143 40.84 L34.3214 40.86 L35.4286 40.9 L35.9821 40.9 M50.375 40.92 L50.9286 40.9 L52.0357 40.9 L52.5893 40.92 M53.6964 40.92 L54.25 40.88 L55.3571 40.92 L56.4643 40.92 L57.5714 40.9 L58.125 40.92 M59.2321 40.92 L59.7857 40.92 L60.8929 40.92 L62 40.92 L63.1071 40.9 L64.2143 40.92 L65.3214 40.92 L66.4286 40.92 L67.5357 40.92 L68.6429 40.92 L69.1964 40.94 M88.0179 40.94 L88.5714 40.94 L89.6786 40.94 L90.2321 40.94 M93.5536 40.94 L94.1071 40.94 L94.6607 40.94 M97.9821 40.94 L98.5357 40.94 L99.6429 40.92 L100.1964 40.92 M109.0536 40.92 L109.6071 40.9 L110.1607 40.92 M111.2679 40.92 L111.8214 40.9 L112.9286 40.9 L114.0357 40.9 L115.1429 40.9 L116.25 40.9 L117.3571 40.9 L118.4643 40.9 L119.5714 40.9 L120.6786 40.86 L121.2321 40.9"/>
</g>
</g>
</svg>