<svg viewBox="0 0 155 58" preserveAspectRatio="none" class="svggraph" id="svgthumb_us" style="overflow:visible;width:155px;height:58px;" xmlns="http://www.w3.org/2000/svg" xlink="http://www.w3.org/1999/xlink" title="Chart for eliza">
<title>Last ranked
#115 in 2020 (f)
#809 in 1880 (m)</title>
<rect x="2" y="43" height="13" width="17" style="fill:rgb(200,200,200)"/>
<image x="2.5" y="43.5" href="/images/flags/24/us.png" preserveAspectRatio="xMinYMax meet" width="16" height="12"/>
<text x="153" y="55" class="svgtitle" text-anchor="end" style="fill:#000000;font-size:13px;">United States</text>
<line x1="0" y1="41" x2="155" y2="41" class="svggridline" style="stroke:rgb(200,200,200);stroke-width:1.3"/>
<g id="svgthumb_us-namepaths">
<g style="fill:none;stroke:#ff0000;stroke-width:1.3;" class="svgcurveline" id="svgthumb_us-eliza-f">
<path d="M0 6.6 L1.1071 8.8667 L2.2143 8.7333 L3.3214 10.6 L4.4286 13.8 L5.5357 12.8667 L6.6429 16.0667 L7.75 16.0667 L8.8571 16.8667 L9.9643 19.4 L11.0714 21.4 L12.1786 22.0667 L13.2857 24.0667 L14.3929 24.8667 L15.5 24.2 L16.6071 26.3333 L17.7143 27.2667 L18.8214 27.9333 L19.9286 28.4667 L21.0357 27.2667 L22.1429 27 L23.25 30.2 L24.3571 29.1333 L25.4643 29.1333 L26.5714 31.6667 L27.6786 31.4 L28.7857 32.0667 L29.8929 31.8 L31 31.8 L32.1071 31.9333 L33.2143 32.3333 L34.3214 33.2667 L35.4286 34.2 L36.5357 34.6 L37.6429 35.8 L38.75 36.3333 L39.8571 37 L40.9643 36.4667 L42.0714 36.7333 L43.1786 36.6 L44.2857 36.7333 L45.3929 37.2667 L46.5 37.1333 L47.6071 37.4 L48.7143 37.2667 L49.8214 37.4 L50.9286 37.6667 L52.0357 37.9333 L53.1429 38.3333 L54.25 38.0667 L55.3571 38.2 L56.4643 38.4667 L57.5714 38.0667 L58.6786 38.4667 L59.7857 38.8667 L60.8929 39 L62 39.1333 L63.1071 39.4 L64.2143 39 L65.3214 39.2667 L66.4286 39.2667 L67.5357 39.4 L68.6429 39.5333 L69.75 39.6667 L70.8571 39.6667 L71.9643 39.4 L73.0714 39.9333 L74.1786 40.2 L75.2857 40.0667 L76.3929 39.9333 L77.5 40.0667 L78.6071 40.0667 L79.7143 40.3333 L80.8214 40.3333 L81.375 40.3333 M82.4821 40.3333 L83.0357 40.2 L84.1429 40.3333 L85.25 40.3333 L85.8036 40.3333 M94.6607 40.2 L95.2143 40.2 L95.7679 40.2 M96.875 40.2 L97.4286 40.2 L98.5357 40.0667 L99.6429 39.8 L100.1964 40.0667 M101.3036 40.0667 L101.8571 39.8 L102.9643 39.6667 L104.0714 39.8 L105.1786 39.8 L106.2857 39.2667 L107.3929 39.2667 L108.5 39.4 L109.6071 39.1333 L110.7143 39 L111.8214 38.8667 L112.9286 38.7333 L114.0357 38.8667 L115.1429 39.1333 L116.25 39.2667 L117.3571 39.2667 L118.4643 38.8667 L119.5714 38.7333 L120.6786 39 L121.7857 38.2 L122.8929 38.4667 L124 38.7333 L125.1071 38.3333 L126.2143 38.4667 L127.3214 37.5333 L128.4286 37.2667 L129.5357 37 L130.6429 37 L131.75 36.7333 L132.8571 35.9333 L133.9643 35.5333 L135.0714 35.4 L136.1786 34.7333 L137.2857 34.4667 L138.3929 34.2 L139.5 34.4667 L140.6071 34.6 L141.7143 34.4667 L142.8214 33.2667 L143.9286 32.0667 L145.0357 32.3333 L146.1429 31.2667 L147.25 29.8 L148.3571 30.0667 L149.4643 28.4667 L150.5714 28.2 L151.6786 26.3333 L152.7857 24.7333 L153.8929 23.1333 L155 23.2667"/>
</g>
<g style="fill:none;stroke:#0000ff;stroke-width:1.3;" class="svgcurveline" id="svgthumb_us-eliza-m">
<path d="M0 40.3333 L0.5536 40.4667"/>
</g>
</g>
</svg>