<svg viewBox="0 0 155 58" preserveAspectRatio="none" class="svggraph" id="svgthumb_us" style="overflow:visible;width:155px;height:58px;" xmlns="http://www.w3.org/2000/svg" xlink="http://www.w3.org/1999/xlink" title="Chart for ellie">
<title>Last ranked
#29 in 2020 (f)
#981 in 1910 (m)</title>
<rect x="2" y="43" height="13" width="17" style="fill:rgb(200,200,200)"/>
<image x="2.5" y="43.5" href="/images/flags/24/us.png" preserveAspectRatio="xMinYMax meet" width="16" height="12"/>
<text x="153" y="55" class="svgtitle" text-anchor="end" style="fill:#000000;font-size:13px;">United States</text>
<line x1="0" y1="41" x2="155" y2="41" class="svggridline" style="stroke:rgb(200,200,200);stroke-width:1.3"/>
<g id="svgthumb_us-namepaths">
<g style="fill:none;stroke:#ff0000;stroke-width:1.3;" class="svgcurveline" id="svgthumb_us-ellie-f">
<path d="M0 39.3 L1.1071 38.3 L2.2143 37.8 L3.3214 39 L4.4286 39 L5.5357 39.2 L6.6429 38.8 L7.75 38.5 L8.8571 38.8 L9.9643 39.2 L11.0714 39 L12.1786 39.1 L13.2857 39.2 L14.3929 38.9 L15.5 38.8 L16.6071 39.5 L17.7143 38.9 L18.8214 39.2 L19.9286 39.1 L21.0357 39.1 L22.1429 39 L23.25 38.6 L24.3571 39.2 L25.4643 39.3 L26.5714 39.2 L27.6786 39.3 L28.7857 39.4 L29.8929 39.3 L31 39.4 L32.1071 40 L33.2143 39.8 L34.3214 39.9 L35.4286 39.9 L36.5357 39.8 L37.6429 40.1 L38.75 40.1 L39.8571 40.2 L40.9643 40.3 L42.0714 40 L43.1786 40.2 L44.2857 40.3 L45.3929 40.3 L46.5 40.3 L47.6071 40.3 L48.7143 40.3 L49.8214 40.3 L50.9286 40.4 L52.0357 40.5 L53.1429 40.5 L54.25 40.5 L55.3571 40.5 L55.9107 40.6 M123.4464 40.1 L124 39.8 L125.1071 39.7 L126.2143 39.7 L127.3214 39.1 L128.4286 39 L129.5357 38.8 L130.6429 37.9 L131.75 37.4 L132.8571 36.8 L133.9643 36.4 L135.0714 32.8 L136.1786 32.4 L137.2857 32 L138.3929 31.7 L139.5 31.5 L140.6071 31.5 L141.7143 31.4 L142.8214 30 L143.9286 26.1 L145.0357 25.2 L146.1429 23.5 L147.25 21.5 L148.3571 18.1 L149.4643 16 L150.5714 14.8 L151.6786 14.4 L152.7857 12.9 L153.8929 11.3 L155 9.2"/>
</g>
<g style="fill:none;stroke:#0000ff;stroke-width:1.3;" class="svgcurveline" id="svgthumb_us-ellie-m">
<path d=" M2.7679 40.6 L3.3214 40.4 L4.4286 40.5 L5.5357 40.5 L6.6429 40.2 L7.75 40.5 L8.8571 40.5 L9.4107 40.6 M11.625 40.6 L12.1786 39.9 L13.2857 40.5 L14.3929 40.3 L14.9464 40.5 M16.0536 40.5 L16.6071 40.4 L17.7143 40.3 L18.8214 40.5 L19.9286 40.3 L20.4821 40.5 M21.5893 40.5 L22.1429 40.3 L22.6964 40.5 M23.8036 40.5 L24.3571 40.2 L24.9107 40.5 M28.2321 40.4 L28.7857 40.2 L29.8929 40.4 L31 40.3 L32.1071 40.2 L33.2143 40.5 L33.7679 40.5"/>
</g>
</g>
</svg>