<svg viewBox="0 0 155 58" preserveAspectRatio="none" class="svggraph" id="svgthumb_us" style="overflow:visible;width:155px;height:58px;" xmlns="http://www.w3.org/2000/svg" xlink="http://www.w3.org/1999/xlink" title="Chart for elliott">
<title>Last ranked
#158 in 2020 (m)
#479 in 2020 (f)</title>
<rect x="2" y="43" height="13" width="17" style="fill:rgb(200,200,200)"/>
<image x="2.5" y="43.5" href="/images/flags/24/us.png" preserveAspectRatio="xMinYMax meet" width="16" height="12"/>
<text x="153" y="55" class="svgtitle" text-anchor="end" style="fill:#000000;font-size:13px;">United States</text>
<line x1="0" y1="41" x2="155" y2="41" class="svggridline" style="stroke:rgb(200,200,200);stroke-width:1.3"/>
<g id="svgthumb_us-namepaths">
<g style="fill:none;stroke:#0000ff;stroke-width:1.3;" class="svgcurveline" id="svgthumb_us-elliott-m">
<path d="M0 37.4 L1.1071 37 L2.2143 37.6 L3.3214 36.4 L4.4286 37.4 L5.5357 38.8 L6.6429 37.4 L7.75 38.6 L8.8571 37 L9.9643 39.2 L11.0714 37 L12.1786 37.2 L13.2857 36.6 L14.3929 38.2 L15.5 37.6 L16.6071 36.2 L17.7143 37.2 L18.8214 37.2 L19.9286 36.2 L21.0357 37.8 L22.1429 37 L23.25 38 L24.3571 36.6 L25.4643 36.6 L26.5714 37.2 L27.6786 36.6 L28.7857 37.6 L29.8929 38.2 L31 35.4 L32.1071 35.8 L33.2143 36.8 L34.3214 36.4 L35.4286 37.2 L36.5357 36.8 L37.6429 37.2 L38.75 37 L39.8571 37.6 L40.9643 37.8 L42.0714 38.2 L43.1786 37.6 L44.2857 37.8 L45.3929 37 L46.5 37.4 L47.6071 37.8 L48.7143 37.6 L49.8214 37.8 L50.9286 37.4 L52.0357 37.4 L53.1429 38 L54.25 37.8 L55.3571 37.8 L56.4643 38.2 L57.5714 38.2 L58.6786 37.2 L59.7857 37.2 L60.8929 37.4 L62 38.2 L63.1071 38.2 L64.2143 38 L65.3214 37.6 L66.4286 37.6 L67.5357 38 L68.6429 37.4 L69.75 37.8 L70.8571 38 L71.9643 36.4 L73.0714 37.8 L74.1786 37.2 L75.2857 37.2 L76.3929 37.8 L77.5 38.2 L78.6071 38.2 L79.7143 38.6 L80.8214 38.6 L81.9286 38.6 L83.0357 38.8 L84.1429 38.6 L85.25 39 L86.3571 39.2 L87.4643 38.8 L88.5714 38.4 L89.6786 38.2 L90.7857 38.6 L91.8929 38.6 L93 38.8 L94.1071 38.4 L95.2143 38.4 L96.3214 38.8 L97.4286 38.6 L98.5357 38.4 L99.6429 38.6 L100.75 38.2 L101.8571 38.6 L102.9643 38.2 L104.0714 38.4 L105.1786 38.4 L106.2857 38.2 L107.3929 37.8 L108.5 38.2 L109.6071 37.6 L110.7143 37.4 L111.8214 37.8 L112.9286 36 L114.0357 34.8 L115.1429 35.4 L116.25 36.2 L117.3571 36.2 L118.4643 36.4 L119.5714 35.8 L120.6786 34.6 L121.7857 34.8 L122.8929 35.6 L124 35.6 L125.1071 35.4 L126.2143 36.4 L127.3214 36.6 L128.4286 36.8 L129.5357 37 L130.6429 36.8 L131.75 37.2 L132.8571 37.2 L133.9643 37.2 L135.0714 37 L136.1786 36.4 L137.2857 35.6 L138.3929 34.8 L139.5 34 L140.6071 33.8 L141.7143 33.8 L142.8214 32.6 L143.9286 31.2 L145.0357 30.4 L146.1429 28.6 L147.25 26.4 L148.3571 25.4 L149.4643 22.6 L150.5714 20.4 L151.6786 16.4 L152.7857 17.2 L153.8929 15.4 L155 15.4"/>
</g>
<g style="fill:none;stroke:#ff0000;stroke-width:1.3;" class="svgcurveline" id="svgthumb_us-elliott-f">
<path d=" M146.6964 38.4 L147.25 38 L148.3571 37.6 L149.4643 36.6 L150.5714 36.2 L151.6786 34.8 L152.7857 34.8 L153.8929 33.6 L155 33.8"/>
</g>
</g>
</svg>