<svg viewBox="0 0 155 58" preserveAspectRatio="none" class="svggraph" id="svgthumb_us" style="overflow:visible;width:155px;height:58px;" xmlns="http://www.w3.org/2000/svg" xlink="http://www.w3.org/1999/xlink" title="Chart for eloise">
<title>Last ranked
#138 in 2020</title>
<rect x="2" y="43" height="13" width="17" style="fill:rgb(200,200,200)"/>
<image x="2.5" y="43.5" href="/images/flags/24/us.png" preserveAspectRatio="xMinYMax meet" width="16" height="12"/>
<text x="153" y="55" class="svgtitle" text-anchor="end" style="fill:#000000;font-size:13px;">United States</text>
<line x1="0" y1="41" x2="155" y2="41" class="svggridline" style="stroke:rgb(200,200,200);stroke-width:1.3"/>
<g id="svgthumb_us-namepaths">
<g style="fill:none;stroke:#ff0000;stroke-width:1.3;" class="svgcurveline" id="svgthumb_us-eloise-f">
<path d="M0 38.8 L1.1071 38.2 L2.2143 39 L3.3214 38 L4.4286 38.2 L5.5357 36.8 L6.6429 36 L7.75 37 L8.8571 37.4 L9.9643 37.4 L11.0714 36.4 L12.1786 36.4 L13.2857 36 L14.3929 36.4 L15.5 36.2 L16.6071 36.4 L17.7143 34.8 L18.8214 35.6 L19.9286 34.4 L21.0357 33.6 L22.1429 34.2 L23.25 34 L24.3571 32.2 L25.4643 31.4 L26.5714 32.8 L27.6786 31.2 L28.7857 29.8 L29.8929 29.4 L31 29.6 L32.1071 27.8 L33.2143 28 L34.3214 26.4 L35.4286 24.8 L36.5357 24.8 L37.6429 24.4 L38.75 25.4 L39.8571 23.4 L40.9643 23.8 L42.0714 23.4 L43.1786 23.4 L44.2857 21 L45.3929 19.4 L46.5 21.4 L47.6071 22 L48.7143 22.2 L49.8214 21.8 L50.9286 21.4 L52.0357 22.2 L53.1429 22.8 L54.25 23.4 L55.3571 23.4 L56.4643 24.2 L57.5714 25.4 L58.6786 25.4 L59.7857 27.8 L60.8929 27.6 L62 29.6 L63.1071 29.4 L64.2143 30.4 L65.3214 31.6 L66.4286 32.4 L67.5357 31.6 L68.6429 30.2 L69.75 31 L70.8571 32.2 L71.9643 32.8 L73.0714 33.4 L74.1786 34.6 L75.2857 35.2 L76.3929 35.4 L77.5 35 L78.6071 35.8 L79.7143 36.4 L80.8214 36.4 L81.9286 37.4 L83.0357 37.6 L84.1429 37.6 L85.25 38 L86.3571 38.8 L87.4643 39 L88.5714 39.2 L89.6786 39.2 L90.7857 39.2 L91.8929 39.4 L93 39.8 L94.1071 39.4 L94.6607 39.8 M141.1607 38.4 L141.7143 38.4 L142.8214 38 L143.9286 35.4 L145.0357 34 L146.1429 32.2 L147.25 31 L148.3571 30 L149.4643 28 L150.5714 24.8 L151.6786 23.8 L152.7857 22.2 L153.8929 20.2 L155 18.8"/>
</g>
</g>
</svg>