<svg viewBox="0 0 155 58" preserveAspectRatio="none" class="svggraph" id="svgthumb_us" style="overflow:visible;width:155px;height:58px;" xmlns="http://www.w3.org/2000/svg" xlink="http://www.w3.org/1999/xlink" title="Chart for elsie">
<title>Last ranked
#233 in 2020 (f)
#856 in 1911 (m)</title>
<rect x="2" y="43" height="13" width="17" style="fill:rgb(200,200,200)"/>
<image x="2.5" y="43.5" href="/images/flags/24/us.png" preserveAspectRatio="xMinYMax meet" width="16" height="12"/>
<text x="153" y="55" class="svgtitle" text-anchor="end" style="fill:#000000;font-size:13px;">United States</text>
<line x1="0" y1="41" x2="155" y2="41" class="svggridline" style="stroke:rgb(200,200,200);stroke-width:1.3"/>
<g id="svgthumb_us-namepaths">
<g style="fill:none;stroke:#ff0000;stroke-width:1.3;" class="svgcurveline" id="svgthumb_us-elsie-f">
<path d="M0 25.6 L1.1071 23.6 L2.2143 21.65 L3.3214 21.05 L4.4286 21.05 L5.5357 16.85 L6.6429 18.3 L7.75 14.2 L8.8571 11.65 L9.9643 9.3 L11.0714 10.75 L12.1786 7.85 L13.2857 7.9 L14.3929 5.8 L15.5 4.65 L16.6071 4.7 L17.7143 3.75 L18.8214 5.5 L19.9286 6 L21.0357 6.55 L22.1429 8.8 L23.25 6.65 L24.3571 10.3 L25.4643 10.1 L26.5714 11.6 L27.6786 11.8 L28.7857 12.75 L29.8929 13.25 L31 13.05 L32.1071 12.95 L33.2143 15.5 L34.3214 15.85 L35.4286 16.35 L36.5357 16.5 L37.6429 17.9 L38.75 16.75 L39.8571 17.85 L40.9643 19 L42.0714 19.4 L43.1786 19.75 L44.2857 20.95 L45.3929 21.95 L46.5 22.5 L47.6071 22.85 L48.7143 23.65 L49.8214 24.6 L50.9286 25.1 L52.0357 25.6 L53.1429 26.5 L54.25 27.05 L55.3571 28.25 L56.4643 28.3 L57.5714 29.45 L58.6786 29.65 L59.7857 30.5 L60.8929 31.45 L62 32.3 L63.1071 32.2 L64.2143 33.2 L65.3214 33.5 L66.4286 34.8 L67.5357 35.3 L68.6429 35.95 L69.75 36.65 L70.8571 37 L71.9643 37.35 L73.0714 37.75 L74.1786 38.4 L75.2857 38.4 L76.3929 38.95 L77.5 39.05 L78.6071 39.3 L79.7143 39.5 L80.8214 39.45 L81.9286 39.6 L83.0357 39.7 L84.1429 39.85 L85.25 39.8 L86.3571 40 L87.4643 40.05 L88.5714 40.15 L89.6786 40.15 L90.7857 40.25 L91.8929 40.25 L93 40.35 L94.1071 40.3 L95.2143 40.35 L96.3214 40.4 L97.4286 40.5 L98.5357 40.55 L99.6429 40.55 L100.75 40.6 L101.8571 40.6 L102.9643 40.55 L104.0714 40.55 L105.1786 40.55 L105.7321 40.6 M137.8393 40.4 L138.3929 40.35 L139.5 40.25 L140.6071 40.25 L141.7143 40.05 L142.8214 39.95 L143.9286 39.85 L145.0357 39.4 L146.1429 38.95 L147.25 38.75 L148.3571 38.45 L149.4643 38.8 L150.5714 38.45 L151.6786 38.1 L152.7857 37.8 L153.8929 37.5 L155 37.4"/>
</g>
<g style="fill:none;stroke:#0000ff;stroke-width:1.3;" class="svgcurveline" id="svgthumb_us-elsie-m">
<path d="M0 40.75 L0.5536 40.8 M4.9821 40.8 L5.5357 40.8 L6.6429 40.75 L7.1964 40.75 M8.3036 40.75 L8.8571 40.75 L9.4107 40.8 M10.5179 40.8 L11.0714 40.65 L12.1786 40.65 L13.2857 40.65 L14.3929 40.6 L15.5 40.65 L16.6071 40.65 L17.1607 40.75 M18.2679 40.75 L18.8214 40.7 L19.375 40.75 M20.4821 40.75 L21.0357 40.55 L22.1429 40.55 L23.25 40.55 L24.3571 40.45 L25.4643 40.55 L26.5714 40.55 L27.125 40.7 M28.2321 40.7 L28.7857 40.6 L29.8929 40.7 L30.4464 40.75 M31.5536 40.75 L32.1071 40.65 L33.2143 40.6 L34.3214 40.7 L34.875 40.75"/>
</g>
</g>
</svg>