<svg viewBox="0 0 155 58" preserveAspectRatio="none" class="svggraph" id="svgthumb_us" style="overflow:visible;width:155px;height:58px;" xmlns="http://www.w3.org/2000/svg" xlink="http://www.w3.org/1999/xlink" title="Chart for emelia">
<title>Last ranked
#448 in 2020</title>
<rect x="2" y="43" height="13" width="17" style="fill:rgb(200,200,200)"/>
<image x="2.5" y="43.5" href="/images/flags/24/us.png" preserveAspectRatio="xMinYMax meet" width="16" height="12"/>
<text x="153" y="55" class="svgtitle" text-anchor="end" style="fill:#000000;font-size:13px;">United States</text>
<line x1="0" y1="41" x2="155" y2="41" class="svggridline" style="stroke:rgb(200,200,200);stroke-width:1.3"/>
<g id="svgthumb_us-namepaths">
<g style="fill:none;stroke:#ff0000;stroke-width:1.3;" class="svgcurveline" id="svgthumb_us-emelia-f">
<path d="M0 33 L1.1071 34.3333 L2.2143 31 L3.3214 25 L4.4286 35 L5.5357 27.6667 L6.6429 33 L7.75 29.6667 L8.8571 29.6667 L9.9643 36.3333 L11.0714 29.6667 L12.1786 30.3333 L13.2857 34.3333 L14.3929 31 L15.5 33.6667 L16.6071 33.6667 L17.7143 34.3333 L18.8214 35 L19.9286 35 L21.0357 33.6667 L22.1429 35.6667 L23.25 33.6667 L24.3571 35 L25.4643 35.6667 L26.5714 37.6667 L27.6786 37.6667 L28.7857 34.3333 L29.8929 37.6667 L31 35.6667 L32.1071 37 L33.2143 36.3333 L34.3214 37.6667 L34.875 37.6667 M35.9821 37.6667 L36.5357 37.6667 L37.6429 37.6667 L38.75 37.6667 L39.8571 38.3333 L40.9643 37.6667 L42.0714 37.6667 L42.625 38.3333 M44.8393 38.3333 L45.3929 37.6667 L45.9464 38.3333 M141.1607 32.3333 L141.7143 31.6667 L142.8214 30.3333 L143.9286 29.6667 L145.0357 28.3333 L146.1429 27 L147.25 25.6667 L148.3571 25 L149.4643 23.6667 L150.5714 22.3333 L151.6786 21 L152.7857 17.6667 L153.8929 15.6667 L155 15"/>
</g>
</g>
</svg>