<svg viewBox="0 0 155 58" preserveAspectRatio="none" class="svggraph" id="svgthumb_us" style="overflow:visible;width:155px;height:58px;" xmlns="http://www.w3.org/2000/svg" xlink="http://www.w3.org/1999/xlink" title="Chart for emery">
<title>Last ranked
#89 in 2020 (f)
#738 in 2020 (m)</title>
<rect x="2" y="43" height="13" width="17" style="fill:rgb(200,200,200)"/>
<image x="2.5" y="43.5" href="/images/flags/24/us.png" preserveAspectRatio="xMinYMax meet" width="16" height="12"/>
<text x="153" y="55" class="svgtitle" text-anchor="end" style="fill:#000000;font-size:13px;">United States</text>
<line x1="0" y1="41" x2="155" y2="41" class="svggridline" style="stroke:rgb(200,200,200);stroke-width:1.3"/>
<g id="svgthumb_us-namepaths">
<g style="fill:none;stroke:#ff0000;stroke-width:1.3;" class="svgcurveline" id="svgthumb_us-emery-f">
<path d=" M137.8393 38.6 L138.3929 37.8 L139.5 37.6 L140.6071 36 L141.7143 34.4 L142.8214 31.4 L143.9286 30.6 L145.0357 28.8 L146.1429 25.6 L147.25 23.6 L148.3571 20 L149.4643 16.2 L150.5714 16 L151.6786 12.4 L152.7857 8.6 L153.8929 8 L155 7.2"/>
</g>
<g style="fill:none;stroke:#0000ff;stroke-width:1.3;" class="svgcurveline" id="svgthumb_us-emery-m">
<path d="M0 32.2 L1.1071 31.2 L2.2143 32.4 L3.3214 33.4 L4.4286 32.6 L5.5357 34 L6.6429 33.6 L7.75 35 L8.8571 35.4 L9.9643 34 L11.0714 35.4 L12.1786 34.2 L13.2857 33.6 L14.3929 32.6 L15.5 34.6 L16.6071 35.2 L17.7143 34.6 L18.8214 33.6 L19.9286 33.8 L21.0357 34.4 L22.1429 35.8 L23.25 35 L24.3571 35.2 L25.4643 35.6 L26.5714 36.6 L27.6786 34.8 L28.7857 36.2 L29.8929 35.6 L31 35.2 L32.1071 35.6 L33.2143 35.8 L34.3214 35.2 L35.4286 35 L36.5357 34.6 L37.6429 34.8 L38.75 34.8 L39.8571 35.2 L40.9643 35 L42.0714 35.8 L43.1786 35 L44.2857 35.8 L45.3929 35.8 L46.5 36 L47.6071 36.6 L48.7143 36.4 L49.8214 36.6 L50.9286 37.2 L52.0357 37.2 L53.1429 37 L54.25 37.2 L55.3571 37.6 L56.4643 37.6 L57.5714 38 L58.6786 37.8 L59.7857 37.6 L60.8929 37.6 L62 38.4 L63.1071 38.4 L64.2143 38.2 L65.3214 38.2 L66.4286 38.6 L67.5357 38.6 L68.6429 38.8 L69.75 39.2 L70.8571 39.4 L71.9643 39.2 L73.0714 39.6 L74.1786 39.4 L75.2857 39.4 L76.3929 39.4 L77.5 39.6 L78.6071 39.4 L79.7143 39.6 L80.8214 39.8 L81.9286 39.8 L83.0357 39.8 L84.1429 39.6 L85.25 39.8 L86.3571 40 L87.4643 40 L88.5714 39.6 L89.6786 39.8 L90.7857 39.6 L91.8929 39.8 L93 39.8 L94.1071 39.8 L95.2143 40.2 L96.3214 40.2 L97.4286 40 L98.5357 40 L99.6429 40.2 L100.75 40.2 L101.8571 40.2 L102.9643 40 L103.5179 40.2 M104.625 40.2 L105.1786 40 L106.2857 40.2 L106.8393 40.2 M109.0536 40.2 L109.6071 40 L110.1607 40.2 M112.375 40.2 L112.9286 40.2 L113.4821 40.2 M140.0536 39.4 L140.6071 39.2 L141.7143 38.2 L142.8214 38.2 L143.9286 38 L145.0357 37.8 L146.1429 37.4 L147.25 37.8 L148.3571 37.4 L149.4643 37.8 L150.5714 37.6 L151.6786 38 L152.7857 38 L153.8929 37.6 L155 37.4"/>
</g>
</g>
</svg>