<svg viewBox="0 0 155 58" preserveAspectRatio="none" class="svggraph" id="svgthumb_us" style="overflow:visible;width:155px;height:58px;" xmlns="http://www.w3.org/2000/svg" xlink="http://www.w3.org/1999/xlink" title="Chart for emerson">
<title>Last ranked
#155 in 2020 (f)
#267 in 2020 (m)</title>
<rect x="2" y="43" height="13" width="17" style="fill:rgb(200,200,200)"/>
<image x="2.5" y="43.5" href="/images/flags/24/us.png" preserveAspectRatio="xMinYMax meet" width="16" height="12"/>
<text x="153" y="55" class="svgtitle" text-anchor="end" style="fill:#000000;font-size:13px;">United States</text>
<line x1="0" y1="41" x2="155" y2="41" class="svggridline" style="stroke:rgb(200,200,200);stroke-width:1.3"/>
<g id="svgthumb_us-namepaths">
<g style="fill:none;stroke:#ff0000;stroke-width:1.3;" class="svgcurveline" id="svgthumb_us-emerson-f">
<path d=" M134.5179 38.8 L135.0714 38.2 L136.1786 37.8 L137.2857 38.4 L138.3929 34.2 L139.5 30.8 L140.6071 30.8 L141.7143 29.8 L142.8214 31 L143.9286 30.6 L145.0357 29.2 L146.1429 27.4 L147.25 25.2 L148.3571 23.8 L149.4643 22.6 L150.5714 20.6 L151.6786 20 L152.7857 20 L153.8929 20.6 L155 20.8"/>
</g>
<g style="fill:none;stroke:#0000ff;stroke-width:1.3;" class="svgcurveline" id="svgthumb_us-emerson-m">
<path d="M0 36.8 L1.1071 37.4 L2.2143 38.6 L3.3214 37.4 L4.4286 38.6 L5.5357 38 L6.6429 38.2 L7.75 38 L8.8571 38.2 L9.9643 37.4 L11.0714 38.8 L12.1786 37.2 L13.2857 38.2 L14.3929 37.6 L15.5 37.4 L16.6071 37.6 L17.7143 38 L18.8214 38.8 L19.9286 37.2 L21.0357 37.8 L22.1429 36.8 L23.25 36.6 L24.3571 36.8 L25.4643 37 L26.5714 36.6 L27.6786 36 L28.7857 37.2 L29.8929 35.8 L31 37.2 L32.1071 36.4 L33.2143 36 L34.3214 36.2 L35.4286 34.8 L36.5357 36.8 L37.6429 36.2 L38.75 35.8 L39.8571 36.2 L40.9643 36.2 L42.0714 35.8 L43.1786 35.8 L44.2857 36.2 L45.3929 36.8 L46.5 36.4 L47.6071 37 L48.7143 36.8 L49.8214 37 L50.9286 37.8 L52.0357 37.8 L53.1429 37.8 L54.25 38.8 L55.3571 38 L56.4643 38.6 L57.5714 38.4 L58.6786 38.6 L59.7857 38.6 L60.8929 39 L62 39 L63.1071 38.8 L64.2143 38.8 L65.3214 39.4 L66.4286 38.8 L67.5357 39.2 L68.6429 39.4 L69.75 39.4 L70.8571 39.6 L71.9643 39.8 L73.0714 39.8 L74.1786 39.8 L75.2857 39.8 L76.3929 39.8 L77.5 39.8 L78.6071 39.8 L79.7143 40.2 L80.8214 40 L81.9286 39.8 L83.0357 40.2 L84.1429 40.2 L85.25 40.2 L86.3571 40.2 L87.4643 40.2 L88.5714 40.2 L89.6786 40.4 L90.7857 40.2 L91.8929 40.2 L93 40.2 L94.1071 40.2 L95.2143 40.2 L96.3214 40.2 L97.4286 40.2 L97.9821 40.4 M99.0893 40.4 L99.6429 40.2 L100.1964 40.2 M101.3036 40.2 L101.8571 40.2 L102.9643 40.2 L103.5179 40.2 M105.7321 40.2 L106.2857 40 L106.8393 40.2 M114.5893 40.2 L115.1429 40 L116.25 40 L117.3571 40 L117.9107 40 M119.0179 40 L119.5714 40 L120.6786 40 L121.7857 39.8 L122.3393 40 M123.4464 40 L124 39.8 L125.1071 39.8 L125.6607 39.8 M126.7679 39.8 L127.3214 39.6 L128.4286 39.8 L128.9821 39.8 M130.0893 39.8 L130.6429 39.4 L131.75 39.4 L132.8571 39.4 L133.9643 38.8 L135.0714 38.8 L136.1786 38.4 L137.2857 38.4 L138.3929 37.4 L139.5 36.8 L140.6071 36.2 L141.7143 35.6 L142.8214 35 L143.9286 34.8 L145.0357 33.8 L146.1429 32.8 L147.25 31.4 L148.3571 30.6 L149.4643 29.2 L150.5714 28.8 L151.6786 27.6 L152.7857 28.2 L153.8929 27 L155 27.2"/>
</g>
</g>
</svg>