<svg viewBox="0 0 155 58" preserveAspectRatio="none" class="svggraph" id="svgthumb_us" style="overflow:visible;width:155px;height:58px;" xmlns="http://www.w3.org/2000/svg" xlink="http://www.w3.org/1999/xlink" title="Chart for emilia">
<title>Last ranked
#40 in 2020</title>
<rect x="2" y="43" height="13" width="17" style="fill:rgb(200,200,200)"/>
<image x="2.5" y="43.5" href="/images/flags/24/us.png" preserveAspectRatio="xMinYMax meet" width="16" height="12"/>
<text x="153" y="55" class="svgtitle" text-anchor="end" style="fill:#000000;font-size:13px;">United States</text>
<line x1="0" y1="41" x2="155" y2="41" class="svggridline" style="stroke:rgb(200,200,200);stroke-width:1.3"/>
<g id="svgthumb_us-namepaths">
<g style="fill:none;stroke:#ff0000;stroke-width:1.3;" class="svgcurveline" id="svgthumb_us-emilia-f">
<path d="M0 39.8 L1.1071 40.0667 L2.2143 40.0667 L3.3214 39.2667 L4.4286 39.8 L5.5357 39.6667 L6.6429 39.6667 L7.75 40.2 L8.8571 39.4 L9.9643 39.6667 L11.0714 39.8 L12.1786 39.6667 L13.2857 39.8 L14.3929 39.8 L15.5 39.4 L16.6071 39.6667 L17.7143 39.6667 L18.8214 39.5333 L19.9286 39.8 L21.0357 39.4 L22.1429 39.4 L23.25 39.8 L24.3571 39.6667 L25.4643 39 L26.5714 39.5333 L27.6786 39.5333 L28.7857 39.4 L29.8929 39 L31 39.4 L32.1071 39.2667 L33.2143 39.6667 L34.3214 39.6667 L35.4286 39.9333 L36.5357 39 L37.6429 39.5333 L38.75 39.4 L39.8571 39.6667 L40.9643 39.5333 L42.0714 39.6667 L43.1786 39.6667 L44.2857 39.8 L45.3929 39.6667 L46.5 39.6667 L47.6071 39.6667 L48.7143 39.5333 L49.8214 39.6667 L50.9286 39.6667 L52.0357 39.6667 L53.1429 39.8 L54.25 39.8 L55.3571 39.6667 L56.4643 39.9333 L57.5714 39.9333 L58.6786 39.9333 L59.7857 39.8 L60.8929 40.2 L62 40.3333 L63.1071 40.0667 L64.2143 40.2 L65.3214 40.2 L66.4286 40.2 L67.5357 40.2 L68.6429 40.3333 L69.1964 40.4667 M73.625 40.4667 L74.1786 40.3333 L75.2857 40.4667 L75.8393 40.4667 M112.375 39.9333 L112.9286 39.8 L113.4821 39.9333 M119.0179 39.9333 L119.5714 39.8 L120.125 39.8 M121.2321 39.8 L121.7857 39.8 L122.8929 39.6667 L124 39.6667 L125.1071 39.6667 L126.2143 39.5333 L127.3214 39.5333 L128.4286 39.4 L129.5357 39.4 L130.6429 39.2667 L131.75 39 L132.8571 38.3333 L133.9643 38.2 L135.0714 37.5333 L136.1786 37.2667 L137.2857 36.8667 L138.3929 36.3333 L139.5 36.2 L140.6071 36.0667 L141.7143 35.8 L142.8214 35.8 L143.9286 34.7333 L145.0357 34.3333 L146.1429 32.6 L147.25 30.2 L148.3571 27.4 L149.4643 25.8 L150.5714 20.0667 L151.6786 15.5333 L152.7857 11.9333 L153.8929 6.2 L155 4.8667"/>
</g>
</g>
</svg>