<svg viewBox="0 0 155 58" preserveAspectRatio="none" class="svggraph" id="svgthumb_us" style="overflow:visible;width:155px;height:58px;" xmlns="http://www.w3.org/2000/svg" xlink="http://www.w3.org/1999/xlink" title="Chart for emily">
<title>Last ranked
#18 in 2020</title>
<rect x="2" y="43" height="13" width="17" style="fill:rgb(200,200,200)"/>
<image x="2.5" y="43.5" href="/images/flags/24/us.png" preserveAspectRatio="xMinYMax meet" width="16" height="12"/>
<text x="153" y="55" class="svgtitle" text-anchor="end" style="fill:#000000;font-size:13px;">United States</text>
<line x1="0" y1="41" x2="155" y2="41" class="svggridline" style="stroke:rgb(200,200,200);stroke-width:1.3"/>
<g id="svgthumb_us-namepaths">
<g style="fill:none;stroke:#ff0000;stroke-width:1.3;" class="svgcurveline" id="svgthumb_us-emily-f">
<path d="M0 34.8571 L1.1071 33.9429 L2.2143 34.2857 L3.3214 32.8571 L4.4286 33.4286 L5.5357 34.0286 L6.6429 34.1429 L7.75 34.8286 L8.8571 34.1143 L9.9643 34.5143 L11.0714 33.8 L12.1786 34.5429 L13.2857 34.4286 L14.3929 34.5714 L15.5 34.3143 L16.6071 34 L17.7143 35.0286 L18.8214 33.8857 L19.9286 34.4571 L21.0357 34.4286 L22.1429 35.3714 L23.25 34.9714 L24.3571 34.8286 L25.4643 35.2571 L26.5714 35.1429 L27.6786 34.7143 L28.7857 35.3714 L29.8929 34.9429 L31 35.1143 L32.1071 35.2 L33.2143 35.6571 L34.3214 35.1143 L35.4286 35.4286 L36.5357 34.9429 L37.6429 35.0857 L38.75 35.1714 L39.8571 35.1714 L40.9643 35.3429 L42.0714 35.4 L43.1786 35.4 L44.2857 36.0286 L45.3929 36.1143 L46.5 36.0857 L47.6071 36.3143 L48.7143 36.4857 L49.8214 37 L50.9286 36.9714 L52.0357 37.1714 L53.1429 37.2857 L54.25 37.4286 L55.3571 37.7143 L56.4643 37.9143 L57.5714 38.0286 L58.6786 38.0857 L59.7857 38.1714 L60.8929 38.1143 L62 38.0286 L63.1071 37.6571 L64.2143 37.7143 L65.3214 37.7429 L66.4286 37.9429 L67.5357 37.8571 L68.6429 38.0857 L69.75 38.3429 L70.8571 38.3714 L71.9643 38.6 L73.0714 38.5714 L74.1786 38.6857 L75.2857 38.7143 L76.3929 38.7429 L77.5 38.8571 L78.6071 39 L79.7143 38.9143 L80.8214 39.0286 L81.9286 39.0857 L83.0357 39.1429 L84.1429 39.2286 L85.25 39.3429 L86.3571 39.3714 L87.4643 39.3429 L88.5714 39.3143 L89.6786 39.4286 L90.7857 39.4857 L91.8929 39.4 L93 39.3429 L94.1071 39 L95.2143 38.9714 L96.3214 39 L97.4286 38.7714 L98.5357 38.4571 L99.6429 38 L100.75 37.9714 L101.8571 36.8571 L102.9643 35.4286 L104.0714 33.1143 L105.1786 30.9714 L106.2857 30.9143 L107.3929 29.0571 L108.5 28 L109.6071 27.7714 L110.7143 26.5429 L111.8214 23.7429 L112.9286 21.2857 L114.0357 21.2286 L115.1429 20.7429 L116.25 20.6571 L117.3571 20.5143 L118.4643 18.5714 L119.5714 17.4286 L120.6786 16.1429 L121.7857 14.0571 L122.8929 12.4571 L124 9.8857 L125.1071 6.8 L126.2143 5.6 L127.3214 4.7429 L128.4286 3.5143 L129.5357 2.4857 L130.6429 2.4 L131.75 2.0571 L132.8571 3.8286 L133.9643 4.8571 L135.0714 5.6 L136.1786 4.4 L137.2857 5.5429 L138.3929 7.2857 L139.5 11.7143 L140.6071 14.8571 L141.7143 17.0571 L142.8214 19.3143 L143.9286 20.1714 L145.0357 19.9429 L146.1429 20.8571 L147.25 21.5143 L148.3571 22.5143 L149.4643 23.7143 L150.5714 24.7429 L151.6786 26.1429 L152.7857 27.6 L153.8929 28.1143 L155 29.8"/>
</g>
</g>
</svg>