<svg viewBox="0 0 155 58" preserveAspectRatio="none" class="svggraph" id="svgthumb_us" style="overflow:visible;width:155px;height:58px;" xmlns="http://www.w3.org/2000/svg" xlink="http://www.w3.org/1999/xlink" title="Chart for emma">
<title>Last ranked
#2 in 2020 (f)
#729 in 1910 (m)</title>
<rect x="2" y="43" height="13" width="17" style="fill:rgb(200,200,200)"/>
<image x="2.5" y="43.5" href="/images/flags/24/us.png" preserveAspectRatio="xMinYMax meet" width="16" height="12"/>
<text x="153" y="55" class="svgtitle" text-anchor="end" style="fill:#000000;font-size:13px;">United States</text>
<line x1="0" y1="41" x2="155" y2="41" class="svggridline" style="stroke:rgb(200,200,200);stroke-width:1.3"/>
<g id="svgthumb_us-namepaths">
<g style="fill:none;stroke:#ff0000;stroke-width:1.3;" class="svgcurveline" id="svgthumb_us-emma-f">
<path d="M0 1.9143 L1.1071 1.8 L2.2143 3.0762 L3.3214 3.4381 L4.4286 5.1905 L5.5357 4.3905 L6.6429 6.7524 L7.75 8.5619 L8.8571 9.9714 L9.9643 11.9714 L11.0714 12.8476 L12.1786 13.0571 L13.2857 14.5048 L14.3929 15.8952 L15.5 17.2857 L16.6071 18.2381 L17.7143 19.2857 L18.8214 20.2952 L19.9286 21.6286 L21.0357 22.181 L22.1429 22.4476 L23.25 23.2095 L24.3571 23.9143 L25.4643 25.1905 L26.5714 25.9333 L27.6786 26.8667 L28.7857 27.4762 L29.8929 27.7048 L31 28.3333 L32.1071 28.9048 L33.2143 29.1714 L34.3214 29.7238 L35.4286 30.1048 L36.5357 30.9048 L37.6429 31.4952 L38.75 31.6095 L39.8571 31.8381 L40.9643 32.3143 L42.0714 32.5619 L43.1786 32.7524 L44.2857 32.981 L45.3929 33.4571 L46.5 33.3429 L47.6071 33.4381 L48.7143 33.8 L49.8214 33.8952 L50.9286 34.0667 L52.0357 34.3333 L53.1429 34.6 L54.25 34.7333 L55.3571 35.1905 L56.4643 35.2857 L57.5714 35.2667 L58.6786 35.2667 L59.7857 35.819 L60.8929 36.0857 L62 35.9905 L63.1071 36.2571 L64.2143 36.5429 L65.3214 36.4857 L66.4286 36.7905 L67.5357 37.1143 L68.6429 37.4381 L69.75 37.781 L70.8571 37.8571 L71.9643 38.0857 L73.0714 38.5619 L74.1786 38.7524 L75.2857 38.7143 L76.3929 38.8286 L77.5 38.9429 L78.6071 39.2095 L79.7143 39.2857 L80.8214 39.4381 L81.9286 39.5333 L83.0357 39.6095 L84.1429 39.7619 L85.25 39.8952 L86.3571 39.9905 L87.4643 40.0286 L88.5714 40.1048 L89.6786 40.181 L90.7857 40.2571 L91.8929 40.3143 L93 40.2571 L94.1071 40.3333 L95.2143 40.3333 L96.3214 40.3714 L97.4286 40.4476 L98.5357 40.4476 L99.6429 40.4476 L100.75 40.4857 L101.8571 40.4667 L102.9643 40.4857 L104.0714 40.4095 L105.1786 40.4095 L106.2857 40.5048 L107.3929 40.4476 L108.5 40.4857 L109.6071 40.4667 L110.7143 40.4286 L111.8214 40.4286 L112.9286 40.4095 L114.0357 40.4095 L115.1429 40.2762 L116.25 40.0286 L117.3571 39.7048 L118.4643 39.381 L119.5714 39.2286 L120.6786 39.1524 L121.7857 38.7524 L122.8929 38.5619 L124 37.9524 L125.1071 37.0381 L126.2143 36.3524 L127.3214 35.9905 L128.4286 34.9048 L129.5357 33.2667 L130.6429 30.7333 L131.75 29.5143 L132.8571 29.019 L133.9643 28.2 L135.0714 25.0381 L136.1786 19.4381 L137.2857 20.6 L138.3929 21.8952 L139.5 23.5714 L140.6071 24.4476 L141.7143 23.781 L142.8214 24.1429 L143.9286 24.1238 L145.0357 22.5048 L146.1429 20.4095 L147.25 20.2762 L148.3571 20.581 L149.4643 21 L150.5714 21.7619 L151.6786 20.9619 L152.7857 21.7238 L153.8929 23.0762 L155 24.0476"/>
</g>
<g style="fill:none;stroke:#0000ff;stroke-width:1.3;" class="svgcurveline" id="svgthumb_us-emma-m">
<path d="M0 40.8476 L1.1071 40.8476 L2.2143 40.8857 L3.3214 40.8857 L4.4286 40.8667 L5.5357 40.7714 L6.6429 40.8286 L7.75 40.7524 L8.8571 40.7524 L9.9643 40.8476 L11.0714 40.7524 L12.1786 40.7714 L13.2857 40.8286 L14.3929 40.7714 L15.5 40.7714 L16.6071 40.8286 L17.7143 40.8286 L18.2679 40.9048 M19.375 40.9048 L19.9286 40.8857 L21.0357 40.8286 L22.1429 40.7524 L23.25 40.8667 L24.3571 40.8476 L25.4643 40.8476 L26.5714 40.8286 L27.125 40.8857 M28.2321 40.8857 L28.7857 40.8857 L29.8929 40.8667 L30.4464 40.9048 M32.6607 40.8857 L33.2143 40.8476 L33.7679 40.9048"/>
</g>
</g>
</svg>