<svg viewBox="0 0 155 58" preserveAspectRatio="none" class="svggraph" id="svgthumb_us" style="overflow:visible;width:155px;height:58px;" xmlns="http://www.w3.org/2000/svg" xlink="http://www.w3.org/1999/xlink" title="Chart for emory">
<title>Last ranked
#818 in 2020 (m)
#443 in 2020 (f)</title>
<rect x="2" y="43" height="13" width="17" style="fill:rgb(200,200,200)"/>
<image x="2.5" y="43.5" href="/images/flags/24/us.png" preserveAspectRatio="xMinYMax meet" width="16" height="12"/>
<text x="153" y="55" class="svgtitle" text-anchor="end" style="fill:#000000;font-size:13px;">United States</text>
<line x1="0" y1="41" x2="155" y2="41" class="svggridline" style="stroke:rgb(200,200,200);stroke-width:1.3"/>
<g id="svgthumb_us-namepaths">
<g style="fill:none;stroke:#0000ff;stroke-width:1.3;" class="svgcurveline" id="svgthumb_us-emory-m">
<path d="M0 18.3333 L1.1071 15 L2.2143 20.3333 L3.3214 18.3333 L4.4286 20.3333 L5.5357 21.6667 L6.6429 20.3333 L7.75 21 L8.8571 23 L9.9643 20.3333 L11.0714 25 L12.1786 27 L13.2857 21.6667 L14.3929 26.3333 L15.5 19.6667 L16.6071 19 L17.7143 17 L18.8214 19.6667 L19.9286 22.3333 L21.0357 17 L22.1429 19.6667 L23.25 15.6667 L24.3571 11.6667 L25.4643 24.3333 L26.5714 21 L27.6786 21 L28.7857 23 L29.8929 19 L31 24.3333 L32.1071 19.6667 L33.2143 23.6667 L34.3214 20.3333 L35.4286 23.6667 L36.5357 22.3333 L37.6429 22.3333 L38.75 23.6667 L39.8571 24.3333 L40.9643 24.3333 L42.0714 26.3333 L43.1786 26.3333 L44.2857 22.3333 L45.3929 25.6667 L46.5 25.6667 L47.6071 27 L48.7143 26.3333 L49.8214 25.6667 L50.9286 27.6667 L52.0357 27.6667 L53.1429 27.6667 L54.25 27.6667 L55.3571 29 L56.4643 27.6667 L57.5714 27 L58.6786 28.3333 L59.7857 31 L60.8929 30.3333 L62 28.3333 L63.1071 29.6667 L64.2143 31 L65.3214 30.3333 L66.4286 30.3333 L67.5357 31.6667 L68.6429 31.6667 L69.75 32.3333 L70.8571 32.3333 L71.9643 33 L73.0714 33.6667 L74.1786 35 L75.2857 33.6667 L76.3929 35.6667 L77.5 35 L78.6071 36.3333 L79.7143 36.3333 L80.8214 35.6667 L81.9286 35.6667 L83.0357 36.3333 L84.1429 37 L85.25 36.3333 L86.3571 37.6667 L87.4643 37 L88.5714 37 L89.6786 37 L90.7857 37 L91.8929 36.3333 L93 36.3333 L94.1071 37.6667 L95.2143 37 L96.3214 37.6667 L97.4286 37.6667 L98.5357 37.6667 L99.6429 38.3333 L100.75 37.6667 L101.3036 38.3333 M102.4107 38.3333 L102.9643 37.6667 L104.0714 38.3333 L104.625 38.3333 M145.5893 34.3333 L146.1429 34.3333 L147.25 33.6667 L148.3571 33 L149.4643 32.3333 L150.5714 32.3333 L151.6786 31.6667 L152.7857 31 L153.8929 31 L155 31"/>
</g>
<g style="fill:none;stroke:#ff0000;stroke-width:1.3;" class="svgcurveline" id="svgthumb_us-emory-f">
<path d=" M144.4821 32.3333 L145.0357 32.3333 L146.1429 30.3333 L147.25 29 L148.3571 28.3333 L149.4643 25.6667 L150.5714 25.6667 L151.6786 24.3333 L152.7857 17.6667 L153.8929 17 L155 15"/>
</g>
</g>
</svg>