<svg viewBox="0 0 155 58" preserveAspectRatio="none" class="svggraph" id="svgthumb_us" style="overflow:visible;width:155px;height:58px;" xmlns="http://www.w3.org/2000/svg" xlink="http://www.w3.org/1999/xlink" title="Chart for esmeralda">
<title>Last ranked
#395 in 2020</title>
<rect x="2" y="43" height="13" width="17" style="fill:rgb(200,200,200)"/>
<image x="2.5" y="43.5" href="/images/flags/24/us.png" preserveAspectRatio="xMinYMax meet" width="16" height="12"/>
<text x="153" y="55" class="svgtitle" text-anchor="end" style="fill:#000000;font-size:13px;">United States</text>
<line x1="0" y1="41" x2="155" y2="41" class="svggridline" style="stroke:rgb(200,200,200);stroke-width:1.3"/>
<g id="svgthumb_us-namepaths">
<g style="fill:none;stroke:#ff0000;stroke-width:1.3;" class="svgcurveline" id="svgthumb_us-esmeralda-f">
<path d=" M78.0536 40 L78.6071 40 L79.7143 39.8 L80.8214 40 L81.9286 39.8 L83.0357 39.8 L83.5893 40 M84.6964 40 L85.25 39.8 L86.3571 39.8 L87.4643 39.6 L88.5714 39.4 L89.6786 39.4 L90.7857 39.4 L91.8929 39.6 L93 39.2 L94.1071 39.2 L95.2143 39 L96.3214 39.2 L97.4286 39.2 L98.5357 39.2 L99.6429 38.6 L100.75 38.8 L101.8571 37.8 L102.9643 35.2 L104.0714 36 L105.1786 35.4 L106.2857 34.8 L107.3929 35.2 L108.5 35.2 L109.6071 35 L110.7143 35.2 L111.8214 35.2 L112.9286 35.2 L114.0357 36 L115.1429 36.6 L116.25 36.4 L117.3571 36 L118.4643 35.8 L119.5714 36 L120.6786 35.4 L121.7857 35.2 L122.8929 35 L124 34.8 L125.1071 34 L126.2143 34 L127.3214 34.2 L128.4286 33 L129.5357 26.4 L130.6429 15.4 L131.75 22.8 L132.8571 24.6 L133.9643 24.6 L135.0714 24.8 L136.1786 24.6 L137.2857 25 L138.3929 25 L139.5 26.2 L140.6071 24.6 L141.7143 28.2 L142.8214 30 L143.9286 29 L145.0357 31.2 L146.1429 31.8 L147.25 32.8 L148.3571 32.2 L149.4643 32 L150.5714 32 L151.6786 32.2 L152.7857 32 L153.8929 32 L155 32.2"/>
</g>
</g>
</svg>