<svg viewBox="0 0 155 58" preserveAspectRatio="none" class="svggraph" id="svgthumb_us" style="overflow:visible;width:155px;height:58px;" xmlns="http://www.w3.org/2000/svg" xlink="http://www.w3.org/1999/xlink" title="Chart for esther">
<title>Last ranked
#153 in 2020 (f)
#925 in 1911 (m)</title>
<rect x="2" y="43" height="13" width="17" style="fill:rgb(200,200,200)"/>
<image x="2.5" y="43.5" href="/images/flags/24/us.png" preserveAspectRatio="xMinYMax meet" width="16" height="12"/>
<text x="153" y="55" class="svgtitle" text-anchor="end" style="fill:#000000;font-size:13px;">United States</text>
<line x1="0" y1="41" x2="155" y2="41" class="svggridline" style="stroke:rgb(200,200,200);stroke-width:1.3"/>
<g id="svgthumb_us-namepaths">
<g style="fill:none;stroke:#ff0000;stroke-width:1.3;" class="svgcurveline" id="svgthumb_us-esther-f">
<path d="M0 30.85 L1.1071 31.45 L2.2143 29.5 L3.3214 30.15 L4.4286 30.4 L5.5357 29.75 L6.6429 28.1 L7.75 27.15 L8.8571 25.9 L9.9643 26.4 L11.0714 25.65 L12.1786 22.95 L13.2857 22.7 L14.3929 10.3 L15.5 5.95 L16.6071 4.5 L17.7143 2.05 L18.8214 2.5 L19.9286 3.65 L21.0357 4.15 L22.1429 9.25 L23.25 4.75 L24.3571 8.3 L25.4643 7.15 L26.5714 7.55 L27.6786 8.85 L28.7857 8.05 L29.8929 10.45 L31 10.15 L32.1071 11.3 L33.2143 12.65 L34.3214 10.7 L35.4286 10.6 L36.5357 9.75 L37.6429 11.8 L38.75 10.15 L39.8571 11.45 L40.9643 13.05 L42.0714 13.65 L43.1786 14.4 L44.2857 16.6 L45.3929 17.85 L46.5 19.05 L47.6071 19.8 L48.7143 20.7 L49.8214 22.3 L50.9286 22.9 L52.0357 23.5 L53.1429 23.85 L54.25 25.5 L55.3571 26.65 L56.4643 27.25 L57.5714 27.6 L58.6786 28.2 L59.7857 29.1 L60.8929 29.3 L62 30.55 L63.1071 31.2 L64.2143 31.65 L65.3214 31.7 L66.4286 32.95 L67.5357 33.75 L68.6429 34.4 L69.75 34.9 L70.8571 35.1 L71.9643 35.55 L73.0714 35.5 L74.1786 35.95 L75.2857 35.7 L76.3929 35.9 L77.5 36.05 L78.6071 36.1 L79.7143 36.5 L80.8214 36.8 L81.9286 36.9 L83.0357 37.1 L84.1429 37.35 L85.25 37.45 L86.3571 37.75 L87.4643 37.75 L88.5714 37.7 L89.6786 37.85 L90.7857 37.9 L91.8929 38.2 L93 38.4 L94.1071 38.35 L95.2143 38.55 L96.3214 38.8 L97.4286 38.85 L98.5357 39 L99.6429 39 L100.75 38.75 L101.8571 38.85 L102.9643 38.6 L104.0714 38.7 L105.1786 38.7 L106.2857 38.9 L107.3929 38.65 L108.5 38.85 L109.6071 38.8 L110.7143 38.65 L111.8214 38.45 L112.9286 38.4 L114.0357 38.6 L115.1429 38.55 L116.25 38.7 L117.3571 38.65 L118.4643 38.75 L119.5714 38.65 L120.6786 38.75 L121.7857 38.6 L122.8929 38.7 L124 38.65 L125.1071 38.7 L126.2143 38.55 L127.3214 38.6 L128.4286 38.7 L129.5357 38.55 L130.6429 38.6 L131.75 38.45 L132.8571 38.55 L133.9643 38.3 L135.0714 38.35 L136.1786 38.3 L137.2857 38.25 L138.3929 38.05 L139.5 38.25 L140.6071 38.05 L141.7143 37.95 L142.8214 37.9 L143.9286 37.8 L145.0357 37.5 L146.1429 37.55 L147.25 37.25 L148.3571 36.75 L149.4643 36.85 L150.5714 36.3 L151.6786 36.15 L152.7857 36 L153.8929 36.3 L155 35.9"/>
</g>
<g style="fill:none;stroke:#0000ff;stroke-width:1.3;" class="svgcurveline" id="svgthumb_us-esther-m">
<path d=" M10.5179 40.8 L11.0714 40.75 L11.625 40.75 M14.9464 40.75 L15.5 40.7 L16.6071 40.35 L17.1607 40.75 M18.2679 40.75 L18.8214 40.7 L19.9286 40.75 L20.4821 40.75 M22.6964 40.75 L23.25 40.55 L23.8036 40.75 M27.125 40.75 L27.6786 40.65 L28.2321 40.7 M29.3393 40.7 L29.8929 40.7 L30.4464 40.75 M31.5536 40.75 L32.1071 40.7 L32.6607 40.75 M33.7679 40.75 L34.3214 40.75 L34.875 40.75"/>
</g>
</g>
</svg>