<svg viewBox="0 0 155 58" preserveAspectRatio="none" class="svggraph" id="svgthumb_us" style="overflow:visible;width:155px;height:58px;" xmlns="http://www.w3.org/2000/svg" xlink="http://www.w3.org/1999/xlink" title="Chart for eva">
<title>Last ranked
#93 in 2020 (f)
#636 in 1909 (m)</title>
<rect x="2" y="43" height="13" width="17" style="fill:rgb(200,200,200)"/>
<image x="2.5" y="43.5" href="/images/flags/24/us.png" preserveAspectRatio="xMinYMax meet" width="16" height="12"/>
<text x="153" y="55" class="svgtitle" text-anchor="end" style="fill:#000000;font-size:13px;">United States</text>
<line x1="0" y1="41" x2="155" y2="41" class="svggridline" style="stroke:rgb(200,200,200);stroke-width:1.3"/>
<g id="svgthumb_us-namepaths">
<g style="fill:none;stroke:#ff0000;stroke-width:1.3;" class="svgcurveline" id="svgthumb_us-eva-f">
<path d="M0 9.55 L1.1071 7.55 L2.2143 7.95 L3.3214 4.4 L4.4286 7.25 L5.5357 6.8 L6.6429 3.45 L7.75 4.8 L8.8571 5.9 L9.9643 4.75 L11.0714 5.4 L12.1786 5.1 L13.2857 5.2 L14.3929 3.95 L15.5 5.55 L16.6071 5.25 L17.7143 5.7 L18.8214 6.6 L19.9286 7.75 L21.0357 9.05 L22.1429 8.15 L23.25 9.2 L24.3571 10.2 L25.4643 8.95 L26.5714 9.25 L27.6786 11.7 L28.7857 12.95 L29.8929 13.1 L31 13.8 L32.1071 15.25 L33.2143 15.7 L34.3214 17.15 L35.4286 18.55 L36.5357 18.95 L37.6429 19.65 L38.75 21.1 L39.8571 21.05 L40.9643 21.95 L42.0714 22 L43.1786 21.9 L44.2857 22.9 L45.3929 24.1 L46.5 24.2 L47.6071 25.15 L48.7143 25.3 L49.8214 25.75 L50.9286 26.8 L52.0357 27.2 L53.1429 27.55 L54.25 27.95 L55.3571 28.05 L56.4643 29.25 L57.5714 29.6 L58.6786 30.1 L59.7857 29.95 L60.8929 31.05 L62 31.7 L63.1071 31.65 L64.2143 32.65 L65.3214 32.8 L66.4286 33 L67.5357 33.55 L68.6429 34.25 L69.75 34.7 L70.8571 34.95 L71.9643 35.05 L73.0714 35.9 L74.1786 36.1 L75.2857 35.9 L76.3929 36.25 L77.5 36.4 L78.6071 36.75 L79.7143 36.5 L80.8214 36.85 L81.9286 36.7 L83.0357 36.55 L84.1429 36.3 L85.25 36.7 L86.3571 36.75 L87.4643 37.1 L88.5714 36.95 L89.6786 37.3 L90.7857 37.3 L91.8929 37.35 L93 37.35 L94.1071 37.35 L95.2143 37.3 L96.3214 37.45 L97.4286 37.95 L98.5357 37.9 L99.6429 38.2 L100.75 38.25 L101.8571 38.25 L102.9643 38.2 L104.0714 38.3 L105.1786 38.55 L106.2857 38.55 L107.3929 38.5 L108.5 38.4 L109.6071 38.7 L110.7143 38.65 L111.8214 38.6 L112.9286 38.65 L114.0357 38.7 L115.1429 38.95 L116.25 38.95 L117.3571 39 L118.4643 39.15 L119.5714 39.05 L120.6786 39.05 L121.7857 39.1 L122.8929 39 L124 39.1 L125.1071 39.15 L126.2143 39.05 L127.3214 39.05 L128.4286 38.95 L129.5357 39 L130.6429 38.8 L131.75 38.5 L132.8571 38.25 L133.9643 38.05 L135.0714 37.6 L136.1786 37.2 L137.2857 36.7 L138.3929 34.9 L139.5 34.35 L140.6071 34.15 L141.7143 33.85 L142.8214 32.6 L143.9286 32.65 L145.0357 32.05 L146.1429 32.3 L147.25 32.1 L148.3571 31.6 L149.4643 31.35 L150.5714 31.15 L151.6786 31.35 L152.7857 31.4 L153.8929 32.3 L155 32.95"/>
</g>
<g style="fill:none;stroke:#0000ff;stroke-width:1.3;" class="svgcurveline" id="svgthumb_us-eva-m">
<path d=" M7.1964 40.8 L7.75 40.75 L8.3036 40.75 M10.5179 40.8 L11.0714 40.55 L12.1786 40.7 L12.7321 40.75 M14.9464 40.75 L15.5 40.7 L16.0536 40.75 M18.2679 40.75 L18.8214 40.7 L19.9286 40.75 L21.0357 40.6 L22.1429 40.75 L23.25 40.5 L24.3571 40.7 L24.9107 40.75 M26.0179 40.75 L26.5714 40.65 L27.125 40.7 M30.4464 40.75 L31 40.65 L32.1071 40.5 L32.6607 40.75"/>
</g>
</g>
</svg>