<svg viewBox="0 0 155 58" preserveAspectRatio="none" class="svggraph" id="svgthumb_us" style="overflow:visible;width:155px;height:58px;" xmlns="http://www.w3.org/2000/svg" xlink="http://www.w3.org/1999/xlink" title="Chart for evangeline">
<title>Last ranked
#262 in 2020</title>
<rect x="2" y="43" height="13" width="17" style="fill:rgb(200,200,200)"/>
<image x="2.5" y="43.5" href="/images/flags/24/us.png" preserveAspectRatio="xMinYMax meet" width="16" height="12"/>
<text x="153" y="55" class="svgtitle" text-anchor="end" style="fill:#000000;font-size:13px;">United States</text>
<line x1="0" y1="41" x2="155" y2="41" class="svggridline" style="stroke:rgb(200,200,200);stroke-width:1.3"/>
<g id="svgthumb_us-namepaths">
<g style="fill:none;stroke:#ff0000;stroke-width:1.3;" class="svgcurveline" id="svgthumb_us-evangeline-f">
<path d=" M0.5536 39.2222 L1.1071 38.3333 L2.2143 37.4444 L3.3214 38.3333 L4.4286 37 L5.5357 38.3333 L6.6429 37.8889 L7.75 37.4444 L8.8571 37.8889 L9.9643 34.3333 L11.0714 37.4444 L12.1786 37.8889 L13.2857 36.5556 L14.3929 36.1111 L15.5 35.6667 L16.6071 36.5556 L17.7143 35.6667 L18.8214 31.6667 L19.9286 33.4444 L21.0357 33.4444 L22.1429 31.6667 L23.25 31.2222 L24.3571 31.6667 L25.4643 34.3333 L26.5714 33.8889 L27.6786 34.3333 L28.7857 34.3333 L29.8929 33 L31 33.8889 L32.1071 32.1111 L33.2143 33 L34.3214 33.8889 L35.4286 33 L36.5357 31.6667 L37.6429 33.4444 L38.75 33 L39.8571 33.8889 L40.9643 32.5556 L42.0714 33 L43.1786 32.1111 L44.2857 31.6667 L45.3929 32.1111 L46.5 31.6667 L47.6071 32.5556 L48.7143 32.1111 L49.8214 33.8889 L50.9286 33 L52.0357 31.2222 L53.1429 32.5556 L54.25 31.6667 L55.3571 30.3333 L56.4643 31.6667 L57.5714 32.1111 L58.6786 32.1111 L59.7857 33.4444 L60.8929 33 L62 34.3333 L63.1071 33.4444 L64.2143 34.7778 L65.3214 35.2222 L66.4286 34.3333 L67.5357 35.6667 L68.6429 36.1111 L69.75 37 L70.8571 36.5556 L71.9643 37.4444 L73.0714 36.5556 L74.1786 37.4444 L75.2857 37.8889 L76.3929 37.4444 L77.5 37.4444 L78.6071 37.8889 L79.7143 37 L80.8214 38.3333 L81.9286 37.4444 L83.0357 37.8889 L84.1429 37.8889 L85.25 37.8889 L86.3571 37.8889 L87.4643 38.3333 L88.5714 38.3333 L89.6786 37.8889 L90.7857 37.8889 L91.8929 37.8889 L93 37.8889 L94.1071 38.3333 L95.2143 37.8889 L95.7679 38.3333 M138.9464 35.6667 L139.5 30.7778 L140.6071 26.3333 L141.7143 25.8889 L142.8214 24.5556 L143.9286 19.2222 L145.0357 15.6667 L146.1429 15.6667 L147.25 16.5556 L148.3571 13.8889 L149.4643 13 L150.5714 10.3333 L151.6786 13 L152.7857 12.5556 L153.8929 11.2222 L155 11.6667"/>
</g>
</g>
</svg>