<svg viewBox="0 0 155 58" preserveAspectRatio="none" class="svggraph" id="svgthumb_us" style="overflow:visible;width:155px;height:58px;" xmlns="http://www.w3.org/2000/svg" xlink="http://www.w3.org/1999/xlink" title="Chart for eve">
<title>Last ranked
#471 in 2020</title>
<rect x="2" y="43" height="13" width="17" style="fill:rgb(200,200,200)"/>
<image x="2.5" y="43.5" href="/images/flags/24/us.png" preserveAspectRatio="xMinYMax meet" width="16" height="12"/>
<text x="153" y="55" class="svgtitle" text-anchor="end" style="fill:#000000;font-size:13px;">United States</text>
<line x1="0" y1="41" x2="155" y2="41" class="svggridline" style="stroke:rgb(200,200,200);stroke-width:1.3"/>
<g id="svgthumb_us-namepaths">
<g style="fill:none;stroke:#ff0000;stroke-width:1.3;" class="svgcurveline" id="svgthumb_us-eve-f">
<path d="M0 36.3333 L1.1071 34.3333 L2.2143 37.6667 L3.3214 37.6667 L4.4286 35.6667 L5.5357 36.3333 L6.6429 37.6667 L7.75 37 L8.8571 36.3333 L9.9643 36.3333 L11.0714 37.6667 L12.1786 36.3333 L13.2857 35.6667 L14.3929 34.3333 L15.5 35.6667 L16.6071 33.6667 L17.7143 33.6667 L18.8214 35.6667 L19.9286 33.6667 L21.0357 32.3333 L22.1429 33.6667 L23.25 34.3333 L24.3571 33 L25.4643 33 L26.5714 31.6667 L27.6786 31.6667 L28.7857 31 L29.8929 26.3333 L31 28.3333 L32.1071 29 L33.2143 29 L34.3214 30.3333 L35.4286 29 L36.5357 28.3333 L37.6429 30.3333 L38.75 31.6667 L39.8571 32.3333 L40.9643 33 L42.0714 33.6667 L43.1786 35 L44.2857 35.6667 L45.3929 35.6667 L46.5 37 L47.6071 37 L48.7143 35 L49.8214 37 L50.9286 37 L52.0357 36.3333 L53.1429 36.3333 L54.25 36.3333 L55.3571 36.3333 L56.4643 37.6667 L57.5714 37 L58.6786 37 L59.7857 36.3333 L60.8929 37.6667 L62 37.6667 L62.5536 37.6667 M63.6607 37.6667 L64.2143 37.6667 L65.3214 37 L66.4286 37 L67.5357 35.6667 L68.6429 37 L69.75 35.6667 L70.8571 35.6667 L71.9643 35 L73.0714 35.6667 L74.1786 37 L75.2857 37 L76.3929 37 L77.5 37 L78.6071 34.3333 L79.7143 34.3333 L80.8214 33.6667 L81.9286 33 L83.0357 32.3333 L84.1429 31 L85.25 31.6667 L86.3571 32.3333 L87.4643 31.6667 L88.5714 31 L89.6786 31 L90.7857 31 L91.8929 31 L93 31.6667 L94.1071 31.6667 L95.2143 32.3333 L96.3214 33 L97.4286 32.3333 L98.5357 33 L99.6429 32.3333 L100.75 31.6667 L101.8571 32.3333 L102.9643 33.6667 L104.0714 31 L105.1786 31 L106.2857 32.3333 L107.3929 32.3333 L108.5 32.3333 L109.6071 33 L110.7143 33 L111.8214 33 L112.9286 34.3333 L114.0357 35 L115.1429 35.6667 L115.6964 35.6667 M130.0893 34.3333 L130.6429 33 L131.75 29.6667 L132.8571 25 L133.9643 24.3333 L135.0714 25 L136.1786 24.3333 L137.2857 26.3333 L138.3929 27 L139.5 25.6667 L140.6071 25.6667 L141.7143 25.6667 L142.8214 23.6667 L143.9286 24.3333 L145.0357 23 L146.1429 23 L147.25 19.6667 L148.3571 17 L149.4643 17.6667 L150.5714 17 L151.6786 15 L152.7857 15 L153.8929 17.6667 L155 16.3333"/>
</g>
</g>
</svg>