<svg viewBox="0 0 155 58" preserveAspectRatio="none" class="svggraph" id="svgthumb_us" style="overflow:visible;width:155px;height:58px;" xmlns="http://www.w3.org/2000/svg" xlink="http://www.w3.org/1999/xlink" title="Chart for evelyn">
<title>Last ranked
#9 in 2020 (f)
#958 in 1930 (m)</title>
<rect x="2" y="43" height="13" width="17" style="fill:rgb(200,200,200)"/>
<image x="2.5" y="43.5" href="/images/flags/24/us.png" preserveAspectRatio="xMinYMax meet" width="16" height="12"/>
<text x="153" y="55" class="svgtitle" text-anchor="end" style="fill:#000000;font-size:13px;">United States</text>
<line x1="0" y1="41" x2="155" y2="41" class="svggridline" style="stroke:rgb(200,200,200);stroke-width:1.3"/>
<g id="svgthumb_us-namepaths">
<g style="fill:none;stroke:#ff0000;stroke-width:1.3;" class="svgcurveline" id="svgthumb_us-evelyn-f">
<path d="M0 36.8333 L1.1071 37.1 L2.2143 37.4 L3.3214 37.1333 L4.4286 36.8667 L5.5357 36.5 L6.6429 36.6 L7.75 36.8333 L8.8571 36.8333 L9.9643 35.3667 L11.0714 35.7667 L12.1786 34.8667 L13.2857 34.8 L14.3929 34.2333 L15.5 34.0667 L16.6071 32.5 L17.7143 32.4667 L18.8214 31.7333 L19.9286 30.8333 L21.0357 30.2 L22.1429 29.3 L23.25 28.3333 L24.3571 27.3 L25.4643 26.5 L26.5714 25.3667 L27.6786 23.1333 L28.7857 18.9 L29.8929 11.0333 L31 14.1333 L32.1071 12.4 L33.2143 11 L34.3214 10.2667 L35.4286 9.0667 L36.5357 7 L37.6429 5.4 L38.75 3.2667 L39.8571 4.5 L40.9643 3.8333 L42.0714 3.6 L43.1786 3.2 L44.2857 3.9333 L45.3929 3.8 L46.5 5.4 L47.6071 5.9333 L48.7143 6.6333 L49.8214 8 L50.9286 9.0667 L52.0357 10 L53.1429 11.6333 L54.25 12.5333 L55.3571 13.7333 L56.4643 15.3667 L57.5714 17 L58.6786 18.8667 L59.7857 19.5 L60.8929 20.8667 L62 22.1 L63.1071 23.5667 L64.2143 24.4 L65.3214 25.3333 L66.4286 26.9333 L67.5357 27.8 L68.6429 29.1667 L69.75 29.6 L70.8571 30 L71.9643 30.1667 L73.0714 30.9 L74.1786 31.4 L75.2857 31.7333 L76.3929 32.4 L77.5 32.9 L78.6071 33.3667 L79.7143 33.7333 L80.8214 33.9667 L81.9286 34.4 L83.0357 34.6667 L84.1429 34.9333 L85.25 35.2333 L86.3571 35.7 L87.4643 35.7667 L88.5714 35.8333 L89.6786 36.3 L90.7857 36.4333 L91.8929 36.7 L93 36.9333 L94.1071 37.3333 L95.2143 37.4333 L96.3214 37.6667 L97.4286 37.8 L98.5357 38.2667 L99.6429 38.3333 L100.75 38.5333 L101.8571 38.8 L102.9643 38.8333 L104.0714 39 L105.1786 39.1333 L106.2857 39.2667 L107.3929 39.3 L108.5 39.3333 L109.6071 39.3667 L110.7143 39.4 L111.8214 39.0667 L112.9286 38.4667 L114.0357 38.8667 L115.1429 39.0667 L116.25 38.9667 L117.3571 39.0333 L118.4643 39.2 L119.5714 39.0333 L120.6786 39.0333 L121.7857 38.9 L122.8929 38.9333 L124 38.6667 L125.1071 38.7333 L126.2143 38.5333 L127.3214 38.4 L128.4286 38.2333 L129.5357 38.2667 L130.6429 38.0667 L131.75 37.6333 L132.8571 37.3 L133.9643 36.4667 L135.0714 35.3 L136.1786 34.8333 L137.2857 34.7667 L138.3929 33.6333 L139.5 33.4333 L140.6071 33.0333 L141.7143 32.8333 L142.8214 31.8 L143.9286 31.0667 L145.0357 29.4667 L146.1429 29.1667 L147.25 27.7333 L148.3571 26.0667 L149.4643 24.9667 L150.5714 23.5667 L151.6786 22.0333 L152.7857 22.2667 L153.8929 21.9667 L155 23.0333"/>
</g>
<g style="fill:none;stroke:#0000ff;stroke-width:1.3;" class="svgcurveline" id="svgthumb_us-evelyn-m">
<path d=" M24.9107 40.8333 L25.4643 40.8 L26.5714 40.8333 L27.6786 40.7667 L28.7857 40.7667 L29.8929 40.7333 L31 40.8333 L31.5536 40.8 M32.6607 40.8 L33.2143 40.7667 L33.7679 40.8333 M54.8036 40.8667 L55.3571 40.8667 L55.9107 40.8667"/>
</g>
</g>
</svg>