<svg viewBox="0 0 155 58" preserveAspectRatio="none" class="svggraph" id="svgthumb_us" style="overflow:visible;width:155px;height:58px;" xmlns="http://www.w3.org/2000/svg" xlink="http://www.w3.org/1999/xlink" title="Chart for evie">
<title>Last ranked
#319 in 2020</title>
<rect x="2" y="43" height="13" width="17" style="fill:rgb(200,200,200)"/>
<image x="2.5" y="43.5" href="/images/flags/24/us.png" preserveAspectRatio="xMinYMax meet" width="16" height="12"/>
<text x="153" y="55" class="svgtitle" text-anchor="end" style="fill:#000000;font-size:13px;">United States</text>
<line x1="0" y1="41" x2="155" y2="41" class="svggridline" style="stroke:rgb(200,200,200);stroke-width:1.3"/>
<g id="svgthumb_us-namepaths">
<g style="fill:none;stroke:#ff0000;stroke-width:1.3;" class="svgcurveline" id="svgthumb_us-evie-f">
<path d="M0 32.5 L1.1071 32 L2.2143 29 L3.3214 30 L4.4286 32.5 L5.5357 27.5 L6.6429 26 L7.75 26.5 L8.8571 29 L9.9643 25 L11.0714 26 L12.1786 29 L13.2857 25.5 L14.3929 28 L15.5 25.5 L16.6071 29 L17.7143 27.5 L18.8214 26.5 L19.9286 29 L21.0357 29 L22.1429 26.5 L23.25 29 L24.3571 28 L25.4643 28 L26.5714 30.5 L27.6786 28.5 L28.7857 31.5 L29.8929 32.5 L31 30.5 L32.1071 30.5 L33.2143 32 L34.3214 32 L35.4286 34 L36.5357 33.5 L37.6429 34 L38.75 36 L39.8571 36.5 L40.9643 36 L42.0714 36.5 L43.1786 36.5 L44.2857 36 L45.3929 37 L46.5 37.5 L47.6071 37.5 L48.7143 37.5 L49.8214 37.5 L50.9286 37.5 L52.0357 38 L53.1429 38 L54.25 38.5 L55.3571 38 L56.4643 38 L57.0179 38.5 M58.125 38.5 L58.6786 38 L59.7857 38 L60.8929 38.5 L61.4464 39 M65.875 39 L66.4286 38.5 L67.5357 39 L68.0893 39 M140.0536 35 L140.6071 32.5 L141.7143 33 L142.8214 31 L143.9286 30.5 L145.0357 29.5 L146.1429 28.5 L147.25 27.5 L148.3571 25 L149.4643 25 L150.5714 20.5 L151.6786 16.5 L152.7857 13.5 L153.8929 14.5 L155 13"/>
</g>
</g>
</svg>