<svg viewBox="0 0 155 58" preserveAspectRatio="none" class="svggraph" id="svgthumb_us" style="overflow:visible;width:155px;height:58px;" xmlns="http://www.w3.org/2000/svg" xlink="http://www.w3.org/1999/xlink" title="Chart for faith">
<title>Last ranked
#136 in 2020</title>
<rect x="2" y="43" height="13" width="17" style="fill:rgb(200,200,200)"/>
<image x="2.5" y="43.5" href="/images/flags/24/us.png" preserveAspectRatio="xMinYMax meet" width="16" height="12"/>
<text x="153" y="55" class="svgtitle" text-anchor="end" style="fill:#000000;font-size:13px;">United States</text>
<line x1="0" y1="41" x2="155" y2="41" class="svggridline" style="stroke:rgb(200,200,200);stroke-width:1.3"/>
<g id="svgthumb_us-namepaths">
<g style="fill:none;stroke:#ff0000;stroke-width:1.3;" class="svgcurveline" id="svgthumb_us-faith-f">
<path d="M0 40.2 L1.1071 40.3333 L2.2143 39.9333 L2.7679 40.4667 M3.875 40.4667 L4.4286 40.4667 L5.5357 40.0667 L6.6429 39.6667 L7.1964 40.3333 M8.3036 40.3333 L8.8571 40.0667 L9.9643 39.9333 L11.0714 40.3333 L12.1786 39.1333 L13.2857 39.8 L14.3929 40.2 L15.5 39.6667 L16.6071 39.9333 L17.7143 39.5333 L18.8214 39.6667 L19.9286 39.2667 L21.0357 39.4 L22.1429 39.6667 L23.25 39.5333 L24.3571 40.0667 L25.4643 39.4 L26.5714 39.8 L27.6786 40.2 L28.7857 39.4 L29.8929 40.2 L31 39.6667 L32.1071 39.5333 L33.2143 39.9333 L34.3214 39.5333 L35.4286 39.5333 L36.5357 39.4 L37.6429 39.5333 L38.75 39.4 L39.8571 39.6667 L40.9643 39.1333 L42.0714 39.1333 L43.1786 39.2667 L44.2857 39.2667 L45.3929 39 L46.5 38.6 L47.6071 38.6 L48.7143 38.6 L49.8214 38.6 L50.9286 38.6 L52.0357 38.7333 L53.1429 38.6 L54.25 38.7333 L55.3571 38.3333 L56.4643 37.8 L57.5714 36.8667 L58.6786 36.7333 L59.7857 37 L60.8929 37.2667 L62 36.6 L63.1071 36.8667 L64.2143 37.1333 L65.3214 36.4667 L66.4286 36.8667 L67.5357 36.0667 L68.6429 35.5333 L69.75 35.6667 L70.8571 36.6 L71.9643 36.8667 L73.0714 37.4 L74.1786 37.6667 L75.2857 37.9333 L76.3929 38.0667 L77.5 37.5333 L78.6071 36.7333 L79.7143 36.7333 L80.8214 36.8667 L81.9286 36.4667 L83.0357 35.6667 L84.1429 35.9333 L85.25 35.8 L86.3571 35.9333 L87.4643 35.6667 L88.5714 35.4 L89.6786 35.9333 L90.7857 36.2 L91.8929 35.6667 L93 35.5333 L94.1071 35.8 L95.2143 36.0667 L96.3214 36.3333 L97.4286 36.8667 L98.5357 37 L99.6429 37 L100.75 37 L101.8571 36.6 L102.9643 36.6 L104.0714 36.3333 L105.1786 36.2 L106.2857 35.5333 L107.3929 34.4667 L108.5 34.2 L109.6071 34.3333 L110.7143 35 L111.8214 35.1333 L112.9286 35.9333 L114.0357 36.0667 L115.1429 36.3333 L116.25 37 L117.3571 36.4667 L118.4643 37 L119.5714 36.7333 L120.6786 36.3333 L121.7857 34.8667 L122.8929 33.9333 L124 33.4 L125.1071 33.4 L126.2143 32.0667 L127.3214 28.8667 L128.4286 25.9333 L129.5357 23 L130.6429 18.8667 L131.75 11.9333 L132.8571 7.6667 L133.9643 4.6 L135.0714 3.6667 L136.1786 3.8 L137.2857 5.1333 L138.3929 6.4667 L139.5 9.9333 L140.6071 13.9333 L141.7143 17.8 L142.8214 16.2 L143.9286 15.8 L145.0357 15.2667 L146.1429 16.6 L147.25 17.4 L148.3571 15.5333 L149.4643 18.2 L150.5714 19.8 L151.6786 22.3333 L152.7857 23.2667 L153.8929 24.4667 L155 26.0667"/>
</g>
</g>
</svg>