<svg viewBox="0 0 155 58" preserveAspectRatio="none" class="svggraph" id="svgthumb_us" style="overflow:visible;width:155px;height:58px;" xmlns="http://www.w3.org/2000/svg" xlink="http://www.w3.org/1999/xlink" title="Chart for fatima">
<title>Last ranked
#342 in 2020</title>
<rect x="2" y="43" height="13" width="17" style="fill:rgb(200,200,200)"/>
<image x="2.5" y="43.5" href="/images/flags/24/us.png" preserveAspectRatio="xMinYMax meet" width="16" height="12"/>
<text x="153" y="55" class="svgtitle" text-anchor="end" style="fill:#000000;font-size:13px;">United States</text>
<line x1="0" y1="41" x2="155" y2="41" class="svggridline" style="stroke:rgb(200,200,200);stroke-width:1.3"/>
<g id="svgthumb_us-namepaths">
<g style="fill:none;stroke:#ff0000;stroke-width:1.3;" class="svgcurveline" id="svgthumb_us-fatima-f">
<path d=" M102.4107 37.8889 L102.9643 36.5556 L104.0714 36.5556 L105.1786 35.6667 L106.2857 36.5556 L107.3929 36.5556 L108.5 36.5556 L109.6071 35.6667 L110.7143 35.6667 L111.8214 35.6667 L112.9286 34.7778 L114.0357 36.1111 L115.1429 34.7778 L116.25 35.6667 L117.3571 35.6667 L118.4643 34.7778 L119.5714 34.3333 L120.6786 34.3333 L121.7857 33 L122.8929 33.8889 L124 33 L125.1071 31.6667 L126.2143 31.6667 L127.3214 32.1111 L128.4286 31.2222 L129.5357 29.4444 L130.6429 29.4444 L131.75 23.6667 L132.8571 11.6667 L133.9643 9.4444 L135.0714 12.1111 L136.1786 11.2222 L137.2857 14.7778 L138.3929 9.8889 L139.5 8.5556 L140.6071 9.4444 L141.7143 11.2222 L142.8214 14.7778 L143.9286 13.4444 L145.0357 15.2222 L146.1429 16.5556 L147.25 17 L148.3571 17.8889 L149.4643 17.4444 L150.5714 16.5556 L151.6786 16.5556 L152.7857 19.2222 L153.8929 17 L155 17.8889"/>
</g>
</g>
</svg>