<svg viewBox="0 0 155 58" preserveAspectRatio="none" class="svggraph" id="svgthumb_us" style="overflow:visible;width:155px;height:58px;" xmlns="http://www.w3.org/2000/svg" xlink="http://www.w3.org/1999/xlink" title="Chart for finley">
<title>Last ranked
#201 in 2020 (f)
#304 in 2020 (m)</title>
<rect x="2" y="43" height="13" width="17" style="fill:rgb(200,200,200)"/>
<image x="2.5" y="43.5" href="/images/flags/24/us.png" preserveAspectRatio="xMinYMax meet" width="16" height="12"/>
<text x="153" y="55" class="svgtitle" text-anchor="end" style="fill:#000000;font-size:13px;">United States</text>
<line x1="0" y1="41" x2="155" y2="41" class="svggridline" style="stroke:rgb(200,200,200);stroke-width:1.3"/>
<g id="svgthumb_us-namepaths">
<g style="fill:none;stroke:#ff0000;stroke-width:1.3;" class="svgcurveline" id="svgthumb_us-finley-f">
<path d=" M137.8393 38.6 L138.3929 38.6 L139.5 38.2 L140.6071 37.6 L141.7143 36.6 L142.8214 35.4 L143.9286 33 L145.0357 32 L146.1429 31.6 L147.25 29.6 L148.3571 25.6 L149.4643 24.6 L150.5714 23.2 L151.6786 21.2 L152.7857 22 L153.8929 23.8 L155 24.6"/>
</g>
<g style="fill:none;stroke:#0000ff;stroke-width:1.3;" class="svgcurveline" id="svgthumb_us-finley-m">
<path d="M0 39.2 L1.1071 39.2 L2.2143 38.8 L3.3214 39.8 L4.4286 39.4 L5.5357 39.6 L6.6429 40 L7.75 39.8 L8.8571 39.8 L9.4107 40.2 M10.5179 40.2 L11.0714 39.8 L11.625 40 M12.7321 40 L13.2857 39.8 L14.3929 40 L14.9464 40 M18.2679 40 L18.8214 39.6 L19.9286 39.4 L20.4821 40 M21.5893 40 L22.1429 40 L23.25 39.6 L23.8036 40 M27.125 40 L27.6786 39.4 L28.7857 39.8 L29.3393 40 M30.4464 40 L31 39.6 L31.5536 39.8 M32.6607 39.8 L33.2143 39.6 L33.7679 40 M35.9821 40 L36.5357 39.8 L37.0893 40 M38.1964 40 L38.75 40 L39.3036 40.2 M40.4107 40.2 L40.9643 39.8 L41.5179 40.2 M138.9464 39.4 L139.5 39 L140.6071 38.6 L141.7143 38.6 L142.8214 37.8 L143.9286 37 L145.0357 36 L146.1429 36.2 L147.25 35.4 L148.3571 32.8 L149.4643 30.6 L150.5714 28.6 L151.6786 27.8 L152.7857 27.8 L153.8929 28.4 L155 29.2"/>
</g>
</g>
</svg>