<svg viewBox="0 0 155 58" preserveAspectRatio="none" class="svggraph" id="svgthumb_us" style="overflow:visible;width:155px;height:58px;" xmlns="http://www.w3.org/2000/svg" xlink="http://www.w3.org/1999/xlink" title="Chart for fiona">
<title>Last ranked
#296 in 2020</title>
<rect x="2" y="43" height="13" width="17" style="fill:rgb(200,200,200)"/>
<image x="2.5" y="43.5" href="/images/flags/24/us.png" preserveAspectRatio="xMinYMax meet" width="16" height="12"/>
<text x="153" y="55" class="svgtitle" text-anchor="end" style="fill:#000000;font-size:13px;">United States</text>
<line x1="0" y1="41" x2="155" y2="41" class="svggridline" style="stroke:rgb(200,200,200);stroke-width:1.3"/>
<g id="svgthumb_us-namepaths">
<g style="fill:none;stroke:#ff0000;stroke-width:1.3;" class="svgcurveline" id="svgthumb_us-fiona-f">
<path d=" M121.2321 39.2 L121.7857 39 L122.8929 38.8 L123.4464 39.2 M124.5536 39.2 L125.1071 39 L126.2143 38.8 L127.3214 38.4 L128.4286 37 L129.5357 36.2 L130.6429 36 L131.75 35.4 L132.8571 35 L133.9643 34 L135.0714 32.4 L136.1786 32.2 L137.2857 31.4 L138.3929 32.6 L139.5 31.6 L140.6071 32.4 L141.7143 31.8 L142.8214 30.6 L143.9286 28.2 L145.0357 28.6 L146.1429 25.4 L147.25 24 L148.3571 24.2 L149.4643 25.6 L150.5714 24.8 L151.6786 23.2 L152.7857 25.8 L153.8929 27.2 L155 28.8"/>
</g>
</g>
</svg>