<svg viewBox="0 0 155 58" preserveAspectRatio="none" class="svggraph" id="svgthumb_us" style="overflow:visible;width:155px;height:58px;" xmlns="http://www.w3.org/2000/svg" xlink="http://www.w3.org/1999/xlink" title="Chart for francesca">
<title>Last ranked
#456 in 2020</title>
<rect x="2" y="43" height="13" width="17" style="fill:rgb(200,200,200)"/>
<image x="2.5" y="43.5" href="/images/flags/24/us.png" preserveAspectRatio="xMinYMax meet" width="16" height="12"/>
<text x="153" y="55" class="svgtitle" text-anchor="end" style="fill:#000000;font-size:13px;">United States</text>
<line x1="0" y1="41" x2="155" y2="41" class="svggridline" style="stroke:rgb(200,200,200);stroke-width:1.3"/>
<g id="svgthumb_us-namepaths">
<g style="fill:none;stroke:#ff0000;stroke-width:1.3;" class="svgcurveline" id="svgthumb_us-francesca-f">
<path d=" M80.2679 37.6667 L80.8214 37.6667 L81.9286 37.6667 L83.0357 37.6667 L84.1429 36.3333 L84.6964 37.6667 M85.8036 37.6667 L86.3571 37 L87.4643 36.3333 L88.5714 36.3333 L89.6786 37 L90.7857 37 L91.8929 37 L93 35.6667 L93.5536 37 M94.6607 37 L95.2143 35.6667 L96.3214 35.6667 L97.4286 34.3333 L98.5357 35 L99.6429 35 L100.75 33.6667 L101.8571 33 L102.9643 31.6667 L104.0714 31 L105.1786 33 L106.2857 31 L107.3929 30.3333 L108.5 29.6667 L109.6071 29.6667 L110.7143 31.6667 L111.8214 31 L112.9286 31 L114.0357 29.6667 L115.1429 28.3333 L116.25 26.3333 L117.3571 19 L118.4643 21 L119.5714 20.3333 L120.6786 25.6667 L121.7857 23.6667 L122.8929 22.3333 L124 18.3333 L125.1071 19.6667 L126.2143 17 L127.3214 15.6667 L128.4286 13.6667 L129.5357 14.3333 L130.6429 15 L131.75 15 L132.8571 17.6667 L133.9643 16.3333 L135.0714 17 L136.1786 17 L137.2857 17.6667 L138.3929 17.6667 L139.5 17 L140.6071 19.6667 L141.7143 20.3333 L142.8214 19 L143.9286 20.3333 L145.0357 20.3333 L146.1429 19 L147.25 16.3333 L148.3571 15.6667 L149.4643 15.6667 L150.5714 14.3333 L151.6786 15 L152.7857 17 L153.8929 17.6667 L155 15.6667"/>
</g>
</g>
</svg>