<svg viewBox="0 0 155 58" preserveAspectRatio="none" class="svggraph" id="svgthumb_us" style="overflow:visible;width:155px;height:58px;" xmlns="http://www.w3.org/2000/svg" xlink="http://www.w3.org/1999/xlink" title="Chart for frances">
<title>Last ranked
#416 in 2020 (f)
#923 in 1947 (m)</title>
<rect x="2" y="43" height="13" width="17" style="fill:rgb(200,200,200)"/>
<image x="2.5" y="43.5" href="/images/flags/24/us.png" preserveAspectRatio="xMinYMax meet" width="16" height="12"/>
<text x="153" y="55" class="svgtitle" text-anchor="end" style="fill:#000000;font-size:13px;">United States</text>
<line x1="0" y1="41" x2="155" y2="41" class="svggridline" style="stroke:rgb(200,200,200);stroke-width:1.3"/>
<g id="svgthumb_us-namepaths">
<g style="fill:none;stroke:#ff0000;stroke-width:1.3;" class="svgcurveline" id="svgthumb_us-frances-f">
<path d="M0 23.2857 L1.1071 24.0571 L2.2143 24.1714 L3.3214 24.1143 L4.4286 24.6286 L5.5357 24 L6.6429 21.3143 L7.75 20.6857 L8.8571 19.1143 L9.9643 20.6 L11.0714 20.9429 L12.1786 20.6857 L13.2857 19.7714 L14.3929 20.4286 L15.5 19.4857 L16.6071 19.8 L17.7143 18.7429 L18.8214 18.2857 L19.9286 16.2 L21.0357 17.2286 L22.1429 18.5714 L23.25 17.7143 L24.3571 17.2857 L25.4643 16.7143 L26.5714 15.0286 L27.6786 14.3714 L28.7857 13.4286 L29.8929 13.0571 L31 12.0571 L32.1071 11.6571 L33.2143 10.7143 L34.3214 8.8857 L35.4286 8.4571 L36.5357 7.4286 L37.6429 6.2857 L38.75 5.3143 L39.8571 4.8286 L40.9643 4.4857 L42.0714 2.6571 L43.1786 4.2571 L44.2857 4.5143 L45.3929 5.2857 L46.5 6.5143 L47.6071 7.0571 L48.7143 7.5143 L49.8214 9.7429 L50.9286 9.9714 L52.0357 11 L53.1429 12 L54.25 13.6286 L55.3571 14.9143 L56.4643 15.8571 L57.5714 16.3143 L58.6786 16.7429 L59.7857 16.6857 L60.8929 17.9429 L62 17.7143 L63.1071 17.5143 L64.2143 18.6571 L65.3214 19.4 L66.4286 20.1429 L67.5357 21.5714 L68.6429 21.5429 L69.75 22.2 L70.8571 23.2571 L71.9643 24.1429 L73.0714 26.0286 L74.1786 26.9429 L75.2857 27.6 L76.3929 28.8857 L77.5 29.6571 L78.6071 30.8286 L79.7143 31.8571 L80.8214 32.4286 L81.9286 33.6 L83.0357 34.3714 L84.1429 35 L85.25 35.4286 L86.3571 35.6857 L87.4643 35.8857 L88.5714 36.0571 L89.6786 36.2857 L90.7857 36.7714 L91.8929 37.0571 L93 37.2 L94.1071 37.4571 L95.2143 37.5429 L96.3214 37.8857 L97.4286 38.0857 L98.5357 38.3429 L99.6429 38.4571 L100.75 38.6286 L101.8571 38.7429 L102.9643 38.8857 L104.0714 39.0571 L105.1786 39.1143 L106.2857 39.2857 L107.3929 39.3714 L108.5 39.4 L109.6071 39.4857 L110.7143 39.4857 L111.8214 39.5143 L112.9286 39.5714 L114.0357 39.6 L115.1429 39.6571 L116.25 39.7143 L117.3571 39.8286 L118.4643 39.7714 L119.5714 39.8 L120.6786 39.8857 L121.7857 39.9429 L122.8929 40 L124 40.0571 L125.1071 40.0857 L126.2143 40.1143 L127.3214 40.1429 L128.4286 40.2 L129.5357 40.2 L130.6429 40.2 L131.75 40.2857 L132.8571 40.3429 L133.9643 40.3714 L135.0714 40.4 L136.1786 40.3714 L137.2857 40.4 L138.3929 40.5143 L139.5 40.5143 L140.6071 40.5429 L141.7143 40.4857 L142.8214 40.5143 L143.9286 40.4857 L145.0357 40.4857 L146.1429 40.4571 L147.25 40.4 L148.3571 40.2857 L149.4643 40.1143 L150.5714 39.9429 L151.6786 39.8857 L152.7857 39.8857 L153.8929 39.8857 L155 39.8"/>
</g>
<g style="fill:none;stroke:#0000ff;stroke-width:1.3;" class="svgcurveline" id="svgthumb_us-frances-m">
<path d="M0 40.6 L1.1071 40.6857 L2.2143 40.7143 L3.3214 40.5714 L4.4286 40.6286 L5.5357 40.7143 L6.6429 40.7143 L7.75 40.6857 L8.8571 40.6571 L9.9643 40.6286 L11.0714 40.7143 L12.1786 40.7429 L13.2857 40.7714 L14.3929 40.5143 L15.5 40.6 L16.6071 40.6286 L17.7143 40.5714 L18.8214 40.5714 L19.9286 40.5429 L21.0357 40.7143 L22.1429 40.6571 L23.25 40.3714 L24.3571 40.6 L25.4643 40.6286 L26.5714 40.5143 L27.6786 40.5429 L28.7857 40.5714 L29.8929 40.4 L31 40.6286 L32.1071 40.6857 L33.2143 40.4857 L34.3214 40.5714 L35.4286 40.7143 L36.5357 40.6857 L37.6429 40.6857 L38.75 40.7143 L39.8571 40.6571 L40.9643 40.7714 L42.0714 40.7429 L43.1786 40.7143 L44.2857 40.7143 L45.3929 40.7429 L46.5 40.7714 L47.6071 40.7429 L48.7143 40.7429 L49.8214 40.7143 L50.9286 40.7143 L52.0357 40.6857 L53.1429 40.6571 L54.25 40.7429 L55.3571 40.6857 L56.4643 40.6857 L57.5714 40.7143 L58.6786 40.7714 L59.7857 40.7143 L60.8929 40.7429 L62 40.8286 L63.1071 40.7714 L64.2143 40.8286 L65.3214 40.8286 L66.4286 40.8571 L67.5357 40.8571 L68.6429 40.8857 L69.75 40.8857 L70.8571 40.8571 L71.4107 40.9143 M73.625 40.9143 L74.1786 40.9143 L74.7321 40.9143"/>
</g>
</g>
</svg>