<svg viewBox="0 0 155 58" preserveAspectRatio="none" class="svggraph" id="svgthumb_us" style="overflow:visible;width:155px;height:58px;" xmlns="http://www.w3.org/2000/svg" xlink="http://www.w3.org/1999/xlink" title="Chart for gabriela">
<title>Last ranked
#322 in 2020</title>
<rect x="2" y="43" height="13" width="17" style="fill:rgb(200,200,200)"/>
<image x="2.5" y="43.5" href="/images/flags/24/us.png" preserveAspectRatio="xMinYMax meet" width="16" height="12"/>
<text x="153" y="55" class="svgtitle" text-anchor="end" style="fill:#000000;font-size:13px;">United States</text>
<line x1="0" y1="41" x2="155" y2="41" class="svggridline" style="stroke:rgb(200,200,200);stroke-width:1.3"/>
<g id="svgthumb_us-namepaths">
<g style="fill:none;stroke:#ff0000;stroke-width:1.3;" class="svgcurveline" id="svgthumb_us-gabriela-f">
<path d=" M93.5536 39.8 L94.1071 39.6 L95.2143 39.4 L96.3214 39.4 L97.4286 38.8 L98.5357 38.4 L99.6429 38.4 L100.75 38 L101.8571 36.8 L102.9643 36.8 L104.0714 35.8 L105.1786 35.8 L106.2857 35.4 L107.3929 35.8 L108.5 34.4 L109.6071 32.8 L110.7143 34.2 L111.8214 34.4 L112.9286 34.4 L114.0357 33 L115.1429 33.8 L116.25 33.2 L117.3571 32.8 L118.4643 30.6 L119.5714 30.6 L120.6786 28.8 L121.7857 25.4 L122.8929 20.8 L124 18.4 L125.1071 16.6 L126.2143 11.8 L127.3214 14.2 L128.4286 15.8 L129.5357 13.4 L130.6429 14.4 L131.75 13.2 L132.8571 12.4 L133.9643 13.4 L135.0714 11.4 L136.1786 7.4 L137.2857 11 L138.3929 12.8 L139.5 12 L140.6071 14 L141.7143 15.8 L142.8214 18.4 L143.9286 19.8 L145.0357 21.2 L146.1429 25 L147.25 26 L148.3571 26.6 L149.4643 28 L150.5714 28 L151.6786 28.8 L152.7857 30.2 L153.8929 30.6 L155 30"/>
</g>
</g>
</svg>