<svg viewBox="0 0 155 58" preserveAspectRatio="none" class="svggraph" id="svgthumb_us" style="overflow:visible;width:155px;height:58px;" xmlns="http://www.w3.org/2000/svg" xlink="http://www.w3.org/1999/xlink" title="Chart for gabrielle">
<title>Last ranked
#358 in 2020</title>
<rect x="2" y="43" height="13" width="17" style="fill:rgb(200,200,200)"/>
<image x="2.5" y="43.5" href="/images/flags/24/us.png" preserveAspectRatio="xMinYMax meet" width="16" height="12"/>
<text x="153" y="55" class="svgtitle" text-anchor="end" style="fill:#000000;font-size:13px;">United States</text>
<line x1="0" y1="41" x2="155" y2="41" class="svggridline" style="stroke:rgb(200,200,200);stroke-width:1.3"/>
<g id="svgthumb_us-namepaths">
<g style="fill:none;stroke:#ff0000;stroke-width:1.3;" class="svgcurveline" id="svgthumb_us-gabrielle-f">
<path d=" M84.6964 40.5 L85.25 40.4 L86.3571 40.4 L87.4643 40.3 L88.5714 40.1 L89.6786 40.1 L90.7857 39.9 L91.8929 39.9 L93 39.8 L94.1071 39.8 L95.2143 39.9 L96.3214 39.8 L97.4286 39.5 L98.5357 39.2 L99.6429 38.9 L100.75 38.5 L101.8571 38.8 L102.9643 38.8 L104.0714 38.9 L105.1786 38.6 L106.2857 38.7 L107.3929 39.3 L108.5 38.5 L109.6071 38.2 L110.7143 37.8 L111.8214 37.7 L112.9286 37.5 L114.0357 37.5 L115.1429 36.5 L116.25 36.1 L117.3571 35.8 L118.4643 32.4 L119.5714 30.1 L120.6786 27.4 L121.7857 23.8 L122.8929 23.4 L124 20.9 L125.1071 20.6 L126.2143 15.1 L127.3214 12.7 L128.4286 10.3 L129.5357 9.9 L130.6429 9 L131.75 9.5 L132.8571 11.6 L133.9643 12.7 L135.0714 17.4 L136.1786 18.1 L137.2857 19.1 L138.3929 16.3 L139.5 17.8 L140.6071 19.5 L141.7143 21.7 L142.8214 24.1 L143.9286 25 L145.0357 27.4 L146.1429 28.5 L147.25 29.5 L148.3571 31.2 L149.4643 32.8 L150.5714 33.6 L151.6786 34.5 L152.7857 35.1 L153.8929 36 L155 36.1"/>
</g>
</g>
</svg>