<svg viewBox="0 0 155 58" preserveAspectRatio="none" class="svggraph" id="svgthumb_us" style="overflow:visible;width:155px;height:58px;" xmlns="http://www.w3.org/2000/svg" xlink="http://www.w3.org/1999/xlink" title="Chart for gabriella">
<title>Last ranked
#77 in 2020</title>
<rect x="2" y="43" height="13" width="17" style="fill:rgb(200,200,200)"/>
<image x="2.5" y="43.5" href="/images/flags/24/us.png" preserveAspectRatio="xMinYMax meet" width="16" height="12"/>
<text x="153" y="55" class="svgtitle" text-anchor="end" style="fill:#000000;font-size:13px;">United States</text>
<line x1="0" y1="41" x2="155" y2="41" class="svggridline" style="stroke:rgb(200,200,200);stroke-width:1.3"/>
<g id="svgthumb_us-namepaths">
<g style="fill:none;stroke:#ff0000;stroke-width:1.3;" class="svgcurveline" id="svgthumb_us-gabriella-f">
<path d=" M103.5179 40.2 L104.0714 40.2 L104.625 40.2 M114.5893 40.2 L115.1429 40.2 L116.25 39.7 L117.3571 39.9 L118.4643 39.2 L119.5714 38.6 L120.6786 38.3 L121.7857 36.4 L122.8929 35.1 L124 34.2 L125.1071 33.9 L126.2143 30.8 L127.3214 29.3 L128.4286 28.9 L129.5357 27.3 L130.6429 25.9 L131.75 24.8 L132.8571 24.1 L133.9643 22.8 L135.0714 21.2 L136.1786 21 L137.2857 19.9 L138.3929 17.2 L139.5 15.3 L140.6071 13.4 L141.7143 12 L142.8214 10.6 L143.9286 9.5 L145.0357 9.5 L146.1429 12.6 L147.25 13.9 L148.3571 14.9 L149.4643 17.3 L150.5714 19 L151.6786 20.4 L152.7857 21.1 L153.8929 21.9 L155 22.7"/>
</g>
</g>
</svg>