<svg viewBox="0 0 155 58" preserveAspectRatio="none" class="svggraph" id="svgthumb_us" style="overflow:visible;width:155px;height:58px;" xmlns="http://www.w3.org/2000/svg" xlink="http://www.w3.org/1999/xlink" title="Chart for genesis">
<title>Last ranked
#62 in 2020 (f)
#828 in 2020 (m)</title>
<rect x="2" y="43" height="13" width="17" style="fill:rgb(200,200,200)"/>
<image x="2.5" y="43.5" href="/images/flags/24/us.png" preserveAspectRatio="xMinYMax meet" width="16" height="12"/>
<text x="153" y="55" class="svgtitle" text-anchor="end" style="fill:#000000;font-size:13px;">United States</text>
<line x1="0" y1="41" x2="155" y2="41" class="svggridline" style="stroke:rgb(200,200,200);stroke-width:1.3"/>
<g id="svgthumb_us-namepaths">
<g style="fill:none;stroke:#ff0000;stroke-width:1.3;" class="svgcurveline" id="svgthumb_us-genesis-f">
<path d=" M119.0179 39.9333 L119.5714 39.2667 L120.6786 38.8667 L121.7857 38.4667 L122.8929 37.1333 L124 36.4667 L125.1071 37 L126.2143 33.9333 L127.3214 35.5333 L128.4286 33.8 L129.5357 33 L130.6429 32.8667 L131.75 32.4667 L132.8571 32.3333 L133.9643 31.4 L135.0714 31.8 L136.1786 31.1333 L137.2857 28.7333 L138.3929 26.3333 L139.5 27.6667 L140.6071 25.4 L141.7143 18.4667 L142.8214 16.8667 L143.9286 18.4667 L145.0357 16.8667 L146.1429 11.4 L147.25 11.2667 L148.3571 12.6 L149.4643 12.4667 L150.5714 11 L151.6786 10.8667 L152.7857 11.6667 L153.8929 11.6667 L155 13.1333"/>
</g>
<g style="fill:none;stroke:#0000ff;stroke-width:1.3;" class="svgcurveline" id="svgthumb_us-genesis-m">
<path d=" M152.2321 39.6667 L152.7857 39.5333 L153.8929 39.2667 L155 39"/>
</g>
</g>
</svg>