<svg viewBox="0 0 155 58" preserveAspectRatio="none" class="svggraph" id="svgthumb_us" style="overflow:visible;width:155px;height:58px;" xmlns="http://www.w3.org/2000/svg" xlink="http://www.w3.org/1999/xlink" title="Chart for genevieve">
<title>Last ranked
#169 in 2020</title>
<rect x="2" y="43" height="13" width="17" style="fill:rgb(200,200,200)"/>
<image x="2.5" y="43.5" href="/images/flags/24/us.png" preserveAspectRatio="xMinYMax meet" width="16" height="12"/>
<text x="153" y="55" class="svgtitle" text-anchor="end" style="fill:#000000;font-size:13px;">United States</text>
<line x1="0" y1="41" x2="155" y2="41" class="svggridline" style="stroke:rgb(200,200,200);stroke-width:1.3"/>
<g id="svgthumb_us-namepaths">
<g style="fill:none;stroke:#ff0000;stroke-width:1.3;" class="svgcurveline" id="svgthumb_us-genevieve-f">
<path d="M0 35 L1.1071 35.1 L2.2143 34.6 L3.3214 34.3 L4.4286 34.5 L5.5357 34.9 L6.6429 32.2 L7.75 31.4 L8.8571 32.9 L9.9643 30.4 L11.0714 30.2 L12.1786 30.8 L13.2857 30.5 L14.3929 30.2 L15.5 29.5 L16.6071 28.3 L17.7143 28.9 L18.8214 26.1 L19.9286 26.7 L21.0357 26.6 L22.1429 27.8 L23.25 26.5 L24.3571 26.4 L25.4643 25.7 L26.5714 24.6 L27.6786 24.6 L28.7857 23.1 L29.8929 20.9 L31 22.6 L32.1071 19.7 L33.2143 19.4 L34.3214 18.6 L35.4286 17.9 L36.5357 15.3 L37.6429 12.7 L38.75 12.4 L39.8571 12.8 L40.9643 12.6 L42.0714 13.5 L43.1786 14.1 L44.2857 14.8 L45.3929 15.7 L46.5 17.8 L47.6071 18.1 L48.7143 20 L49.8214 22 L50.9286 24.5 L52.0357 24.6 L53.1429 26.4 L54.25 27.3 L55.3571 28.2 L56.4643 28.7 L57.5714 30.6 L58.6786 30.9 L59.7857 32 L60.8929 32.8 L62 33.9 L63.1071 34.7 L64.2143 35 L65.3214 35.5 L66.4286 35.8 L67.5357 36 L68.6429 36.6 L69.75 36.8 L70.8571 37.4 L71.9643 37.7 L73.0714 38 L74.1786 38.7 L75.2857 38.5 L76.3929 38.6 L77.5 38.8 L78.6071 39.1 L79.7143 39.2 L80.8214 39.3 L81.9286 39.5 L83.0357 39.5 L84.1429 39.7 L85.25 39.4 L86.3571 39.5 L87.4643 39.8 L88.5714 39.7 L89.6786 39.5 L90.7857 39.6 L91.8929 39.5 L93 39.6 L94.1071 39.7 L95.2143 39.8 L96.3214 39.8 L97.4286 39.9 L98.5357 39.5 L99.6429 39.3 L100.75 39.1 L101.8571 39 L102.9643 39.1 L104.0714 39 L105.1786 38.9 L106.2857 38.5 L107.3929 38.6 L108.5 38.2 L109.6071 38.3 L110.7143 38.1 L111.8214 38.2 L112.9286 38.1 L114.0357 38.3 L115.1429 38.3 L116.25 38.2 L117.3571 38.6 L118.4643 38.7 L119.5714 38.7 L120.6786 39 L121.7857 38.6 L122.8929 38.9 L124 38.7 L125.1071 38.8 L126.2143 38.8 L127.3214 38.6 L128.4286 38.6 L129.5357 38.8 L130.6429 38.6 L131.75 38.4 L132.8571 38.4 L133.9643 38.1 L135.0714 37.3 L136.1786 37.1 L137.2857 37.3 L138.3929 37.1 L139.5 36.8 L140.6071 36.4 L141.7143 36 L142.8214 35.3 L143.9286 34.9 L145.0357 34 L146.1429 33.8 L147.25 33.4 L148.3571 32.8 L149.4643 31.9 L150.5714 32 L151.6786 32.2 L152.7857 31.8 L153.8929 31.6 L155 31.4"/>
</g>
</g>
</svg>