<svg viewBox="0 0 155 58" preserveAspectRatio="none" class="svggraph" id="svgthumb_us" style="overflow:visible;width:155px;height:58px;" xmlns="http://www.w3.org/2000/svg" xlink="http://www.w3.org/1999/xlink" title="Chart for georgia">
<title>Last ranked
#176 in 2020 (f)
#804 in 1898 (m)</title>
<rect x="2" y="43" height="13" width="17" style="fill:rgb(200,200,200)"/>
<image x="2.5" y="43.5" href="/images/flags/24/us.png" preserveAspectRatio="xMinYMax meet" width="16" height="12"/>
<text x="153" y="55" class="svgtitle" text-anchor="end" style="fill:#000000;font-size:13px;">United States</text>
<line x1="0" y1="41" x2="155" y2="41" class="svggridline" style="stroke:rgb(200,200,200);stroke-width:1.3"/>
<g id="svgthumb_us-namepaths">
<g style="fill:none;stroke:#ff0000;stroke-width:1.3;" class="svgcurveline" id="svgthumb_us-georgia-f">
<path d="M0 5.6667 L1.1071 6.4667 L2.2143 4.0667 L3.3214 4.8667 L4.4286 7.9333 L5.5357 6.2 L6.6429 6.7333 L7.75 10.8667 L8.8571 7.4 L9.9643 9.6667 L11.0714 7.1333 L12.1786 10.8667 L13.2857 8.3333 L14.3929 9 L15.5 10.7333 L16.6071 10.7333 L17.7143 11.2667 L18.8214 12.6 L19.9286 9.1333 L21.0357 11.2667 L22.1429 8.8667 L23.25 12.2 L24.3571 9.4 L25.4643 10.7333 L26.5714 7.4 L27.6786 9.9333 L28.7857 11 L29.8929 9.9333 L31 12.0667 L32.1071 11.5333 L33.2143 8.8667 L34.3214 12.0667 L35.4286 13.8 L36.5357 12.8667 L37.6429 16.0667 L38.75 16.8667 L39.8571 16.6 L40.9643 15.4 L42.0714 15 L43.1786 15.1333 L44.2857 15.8 L45.3929 16.8667 L46.5 15.8 L47.6071 15.8 L48.7143 16.3333 L49.8214 15.5333 L50.9286 15.5333 L52.0357 16.7333 L53.1429 15.4 L54.25 16.4667 L55.3571 16.3333 L56.4643 17.2667 L57.5714 16.0667 L58.6786 17.9333 L59.7857 17.4 L60.8929 18.0667 L62 18.4667 L63.1071 19.1333 L64.2143 20.4667 L65.3214 19.4 L66.4286 21 L67.5357 19 L68.6429 19.8 L69.75 18.8667 L70.8571 17.9333 L71.9643 18.0667 L73.0714 21.9333 L74.1786 22.8667 L75.2857 23.2667 L76.3929 24.2 L77.5 26.3333 L78.6071 27 L79.7143 28.7333 L80.8214 29 L81.9286 30.7333 L83.0357 31.1333 L84.1429 32.6 L85.25 33 L86.3571 33.8 L87.4643 34.4667 L88.5714 34.6 L89.6786 34.3333 L90.7857 35 L91.8929 34.8667 L93 35.1333 L94.1071 35.8 L95.2143 36.0667 L96.3214 35.8 L97.4286 36.4667 L98.5357 36.7333 L99.6429 37.2667 L100.75 37.4 L101.8571 37.4 L102.9643 37.6667 L104.0714 37.9333 L105.1786 38.0667 L106.2857 38.0667 L107.3929 38.0667 L108.5 38.2 L109.6071 38.2 L110.7143 38.4667 L111.8214 38.7333 L112.9286 38.8667 L114.0357 38.7333 L115.1429 38.8667 L116.25 39 L117.3571 39.2667 L118.4643 39.1333 L119.5714 38.8667 L120.6786 39.1333 L121.7857 39.1333 L122.8929 38.8667 L124 38.4667 L125.1071 38.4667 L126.2143 38.6 L127.3214 38.4667 L128.4286 38.2 L129.5357 37.8 L130.6429 36.7333 L131.75 35.1333 L132.8571 34.7333 L133.9643 35.9333 L135.0714 35.6667 L136.1786 35.6667 L137.2857 35.4 L138.3929 34.3333 L139.5 33.2667 L140.6071 33.8 L141.7143 34.2 L142.8214 34.4667 L143.9286 34.3333 L145.0357 33.8 L146.1429 33.6667 L147.25 32.2 L148.3571 31.9333 L149.4643 31.1333 L150.5714 31.2667 L151.6786 31.6667 L152.7857 30.8667 L153.8929 30.2 L155 28.8667"/>
</g>
<g style="fill:none;stroke:#0000ff;stroke-width:1.3;" class="svgcurveline" id="svgthumb_us-georgia-m">
<path d=" M18.2679 40.3333 L18.8214 40.0667 L19.9286 40.2 L20.4821 40.3333"/>
</g>
</g>
</svg>