<svg viewBox="0 0 155 58" preserveAspectRatio="none" class="svggraph" id="svgthumb_us" style="overflow:visible;width:155px;height:58px;" xmlns="http://www.w3.org/2000/svg" xlink="http://www.w3.org/1999/xlink" title="Chart for gia">
<title>Last ranked
#328 in 2020</title>
<rect x="2" y="43" height="13" width="17" style="fill:rgb(200,200,200)"/>
<image x="2.5" y="43.5" href="/images/flags/24/us.png" preserveAspectRatio="xMinYMax meet" width="16" height="12"/>
<text x="153" y="55" class="svgtitle" text-anchor="end" style="fill:#000000;font-size:13px;">United States</text>
<line x1="0" y1="41" x2="155" y2="41" class="svggridline" style="stroke:rgb(200,200,200);stroke-width:1.3"/>
<g id="svgthumb_us-namepaths">
<g style="fill:none;stroke:#ff0000;stroke-width:1.3;" class="svgcurveline" id="svgthumb_us-gia-f">
<path d=" M93.5536 38 L94.1071 38 L95.2143 37 L95.7679 38 M97.9821 38 L98.5357 35.5 L99.6429 36.5 L100.1964 37.5 M132.3036 35.5 L132.8571 35.5 L133.9643 33 L135.0714 32.5 L136.1786 33 L137.2857 32.5 L138.3929 32 L139.5 30 L140.6071 30.5 L141.7143 31 L142.8214 28.5 L143.9286 20 L145.0357 13.5 L146.1429 17 L147.25 17 L148.3571 18.5 L149.4643 18.5 L150.5714 18.5 L151.6786 20 L152.7857 19.5 L153.8929 20.5 L155 14.5"/>
</g>
</g>
</svg>