<svg viewBox="0 0 155 58" preserveAspectRatio="none" class="svggraph" id="svgthumb_us" style="overflow:visible;width:155px;height:58px;" xmlns="http://www.w3.org/2000/svg" xlink="http://www.w3.org/1999/xlink" title="Chart for gianna">
<title>Last ranked
#12 in 2020</title>
<rect x="2" y="43" height="13" width="17" style="fill:rgb(200,200,200)"/>
<image x="2.5" y="43.5" href="/images/flags/24/us.png" preserveAspectRatio="xMinYMax meet" width="16" height="12"/>
<text x="153" y="55" class="svgtitle" text-anchor="end" style="fill:#000000;font-size:13px;">United States</text>
<line x1="0" y1="41" x2="155" y2="41" class="svggridline" style="stroke:rgb(200,200,200);stroke-width:1.3"/>
<g id="svgthumb_us-namepaths">
<g style="fill:none;stroke:#ff0000;stroke-width:1.3;" class="svgcurveline" id="svgthumb_us-gianna-f">
<path d=" M120.125 40.28 L120.6786 40.2 L121.7857 40.12 L122.8929 39.72 L124 39.56 L125.1071 39.24 L126.2143 39 L127.3214 38.44 L128.4286 38.28 L129.5357 37.8 L130.6429 36.12 L131.75 35.64 L132.8571 35.64 L133.9643 33.88 L135.0714 32.92 L136.1786 31.8 L137.2857 30.2 L138.3929 29.32 L139.5 27.8 L140.6071 26.92 L141.7143 26.92 L142.8214 25.4 L143.9286 24.84 L145.0357 24.2 L146.1429 26.04 L147.25 26.68 L148.3571 28.36 L149.4643 27.96 L150.5714 27.64 L151.6786 27.48 L152.7857 26.2 L153.8929 26.04 L155 5.24"/>
</g>
</g>
</svg>