<svg viewBox="0 0 155 58" preserveAspectRatio="none" class="svggraph" id="svgthumb_us" style="overflow:visible;width:155px;height:58px;" xmlns="http://www.w3.org/2000/svg" xlink="http://www.w3.org/1999/xlink" title="Chart for giselle">
<title>Last ranked
#330 in 2020</title>
<rect x="2" y="43" height="13" width="17" style="fill:rgb(200,200,200)"/>
<image x="2.5" y="43.5" href="/images/flags/24/us.png" preserveAspectRatio="xMinYMax meet" width="16" height="12"/>
<text x="153" y="55" class="svgtitle" text-anchor="end" style="fill:#000000;font-size:13px;">United States</text>
<line x1="0" y1="41" x2="155" y2="41" class="svggridline" style="stroke:rgb(200,200,200);stroke-width:1.3"/>
<g id="svgthumb_us-namepaths">
<g style="fill:none;stroke:#ff0000;stroke-width:1.3;" class="svgcurveline" id="svgthumb_us-giselle-f">
<path d=" M113.4821 39.4 L114.0357 38.8 L115.1429 38.8 L116.25 38.4 L117.3571 38.6 L118.4643 38.2 L119.5714 38.8 L120.6786 38.6 L121.7857 38 L122.8929 38.8 L124 38.6 L125.1071 35 L126.2143 37.2 L127.3214 37 L128.4286 37.2 L129.5357 31.2 L130.6429 28 L131.75 26.2 L132.8571 26.2 L133.9643 26.2 L135.0714 26 L136.1786 23.4 L137.2857 22.4 L138.3929 20.8 L139.5 21 L140.6071 16.4 L141.7143 17 L142.8214 17.2 L143.9286 19.6 L145.0357 20 L146.1429 23.4 L147.25 24.8 L148.3571 24.8 L149.4643 25.8 L150.5714 25.8 L151.6786 28.6 L152.7857 29 L153.8929 30.4 L155 30.4"/>
</g>
</g>
</svg>