<svg viewBox="0 0 155 58" preserveAspectRatio="none" class="svggraph" id="svgthumb_us" style="overflow:visible;width:155px;height:58px;" xmlns="http://www.w3.org/2000/svg" xlink="http://www.w3.org/1999/xlink" title="Chart for grace">
<title>Last ranked
#28 in 2020 (f)
#925 in 1911 (m)</title>
<rect x="2" y="43" height="13" width="17" style="fill:rgb(200,200,200)"/>
<image x="2.5" y="43.5" href="/images/flags/24/us.png" preserveAspectRatio="xMinYMax meet" width="16" height="12"/>
<text x="153" y="55" class="svgtitle" text-anchor="end" style="fill:#000000;font-size:13px;">United States</text>
<line x1="0" y1="41" x2="155" y2="41" class="svggridline" style="stroke:rgb(200,200,200);stroke-width:1.3"/>
<g id="svgthumb_us-namepaths">
<g style="fill:none;stroke:#ff0000;stroke-width:1.3;" class="svgcurveline" id="svgthumb_us-grace-f">
<path d="M0 7.4667 L1.1071 4.2667 L2.2143 6.5667 L3.3214 4.7 L4.4286 4.0667 L5.5357 4 L6.6429 3.6333 L7.75 4.7 L8.8571 4.2333 L9.9643 4.9 L11.0714 3.3333 L12.1786 5.6 L13.2857 6.9333 L14.3929 6.8333 L15.5 7.6333 L16.6071 7.9667 L17.7143 8.1333 L18.8214 8 L19.9286 7.8667 L21.0357 9.3 L22.1429 10.1333 L23.25 9.5667 L24.3571 9.6 L25.4643 9.6667 L26.5714 12.3667 L27.6786 12.7 L28.7857 13.0667 L29.8929 13.8667 L31 13.7333 L32.1071 14.6333 L33.2143 16 L34.3214 16.0667 L35.4286 15.9 L36.5357 17.2333 L37.6429 17.6 L38.75 18.0667 L39.8571 18.1 L40.9643 19.1333 L42.0714 19.4667 L43.1786 20.5667 L44.2857 21.7667 L45.3929 22.1667 L46.5 23 L47.6071 24.2 L48.7143 24.7333 L49.8214 25.2 L50.9286 26.3 L52.0357 26.7 L53.1429 27.1 L54.25 27.8333 L55.3571 28.9333 L56.4643 29.8 L57.5714 30.3333 L58.6786 30.4 L59.7857 31.5 L60.8929 31.8 L62 32.3667 L63.1071 32.8 L64.2143 33.3667 L65.3214 34.0333 L66.4286 34.2667 L67.5357 35.3667 L68.6429 35.8333 L69.75 36.0667 L70.8571 36.3 L71.9643 36.6667 L73.0714 37.3667 L74.1786 37.5333 L75.2857 37.8 L76.3929 37.9333 L77.5 38.1333 L78.6071 38.1667 L79.7143 38.3333 L80.8214 38.6 L81.9286 38.6333 L83.0357 38.7 L84.1429 38.0333 L85.25 37.9333 L86.3571 38.2333 L87.4643 38.3333 L88.5714 38.5 L89.6786 38.7 L90.7857 38.8 L91.8929 38.8667 L93 38.9333 L94.1071 38.9667 L95.2143 39.2333 L96.3214 39.2667 L97.4286 39.5333 L98.5357 39.7 L99.6429 39.6 L100.75 39.7 L101.8571 39.7333 L102.9643 39.7 L104.0714 39.8667 L105.1786 39.8 L106.2857 39.8667 L107.3929 39.9333 L108.5 39.8 L109.6071 39.6667 L110.7143 39.5667 L111.8214 39.4667 L112.9286 39.2667 L114.0357 39.1333 L115.1429 39.1333 L116.25 39.0667 L117.3571 38.9 L118.4643 38.5333 L119.5714 38.0333 L120.6786 37.7667 L121.7857 37.4667 L122.8929 37.1 L124 36.5667 L125.1071 36.4333 L126.2143 35.5667 L127.3214 34.9667 L128.4286 34.5 L129.5357 32.9 L130.6429 31.1667 L131.75 25.2667 L132.8571 22.1333 L133.9643 20.6667 L135.0714 20.6333 L136.1786 19.7667 L137.2857 20.3 L138.3929 21.5 L139.5 23.5 L140.6071 25.6 L141.7143 26.5333 L142.8214 27.3 L143.9286 27.9333 L145.0357 27.8667 L146.1429 28.3 L147.25 28.2333 L148.3571 27.9667 L149.4643 27.8667 L150.5714 27.9 L151.6786 28.5333 L152.7857 28.8333 L153.8929 29.9 L155 30.4"/>
</g>
<g style="fill:none;stroke:#0000ff;stroke-width:1.3;" class="svgcurveline" id="svgthumb_us-grace-m">
<path d="M0 40.8333 L0.5536 40.8667 M1.6607 40.8667 L2.2143 40.8333 L2.7679 40.8667 M3.875 40.8667 L4.4286 40.7333 L5.5357 40.8667 L6.6429 40.6667 L7.1964 40.8333 M8.3036 40.8333 L8.8571 40.7333 L9.4107 40.8667 M10.5179 40.8667 L11.0714 40.7 L12.1786 40.6667 L13.2857 40.6667 L14.3929 40.7333 L14.9464 40.8333 M16.0536 40.8333 L16.6071 40.7667 L17.7143 40.7 L18.8214 40.7333 L19.9286 40.6333 L21.0357 40.7333 L22.1429 40.7667 L22.6964 40.8333 M24.9107 40.8333 L25.4643 40.7667 L26.5714 40.8 L27.6786 40.7 L28.7857 40.7667 L29.8929 40.7333 L31 40.6667 L32.1071 40.8 L32.6607 40.8333 M33.7679 40.8333 L34.3214 40.8333 L34.875 40.8333"/>
</g>
</g>
</svg>