<svg viewBox="0 0 155 58" preserveAspectRatio="none" class="svggraph" id="svgthumb_us" style="overflow:visible;width:155px;height:58px;" xmlns="http://www.w3.org/2000/svg" xlink="http://www.w3.org/1999/xlink" title="Chart for gracie">
<title>Last ranked
#209 in 2020</title>
<rect x="2" y="43" height="13" width="17" style="fill:rgb(200,200,200)"/>
<image x="2.5" y="43.5" href="/images/flags/24/us.png" preserveAspectRatio="xMinYMax meet" width="16" height="12"/>
<text x="153" y="55" class="svgtitle" text-anchor="end" style="fill:#000000;font-size:13px;">United States</text>
<line x1="0" y1="41" x2="155" y2="41" class="svggridline" style="stroke:rgb(200,200,200);stroke-width:1.3"/>
<g id="svgthumb_us-namepaths">
<g style="fill:none;stroke:#ff0000;stroke-width:1.3;" class="svgcurveline" id="svgthumb_us-gracie-f">
<path d="M0 37.4 L1.1071 36.2 L2.2143 37.8 L3.3214 34.6 L4.4286 36.4 L5.5357 35.4 L6.6429 35.6 L7.75 35.8 L8.8571 34.2 L9.9643 33.8 L11.0714 34.2 L12.1786 33 L13.2857 33.8 L14.3929 33.2 L15.5 33.4 L16.6071 32.2 L17.7143 33.6 L18.8214 31.6 L19.9286 34 L21.0357 32.2 L22.1429 31 L23.25 31.4 L24.3571 29.6 L25.4643 30.2 L26.5714 28.8 L27.6786 30.2 L28.7857 31.2 L29.8929 30 L31 31.2 L32.1071 30.8 L33.2143 29.2 L34.3214 32 L35.4286 31.2 L36.5357 32.6 L37.6429 32.4 L38.75 33 L39.8571 33.2 L40.9643 33.2 L42.0714 33.6 L43.1786 32.8 L44.2857 32.6 L45.3929 33 L46.5 32.4 L47.6071 32.6 L48.7143 32.8 L49.8214 32 L50.9286 33 L52.0357 33 L53.1429 32.6 L54.25 33 L55.3571 32.8 L56.4643 33.2 L57.5714 32.8 L58.6786 33.2 L59.7857 33 L60.8929 33.4 L62 32.6 L63.1071 33.4 L64.2143 33.2 L65.3214 33.6 L66.4286 33.8 L67.5357 34.6 L68.6429 34.8 L69.75 35.4 L70.8571 35.2 L71.9643 35.4 L73.0714 36.6 L74.1786 36.8 L75.2857 36.8 L76.3929 37.2 L77.5 37.2 L78.6071 37.4 L79.7143 37.6 L80.8214 38 L81.9286 37.8 L83.0357 37.8 L84.1429 37.8 L85.25 37.2 L86.3571 37.8 L87.4643 37.8 L88.5714 38 L89.6786 38.4 L90.7857 38.4 L91.8929 38.6 L93 38.4 L94.1071 38.8 L95.2143 39 L96.3214 39.4 L97.4286 39.4 L98.5357 39.6 L99.0893 39.6 M102.4107 39.6 L102.9643 39.4 L103.5179 39.4 M128.9821 39 L129.5357 38.6 L130.6429 37 L131.75 31.8 L132.8571 27.8 L133.9643 21.8 L135.0714 19.2 L136.1786 13.8 L137.2857 11.8 L138.3929 7.8 L139.5 9.4 L140.6071 8.2 L141.7143 8.2 L142.8214 12.6 L143.9286 16.2 L145.0357 17.8 L146.1429 20.2 L147.25 20.8 L148.3571 20 L149.4643 21 L150.5714 22.2 L151.6786 24 L152.7857 24 L153.8929 25.6 L155 25.4"/>
</g>
</g>
</svg>