<svg viewBox="0 0 155 58" preserveAspectRatio="none" class="svggraph" id="svgthumb_us" style="overflow:visible;width:155px;height:58px;" xmlns="http://www.w3.org/2000/svg" xlink="http://www.w3.org/1999/xlink" title="Chart for gwendolyn">
<title>Last ranked
#377 in 2020</title>
<rect x="2" y="43" height="13" width="17" style="fill:rgb(200,200,200)"/>
<image x="2.5" y="43.5" href="/images/flags/24/us.png" preserveAspectRatio="xMinYMax meet" width="16" height="12"/>
<text x="153" y="55" class="svgtitle" text-anchor="end" style="fill:#000000;font-size:13px;">United States</text>
<line x1="0" y1="41" x2="155" y2="41" class="svggridline" style="stroke:rgb(200,200,200);stroke-width:1.3"/>
<g id="svgthumb_us-namepaths">
<g style="fill:none;stroke:#ff0000;stroke-width:1.3;" class="svgcurveline" id="svgthumb_us-gwendolyn-f">
<path d="M0 40 L1.1071 40 L1.6607 40.2 M7.1964 40.2 L7.75 40 L8.8571 40 L9.9643 39.8 L11.0714 40 L11.625 40 M12.7321 40 L13.2857 39.4 L14.3929 39.6 L15.5 39.6 L16.6071 38.8 L17.7143 39 L18.8214 38.8 L19.9286 38.6 L21.0357 38.8 L22.1429 38.6 L23.25 38 L24.3571 37 L25.4643 36.6 L26.5714 35.8 L27.6786 36.6 L28.7857 35.4 L29.8929 35 L31 33.8 L32.1071 34.4 L33.2143 33.8 L34.3214 32.2 L35.4286 31.6 L36.5357 31.8 L37.6429 31.4 L38.75 29.8 L39.8571 30.4 L40.9643 30.8 L42.0714 30 L43.1786 30 L44.2857 28.8 L45.3929 28.2 L46.5 28.6 L47.6071 27.4 L48.7143 27.4 L49.8214 27 L50.9286 27.2 L52.0357 25.4 L53.1429 24.4 L54.25 25.6 L55.3571 24.6 L56.4643 24.8 L57.5714 24.2 L58.6786 23.2 L59.7857 22.4 L60.8929 22.8 L62 23.4 L63.1071 21.4 L64.2143 19.8 L65.3214 20.2 L66.4286 20.4 L67.5357 20.6 L68.6429 21.2 L69.75 19.6 L70.8571 18.6 L71.9643 17.8 L73.0714 15.4 L74.1786 14 L75.2857 12.2 L76.3929 8.8 L77.5 6.4 L78.6071 6.4 L79.7143 6 L80.8214 4.6 L81.9286 6.8 L83.0357 6.4 L84.1429 8.2 L85.25 9.6 L86.3571 15.2 L87.4643 15.6 L88.5714 16.4 L89.6786 16.6 L90.7857 16.2 L91.8929 18.2 L93 21.6 L94.1071 22.4 L95.2143 24.8 L96.3214 25.4 L97.4286 26.4 L98.5357 27.4 L99.6429 27.6 L100.75 28.6 L101.8571 30.2 L102.9643 31.2 L104.0714 30.8 L105.1786 30.8 L106.2857 31.6 L107.3929 33.8 L108.5 34.4 L109.6071 34.8 L110.7143 35.6 L111.8214 36 L112.9286 36.2 L114.0357 36.6 L115.1429 37 L116.25 36.6 L117.3571 37 L118.4643 37.6 L119.5714 37.8 L120.6786 37.8 L121.7857 38 L122.8929 38 L124 37.8 L125.1071 38.2 L126.2143 38 L127.3214 38.6 L128.4286 38 L129.5357 37.8 L130.6429 37.8 L131.75 37.4 L132.8571 37.8 L133.9643 37.2 L135.0714 36.4 L136.1786 36.4 L137.2857 36.2 L138.3929 36 L139.5 36.6 L140.6071 36.6 L141.7143 36 L142.8214 35.8 L143.9286 35.8 L145.0357 35.8 L146.1429 34.8 L147.25 34.2 L148.3571 33.2 L149.4643 32.8 L150.5714 32.4 L151.6786 32.4 L152.7857 32 L153.8929 31.6 L155 31.8"/>
</g>
</g>
</svg>