<svg viewBox="0 0 155 58" preserveAspectRatio="none" class="svggraph" id="svgthumb_us" style="overflow:visible;width:155px;height:58px;" xmlns="http://www.w3.org/2000/svg" xlink="http://www.w3.org/1999/xlink" title="Chart for hailey">
<title>Last ranked
#81 in 2020</title>
<rect x="2" y="43" height="13" width="17" style="fill:rgb(200,200,200)"/>
<image x="2.5" y="43.5" href="/images/flags/24/us.png" preserveAspectRatio="xMinYMax meet" width="16" height="12"/>
<text x="153" y="55" class="svgtitle" text-anchor="end" style="fill:#000000;font-size:13px;">United States</text>
<line x1="0" y1="41" x2="155" y2="41" class="svggridline" style="stroke:rgb(200,200,200);stroke-width:1.3"/>
<g id="svgthumb_us-namepaths">
<g style="fill:none;stroke:#ff0000;stroke-width:1.3;" class="svgcurveline" id="svgthumb_us-hailey-f">
<path d=" M112.375 40.36 L112.9286 40.28 L114.0357 40.2 L115.1429 39.96 L116.25 39.4 L117.3571 39 L118.4643 38.68 L119.5714 38.2 L120.6786 37.96 L121.7857 37.32 L122.8929 35.08 L124 33.4 L125.1071 30.76 L126.2143 29.96 L127.3214 28.68 L128.4286 25.32 L129.5357 23.64 L130.6429 22.52 L131.75 18.92 L132.8571 9.64 L133.9643 8.52 L135.0714 8.6 L136.1786 5.88 L137.2857 6.52 L138.3929 7.16 L139.5 8.76 L140.6071 9.08 L141.7143 10.76 L142.8214 12.04 L143.9286 12.36 L145.0357 15.08 L146.1429 16.6 L147.25 20.12 L148.3571 22.12 L149.4643 23.56 L150.5714 24.68 L151.6786 25.24 L152.7857 26.04 L153.8929 25.72 L155 26.68"/>
</g>
</g>
</svg>