<svg viewBox="0 0 155 58" preserveAspectRatio="none" class="svggraph" id="svgthumb_us" style="overflow:visible;width:155px;height:58px;" xmlns="http://www.w3.org/2000/svg" xlink="http://www.w3.org/1999/xlink" title="Chart for hallie">
<title>Last ranked
#374 in 2020 (f)
#896 in 1911 (m)</title>
<rect x="2" y="43" height="13" width="17" style="fill:rgb(200,200,200)"/>
<image x="2.5" y="43.5" href="/images/flags/24/us.png" preserveAspectRatio="xMinYMax meet" width="16" height="12"/>
<text x="153" y="55" class="svgtitle" text-anchor="end" style="fill:#000000;font-size:13px;">United States</text>
<line x1="0" y1="41" x2="155" y2="41" class="svggridline" style="stroke:rgb(200,200,200);stroke-width:1.3"/>
<g id="svgthumb_us-namepaths">
<g style="fill:none;stroke:#ff0000;stroke-width:1.3;" class="svgcurveline" id="svgthumb_us-hallie-f">
<path d="M0 17.8889 L1.1071 25 L2.2143 17 L3.3214 17.8889 L4.4286 18.7778 L5.5357 17.4444 L6.6429 17.8889 L7.75 14.3333 L8.8571 19.2222 L9.9643 18.3333 L11.0714 14.3333 L12.1786 20.5556 L13.2857 18.7778 L14.3929 12.5556 L15.5 10.7778 L16.6071 17.4444 L17.7143 17.4444 L18.8214 13.8889 L19.9286 17.8889 L21.0357 18.7778 L22.1429 19.2222 L23.25 17.4444 L24.3571 17 L25.4643 20.5556 L26.5714 19.2222 L27.6786 22.3333 L28.7857 22.3333 L29.8929 20.1111 L31 24.5556 L32.1071 25.4444 L33.2143 16.1111 L34.3214 22.3333 L35.4286 27.2222 L36.5357 29 L37.6429 29.4444 L38.75 29.8889 L39.8571 30.7778 L40.9643 31.2222 L42.0714 32.1111 L43.1786 31.2222 L44.2857 32.1111 L45.3929 32.5556 L46.5 31.6667 L47.6071 33.8889 L48.7143 33.4444 L49.8214 33.4444 L50.9286 33.8889 L52.0357 35.2222 L53.1429 34.7778 L54.25 35.6667 L55.3571 34.7778 L56.4643 36.1111 L57.5714 35.6667 L58.6786 36.1111 L59.7857 37.4444 L60.8929 37.4444 L62 37.4444 L63.1071 37.8889 L64.2143 37.4444 L65.3214 37.8889 L66.4286 38.3333 L67.5357 37.8889 L68.6429 38.7778 L69.75 38.7778 L70.8571 38.7778 L71.9643 38.7778 L72.5179 39.2222 M100.1964 37.8889 L100.75 37.8889 L101.3036 37.8889 M113.4821 37.4444 L114.0357 37 L115.1429 37 L116.25 36.1111 L117.3571 34.7778 L118.4643 36.1111 L119.5714 35.6667 L120.6786 35.6667 L121.7857 35.2222 L122.8929 33.8889 L124 32.5556 L125.1071 29.4444 L126.2143 30.3333 L127.3214 30.3333 L128.4286 29.8889 L129.5357 30.7778 L130.6429 28.5556 L131.75 21.4444 L132.8571 17 L133.9643 21 L135.0714 22.3333 L136.1786 24.5556 L137.2857 25.4444 L138.3929 26.7778 L139.5 26.3333 L140.6071 28.5556 L141.7143 28.1111 L142.8214 28.5556 L143.9286 29.4444 L145.0357 29.8889 L146.1429 27.6667 L147.25 27.6667 L148.3571 29.4444 L149.4643 28.5556 L150.5714 28.5556 L151.6786 26.7778 L152.7857 24.5556 L153.8929 21.8889 L155 20.1111"/>
</g>
<g style="fill:none;stroke:#0000ff;stroke-width:1.3;" class="svgcurveline" id="svgthumb_us-hallie-m">
<path d="M0 38.7778 L0.5536 39.2222 M1.6607 39.2222 L2.2143 39.2222 L3.3214 38.3333 L4.4286 38.3333 L5.5357 38.3333 L6.6429 37.4444 L7.75 37.8889 L8.8571 37.4444 L9.9643 37.8889 L11.0714 35.2222 L12.1786 37.4444 L13.2857 38.7778 L14.3929 37 L15.5 36.1111 L16.6071 37 L17.7143 34.7778 L18.8214 36.1111 L19.9286 38.7778 L21.0357 36.1111 L22.1429 35.6667 L23.25 36.5556 L24.3571 37.4444 L24.9107 38.7778 M26.0179 38.7778 L26.5714 37 L27.6786 38.3333 L28.7857 37 L29.8929 37.8889 L30.4464 38.7778 M32.6607 38.3333 L33.2143 38.3333 L34.3214 38.3333 L34.875 38.7778"/>
</g>
</g>
</svg>