<svg viewBox="0 0 155 58" preserveAspectRatio="none" class="svggraph" id="svgthumb_us" style="overflow:visible;width:155px;height:58px;" xmlns="http://www.w3.org/2000/svg" xlink="http://www.w3.org/1999/xlink" title="Chart for hannah">
<title>Last ranked
#39 in 2020</title>
<rect x="2" y="43" height="13" width="17" style="fill:rgb(200,200,200)"/>
<image x="2.5" y="43.5" href="/images/flags/24/us.png" preserveAspectRatio="xMinYMax meet" width="16" height="12"/>
<text x="153" y="55" class="svgtitle" text-anchor="end" style="fill:#000000;font-size:13px;">United States</text>
<line x1="0" y1="41" x2="155" y2="41" class="svggridline" style="stroke:rgb(200,200,200);stroke-width:1.3"/>
<g id="svgthumb_us-namepaths">
<g style="fill:none;stroke:#ff0000;stroke-width:1.3;" class="svgcurveline" id="svgthumb_us-hannah-f">
<path d="M0 33.4667 L1.1071 34.4 L2.2143 34.8333 L3.3214 35.2 L4.4286 34.3333 L5.5357 35.4667 L6.6429 35.5 L7.75 35 L8.8571 35.8 L9.9643 35.7 L11.0714 36.6 L12.1786 36.0333 L13.2857 36.1667 L14.3929 36.5 L15.5 36.8667 L16.6071 36.9333 L17.7143 36.7333 L18.8214 37.1333 L19.9286 36.9 L21.0357 37.1333 L22.1429 37.6 L23.25 37.5 L24.3571 37.7667 L25.4643 38 L26.5714 38.0333 L27.6786 38.6333 L28.7857 38.2667 L29.8929 38.6333 L31 38.7333 L32.1071 38.4667 L33.2143 38.5667 L34.3214 38.9 L35.4286 38.9667 L36.5357 39 L37.6429 39.1333 L38.75 39.2333 L39.8571 39.3 L40.9643 39.4 L42.0714 39.5667 L43.1786 39.5 L44.2857 39.7333 L45.3929 39.7 L46.5 39.9 L47.6071 39.8333 L48.7143 40.0333 L49.8214 40 L50.9286 40.0333 L52.0357 40.0667 L53.1429 40.2333 L54.25 40.2667 L55.3571 40.2667 L56.4643 40.3667 L57.5714 40.3 L58.6786 40.3667 L59.7857 40.2667 L60.8929 40.3667 L62 40.4667 L63.1071 40.4 L64.2143 40.4333 L65.3214 40.3667 L66.4286 40.4667 L67.5357 40.5333 L68.6429 40.5 L69.75 40.5333 L70.8571 40.6 L71.9643 40.6333 L73.0714 40.7 L74.1786 40.6667 L75.2857 40.6333 L76.3929 40.6667 L77.5 40.7 L78.6071 40.7 L79.7143 40.7333 L80.8214 40.7333 L81.9286 40.7333 L83.0357 40.7667 L84.1429 40.7667 L85.25 40.8 L86.3571 40.8 L87.4643 40.7667 L88.5714 40.8 L89.6786 40.7667 L90.7857 40.7667 L91.8929 40.7667 L93 40.7667 L94.1071 40.7667 L95.2143 40.7333 L96.3214 40.7667 L97.4286 40.7333 L98.5357 40.7333 L99.6429 40.7 L100.75 40.6667 L101.8571 40.4667 L102.9643 40.3667 L104.0714 40.3 L105.1786 40.0333 L106.2857 39.8667 L107.3929 39.7 L108.5 39.5 L109.6071 39.1333 L110.7143 38.7 L111.8214 38.3667 L112.9286 38.1 L114.0357 36.5333 L115.1429 36.8 L116.25 36.5667 L117.3571 34.8667 L118.4643 32.8333 L119.5714 31.3667 L120.6786 27.9 L121.7857 24.3333 L122.8929 23.3333 L124 21.9 L125.1071 19.8667 L126.2143 16.2 L127.3214 11.4667 L128.4286 8.6667 L129.5357 5.0333 L130.6429 4.2333 L131.75 3.8667 L132.8571 2.4333 L133.9643 6.1333 L135.0714 9.2333 L136.1786 11.7 L137.2857 15.2 L138.3929 16.6 L139.5 17.8 L140.6071 20.0333 L141.7143 25.7 L142.8214 28.5333 L143.9286 29.1 L145.0357 29.6667 L146.1429 28.4667 L147.25 28.3667 L148.3571 29.7667 L149.4643 30 L150.5714 30.6 L151.6786 30.5333 L152.7857 30.8333 L153.8929 30.7333 L155 31.6667"/>
</g>
</g>
</svg>