<svg viewBox="0 0 155 58" preserveAspectRatio="none" class="svggraph" id="svgthumb_us" style="overflow:visible;width:155px;height:58px;" xmlns="http://www.w3.org/2000/svg" xlink="http://www.w3.org/1999/xlink" title="Chart for harley">
<title>Last ranked
#781 in 2020 (m)
#290 in 2020 (f)</title>
<rect x="2" y="43" height="13" width="17" style="fill:rgb(200,200,200)"/>
<image x="2.5" y="43.5" href="/images/flags/24/us.png" preserveAspectRatio="xMinYMax meet" width="16" height="12"/>
<text x="153" y="55" class="svgtitle" text-anchor="end" style="fill:#000000;font-size:13px;">United States</text>
<line x1="0" y1="41" x2="155" y2="41" class="svggridline" style="stroke:rgb(200,200,200);stroke-width:1.3"/>
<g id="svgthumb_us-namepaths">
<g style="fill:none;stroke:#0000ff;stroke-width:1.3;" class="svgcurveline" id="svgthumb_us-harley-m">
<path d="M0 17.4 L1.1071 18.6 L2.2143 16.6 L3.3214 18.6 L4.4286 17.4 L5.5357 23.4 L6.6429 16.6 L7.75 13 L8.8571 15.8 L9.9643 21 L11.0714 23.8 L12.1786 17.4 L13.2857 13.4 L14.3929 15.8 L15.5 21 L16.6071 19.4 L17.7143 21 L18.8214 14.2 L19.9286 19.4 L21.0357 20.6 L22.1429 21.4 L23.25 19 L24.3571 15.8 L25.4643 21 L26.5714 25 L27.6786 21.8 L28.7857 26.6 L29.8929 22.2 L31 23.8 L32.1071 24.6 L33.2143 23.8 L34.3214 26.6 L35.4286 23.4 L36.5357 25.8 L37.6429 22.2 L38.75 21.4 L39.8571 21.4 L40.9643 23 L42.0714 22.2 L43.1786 23 L44.2857 23.4 L45.3929 22.2 L46.5 22.2 L47.6071 24.2 L48.7143 23 L49.8214 25 L50.9286 23.8 L52.0357 25.4 L53.1429 24.2 L54.25 25.8 L55.3571 25 L56.4643 24.6 L57.5714 26.2 L58.6786 27 L59.7857 27 L60.8929 27.4 L62 27.8 L63.1071 27.8 L64.2143 28.6 L65.3214 29.4 L66.4286 29.4 L67.5357 30.6 L68.6429 31.8 L69.75 31.4 L70.8571 32.2 L71.9643 32.2 L73.0714 33.4 L74.1786 33.8 L75.2857 34.2 L76.3929 34.2 L77.5 35 L78.6071 35.8 L79.7143 35.4 L80.8214 35.8 L81.9286 36.2 L83.0357 36.6 L84.1429 36.6 L85.25 36.6 L86.3571 37.8 L87.4643 37.8 L88.5714 37.8 L89.6786 37.8 L90.7857 38.2 L91.8929 38.6 L93 38.2 L94.1071 38.2 L95.2143 37.8 L96.3214 38.2 L97.4286 38.2 L98.5357 38.6 L99.6429 38.2 L100.75 38.2 L101.8571 37.8 L102.9643 37.8 L104.0714 37 L105.1786 37.4 L106.2857 37 L107.3929 36.6 L108.5 35.4 L109.6071 35.4 L110.7143 35 L111.8214 35.8 L112.9286 35.8 L114.0357 36.6 L115.1429 36.6 L116.25 36.2 L117.3571 36.6 L118.4643 37 L119.5714 36.6 L120.6786 35.8 L121.7857 35.4 L122.8929 34.2 L124 30.2 L125.1071 27 L126.2143 25.4 L127.3214 28.2 L128.4286 29 L129.5357 29.8 L130.6429 30.2 L131.75 31.4 L132.8571 30.6 L133.9643 30.6 L135.0714 29.8 L136.1786 29.4 L137.2857 30.6 L138.3929 31.8 L139.5 31.8 L140.6071 33.4 L141.7143 33.4 L142.8214 32.2 L143.9286 32.2 L145.0357 33.8 L146.1429 33.4 L147.25 33 L148.3571 33 L149.4643 33.4 L150.5714 33.4 L151.6786 33 L152.7857 35 L153.8929 35 L155 34.6"/>
</g>
<g style="fill:none;stroke:#ff0000;stroke-width:1.3;" class="svgcurveline" id="svgthumb_us-harley-f">
<path d=" M122.3393 37.4 L122.8929 34.6 L124 31.8 L125.1071 26.6 L126.2143 23.4 L127.3214 25.4 L128.4286 25.8 L129.5357 26.2 L130.6429 23.8 L131.75 25.4 L132.8571 25.8 L133.9643 24.6 L135.0714 23.4 L136.1786 21 L137.2857 23.8 L138.3929 24.6 L139.5 25 L140.6071 28.2 L141.7143 26.2 L142.8214 25.8 L143.9286 26.2 L145.0357 26.2 L146.1429 25.4 L147.25 23 L148.3571 21.4 L149.4643 17.8 L150.5714 11.4 L151.6786 8.6 L152.7857 10.6 L153.8929 14.2 L155 16.2"/>
</g>
</g>
</svg>