<svg viewBox="0 0 155 58" preserveAspectRatio="none" class="svggraph" id="svgthumb_us" style="overflow:visible;width:155px;height:58px;" xmlns="http://www.w3.org/2000/svg" xlink="http://www.w3.org/1999/xlink" title="Chart for harlow">
<title>Last ranked
#324 in 2020 (f)
#972 in 1936 (m)</title>
<rect x="2" y="43" height="13" width="17" style="fill:rgb(200,200,200)"/>
<image x="2.5" y="43.5" href="/images/flags/24/us.png" preserveAspectRatio="xMinYMax meet" width="16" height="12"/>
<text x="153" y="55" class="svgtitle" text-anchor="end" style="fill:#000000;font-size:13px;">United States</text>
<line x1="0" y1="41" x2="155" y2="41" class="svggridline" style="stroke:rgb(200,200,200);stroke-width:1.3"/>
<g id="svgthumb_us-namepaths">
<g style="fill:none;stroke:#ff0000;stroke-width:1.3;" class="svgcurveline" id="svgthumb_us-harlow-f">
<path d=" M142.2679 34.5 L142.8214 33.5 L143.9286 32 L145.0357 29 L146.1429 28 L147.25 27 L148.3571 25.5 L149.4643 21.5 L150.5714 20.5 L151.6786 20 L152.7857 18 L153.8929 13.5 L155 14"/>
</g>
<g style="fill:none;stroke:#0000ff;stroke-width:1.3;" class="svgcurveline" id="svgthumb_us-harlow-m">
<path d=" M2.7679 39 L3.3214 39 L4.4286 37.5 L4.9821 39 M7.1964 39 L7.75 38.5 L8.3036 38.5 M11.625 39 L12.1786 38.5 L12.7321 38.5 M16.0536 38.5 L16.6071 38 L17.1607 38.5 M19.375 38.5 L19.9286 38.5 L20.4821 38.5 M21.5893 38.5 L22.1429 38 L22.6964 38.5 M28.2321 38 L28.7857 38 L29.3393 38.5 M39.3036 38.5 L39.8571 38.5 L40.4107 39 M61.4464 39 L62 39 L62.5536 39"/>
</g>
</g>
</svg>