<svg viewBox="0 0 155 58" preserveAspectRatio="none" class="svggraph" id="svgthumb_us" style="overflow:visible;width:155px;height:58px;" xmlns="http://www.w3.org/2000/svg" xlink="http://www.w3.org/1999/xlink" title="Chart for harmony">
<title>Last ranked
#175 in 2020</title>
<rect x="2" y="43" height="13" width="17" style="fill:rgb(200,200,200)"/>
<image x="2.5" y="43.5" href="/images/flags/24/us.png" preserveAspectRatio="xMinYMax meet" width="16" height="12"/>
<text x="153" y="55" class="svgtitle" text-anchor="end" style="fill:#000000;font-size:13px;">United States</text>
<line x1="0" y1="41" x2="155" y2="41" class="svggridline" style="stroke:rgb(200,200,200);stroke-width:1.3"/>
<g id="svgthumb_us-namepaths">
<g style="fill:none;stroke:#ff0000;stroke-width:1.3;" class="svgcurveline" id="svgthumb_us-harmony-f">
<path d=" M104.625 39.4 L105.1786 38.8 L106.2857 38 L107.3929 38.4 L108.5 38 L109.6071 38 L110.7143 38.6 L111.8214 38.8 L112.9286 39 L114.0357 39.2 L115.1429 39.2 L115.6964 39.4 M128.9821 39 L129.5357 38.8 L130.6429 38.8 L131.75 38.2 L132.8571 37.8 L133.9643 37.4 L135.0714 37.2 L136.1786 36.4 L137.2857 36.2 L138.3929 33.2 L139.5 31.8 L140.6071 30.8 L141.7143 30.8 L142.8214 28.2 L143.9286 27.8 L145.0357 26.4 L146.1429 24.2 L147.25 24.2 L148.3571 23.4 L149.4643 23 L150.5714 23.2 L151.6786 23 L152.7857 23 L153.8929 22.4 L155 22.6"/>
</g>
</g>
</svg>