<svg viewBox="0 0 155 58" preserveAspectRatio="none" class="svggraph" id="svgthumb_us" style="overflow:visible;width:155px;height:58px;" xmlns="http://www.w3.org/2000/svg" xlink="http://www.w3.org/1999/xlink" title="Chart for harper">
<title>Last ranked
#10 in 2020 (f)
#968 in 2018 (m)</title>
<rect x="2" y="43" height="13" width="17" style="fill:rgb(200,200,200)"/>
<image x="2.5" y="43.5" href="/images/flags/24/us.png" preserveAspectRatio="xMinYMax meet" width="16" height="12"/>
<text x="153" y="55" class="svgtitle" text-anchor="end" style="fill:#000000;font-size:13px;">United States</text>
<line x1="0" y1="41" x2="155" y2="41" class="svggridline" style="stroke:rgb(200,200,200);stroke-width:1.3"/>
<g id="svgthumb_us-namepaths">
<g style="fill:none;stroke:#ff0000;stroke-width:1.3;" class="svgcurveline" id="svgthumb_us-harper-f">
<path d=" M136.7321 40.2 L137.2857 40.0667 L138.3929 39.8 L139.5 39.0667 L140.6071 38.7333 L141.7143 37.4 L142.8214 34.7333 L143.9286 32.0667 L145.0357 24.9333 L146.1429 16.2667 L147.25 12.3333 L148.3571 8.2 L149.4643 5.7333 L150.5714 3.8 L151.6786 3.8667 L152.7857 2.8 L153.8929 2.7333 L155 7.6"/>
</g>
<g style="fill:none;stroke:#0000ff;stroke-width:1.3;" class="svgcurveline" id="svgthumb_us-harper-m">
<path d=" M0.5536 40.7333 L1.1071 40.4667 L1.6607 40.7333 M2.7679 40.7333 L3.3214 40.4 L4.4286 40.6 L5.5357 40.4667 L6.6429 40.6 L7.1964 40.6667 M10.5179 40.7333 L11.0714 40.6667 L12.1786 40.6667 L12.7321 40.6667 M16.0536 40.6667 L16.6071 40.4 L17.1607 40.6667 M18.2679 40.6667 L18.8214 40.6667 L19.9286 40.6667 L21.0357 40.5333 L21.5893 40.6667 M27.125 40.6667 L27.6786 40.4 L28.7857 40.4667 L29.3393 40.6667 M138.9464 40.4667 L139.5 40.4 L140.6071 40.3333 L141.7143 40.2667 L142.8214 40 L143.9286 39.8667 L145.0357 39.6667 L146.1429 39.6 L147.25 39.8 L148.3571 39.9333 L149.4643 39.8667 L150.5714 40 L151.6786 40.0667 L152.7857 40.2667 L153.3393 40.2667"/>
</g>
</g>
</svg>