<svg viewBox="0 0 155 58" preserveAspectRatio="none" class="svggraph" id="svgthumb_us" style="overflow:visible;width:155px;height:58px;" xmlns="http://www.w3.org/2000/svg" xlink="http://www.w3.org/1999/xlink" title="Chart for hattie">
<title>Last ranked
#425 in 2020 (f)
#927 in 1906 (m)</title>
<rect x="2" y="43" height="13" width="17" style="fill:rgb(200,200,200)"/>
<image x="2.5" y="43.5" href="/images/flags/24/us.png" preserveAspectRatio="xMinYMax meet" width="16" height="12"/>
<text x="153" y="55" class="svgtitle" text-anchor="end" style="fill:#000000;font-size:13px;">United States</text>
<line x1="0" y1="41" x2="155" y2="41" class="svggridline" style="stroke:rgb(200,200,200);stroke-width:1.3"/>
<g id="svgthumb_us-namepaths">
<g style="fill:none;stroke:#ff0000;stroke-width:1.3;" class="svgcurveline" id="svgthumb_us-hattie-f">
<path d="M0 5.9778 L1.1071 6.1556 L2.2143 8.0222 L3.3214 7.8889 L4.4286 8.9111 L5.5357 9.4444 L6.6429 8.0667 L7.75 8.5556 L8.8571 10.5556 L9.9643 9.8 L11.0714 10.9556 L12.1786 13.4444 L13.2857 14.0667 L14.3929 15.0444 L15.5 16.0222 L16.6071 16.9556 L17.7143 17.7111 L18.8214 18.6 L19.9286 19.4889 L21.0357 21.4889 L22.1429 19.2667 L23.25 21.6667 L24.3571 22.5556 L25.4643 23.3111 L26.5714 23.9333 L27.6786 23.8444 L28.7857 26.0222 L29.8929 25.9778 L31 26.7333 L32.1071 27.3111 L33.2143 27.0889 L34.3214 29.5778 L35.4286 30.4667 L36.5357 31.2667 L37.6429 31.6222 L38.75 33.0889 L39.8571 33.2667 L40.9643 33.6667 L42.0714 33.6222 L43.1786 33.8444 L44.2857 34.3333 L45.3929 34.8222 L46.5 34.6444 L47.6071 34.9556 L48.7143 34.9556 L49.8214 34.8667 L50.9286 35.2222 L52.0357 35.5778 L53.1429 35.8889 L54.25 36.1556 L55.3571 36.1111 L56.4643 36.7333 L57.5714 36.7333 L58.6786 36.3778 L59.7857 36.6 L60.8929 37 L62 37.1333 L63.1071 37.2667 L64.2143 37.4 L65.3214 37.4444 L66.4286 37.6222 L67.5357 37.9778 L68.6429 38.4667 L69.75 38.4667 L70.8571 38.5556 L71.9643 38.5556 L73.0714 38.9556 L74.1786 39.0889 L75.2857 39.0889 L76.3929 39.1778 L77.5 39.3556 L78.6071 39.6222 L79.7143 39.7111 L80.8214 39.8444 L81.9286 40.0222 L83.0357 40.0667 L84.1429 40.1556 L85.25 40.2889 L86.3571 40.3333 L87.4643 40.3778 L88.5714 40.3778 L89.6786 40.4667 L90.7857 40.4667 L91.8929 40.5111 L93 40.6 L94.1071 40.6 L95.2143 40.6889 L96.3214 40.6889 L97.4286 40.7333 L97.9821 40.7333 M144.4821 40.4222 L145.0357 40.4222 L146.1429 40.0667 L147.25 39.8444 L148.3571 39.8444 L149.4643 39.4889 L150.5714 39.5778 L151.6786 39.4444 L152.7857 39.4889 L153.8929 39.3111 L155 39.1778"/>
</g>
<g style="fill:none;stroke:#0000ff;stroke-width:1.3;" class="svgcurveline" id="svgthumb_us-hattie-m">
<path d="M0 40.7778 L0.5536 40.8222 M7.1964 40.8222 L7.75 40.7778 L8.3036 40.7778 M10.5179 40.8222 L11.0714 40.6889 L12.1786 40.6889 L13.2857 40.7778 L14.3929 40.6 L14.9464 40.7778 M16.0536 40.7778 L16.6071 40.7333 L17.1607 40.7778 M19.375 40.7778 L19.9286 40.6889 L21.0357 40.6 L21.5893 40.7778 M24.9107 40.7778 L25.4643 40.7778 L26.0179 40.7778 M27.125 40.7778 L27.6786 40.7333 L28.7857 40.7333 L29.3393 40.7778"/>
</g>
</g>
</svg>