<svg viewBox="0 0 155 58" preserveAspectRatio="none" class="svggraph" id="svgthumb_us" style="overflow:visible;width:155px;height:58px;" xmlns="http://www.w3.org/2000/svg" xlink="http://www.w3.org/1999/xlink" title="Chart for hayden">
<title>Last ranked
#177 in 2020 (m)
#294 in 2020 (f)</title>
<rect x="2" y="43" height="13" width="17" style="fill:rgb(200,200,200)"/>
<image x="2.5" y="43.5" href="/images/flags/24/us.png" preserveAspectRatio="xMinYMax meet" width="16" height="12"/>
<text x="153" y="55" class="svgtitle" text-anchor="end" style="fill:#000000;font-size:13px;">United States</text>
<line x1="0" y1="41" x2="155" y2="41" class="svggridline" style="stroke:rgb(200,200,200);stroke-width:1.3"/>
<g id="svgthumb_us-namepaths">
<g style="fill:none;stroke:#0000ff;stroke-width:1.3;" class="svgcurveline" id="svgthumb_us-hayden-m">
<path d="M0 40.6 L0.5536 40.6 M4.9821 40.6 L5.5357 40.5 L6.0893 40.6 M8.3036 40.5 L8.8571 40.5 L9.9643 40.5 L11.0714 40.3 L12.1786 40.2 L13.2857 40.4 L13.8393 40.5 M16.0536 40.5 L16.6071 40.4 L17.7143 40.4 L18.8214 40.3 L19.9286 40.2 L21.0357 40.2 L22.1429 40.4 L23.25 40.4 L23.8036 40.5 M24.9107 40.5 L25.4643 40.5 L26.5714 40.4 L27.6786 40.3 L28.7857 40.2 L29.8929 40.4 L31 40.5 L32.1071 40.2 L33.2143 40.4 L34.3214 40.2 L35.4286 40 L36.5357 40.3 L37.6429 40.3 L38.75 40.2 L39.8571 40.3 L40.9643 40.3 L42.0714 40.4 L43.1786 40.3 L44.2857 40.4 L45.3929 40.4 L46.5 40.4 L47.6071 40.3 L48.7143 40.5 L49.8214 40.5 L50.9286 40.5 L52.0357 40.5 L53.1429 40.5 L54.25 40.5 L55.3571 40.6 L55.9107 40.6 M59.2321 40.6 L59.7857 40.5 L60.8929 40.5 L62 40.6 L62.5536 40.6 M66.9821 40.7 L67.5357 40.7 L68.6429 40.7 L69.75 40.7 L70.8571 40.7 L71.4107 40.7 M73.625 40.7 L74.1786 40.7 L74.7321 40.7 M116.8036 40.6 L117.3571 40.5 L118.4643 40.4 L119.5714 40.4 L120.6786 39.9 L121.7857 38.2 L122.8929 36.6 L124 35.5 L125.1071 34.6 L126.2143 32.2 L127.3214 31.6 L128.4286 30.9 L129.5357 30.6 L130.6429 30.4 L131.75 29.2 L132.8571 26.4 L133.9643 25.2 L135.0714 21 L136.1786 16.7 L137.2857 17.2 L138.3929 13.2 L139.5 11.5 L140.6071 12.7 L141.7143 13.7 L142.8214 18.1 L143.9286 20.6 L145.0357 18.3 L146.1429 23.5 L147.25 26.3 L148.3571 26.9 L149.4643 27.5 L150.5714 29.2 L151.6786 29.4 L152.7857 29.8 L153.8929 30.2 L155 29.3"/>
</g>
<g style="fill:none;stroke:#ff0000;stroke-width:1.3;" class="svgcurveline" id="svgthumb_us-hayden-f">
<path d=" M130.0893 40 L130.6429 39.7 L131.75 39.6 L132.8571 39.3 L133.9643 39.2 L135.0714 38.9 L136.1786 38.6 L137.2857 38.6 L138.3929 37.3 L139.5 37.4 L140.6071 32.8 L141.7143 28.2 L142.8214 28.8 L143.9286 31.3 L145.0357 32.3 L146.1429 32.7 L147.25 32.3 L148.3571 32.5 L149.4643 32.2 L150.5714 32.8 L151.6786 33.8 L152.7857 34.3 L153.8929 34.8 L155 34.8"/>
</g>
</g>
</svg>