<svg viewBox="0 0 155 58" preserveAspectRatio="none" class="svggraph" id="svgthumb_us" style="overflow:visible;width:155px;height:58px;" xmlns="http://www.w3.org/2000/svg" xlink="http://www.w3.org/1999/xlink" title="Chart for hazel">
<title>Last ranked
#31 in 2020 (f)
#966 in 1940 (m)</title>
<rect x="2" y="43" height="13" width="17" style="fill:rgb(200,200,200)"/>
<image x="2.5" y="43.5" href="/images/flags/24/us.png" preserveAspectRatio="xMinYMax meet" width="16" height="12"/>
<text x="153" y="55" class="svgtitle" text-anchor="end" style="fill:#000000;font-size:13px;">United States</text>
<line x1="0" y1="41" x2="155" y2="41" class="svggridline" style="stroke:rgb(200,200,200);stroke-width:1.3"/>
<g id="svgthumb_us-namepaths">
<g style="fill:none;stroke:#ff0000;stroke-width:1.3;" class="svgcurveline" id="svgthumb_us-hazel-f">
<path d="M0 40.12 L1.1071 38.96 L2.2143 38.48 L3.3214 36.92 L4.4286 34.92 L5.5357 33.08 L6.6429 29.84 L7.75 28.04 L8.8571 22.04 L9.9643 18.68 L11.0714 13.92 L12.1786 11.56 L13.2857 7.28 L14.3929 4.56 L15.5 5.36 L16.6071 4.56 L17.7143 5.68 L18.8214 3.32 L19.9286 5.4 L21.0357 8.16 L22.1429 10.48 L23.25 8 L24.3571 9.08 L25.4643 10.24 L26.5714 9.52 L27.6786 10.64 L28.7857 11.44 L29.8929 11 L31 10.56 L32.1071 11.56 L33.2143 12.08 L34.3214 11.2 L35.4286 12.4 L36.5357 12.96 L37.6429 14.28 L38.75 13.28 L39.8571 14.44 L40.9643 15.08 L42.0714 15.68 L43.1786 15.68 L44.2857 17.52 L45.3929 18.04 L46.5 19.32 L47.6071 21.04 L48.7143 21.44 L49.8214 22.68 L50.9286 23.76 L52.0357 24.52 L53.1429 25.44 L54.25 26.6 L55.3571 27.68 L56.4643 28.28 L57.5714 28.92 L58.6786 29.44 L59.7857 30.6 L60.8929 31.08 L62 31.68 L63.1071 32.48 L64.2143 32.8 L65.3214 33.6 L66.4286 34 L67.5357 34.64 L68.6429 35.52 L69.75 35.84 L70.8571 36.16 L71.9643 36.72 L73.0714 37.24 L74.1786 37.56 L75.2857 37.92 L76.3929 38 L77.5 38.32 L78.6071 38.52 L79.7143 38.76 L80.8214 38.84 L81.9286 38.92 L83.0357 39.2 L84.1429 39.52 L85.25 39.56 L86.3571 39.72 L87.4643 39.88 L88.5714 39.88 L89.6786 40 L90.7857 40.12 L91.8929 40.16 L93 40.24 L94.1071 40.24 L95.2143 40.32 L96.3214 40.4 L97.4286 40.44 L98.5357 40.52 L99.6429 40.48 L100.75 40.56 L101.8571 40.6 L102.9643 40.64 L104.0714 40.64 L105.1786 40.64 L105.7321 40.68 M130.0893 40.6 L130.6429 40.56 L131.75 40.52 L132.8571 40.52 L133.9643 40.36 L135.0714 40.36 L136.1786 40.24 L137.2857 40.2 L138.3929 39.88 L139.5 39.68 L140.6071 39.28 L141.7143 39.16 L142.8214 38.76 L143.9286 38.48 L145.0357 37.96 L146.1429 37.32 L147.25 36.72 L148.3571 35.04 L149.4643 32.16 L150.5714 31.32 L151.6786 30.32 L152.7857 30.32 L153.8929 29.04 L155 28.52"/>
</g>
<g style="fill:none;stroke:#0000ff;stroke-width:1.3;" class="svgcurveline" id="svgthumb_us-hazel-m">
<path d=" M6.0893 40.84 L6.6429 40.8 L7.75 40.8 L8.8571 40.6 L9.9643 40.72 L11.0714 40.72 L12.1786 40.52 L13.2857 40.64 L14.3929 40.56 L15.5 40.68 L16.6071 40.6 L17.7143 40.64 L18.8214 40.52 L19.9286 40.64 L21.0357 40.6 L22.1429 40.64 L23.25 40.36 L24.3571 40.56 L25.4643 40.52 L26.5714 40.32 L27.6786 40.56 L28.7857 40.68 L29.8929 40.52 L31 40.32 L32.1071 40.44 L33.2143 40.48 L34.3214 40.56 L35.4286 40.6 L36.5357 40.72 L37.6429 40.64 L38.75 40.68 L39.8571 40.64 L40.9643 40.72 L42.0714 40.76 L43.1786 40.68 L44.2857 40.72 L45.3929 40.72 L46.5 40.76 L47.6071 40.76 L48.7143 40.76 L49.8214 40.8 L50.9286 40.8 L52.0357 40.84 L52.5893 40.84 M53.6964 40.84 L54.25 40.76 L55.3571 40.8 L56.4643 40.8 L57.5714 40.8 L58.6786 40.84 L59.7857 40.84 L60.8929 40.8 L61.4464 40.84 M63.6607 40.84 L64.2143 40.84 L64.7679 40.84 M65.875 40.84 L66.4286 40.84 L66.9821 40.88"/>
</g>
</g>
</svg>