<svg viewBox="0 0 155 58" preserveAspectRatio="none" class="svggraph" id="svgthumb_us" style="overflow:visible;width:155px;height:58px;" xmlns="http://www.w3.org/2000/svg" xlink="http://www.w3.org/1999/xlink" title="Chart for heaven">
<title>Last ranked
#422 in 2020</title>
<rect x="2" y="43" height="13" width="17" style="fill:rgb(200,200,200)"/>
<image x="2.5" y="43.5" href="/images/flags/24/us.png" preserveAspectRatio="xMinYMax meet" width="16" height="12"/>
<text x="153" y="55" class="svgtitle" text-anchor="end" style="fill:#000000;font-size:13px;">United States</text>
<line x1="0" y1="41" x2="155" y2="41" class="svggridline" style="stroke:rgb(200,200,200);stroke-width:1.3"/>
<g id="svgthumb_us-namepaths">
<g style="fill:none;stroke:#ff0000;stroke-width:1.3;" class="svgcurveline" id="svgthumb_us-heaven-f">
<path d=" M121.2321 37 L121.7857 36.1111 L122.8929 35.2222 L124 35.2222 L125.1071 34.7778 L126.2143 33 L127.3214 31.2222 L128.4286 32.1111 L129.5357 28.5556 L130.6429 22.3333 L131.75 24.5556 L132.8571 21 L133.9643 17 L135.0714 15.6667 L136.1786 14.7778 L137.2857 14.3333 L138.3929 11.6667 L139.5 12.5556 L140.6071 13.8889 L141.7143 14.3333 L142.8214 14.3333 L143.9286 18.3333 L145.0357 18.3333 L146.1429 18.3333 L147.25 17.8889 L148.3571 18.3333 L149.4643 19.2222 L150.5714 17.8889 L151.6786 18.3333 L152.7857 21 L153.8929 22.7778 L155 22.7778"/>
</g>
</g>
</svg>