<svg viewBox="0 0 155 58" preserveAspectRatio="none" class="svggraph" id="svgthumb_us" style="overflow:visible;width:155px;height:58px;" xmlns="http://www.w3.org/2000/svg" xlink="http://www.w3.org/1999/xlink" title="Chart for heidi">
<title>Last ranked
#381 in 2020</title>
<rect x="2" y="43" height="13" width="17" style="fill:rgb(200,200,200)"/>
<image x="2.5" y="43.5" href="/images/flags/24/us.png" preserveAspectRatio="xMinYMax meet" width="16" height="12"/>
<text x="153" y="55" class="svgtitle" text-anchor="end" style="fill:#000000;font-size:13px;">United States</text>
<line x1="0" y1="41" x2="155" y2="41" class="svggridline" style="stroke:rgb(200,200,200);stroke-width:1.3"/>
<g id="svgthumb_us-namepaths">
<g style="fill:none;stroke:#ff0000;stroke-width:1.3;" class="svgcurveline" id="svgthumb_us-heidi-f">
<path d=" M64.7679 40.6 L65.3214 40.5 L65.875 40.6 M68.0893 40.6 L68.6429 40.5 L69.75 40.4 L70.8571 40.3 L71.9643 40.4 L73.0714 40 L74.1786 39.9 L75.2857 39.6 L76.3929 39.6 L77.5 39.6 L78.6071 39.3 L79.7143 38.8 L80.8214 37.5 L81.9286 36.6 L83.0357 35.9 L84.1429 34.4 L85.25 34.1 L86.3571 31.6 L87.4643 31.8 L88.5714 29.7 L89.6786 28.9 L90.7857 27.9 L91.8929 26.2 L93 23.4 L94.1071 21.5 L95.2143 18.4 L96.3214 18.5 L97.4286 18.1 L98.5357 15.3 L99.6429 15.7 L100.75 14.1 L101.8571 11.7 L102.9643 12.7 L104.0714 11.1 L105.1786 13.5 L106.2857 16.2 L107.3929 18.9 L108.5 19.3 L109.6071 19.7 L110.7143 18.4 L111.8214 20.1 L112.9286 22.3 L114.0357 24.7 L115.1429 26.2 L116.25 28.4 L117.3571 29.5 L118.4643 30.8 L119.5714 31.9 L120.6786 33.3 L121.7857 33.9 L122.8929 34.5 L124 34.8 L125.1071 35.2 L126.2143 35.8 L127.3214 36 L128.4286 35.8 L129.5357 36.4 L130.6429 36.6 L131.75 36.3 L132.8571 36.6 L133.9643 36.8 L135.0714 36.2 L136.1786 36.1 L137.2857 36.4 L138.3929 36.1 L139.5 35.6 L140.6071 35.7 L141.7143 35.4 L142.8214 35.5 L143.9286 35.5 L145.0357 36.1 L146.1429 36.2 L147.25 36.3 L148.3571 36.1 L149.4643 36.1 L150.5714 36.4 L151.6786 36.5 L152.7857 36.1 L153.8929 36.4 L155 36.4"/>
</g>
</g>
</svg>