<svg viewBox="0 0 155 58" preserveAspectRatio="none" class="svggraph" id="svgthumb_us" style="overflow:visible;width:155px;height:58px;" xmlns="http://www.w3.org/2000/svg" xlink="http://www.w3.org/1999/xlink" title="Chart for helen">
<title>Last ranked
#424 in 2020 (f)
#904 in 1941 (m)</title>
<rect x="2" y="43" height="13" width="17" style="fill:rgb(200,200,200)"/>
<image x="2.5" y="43.5" href="/images/flags/24/us.png" preserveAspectRatio="xMinYMax meet" width="16" height="12"/>
<text x="153" y="55" class="svgtitle" text-anchor="end" style="fill:#000000;font-size:13px;">United States</text>
<line x1="0" y1="41" x2="155" y2="41" class="svggridline" style="stroke:rgb(200,200,200);stroke-width:1.3"/>
<g id="svgthumb_us-namepaths">
<g style="fill:none;stroke:#ff0000;stroke-width:1.3;" class="svgcurveline" id="svgthumb_us-helen-f">
<path d="M0 32.5871 L1.1071 33.0129 L2.2143 31.6581 L3.3214 31.7355 L4.4286 31.7484 L5.5357 30.6903 L6.6429 30.3677 L7.75 29.3355 L8.8571 28.4194 L9.9643 27.9806 L11.0714 26.2129 L12.1786 25.129 L13.2857 24.1613 L14.3929 22.3806 L15.5 20.8968 L16.6071 19.9935 L17.7143 18.5097 L18.8214 17.5161 L19.9286 16.3806 L21.0357 14.6774 L22.1429 15.2452 L23.25 14.3677 L24.3571 13.529 L25.4643 12.5742 L26.5714 12.3677 L27.6786 12.6387 L28.7857 11.4645 L29.8929 12.0194 L31 10.2903 L32.1071 8.5742 L33.2143 8.7677 L34.3214 6.5355 L35.4286 5.5161 L36.5357 3.7871 L37.6429 3.3871 L38.75 2.0968 L39.8571 2.1871 L40.9643 1.671 L42.0714 2.2129 L43.1786 3.9806 L44.2857 4.6 L45.3929 5.8903 L46.5 7.3742 L47.6071 8.5613 L48.7143 9.9419 L49.8214 11.1935 L50.9286 12.8065 L52.0357 14.5742 L53.1429 16.2387 L54.25 17.6065 L55.3571 18.9742 L56.4643 20.3548 L57.5714 21.9032 L58.6786 22.9355 L59.7857 24.1871 L60.8929 25.8258 L62 26.3548 L63.1071 27.5806 L64.2143 28.7548 L65.3214 29.1419 L66.4286 29.8516 L67.5357 30.7548 L68.6429 31.7097 L69.75 32.1871 L70.8571 32.7935 L71.9643 33.0387 L73.0714 33.9161 L74.1786 34.6258 L75.2857 34.8581 L76.3929 35.3355 L77.5 35.8258 L78.6071 36.1484 L79.7143 36.6129 L80.8214 36.9097 L81.9286 37.1419 L83.0357 37.4 L84.1429 37.6968 L85.25 37.9161 L86.3571 38.0194 L87.4643 38.2903 L88.5714 38.471 L89.6786 38.6 L90.7857 38.7161 L91.8929 38.8323 L93 38.9613 L94.1071 39.0258 L95.2143 39.2065 L96.3214 39.3742 L97.4286 39.5806 L98.5357 39.6452 L99.6429 39.7871 L100.75 39.9419 L101.8571 40.0065 L102.9643 40.0581 L104.0714 40.0581 L105.1786 40.1226 L106.2857 40.2258 L107.3929 40.2258 L108.5 40.2774 L109.6071 40.3419 L110.7143 40.3419 L111.8214 40.3548 L112.9286 40.3806 L114.0357 40.3935 L115.1429 40.3806 L116.25 40.4323 L117.3571 40.4581 L118.4643 40.4323 L119.5714 40.4839 L120.6786 40.4452 L121.7857 40.4581 L122.8929 40.5097 L124 40.471 L125.1071 40.4323 L126.2143 40.4323 L127.3214 40.4323 L128.4286 40.3935 L129.5357 40.4452 L130.6429 40.4452 L131.75 40.4452 L132.8571 40.4194 L133.9643 40.4194 L135.0714 40.4323 L136.1786 40.4968 L137.2857 40.4452 L138.3929 40.3935 L139.5 40.4194 L140.6071 40.4323 L141.7143 40.4452 L142.8214 40.471 L143.9286 40.5355 L145.0357 40.5097 L146.1429 40.4839 L147.25 40.5097 L148.3571 40.471 L149.4643 40.4968 L150.5714 40.4581 L151.6786 40.4839 L152.7857 40.4839 L153.8929 40.471 L155 40.471"/>
</g>
<g style="fill:none;stroke:#0000ff;stroke-width:1.3;" class="svgcurveline" id="svgthumb_us-helen-m">
<path d=" M0.5536 40.9484 L1.1071 40.9226 L1.6607 40.9484 M2.7679 40.9484 L3.3214 40.9484 L3.875 40.9484 M4.9821 40.9484 L5.5357 40.9355 L6.0893 40.9484 M9.4107 40.9355 L9.9643 40.9097 L11.0714 40.9226 L12.1786 40.8968 L13.2857 40.9355 L14.3929 40.9097 L15.5 40.9226 L16.6071 40.8323 L17.7143 40.8968 L18.8214 40.8323 L19.9286 40.8323 L21.0357 40.8194 L22.1429 40.8581 L23.25 40.8065 L24.3571 40.7032 L25.4643 40.7161 L26.5714 40.8581 L27.6786 40.7677 L28.7857 40.7677 L29.8929 40.8323 L31 40.7677 L32.1071 40.7419 L33.2143 40.8194 L34.3214 40.7548 L35.4286 40.8968 L36.5357 40.871 L37.6429 40.8968 L38.75 40.9097 L39.8571 40.8839 L40.9643 40.9226 L42.0714 40.8968 L43.1786 40.9226 L44.2857 40.9226 L45.3929 40.9226 L46.5 40.9226 L47.6071 40.9355 L48.7143 40.9097 L49.8214 40.9097 L50.9286 40.9226 L52.0357 40.8968 L53.1429 40.8968 L54.25 40.9097 L55.3571 40.9097 L56.4643 40.9226 L57.5714 40.8968 L58.6786 40.8968 L59.7857 40.9355 L60.8929 40.9226 L62 40.9355 L63.1071 40.9226 L64.2143 40.9226 L65.3214 40.9484 L65.875 40.9484 M66.9821 40.9484 L67.5357 40.9484 L68.0893 40.9613"/>
</g>
</g>
</svg>