<svg viewBox="0 0 155 58" preserveAspectRatio="none" class="svggraph" id="svgthumb_us" style="overflow:visible;width:155px;height:58px;" xmlns="http://www.w3.org/2000/svg" xlink="http://www.w3.org/1999/xlink" title="Chart for helena">
<title>Last ranked
#509 in 2020</title>
<rect x="2" y="43" height="13" width="17" style="fill:rgb(200,200,200)"/>
<image x="2.5" y="43.5" href="/images/flags/24/us.png" preserveAspectRatio="xMinYMax meet" width="16" height="12"/>
<text x="153" y="55" class="svgtitle" text-anchor="end" style="fill:#000000;font-size:13px;">United States</text>
<line x1="0" y1="41" x2="155" y2="41" class="svggridline" style="stroke:rgb(200,200,200);stroke-width:1.3"/>
<g id="svgthumb_us-namepaths">
<g style="fill:none;stroke:#ff0000;stroke-width:1.3;" class="svgcurveline" id="svgthumb_us-helena-f">
<path d="M0 10.5 L1.1071 10 L2.2143 15 L3.3214 12.5 L4.4286 9.5 L5.5357 10.5 L6.6429 18.5 L7.75 16 L8.8571 14 L9.9643 14 L11.0714 16 L12.1786 17 L13.2857 13.5 L14.3929 19 L15.5 18.5 L16.6071 19.5 L17.7143 17.5 L18.8214 14.5 L19.9286 16.5 L21.0357 13.5 L22.1429 23.5 L23.25 17.5 L24.3571 17.5 L25.4643 21.5 L26.5714 22 L27.6786 24 L28.7857 26 L29.8929 20.5 L31 23.5 L32.1071 20.5 L33.2143 20 L34.3214 21 L35.4286 22.5 L36.5357 22.5 L37.6429 20.5 L38.75 21 L39.8571 21.5 L40.9643 21.5 L42.0714 20.5 L43.1786 22.5 L44.2857 25.5 L45.3929 25.5 L46.5 26.5 L47.6071 26 L48.7143 26 L49.8214 27 L50.9286 30.5 L52.0357 29.5 L53.1429 29.5 L54.25 30 L55.3571 30.5 L56.4643 30 L57.5714 31 L58.6786 31 L59.7857 32.5 L60.8929 32.5 L62 33 L63.1071 32 L64.2143 33.5 L65.3214 32.5 L66.4286 32.5 L67.5357 33 L68.6429 33 L69.75 33.5 L70.8571 34.5 L71.9643 34.5 L73.0714 34 L74.1786 35 L75.2857 35 L76.3929 34.5 L77.5 35 L78.6071 35 L79.7143 35.5 L80.8214 35 L81.9286 35.5 L83.0357 36 L84.1429 35.5 L85.25 34.5 L86.3571 35.5 L87.4643 35 L88.5714 36 L89.6786 35.5 L90.7857 35 L91.8929 34 L93 33 L94.1071 34 L95.2143 34.5 L96.3214 35.5 L97.4286 35.5 L98.5357 35.5 L99.6429 35.5 L100.75 35.5 L101.8571 35 L102.9643 35 L104.0714 35 L105.1786 34.5 L106.2857 35 L107.3929 34.5 L108.5 34.5 L109.6071 34 L110.7143 35 L111.8214 35 L112.9286 34.5 L114.0357 35 L115.1429 35.5 L116.25 36 L117.3571 35.5 L118.4643 36.5 L119.5714 36 L120.6786 36.5 L121.7857 36 L122.8929 36 L123.4464 36.5 M124.5536 36.5 L125.1071 35 L126.2143 33.5 L127.3214 32 L128.4286 32 L129.5357 33 L130.6429 32.5 L131.75 30.5 L132.8571 32 L133.9643 30.5 L135.0714 30 L136.1786 27.5 L137.2857 28.5 L138.3929 28 L139.5 27 L140.6071 27 L141.7143 29 L142.8214 28 L143.9286 27 L145.0357 28.5 L146.1429 27.5 L147.25 27 L148.3571 25 L149.4643 26 L150.5714 25.5 L151.6786 25 L152.7857 22.5 L153.8929 23 L155 24"/>
</g>
</g>
</svg>