<svg viewBox="0 0 155 58" preserveAspectRatio="none" class="svggraph" id="svgthumb_us" style="overflow:visible;width:155px;height:58px;" xmlns="http://www.w3.org/2000/svg" xlink="http://www.w3.org/1999/xlink" title="Chart for holly">
<title>Last ranked
#481 in 2020 (f)
#968 in 1900 (m)</title>
<rect x="2" y="43" height="13" width="17" style="fill:rgb(200,200,200)"/>
<image x="2.5" y="43.5" href="/images/flags/24/us.png" preserveAspectRatio="xMinYMax meet" width="16" height="12"/>
<text x="153" y="55" class="svgtitle" text-anchor="end" style="fill:#000000;font-size:13px;">United States</text>
<line x1="0" y1="41" x2="155" y2="41" class="svggridline" style="stroke:rgb(200,200,200);stroke-width:1.3"/>
<g id="svgthumb_us-namepaths">
<g style="fill:none;stroke:#ff0000;stroke-width:1.3;" class="svgcurveline" id="svgthumb_us-holly-f">
<path d=" M61.4464 40.6 L62 40.5 L62.5536 40.5 M63.6607 40.5 L64.2143 40.4 L65.3214 40.4 L66.4286 40.4 L67.5357 39.9 L68.6429 39.3 L69.75 38.8 L70.8571 38.8 L71.9643 38.2 L73.0714 37.9 L74.1786 37.1 L75.2857 37.1 L76.3929 37.4 L77.5 36.3 L78.6071 35.2 L79.7143 34.1 L80.8214 32.9 L81.9286 30.5 L83.0357 28.5 L84.1429 29.7 L85.25 29.6 L86.3571 30.1 L87.4643 30 L88.5714 28.6 L89.6786 28.6 L90.7857 26.6 L91.8929 25.2 L93 23.2 L94.1071 22.6 L95.2143 21.7 L96.3214 22.6 L97.4286 21 L98.5357 17.6 L99.6429 14 L100.75 13.9 L101.8571 13.9 L102.9643 8.1 L104.0714 8.2 L105.1786 8.7 L106.2857 8.1 L107.3929 7.8 L108.5 10.8 L109.6071 9.1 L110.7143 11.3 L111.8214 15.5 L112.9286 15.2 L114.0357 5.3 L115.1429 8.1 L116.25 10.7 L117.3571 14.8 L118.4643 18.3 L119.5714 19.1 L120.6786 21.5 L121.7857 22.6 L122.8929 24.8 L124 24.3 L125.1071 25.6 L126.2143 26 L127.3214 27.8 L128.4286 28.3 L129.5357 30.2 L130.6429 31.1 L131.75 32 L132.8571 32.5 L133.9643 33.6 L135.0714 34.1 L136.1786 34.9 L137.2857 35.5 L138.3929 35.9 L139.5 36.4 L140.6071 36.4 L141.7143 36.6 L142.8214 36.8 L143.9286 37 L145.0357 37.2 L146.1429 37.2 L147.25 37.5 L148.3571 37.3 L149.4643 37.6 L150.5714 38 L151.6786 37.7 L152.7857 37.7 L153.8929 37.4 L155 37.4"/>
</g>
<g style="fill:none;stroke:#0000ff;stroke-width:1.3;" class="svgcurveline" id="svgthumb_us-holly-m">
<path d="M0 40.6 L0.5536 40.6 M4.9821 40.6 L5.5357 40.5 L6.0893 40.6 M8.3036 40.5 L8.8571 40.4 L9.4107 40.6 M14.9464 40.5 L15.5 40.4 L16.0536 40.5 M21.5893 40.5 L22.1429 40.5 L22.6964 40.5"/>
</g>
</g>
</svg>