<svg viewBox="0 0 155 58" preserveAspectRatio="none" class="svggraph" id="svgthumb_us" style="overflow:visible;width:155px;height:58px;" xmlns="http://www.w3.org/2000/svg" xlink="http://www.w3.org/1999/xlink" title="Chart for hope">
<title>Last ranked
#204 in 2020 (f)
#809 in 1880 (m)</title>
<rect x="2" y="43" height="13" width="17" style="fill:rgb(200,200,200)"/>
<image x="2.5" y="43.5" href="/images/flags/24/us.png" preserveAspectRatio="xMinYMax meet" width="16" height="12"/>
<text x="153" y="55" class="svgtitle" text-anchor="end" style="fill:#000000;font-size:13px;">United States</text>
<line x1="0" y1="41" x2="155" y2="41" class="svggridline" style="stroke:rgb(200,200,200);stroke-width:1.3"/>
<g id="svgthumb_us-namepaths">
<g style="fill:none;stroke:#ff0000;stroke-width:1.3;" class="svgcurveline" id="svgthumb_us-hope-f">
<path d="M0 39.2 L1.1071 39.6 L2.2143 40 L3.3214 38.2 L4.4286 39 L5.5357 38.2 L6.6429 39 L7.75 39 L8.3036 40.2 M9.4107 40.2 L9.9643 39 L11.0714 38.4 L12.1786 38.4 L13.2857 39 L14.3929 37.8 L15.5 38 L16.6071 37.8 L17.7143 38.6 L18.8214 38.6 L19.9286 38.6 L21.0357 39.6 L22.1429 38.8 L23.25 38.6 L24.3571 38.8 L25.4643 37.6 L26.5714 37.6 L27.6786 38.6 L28.7857 37.8 L29.8929 38 L31 38.8 L32.1071 37.6 L33.2143 38 L34.3214 38 L35.4286 37.8 L36.5357 37.8 L37.6429 37.8 L38.75 36.8 L39.8571 36.2 L40.9643 35.8 L42.0714 34.8 L43.1786 35.4 L44.2857 35.4 L45.3929 35.4 L46.5 35 L47.6071 35.2 L48.7143 34.8 L49.8214 35.6 L50.9286 36 L52.0357 35.6 L53.1429 36.4 L54.25 36.6 L55.3571 36.8 L56.4643 37.6 L57.5714 37.4 L58.6786 37 L59.7857 37.6 L60.8929 38 L62 37.2 L63.1071 36.8 L64.2143 36.6 L65.3214 37 L66.4286 37.4 L67.5357 37.2 L68.6429 36.4 L69.75 36.8 L70.8571 37.8 L71.9643 37.8 L73.0714 36 L74.1786 36.6 L75.2857 37.2 L76.3929 36.8 L77.5 35.6 L78.6071 36 L79.7143 36.4 L80.8214 36.2 L81.9286 36.2 L83.0357 35.4 L84.1429 35.6 L85.25 36.8 L86.3571 35.4 L87.4643 35.6 L88.5714 35.6 L89.6786 36 L90.7857 36 L91.8929 35 L93 28 L94.1071 28.4 L95.2143 25.6 L96.3214 29.8 L97.4286 31.2 L98.5357 29.8 L99.6429 30.2 L100.75 24.4 L101.8571 25 L102.9643 28.8 L104.0714 24.4 L105.1786 25.6 L106.2857 26.4 L107.3929 28.6 L108.5 30.4 L109.6071 31.8 L110.7143 32.2 L111.8214 33.8 L112.9286 34.8 L114.0357 35.4 L115.1429 32 L116.25 31.2 L117.3571 31.2 L118.4643 32.4 L119.5714 32.4 L120.6786 32.2 L121.7857 30.8 L122.8929 30.6 L124 32 L125.1071 31.4 L126.2143 28.4 L127.3214 25.2 L128.4286 24.2 L129.5357 22.4 L130.6429 20.8 L131.75 17.8 L132.8571 17.8 L133.9643 19 L135.0714 20.2 L136.1786 22 L137.2857 22 L138.3929 22.4 L139.5 24 L140.6071 25 L141.7143 26.2 L142.8214 26.8 L143.9286 27.6 L145.0357 26.6 L146.1429 26 L147.25 26.6 L148.3571 26.2 L149.4643 26.2 L150.5714 27 L151.6786 27.6 L152.7857 27.2 L153.8929 26.2 L155 25"/>
</g>
<g style="fill:none;stroke:#0000ff;stroke-width:1.3;" class="svgcurveline" id="svgthumb_us-hope-m">
<path d="M0 40 L0.5536 40.2"/>
</g>
</g>
</svg>