<svg viewBox="0 0 155 58" preserveAspectRatio="none" class="svggraph" id="svgthumb_us" style="overflow:visible;width:155px;height:58px;" xmlns="http://www.w3.org/2000/svg" xlink="http://www.w3.org/1999/xlink" title="Chart for iris">
<title>Last ranked
#127 in 2020</title>
<rect x="2" y="43" height="13" width="17" style="fill:rgb(200,200,200)"/>
<image x="2.5" y="43.5" href="/images/flags/24/us.png" preserveAspectRatio="xMinYMax meet" width="16" height="12"/>
<text x="153" y="55" class="svgtitle" text-anchor="end" style="fill:#000000;font-size:13px;">United States</text>
<line x1="0" y1="41" x2="155" y2="41" class="svggridline" style="stroke:rgb(200,200,200);stroke-width:1.3"/>
<g id="svgthumb_us-namepaths">
<g style="fill:none;stroke:#ff0000;stroke-width:1.3;" class="svgcurveline" id="svgthumb_us-iris-f">
<path d="M0 38.8 L1.1071 39.4 L2.2143 40.2 L3.3214 39.8 L4.4286 39 L5.5357 38.8 L6.6429 39.4 L7.75 39.8 L8.8571 39.2 L9.9643 38.8 L11.0714 39.2 L12.1786 38.4 L13.2857 38.4 L14.3929 38.6 L15.5 38.6 L16.6071 37.4 L17.7143 37.2 L18.8214 36.4 L19.9286 37.2 L21.0357 37.4 L22.1429 37 L23.25 37.4 L24.3571 37.2 L25.4643 36.4 L26.5714 35.2 L27.6786 34.6 L28.7857 33.2 L29.8929 33 L31 33.6 L32.1071 33.6 L33.2143 34.2 L34.3214 33.2 L35.4286 33.6 L36.5357 31.6 L37.6429 30.4 L38.75 30 L39.8571 30.4 L40.9643 30 L42.0714 30.2 L43.1786 29.4 L44.2857 30.8 L45.3929 30 L46.5 30.6 L47.6071 27 L48.7143 27.4 L49.8214 26 L50.9286 25.4 L52.0357 24.4 L53.1429 24 L54.25 24 L55.3571 25 L56.4643 24.8 L57.5714 25.6 L58.6786 26.4 L59.7857 25.8 L60.8929 26 L62 26.4 L63.1071 26.8 L64.2143 28.2 L65.3214 27.8 L66.4286 28.4 L67.5357 29.8 L68.6429 29.8 L69.75 31 L70.8571 30.6 L71.9643 31.4 L73.0714 31.2 L74.1786 31.4 L75.2857 30.2 L76.3929 30.6 L77.5 29.8 L78.6071 31.4 L79.7143 31.4 L80.8214 31.4 L81.9286 32.8 L83.0357 32.2 L84.1429 31.6 L85.25 32.4 L86.3571 33.4 L87.4643 33.6 L88.5714 33.6 L89.6786 34.2 L90.7857 34.4 L91.8929 35.4 L93 35.6 L94.1071 35.4 L95.2143 36 L96.3214 36 L97.4286 34.2 L98.5357 34.2 L99.6429 34 L100.75 34.8 L101.8571 35.6 L102.9643 34.4 L104.0714 36 L105.1786 35.6 L106.2857 35.6 L107.3929 36.4 L108.5 35.6 L109.6071 35.2 L110.7143 35.4 L111.8214 35.6 L112.9286 35.8 L114.0357 36.6 L115.1429 35.8 L116.25 36 L117.3571 35.8 L118.4643 36.4 L119.5714 36 L120.6786 35.6 L121.7857 35 L122.8929 34.8 L124 35.4 L125.1071 35.6 L126.2143 35.6 L127.3214 35.8 L128.4286 36.2 L129.5357 36 L130.6429 35.2 L131.75 34 L132.8571 34.2 L133.9643 33.6 L135.0714 33.2 L136.1786 33.2 L137.2857 32.8 L138.3929 32.4 L139.5 32.6 L140.6071 31 L141.7143 31.6 L142.8214 30.8 L143.9286 30.6 L145.0357 30.2 L146.1429 29.4 L147.25 28 L148.3571 27.4 L149.4643 25.6 L150.5714 23 L151.6786 20 L152.7857 18.2 L153.8929 17 L155 16.4"/>
</g>
</g>
</svg>