<svg viewBox="0 0 155 58" preserveAspectRatio="none" class="svggraph" id="svgthumb_us" style="overflow:visible;width:155px;height:58px;" xmlns="http://www.w3.org/2000/svg" xlink="http://www.w3.org/1999/xlink" title="Chart for isabelle">
<title>Last ranked
#121 in 2020</title>
<rect x="2" y="43" height="13" width="17" style="fill:rgb(200,200,200)"/>
<image x="2.5" y="43.5" href="/images/flags/24/us.png" preserveAspectRatio="xMinYMax meet" width="16" height="12"/>
<text x="153" y="55" class="svgtitle" text-anchor="end" style="fill:#000000;font-size:13px;">United States</text>
<line x1="0" y1="41" x2="155" y2="41" class="svggridline" style="stroke:rgb(200,200,200);stroke-width:1.3"/>
<g id="svgthumb_us-namepaths">
<g style="fill:none;stroke:#ff0000;stroke-width:1.3;" class="svgcurveline" id="svgthumb_us-isabelle-f">
<path d="M0 30.0667 L1.1071 29.9333 L2.2143 31.6667 L3.3214 30.8667 L4.4286 29.8 L5.5357 31.1333 L6.6429 29.2667 L7.75 31.8 L8.8571 30.2 L9.9643 31 L11.0714 30.7333 L12.1786 32.2 L13.2857 28.3333 L14.3929 28.8667 L15.5 30.6 L16.6071 29.9333 L17.7143 31.5333 L18.8214 29.4 L19.9286 30.2 L21.0357 31.2667 L22.1429 31.6667 L23.25 30.8667 L24.3571 31.2667 L25.4643 30.7333 L26.5714 30.8667 L27.6786 30.0667 L28.7857 29.1333 L29.8929 29.5333 L31 29.4 L32.1071 29.1333 L33.2143 28.6 L34.3214 29.6667 L35.4286 29.1333 L36.5357 28.6 L37.6429 28.6 L38.75 28.7333 L39.8571 29.6667 L40.9643 29.4 L42.0714 31.1333 L43.1786 30.8667 L44.2857 31.4 L45.3929 32.2 L46.5 32.4667 L47.6071 33.2667 L48.7143 33.1333 L49.8214 33.5333 L50.9286 34.0667 L52.0357 34.8667 L53.1429 35 L54.25 35.2667 L55.3571 36.0667 L56.4643 36.3333 L57.5714 36.6 L58.6786 36.7333 L59.7857 37.6667 L60.8929 37.9333 L62 38.2 L63.1071 38.8667 L64.2143 39.1333 L65.3214 39.2667 L66.4286 38.8667 L67.5357 39.2667 L68.6429 39.2667 L69.75 39.5333 L70.8571 39.5333 L71.9643 39.6667 L73.0714 39.9333 L74.1786 39.9333 L75.2857 40.0667 L76.3929 40.2 L77.5 40.2 L78.6071 40.0667 L79.7143 40.2 L80.8214 40.2 L81.9286 40.3333 L82.4821 40.3333 M84.6964 40.3333 L85.25 40.3333 L85.8036 40.3333 M122.3393 39.8 L122.8929 39.8 L124 39.4 L125.1071 39.1333 L126.2143 37.9333 L127.3214 37.5333 L128.4286 35.9333 L129.5357 32.8667 L130.6429 30.0667 L131.75 27.6667 L132.8571 25.4 L133.9643 21.1333 L135.0714 20.3333 L136.1786 20.3333 L137.2857 20.4667 L138.3929 19.4 L139.5 15.2667 L140.6071 15.1333 L141.7143 18.2 L142.8214 19.2667 L143.9286 21.2667 L145.0357 22.6 L146.1429 23.8 L147.25 21.9333 L148.3571 19.9333 L149.4643 19 L150.5714 20.0667 L151.6786 18.6 L152.7857 21.9333 L153.8929 22.7333 L155 24.0667"/>
</g>
</g>
</svg>