<svg viewBox="0 0 155 58" preserveAspectRatio="none" class="svggraph" id="svgthumb_us" style="overflow:visible;width:155px;height:58px;" xmlns="http://www.w3.org/2000/svg" xlink="http://www.w3.org/1999/xlink" title="Chart for isabella">
<title>Last ranked
#7 in 2020</title>
<rect x="2" y="43" height="13" width="17" style="fill:rgb(200,200,200)"/>
<image x="2.5" y="43.5" href="/images/flags/24/us.png" preserveAspectRatio="xMinYMax meet" width="16" height="12"/>
<text x="153" y="55" class="svgtitle" text-anchor="end" style="fill:#000000;font-size:13px;">United States</text>
<line x1="0" y1="41" x2="155" y2="41" class="svggridline" style="stroke:rgb(200,200,200);stroke-width:1.3"/>
<g id="svgthumb_us-namepaths">
<g style="fill:none;stroke:#ff0000;stroke-width:1.3;" class="svgcurveline" id="svgthumb_us-isabella-f">
<path d="M0 39.3 L1.1071 39.3 L2.2143 39.7333 L3.3214 39.5 L4.4286 39.1667 L5.5357 39.8667 L6.6429 39.2667 L7.75 39.7667 L8.8571 39.9 L9.9643 39.6 L11.0714 39.5 L12.1786 39.6667 L13.2857 39.7 L14.3929 39.4 L15.5 39.7 L16.6071 39.8 L17.7143 39.8333 L18.8214 39.8333 L19.9286 39.9667 L21.0357 39.7333 L22.1429 39.6667 L23.25 39.8 L24.3571 40 L25.4643 39.8333 L26.5714 40 L27.6786 39.8667 L28.7857 39.8333 L29.8929 39.7667 L31 39.9333 L32.1071 40.1333 L33.2143 39.8 L34.3214 40.0333 L35.4286 40.1 L36.5357 40.1667 L37.6429 40.2333 L38.75 40.2 L39.8571 40.2333 L40.9643 40.3 L42.0714 40.3 L43.1786 40.2333 L44.2857 40.3333 L45.3929 40.4 L46.5 40.3667 L47.6071 40.4 L48.7143 40.4 L49.8214 40.4667 L50.9286 40.5 L52.0357 40.5 L53.1429 40.5 L54.25 40.5667 L55.3571 40.6 L56.4643 40.5667 L57.5714 40.6 L58.6786 40.6333 L59.7857 40.7333 L60.8929 40.7 L62 40.7667 L63.1071 40.6667 L64.2143 40.7 L65.3214 40.7333 L66.4286 40.7667 L67.5357 40.7333 L68.6429 40.8333 L69.75 40.8 L70.8571 40.8333 L71.9643 40.8333 L73.0714 40.8333 L74.1786 40.8333 L75.2857 40.8667 L75.8393 40.8667 M121.2321 40.7 L121.7857 40.6333 L122.8929 40.5 L124 40.1667 L125.1071 39.6 L126.2143 38.8 L127.3214 38 L128.4286 37.3333 L129.5357 36 L130.6429 34.3667 L131.75 32.3333 L132.8571 30.5667 L133.9643 26.1333 L135.0714 20.4667 L136.1786 18.1 L137.2857 16.1667 L138.3929 16.0333 L139.5 11.9333 L140.6071 10.8333 L141.7143 11.2 L142.8214 4.2667 L143.9286 2 L145.0357 6.7 L146.1429 8.1333 L147.25 10.4333 L148.3571 11.8333 L149.4643 14.2333 L150.5714 15.4333 L151.6786 14.1 L152.7857 14.9 L153.8929 16.6 L155 18.0333"/>
</g>
</g>
</svg>