<svg viewBox="0 0 155 58" preserveAspectRatio="none" class="svggraph" id="svgthumb_us" style="overflow:visible;width:155px;height:58px;" xmlns="http://www.w3.org/2000/svg" xlink="http://www.w3.org/1999/xlink" title="Chart for isabel">
<title>Last ranked
#157 in 2020</title>
<rect x="2" y="43" height="13" width="17" style="fill:rgb(200,200,200)"/>
<image x="2.5" y="43.5" href="/images/flags/24/us.png" preserveAspectRatio="xMinYMax meet" width="16" height="12"/>
<text x="153" y="55" class="svgtitle" text-anchor="end" style="fill:#000000;font-size:13px;">United States</text>
<line x1="0" y1="41" x2="155" y2="41" class="svggridline" style="stroke:rgb(200,200,200);stroke-width:1.3"/>
<g id="svgthumb_us-namepaths">
<g style="fill:none;stroke:#ff0000;stroke-width:1.3;" class="svgcurveline" id="svgthumb_us-isabel-f">
<path d="M0 29.9333 L1.1071 30.7333 L2.2143 32.7333 L3.3214 31.8 L4.4286 31.1333 L5.5357 31.4 L6.6429 29.6667 L7.75 31.6667 L8.8571 30.8667 L9.9643 30.2 L11.0714 30.4667 L12.1786 30.8667 L13.2857 31.6667 L14.3929 29.8 L15.5 27.4 L16.6071 29.5333 L17.7143 28.7333 L18.8214 29.6667 L19.9286 28.7333 L21.0357 27.9333 L22.1429 29 L23.25 29.8 L24.3571 28.8667 L25.4643 28.7333 L26.5714 28.6 L27.6786 28.4667 L28.7857 27.5333 L29.8929 28.0667 L31 27.8 L32.1071 28.0667 L33.2143 28.6 L34.3214 27.5333 L35.4286 28.3333 L36.5357 27.6667 L37.6429 28.4667 L38.75 28.7333 L39.8571 28.7333 L40.9643 29.9333 L42.0714 29.4 L43.1786 30.2 L44.2857 30.3333 L45.3929 30.8667 L46.5 31.5333 L47.6071 31.9333 L48.7143 31.6667 L49.8214 31.5333 L50.9286 33 L52.0357 33.1333 L53.1429 33.6667 L54.25 33.2667 L55.3571 34.2 L56.4643 34.2 L57.5714 34.7333 L58.6786 35.2667 L59.7857 35.6667 L60.8929 35.8 L62 36.3333 L63.1071 36.2 L64.2143 36.8667 L65.3214 37 L66.4286 37.2667 L67.5357 37.4 L68.6429 37.8 L69.75 37.6667 L70.8571 37.9333 L71.9643 38.3333 L73.0714 38.0667 L74.1786 38.2 L75.2857 38.2 L76.3929 38.0667 L77.5 38.2 L78.6071 38.3333 L79.7143 38.0667 L80.8214 37.6667 L81.9286 38.6 L83.0357 38.0667 L84.1429 38.3333 L85.25 38.2 L86.3571 38.7333 L87.4643 38.4667 L88.5714 38.4667 L89.6786 38.6 L90.7857 38.4667 L91.8929 38.4667 L93 38.3333 L94.1071 38.6 L95.2143 38.3333 L96.3214 38.2 L97.4286 38.0667 L98.5357 38.0667 L99.6429 37.9333 L100.75 37.6667 L101.8571 38.0667 L102.9643 37.9333 L104.0714 37.8 L105.1786 37.5333 L106.2857 37.5333 L107.3929 37.8 L108.5 38.0667 L109.6071 37.6667 L110.7143 37.2667 L111.8214 37.5333 L112.9286 37.4 L114.0357 37.8 L115.1429 37.9333 L116.25 37.2667 L117.3571 37.5333 L118.4643 37.5333 L119.5714 37.1333 L120.6786 36.8667 L121.7857 35.9333 L122.8929 35.8 L124 33.9333 L125.1071 33.6667 L126.2143 33.2667 L127.3214 31.9333 L128.4286 30.7333 L129.5357 25.2667 L130.6429 21.5333 L131.75 17.6667 L132.8571 17.9333 L133.9643 17.5333 L135.0714 16.3333 L136.1786 15.4 L137.2857 17 L138.3929 17.2667 L139.5 15.4 L140.6071 16.6 L141.7143 18.7333 L142.8214 21.4 L143.9286 22.8667 L145.0357 24.3333 L146.1429 24.6 L147.25 24.8667 L148.3571 25.1333 L149.4643 26.2 L150.5714 26.3333 L151.6786 26.6 L152.7857 26.2 L153.8929 25.9333 L155 27.6667"/>
</g>
</g>
</svg>