<svg viewBox="0 0 155 58" preserveAspectRatio="none" class="svggraph" id="svgthumb_us" style="overflow:visible;width:155px;height:58px;" xmlns="http://www.w3.org/2000/svg" xlink="http://www.w3.org/1999/xlink" title="Chart for isla">
<title>Last ranked
#44 in 2020</title>
<rect x="2" y="43" height="13" width="17" style="fill:rgb(200,200,200)"/>
<image x="2.5" y="43.5" href="/images/flags/24/us.png" preserveAspectRatio="xMinYMax meet" width="16" height="12"/>
<text x="153" y="55" class="svgtitle" text-anchor="end" style="fill:#000000;font-size:13px;">United States</text>
<line x1="0" y1="41" x2="155" y2="41" class="svggridline" style="stroke:rgb(200,200,200);stroke-width:1.3"/>
<g id="svgthumb_us-namepaths">
<g style="fill:none;stroke:#ff0000;stroke-width:1.3;" class="svgcurveline" id="svgthumb_us-isla-f">
<path d=" M6.0893 40.4667 L6.6429 40.3333 L7.75 40.0667 L8.3036 40.4667 M10.5179 40.4667 L11.0714 40.3333 L11.625 40.3333 M27.125 40.3333 L27.6786 40.3333 L28.2321 40.3333 M30.4464 40.4667 L31 40.3333 L31.5536 40.3333 M141.1607 39.2667 L141.7143 37.8 L142.8214 34.7333 L143.9286 33.5333 L145.0357 32.7333 L146.1429 31.5333 L147.25 27.8 L148.3571 26.4667 L149.4643 25.4 L150.5714 23.6667 L151.6786 20.6 L152.7857 16.4667 L153.8929 11.4 L155 6.4667"/>
</g>
</g>
</svg>