<svg viewBox="0 0 155 58" preserveAspectRatio="none" class="svggraph" id="svgthumb_us" style="overflow:visible;width:155px;height:58px;" xmlns="http://www.w3.org/2000/svg" xlink="http://www.w3.org/1999/xlink" title="Chart for ivy">
<title>Last ranked
#58 in 2020 (f)
#969 in 1935 (m)</title>
<rect x="2" y="43" height="13" width="17" style="fill:rgb(200,200,200)"/>
<image x="2.5" y="43.5" href="/images/flags/24/us.png" preserveAspectRatio="xMinYMax meet" width="16" height="12"/>
<text x="153" y="55" class="svgtitle" text-anchor="end" style="fill:#000000;font-size:13px;">United States</text>
<line x1="0" y1="41" x2="155" y2="41" class="svggridline" style="stroke:rgb(200,200,200);stroke-width:1.3"/>
<g id="svgthumb_us-namepaths">
<g style="fill:none;stroke:#ff0000;stroke-width:1.3;" class="svgcurveline" id="svgthumb_us-ivy-f">
<path d="M0 36.4667 L1.1071 35.9333 L2.2143 35.6667 L3.3214 36.0667 L4.4286 36.4667 L5.5357 36.3333 L6.6429 35.6667 L7.75 36.2 L8.8571 35.9333 L9.9643 36.7333 L11.0714 36.6 L12.1786 36.7333 L13.2857 36.4667 L14.3929 36.0667 L15.5 36.3333 L16.6071 37 L17.7143 36.8667 L18.8214 36.2 L19.9286 36.8667 L21.0357 37.4 L22.1429 37.8 L23.25 37.4 L24.3571 37.4 L25.4643 37.8 L26.5714 37.8 L27.6786 37.8 L28.7857 38.3333 L29.8929 38.2 L31 38.4667 L32.1071 38.4667 L33.2143 38.7333 L34.3214 38.3333 L35.4286 38.4667 L36.5357 38.8667 L37.6429 38.8667 L38.75 38.8667 L39.8571 38.7333 L40.9643 39.1333 L42.0714 39.2667 L43.1786 39.2667 L44.2857 39.5333 L45.3929 39.5333 L46.5 39.5333 L47.6071 39.9333 L48.7143 39.6667 L49.8214 39.6667 L50.9286 39.6667 L52.0357 39.8 L53.1429 40.0667 L54.25 40.0667 L55.3571 39.9333 L56.4643 39.8 L57.5714 40.0667 L58.6786 39.9333 L59.7857 40.0667 L60.8929 40.0667 L62 40.2 L63.1071 40.2 L64.2143 40.2 L65.3214 40.2 L66.4286 40.2 L67.5357 40.2 L68.6429 40.3333 L69.75 40.3333 L70.8571 40.4667 L71.9643 40.3333 L72.5179 40.4667 M73.625 40.4667 L74.1786 40.0667 L75.2857 40.0667 L76.3929 40.0667 L77.5 39.8 L78.6071 39.8 L79.7143 39.6667 L80.8214 39.5333 L81.9286 39.6667 L83.0357 39.2667 L84.1429 38.8667 L85.25 38.7333 L86.3571 38.8667 L87.4643 39 L88.5714 39.2667 L89.6786 39.6667 L90.7857 39.6667 L91.8929 39.8 L93 39.8 L94.1071 39.5333 L95.2143 39.8 L96.3214 39.9333 L97.4286 39.5333 L98.5357 39.1333 L99.6429 39.1333 L100.75 39.4 L101.8571 38.7333 L102.9643 39 L104.0714 38.7333 L105.1786 38.6 L106.2857 39.2667 L107.3929 39 L108.5 38.8667 L109.6071 38.4667 L110.7143 38.8667 L111.8214 38.8667 L112.9286 38.8667 L114.0357 38.8667 L115.1429 39.1333 L116.25 38.3333 L117.3571 38.3333 L118.4643 38.3333 L119.5714 38.8667 L120.6786 39.1333 L121.7857 39.2667 L122.8929 39.5333 L124 39.1333 L125.1071 38.2 L126.2143 37.6667 L127.3214 36.7333 L128.4286 36.4667 L129.5357 36.2 L130.6429 35.9333 L131.75 35.8 L132.8571 35.1333 L133.9643 35.4 L135.0714 36.0667 L136.1786 36.0667 L137.2857 35.6667 L138.3929 34.0667 L139.5 34.7333 L140.6071 33.9333 L141.7143 33.8 L142.8214 34.3333 L143.9286 33.5333 L145.0357 32.6 L146.1429 29.4 L147.25 26.4667 L148.3571 25.4 L149.4643 23.9333 L150.5714 21.5333 L151.6786 21.4 L152.7857 17.4 L153.8929 14.0667 L155 12.0667"/>
</g>
<g style="fill:none;stroke:#0000ff;stroke-width:1.3;" class="svgcurveline" id="svgthumb_us-ivy-m">
<path d="M0 40.4667 L1.1071 39.2667 L2.2143 40.0667 L3.3214 40.2 L4.4286 40.0667 L4.9821 40.4667 M6.0893 40.4667 L6.6429 39.2667 L7.75 39.8 L8.8571 40.0667 L9.9643 39.9333 L11.0714 40.0667 L12.1786 39.9333 L13.2857 39.1333 L14.3929 39.6667 L15.5 39.9333 L16.6071 39.1333 L17.7143 39.9333 L18.8214 39.4 L19.9286 39.9333 L21.0357 40.3333 L22.1429 39.4 L23.25 39.4 L24.3571 39.9333 L25.4643 40.0667 L26.5714 39.8 L27.6786 40.2 L28.7857 40.2 L29.8929 39.9333 L31 39.6667 L32.1071 39.9333 L33.2143 39.5333 L33.7679 40.3333 M34.875 40.3333 L35.4286 39.9333 L36.5357 40.3333 L37.6429 39.9333 L38.75 40.0667 L39.8571 40.0667 L40.9643 40.2 L42.0714 40.2 L43.1786 40.3333 L44.2857 40.3333 L45.3929 40.2 L46.5 40.3333 L47.0536 40.4667 M48.1607 40.4667 L48.7143 40.3333 L49.8214 40.2 L50.9286 40.4667 L52.0357 40.3333 L53.1429 40.4667 L54.25 40.4667 L55.3571 40.3333 L56.4643 40.4667 L57.5714 40.3333 L58.125 40.4667 M60.3393 40.4667 L60.8929 40.4667 L61.4464 40.4667"/>
</g>
</g>
</svg>