<svg viewBox="0 0 155 58" preserveAspectRatio="none" class="svggraph" id="svgthumb_us" style="overflow:visible;width:155px;height:58px;" xmlns="http://www.w3.org/2000/svg" xlink="http://www.w3.org/1999/xlink" title="Chart for izabella">
<title>Last ranked
#341 in 2020</title>
<rect x="2" y="43" height="13" width="17" style="fill:rgb(200,200,200)"/>
<image x="2.5" y="43.5" href="/images/flags/24/us.png" preserveAspectRatio="xMinYMax meet" width="16" height="12"/>
<text x="153" y="55" class="svgtitle" text-anchor="end" style="fill:#000000;font-size:13px;">United States</text>
<line x1="0" y1="41" x2="155" y2="41" class="svggridline" style="stroke:rgb(200,200,200);stroke-width:1.3"/>
<g id="svgthumb_us-namepaths">
<g style="fill:none;stroke:#ff0000;stroke-width:1.3;" class="svgcurveline" id="svgthumb_us-izabella-f">
<path d=" M131.1964 39 L131.75 38.8 L132.8571 38.2 L133.9643 36 L135.0714 34 L136.1786 33.2 L137.2857 33.2 L138.3929 32.8 L139.5 30.2 L140.6071 26.8 L141.7143 27 L142.8214 21.6 L143.9286 18 L145.0357 18.4 L146.1429 20.6 L147.25 22.4 L148.3571 24 L149.4643 26.4 L150.5714 28.4 L151.6786 28 L152.7857 27.6 L153.8929 29.8 L155 30.6"/>
</g>
</g>
</svg>