<svg viewBox="0 0 155 58" preserveAspectRatio="none" class="svggraph" id="svgthumb_us" style="overflow:visible;width:155px;height:58px;" xmlns="http://www.w3.org/2000/svg" xlink="http://www.w3.org/1999/xlink" title="Chart for jacqueline">
<title>Last ranked
#440 in 2020</title>
<rect x="2" y="43" height="13" width="17" style="fill:rgb(200,200,200)"/>
<image x="2.5" y="43.5" href="/images/flags/24/us.png" preserveAspectRatio="xMinYMax meet" width="16" height="12"/>
<text x="153" y="55" class="svgtitle" text-anchor="end" style="fill:#000000;font-size:13px;">United States</text>
<line x1="0" y1="41" x2="155" y2="41" class="svggridline" style="stroke:rgb(200,200,200);stroke-width:1.3"/>
<g id="svgthumb_us-namepaths">
<g style="fill:none;stroke:#ff0000;stroke-width:1.3;" class="svgcurveline" id="svgthumb_us-jacqueline-f">
<path d=" M19.375 40.7714 L19.9286 40.7143 L20.4821 40.7714 M21.5893 40.7714 L22.1429 40.6571 L23.25 40.6 L24.3571 40.6571 L25.4643 40.7143 L26.5714 40.5429 L27.6786 40.4857 L28.7857 40.5429 L29.8929 40.2571 L31 40.0857 L32.1071 40.2 L33.2143 40.2571 L34.3214 40.3143 L35.4286 40.1429 L36.5357 39.8571 L37.6429 40.0286 L38.75 39.9714 L39.8571 40.0857 L40.9643 39.8 L42.0714 39.6286 L43.1786 39.0571 L44.2857 38.5429 L45.3929 37.6286 L46.5 36.3143 L47.6071 34.6 L48.7143 33.1714 L49.8214 31.9714 L50.9286 30.6 L52.0357 29.6857 L53.1429 27.9143 L54.25 26.3143 L55.3571 24.2571 L56.4643 24.7714 L57.5714 26.1429 L58.6786 25.9714 L59.7857 24.9429 L60.8929 24.6 L62 23.1714 L63.1071 23.4 L64.2143 22.8286 L65.3214 23.9143 L66.4286 25.4571 L67.5357 25.4571 L68.6429 25.2286 L69.75 24.3143 L70.8571 24.3714 L71.9643 24.0857 L73.0714 23 L74.1786 22.0857 L75.2857 21.8571 L76.3929 21.3429 L77.5 20.0286 L78.6071 19.6286 L79.7143 20.1429 L80.8214 19.8571 L81.9286 22.3143 L83.0357 23.8 L84.1429 24.1429 L85.25 26.6 L86.3571 27.7429 L87.4643 29.1143 L88.5714 25.4571 L89.6786 10.7714 L90.7857 13.2857 L91.8929 16.4286 L93 6.0286 L94.1071 11.5714 L95.2143 13.8 L96.3214 17.8571 L97.4286 18.4286 L98.5357 21.8 L99.6429 23.5714 L100.75 25.4 L101.8571 27.5143 L102.9643 28.1429 L104.0714 27.9714 L105.1786 28.8857 L106.2857 30.2571 L107.3929 30.0857 L108.5 28.5429 L109.6071 28.6 L110.7143 28.5429 L111.8214 27.1714 L112.9286 23.6857 L114.0357 23.7429 L115.1429 23.4 L116.25 24.7714 L117.3571 25.4 L118.4643 23.8571 L119.5714 24.5429 L120.6786 25.4 L121.7857 26.4286 L122.8929 27 L124 27.6286 L125.1071 27.9143 L126.2143 25.8 L127.3214 26.7714 L128.4286 26.4857 L129.5357 28.2 L130.6429 30.6571 L131.75 29.5714 L132.8571 26.6 L133.9643 28.6 L135.0714 30.1429 L136.1786 31.3429 L137.2857 32.3143 L138.3929 33 L139.5 33.1714 L140.6071 33.9143 L141.7143 34.7714 L142.8214 35.4571 L143.9286 35.7429 L145.0357 36.3714 L146.1429 37.1143 L147.25 37.0571 L148.3571 37.1714 L149.4643 37.4 L150.5714 37.6286 L151.6786 38.2 L152.7857 38.0857 L153.8929 38.4286 L155 38.7714"/>
</g>
</g>
</svg>