<svg viewBox="0 0 155 58" preserveAspectRatio="none" class="svggraph" id="svgthumb_us" style="overflow:visible;width:155px;height:58px;" xmlns="http://www.w3.org/2000/svg" xlink="http://www.w3.org/1999/xlink" title="Chart for jane">
<title>Last ranked
#264 in 2020</title>
<rect x="2" y="43" height="13" width="17" style="fill:rgb(200,200,200)"/>
<image x="2.5" y="43.5" href="/images/flags/24/us.png" preserveAspectRatio="xMinYMax meet" width="16" height="12"/>
<text x="153" y="55" class="svgtitle" text-anchor="end" style="fill:#000000;font-size:13px;">United States</text>
<line x1="0" y1="41" x2="155" y2="41" class="svggridline" style="stroke:rgb(200,200,200);stroke-width:1.3"/>
<g id="svgthumb_us-namepaths">
<g style="fill:none;stroke:#ff0000;stroke-width:1.3;" class="svgcurveline" id="svgthumb_us-jane-f">
<path d="M0 26.3333 L1.1071 26.4 L2.2143 26.3333 L3.3214 27.2667 L4.4286 26.7333 L5.5357 25.5333 L6.6429 27.7333 L7.75 28.6667 L8.8571 25.3333 L9.9643 27.8 L11.0714 28.7333 L12.1786 28.1333 L13.2857 29.2667 L14.3929 30.5333 L15.5 30 L16.6071 30.4 L17.7143 30.0667 L18.8214 30.3333 L19.9286 31.1333 L21.0357 30.7333 L22.1429 30.6 L23.25 32.4667 L24.3571 31.8 L25.4643 31.8667 L26.5714 32 L27.6786 32.5333 L28.7857 31.6667 L29.8929 30.6 L31 31 L32.1071 29.6667 L33.2143 29.7333 L34.3214 26.8667 L35.4286 25.2 L36.5357 23.0667 L37.6429 21.4 L38.75 19.7333 L39.8571 17.5333 L40.9643 15.7333 L42.0714 14.8 L43.1786 15.3333 L44.2857 13.9333 L45.3929 14 L46.5 15.3333 L47.6071 14.8 L48.7143 14.7333 L49.8214 15.2667 L50.9286 15.8667 L52.0357 15.6667 L53.1429 16.4 L54.25 15.9333 L55.3571 14.8667 L56.4643 13.6 L57.5714 14.8 L58.6786 13.1333 L59.7857 14.1333 L60.8929 12.5333 L62 11.8 L63.1071 12.5333 L64.2143 13.0667 L65.3214 12.9333 L66.4286 12.2667 L67.5357 13.8 L68.6429 13.6 L69.75 13 L70.8571 9 L71.9643 3.2 L73.0714 3.9333 L74.1786 4.5333 L75.2857 7.4 L76.3929 7.8667 L77.5 7 L78.6071 8.7333 L79.7143 8.3333 L80.8214 10.2 L81.9286 13.0667 L83.0357 13.2667 L84.1429 14.3333 L85.25 16.2667 L86.3571 17.8 L87.4643 18.9333 L88.5714 19.8667 L89.6786 20.6 L90.7857 20.8667 L91.8929 21.6667 L93 25.4667 L94.1071 26.6667 L95.2143 28.8 L96.3214 30.4 L97.4286 32.4667 L98.5357 33.8667 L99.6429 35.2 L100.75 36.0667 L101.8571 36.2 L102.9643 36.8667 L104.0714 37.4667 L105.1786 37.6667 L106.2857 38.0667 L107.3929 38 L108.5 38.1333 L109.6071 38.2 L110.7143 38.1333 L111.8214 38.1333 L112.9286 37.9333 L114.0357 38.0667 L115.1429 38.3333 L116.25 38.4667 L117.3571 38.6 L118.4643 38.6 L119.5714 38.4667 L120.6786 38.4 L121.7857 38.4667 L122.8929 38.6667 L124 38.8 L125.1071 38.6667 L126.2143 38.6 L127.3214 38.8667 L128.4286 38.8 L129.5357 38.7333 L130.6429 38.8 L131.75 38.8667 L132.8571 38.8667 L133.9643 38.7333 L135.0714 38.6667 L136.1786 38.6667 L137.2857 38.8 L138.3929 38.8667 L139.5 38.8667 L140.6071 38.5333 L141.7143 38.3333 L142.8214 38.2667 L143.9286 38.1333 L145.0357 38 L146.1429 37.8 L147.25 37.8667 L148.3571 37.4667 L149.4643 37.2 L150.5714 37.0667 L151.6786 36.9333 L152.7857 36.9333 L153.8929 36.6667 L155 36.6"/>
</g>
</g>
</svg>