<svg viewBox="0 0 155 58" preserveAspectRatio="none" class="svggraph" id="svgthumb_us" style="overflow:visible;width:155px;height:58px;" xmlns="http://www.w3.org/2000/svg" xlink="http://www.w3.org/1999/xlink" title="Chart for jasmine">
<title>Last ranked
#141 in 2020 (f)
#807 in 1989 (m)</title>
<rect x="2" y="43" height="13" width="17" style="fill:rgb(200,200,200)"/>
<image x="2.5" y="43.5" href="/images/flags/24/us.png" preserveAspectRatio="xMinYMax meet" width="16" height="12"/>
<text x="153" y="55" class="svgtitle" text-anchor="end" style="fill:#000000;font-size:13px;">United States</text>
<line x1="0" y1="41" x2="155" y2="41" class="svggridline" style="stroke:rgb(200,200,200);stroke-width:1.3"/>
<g id="svgthumb_us-namepaths">
<g style="fill:none;stroke:#ff0000;stroke-width:1.3;" class="svgcurveline" id="svgthumb_us-jasmine-f">
<path d=" M102.4107 40.6 L102.9643 40.4286 L104.0714 39.9714 L105.1786 39.6286 L106.2857 39.1143 L107.3929 38.4857 L108.5 38.2571 L109.6071 37.5714 L110.7143 37.1714 L111.8214 36.5429 L112.9286 36.4286 L114.0357 35.9714 L115.1429 34.8857 L116.25 32.6 L117.3571 31.7429 L118.4643 29.6286 L119.5714 21.8571 L120.6786 13.6286 L121.7857 10.3143 L122.8929 8.6 L124 11.1143 L125.1071 6.0286 L126.2143 6.6571 L127.3214 10.4286 L128.4286 12.0857 L129.5357 12.0286 L130.6429 13.0571 L131.75 13.5714 L132.8571 14.9429 L133.9643 15.1714 L135.0714 15.3429 L136.1786 18.0286 L137.2857 16.9429 L138.3929 18.8286 L139.5 20.4286 L140.6071 22.7143 L141.7143 25.8571 L142.8214 27.2286 L143.9286 28.8286 L145.0357 30.0857 L146.1429 31 L147.25 31.9143 L148.3571 32.1429 L149.4643 32.7714 L150.5714 33.1714 L151.6786 34.1429 L152.7857 34.4286 L153.8929 34.4286 L155 34.7714"/>
</g>
<g style="fill:none;stroke:#0000ff;stroke-width:1.3;" class="svgcurveline" id="svgthumb_us-jasmine-m">
<path d=" M120.125 40.7143 L120.6786 40.6 L121.2321 40.7143"/>
</g>
</g>
</svg>