<svg viewBox="0 0 155 58" preserveAspectRatio="none" class="svggraph" id="svgthumb_us" style="overflow:visible;width:155px;height:58px;" xmlns="http://www.w3.org/2000/svg" xlink="http://www.w3.org/1999/xlink" title="Chart for jayla">
<title>Last ranked
#301 in 2020</title>
<rect x="2" y="43" height="13" width="17" style="fill:rgb(200,200,200)"/>
<image x="2.5" y="43.5" href="/images/flags/24/us.png" preserveAspectRatio="xMinYMax meet" width="16" height="12"/>
<text x="153" y="55" class="svgtitle" text-anchor="end" style="fill:#000000;font-size:13px;">United States</text>
<line x1="0" y1="41" x2="155" y2="41" class="svggridline" style="stroke:rgb(200,200,200);stroke-width:1.3"/>
<g id="svgthumb_us-namepaths">
<g style="fill:none;stroke:#ff0000;stroke-width:1.3;" class="svgcurveline" id="svgthumb_us-jayla-f">
<path d=" M126.7679 39 L127.3214 37.8 L128.4286 36.6 L129.5357 35.4 L130.6429 33.6 L131.75 31 L132.8571 28.4 L133.9643 26.6 L135.0714 25 L136.1786 24.4 L137.2857 25.6 L138.3929 23.6 L139.5 8.4 L140.6071 16.2 L141.7143 13 L142.8214 16 L143.9286 16.8 L145.0357 19.4 L146.1429 22 L147.25 22 L148.3571 24.4 L149.4643 26.8 L150.5714 26.6 L151.6786 26.8 L152.7857 26.6 L153.8929 27 L155 28.8"/>
</g>
</g>
</svg>