<svg viewBox="0 0 155 58" preserveAspectRatio="none" class="svggraph" id="svgthumb_us" style="overflow:visible;width:155px;height:58px;" xmlns="http://www.w3.org/2000/svg" xlink="http://www.w3.org/1999/xlink" title="Chart for jennifer">
<title>Last ranked
#434 in 2020 (f)
#819 in 1989 (m)</title>
<rect x="2" y="43" height="13" width="17" style="fill:rgb(200,200,200)"/>
<image x="2.5" y="43.5" href="/images/flags/24/us.png" preserveAspectRatio="xMinYMax meet" width="16" height="12"/>
<text x="153" y="55" class="svgtitle" text-anchor="end" style="fill:#000000;font-size:13px;">United States</text>
<line x1="0" y1="41" x2="155" y2="41" class="svggridline" style="stroke:rgb(200,200,200);stroke-width:1.3"/>
<g id="svgthumb_us-namepaths">
<g style="fill:none;stroke:#ff0000;stroke-width:1.3;" class="svgcurveline" id="svgthumb_us-jennifer-f">
<path d=" M63.6607 40.961 L64.2143 40.961 L65.3214 40.9512 L66.4286 40.9122 L67.5357 40.8927 L68.6429 40.8634 L69.75 40.7756 L70.8571 40.5122 L71.9643 40.2878 L73.0714 39.9561 L74.1786 39.9171 L75.2857 39.9463 L76.3929 39.5463 L77.5 39.4488 L78.6071 39.4293 L79.7143 39.1951 L80.8214 39.2927 L81.9286 39.0585 L83.0357 38.9902 L84.1429 38.7659 L85.25 38.4537 L86.3571 38.2195 L87.4643 38.0732 L88.5714 37.6049 L89.6786 36.6488 L90.7857 35.7122 L91.8929 35.2341 L93 34.5415 L94.1071 32.8829 L95.2143 30.8829 L96.3214 30.639 L97.4286 25.6732 L98.5357 22.3463 L99.6429 16.4146 L100.75 9.3902 L101.8571 2.522 L102.9643 1.8 L104.0714 1.6829 L105.1786 4.6293 L106.2857 4.0829 L107.3929 6.0244 L108.5 7.5756 L109.6071 8.8927 L110.7143 9.0098 L111.8214 9.878 L112.9286 10.2878 L114.0357 11.3707 L115.1429 13.6439 L116.25 18.4634 L117.3571 21.8683 L118.4643 23.9756 L119.5714 26.8537 L120.6786 29.2439 L121.7857 30.4439 L122.8929 31.078 L124 32.3268 L125.1071 33.2049 L126.2143 33.9951 L127.3214 34.561 L128.4286 35.0293 L129.5357 34.9512 L130.6429 35.6146 L131.75 35.6829 L132.8571 36.4049 L133.9643 36.6098 L135.0714 36.7854 L136.1786 37.322 L137.2857 37.839 L138.3929 38.1902 L139.5 38.5415 L140.6071 38.8537 L141.7143 39.2244 L142.8214 39.5561 L143.9286 39.6927 L145.0357 39.8488 L146.1429 40.0341 L147.25 40.1415 L148.3571 40.239 L149.4643 40.3561 L150.5714 40.4146 L151.6786 40.4537 L152.7857 40.5122 L153.8929 40.5805 L155 40.6098"/>
</g>
<g style="fill:none;stroke:#0000ff;stroke-width:1.3;" class="svgcurveline" id="svgthumb_us-jennifer-m">
<path d=" M95.7679 40.9707 L96.3214 40.961 L97.4286 40.961 L98.5357 40.9512 L99.6429 40.9415 L100.75 40.8927 L101.8571 40.8927 L102.9643 40.8634 L104.0714 40.8927 L105.1786 40.8634 L106.2857 40.8829 L107.3929 40.9024 L108.5 40.8829 L109.6071 40.8927 L110.7143 40.8927 L111.8214 40.9024 L112.9286 40.9024 L114.0357 40.8927 L115.1429 40.8927 L116.25 40.922 L117.3571 40.922 L118.4643 40.9415 L119.5714 40.9415 L120.6786 40.9317 L121.2321 40.9512"/>
</g>
</g>
</svg>