<svg viewBox="0 0 155 58" preserveAspectRatio="none" class="svggraph" id="svgthumb_us" style="overflow:visible;width:155px;height:58px;" xmlns="http://www.w3.org/2000/svg" xlink="http://www.w3.org/1999/xlink" title="Chart for jessica">
<title>Last ranked
#398 in 2020 (f)
#967 in 1991 (m)</title>
<rect x="2" y="43" height="13" width="17" style="fill:rgb(200,200,200)"/>
<image x="2.5" y="43.5" href="/images/flags/24/us.png" preserveAspectRatio="xMinYMax meet" width="16" height="12"/>
<text x="153" y="55" class="svgtitle" text-anchor="end" style="fill:#000000;font-size:13px;">United States</text>
<line x1="0" y1="41" x2="155" y2="41" class="svggridline" style="stroke:rgb(200,200,200);stroke-width:1.3"/>
<g id="svgthumb_us-namepaths">
<g style="fill:none;stroke:#ff0000;stroke-width:1.3;" class="svgcurveline" id="svgthumb_us-jessica-f">
<path d="M0 40.9067 L1.1071 40.9067 L2.2143 40.9067 L3.3214 40.9333 L4.4286 40.8667 L5.5357 40.9467 L6.6429 40.9067 L7.75 40.9333 L8.8571 40.8667 L9.9643 40.9333 L11.0714 40.88 L12.1786 40.9067 L13.2857 40.92 L14.3929 40.9067 L14.9464 40.9467 M16.0536 40.9467 L16.6071 40.8933 L17.1607 40.9467 M19.375 40.9467 L19.9286 40.9333 L21.0357 40.92 L22.1429 40.9067 L22.6964 40.9333 M24.9107 40.9333 L25.4643 40.92 L26.5714 40.9333 L27.6786 40.9333 L28.7857 40.92 L29.8929 40.9333 L31 40.9333 L32.1071 40.9333 L33.2143 40.9067 L34.3214 40.9333 L35.4286 40.92 L35.9821 40.9333 M37.0893 40.9333 L37.6429 40.9333 L38.75 40.9333 L39.8571 40.9333 L40.9643 40.9333 L42.0714 40.9333 L42.625 40.9467 M62.5536 40.9467 L63.1071 40.9067 L63.6607 40.9467 M64.7679 40.9467 L65.3214 40.9067 L66.4286 40.9333 L67.5357 40.9067 L68.6429 40.88 L69.75 40.8933 L70.8571 40.88 L71.9643 40.8667 L73.0714 40.8 L74.1786 40.68 L75.2857 40.6267 L76.3929 40.6933 L77.5 40.6933 L78.6071 40.6667 L79.7143 40.68 L80.8214 40.6533 L81.9286 40.72 L83.0357 40.7467 L84.1429 40.7333 L85.25 40.6933 L86.3571 40.6533 L87.4643 40.6667 L88.5714 40.64 L89.6786 40.5733 L90.7857 40.4267 L91.8929 40.2533 L93 40.2 L94.1071 39.88 L95.2143 39.7333 L96.3214 39.6267 L97.4286 39.56 L98.5357 39.12 L99.6429 38.0667 L100.75 36.92 L101.8571 35.8667 L102.9643 34.8 L104.0714 31.9333 L105.1786 29.96 L106.2857 25.4133 L107.3929 20.8667 L108.5 19.8267 L109.6071 19.5067 L110.7143 15.6 L111.8214 9.2933 L112.9286 7.6 L114.0357 7.2667 L115.1429 7.0933 L116.25 6.08 L117.3571 2.9333 L118.4643 1.16 L119.5714 5.2533 L120.6786 8.9467 L121.7857 10.8267 L122.8929 12.5467 L124 15.48 L125.1071 17.3333 L126.2143 19.0267 L127.3214 21.6133 L128.4286 24.1733 L129.5357 26.3067 L130.6429 28.4533 L131.75 29.8 L132.8571 30.5067 L133.9643 31.6267 L135.0714 32.9467 L136.1786 34.0533 L137.2857 34.7467 L138.3929 35.6667 L139.5 36.6533 L140.6071 37.4 L141.7143 37.9733 L142.8214 38.4933 L143.9286 38.8267 L145.0357 39.2 L146.1429 39.4 L147.25 39.6533 L148.3571 39.7733 L149.4643 39.9067 L150.5714 40.04 L151.6786 40.0933 L152.7857 40.24 L153.8929 40.2933 L155 40.4133"/>
</g>
<g style="fill:none;stroke:#0000ff;stroke-width:1.3;" class="svgcurveline" id="svgthumb_us-jessica-m">
<path d=" M106.8393 40.9467 L107.3929 40.9333 L108.5 40.92 L109.6071 40.92 L110.7143 40.9067 L111.8214 40.88 L112.9286 40.8667 L114.0357 40.8667 L115.1429 40.8667 L116.25 40.84 L117.3571 40.8533 L118.4643 40.84 L119.5714 40.8533 L120.6786 40.84 L121.7857 40.9067 L122.8929 40.92 L123.4464 40.92"/>
</g>
</g>
</svg>