<svg viewBox="0 0 155 58" preserveAspectRatio="none" class="svggraph" id="svgthumb_us" style="overflow:visible;width:155px;height:58px;" xmlns="http://www.w3.org/2000/svg" xlink="http://www.w3.org/1999/xlink" title="Chart for joanna">
<title>Last ranked
#257 in 2020</title>
<rect x="2" y="43" height="13" width="17" style="fill:rgb(200,200,200)"/>
<image x="2.5" y="43.5" href="/images/flags/24/us.png" preserveAspectRatio="xMinYMax meet" width="16" height="12"/>
<text x="153" y="55" class="svgtitle" text-anchor="end" style="fill:#000000;font-size:13px;">United States</text>
<line x1="0" y1="41" x2="155" y2="41" class="svggridline" style="stroke:rgb(200,200,200);stroke-width:1.3"/>
<g id="svgthumb_us-namepaths">
<g style="fill:none;stroke:#ff0000;stroke-width:1.3;" class="svgcurveline" id="svgthumb_us-joanna-f">
<path d="M0 35.6 L1.1071 36.8 L2.2143 38.4 L3.3214 35.6 L4.4286 37.6 L5.5357 35.4 L6.6429 36.4 L7.75 36.8 L8.8571 37 L9.9643 38.2 L11.0714 37.8 L12.1786 37.4 L13.2857 37.2 L14.3929 37.8 L15.5 37.2 L16.6071 38.6 L17.7143 38 L18.8214 37 L19.9286 38 L21.0357 37.8 L22.1429 38.6 L23.25 38.6 L24.3571 39.2 L25.4643 37.8 L26.5714 38.4 L27.6786 38.4 L28.7857 38.4 L29.8929 39.2 L31 38 L32.1071 38.4 L33.2143 38.6 L34.3214 38.4 L35.4286 38.6 L36.5357 38.2 L37.6429 39 L38.75 38.2 L39.8571 38 L40.9643 38 L42.0714 38 L43.1786 38.2 L44.2857 38.4 L45.3929 38.4 L46.5 38 L47.6071 37.8 L48.7143 37.8 L49.8214 37.2 L50.9286 36.4 L52.0357 37.2 L53.1429 36.2 L54.25 36.2 L55.3571 34.8 L56.4643 35 L57.5714 35 L58.6786 34 L59.7857 32.2 L60.8929 33.2 L62 34.2 L63.1071 33 L64.2143 33.6 L65.3214 34.2 L66.4286 34 L67.5357 34.4 L68.6429 33.8 L69.75 33.8 L70.8571 34.4 L71.9643 34.6 L73.0714 34.8 L74.1786 35.4 L75.2857 35 L76.3929 35.8 L77.5 35.6 L78.6071 36.2 L79.7143 36.8 L80.8214 36.8 L81.9286 36.2 L83.0357 36.4 L84.1429 36.4 L85.25 35.4 L86.3571 34.6 L87.4643 33.8 L88.5714 33.2 L89.6786 32.6 L90.7857 32.8 L91.8929 32 L93 32 L94.1071 31 L95.2143 30.8 L96.3214 31 L97.4286 28.8 L98.5357 27.2 L99.6429 26.4 L100.75 25.4 L101.8571 23.4 L102.9643 19.6 L104.0714 18.4 L105.1786 19.2 L106.2857 19.2 L107.3929 22 L108.5 24.6 L109.6071 25 L110.7143 21.6 L111.8214 20.6 L112.9286 20.8 L114.0357 17.4 L115.1429 4 L116.25 11 L117.3571 16.8 L118.4643 19 L119.5714 18 L120.6786 19.8 L121.7857 19.2 L122.8929 21.8 L124 22.8 L125.1071 24.4 L126.2143 24.4 L127.3214 24.4 L128.4286 26.4 L129.5357 26.2 L130.6429 27.8 L131.75 27.4 L132.8571 27.4 L133.9643 25.2 L135.0714 27.4 L136.1786 28 L137.2857 28.4 L138.3929 29.4 L139.5 28.6 L140.6071 27.8 L141.7143 29.6 L142.8214 30 L143.9286 30.2 L145.0357 31 L146.1429 31 L147.25 31.2 L148.3571 30.6 L149.4643 30 L150.5714 27.8 L151.6786 26.8 L152.7857 25.4 L153.8929 27 L155 27.8"/>
</g>
</g>
</svg>