<svg viewBox="0 0 155 58" preserveAspectRatio="none" class="svggraph" id="svgthumb_us" style="overflow:visible;width:155px;height:58px;" xmlns="http://www.w3.org/2000/svg" xlink="http://www.w3.org/1999/xlink" title="Chart for jocelyn">
<title>Last ranked
#268 in 2020</title>
<rect x="2" y="43" height="13" width="17" style="fill:rgb(200,200,200)"/>
<image x="2.5" y="43.5" href="/images/flags/24/us.png" preserveAspectRatio="xMinYMax meet" width="16" height="12"/>
<text x="153" y="55" class="svgtitle" text-anchor="end" style="fill:#000000;font-size:13px;">United States</text>
<line x1="0" y1="41" x2="155" y2="41" class="svggridline" style="stroke:rgb(200,200,200);stroke-width:1.3"/>
<g id="svgthumb_us-namepaths">
<g style="fill:none;stroke:#ff0000;stroke-width:1.3;" class="svgcurveline" id="svgthumb_us-jocelyn-f">
<path d=" M51.4821 40.3333 L52.0357 40.3333 L53.1429 40.3333 L54.25 40.0667 L55.3571 40.2 L56.4643 39.9333 L57.5714 40.2 L58.6786 40.2 L59.7857 40.0667 L60.8929 40.3333 L62 40.0667 L63.1071 40.3333 L63.6607 40.4667 M64.7679 40.4667 L65.3214 40.2 L66.4286 40.3333 L67.5357 40.3333 L68.6429 40.4667 L69.75 40.3333 L70.3036 40.4667 M71.4107 40.4667 L71.9643 40.3333 L72.5179 40.4667 M74.7321 40.4667 L75.2857 40.3333 L76.3929 40.2 L77.5 39.9333 L78.6071 39 L79.7143 39.2667 L80.8214 38.8667 L81.9286 39 L83.0357 38.4667 L84.1429 38.3333 L85.25 38.7333 L86.3571 39 L87.4643 39.4 L88.5714 39.5333 L89.6786 39.5333 L90.7857 39.5333 L91.8929 39.2667 L93 39.2667 L94.1071 38.8667 L95.2143 38.7333 L96.3214 39 L97.4286 38.4667 L98.5357 38.0667 L99.6429 37.9333 L100.75 37.9333 L101.8571 38.0667 L102.9643 37.9333 L104.0714 37.6667 L105.1786 37.5333 L106.2857 37.4 L107.3929 33.4 L108.5 34.3333 L109.6071 35.4 L110.7143 35.2667 L111.8214 35 L112.9286 35.5333 L114.0357 35.6667 L115.1429 34.6 L116.25 34.7333 L117.3571 34.8667 L118.4643 34.0667 L119.5714 33.4 L120.6786 33.8 L121.7857 32.4667 L122.8929 32.0667 L124 28.7333 L125.1071 27.9333 L126.2143 26.8667 L127.3214 25.8 L128.4286 23.5333 L129.5357 22.7333 L130.6429 23.2667 L131.75 24.0667 L132.8571 22.6 L133.9643 21.9333 L135.0714 17.2667 L136.1786 16.3333 L137.2857 16.2 L138.3929 16.8667 L139.5 13.1333 L140.6071 7.6667 L141.7143 13 L142.8214 13.9333 L143.9286 13.8 L145.0357 15.2667 L146.1429 18.7333 L147.25 19.1333 L148.3571 22.2 L149.4643 24.2 L150.5714 26.4667 L151.6786 27.9333 L152.7857 29.8 L153.8929 29.9333 L155 32.3333"/>
</g>
</g>
</svg>