<svg viewBox="0 0 155 58" preserveAspectRatio="none" class="svggraph" id="svgthumb_us" style="overflow:visible;width:155px;height:58px;" xmlns="http://www.w3.org/2000/svg" xlink="http://www.w3.org/1999/xlink" title="Chart for jolene">
<title>Last ranked
#473 in 2020</title>
<rect x="2" y="43" height="13" width="17" style="fill:rgb(200,200,200)"/>
<image x="2.5" y="43.5" href="/images/flags/24/us.png" preserveAspectRatio="xMinYMax meet" width="16" height="12"/>
<text x="153" y="55" class="svgtitle" text-anchor="end" style="fill:#000000;font-size:13px;">United States</text>
<line x1="0" y1="41" x2="155" y2="41" class="svggridline" style="stroke:rgb(200,200,200);stroke-width:1.3"/>
<g id="svgthumb_us-namepaths">
<g style="fill:none;stroke:#ff0000;stroke-width:1.3;" class="svgcurveline" id="svgthumb_us-jolene-f">
<path d=" M52.5893 38.7778 L53.1429 38.7778 L54.25 38.7778 L54.8036 38.7778 M55.9107 38.7778 L56.4643 38.7778 L57.5714 38.3333 L58.6786 37.4444 L59.7857 37.4444 L60.8929 37 L62 37.4444 L63.1071 35.6667 L64.2143 34.7778 L65.3214 33.8889 L66.4286 33.8889 L67.5357 33.4444 L68.6429 33.8889 L69.75 35.2222 L70.8571 34.3333 L71.9643 34.7778 L73.0714 33.8889 L74.1786 33.4444 L75.2857 33.8889 L76.3929 33 L77.5 32.1111 L78.6071 31.6667 L79.7143 32.1111 L80.8214 32.5556 L81.9286 29.8889 L83.0357 29.4444 L84.1429 30.3333 L85.25 28.1111 L86.3571 27.6667 L87.4643 28.5556 L88.5714 29.8889 L89.6786 27.2222 L90.7857 28.1111 L91.8929 29 L93 30.3333 L94.1071 29.8889 L95.2143 29.8889 L96.3214 30.7778 L97.4286 31.2222 L98.5357 31.6667 L99.6429 31.6667 L100.75 33 L101.8571 33.8889 L102.9643 32.5556 L104.0714 11.2222 L105.1786 12.5556 L106.2857 19.2222 L107.3929 21 L108.5 24.1111 L109.6071 26.3333 L110.7143 23.2222 L111.8214 22.3333 L112.9286 22.3333 L114.0357 24.1111 L115.1429 27.6667 L116.25 30.3333 L117.3571 32.1111 L118.4643 32.5556 L119.5714 32.1111 L120.6786 34.7778 L121.7857 35.6667 L122.8929 35.6667 L123.4464 37 M124.5536 37 L125.1071 36.1111 L125.6607 36.5556 M143.375 35.2222 L143.9286 35.2222 L145.0357 34.3333 L146.1429 34.3333 L147.25 34.7778 L148.3571 32.1111 L149.4643 32.1111 L150.5714 28.5556 L151.6786 24.5556 L152.7857 24.5556 L153.8929 24.1111 L155 24.5556"/>
</g>
</g>
</svg>