<svg viewBox="0 0 155 58" preserveAspectRatio="none" class="svggraph" id="svgthumb_us" style="overflow:visible;width:155px;height:58px;" xmlns="http://www.w3.org/2000/svg" xlink="http://www.w3.org/1999/xlink" title="Chart for jordyn">
<title>Last ranked
#194 in 2020 (f)
#969 in 2015 (m)</title>
<rect x="2" y="43" height="13" width="17" style="fill:rgb(200,200,200)"/>
<image x="2.5" y="43.5" href="/images/flags/24/us.png" preserveAspectRatio="xMinYMax meet" width="16" height="12"/>
<text x="153" y="55" class="svgtitle" text-anchor="end" style="fill:#000000;font-size:13px;">United States</text>
<line x1="0" y1="41" x2="155" y2="41" class="svggridline" style="stroke:rgb(200,200,200);stroke-width:1.3"/>
<g id="svgthumb_us-namepaths">
<g style="fill:none;stroke:#ff0000;stroke-width:1.3;" class="svgcurveline" id="svgthumb_us-jordyn-f">
<path d=" M120.125 39.2 L120.6786 38.6 L121.7857 36 L122.8929 35.2 L124 34.2 L125.1071 32 L126.2143 30.6 L127.3214 29 L128.4286 29.4 L129.5357 26 L130.6429 24.6 L131.75 24.4 L132.8571 23.6 L133.9643 22 L135.0714 19.8 L136.1786 19.2 L137.2857 22.8 L138.3929 22.8 L139.5 22.2 L140.6071 17.4 L141.7143 18.2 L142.8214 15.4 L143.9286 12.4 L145.0357 14 L146.1429 14.4 L147.25 16.2 L148.3571 15 L149.4643 16.6 L150.5714 19.2 L151.6786 21.4 L152.7857 22.2 L153.8929 22.2 L155 24"/>
</g>
<g style="fill:none;stroke:#0000ff;stroke-width:1.3;" class="svgcurveline" id="svgthumb_us-jordyn-m">
<path d=" M133.4107 39.6 L133.9643 39.4 L134.5179 39.4 M136.7321 39.4 L137.2857 39.2 L138.3929 39.2 L139.5 38.6 L140.6071 38.4 L141.7143 38.2 L142.8214 37.8 L143.9286 37.4 L145.0357 37.4 L146.1429 38.4 L147.25 38.4 L148.3571 38.6 L149.4643 39 L150.0179 39"/>
</g>
</g>
</svg>