<svg viewBox="0 0 155 58" preserveAspectRatio="none" class="svggraph" id="svgthumb_us" style="overflow:visible;width:155px;height:58px;" xmlns="http://www.w3.org/2000/svg" xlink="http://www.w3.org/1999/xlink" title="Chart for jordan">
<title>Last ranked
#82 in 2020 (m)
#435 in 2020 (f)</title>
<rect x="2" y="43" height="13" width="17" style="fill:rgb(200,200,200)"/>
<image x="2.5" y="43.5" href="/images/flags/24/us.png" preserveAspectRatio="xMinYMax meet" width="16" height="12"/>
<text x="153" y="55" class="svgtitle" text-anchor="end" style="fill:#000000;font-size:13px;">United States</text>
<line x1="0" y1="41" x2="155" y2="41" class="svggridline" style="stroke:rgb(200,200,200);stroke-width:1.3"/>
<g id="svgthumb_us-namepaths">
<g style="fill:none;stroke:#0000ff;stroke-width:1.3;" class="svgcurveline" id="svgthumb_us-jordan-m">
<path d="M0 40.05 L1.1071 40.15 L2.2143 40.5 L3.3214 40.25 L4.4286 40 L5.5357 40.25 L6.6429 40.6 L7.75 40.45 L8.8571 40.3 L9.9643 40.7 L10.5179 40.8 M11.625 40.8 L12.1786 40.45 L13.2857 40.55 L14.3929 40.35 L15.5 40.35 L16.6071 39.95 L17.7143 40.6 L18.8214 40.55 L19.9286 40.75 L21.0357 40.7 L22.1429 40.65 L23.25 40.5 L23.8036 40.75 M24.9107 40.75 L25.4643 40.2 L26.5714 40.7 L27.6786 40.7 L28.7857 40.7 L29.8929 40.6 L31 40.6 L32.1071 40.45 L33.2143 40.7 L33.7679 40.75 M34.875 40.75 L35.4286 40.65 L36.5357 40.6 L37.6429 40.6 L38.75 40.65 L39.3036 40.8 M40.4107 40.8 L40.9643 40.7 L42.0714 40.8 L43.1786 40.75 L44.2857 40.65 L45.3929 40.65 L46.5 40.75 L47.6071 40.6 L48.7143 40.6 L49.8214 40.55 L50.9286 40.6 L52.0357 40.6 L53.1429 40.6 L54.25 40.6 L55.3571 40.65 L56.4643 40.5 L57.5714 40.65 L58.6786 40.6 L59.7857 40.6 L60.8929 40.65 L62 40.7 L63.1071 40.7 L64.2143 40.7 L65.3214 40.7 L66.4286 40.75 L67.5357 40.75 L68.6429 40.8 L69.75 40.75 L70.8571 40.7 L71.9643 40.75 L73.0714 40.8 L74.1786 40.8 L75.2857 40.8 L76.3929 40.8 L77.5 40.8 L78.6071 40.8 L79.7143 40.8 L80.8214 40.75 L81.9286 40.75 L83.0357 40.75 L84.1429 40.75 L85.25 40.55 L86.3571 40.55 L87.4643 40.65 L88.5714 40.7 L89.6786 40.55 L90.7857 40.55 L91.8929 40.65 L93 40.6 L94.1071 40.55 L95.2143 40.4 L96.3214 40.4 L97.4286 40.45 L98.5357 40.4 L99.6429 40.25 L100.75 40.2 L101.8571 40.25 L102.9643 40.05 L104.0714 39.85 L105.1786 39.8 L106.2857 39.4 L107.3929 39.1 L108.5 38.15 L109.6071 37.05 L110.7143 36.65 L111.8214 33.15 L112.9286 31.65 L114.0357 30.25 L115.1429 28.9 L116.25 26.8 L117.3571 22 L118.4643 19.45 L119.5714 19.8 L120.6786 15.05 L121.7857 3.5 L122.8929 3.2 L124 7.6 L125.1071 5.3 L126.2143 6.25 L127.3214 7.25 L128.4286 6.45 L129.5357 4.05 L130.6429 5.45 L131.75 9 L132.8571 11.85 L133.9643 14.85 L135.0714 14 L136.1786 16.4 L137.2857 18.4 L138.3929 18.9 L139.5 18.35 L140.6071 18.3 L141.7143 20.15 L142.8214 20.6 L143.9286 20.9 L145.0357 21.1 L146.1429 21.75 L147.25 23.15 L148.3571 24.2 L149.4643 25.55 L150.5714 27.05 L151.6786 27.95 L152.7857 28.95 L153.8929 29.7 L155 29.45"/>
</g>
<g style="fill:none;stroke:#ff0000;stroke-width:1.3;" class="svgcurveline" id="svgthumb_us-jordan-f">
<path d=" M107.9464 40.6 L108.5 40.4 L109.6071 40.2 L110.7143 39.95 L111.8214 39.65 L112.9286 39.7 L114.0357 39.6 L115.1429 39.35 L116.25 38.35 L117.3571 35.35 L118.4643 35.95 L119.5714 35.45 L120.6786 30.25 L121.7857 26.5 L122.8929 27.3 L124 27.6 L125.1071 26.25 L126.2143 24.95 L127.3214 24.15 L128.4286 24.55 L129.5357 22.25 L130.6429 22.65 L131.75 26.3 L132.8571 26.45 L133.9643 26.35 L135.0714 25.4 L136.1786 26.9 L137.2857 30 L138.3929 31.9 L139.5 32.5 L140.6071 33.15 L141.7143 34.65 L142.8214 35.8 L143.9286 36.6 L145.0357 36.8 L146.1429 37.35 L147.25 37.8 L148.3571 37.65 L149.4643 37.9 L150.5714 38.1 L151.6786 38.65 L152.7857 38.75 L153.8929 38.9 L155 39"/>
</g>
</g>
</svg>