<svg viewBox="0 0 155 58" preserveAspectRatio="none" class="svggraph" id="svgthumb_us" style="overflow:visible;width:155px;height:58px;" xmlns="http://www.w3.org/2000/svg" xlink="http://www.w3.org/1999/xlink" title="Chart for josephine">
<title>Last ranked
#86 in 2020 (f)
#896 in 1911 (m)</title>
<rect x="2" y="43" height="13" width="17" style="fill:rgb(200,200,200)"/>
<image x="2.5" y="43.5" href="/images/flags/24/us.png" preserveAspectRatio="xMinYMax meet" width="16" height="12"/>
<text x="153" y="55" class="svgtitle" text-anchor="end" style="fill:#000000;font-size:13px;">United States</text>
<line x1="0" y1="41" x2="155" y2="41" class="svggridline" style="stroke:rgb(200,200,200);stroke-width:1.3"/>
<g id="svgthumb_us-namepaths">
<g style="fill:none;stroke:#ff0000;stroke-width:1.3;" class="svgcurveline" id="svgthumb_us-josephine-f">
<path d="M0 13.15 L1.1071 12.5 L2.2143 13.45 L3.3214 11.95 L4.4286 11.95 L5.5357 13.4 L6.6429 13.55 L7.75 14.8 L8.8571 14.6 L9.9643 13.35 L11.0714 13.3 L12.1786 14.75 L13.2857 14.1 L14.3929 14.85 L15.5 14.4 L16.6071 14 L17.7143 16.1 L18.8214 15.5 L19.9286 15 L21.0357 12.95 L22.1429 13.55 L23.25 12.8 L24.3571 13.1 L25.4643 12.5 L26.5714 11.9 L27.6786 10.45 L28.7857 10.7 L29.8929 9.05 L31 7.3 L32.1071 8.2 L33.2143 7.6 L34.3214 6.9 L35.4286 7.1 L36.5357 4.2 L37.6429 4 L38.75 3.85 L39.8571 3.55 L40.9643 3.95 L42.0714 4.9 L43.1786 6.5 L44.2857 8.45 L45.3929 9.2 L46.5 9.5 L47.6071 10.8 L48.7143 12.95 L49.8214 14.05 L50.9286 14.95 L52.0357 16.3 L53.1429 17.3 L54.25 18.1 L55.3571 19.6 L56.4643 20.65 L57.5714 22.5 L58.6786 23.95 L59.7857 23.7 L60.8929 26 L62 26.4 L63.1071 27.65 L64.2143 27.95 L65.3214 28.5 L66.4286 29.4 L67.5357 30.05 L68.6429 31.1 L69.75 31.7 L70.8571 32.5 L71.9643 33.05 L73.0714 34.1 L74.1786 34.55 L75.2857 34.6 L76.3929 34.85 L77.5 35.05 L78.6071 35.7 L79.7143 36.1 L80.8214 36.35 L81.9286 36.7 L83.0357 37 L84.1429 37.4 L85.25 37.55 L86.3571 37.9 L87.4643 38.2 L88.5714 38.2 L89.6786 38.1 L90.7857 38.3 L91.8929 38.35 L93 38.55 L94.1071 38.65 L95.2143 38.6 L96.3214 38.85 L97.4286 39 L98.5357 39 L99.6429 39.15 L100.75 39.3 L101.8571 39.2 L102.9643 39.3 L104.0714 39.3 L105.1786 39.55 L106.2857 39.65 L107.3929 39.65 L108.5 39.6 L109.6071 39.75 L110.7143 39.6 L111.8214 39.65 L112.9286 39.65 L114.0357 39.65 L115.1429 39.8 L116.25 39.85 L117.3571 39.75 L118.4643 39.85 L119.5714 39.7 L120.6786 39.65 L121.7857 39.6 L122.8929 39.5 L124 39.55 L125.1071 39.5 L126.2143 39.35 L127.3214 39.2 L128.4286 39.1 L129.5357 38.95 L130.6429 38.85 L131.75 38.45 L132.8571 38.2 L133.9643 38.1 L135.0714 37.95 L136.1786 37.85 L137.2857 37.7 L138.3929 37.35 L139.5 37.3 L140.6071 37.3 L141.7143 37.1 L142.8214 37 L143.9286 36.7 L145.0357 36.55 L146.1429 35.95 L147.25 35.8 L148.3571 35.15 L149.4643 34.6 L150.5714 33.75 L151.6786 33.5 L152.7857 32.8 L153.8929 32.5 L155 32.35"/>
</g>
<g style="fill:none;stroke:#0000ff;stroke-width:1.3;" class="svgcurveline" id="svgthumb_us-josephine-m">
<path d=" M4.9821 40.8 L5.5357 40.75 L6.0893 40.8 M9.4107 40.75 L9.9643 40.75 L11.0714 40.75 L11.625 40.75 M17.1607 40.75 L17.7143 40.75 L18.8214 40.7 L19.375 40.75 M20.4821 40.75 L21.0357 40.75 L21.5893 40.75 M22.6964 40.75 L23.25 40.65 L24.3571 40.75 L25.4643 40.55 L26.0179 40.75 M28.2321 40.7 L28.7857 40.7 L29.3393 40.75 M31.5536 40.75 L32.1071 40.7 L32.6607 40.75 M33.7679 40.75 L34.3214 40.7 L34.875 40.75"/>
</g>
</g>
</svg>