<svg viewBox="0 0 155 58" preserveAspectRatio="none" class="svggraph" id="svgthumb_us" style="overflow:visible;width:155px;height:58px;" xmlns="http://www.w3.org/2000/svg" xlink="http://www.w3.org/1999/xlink" title="Chart for josie">
<title>Last ranked
#134 in 2020</title>
<rect x="2" y="43" height="13" width="17" style="fill:rgb(200,200,200)"/>
<image x="2.5" y="43.5" href="/images/flags/24/us.png" preserveAspectRatio="xMinYMax meet" width="16" height="12"/>
<text x="153" y="55" class="svgtitle" text-anchor="end" style="fill:#000000;font-size:13px;">United States</text>
<line x1="0" y1="41" x2="155" y2="41" class="svggridline" style="stroke:rgb(200,200,200);stroke-width:1.3"/>
<g id="svgthumb_us-namepaths">
<g style="fill:none;stroke:#ff0000;stroke-width:1.3;" class="svgcurveline" id="svgthumb_us-josie-f">
<path d="M0 12.2 L1.1071 10.8 L2.2143 11.8 L3.3214 16.4 L4.4286 12.2 L5.5357 11.2 L6.6429 13.4 L7.75 16.2 L8.8571 13.8 L9.9643 19.2 L11.0714 17 L12.1786 18.8 L13.2857 17.6 L14.3929 20.4 L15.5 20.6 L16.6071 22 L17.7143 23 L18.8214 24.2 L19.9286 25 L21.0357 21.4 L22.1429 24.2 L23.25 24.8 L24.3571 25.2 L25.4643 26 L26.5714 27 L27.6786 27 L28.7857 28.6 L29.8929 29.6 L31 29.4 L32.1071 30 L33.2143 29 L34.3214 32.2 L35.4286 31.8 L36.5357 33.2 L37.6429 32.4 L38.75 33.6 L39.8571 34.4 L40.9643 33.8 L42.0714 33.8 L43.1786 32.8 L44.2857 34 L45.3929 34.4 L46.5 33.8 L47.6071 34.4 L48.7143 34.4 L49.8214 34.6 L50.9286 34.4 L52.0357 34.4 L53.1429 35 L54.25 34.8 L55.3571 35 L56.4643 34.8 L57.5714 35.8 L58.6786 34.6 L59.7857 34 L60.8929 34 L62 34.8 L63.1071 34.6 L64.2143 34.4 L65.3214 35.2 L66.4286 35.2 L67.5357 35.4 L68.6429 35.8 L69.75 36.4 L70.8571 35.8 L71.9643 36 L73.0714 36.8 L74.1786 37 L75.2857 37 L76.3929 38 L77.5 38.2 L78.6071 38.4 L79.7143 39 L80.8214 38.8 L81.9286 38.8 L83.0357 38.8 L84.1429 38.2 L85.25 38.4 L86.3571 38.4 L87.4643 38.4 L88.5714 38 L89.6786 38.6 L90.7857 38.8 L91.8929 38.8 L93 39 L94.1071 39 L95.2143 39.2 L96.3214 39.4 L97.4286 38.8 L98.5357 39 L99.6429 39.2 L100.75 38.4 L101.8571 38.4 L102.9643 38.6 L104.0714 38.4 L105.1786 38.4 L106.2857 38.2 L107.3929 38.2 L108.5 38.4 L109.6071 38 L110.7143 38 L111.8214 38 L112.9286 38 L114.0357 37.6 L115.1429 38.2 L116.25 38.6 L117.3571 38.8 L118.4643 38.8 L119.5714 38.4 L120.6786 37.8 L121.7857 37.4 L122.8929 37.6 L124 37.4 L125.1071 37 L126.2143 35.2 L127.3214 33.4 L128.4286 32.4 L129.5357 33.2 L130.6429 32.8 L131.75 31.8 L132.8571 31.2 L133.9643 29.8 L135.0714 29.8 L136.1786 30.8 L137.2857 31.4 L138.3929 31 L139.5 30.2 L140.6071 30.4 L141.7143 30.2 L142.8214 30.6 L143.9286 28.2 L145.0357 28.2 L146.1429 27.8 L147.25 28.4 L148.3571 27.8 L149.4643 27.8 L150.5714 27 L151.6786 24.8 L152.7857 24 L153.8929 20.8 L155 18.4"/>
</g>
</g>
</svg>