<svg viewBox="0 0 155 58" preserveAspectRatio="none" class="svggraph" id="svgthumb_us" style="overflow:visible;width:155px;height:58px;" xmlns="http://www.w3.org/2000/svg" xlink="http://www.w3.org/1999/xlink" title="Chart for journey">
<title>Last ranked
#298 in 2020</title>
<rect x="2" y="43" height="13" width="17" style="fill:rgb(200,200,200)"/>
<image x="2.5" y="43.5" href="/images/flags/24/us.png" preserveAspectRatio="xMinYMax meet" width="16" height="12"/>
<text x="153" y="55" class="svgtitle" text-anchor="end" style="fill:#000000;font-size:13px;">United States</text>
<line x1="0" y1="41" x2="155" y2="41" class="svggridline" style="stroke:rgb(200,200,200);stroke-width:1.3"/>
<g id="svgthumb_us-namepaths">
<g style="fill:none;stroke:#ff0000;stroke-width:1.3;" class="svgcurveline" id="svgthumb_us-journey-f">
<path d=" M131.1964 37 L131.75 36.6 L132.3036 36.6 M133.4107 36.6 L133.9643 36.2 L135.0714 36.2 L136.1786 35.8 L137.2857 35.8 L138.3929 34.2 L139.5 34.6 L140.6071 33 L141.7143 31 L142.8214 29 L143.9286 25.8 L145.0357 23 L146.1429 21.4 L147.25 21 L148.3571 17.8 L149.4643 17.4 L150.5714 15.8 L151.6786 16.6 L152.7857 11 L153.8929 13 L155 16.6"/>
</g>
</g>
</svg>