<svg viewBox="0 0 155 58" preserveAspectRatio="none" class="svggraph" id="svgthumb_us" style="overflow:visible;width:155px;height:58px;" xmlns="http://www.w3.org/2000/svg" xlink="http://www.w3.org/1999/xlink" title="Chart for joy">
<title>Last ranked
#396 in 2020 (f)
#941 in 1937 (m)</title>
<rect x="2" y="43" height="13" width="17" style="fill:rgb(200,200,200)"/>
<image x="2.5" y="43.5" href="/images/flags/24/us.png" preserveAspectRatio="xMinYMax meet" width="16" height="12"/>
<text x="153" y="55" class="svgtitle" text-anchor="end" style="fill:#000000;font-size:13px;">United States</text>
<line x1="0" y1="41" x2="155" y2="41" class="svggridline" style="stroke:rgb(200,200,200);stroke-width:1.3"/>
<g id="svgthumb_us-namepaths">
<g style="fill:none;stroke:#ff0000;stroke-width:1.3;" class="svgcurveline" id="svgthumb_us-joy-f">
<path d=" M4.9821 40.2 L5.5357 39.8 L6.0893 40.2 M7.1964 40.2 L7.75 40 L8.8571 40 L9.9643 38.8 L11.0714 40 L12.1786 39.6 L13.2857 39.6 L14.3929 40.2 L15.5 39.2 L16.6071 39 L17.7143 39.6 L18.8214 38.6 L19.9286 39.6 L21.0357 39.2 L22.1429 39.4 L23.25 39 L24.3571 38.2 L25.4643 38.8 L26.5714 38.6 L27.6786 38.6 L28.7857 38.4 L29.8929 38.8 L31 38.8 L32.1071 38 L33.2143 38.8 L34.3214 38.2 L35.4286 38.6 L36.5357 37.4 L37.6429 37 L38.75 37.2 L39.8571 37 L40.9643 36.4 L42.0714 36 L43.1786 35.6 L44.2857 35 L45.3929 34.8 L46.5 33.8 L47.6071 32.4 L48.7143 32 L49.8214 28.8 L50.9286 26.4 L52.0357 22.8 L53.1429 22.8 L54.25 21.4 L55.3571 19.2 L56.4643 18.8 L57.5714 16.4 L58.6786 16.4 L59.7857 16.2 L60.8929 16.2 L62 13.4 L63.1071 18.6 L64.2143 17 L65.3214 18.8 L66.4286 18.8 L67.5357 16.2 L68.6429 18.2 L69.75 18.6 L70.8571 19.6 L71.9643 20.4 L73.0714 21.4 L74.1786 21 L75.2857 22.4 L76.3929 22.2 L77.5 20.8 L78.6071 19.2 L79.7143 17 L80.8214 17 L81.9286 17.2 L83.0357 17.2 L84.1429 13.6 L85.25 13 L86.3571 14.2 L87.4643 13.2 L88.5714 14.4 L89.6786 15.8 L90.7857 17 L91.8929 19 L93 18.4 L94.1071 19.4 L95.2143 17.2 L96.3214 19 L97.4286 18.8 L98.5357 21.8 L99.6429 21.6 L100.75 20.2 L101.8571 18.4 L102.9643 19.2 L104.0714 5.8 L105.1786 11.4 L106.2857 14.6 L107.3929 15.4 L108.5 17.4 L109.6071 19.8 L110.7143 21.8 L111.8214 22.8 L112.9286 26.2 L114.0357 27.6 L115.1429 28.2 L116.25 28.8 L117.3571 29.8 L118.4643 31.8 L119.5714 32.2 L120.6786 33 L121.7857 34.2 L122.8929 34 L124 34.8 L125.1071 34.6 L126.2143 35 L127.3214 34.8 L128.4286 34.8 L129.5357 35 L130.6429 35 L131.75 34.8 L132.8571 35 L133.9643 35.2 L135.0714 35 L136.1786 35.2 L137.2857 35 L138.3929 35.2 L139.5 35.2 L140.6071 35.2 L141.7143 35.4 L142.8214 35.2 L143.9286 34.6 L145.0357 35 L146.1429 34.6 L147.25 34.2 L148.3571 33.8 L149.4643 33.4 L150.5714 31.2 L151.6786 30.8 L152.7857 31.4 L153.8929 31 L155 32.2"/>
</g>
<g style="fill:none;stroke:#0000ff;stroke-width:1.3;" class="svgcurveline" id="svgthumb_us-joy-m">
<path d=" M2.7679 40.2 L3.3214 40.2 L3.875 40.2 M21.5893 40 L22.1429 39.8 L22.6964 40 M23.8036 40 L24.3571 39.6 L25.4643 39.6 L26.5714 39.6 L27.125 39.8 M39.3036 40 L39.8571 40 L40.4107 40.2 M42.625 40.2 L43.1786 39.8 L44.2857 40.2 L44.8393 40.2 M45.9464 40.2 L46.5 39.8 L47.0536 40.2 M49.2679 40.2 L49.8214 40 L50.9286 40.2 L52.0357 40 L52.5893 40.2 M54.8036 40.2 L55.3571 40 L56.4643 40 L57.0179 40.2 M60.3393 40.2 L60.8929 40.2 L62 40.2 L63.1071 40.2 L63.6607 40.2"/>
</g>
</g>
</svg>