<svg viewBox="0 0 155 58" preserveAspectRatio="none" class="svggraph" id="svgthumb_us" style="overflow:visible;width:155px;height:58px;" xmlns="http://www.w3.org/2000/svg" xlink="http://www.w3.org/1999/xlink" title="Chart for julia">
<title>Last ranked
#107 in 2020 (f)
#877 in 1908 (m)</title>
<rect x="2" y="43" height="13" width="17" style="fill:rgb(200,200,200)"/>
<image x="2.5" y="43.5" href="/images/flags/24/us.png" preserveAspectRatio="xMinYMax meet" width="16" height="12"/>
<text x="153" y="55" class="svgtitle" text-anchor="end" style="fill:#000000;font-size:13px;">United States</text>
<line x1="0" y1="41" x2="155" y2="41" class="svggridline" style="stroke:rgb(200,200,200);stroke-width:1.3"/>
<g id="svgthumb_us-namepaths">
<g style="fill:none;stroke:#ff0000;stroke-width:1.3;" class="svgcurveline" id="svgthumb_us-julia-f">
<path d="M0 5.3556 L1.1071 7.8444 L2.2143 9.8444 L3.3214 8.6 L4.4286 10.7778 L5.5357 7.7556 L6.6429 10.3333 L7.75 11.1778 L8.8571 10.6889 L9.9643 12.7778 L11.0714 12.9111 L12.1786 13.8889 L13.2857 14.1111 L14.3929 14.0222 L15.5 16.1556 L16.6071 16.2 L17.7143 16.2 L18.8214 16.2889 L19.9286 17.3111 L21.0357 17.7111 L22.1429 16.2889 L23.25 17.1778 L24.3571 17.2222 L25.4643 17.8889 L26.5714 19.3111 L27.6786 17.4444 L28.7857 18.2889 L29.8929 18.8667 L31 19.0889 L32.1071 17.6667 L33.2143 19.0444 L34.3214 19.3111 L35.4286 19.6222 L36.5357 19.3111 L37.6429 19.7111 L38.75 20.0222 L39.8571 20.2444 L40.9643 20.9111 L42.0714 21.5333 L43.1786 22.2889 L44.2857 23.5333 L45.3929 24.5556 L46.5 24.5556 L47.6071 25.6667 L48.7143 26.2889 L49.8214 26.7778 L50.9286 27.6667 L52.0357 28.1111 L53.1429 29.0889 L54.25 29.6667 L55.3571 30.0222 L56.4643 30.4222 L57.5714 30.3333 L58.6786 30.7778 L59.7857 31.3111 L60.8929 31.4444 L62 31.6222 L63.1071 31.8 L64.2143 31.3556 L65.3214 30.6444 L66.4286 30.8222 L67.5357 30.8222 L68.6429 31.7111 L69.75 31.8 L70.8571 32.2444 L71.9643 33.3111 L73.0714 33.3111 L74.1786 33.8 L75.2857 33.9333 L76.3929 33.5778 L77.5 34.1111 L78.6071 34.3778 L79.7143 34.5111 L80.8214 34.1556 L81.9286 33.9333 L83.0357 33.7111 L84.1429 33.8444 L85.25 33.1778 L86.3571 32.7333 L87.4643 32.6 L88.5714 32.9111 L89.6786 32.6444 L90.7857 32.7778 L91.8929 33 L93 32.9556 L94.1071 33.4444 L95.2143 33.3111 L96.3214 33.8 L97.4286 33.2222 L98.5357 31.6222 L99.6429 33.2667 L100.75 34.3778 L101.8571 34.5556 L102.9643 35 L104.0714 35.1333 L105.1786 35.3111 L106.2857 35.5778 L107.3929 35.4444 L108.5 33.9778 L109.6071 34.3778 L110.7143 33.3556 L111.8214 31.8889 L112.9286 32.4222 L114.0357 32.6 L115.1429 32.7333 L116.25 33.2667 L117.3571 33.5333 L118.4643 33.0889 L119.5714 33.2222 L120.6786 33.4889 L121.7857 32.5556 L122.8929 29.2667 L124 29.8889 L125.1071 30.5111 L126.2143 29.9778 L127.3214 28.4667 L128.4286 26.3778 L129.5357 23.9333 L130.6429 21.8889 L131.75 21 L132.8571 21.4889 L133.9643 21.1778 L135.0714 23.0889 L136.1786 24.5111 L137.2857 25.2667 L138.3929 25.4889 L139.5 26.3778 L140.6071 28.1111 L141.7143 29 L142.8214 30.0222 L143.9286 30.3778 L145.0357 31 L146.1429 32.1111 L147.25 32.3333 L148.3571 32.8222 L149.4643 33.3111 L150.5714 33.3111 L151.6786 33.6222 L152.7857 33.8 L153.8929 34.2444 L155 34.6889"/>
</g>
<g style="fill:none;stroke:#0000ff;stroke-width:1.3;" class="svgcurveline" id="svgthumb_us-julia-m">
<path d=" M3.875 40.8222 L4.4286 40.7333 L5.5357 40.7333 L6.6429 40.7333 L7.75 40.7778 L8.8571 40.7778 L9.4107 40.8222 M11.625 40.8222 L12.1786 40.7778 L12.7321 40.7778 M13.8393 40.7778 L14.3929 40.6 L14.9464 40.7778 M19.375 40.7778 L19.9286 40.7778 L20.4821 40.7778 M22.6964 40.7778 L23.25 40.3778 L24.3571 40.7333 L24.9107 40.7778 M30.4464 40.7778 L31 40.7333 L31.5536 40.7333"/>
</g>
</g>
</svg>