<svg viewBox="0 0 155 58" preserveAspectRatio="none" class="svggraph" id="svgthumb_us" style="overflow:visible;width:155px;height:58px;" xmlns="http://www.w3.org/2000/svg" xlink="http://www.w3.org/1999/xlink" title="Chart for juliana">
<title>Last ranked
#188 in 2020</title>
<rect x="2" y="43" height="13" width="17" style="fill:rgb(200,200,200)"/>
<image x="2.5" y="43.5" href="/images/flags/24/us.png" preserveAspectRatio="xMinYMax meet" width="16" height="12"/>
<text x="153" y="55" class="svgtitle" text-anchor="end" style="fill:#000000;font-size:13px;">United States</text>
<line x1="0" y1="41" x2="155" y2="41" class="svggridline" style="stroke:rgb(200,200,200);stroke-width:1.3"/>
<g id="svgthumb_us-namepaths">
<g style="fill:none;stroke:#ff0000;stroke-width:1.3;" class="svgcurveline" id="svgthumb_us-juliana-f">
<path d=" M0.5536 40.2 L1.1071 40 L1.6607 40.2 M6.0893 40.2 L6.6429 39.8 L7.75 40 L8.3036 40.2 M9.4107 40.2 L9.9643 39.8 L11.0714 40.2 L11.625 40.2 M17.1607 40.2 L17.7143 40 L18.2679 40.2 M26.0179 40 L26.5714 40 L27.125 40 M28.2321 40 L28.7857 40 L29.3393 40.2 M30.4464 40.2 L31 40 L32.1071 39.6 L32.6607 40 M33.7679 40 L34.3214 40 L35.4286 39.6 L35.9821 40 M37.0893 40 L37.6429 39.6 L38.75 40.2 L39.8571 39.6 L40.9643 40 L42.0714 40 L42.625 40.2 M43.7321 40.2 L44.2857 40 L45.3929 40 L46.5 40 L47.6071 40 L48.7143 40 L49.8214 40 L50.9286 40 L51.4821 40 M52.5893 40 L53.1429 40 L54.25 40 L54.8036 40 M57.0179 40.2 L57.5714 40 L58.6786 39.8 L59.7857 40.2 L60.8929 40 L61.4464 40.2 M62.5536 40.2 L63.1071 40 L64.2143 39.4 L65.3214 39.8 L66.4286 39.4 L67.5357 39.6 L68.6429 39.6 L69.75 39.8 L70.8571 39.8 L71.9643 40 L73.0714 40 L74.1786 40 L75.2857 39.4 L76.3929 39.6 L77.5 39.8 L78.6071 39.6 L79.7143 39.4 L80.8214 39.4 L81.9286 39.4 L83.0357 39.4 L84.1429 39.2 L85.25 39.2 L86.3571 39.6 L87.4643 39.4 L88.5714 39.2 L89.6786 39 L90.7857 38.4 L91.8929 39 L93 38.8 L94.1071 38.6 L95.2143 39 L96.3214 39.2 L97.4286 39.2 L98.5357 39 L99.6429 39 L100.75 38.8 L101.8571 39 L102.9643 39 L104.0714 39.4 L105.1786 39 L106.2857 39 L107.3929 39 L108.5 39 L109.6071 38.8 L110.7143 38.6 L111.8214 37.8 L112.9286 36.4 L114.0357 37.2 L115.1429 37.6 L116.25 35.4 L117.3571 36.4 L118.4643 36.2 L119.5714 36.4 L120.6786 35.2 L121.7857 35.2 L122.8929 34.8 L124 35.2 L125.1071 35.2 L126.2143 34.4 L127.3214 33.6 L128.4286 32.4 L129.5357 31.2 L130.6429 30.2 L131.75 28.8 L132.8571 27.8 L133.9643 20 L135.0714 21.4 L136.1786 19.8 L137.2857 20.8 L138.3929 21.8 L139.5 20.2 L140.6071 20 L141.7143 20.4 L142.8214 20.6 L143.9286 19.2 L145.0357 19 L146.1429 18.2 L147.25 19.2 L148.3571 20 L149.4643 21.4 L150.5714 20.8 L151.6786 19.8 L152.7857 21.2 L153.8929 22.8 L155 23.6"/>
</g>
</g>
</svg>