<svg viewBox="0 0 155 58" preserveAspectRatio="none" class="svggraph" id="svgthumb_us" style="overflow:visible;width:155px;height:58px;" xmlns="http://www.w3.org/2000/svg" xlink="http://www.w3.org/1999/xlink" title="Chart for juliette">
<title>Last ranked
#180 in 2020</title>
<rect x="2" y="43" height="13" width="17" style="fill:rgb(200,200,200)"/>
<image x="2.5" y="43.5" href="/images/flags/24/us.png" preserveAspectRatio="xMinYMax meet" width="16" height="12"/>
<text x="153" y="55" class="svgtitle" text-anchor="end" style="fill:#000000;font-size:13px;">United States</text>
<line x1="0" y1="41" x2="155" y2="41" class="svggridline" style="stroke:rgb(200,200,200);stroke-width:1.3"/>
<g id="svgthumb_us-namepaths">
<g style="fill:none;stroke:#ff0000;stroke-width:1.3;" class="svgcurveline" id="svgthumb_us-juliette-f">
<path d=" M0.5536 40.2 L1.1071 39.2 L2.2143 39.4 L3.3214 40.2 L4.4286 39.6 L5.5357 39.8 L6.6429 39.6 L7.75 40 L8.8571 40.2 L9.4107 40.2 M10.5179 40.2 L11.0714 39.6 L12.1786 39.2 L13.2857 40 L14.3929 40 L15.5 39.8 L16.6071 39 L17.7143 39.8 L18.8214 39.8 L19.9286 38.8 L21.0357 38.8 L22.1429 39.8 L23.25 39.2 L24.3571 39.2 L25.4643 39.4 L26.5714 38.6 L27.6786 39 L28.7857 38.2 L29.8929 38.8 L31 38.8 L32.1071 38.8 L33.2143 38.8 L34.3214 38.4 L35.4286 37.8 L36.5357 37.8 L37.6429 38.2 L38.75 38.2 L39.8571 38.6 L40.9643 38.2 L42.0714 38.2 L43.1786 38.4 L44.2857 38 L45.3929 38.2 L46.5 38.8 L47.6071 38.6 L48.7143 38.6 L49.8214 38.8 L50.9286 38.8 L52.0357 38.8 L53.1429 38.6 L54.25 39.2 L55.3571 39.4 L56.4643 39 L57.5714 39 L58.6786 39 L59.7857 38.8 L60.8929 39.8 L62 39.2 L63.1071 39.2 L64.2143 39.4 L65.3214 39.4 L66.4286 39.4 L67.5357 39.6 L68.6429 39.6 L69.75 39.8 L70.8571 40 L71.9643 39.8 L73.0714 39.6 L74.1786 39.6 L75.2857 39.8 L76.3929 39.8 L77.5 39.8 L78.6071 39.8 L79.7143 40 L80.8214 40 L81.9286 40 L83.0357 40 L83.5893 40 M84.6964 40 L85.25 40 L86.3571 39.8 L87.4643 40 L88.5714 39.8 L89.6786 39.6 L90.7857 39.8 L91.8929 39.6 L93 39.8 L94.1071 39.8 L94.6607 39.8 M97.9821 39.8 L98.5357 39.4 L99.6429 39 L100.75 39 L101.8571 39.4 L102.4107 39.4 M126.7679 39 L127.3214 39 L128.4286 38.6 L129.5357 37.6 L130.6429 37.4 L131.75 37.2 L132.8571 37.2 L133.9643 36.6 L135.0714 36.6 L136.1786 37.2 L137.2857 37 L138.3929 36.6 L139.5 36.8 L140.6071 36.2 L141.7143 35.6 L142.8214 34 L143.9286 32.2 L145.0357 32.2 L146.1429 30.4 L147.25 29.8 L148.3571 28 L149.4643 26 L150.5714 23.8 L151.6786 25.2 L152.7857 23.6 L153.8929 23.2 L155 23"/>
</g>
</g>
</svg>