<svg viewBox="0 0 155 58" preserveAspectRatio="none" class="svggraph" id="svgthumb_us" style="overflow:visible;width:155px;height:58px;" xmlns="http://www.w3.org/2000/svg" xlink="http://www.w3.org/1999/xlink" title="Chart for julianna">
<title>Last ranked
#269 in 2020</title>
<rect x="2" y="43" height="13" width="17" style="fill:rgb(200,200,200)"/>
<image x="2.5" y="43.5" href="/images/flags/24/us.png" preserveAspectRatio="xMinYMax meet" width="16" height="12"/>
<text x="153" y="55" class="svgtitle" text-anchor="end" style="fill:#000000;font-size:13px;">United States</text>
<line x1="0" y1="41" x2="155" y2="41" class="svggridline" style="stroke:rgb(200,200,200);stroke-width:1.3"/>
<g id="svgthumb_us-namepaths">
<g style="fill:none;stroke:#ff0000;stroke-width:1.3;" class="svgcurveline" id="svgthumb_us-julianna-f">
<path d=" M93.5536 39.8 L94.1071 39.8 L94.6607 39.8 M97.9821 39.8 L98.5357 39.6 L99.0893 39.6 M100.1964 39.6 L100.75 39.6 L101.8571 39.4 L102.4107 39.4 M110.1607 39.4 L110.7143 39.4 L111.8214 39.2 L112.9286 38.8 L114.0357 39.2 L115.1429 39 L116.25 37.6 L117.3571 38 L118.4643 38 L119.5714 37.8 L120.6786 37 L121.7857 37.8 L122.8929 36.4 L124 37 L125.1071 37 L126.2143 36.4 L127.3214 34.4 L128.4286 32.4 L129.5357 31 L130.6429 28.8 L131.75 28.6 L132.8571 28 L133.9643 23 L135.0714 23.2 L136.1786 23.8 L137.2857 24.4 L138.3929 25 L139.5 23.6 L140.6071 24.2 L141.7143 24.4 L142.8214 24.2 L143.9286 23.2 L145.0357 23 L146.1429 23.4 L147.25 23.4 L148.3571 22.8 L149.4643 23.4 L150.5714 24.4 L151.6786 24 L152.7857 26.4 L153.8929 27.4 L155 28"/>
</g>
</g>
</svg>