<svg viewBox="0 0 155 58" preserveAspectRatio="none" class="svggraph" id="svgthumb_us" style="overflow:visible;width:155px;height:58px;" xmlns="http://www.w3.org/2000/svg" xlink="http://www.w3.org/1999/xlink" title="Chart for juliet">
<title>Last ranked
#306 in 2020</title>
<rect x="2" y="43" height="13" width="17" style="fill:rgb(200,200,200)"/>
<image x="2.5" y="43.5" href="/images/flags/24/us.png" preserveAspectRatio="xMinYMax meet" width="16" height="12"/>
<text x="153" y="55" class="svgtitle" text-anchor="end" style="fill:#000000;font-size:13px;">United States</text>
<line x1="0" y1="41" x2="155" y2="41" class="svggridline" style="stroke:rgb(200,200,200);stroke-width:1.3"/>
<g id="svgthumb_us-namepaths">
<g style="fill:none;stroke:#ff0000;stroke-width:1.3;" class="svgcurveline" id="svgthumb_us-juliet-f">
<path d="M0 36.5556 L1.1071 37 L2.2143 38.3333 L3.3214 37.4444 L4.4286 37 L5.5357 38.3333 L6.6429 33.8889 L7.75 37.8889 L8.8571 38.3333 L9.4107 39.2222 M10.5179 39.2222 L11.0714 37.8889 L11.625 38.7778 M12.7321 38.7778 L13.2857 38.7778 L14.3929 38.7778 L15.5 37.8889 L16.6071 37.4444 L17.7143 37 L18.8214 37.4444 L19.9286 38.7778 L21.0357 37.8889 L22.1429 38.7778 L23.25 37.8889 L24.3571 37.4444 L25.4643 38.7778 L26.5714 37.8889 L27.6786 38.7778 L28.7857 37.4444 L29.8929 36.5556 L31 37.4444 L32.1071 37.4444 L33.2143 38.3333 L34.3214 37 L35.4286 37.8889 L36.5357 37.8889 L37.6429 37 L38.75 38.3333 L39.8571 37 L40.9643 37.4444 L42.0714 37.4444 L43.1786 37.8889 L44.2857 37.4444 L45.3929 38.3333 L46.5 38.3333 L47.6071 37.8889 L48.7143 37.8889 L49.8214 38.3333 L50.9286 37.8889 L52.0357 38.7778 L53.1429 38.3333 L54.25 38.3333 L54.8036 38.7778 M55.9107 38.7778 L56.4643 38.7778 L57.5714 38.3333 L58.125 38.7778 M60.3393 39.2222 L60.8929 38.7778 L61.4464 39.2222 M62.5536 39.2222 L63.1071 37.8889 L64.2143 37.8889 L65.3214 38.3333 L66.4286 37.8889 L67.5357 37.8889 L68.6429 38.3333 L69.75 38.3333 L70.8571 37.8889 L71.9643 38.7778 L73.0714 38.3333 L74.1786 39.2222 L75.2857 38.7778 L76.3929 38.7778 L77.5 38.7778 L78.6071 38.7778 L79.7143 38.7778 L80.8214 38.7778 L81.9286 38.3333 L83.0357 38.3333 L84.1429 38.3333 L85.25 37.8889 L86.3571 38.3333 L87.4643 37.8889 L88.5714 37.4444 L89.6786 37 L90.7857 35.6667 L91.8929 36.1111 L93 36.5556 L94.1071 36.1111 L95.2143 36.1111 L96.3214 36.1111 L97.4286 36.1111 L98.5357 33.4444 L99.6429 31.6667 L100.75 31.6667 L101.8571 33.8889 L102.9643 33.8889 L104.0714 35.2222 L105.1786 34.7778 L106.2857 36.5556 L107.3929 37 L108.5 37 L109.6071 36.5556 L110.7143 36.5556 L111.8214 36.5556 L112.9286 37 L114.0357 37 L114.5893 37.4444 M115.6964 37.4444 L116.25 37 L116.8036 37.4444 M120.125 37 L120.6786 37 L121.2321 37 M127.875 36.5556 L128.4286 35.2222 L129.5357 32.5556 L130.6429 32.1111 L131.75 32.1111 L132.8571 32.1111 L133.9643 30.7778 L135.0714 31.2222 L136.1786 30.7778 L137.2857 31.6667 L138.3929 30.3333 L139.5 30.3333 L140.6071 28.1111 L141.7143 26.3333 L142.8214 18.7778 L143.9286 15.2222 L145.0357 11.6667 L146.1429 11.6667 L147.25 10.3333 L148.3571 12.1111 L149.4643 9.8889 L150.5714 9 L151.6786 8.5556 L152.7857 8.5556 L153.8929 11.2222 L155 14.7778"/>
</g>
</g>
</svg>