<svg viewBox="0 0 155 58" preserveAspectRatio="none" class="svggraph" id="svgthumb_us" style="overflow:visible;width:155px;height:58px;" xmlns="http://www.w3.org/2000/svg" xlink="http://www.w3.org/1999/xlink" title="Chart for june">
<title>Last ranked
#182 in 2020 (f)
#930 in 1939 (m)</title>
<rect x="2" y="43" height="13" width="17" style="fill:rgb(200,200,200)"/>
<image x="2.5" y="43.5" href="/images/flags/24/us.png" preserveAspectRatio="xMinYMax meet" width="16" height="12"/>
<text x="153" y="55" class="svgtitle" text-anchor="end" style="fill:#000000;font-size:13px;">United States</text>
<line x1="0" y1="41" x2="155" y2="41" class="svggridline" style="stroke:rgb(200,200,200);stroke-width:1.3"/>
<g id="svgthumb_us-namepaths">
<g style="fill:none;stroke:#ff0000;stroke-width:1.3;" class="svgcurveline" id="svgthumb_us-june-f">
<path d="M0 40.0667 L1.1071 39.9333 L2.2143 39.7333 L3.3214 39.6667 L4.4286 38.9333 L5.5357 39.4 L6.6429 39.6 L7.75 39.9333 L8.8571 39.2667 L9.9643 39.0667 L11.0714 38.9333 L12.1786 38.6667 L13.2857 39.3333 L14.3929 39.1333 L15.5 38.8667 L16.6071 38.9333 L17.7143 38.8 L18.8214 38.5333 L19.9286 38.1333 L21.0357 38.4667 L22.1429 38.3333 L23.25 38.0667 L24.3571 37.9333 L25.4643 37.6 L26.5714 38 L27.6786 37.8 L28.7857 37.7333 L29.8929 37.2 L31 37.1333 L32.1071 37.1333 L33.2143 36.3333 L34.3214 36.8 L35.4286 35.6667 L36.5357 33.8 L37.6429 31.4 L38.75 27.0667 L39.8571 23.5333 L40.9643 21 L42.0714 18.6 L43.1786 18.5333 L44.2857 14.6667 L45.3929 14.1333 L46.5 12.2667 L47.6071 10.0667 L48.7143 9.3333 L49.8214 5.9333 L50.9286 8.0667 L52.0357 10.0667 L53.1429 10.2667 L54.25 11.6667 L55.3571 11.8667 L56.4643 10.8 L57.5714 11.8 L58.6786 11.2 L59.7857 14 L60.8929 17.4667 L62 19.2667 L63.1071 20.5333 L64.2143 22.6667 L65.3214 24.1333 L66.4286 24.3333 L67.5357 26.2 L68.6429 28.4667 L69.75 29.4 L70.8571 30.2667 L71.9643 30.7333 L73.0714 30.4 L74.1786 30.6 L75.2857 31.8667 L76.3929 32.3333 L77.5 32.3333 L78.6071 32.8 L79.7143 32.8667 L80.8214 33.2 L81.9286 33.0667 L83.0357 33.8667 L84.1429 34.6667 L85.25 35.1333 L86.3571 35.0667 L87.4643 35.2 L88.5714 35.7333 L89.6786 36.2667 L90.7857 36.2 L91.8929 36.4 L93 36.3333 L94.1071 37.2 L95.2143 37.5333 L96.3214 38 L97.4286 38.6667 L98.5357 38.7333 L99.6429 38.9333 L100.75 39 L101.8571 39.3333 L102.9643 39.6667 L104.0714 39.6667 L105.1786 39.7333 L106.2857 39.8 L107.3929 40 L108.5 39.8 L109.6071 39.9333 L110.7143 40.1333 L111.8214 40.1333 L112.9286 40.2 L114.0357 40.3333 L115.1429 40.4 L116.25 40.3333 L117.3571 40.4 L117.9107 40.4667 M141.1607 40.1333 L141.7143 40 L142.8214 39.5333 L143.9286 39.3333 L145.0357 38.8 L146.1429 38.5333 L147.25 38 L148.3571 37.4 L149.4643 37.1333 L150.5714 36.9333 L151.6786 36.4 L152.7857 36.1333 L153.8929 35.4667 L155 35"/>
</g>
<g style="fill:none;stroke:#0000ff;stroke-width:1.3;" class="svgcurveline" id="svgthumb_us-june-m">
<path d="M0 40.4667 L1.1071 40.4 L2.2143 40.3333 L3.3214 40.6667 L4.4286 40.4667 L5.5357 40.5333 L6.6429 40.4 L7.75 40.2667 L8.8571 40.4667 L9.9643 40.6 L11.0714 40.5333 L12.1786 40.4667 L13.2857 40.4667 L14.3929 40.2 L15.5 40.4 L16.6071 40.4667 L17.7143 40.2667 L18.8214 40.3333 L19.9286 40.2667 L21.0357 40.5333 L22.1429 40.6 L23.25 40.3333 L23.8036 40.6667 M24.9107 40.6667 L25.4643 40.4 L26.5714 40.6 L27.125 40.6 M28.2321 40.6 L28.7857 40.6 L29.8929 40.4667 L31 40.3333 L32.1071 40.3333 L33.2143 40.6 L33.7679 40.6667 M34.875 40.6667 L35.4286 40.6 L36.5357 40.6667 L37.6429 40.6 L38.75 40.6667 L39.8571 40.5333 L40.9643 40.6 L42.0714 40.5333 L43.1786 40.5333 L44.2857 40.5333 L45.3929 40.5333 L46.5 40.4667 L47.6071 40.5333 L48.7143 40.5333 L49.8214 40.6 L50.9286 40.6 L52.0357 40.6 L53.1429 40.5333 L54.25 40.6 L55.3571 40.5333 L56.4643 40.6 L57.5714 40.6 L58.6786 40.6 L59.7857 40.6 L60.8929 40.7333 L62 40.6667 L63.1071 40.6667 L64.2143 40.7333 L65.3214 40.7333 L65.875 40.7333"/>
</g>
</g>
</svg>