<svg viewBox="0 0 155 58" preserveAspectRatio="none" class="svggraph" id="svgthumb_us" style="overflow:visible;width:155px;height:58px;" xmlns="http://www.w3.org/2000/svg" xlink="http://www.w3.org/1999/xlink" title="Chart for kaitlyn">
<title>Last ranked
#486 in 2020</title>
<rect x="2" y="43" height="13" width="17" style="fill:rgb(200,200,200)"/>
<image x="2.5" y="43.5" href="/images/flags/24/us.png" preserveAspectRatio="xMinYMax meet" width="16" height="12"/>
<text x="153" y="55" class="svgtitle" text-anchor="end" style="fill:#000000;font-size:13px;">United States</text>
<line x1="0" y1="41" x2="155" y2="41" class="svggridline" style="stroke:rgb(200,200,200);stroke-width:1.3"/>
<g id="svgthumb_us-namepaths">
<g style="fill:none;stroke:#ff0000;stroke-width:1.3;" class="svgcurveline" id="svgthumb_us-kaitlyn-f">
<path d=" M113.4821 40.36 L114.0357 39.8 L115.1429 39 L116.25 37.16 L117.3571 35.8 L118.4643 33.72 L119.5714 29.8 L120.6786 27.4 L121.7857 24.2 L122.8929 23.64 L124 11.16 L125.1071 12.76 L126.2143 13.56 L127.3214 10.28 L128.4286 10.76 L129.5357 11.64 L130.6429 8.28 L131.75 7.48 L132.8571 5.88 L133.9643 8.04 L135.0714 8.68 L136.1786 10.92 L137.2857 13.32 L138.3929 15.32 L139.5 17.72 L140.6071 20.04 L141.7143 21.32 L142.8214 24.36 L143.9286 27.56 L145.0357 29 L146.1429 30.28 L147.25 31.16 L148.3571 32.6 L149.4643 34.2 L150.5714 36.84 L151.6786 37 L152.7857 37.56 L153.8929 37.96 L155 38.12"/>
</g>
</g>
</svg>