<svg viewBox="0 0 155 58" preserveAspectRatio="none" class="svggraph" id="svgthumb_us" style="overflow:visible;width:155px;height:58px;" xmlns="http://www.w3.org/2000/svg" xlink="http://www.w3.org/1999/xlink" title="Chart for kate">
<title>Last ranked
#411 in 2020</title>
<rect x="2" y="43" height="13" width="17" style="fill:rgb(200,200,200)"/>
<image x="2.5" y="43.5" href="/images/flags/24/us.png" preserveAspectRatio="xMinYMax meet" width="16" height="12"/>
<text x="153" y="55" class="svgtitle" text-anchor="end" style="fill:#000000;font-size:13px;">United States</text>
<line x1="0" y1="41" x2="155" y2="41" class="svggridline" style="stroke:rgb(200,200,200);stroke-width:1.3"/>
<g id="svgthumb_us-namepaths">
<g style="fill:none;stroke:#ff0000;stroke-width:1.3;" class="svgcurveline" id="svgthumb_us-kate-f">
<path d="M0 10.4 L1.1071 14 L2.2143 15.7 L3.3214 16.5 L4.4286 16 L5.5357 19.2 L6.6429 19.2 L7.75 19.7 L8.8571 22 L9.9643 21.9 L11.0714 23.5 L12.1786 25.5 L13.2857 25.7 L14.3929 26.7 L15.5 27.1 L16.6071 30.4 L17.7143 29 L18.8214 30.2 L19.9286 30.2 L21.0357 32.2 L22.1429 31.7 L23.25 33.3 L24.3571 33.4 L25.4643 33.7 L26.5714 33.7 L27.6786 35.1 L28.7857 34.7 L29.8929 35.5 L31 35.6 L32.1071 36 L33.2143 36.1 L34.3214 36.1 L35.4286 36.6 L36.5357 37.1 L37.6429 37.1 L38.75 37.7 L39.8571 38.1 L40.9643 38.1 L42.0714 38.5 L43.1786 38.4 L44.2857 39 L45.3929 38.7 L46.5 39.1 L47.6071 39.2 L48.7143 39.3 L49.8214 39.6 L50.9286 39.7 L52.0357 39.8 L53.1429 39.9 L54.25 39.9 L55.3571 40 L56.4643 40.1 L57.5714 40.1 L58.6786 40.2 L59.7857 40.1 L60.8929 40 L62 40.1 L63.1071 40.3 L64.2143 40.2 L65.3214 40.1 L66.4286 40.2 L67.5357 40.1 L68.6429 40.3 L69.75 40.3 L70.8571 40.3 L71.9643 40.4 L73.0714 40.4 L74.1786 40.3 L75.2857 40.4 L76.3929 40.4 L77.5 40.4 L78.6071 40.4 L79.7143 40.5 L80.8214 40.4 L81.9286 40.5 L83.0357 40.4 L84.1429 40.5 L85.25 40.2 L86.3571 40.2 L87.4643 40.2 L88.5714 40 L89.6786 39.9 L90.7857 39.9 L91.8929 40 L93 39.9 L94.1071 39.9 L95.2143 40 L96.3214 40 L97.4286 39.8 L98.5357 39.7 L99.6429 39.4 L100.75 39.7 L101.8571 39.4 L102.9643 39.2 L104.0714 38.8 L105.1786 37.9 L106.2857 37.6 L107.3929 36 L108.5 34.9 L109.6071 33.7 L110.7143 33.5 L111.8214 33.2 L112.9286 33.6 L114.0357 33.5 L115.1429 32.4 L116.25 32.9 L117.3571 33.2 L118.4643 33.3 L119.5714 35 L120.6786 35.6 L121.7857 36 L122.8929 36.2 L124 36.8 L125.1071 37 L126.2143 37.1 L127.3214 37.3 L128.4286 36.8 L129.5357 36.3 L130.6429 35.1 L131.75 33.8 L132.8571 34 L133.9643 32.8 L135.0714 32.6 L136.1786 30.8 L137.2857 30 L138.3929 29.2 L139.5 29.3 L140.6071 28.9 L141.7143 29.4 L142.8214 31.2 L143.9286 33.4 L145.0357 31.8 L146.1429 32.5 L147.25 32 L148.3571 32.7 L149.4643 33.4 L150.5714 33.8 L151.6786 34.8 L152.7857 34.7 L153.8929 35.6 L155 36.7"/>
</g>
</g>
</svg>