<svg viewBox="0 0 155 58" preserveAspectRatio="none" class="svggraph" id="svgthumb_us" style="overflow:visible;width:155px;height:58px;" xmlns="http://www.w3.org/2000/svg" xlink="http://www.w3.org/1999/xlink" title="Chart for katherine">
<title>Last ranked
#135 in 2020 (f)
#723 in 1904 (m)</title>
<rect x="2" y="43" height="13" width="17" style="fill:rgb(200,200,200)"/>
<image x="2.5" y="43.5" href="/images/flags/24/us.png" preserveAspectRatio="xMinYMax meet" width="16" height="12"/>
<text x="153" y="55" class="svgtitle" text-anchor="end" style="fill:#000000;font-size:13px;">United States</text>
<line x1="0" y1="41" x2="155" y2="41" class="svggridline" style="stroke:rgb(200,200,200);stroke-width:1.3"/>
<g id="svgthumb_us-namepaths">
<g style="fill:none;stroke:#ff0000;stroke-width:1.3;" class="svgcurveline" id="svgthumb_us-katherine-f">
<path d="M0 6.7333 L1.1071 7 L2.2143 6.9333 L3.3214 8.6 L4.4286 8.4667 L5.5357 5.7333 L6.6429 8.7333 L7.75 6.9333 L8.8571 9.6 L9.9643 9.6667 L11.0714 11.2667 L12.1786 13.7333 L13.2857 12.5333 L14.3929 12.4667 L15.5 14.2 L16.6071 14.8667 L17.7143 13.3333 L18.8214 15.2 L19.9286 18.8 L21.0357 15.6 L22.1429 15.8 L23.25 17.6667 L24.3571 17.1333 L25.4643 16.6667 L26.5714 15.2667 L27.6786 15.4 L28.7857 13.8667 L29.8929 13.0667 L31 14.1333 L32.1071 12.8 L33.2143 13.1333 L34.3214 12.9333 L35.4286 12.0667 L36.5357 12.5333 L37.6429 10.4667 L38.75 11.8 L39.8571 11.5333 L40.9643 11.6 L42.0714 12.2 L43.1786 13.4667 L44.2857 12.7333 L45.3929 14.1333 L46.5 15.2 L47.6071 16.6 L48.7143 16.8667 L49.8214 18.6 L50.9286 20.2 L52.0357 20.9333 L53.1429 22.0667 L54.25 23.6 L55.3571 23.6667 L56.4643 25.1333 L57.5714 25.4 L58.6786 26.1333 L59.7857 26.2667 L60.8929 26.6667 L62 26.4 L63.1071 26 L64.2143 25.9333 L65.3214 26.4667 L66.4286 25.7333 L67.5357 24.9333 L68.6429 24.8 L69.75 24.2 L70.8571 23.8 L71.9643 24.2 L73.0714 23.6667 L74.1786 23.0667 L75.2857 21.2 L76.3929 18.0667 L77.5 17.4667 L78.6071 16 L79.7143 16.8667 L80.8214 18.3333 L81.9286 18.4 L83.0357 16.9333 L84.1429 18.0667 L85.25 19.9333 L86.3571 20.2 L87.4643 21.3333 L88.5714 22.1333 L89.6786 22.9333 L90.7857 23.6667 L91.8929 23.8 L93 23.7333 L94.1071 23.8 L95.2143 23.9333 L96.3214 23.3333 L97.4286 22.6 L98.5357 21.4667 L99.6429 21.2 L100.75 21.5333 L101.8571 22.3333 L102.9643 22.0667 L104.0714 21.7333 L105.1786 20.2667 L106.2857 19.5333 L107.3929 16.5333 L108.5 14.1333 L109.6071 12.1333 L110.7143 11 L111.8214 9.5333 L112.9286 7.2667 L114.0357 4.9333 L115.1429 3.4667 L116.25 4.4 L117.3571 2.8 L118.4643 3.8667 L119.5714 2.3333 L120.6786 2.8 L121.7857 3.2667 L122.8929 3.3333 L124 3.9333 L125.1071 5.4667 L126.2143 8.2 L127.3214 9.8 L128.4286 10.1333 L129.5357 11.2667 L130.6429 12.8 L131.75 13.8 L132.8571 13.9333 L133.9643 14.4667 L135.0714 16.6667 L136.1786 17.3333 L137.2857 18.7333 L138.3929 20 L139.5 20.9333 L140.6071 22.6667 L141.7143 23.8667 L142.8214 26.4 L143.9286 27.8667 L145.0357 26.6 L146.1429 27.4 L147.25 28.1333 L148.3571 28.4 L149.4643 29.2 L150.5714 29.7333 L151.6786 30.8667 L152.7857 31.4 L153.8929 32.0667 L155 33.5333"/>
</g>
<g style="fill:none;stroke:#0000ff;stroke-width:1.3;" class="svgcurveline" id="svgthumb_us-katherine-m">
<path d="M0 40.7333 L0.5536 40.7333 M26.0179 40.6667 L26.5714 40.4667 L27.125 40.6"/>
</g>
</g>
</svg>