<svg viewBox="0 0 155 58" preserveAspectRatio="none" class="svggraph" id="svgthumb_us" style="overflow:visible;width:155px;height:58px;" xmlns="http://www.w3.org/2000/svg" xlink="http://www.w3.org/1999/xlink" title="Chart for katie">
<title>Last ranked
#484 in 2020</title>
<rect x="2" y="43" height="13" width="17" style="fill:rgb(200,200,200)"/>
<image x="2.5" y="43.5" href="/images/flags/24/us.png" preserveAspectRatio="xMinYMax meet" width="16" height="12"/>
<text x="153" y="55" class="svgtitle" text-anchor="end" style="fill:#000000;font-size:13px;">United States</text>
<line x1="0" y1="41" x2="155" y2="41" class="svggridline" style="stroke:rgb(200,200,200);stroke-width:1.3"/>
<g id="svgthumb_us-namepaths">
<g style="fill:none;stroke:#ff0000;stroke-width:1.3;" class="svgcurveline" id="svgthumb_us-katie-f">
<path d="M0 16.2 L1.1071 18.44 L2.2143 18.36 L3.3214 16.92 L4.4286 20.04 L5.5357 19.16 L6.6429 18.6 L7.75 18.36 L8.8571 19.24 L9.9643 19.8 L11.0714 20.84 L12.1786 20.92 L13.2857 21 L14.3929 23.08 L15.5 23.24 L16.6071 23.64 L17.7143 24.6 L18.8214 25.16 L19.9286 24.04 L21.0357 26.2 L22.1429 25.48 L23.25 26.76 L24.3571 24.68 L25.4643 26.28 L26.5714 27.48 L27.6786 26.76 L28.7857 28.28 L29.8929 28.2 L31 29 L32.1071 29.4 L33.2143 28.2 L34.3214 30.2 L35.4286 31 L36.5357 32.76 L37.6429 32.36 L38.75 33.64 L39.8571 34.12 L40.9643 34.44 L42.0714 34.28 L43.1786 33.72 L44.2857 33.8 L45.3929 34.92 L46.5 34.28 L47.6071 34.92 L48.7143 35 L49.8214 34.68 L50.9286 35.48 L52.0357 35.24 L53.1429 35.48 L54.25 35.72 L55.3571 35.96 L56.4643 35.56 L57.5714 35.56 L58.6786 35.32 L59.7857 35.72 L60.8929 35.64 L62 36.28 L63.1071 36.6 L64.2143 36.52 L65.3214 36.44 L66.4286 36.68 L67.5357 36.84 L68.6429 37.24 L69.75 37.48 L70.8571 37.72 L71.9643 37.56 L73.0714 38.04 L74.1786 38.44 L75.2857 38.12 L76.3929 37.96 L77.5 38.68 L78.6071 38.6 L79.7143 39 L80.8214 38.76 L81.9286 39 L83.0357 39.08 L84.1429 39.08 L85.25 39.08 L86.3571 38.84 L87.4643 38.44 L88.5714 38.68 L89.6786 38.68 L90.7857 38.76 L91.8929 38.84 L93 38.84 L94.1071 39 L95.2143 38.92 L96.3214 39.08 L97.4286 38.84 L98.5357 38.2 L99.6429 37.96 L100.75 37.56 L101.8571 37.16 L102.9643 36.84 L104.0714 35.32 L105.1786 34.36 L106.2857 32.92 L107.3929 28.84 L108.5 24.36 L109.6071 20.04 L110.7143 13.4 L111.8214 11.48 L112.9286 11.56 L114.0357 11 L115.1429 9.16 L116.25 6.36 L117.3571 4.84 L118.4643 6.04 L119.5714 8.68 L120.6786 11.72 L121.7857 15.64 L122.8929 15.72 L124 16.6 L125.1071 18.84 L126.2143 20.6 L127.3214 22.36 L128.4286 22.92 L129.5357 24.84 L130.6429 25.56 L131.75 26.44 L132.8571 27.32 L133.9643 27.8 L135.0714 27.88 L136.1786 28.2 L137.2857 28.28 L138.3929 28.52 L139.5 29.16 L140.6071 29.64 L141.7143 30.76 L142.8214 32.12 L143.9286 33.24 L145.0357 34.12 L146.1429 35 L147.25 35.48 L148.3571 36.2 L149.4643 36.68 L150.5714 37.24 L151.6786 37.72 L152.7857 37.88 L153.8929 38.04 L155 38.12"/>
</g>
</g>
</svg>