<svg viewBox="0 0 155 58" preserveAspectRatio="none" class="svggraph" id="svgthumb_us" style="overflow:visible;width:155px;height:58px;" xmlns="http://www.w3.org/2000/svg" xlink="http://www.w3.org/1999/xlink" title="Chart for kaylee">
<title>Last ranked
#117 in 2020</title>
<rect x="2" y="43" height="13" width="17" style="fill:rgb(200,200,200)"/>
<image x="2.5" y="43.5" href="/images/flags/24/us.png" preserveAspectRatio="xMinYMax meet" width="16" height="12"/>
<text x="153" y="55" class="svgtitle" text-anchor="end" style="fill:#000000;font-size:13px;">United States</text>
<line x1="0" y1="41" x2="155" y2="41" class="svggridline" style="stroke:rgb(200,200,200);stroke-width:1.3"/>
<g id="svgthumb_us-namepaths">
<g style="fill:none;stroke:#ff0000;stroke-width:1.3;" class="svgcurveline" id="svgthumb_us-kaylee-f">
<path d=" M114.5893 40.2 L115.1429 39.9 L116.25 39.7 L117.3571 38.4 L118.4643 37.8 L119.5714 36.9 L120.6786 36.1 L121.7857 35.1 L122.8929 33.7 L124 32.3 L125.1071 31.4 L126.2143 30.2 L127.3214 27.9 L128.4286 26.4 L129.5357 25 L130.6429 21.4 L131.75 17.5 L132.8571 18.5 L133.9643 17.7 L135.0714 15.8 L136.1786 13.8 L137.2857 14 L138.3929 12.1 L139.5 12.3 L140.6071 12.4 L141.7143 10.8 L142.8214 5.3 L143.9286 9.9 L145.0357 9.8 L146.1429 12 L147.25 14.4 L148.3571 17.7 L149.4643 18.6 L150.5714 21.2 L151.6786 22.9 L152.7857 25.1 L153.8929 27.1 L155 27.8"/>
</g>
</g>
</svg>