<svg viewBox="0 0 155 58" preserveAspectRatio="none" class="svggraph" id="svgthumb_us" style="overflow:visible;width:155px;height:58px;" xmlns="http://www.w3.org/2000/svg" xlink="http://www.w3.org/1999/xlink" title="Chart for kayla">
<title>Last ranked
#216 in 2020</title>
<rect x="2" y="43" height="13" width="17" style="fill:rgb(200,200,200)"/>
<image x="2.5" y="43.5" href="/images/flags/24/us.png" preserveAspectRatio="xMinYMax meet" width="16" height="12"/>
<text x="153" y="55" class="svgtitle" text-anchor="end" style="fill:#000000;font-size:13px;">United States</text>
<line x1="0" y1="41" x2="155" y2="41" class="svggridline" style="stroke:rgb(200,200,200);stroke-width:1.3"/>
<g id="svgthumb_us-namepaths">
<g style="fill:none;stroke:#ff0000;stroke-width:1.3;" class="svgcurveline" id="svgthumb_us-kayla-f">
<path d=" M86.9107 40.8 L87.4643 40.76 L88.5714 40.76 L89.125 40.76 M90.2321 40.76 L90.7857 40.68 L91.8929 40.68 L93 40.68 L94.1071 40.68 L95.2143 40.68 L96.3214 40.68 L97.4286 40.68 L98.5357 40.56 L99.6429 40.64 L100.75 40.6 L101.8571 40.56 L102.9643 40.6 L104.0714 40.56 L105.1786 40.52 L106.2857 40.48 L107.3929 40.44 L108.5 40.44 L109.6071 40.4 L110.7143 40.28 L111.8214 40.28 L112.9286 36 L114.0357 33.12 L115.1429 35.04 L116.25 35.36 L117.3571 30.92 L118.4643 18.44 L119.5714 13.08 L120.6786 11.08 L121.7857 6.84 L122.8929 4.52 L124 8.04 L125.1071 9.64 L126.2143 8.4 L127.3214 7.52 L128.4286 9.16 L129.5357 11.92 L130.6429 13.32 L131.75 13.68 L132.8571 14.32 L133.9643 17 L135.0714 18.08 L136.1786 19.16 L137.2857 21.64 L138.3929 24 L139.5 25.24 L140.6071 26.68 L141.7143 27.88 L142.8214 29.44 L143.9286 30.68 L145.0357 32.04 L146.1429 33.2 L147.25 34.24 L148.3571 34.84 L149.4643 35.36 L150.5714 35.88 L151.6786 36.48 L152.7857 36.92 L153.8929 37.48 L155 37.96"/>
</g>
</g>
</svg>