<svg viewBox="0 0 155 58" preserveAspectRatio="none" class="svggraph" id="svgthumb_us" style="overflow:visible;width:155px;height:58px;" xmlns="http://www.w3.org/2000/svg" xlink="http://www.w3.org/1999/xlink" title="Chart for kayleigh">
<title>Last ranked
#439 in 2020</title>
<rect x="2" y="43" height="13" width="17" style="fill:rgb(200,200,200)"/>
<image x="2.5" y="43.5" href="/images/flags/24/us.png" preserveAspectRatio="xMinYMax meet" width="16" height="12"/>
<text x="153" y="55" class="svgtitle" text-anchor="end" style="fill:#000000;font-size:13px;">United States</text>
<line x1="0" y1="41" x2="155" y2="41" class="svggridline" style="stroke:rgb(200,200,200);stroke-width:1.3"/>
<g id="svgthumb_us-namepaths">
<g style="fill:none;stroke:#ff0000;stroke-width:1.3;" class="svgcurveline" id="svgthumb_us-kayleigh-f">
<path d=" M115.6964 37.4444 L116.25 36.1111 L117.3571 22.7778 L118.4643 28.1111 L119.5714 28.1111 L120.6786 27.2222 L121.7857 27.6667 L122.8929 26.7778 L124 27.2222 L125.1071 26.7778 L126.2143 27.6667 L127.3214 27.2222 L128.4286 26.3333 L129.5357 25 L130.6429 22.7778 L131.75 22.3333 L132.8571 21.4444 L133.9643 19.2222 L135.0714 19.6667 L136.1786 17.4444 L137.2857 15.2222 L138.3929 13.8889 L139.5 14.7778 L140.6071 11.6667 L141.7143 10.3333 L142.8214 9.4444 L143.9286 11.6667 L145.0357 11.6667 L146.1429 13 L147.25 14.7778 L148.3571 14.3333 L149.4643 17.8889 L150.5714 19.2222 L151.6786 22.3333 L152.7857 24.1111 L153.8929 25.4444 L155 23.2222"/>
</g>
</g>
</svg>