<svg viewBox="0 0 155 58" preserveAspectRatio="none" class="svggraph" id="svgthumb_us" style="overflow:visible;width:155px;height:58px;" xmlns="http://www.w3.org/2000/svg" xlink="http://www.w3.org/1999/xlink" title="Chart for kendall">
<title>Last ranked
#314 in 2020 (f)
#880 in 2018 (m)</title>
<rect x="2" y="43" height="13" width="17" style="fill:rgb(200,200,200)"/>
<image x="2.5" y="43.5" href="/images/flags/24/us.png" preserveAspectRatio="xMinYMax meet" width="16" height="12"/>
<text x="153" y="55" class="svgtitle" text-anchor="end" style="fill:#000000;font-size:13px;">United States</text>
<line x1="0" y1="41" x2="155" y2="41" class="svggridline" style="stroke:rgb(200,200,200);stroke-width:1.3"/>
<g id="svgthumb_us-namepaths">
<g style="fill:none;stroke:#ff0000;stroke-width:1.3;" class="svgcurveline" id="svgthumb_us-kendall-f">
<path d=" M92.4464 39.8 L93 39.8 L94.1071 39.6 L94.6607 39.8 M100.1964 39.6 L100.75 38.8 L101.3036 39.6 M110.1607 39.4 L110.7143 38.8 L111.8214 38.8 L112.9286 38 L114.0357 38.2 L115.1429 35.8 L116.25 36.2 L117.3571 35.4 L118.4643 33.6 L119.5714 35 L120.6786 34.8 L121.7857 34.8 L122.8929 34.4 L124 33.6 L125.1071 28.2 L126.2143 24 L127.3214 24.8 L128.4286 25.6 L129.5357 24.6 L130.6429 24 L131.75 26.2 L132.8571 24.4 L133.9643 25.6 L135.0714 24.4 L136.1786 19.2 L137.2857 17.6 L138.3929 16.8 L139.5 18.8 L140.6071 20.6 L141.7143 18.8 L142.8214 17.2 L143.9286 17.2 L145.0357 14.2 L146.1429 14 L147.25 14.8 L148.3571 16 L149.4643 18.4 L150.5714 23.4 L151.6786 26.2 L152.7857 28 L153.8929 27.6 L155 29.4"/>
</g>
<g style="fill:none;stroke:#0000ff;stroke-width:1.3;" class="svgcurveline" id="svgthumb_us-kendall-m">
<path d=" M35.9821 40 L36.5357 39.4 L37.0893 40 M38.1964 40 L38.75 40 L39.8571 40 L40.9643 40 L42.0714 40.2 L43.1786 39.8 L44.2857 40 L45.3929 39.8 L46.5 40 L47.0536 40.2 M48.1607 40.2 L48.7143 39.8 L49.8214 39.8 L50.9286 39.8 L52.0357 39.6 L53.1429 39.8 L54.25 40 L55.3571 39.8 L56.4643 40 L57.5714 39.8 L58.6786 39.2 L59.7857 39.8 L60.8929 39.4 L62 39.4 L63.1071 39.6 L64.2143 39.2 L65.3214 39 L66.4286 39.2 L67.5357 39 L68.6429 39.4 L69.75 39.2 L70.8571 39.6 L71.9643 39.2 L73.0714 39.2 L74.1786 39.4 L75.2857 39.2 L76.3929 39.2 L77.5 39.2 L78.6071 39.4 L79.7143 39 L80.8214 38.8 L81.9286 38.8 L83.0357 38.8 L84.1429 38.2 L85.25 37.6 L86.3571 37.4 L87.4643 37.2 L88.5714 36.8 L89.6786 37.2 L90.7857 36.8 L91.8929 36.6 L93 35.6 L94.1071 36.4 L95.2143 36.4 L96.3214 36.6 L97.4286 36.4 L98.5357 36.6 L99.6429 36.4 L100.75 36.2 L101.8571 37 L102.9643 36.6 L104.0714 36.8 L105.1786 37.4 L106.2857 37.6 L107.3929 38 L108.5 37 L109.6071 37 L110.7143 37 L111.8214 37 L112.9286 37.2 L114.0357 37.2 L115.1429 36.4 L116.25 36.2 L117.3571 35.6 L118.4643 35.4 L119.5714 34.4 L120.6786 34.4 L121.7857 33 L122.8929 33 L124 33.6 L125.1071 31.6 L126.2143 31.6 L127.3214 33.8 L128.4286 34.2 L129.5357 34 L130.6429 34.2 L131.75 34.8 L132.8571 34 L133.9643 35.4 L135.0714 36 L136.1786 36.4 L137.2857 36.4 L138.3929 36.6 L139.5 37 L140.6071 36.6 L141.7143 37.4 L142.8214 37 L143.9286 36.8 L145.0357 37 L146.1429 37.4 L147.25 37.2 L148.3571 38 L149.4643 38 L150.5714 38.8 L151.6786 38.4 L152.7857 38.4 L153.3393 38.8"/>
</g>
</g>
</svg>