<svg viewBox="0 0 155 58" preserveAspectRatio="none" class="svggraph" id="svgthumb_us" style="overflow:visible;width:155px;height:58px;" xmlns="http://www.w3.org/2000/svg" xlink="http://www.w3.org/1999/xlink" title="Chart for kennedy">
<title>Last ranked
#72 in 2020 (f)
#993 in 2005 (m)</title>
<rect x="2" y="43" height="13" width="17" style="fill:rgb(200,200,200)"/>
<image x="2.5" y="43.5" href="/images/flags/24/us.png" preserveAspectRatio="xMinYMax meet" width="16" height="12"/>
<text x="153" y="55" class="svgtitle" text-anchor="end" style="fill:#000000;font-size:13px;">United States</text>
<line x1="0" y1="41" x2="155" y2="41" class="svggridline" style="stroke:rgb(200,200,200);stroke-width:1.3"/>
<g id="svgthumb_us-namepaths">
<g style="fill:none;stroke:#ff0000;stroke-width:1.3;" class="svgcurveline" id="svgthumb_us-kennedy-f">
<path d=" M125.6607 39.8 L126.2143 37.8 L127.3214 32.4667 L128.4286 31.1333 L129.5357 29.6667 L130.6429 29.5333 L131.75 28.0667 L132.8571 25 L133.9643 24.8667 L135.0714 24.0667 L136.1786 22.6 L137.2857 21.9333 L138.3929 22.4667 L139.5 22.4667 L140.6071 21.8 L141.7143 22.0667 L142.8214 22.2 L143.9286 21.6667 L145.0357 18.6 L146.1429 17.6667 L147.25 13.6667 L148.3571 10.3333 L149.4643 10.0667 L150.5714 11.1333 L151.6786 11.5333 L152.7857 12.7333 L153.8929 14.0667 L155 15.5333"/>
</g>
<g style="fill:none;stroke:#0000ff;stroke-width:1.3;" class="svgcurveline" id="svgthumb_us-kennedy-m">
<path d=" M88.0179 40.6 L88.5714 40.3333 L89.6786 39.9333 L90.7857 40.4667 L91.8929 39.9333 L93 39.5333 L94.1071 40.2 L95.2143 40.3333 L96.3214 40.4667 L97.4286 40.6 L97.9821 40.6 M125.6607 40.2 L126.2143 40.0667 L127.3214 39.9333 L128.4286 39.9333 L129.5357 39.8 L130.6429 40.0667 L131.75 39.9333 L132.8571 39.9333 L133.9643 39.8 L135.0714 39.8 L136.1786 39.9333 L137.2857 39.8 L138.3929 39.9333 L138.9464 39.9333"/>
</g>
</g>
</svg>