<svg viewBox="0 0 155 58" preserveAspectRatio="none" class="svggraph" id="svgthumb_us" style="overflow:visible;width:155px;height:58px;" xmlns="http://www.w3.org/2000/svg" xlink="http://www.w3.org/1999/xlink" title="Chart for kenzie">
<title>Last ranked
#369 in 2020</title>
<rect x="2" y="43" height="13" width="17" style="fill:rgb(200,200,200)"/>
<image x="2.5" y="43.5" href="/images/flags/24/us.png" preserveAspectRatio="xMinYMax meet" width="16" height="12"/>
<text x="153" y="55" class="svgtitle" text-anchor="end" style="fill:#000000;font-size:13px;">United States</text>
<line x1="0" y1="41" x2="155" y2="41" class="svggridline" style="stroke:rgb(200,200,200);stroke-width:1.3"/>
<g id="svgthumb_us-namepaths">
<g style="fill:none;stroke:#ff0000;stroke-width:1.3;" class="svgcurveline" id="svgthumb_us-kenzie-f">
<path d=" M125.6607 37 L126.2143 35.6667 L127.3214 36.5556 L128.4286 35.2222 L129.5357 35.2222 L130.6429 33.8889 L131.75 33.4444 L132.8571 33.4444 L133.9643 33.8889 L135.0714 32.1111 L136.1786 32.1111 L137.2857 31.6667 L138.3929 29.8889 L139.5 29.8889 L140.6071 27.2222 L141.7143 26.7778 L142.8214 25.4444 L143.9286 21.4444 L145.0357 17.4444 L146.1429 13.4444 L147.25 12.5556 L148.3571 10.7778 L149.4643 14.7778 L150.5714 18.3333 L151.6786 21 L152.7857 19.6667 L153.8929 21.8889 L155 19.6667"/>
</g>
</g>
</svg>