<svg viewBox="0 0 155 58" preserveAspectRatio="none" class="svggraph" id="svgthumb_us" style="overflow:visible;width:155px;height:58px;" xmlns="http://www.w3.org/2000/svg" xlink="http://www.w3.org/1999/xlink" title="Chart for kiara">
<title>Last ranked
#308 in 2020 (f)
#955 in 1989 (m)</title>
<rect x="2" y="43" height="13" width="17" style="fill:rgb(200,200,200)"/>
<image x="2.5" y="43.5" href="/images/flags/24/us.png" preserveAspectRatio="xMinYMax meet" width="16" height="12"/>
<text x="153" y="55" class="svgtitle" text-anchor="end" style="fill:#000000;font-size:13px;">United States</text>
<line x1="0" y1="41" x2="155" y2="41" class="svggridline" style="stroke:rgb(200,200,200);stroke-width:1.3"/>
<g id="svgthumb_us-namepaths">
<g style="fill:none;stroke:#ff0000;stroke-width:1.3;" class="svgcurveline" id="svgthumb_us-kiara-f">
<path d=" M119.0179 39.9333 L119.5714 39.4 L120.6786 23.4 L121.7857 30.0667 L122.8929 29.6667 L124 30.6 L125.1071 30.7333 L126.2143 31.1333 L127.3214 30.8667 L128.4286 31.4 L129.5357 32.2 L130.6429 29.1333 L131.75 13.4 L132.8571 23.9333 L133.9643 25.5333 L135.0714 26.7333 L136.1786 28.6 L137.2857 28.8667 L138.3929 26.8667 L139.5 28.8667 L140.6071 30.7333 L141.7143 31.9333 L142.8214 33.4 L143.9286 34.3333 L145.0357 34.2 L146.1429 34.7333 L147.25 33.8 L148.3571 34.7333 L149.4643 35.4 L150.5714 35.1333 L151.6786 34.7333 L152.7857 34.0667 L153.8929 33 L155 33.1333"/>
</g>
<g style="fill:none;stroke:#0000ff;stroke-width:1.3;" class="svgcurveline" id="svgthumb_us-kiara-m">
<path d=" M120.125 40.3333 L120.6786 40.3333 L121.2321 40.3333"/>
</g>
</g>
</svg>