<svg viewBox="0 0 155 58" preserveAspectRatio="none" class="svggraph" id="svgthumb_us" style="overflow:visible;width:155px;height:58px;" xmlns="http://www.w3.org/2000/svg" xlink="http://www.w3.org/1999/xlink" title="Chart for kimberly">
<title>Last ranked
#184 in 2020 (f)
#989 in 1980 (m)</title>
<rect x="2" y="43" height="13" width="17" style="fill:rgb(200,200,200)"/>
<image x="2.5" y="43.5" href="/images/flags/24/us.png" preserveAspectRatio="xMinYMax meet" width="16" height="12"/>
<text x="153" y="55" class="svgtitle" text-anchor="end" style="fill:#000000;font-size:13px;">United States</text>
<line x1="0" y1="41" x2="155" y2="41" class="svggridline" style="stroke:rgb(200,200,200);stroke-width:1.3"/>
<g id="svgthumb_us-namepaths">
<g style="fill:none;stroke:#ff0000;stroke-width:1.3;" class="svgcurveline" id="svgthumb_us-kimberly-f">
<path d=" M72.5179 40.92 L73.0714 40.84 L74.1786 40.72 L75.2857 40.64 L76.3929 40.58 L77.5 40.5 L78.6071 40.48 L79.7143 39.98 L80.8214 39.52 L81.9286 38.9 L83.0357 37.14 L84.1429 34.46 L85.25 32 L86.3571 30.62 L87.4643 28.7 L88.5714 24.8 L89.6786 24.28 L90.7857 20.9 L91.8929 19.64 L93 16.34 L94.1071 9.44 L95.2143 4.28 L96.3214 2.44 L97.4286 3.68 L98.5357 3.46 L99.6429 3.72 L100.75 5.96 L101.8571 8.4 L102.9643 10.72 L104.0714 12.36 L105.1786 15.04 L106.2857 16.86 L107.3929 18.76 L108.5 20.46 L109.6071 20.52 L110.7143 20.22 L111.8214 22.34 L112.9286 23.24 L114.0357 23.82 L115.1429 24.98 L116.25 24.84 L117.3571 25.38 L118.4643 27.1 L119.5714 28.58 L120.6786 29.92 L121.7857 31.08 L122.8929 31.36 L124 32.12 L125.1071 32.92 L126.2143 32.02 L127.3214 32.94 L128.4286 33.52 L129.5357 34.52 L130.6429 35.1 L131.75 35.4 L132.8571 35.74 L133.9643 36.08 L135.0714 36.14 L136.1786 36.18 L137.2857 36.2 L138.3929 36.32 L139.5 36.2 L140.6071 36.18 L141.7143 36.38 L142.8214 36.82 L143.9286 37.06 L145.0357 37.06 L146.1429 37.58 L147.25 37.78 L148.3571 38.04 L149.4643 38.08 L150.5714 38.58 L151.6786 39.06 L152.7857 39.16 L153.8929 39.32 L155 39.24"/>
</g>
<g style="fill:none;stroke:#0000ff;stroke-width:1.3;" class="svgcurveline" id="svgthumb_us-kimberly-m">
<path d=" M78.0536 40.94 L78.6071 40.9 L79.7143 40.9 L80.8214 40.88 L81.9286 40.86 L83.0357 40.82 L84.1429 40.84 L85.25 40.86 L86.3571 40.86 L87.4643 40.9 L88.5714 40.92 L89.6786 40.9 L90.7857 40.92 L91.8929 40.92 L93 40.9 L94.1071 40.88 L95.2143 40.88 L96.3214 40.86 L97.4286 40.88 L98.5357 40.88 L99.6429 40.88 L100.75 40.88 L101.8571 40.9 L102.9643 40.88 L104.0714 40.88 L105.1786 40.9 L105.7321 40.92 M106.8393 40.92 L107.3929 40.9 L107.9464 40.92 M110.1607 40.92 L110.7143 40.92 L111.2679 40.92"/>
</g>
</g>
</svg>