<svg viewBox="0 0 155 58" preserveAspectRatio="none" class="svggraph" id="svgthumb_us" style="overflow:visible;width:155px;height:58px;" xmlns="http://www.w3.org/2000/svg" xlink="http://www.w3.org/1999/xlink" title="Chart for kyla">
<title>Last ranked
#489 in 2020</title>
<rect x="2" y="43" height="13" width="17" style="fill:rgb(200,200,200)"/>
<image x="2.5" y="43.5" href="/images/flags/24/us.png" preserveAspectRatio="xMinYMax meet" width="16" height="12"/>
<text x="153" y="55" class="svgtitle" text-anchor="end" style="fill:#000000;font-size:13px;">United States</text>
<line x1="0" y1="41" x2="155" y2="41" class="svggridline" style="stroke:rgb(200,200,200);stroke-width:1.3"/>
<g id="svgthumb_us-namepaths">
<g style="fill:none;stroke:#ff0000;stroke-width:1.3;" class="svgcurveline" id="svgthumb_us-kyla-f">
<path d=" M103.5179 39.4 L104.0714 39.2 L104.625 39.4 M105.7321 39.4 L106.2857 38.8 L107.3929 38.8 L108.5 38.6 L109.6071 37.2 L110.7143 37.6 L111.8214 37 L112.9286 37 L114.0357 37 L115.1429 37 L116.25 37.4 L117.3571 37 L118.4643 35.8 L119.5714 35.4 L120.6786 35.2 L121.7857 35.2 L122.8929 34.6 L124 34 L125.1071 34.6 L126.2143 34.6 L127.3214 34.4 L128.4286 30.6 L129.5357 29.4 L130.6429 28.8 L131.75 28.2 L132.8571 27.4 L133.9643 28 L135.0714 23.8 L136.1786 20.8 L137.2857 20.8 L138.3929 23.6 L139.5 24.8 L140.6071 26.6 L141.7143 27.4 L142.8214 28.6 L143.9286 28 L145.0357 29.6 L146.1429 29.6 L147.25 30.4 L148.3571 31.6 L149.4643 31.6 L150.5714 31.8 L151.6786 32.4 L152.7857 33.2 L153.8929 33.6 L155 34"/>
</g>
</g>
</svg>