<svg viewBox="0 0 155 58" preserveAspectRatio="none" class="svggraph" id="svgthumb_us" style="overflow:visible;width:155px;height:58px;" xmlns="http://www.w3.org/2000/svg" xlink="http://www.w3.org/1999/xlink" title="Chart for kylie">
<title>Last ranked
#131 in 2020</title>
<rect x="2" y="43" height="13" width="17" style="fill:rgb(200,200,200)"/>
<image x="2.5" y="43.5" href="/images/flags/24/us.png" preserveAspectRatio="xMinYMax meet" width="16" height="12"/>
<text x="153" y="55" class="svgtitle" text-anchor="end" style="fill:#000000;font-size:13px;">United States</text>
<line x1="0" y1="41" x2="155" y2="41" class="svggridline" style="stroke:rgb(200,200,200);stroke-width:1.3"/>
<g id="svgthumb_us-namepaths">
<g style="fill:none;stroke:#ff0000;stroke-width:1.3;" class="svgcurveline" id="svgthumb_us-kylie-f">
<path d=" M107.9464 39.9333 L108.5 36.8667 L109.6071 37.2667 L110.7143 38.6 L111.8214 39.2667 L112.9286 39.2667 L114.0357 39 L115.1429 38.7333 L116.25 38.3333 L117.3571 37.8 L118.4643 37.5333 L119.5714 35.1333 L120.6786 28.0667 L121.7857 30.4667 L122.8929 31.2667 L124 30.6 L125.1071 31.2667 L126.2143 27 L127.3214 19.1333 L128.4286 21.5333 L129.5357 21.8 L130.6429 21.1333 L131.75 20.3333 L132.8571 19.5333 L133.9643 18.4667 L135.0714 8.3333 L136.1786 4.0667 L137.2857 4.3333 L138.3929 8.3333 L139.5 10.8667 L140.6071 11.6667 L141.7143 7.8 L142.8214 12.0667 L143.9286 9.6667 L145.0357 11 L146.1429 12.3333 L147.25 13.1333 L148.3571 13.9333 L149.4643 12.6 L150.5714 17.4 L151.6786 21.9333 L152.7857 23.5333 L153.8929 24.6 L155 25.6667"/>
</g>
</g>
</svg>