<svg viewBox="0 0 155 58" preserveAspectRatio="none" class="svggraph" id="svgthumb_us" style="overflow:visible;width:155px;height:58px;" xmlns="http://www.w3.org/2000/svg" xlink="http://www.w3.org/1999/xlink" title="Chart for lana">
<title>Last ranked
#390 in 2020</title>
<rect x="2" y="43" height="13" width="17" style="fill:rgb(200,200,200)"/>
<image x="2.5" y="43.5" href="/images/flags/24/us.png" preserveAspectRatio="xMinYMax meet" width="16" height="12"/>
<text x="153" y="55" class="svgtitle" text-anchor="end" style="fill:#000000;font-size:13px;">United States</text>
<line x1="0" y1="41" x2="155" y2="41" class="svggridline" style="stroke:rgb(200,200,200);stroke-width:1.3"/>
<g id="svgthumb_us-namepaths">
<g style="fill:none;stroke:#ff0000;stroke-width:1.3;" class="svgcurveline" id="svgthumb_us-lana-f">
<path d=" M4.9821 39.4 L5.5357 39.4 L6.0893 39.4 M8.3036 39 L8.8571 39 L9.4107 39.4 M12.7321 39 L13.2857 39 L14.3929 38.6 L14.9464 39.4 M64.7679 39.4 L65.3214 37.8 L66.4286 26.6 L67.5357 21 L68.6429 16.2 L69.75 13 L70.8571 14.6 L71.9643 13 L73.0714 8.6 L74.1786 11 L75.2857 7.4 L76.3929 11 L77.5 11 L78.6071 15 L79.7143 17.8 L80.8214 20.2 L81.9286 24.6 L83.0357 25.8 L84.1429 27.8 L85.25 28.6 L86.3571 27.8 L87.4643 27 L88.5714 26.2 L89.6786 25.4 L90.7857 25.4 L91.8929 24.6 L93 23 L94.1071 23.8 L95.2143 21 L96.3214 19.8 L97.4286 22.2 L98.5357 21.4 L99.6429 23.8 L100.75 25 L101.8571 26.2 L102.9643 29 L104.0714 29.4 L105.1786 29.4 L106.2857 31.4 L107.3929 29.4 L108.5 28.6 L109.6071 31.4 L110.7143 30.6 L111.8214 32.6 L112.9286 33.8 L114.0357 33.4 L115.1429 32.6 L116.25 33.8 L117.3571 34.6 L118.4643 34.2 L119.5714 34.2 L120.6786 35 L121.7857 36.2 L122.8929 36.6 L124 36.2 L125.1071 36.6 L126.2143 37 L127.3214 36.6 L127.875 37 M131.1964 37 L131.75 36.6 L132.3036 36.6 M133.4107 36.6 L133.9643 36.2 L135.0714 33.4 L136.1786 29.4 L137.2857 28.2 L138.3929 27 L139.5 26.2 L140.6071 25.8 L141.7143 27 L142.8214 27 L143.9286 28.2 L145.0357 28.6 L146.1429 26.6 L147.25 25.8 L148.3571 21.8 L149.4643 22.2 L150.5714 23.4 L151.6786 23 L152.7857 22.2 L153.8929 23 L155 23"/>
</g>
</g>
</svg>