<svg viewBox="0 0 155 58" preserveAspectRatio="none" class="svggraph" id="svgthumb_us" style="overflow:visible;width:155px;height:58px;" xmlns="http://www.w3.org/2000/svg" xlink="http://www.w3.org/1999/xlink" title="Chart for laura">
<title>Last ranked
#357 in 2020 (f)
#990 in 1971 (m)</title>
<rect x="2" y="43" height="13" width="17" style="fill:rgb(200,200,200)"/>
<image x="2.5" y="43.5" href="/images/flags/24/us.png" preserveAspectRatio="xMinYMax meet" width="16" height="12"/>
<text x="153" y="55" class="svgtitle" text-anchor="end" style="fill:#000000;font-size:13px;">United States</text>
<line x1="0" y1="41" x2="155" y2="41" class="svggridline" style="stroke:rgb(200,200,200);stroke-width:1.3"/>
<g id="svgthumb_us-namepaths">
<g style="fill:none;stroke:#ff0000;stroke-width:1.3;" class="svgcurveline" id="svgthumb_us-laura-f">
<path d="M0 6.4333 L1.1071 8.5667 L2.2143 7.8333 L3.3214 8.1667 L4.4286 10.8 L5.5357 9.9 L6.6429 11.2667 L7.75 11.7333 L8.8571 12.4333 L9.9643 13.4 L11.0714 14 L12.1786 15.4 L13.2857 15.1667 L14.3929 16.1 L15.5 16.5667 L16.6071 18.8333 L17.7143 18.9667 L18.8214 19.7333 L19.9286 19.5 L21.0357 21.1667 L22.1429 21.8667 L23.25 22.6333 L24.3571 22.4667 L25.4643 23 L26.5714 23.8 L27.6786 24.1667 L28.7857 25.4 L29.8929 25 L31 26.3667 L32.1071 27.2 L33.2143 26.4333 L34.3214 27.5 L35.4286 27.3 L36.5357 28.5 L37.6429 28.2 L38.75 28.8667 L39.8571 29.5 L40.9643 29.7 L42.0714 29.7333 L43.1786 30.6 L44.2857 29.8333 L45.3929 30.6 L46.5 30.5667 L47.6071 31.1333 L48.7143 31.1667 L49.8214 31.5333 L50.9286 31.8667 L52.0357 32 L53.1429 32.2333 L54.25 32.5333 L55.3571 32.7 L56.4643 32.9333 L57.5714 32.7333 L58.6786 32.9 L59.7857 33.5 L60.8929 33.7667 L62 34.0333 L63.1071 33.8667 L64.2143 33.8667 L65.3214 34.0333 L66.4286 34.3667 L67.5357 34.9333 L68.6429 35.2333 L69.75 35.4333 L70.8571 35.5333 L71.9643 32.1 L73.0714 31.7333 L74.1786 31.7333 L75.2857 31.6333 L76.3929 30.7667 L77.5 30.1667 L78.6071 29.3333 L79.7143 28.4 L80.8214 27.8333 L81.9286 26.4 L83.0357 26.0333 L84.1429 23.9 L85.25 21.6667 L86.3571 19.2 L87.4643 17.7 L88.5714 13.6667 L89.6786 12.2667 L90.7857 12.2333 L91.8929 9.9667 L93 8.7 L94.1071 11.4333 L95.2143 11.4667 L96.3214 10.3 L97.4286 4.4667 L98.5357 7.1 L99.6429 11 L100.75 14.6 L101.8571 16.6667 L102.9643 18.8333 L104.0714 20.3333 L105.1786 18.9667 L106.2857 17.1333 L107.3929 18.0667 L108.5 18.2 L109.6071 18 L110.7143 16.8333 L111.8214 16.2333 L112.9286 16.5333 L114.0357 16.4333 L115.1429 13.6 L116.25 12.1 L117.3571 15.4 L118.4643 17.8333 L119.5714 20 L120.6786 21.3667 L121.7857 23.3 L122.8929 25.2 L124 27.1667 L125.1071 28.7333 L126.2143 29.2667 L127.3214 30.5667 L128.4286 31.9 L129.5357 32.5333 L130.6429 33.6 L131.75 34.3667 L132.8571 34.7667 L133.9643 35 L135.0714 35.6667 L136.1786 36.4333 L137.2857 36.7667 L138.3929 37.1333 L139.5 37.7 L140.6071 38.1 L141.7143 38.4667 L142.8214 38.6667 L143.9286 38.9333 L145.0357 39 L146.1429 39.0333 L147.25 39.2333 L148.3571 39.2 L149.4643 39.2667 L150.5714 39.3333 L151.6786 39.3333 L152.7857 39.3 L153.8929 39.2667 L155 39.3667"/>
</g>
<g style="fill:none;stroke:#0000ff;stroke-width:1.3;" class="svgcurveline" id="svgthumb_us-laura-m">
<path d=" M7.1964 40.8667 L7.75 40.8333 L8.8571 40.7333 L9.4107 40.8667 M10.5179 40.8667 L11.0714 40.7333 L12.1786 40.8333 L12.7321 40.8333 M13.8393 40.8333 L14.3929 40.8 L14.9464 40.8333 M18.2679 40.8333 L18.8214 40.8 L19.9286 40.6333 L20.4821 40.8333 M27.125 40.8333 L27.6786 40.8 L28.2321 40.8 M91.3393 40.9 L91.8929 40.9 L92.4464 40.9 M96.875 40.9 L97.4286 40.9 L97.9821 40.9 M100.1964 40.9 L100.75 40.8667 L101.3036 40.8667"/>
</g>
</g>
</svg>