<svg viewBox="0 0 155 58" preserveAspectRatio="none" class="svggraph" id="svgthumb_us" style="overflow:visible;width:155px;height:58px;" xmlns="http://www.w3.org/2000/svg" xlink="http://www.w3.org/1999/xlink" title="Chart for lauren">
<title>Last ranked
#232 in 2020 (f)
#869 in 1989 (m)</title>
<rect x="2" y="43" height="13" width="17" style="fill:rgb(200,200,200)"/>
<image x="2.5" y="43.5" href="/images/flags/24/us.png" preserveAspectRatio="xMinYMax meet" width="16" height="12"/>
<text x="153" y="55" class="svgtitle" text-anchor="end" style="fill:#000000;font-size:13px;">United States</text>
<line x1="0" y1="41" x2="155" y2="41" class="svggridline" style="stroke:rgb(200,200,200);stroke-width:1.3"/>
<g id="svgthumb_us-namepaths">
<g style="fill:none;stroke:#ff0000;stroke-width:1.3;" class="svgcurveline" id="svgthumb_us-lauren-f">
<path d=" M71.4107 40.8545 L71.9643 39.9818 L73.0714 40.0545 L74.1786 40.1636 L75.2857 40.1273 L76.3929 40.0909 L77.5 40.1273 L78.6071 40.1636 L79.7143 40.0182 L80.8214 39.9091 L81.9286 39.6545 L83.0357 39.4364 L84.1429 39.3636 L85.25 38.7455 L86.3571 38.6364 L87.4643 38.6364 L88.5714 38.6727 L89.6786 38.7818 L90.7857 39 L91.8929 38.7091 L93 38.4545 L94.1071 38.4182 L95.2143 38.5273 L96.3214 38.4909 L97.4286 38.5636 L98.5357 38.3091 L99.6429 38.3818 L100.75 38.6727 L101.8571 38.7455 L102.9643 38.4182 L104.0714 37.7636 L105.1786 36.7091 L106.2857 35.8727 L107.3929 35.3636 L108.5 32.8909 L109.6071 29.1091 L110.7143 25.7273 L111.8214 23.0727 L112.9286 17.7636 L114.0357 14.7091 L115.1429 11.8 L116.25 9.9455 L117.3571 8.1273 L118.4643 8.6 L119.5714 3.8727 L120.6786 2.5636 L121.7857 4.7091 L122.8929 8.0909 L124 9.7636 L125.1071 11.1455 L126.2143 12.7091 L127.3214 15.5455 L128.4286 17.1091 L129.5357 15.7636 L130.6429 16.7818 L131.75 15 L132.8571 15.1818 L133.9643 17.5455 L135.0714 18.3091 L136.1786 20.9636 L137.2857 23 L138.3929 24.4182 L139.5 26.2 L140.6071 28.2364 L141.7143 29.7273 L142.8214 31.6545 L143.9286 32.7091 L145.0357 33.2909 L146.1429 34.1273 L147.25 34.6727 L148.3571 35.2545 L149.4643 35.9818 L150.5714 36.6364 L151.6786 37.1818 L152.7857 37.6545 L153.8929 37.9818 L155 38.3818"/>
</g>
<g style="fill:none;stroke:#0000ff;stroke-width:1.3;" class="svgcurveline" id="svgthumb_us-lauren-m">
<path d=" M21.5893 40.8182 L22.1429 40.7818 L22.6964 40.8182 M32.6607 40.7818 L33.2143 40.7818 L33.7679 40.8182 M35.9821 40.8182 L36.5357 40.8182 L37.6429 40.7818 L38.75 40.8182 L39.8571 40.8182 L40.9643 40.8182 L42.0714 40.7455 L43.1786 40.7455 L44.2857 40.7818 L45.3929 40.7818 L46.5 40.7818 L47.6071 40.8182 L48.7143 40.7818 L49.8214 40.7818 L50.9286 40.8182 L52.0357 40.7818 L53.1429 40.7818 L54.25 40.7455 L55.3571 40.8182 L56.4643 40.7455 L57.5714 40.8182 L58.6786 40.8182 L59.7857 40.7818 L60.8929 40.7818 L62 40.8182 L63.1071 40.7091 L64.2143 40.7455 L65.3214 40.7455 L66.4286 40.8182 L67.5357 40.7818 L68.6429 40.8545 L69.75 40.7818 L70.8571 40.8182 L71.9643 40.8182 L73.0714 40.8182 L74.1786 40.8182 L75.2857 40.8545 L76.3929 40.8545 L77.5 40.8545 L78.6071 40.8545 L79.7143 40.8182 L80.8214 40.8909 L81.9286 40.8545 L83.0357 40.8909 L84.1429 40.8909 L85.25 40.8909 L86.3571 40.8909 L86.9107 40.8909 M91.3393 40.8909 L91.8929 40.8909 L92.4464 40.8909 M113.4821 40.8545 L114.0357 40.8182 L115.1429 40.8182 L116.25 40.7818 L116.8036 40.8545 M117.9107 40.8545 L118.4643 40.7818 L119.5714 40.8182 L120.6786 40.7818 L121.2321 40.8182"/>
</g>
</g>
</svg>