<svg viewBox="0 0 155 58" preserveAspectRatio="none" class="svggraph" id="svgthumb_us" style="overflow:visible;width:155px;height:58px;" xmlns="http://www.w3.org/2000/svg" xlink="http://www.w3.org/1999/xlink" title="Chart for leah">
<title>Last ranked
#45 in 2020</title>
<rect x="2" y="43" height="13" width="17" style="fill:rgb(200,200,200)"/>
<image x="2.5" y="43.5" href="/images/flags/24/us.png" preserveAspectRatio="xMinYMax meet" width="16" height="12"/>
<text x="153" y="55" class="svgtitle" text-anchor="end" style="fill:#000000;font-size:13px;">United States</text>
<line x1="0" y1="41" x2="155" y2="41" class="svggridline" style="stroke:rgb(200,200,200);stroke-width:1.3"/>
<g id="svgthumb_us-namepaths">
<g style="fill:none;stroke:#ff0000;stroke-width:1.3;" class="svgcurveline" id="svgthumb_us-leah-f">
<path d="M0 35.5 L1.1071 35.7 L2.2143 36.2 L3.3214 35.6 L4.4286 35.3 L5.5357 35 L6.6429 35.6 L7.75 35.7 L8.8571 34.8 L9.9643 33.9 L11.0714 33 L12.1786 33.7 L13.2857 33.8 L14.3929 33.6 L15.5 33.3 L16.6071 32.8 L17.7143 34.3 L18.8214 35.1 L19.9286 34.3 L21.0357 35 L22.1429 35.8 L23.25 33.8 L24.3571 34.9 L25.4643 34.7 L26.5714 35.9 L27.6786 35.6 L28.7857 35.8 L29.8929 35.1 L31 35.5 L32.1071 36.2 L33.2143 36.1 L34.3214 36.4 L35.4286 35.9 L36.5357 35.4 L37.6429 35.3 L38.75 35.6 L39.8571 36.3 L40.9643 36.2 L42.0714 36.1 L43.1786 36.5 L44.2857 36.8 L45.3929 37 L46.5 37.1 L47.6071 37.1 L48.7143 37.1 L49.8214 37.5 L50.9286 37.5 L52.0357 38.2 L53.1429 37.6 L54.25 38.3 L55.3571 38.2 L56.4643 38.1 L57.5714 38.3 L58.6786 37.8 L59.7857 37.4 L60.8929 37.7 L62 37.8 L63.1071 37.3 L64.2143 37.7 L65.3214 37.7 L66.4286 37.9 L67.5357 38.2 L68.6429 38.6 L69.75 38.9 L70.8571 38.8 L71.9643 38.9 L73.0714 39 L74.1786 38.9 L75.2857 38.8 L76.3929 38.4 L77.5 38.5 L78.6071 38.4 L79.7143 38.4 L80.8214 38 L81.9286 38.2 L83.0357 38 L84.1429 37.8 L85.25 37.5 L86.3571 37.8 L87.4643 37.4 L88.5714 37.3 L89.6786 37.1 L90.7857 36.2 L91.8929 34.5 L93 33.7 L94.1071 33.4 L95.2143 33.2 L96.3214 31.7 L97.4286 31.5 L98.5357 32.5 L99.6429 31.9 L100.75 31.4 L101.8571 31.1 L102.9643 30.8 L104.0714 29.2 L105.1786 27.4 L106.2857 26.6 L107.3929 25.3 L108.5 24.5 L109.6071 23.1 L110.7143 20.6 L111.8214 19.7 L112.9286 20.3 L114.0357 21.5 L115.1429 21.4 L116.25 21.6 L117.3571 22.3 L118.4643 22.6 L119.5714 22.5 L120.6786 22 L121.7857 21.9 L122.8929 22.2 L124 23.9 L125.1071 23.7 L126.2143 24.6 L127.3214 24 L128.4286 23.7 L129.5357 24.2 L130.6429 24.4 L131.75 24.1 L132.8571 24 L133.9643 23.2 L135.0714 22.8 L136.1786 21.4 L137.2857 17.5 L138.3929 18.3 L139.5 18.7 L140.6071 19.5 L141.7143 14 L142.8214 7.5 L143.9286 7.6 L145.0357 8 L146.1429 11.2 L147.25 11.9 L148.3571 12.3 L149.4643 12.1 L150.5714 12.9 L151.6786 13.5 L152.7857 13.9 L153.8929 14.9 L155 15.4"/>
</g>
</g>
</svg>