<svg viewBox="0 0 155 58" preserveAspectRatio="none" class="svggraph" id="svgthumb_us" style="overflow:visible;width:155px;height:58px;" xmlns="http://www.w3.org/2000/svg" xlink="http://www.w3.org/1999/xlink" title="Chart for leighton">
<title>Last ranked
#400 in 2020 (f)
#740 in 2020 (m)</title>
<rect x="2" y="43" height="13" width="17" style="fill:rgb(200,200,200)"/>
<image x="2.5" y="43.5" href="/images/flags/24/us.png" preserveAspectRatio="xMinYMax meet" width="16" height="12"/>
<text x="153" y="55" class="svgtitle" text-anchor="end" style="fill:#000000;font-size:13px;">United States</text>
<line x1="0" y1="41" x2="155" y2="41" class="svggridline" style="stroke:rgb(200,200,200);stroke-width:1.3"/>
<g id="svgthumb_us-namepaths">
<g style="fill:none;stroke:#ff0000;stroke-width:1.3;" class="svgcurveline" id="svgthumb_us-leighton-f">
<path d=" M142.2679 33.5714 L142.8214 29 L143.9286 27.8571 L145.0357 25 L146.1429 25.5714 L147.25 25 L148.3571 24.4286 L149.4643 21 L150.5714 18.7143 L151.6786 21 L152.7857 19.2857 L153.8929 17.5714 L155 15.8571"/>
</g>
<g style="fill:none;stroke:#0000ff;stroke-width:1.3;" class="svgcurveline" id="svgthumb_us-leighton-m">
<path d=" M20.4821 38.1429 L21.0357 38.1429 L21.5893 38.1429 M30.4464 38.1429 L31 37 L31.5536 37.5714 M47.0536 38.7143 L47.6071 38.1429 L48.1607 38.7143 M55.9107 38.7143 L56.4643 38.7143 L57.0179 38.7143 M68.0893 39.2857 L68.6429 39.2857 L69.1964 39.2857 M70.3036 39.2857 L70.8571 39.2857 L71.9643 39.2857 L73.0714 39.2857 L73.625 39.2857 M143.375 35.8571 L143.9286 34.7143 L145.0357 34.7143 L145.5893 35.2857 M147.8036 35.2857 L148.3571 34.1429 L149.4643 33.5714 L150.5714 33.5714 L151.6786 34.1429 L152.7857 33 L153.8929 30.1429 L155 30.7143"/>
</g>
</g>
</svg>