<svg viewBox="0 0 155 58" preserveAspectRatio="none" class="svggraph" id="svgthumb_us" style="overflow:visible;width:155px;height:58px;" xmlns="http://www.w3.org/2000/svg" xlink="http://www.w3.org/1999/xlink" title="Chart for leilani">
<title>Last ranked
#92 in 2020</title>
<rect x="2" y="43" height="13" width="17" style="fill:rgb(200,200,200)"/>
<image x="2.5" y="43.5" href="/images/flags/24/us.png" preserveAspectRatio="xMinYMax meet" width="16" height="12"/>
<text x="153" y="55" class="svgtitle" text-anchor="end" style="fill:#000000;font-size:13px;">United States</text>
<line x1="0" y1="41" x2="155" y2="41" class="svggridline" style="stroke:rgb(200,200,200);stroke-width:1.3"/>
<g id="svgthumb_us-namepaths">
<g style="fill:none;stroke:#ff0000;stroke-width:1.3;" class="svgcurveline" id="svgthumb_us-leilani-f">
<path d=" M62.5536 40.2 L63.1071 39.6 L64.2143 39.2 L65.3214 39.2 L66.4286 39.6 L67.5357 39.6 L68.6429 39.6 L69.75 39.6 L70.8571 39.8 L71.9643 40 L73.0714 40 L73.625 40.2 M90.2321 39.8 L90.7857 39.8 L91.3393 39.8 M95.7679 39.8 L96.3214 39.8 L97.4286 39.6 L98.5357 39.6 L99.0893 39.6 M102.4107 39.6 L102.9643 39.4 L104.0714 39.4 L104.625 39.4 M105.7321 39.4 L106.2857 39.2 L107.3929 39.2 L108.5 38.8 L109.6071 39.2 L110.7143 38.4 L111.8214 38.8 L112.9286 39 L114.0357 39.2 L114.5893 39.4 M115.6964 39.4 L116.25 39.4 L117.3571 39.2 L117.9107 39.4 M124.5536 39.2 L125.1071 39.2 L126.2143 39 L126.7679 39 M127.875 39 L128.4286 38.8 L129.5357 38.2 L130.6429 38 L131.75 37.2 L132.8571 36 L133.9643 35 L135.0714 34.4 L136.1786 32.2 L137.2857 31.8 L138.3929 31.6 L139.5 30.8 L140.6071 29.8 L141.7143 29.2 L142.8214 28.8 L143.9286 28.4 L145.0357 27.6 L146.1429 26.4 L147.25 26.6 L148.3571 25.2 L149.4643 22.4 L150.5714 20.6 L151.6786 16.8 L152.7857 13.8 L153.8929 11.6 L155 8.4"/>
</g>
</g>
</svg>