<svg viewBox="0 0 155 58" preserveAspectRatio="none" class="svggraph" id="svgthumb_us" style="overflow:visible;width:155px;height:58px;" xmlns="http://www.w3.org/2000/svg" xlink="http://www.w3.org/1999/xlink" title="Chart for leila">
<title>Last ranked
#205 in 2020</title>
<rect x="2" y="43" height="13" width="17" style="fill:rgb(200,200,200)"/>
<image x="2.5" y="43.5" href="/images/flags/24/us.png" preserveAspectRatio="xMinYMax meet" width="16" height="12"/>
<text x="153" y="55" class="svgtitle" text-anchor="end" style="fill:#000000;font-size:13px;">United States</text>
<line x1="0" y1="41" x2="155" y2="41" class="svggridline" style="stroke:rgb(200,200,200);stroke-width:1.3"/>
<g id="svgthumb_us-namepaths">
<g style="fill:none;stroke:#ff0000;stroke-width:1.3;" class="svgcurveline" id="svgthumb_us-leila-f">
<path d="M0 24.6 L1.1071 25.4 L2.2143 26.6 L3.3214 26 L4.4286 26 L5.5357 23.6 L6.6429 26 L7.75 26.6 L8.8571 23 L9.9643 27.6 L11.0714 25.8 L12.1786 22.8 L13.2857 25.2 L14.3929 25.6 L15.5 28.2 L16.6071 29.2 L17.7143 29.2 L18.8214 28.4 L19.9286 29.2 L21.0357 29.8 L22.1429 29.8 L23.25 29.6 L24.3571 31 L25.4643 31 L26.5714 30.8 L27.6786 31 L28.7857 30.8 L29.8929 30.8 L31 32.6 L32.1071 33.2 L33.2143 33.2 L34.3214 34.6 L35.4286 34.4 L36.5357 33.8 L37.6429 34.4 L38.75 34 L39.8571 34.2 L40.9643 34.8 L42.0714 34.8 L43.1786 34.4 L44.2857 34.4 L45.3929 35.6 L46.5 35.2 L47.6071 35.6 L48.7143 35.4 L49.8214 35.6 L50.9286 36 L52.0357 36 L53.1429 36.4 L54.25 36 L55.3571 35.6 L56.4643 35.8 L57.5714 35.4 L58.6786 35.4 L59.7857 36.6 L60.8929 36.6 L62 37.6 L63.1071 36.6 L64.2143 37.6 L65.3214 37.8 L66.4286 38 L67.5357 37.6 L68.6429 38 L69.75 38.2 L70.8571 38.2 L71.9643 38.4 L73.0714 39 L74.1786 39 L75.2857 39.2 L76.3929 39 L77.5 39 L78.6071 39.4 L79.7143 39.4 L80.8214 39.2 L81.9286 39 L83.0357 39.2 L84.1429 39.2 L85.25 39.4 L86.3571 39.4 L87.4643 39.2 L88.5714 39.4 L89.6786 39.2 L90.7857 39.2 L91.8929 39.2 L93 39.4 L94.1071 39.6 L95.2143 39 L96.3214 39.4 L96.875 39.8 M97.9821 39.8 L98.5357 39.4 L99.6429 39.6 L100.75 39.2 L101.8571 39.2 L102.9643 39.2 L104.0714 39 L105.1786 39 L106.2857 39 L107.3929 38.6 L108.5 38.8 L109.6071 38.8 L110.7143 39 L111.8214 38.6 L112.9286 38.6 L114.0357 38.6 L115.1429 38.8 L116.25 38.6 L117.3571 38.8 L118.4643 38.8 L119.5714 38.8 L120.6786 39 L121.7857 39.2 L122.8929 39 L124 39 L125.1071 39 L126.2143 39 L127.3214 38.8 L127.875 39 M128.9821 39 L129.5357 38.8 L130.6429 38 L131.75 37.8 L132.8571 36.8 L133.9643 35.2 L135.0714 34.6 L136.1786 32 L137.2857 32.2 L138.3929 30.8 L139.5 29.8 L140.6071 27.8 L141.7143 26.6 L142.8214 27.2 L143.9286 25.6 L145.0357 26.8 L146.1429 27 L147.25 25.8 L148.3571 27.4 L149.4643 27.6 L150.5714 26.6 L151.6786 26 L152.7857 26.4 L153.8929 25.8 L155 25"/>
</g>
</g>
</svg>