<svg viewBox="0 0 155 58" preserveAspectRatio="none" class="svggraph" id="svgthumb_us" style="overflow:visible;width:155px;height:58px;" xmlns="http://www.w3.org/2000/svg" xlink="http://www.w3.org/1999/xlink" title="Chart for lena">
<title>Last ranked
#270 in 2020 (f)
#910 in 1903 (m)</title>
<rect x="2" y="43" height="13" width="17" style="fill:rgb(200,200,200)"/>
<image x="2.5" y="43.5" href="/images/flags/24/us.png" preserveAspectRatio="xMinYMax meet" width="16" height="12"/>
<text x="153" y="55" class="svgtitle" text-anchor="end" style="fill:#000000;font-size:13px;">United States</text>
<line x1="0" y1="41" x2="155" y2="41" class="svggridline" style="stroke:rgb(200,200,200);stroke-width:1.3"/>
<g id="svgthumb_us-namepaths">
<g style="fill:none;stroke:#ff0000;stroke-width:1.3;" class="svgcurveline" id="svgthumb_us-lena-f">
<path d="M0 5.6857 L1.1071 8.9429 L2.2143 6.6 L3.3214 2.9429 L4.4286 3.3429 L5.5357 5.7429 L6.6429 4.1429 L7.75 4.0857 L8.8571 5.9714 L9.9643 7.9143 L11.0714 8.7714 L12.1786 6.8857 L13.2857 9.6286 L14.3929 9 L15.5 8.0857 L16.6071 11.1714 L17.7143 11.1143 L18.8214 12.4857 L19.9286 13.5143 L21.0357 14.2571 L22.1429 13.9143 L23.25 13.6857 L24.3571 16.0286 L25.4643 16.3714 L26.5714 17 L27.6786 17.8 L28.7857 19 L29.8929 20.0286 L31 19.5714 L32.1071 20.8857 L33.2143 21.5143 L34.3214 22.2571 L35.4286 22.4857 L36.5357 23.8 L37.6429 24.7714 L38.75 24.6571 L39.8571 25.9143 L40.9643 25.7429 L42.0714 27.0571 L43.1786 27.0571 L44.2857 28.2 L45.3929 28.8857 L46.5 29 L47.6071 29.5143 L48.7143 30.3714 L49.8214 30.8857 L50.9286 31.0571 L52.0357 31.8 L53.1429 32.3714 L54.25 33 L55.3571 33.6857 L56.4643 34.2571 L57.5714 34.5429 L58.6786 35.0571 L59.7857 35.2857 L60.8929 35.9143 L62 36.2571 L63.1071 36.6 L64.2143 36.7143 L65.3214 37.1714 L66.4286 37.1714 L67.5357 37.3429 L68.6429 37.8 L69.75 37.9143 L70.8571 37.9714 L71.9643 37.9143 L73.0714 38.5429 L74.1786 38.7714 L75.2857 38.6 L76.3929 38.9429 L77.5 38.9429 L78.6071 39.0571 L79.7143 39.1714 L80.8214 39.1714 L81.9286 39.2857 L83.0357 39.4 L84.1429 39.5143 L85.25 39.5143 L86.3571 39.5714 L87.4643 39.5714 L88.5714 39.5714 L89.6786 39.4571 L90.7857 39.5143 L91.8929 39.5143 L93 39.3429 L94.1071 39.4 L95.2143 39.2286 L96.3214 39.4 L97.4286 39.4571 L98.5357 39.4571 L99.6429 39.4 L100.75 39.4 L101.8571 39.2857 L102.9643 39.3429 L104.0714 39.2286 L105.1786 39.2857 L106.2857 39.3429 L107.3929 39.4 L108.5 39.5143 L109.6071 39.5143 L110.7143 39.4 L111.8214 39.4571 L112.9286 39.4 L114.0357 39.5714 L115.1429 39.5143 L116.25 39.4 L117.3571 39.6857 L118.4643 39.7429 L119.5714 39.8 L120.6786 39.8 L121.7857 39.7429 L122.8929 39.7429 L124 39.6286 L125.1071 39.8 L126.2143 39.6857 L127.3214 39.8 L128.4286 39.7429 L129.5357 39.6857 L130.6429 39.5714 L131.75 39.6286 L132.8571 39.6286 L133.9643 39.6286 L135.0714 39.5143 L136.1786 39.4 L137.2857 39.4571 L138.3929 39.1714 L139.5 39.2286 L140.6071 39.0571 L141.7143 39 L142.8214 38.8286 L143.9286 38.5429 L145.0357 38.3714 L146.1429 38.3714 L147.25 38.0857 L148.3571 37.5714 L149.4643 37.5714 L150.5714 37.6286 L151.6786 37.7429 L152.7857 37.6286 L153.8929 37.1143 L155 37.2857"/>
</g>
<g style="fill:none;stroke:#0000ff;stroke-width:1.3;" class="svgcurveline" id="svgthumb_us-lena-m">
<path d=" M8.3036 40.7143 L8.8571 40.6571 L9.4107 40.7714 M11.625 40.7714 L12.1786 40.7143 L12.7321 40.7143 M17.1607 40.7143 L17.7143 40.6571 L18.2679 40.7143 M24.9107 40.7143 L25.4643 40.7143 L26.0179 40.7143"/>
</g>
</g>
</svg>