<svg viewBox="0 0 155 58" preserveAspectRatio="none" class="svggraph" id="svgthumb_us" style="overflow:visible;width:155px;height:58px;" xmlns="http://www.w3.org/2000/svg" xlink="http://www.w3.org/1999/xlink" title="Chart for lennon">
<title>Last ranked
#299 in 2020 (f)
#686 in 2020 (m)</title>
<rect x="2" y="43" height="13" width="17" style="fill:rgb(200,200,200)"/>
<image x="2.5" y="43.5" href="/images/flags/24/us.png" preserveAspectRatio="xMinYMax meet" width="16" height="12"/>
<text x="153" y="55" class="svgtitle" text-anchor="end" style="fill:#000000;font-size:13px;">United States</text>
<line x1="0" y1="41" x2="155" y2="41" class="svggridline" style="stroke:rgb(200,200,200);stroke-width:1.3"/>
<g id="svgthumb_us-namepaths">
<g style="fill:none;stroke:#ff0000;stroke-width:1.3;" class="svgcurveline" id="svgthumb_us-lennon-f">
<path d=" M146.6964 35.2222 L147.25 34.7778 L148.3571 31.6667 L149.4643 27.2222 L150.5714 25.8889 L151.6786 24.1111 L152.7857 23.6667 L153.8929 21.4444 L155 13.8889"/>
</g>
<g style="fill:none;stroke:#0000ff;stroke-width:1.3;" class="svgcurveline" id="svgthumb_us-lennon-m">
<path d=" M141.1607 37 L141.7143 37 L142.8214 36.5556 L143.9286 36.1111 L145.0357 34.3333 L146.1429 35.2222 L147.25 34.3333 L148.3571 33 L149.4643 31.2222 L150.5714 31.2222 L151.6786 32.5556 L152.7857 32.5556 L153.8929 33 L155 32.1111"/>
</g>
</g>
</svg>