<svg viewBox="0 0 155 58" preserveAspectRatio="none" class="svggraph" id="svgthumb_us" style="overflow:visible;width:155px;height:58px;" xmlns="http://www.w3.org/2000/svg" xlink="http://www.w3.org/1999/xlink" title="Chart for leona">
<title>Last ranked
#482 in 2020 (f)
#859 in 1910 (m)</title>
<rect x="2" y="43" height="13" width="17" style="fill:rgb(200,200,200)"/>
<image x="2.5" y="43.5" href="/images/flags/24/us.png" preserveAspectRatio="xMinYMax meet" width="16" height="12"/>
<text x="153" y="55" class="svgtitle" text-anchor="end" style="fill:#000000;font-size:13px;">United States</text>
<line x1="0" y1="41" x2="155" y2="41" class="svggridline" style="stroke:rgb(200,200,200);stroke-width:1.3"/>
<g id="svgthumb_us-namepaths">
<g style="fill:none;stroke:#ff0000;stroke-width:1.3;" class="svgcurveline" id="svgthumb_us-leona-f">
<path d="M0 27 L1.1071 27 L2.2143 26.9 L3.3214 26.2 L4.4286 25.7 L5.5357 24.7 L6.6429 26.2 L7.75 27.6 L8.8571 24.6 L9.9643 22.6 L11.0714 24.5 L12.1786 23.1 L13.2857 21.4 L14.3929 20.4 L15.5 21 L16.6071 20 L17.7143 18.9 L18.8214 16.1 L19.9286 16.7 L21.0357 14.1 L22.1429 15 L23.25 10.4 L24.3571 9.8 L25.4643 9.3 L26.5714 6.9 L27.6786 6 L28.7857 8.6 L29.8929 8.2 L31 9.5 L32.1071 9.3 L33.2143 11.9 L34.3214 10.9 L35.4286 12.9 L36.5357 11.8 L37.6429 13.7 L38.75 12 L39.8571 12.6 L40.9643 13.3 L42.0714 13.3 L43.1786 15.2 L44.2857 15.6 L45.3929 15.9 L46.5 18.4 L47.6071 19.1 L48.7143 19.4 L49.8214 21.1 L50.9286 21.3 L52.0357 22.9 L53.1429 23.6 L54.25 23.5 L55.3571 25 L56.4643 25.2 L57.5714 25.9 L58.6786 27 L59.7857 27.4 L60.8929 29 L62 29.5 L63.1071 30.4 L64.2143 30.8 L65.3214 31.5 L66.4286 32.3 L67.5357 33 L68.6429 33.4 L69.75 33.6 L70.8571 34.5 L71.9643 34.7 L73.0714 35.9 L74.1786 36.5 L75.2857 36.6 L76.3929 36.8 L77.5 37.1 L78.6071 37.4 L79.7143 37.8 L80.8214 38 L81.9286 38.1 L83.0357 38.5 L84.1429 38.5 L85.25 38.6 L86.3571 38.4 L87.4643 38.7 L88.5714 38.8 L89.6786 38.9 L90.7857 38.9 L91.8929 38.7 L93 38.9 L94.1071 39.1 L95.2143 39.2 L96.3214 39.2 L97.4286 39.4 L98.5357 39.4 L99.6429 39.4 L100.75 39.8 L101.8571 39.6 L102.9643 39.6 L104.0714 39.8 L105.1786 39.8 L106.2857 40 L107.3929 40 L108.5 39.9 L109.6071 39.9 L110.7143 40.1 L111.8214 40.2 L112.375 40.2 M142.2679 39.7 L142.8214 39.6 L143.9286 39.7 L145.0357 39.5 L146.1429 39.5 L147.25 39.1 L148.3571 39.1 L149.4643 38.9 L150.5714 38.4 L151.6786 38 L152.7857 37.7 L153.8929 37.6 L155 37.4"/>
</g>
<g style="fill:none;stroke:#0000ff;stroke-width:1.3;" class="svgcurveline" id="svgthumb_us-leona-m">
<path d=" M22.6964 40.5 L23.25 40.4 L23.8036 40.5 M32.6607 40.4 L33.2143 40.4 L33.7679 40.5"/>
</g>
</g>
</svg>