<svg viewBox="0 0 155 58" preserveAspectRatio="none" class="svggraph" id="svgthumb_us" style="overflow:visible;width:155px;height:58px;" xmlns="http://www.w3.org/2000/svg" xlink="http://www.w3.org/1999/xlink" title="Chart for lexi">
<title>Last ranked
#366 in 2020</title>
<rect x="2" y="43" height="13" width="17" style="fill:rgb(200,200,200)"/>
<image x="2.5" y="43.5" href="/images/flags/24/us.png" preserveAspectRatio="xMinYMax meet" width="16" height="12"/>
<text x="153" y="55" class="svgtitle" text-anchor="end" style="fill:#000000;font-size:13px;">United States</text>
<line x1="0" y1="41" x2="155" y2="41" class="svggridline" style="stroke:rgb(200,200,200);stroke-width:1.3"/>
<g id="svgthumb_us-namepaths">
<g style="fill:none;stroke:#ff0000;stroke-width:1.3;" class="svgcurveline" id="svgthumb_us-lexi-f">
<path d=" M124.5536 37 L125.1071 36.5556 L126.2143 35.6667 L127.3214 34.3333 L128.4286 31.6667 L129.5357 32.5556 L130.6429 25.8889 L131.75 25 L132.8571 26.7778 L133.9643 26.7778 L135.0714 24.5556 L136.1786 23.6667 L137.2857 19.2222 L138.3929 21.8889 L139.5 20.5556 L140.6071 19.6667 L141.7143 17 L142.8214 13.4444 L143.9286 11.2222 L145.0357 11.6667 L146.1429 11.2222 L147.25 11.2222 L148.3571 10.7778 L149.4643 17 L150.5714 17.4444 L151.6786 18.7778 L152.7857 18.7778 L153.8929 17.8889 L155 19.6667"/>
</g>
</g>
</svg>