<svg viewBox="0 0 155 58" preserveAspectRatio="none" class="svggraph" id="svgthumb_us" style="overflow:visible;width:155px;height:58px;" xmlns="http://www.w3.org/2000/svg" xlink="http://www.w3.org/1999/xlink" title="Chart for liana">
<title>Last ranked
#461 in 2020</title>
<rect x="2" y="43" height="13" width="17" style="fill:rgb(200,200,200)"/>
<image x="2.5" y="43.5" href="/images/flags/24/us.png" preserveAspectRatio="xMinYMax meet" width="16" height="12"/>
<text x="153" y="55" class="svgtitle" text-anchor="end" style="fill:#000000;font-size:13px;">United States</text>
<line x1="0" y1="41" x2="155" y2="41" class="svggridline" style="stroke:rgb(200,200,200);stroke-width:1.3"/>
<g id="svgthumb_us-namepaths">
<g style="fill:none;stroke:#ff0000;stroke-width:1.3;" class="svgcurveline" id="svgthumb_us-liana-f">
<path d=" M106.8393 36.4286 L107.3929 34.7143 L108.5 35.8571 L109.6071 35.8571 L110.7143 36.4286 L111.2679 36.4286 M113.4821 36.4286 L114.0357 35.2857 L115.1429 35.8571 L115.6964 36.4286 M116.8036 36.4286 L117.3571 35.2857 L118.4643 35.2857 L119.5714 34.7143 L120.6786 33.5714 L121.7857 34.1429 L122.8929 34.1429 L124 33 L125.1071 34.1429 L126.2143 33.5714 L127.3214 33.5714 L128.4286 34.7143 L129.5357 33.5714 L130.6429 33 L131.75 33.5714 L132.8571 33 L133.9643 33.5714 L135.0714 31.8571 L136.1786 31.2857 L137.2857 30.7143 L138.3929 30.1429 L139.5 30.1429 L140.6071 29.5714 L141.7143 26.7143 L142.8214 26.1429 L143.9286 25 L145.0357 22.1429 L146.1429 25 L147.25 25.5714 L148.3571 25.5714 L149.4643 23.2857 L150.5714 21 L151.6786 22.1429 L152.7857 21 L153.8929 19.8571 L155 19.2857"/>
</g>
</g>
</svg>