<svg viewBox="0 0 155 58" preserveAspectRatio="none" class="svggraph" id="svgthumb_us" style="overflow:visible;width:155px;height:58px;" xmlns="http://www.w3.org/2000/svg" xlink="http://www.w3.org/1999/xlink" title="Chart for lilah">
<title>Last ranked
#239 in 2020</title>
<rect x="2" y="43" height="13" width="17" style="fill:rgb(200,200,200)"/>
<image x="2.5" y="43.5" href="/images/flags/24/us.png" preserveAspectRatio="xMinYMax meet" width="16" height="12"/>
<text x="153" y="55" class="svgtitle" text-anchor="end" style="fill:#000000;font-size:13px;">United States</text>
<line x1="0" y1="41" x2="155" y2="41" class="svggridline" style="stroke:rgb(200,200,200);stroke-width:1.3"/>
<g id="svgthumb_us-namepaths">
<g style="fill:none;stroke:#ff0000;stroke-width:1.3;" class="svgcurveline" id="svgthumb_us-lilah-f">
<path d=" M3.875 39.2222 L4.4286 38.7778 L4.9821 39.2222 M6.0893 39.2222 L6.6429 38.7778 L7.1964 38.7778 M11.625 39.2222 L12.1786 38.3333 L13.2857 38.7778 L14.3929 38.7778 L15.5 37.8889 L16.6071 37.8889 L17.1607 39.2222 M18.2679 39.2222 L18.8214 38.7778 L19.9286 38.7778 L21.0357 37.8889 L21.5893 38.7778 M22.6964 38.7778 L23.25 37.4444 L23.8036 38.7778 M24.9107 38.7778 L25.4643 38.7778 L26.0179 38.7778 M35.9821 38.7778 L36.5357 38.7778 L37.0893 38.7778 M138.9464 35.6667 L139.5 34.3333 L140.6071 29.8889 L141.7143 24.5556 L142.8214 21.4444 L143.9286 19.2222 L145.0357 17 L146.1429 17.4444 L147.25 17 L148.3571 17 L149.4643 17.4444 L150.5714 16.1111 L151.6786 13.4444 L152.7857 13.4444 L153.8929 13 L155 9.4444"/>
</g>
</g>
</svg>