<svg viewBox="0 0 155 58" preserveAspectRatio="none" class="svggraph" id="svgthumb_us" style="overflow:visible;width:155px;height:58px;" xmlns="http://www.w3.org/2000/svg" xlink="http://www.w3.org/1999/xlink" title="Chart for liliana">
<title>Last ranked
#110 in 2020</title>
<rect x="2" y="43" height="13" width="17" style="fill:rgb(200,200,200)"/>
<image x="2.5" y="43.5" href="/images/flags/24/us.png" preserveAspectRatio="xMinYMax meet" width="16" height="12"/>
<text x="153" y="55" class="svgtitle" text-anchor="end" style="fill:#000000;font-size:13px;">United States</text>
<line x1="0" y1="41" x2="155" y2="41" class="svggridline" style="stroke:rgb(200,200,200);stroke-width:1.3"/>
<g id="svgthumb_us-namepaths">
<g style="fill:none;stroke:#ff0000;stroke-width:1.3;" class="svgcurveline" id="svgthumb_us-liliana-f">
<path d=" M101.3036 39.6 L101.8571 39.4 L102.9643 39 L104.0714 38.8 L105.1786 38.8 L106.2857 38.4 L107.3929 39 L108.5 39 L109.6071 38.4 L110.7143 37.8 L111.8214 35.8 L112.9286 36.8 L114.0357 37 L115.1429 37.2 L116.25 36.8 L117.3571 36.6 L118.4643 36.8 L119.5714 36.4 L120.6786 35.8 L121.7857 34 L122.8929 33.6 L124 33.4 L125.1071 33 L126.2143 32.8 L127.3214 32.6 L128.4286 32.6 L129.5357 32.4 L130.6429 32.2 L131.75 30.6 L132.8571 30.4 L133.9643 29.4 L135.0714 28.8 L136.1786 27.6 L137.2857 26 L138.3929 23.4 L139.5 19.2 L140.6071 19 L141.7143 19 L142.8214 14.8 L143.9286 15.4 L145.0357 13.6 L146.1429 14 L147.25 13.8 L148.3571 14 L149.4643 14.8 L150.5714 13.6 L151.6786 11.8 L152.7857 11 L153.8929 12.6 L155 13"/>
</g>
</g>
</svg>