<svg viewBox="0 0 155 58" preserveAspectRatio="none" class="svggraph" id="svgthumb_us" style="overflow:visible;width:155px;height:58px;" xmlns="http://www.w3.org/2000/svg" xlink="http://www.w3.org/1999/xlink" title="Chart for lilly">
<title>Last ranked
#231 in 2020</title>
<rect x="2" y="43" height="13" width="17" style="fill:rgb(200,200,200)"/>
<image x="2.5" y="43.5" href="/images/flags/24/us.png" preserveAspectRatio="xMinYMax meet" width="16" height="12"/>
<text x="153" y="55" class="svgtitle" text-anchor="end" style="fill:#000000;font-size:13px;">United States</text>
<line x1="0" y1="41" x2="155" y2="41" class="svggridline" style="stroke:rgb(200,200,200);stroke-width:1.3"/>
<g id="svgthumb_us-namepaths">
<g style="fill:none;stroke:#ff0000;stroke-width:1.3;" class="svgcurveline" id="svgthumb_us-lilly-f">
<path d="M0 27.8 L1.1071 29.8 L2.2143 28.8 L3.3214 30.6 L4.4286 31.8 L5.5357 29.8 L6.6429 30 L7.75 30.4 L8.8571 28 L9.9643 31 L11.0714 30.6 L12.1786 31 L13.2857 31.4 L14.3929 30.8 L15.5 30.2 L16.6071 32.2 L17.7143 31.4 L18.8214 34 L19.9286 31.2 L21.0357 32.4 L22.1429 31.4 L23.25 32.8 L24.3571 32 L25.4643 32.2 L26.5714 32 L27.6786 32.6 L28.7857 32.2 L29.8929 32.4 L31 33.2 L32.1071 34.2 L33.2143 34.8 L34.3214 34 L35.4286 35.2 L36.5357 35.6 L37.6429 35.2 L38.75 35.6 L39.8571 35.2 L40.9643 35.6 L42.0714 35.6 L43.1786 36 L44.2857 36 L45.3929 35.8 L46.5 36.2 L47.6071 36 L48.7143 36.4 L49.8214 36.6 L50.9286 36 L52.0357 36.4 L53.1429 36.4 L54.25 36.6 L55.3571 36.8 L56.4643 37.4 L57.5714 37 L58.6786 37 L59.7857 37 L60.8929 38.2 L62 37.4 L63.1071 37.6 L64.2143 37 L65.3214 37.8 L66.4286 38.2 L67.5357 37.8 L68.6429 38.2 L69.75 38.8 L70.8571 38.6 L71.9643 39 L73.0714 39.2 L74.1786 39.4 L75.2857 39.2 L76.3929 39.6 L77.5 39.4 L78.6071 39.2 L79.7143 39.6 L80.8214 39.6 L81.9286 39.6 L83.0357 39.6 L84.1429 39.4 L85.25 39.6 L86.3571 39.8 L87.4643 39.6 L88.5714 39.6 L89.6786 39.4 L90.7857 39.6 L91.8929 39.8 L92.4464 39.8 M93.5536 39.8 L94.1071 39.6 L94.6607 39.8 M126.7679 39 L127.3214 38.8 L128.4286 38.6 L129.5357 37.6 L130.6429 36.8 L131.75 36 L132.8571 34.4 L133.9643 33.2 L135.0714 31.8 L136.1786 29.2 L137.2857 25 L138.3929 22.2 L139.5 19.2 L140.6071 18.2 L141.7143 15.2 L142.8214 13 L143.9286 11.6 L145.0357 11.4 L146.1429 12.2 L147.25 13.8 L148.3571 14.6 L149.4643 17.4 L150.5714 18.6 L151.6786 20.6 L152.7857 22 L153.8929 24.2 L155 26.4"/>
</g>
</g>
</svg>