<svg viewBox="0 0 155 58" preserveAspectRatio="none" class="svggraph" id="svgthumb_us" style="overflow:visible;width:155px;height:58px;" xmlns="http://www.w3.org/2000/svg" xlink="http://www.w3.org/1999/xlink" title="Chart for lillian">
<title>Last ranked
#46 in 2020 (f)
#967 in 1914 (m)</title>
<rect x="2" y="43" height="13" width="17" style="fill:rgb(200,200,200)"/>
<image x="2.5" y="43.5" href="/images/flags/24/us.png" preserveAspectRatio="xMinYMax meet" width="16" height="12"/>
<text x="153" y="55" class="svgtitle" text-anchor="end" style="fill:#000000;font-size:13px;">United States</text>
<line x1="0" y1="41" x2="155" y2="41" class="svggridline" style="stroke:rgb(200,200,200);stroke-width:1.3"/>
<g id="svgthumb_us-namepaths">
<g style="fill:none;stroke:#ff0000;stroke-width:1.3;" class="svgcurveline" id="svgthumb_us-lillian-f">
<path d="M0 18.0667 L1.1071 16.6333 L2.2143 17.1 L3.3214 15.8333 L4.4286 14.1333 L5.5357 14.1667 L6.6429 13.2 L7.75 12.9333 L8.8571 11.8667 L9.9643 12.1 L11.0714 10.2333 L12.1786 10.2667 L13.2857 9.0667 L14.3929 8.5333 L15.5 6.5333 L16.6071 7.3333 L17.7143 5.2667 L18.8214 4.9667 L19.9286 3.7667 L21.0357 4.6 L22.1429 5.2 L23.25 5.8333 L24.3571 4.5667 L25.4643 5.4 L26.5714 5.2333 L27.6786 6.7333 L28.7857 5.9667 L29.8929 6 L31 6.8333 L32.1071 8.4333 L33.2143 8.2 L34.3214 8.0667 L35.4286 9.3667 L36.5357 10.4 L37.6429 10.2333 L38.75 9.9333 L39.8571 11.5667 L40.9643 11.8 L42.0714 13.3 L43.1786 14 L44.2857 14.0667 L45.3929 15.5667 L46.5 15.8 L47.6071 16.1667 L48.7143 17.6 L49.8214 18.9667 L50.9286 20.2333 L52.0357 21.6333 L53.1429 22.6667 L54.25 24.5667 L55.3571 25.4333 L56.4643 26.4667 L57.5714 27.9 L58.6786 28.2667 L59.7857 28.7667 L60.8929 30.5 L62 31.3667 L63.1071 32.2333 L64.2143 32.7667 L65.3214 33.5 L66.4286 33.8667 L67.5357 34.4333 L68.6429 35.0333 L69.75 35.4333 L70.8571 35.8333 L71.9643 36 L73.0714 36.5333 L74.1786 37.1667 L75.2857 36.9667 L76.3929 37.3 L77.5 37.4333 L78.6071 37.7 L79.7143 37.9667 L80.8214 38.1333 L81.9286 38.2667 L83.0357 38.2333 L84.1429 38.3667 L85.25 38.4667 L86.3571 38.7 L87.4643 38.6333 L88.5714 38.7 L89.6786 38.9 L90.7857 38.8667 L91.8929 39.0333 L93 39.2 L94.1071 39.1333 L95.2143 39.3333 L96.3214 39.3667 L97.4286 39.4 L98.5357 39.5333 L99.6429 39.5667 L100.75 39.7 L101.8571 39.7333 L102.9643 39.8 L104.0714 39.9667 L105.1786 40.0333 L106.2857 40 L107.3929 40.0333 L108.5 40.2 L109.6071 40.1667 L110.7143 40.0333 L111.8214 40.0333 L112.9286 40.1333 L114.0357 40.1667 L115.1429 40.1333 L116.25 40.0333 L117.3571 40 L118.4643 40.0667 L119.5714 39.8667 L120.6786 39.8333 L121.7857 39.8333 L122.8929 39.7333 L124 39.7667 L125.1071 39.7667 L126.2143 39.5 L127.3214 39.3667 L128.4286 39.0333 L129.5357 38.5667 L130.6429 38.0333 L131.75 37.2333 L132.8571 36.6667 L133.9643 36.0333 L135.0714 35.2667 L136.1786 34.3 L137.2857 33.1667 L138.3929 32.4333 L139.5 31.0667 L140.6071 30.6667 L141.7143 30.1 L142.8214 29.7 L143.9286 29.1667 L145.0357 29.0667 L146.1429 28.6667 L147.25 28.7667 L148.3571 29.2 L149.4643 29.7 L150.5714 30 L151.6786 30.1 L152.7857 31 L153.8929 31.6667 L155 32.5"/>
</g>
<g style="fill:none;stroke:#0000ff;stroke-width:1.3;" class="svgcurveline" id="svgthumb_us-lillian-m">
<path d=" M1.6607 40.8667 L2.2143 40.8333 L3.3214 40.8333 L4.4286 40.8333 L4.9821 40.8667 M7.1964 40.8667 L7.75 40.8333 L8.8571 40.8333 L9.9643 40.8 L11.0714 40.7333 L12.1786 40.7333 L13.2857 40.7333 L14.3929 40.7667 L15.5 40.8 L16.6071 40.7 L17.7143 40.7 L18.8214 40.6333 L19.9286 40.6333 L21.0357 40.7667 L22.1429 40.7667 L23.25 40.5 L24.3571 40.6667 L25.4643 40.7 L26.5714 40.7667 L27.6786 40.7333 L28.7857 40.6667 L29.8929 40.7 L31 40.8333 L32.1071 40.7333 L33.2143 40.7667 L34.3214 40.8333 L35.4286 40.7667 L35.9821 40.8333 M37.0893 40.8333 L37.6429 40.8333 L38.1964 40.8333"/>
</g>
</g>
</svg>