<svg viewBox="0 0 155 58" preserveAspectRatio="none" class="svggraph" id="svgthumb_us" style="overflow:visible;width:155px;height:58px;" xmlns="http://www.w3.org/2000/svg" xlink="http://www.w3.org/1999/xlink" title="Chart for lily">
<title>Last ranked
#35 in 2020</title>
<rect x="2" y="43" height="13" width="17" style="fill:rgb(200,200,200)"/>
<image x="2.5" y="43.5" href="/images/flags/24/us.png" preserveAspectRatio="xMinYMax meet" width="16" height="12"/>
<text x="153" y="55" class="svgtitle" text-anchor="end" style="fill:#000000;font-size:13px;">United States</text>
<line x1="0" y1="41" x2="155" y2="41" class="svggridline" style="stroke:rgb(200,200,200);stroke-width:1.3"/>
<g id="svgthumb_us-namepaths">
<g style="fill:none;stroke:#ff0000;stroke-width:1.3;" class="svgcurveline" id="svgthumb_us-lily-f">
<path d="M0 37.64 L1.1071 37.24 L2.2143 36.68 L3.3214 36.84 L4.4286 37.48 L5.5357 36.04 L6.6429 37.08 L7.75 37.96 L8.8571 36.68 L9.9643 37.48 L11.0714 37.16 L12.1786 38.04 L13.2857 37.48 L14.3929 38.04 L15.5 37.32 L16.6071 37.72 L17.7143 37.8 L18.8214 37.32 L19.9286 38.28 L21.0357 37.32 L22.1429 37.8 L23.25 38.2 L24.3571 38.2 L25.4643 38.28 L26.5714 38.12 L27.6786 37.56 L28.7857 38.92 L29.8929 38.52 L31 38.68 L32.1071 38.6 L33.2143 38.04 L34.3214 38.68 L35.4286 37.64 L36.5357 38.44 L37.6429 38.44 L38.75 38.28 L39.8571 38.28 L40.9643 38.68 L42.0714 38.44 L43.1786 38.52 L44.2857 38.52 L45.3929 38.44 L46.5 38.28 L47.6071 38.36 L48.7143 38.44 L49.8214 38.68 L50.9286 38.76 L52.0357 38.6 L53.1429 38.68 L54.25 38.92 L55.3571 38.92 L56.4643 39.08 L57.5714 39.24 L58.6786 39.16 L59.7857 39.4 L60.8929 39.48 L62 39.48 L63.1071 39.72 L64.2143 39.64 L65.3214 39.8 L66.4286 39.72 L67.5357 39.96 L68.6429 40.04 L69.75 40.12 L70.8571 40.12 L71.9643 40.12 L73.0714 40.36 L74.1786 40.36 L75.2857 40.36 L76.3929 40.44 L77.5 40.36 L78.6071 40.44 L79.7143 40.44 L80.8214 40.44 L81.9286 40.44 L83.0357 40.36 L84.1429 40.36 L85.25 40.44 L86.3571 40.44 L87.4643 40.52 L88.5714 40.52 L89.6786 40.52 L90.7857 40.52 L91.8929 40.52 L93 40.44 L93.5536 40.52 M94.6607 40.52 L95.2143 40.52 L95.7679 40.52 M99.0893 40.44 L99.6429 40.44 L100.1964 40.44 M101.3036 40.44 L101.8571 40.28 L102.4107 40.36 M105.7321 40.36 L106.2857 40.36 L106.8393 40.36 M109.0536 40.36 L109.6071 40.28 L110.7143 40.12 L111.8214 40.04 L112.9286 40.12 L114.0357 40.04 L115.1429 40.04 L116.25 39.96 L117.3571 39.72 L118.4643 39.72 L119.5714 39.32 L120.6786 39.32 L121.7857 39.48 L122.8929 39.16 L124 38.92 L125.1071 38.76 L126.2143 38.36 L127.3214 37.48 L128.4286 36.44 L129.5357 35.32 L130.6429 33.8 L131.75 32.28 L132.8571 30.04 L133.9643 28.12 L135.0714 25.48 L136.1786 23.32 L137.2857 19.56 L138.3929 17 L139.5 15.08 L140.6071 12.68 L141.7143 9.8 L142.8214 9 L143.9286 8.36 L145.0357 7.16 L146.1429 8.12 L147.25 11.96 L148.3571 13.24 L149.4643 13.64 L150.5714 13.72 L151.6786 16.2 L152.7857 16.28 L153.8929 17.16 L155 17.24"/>
</g>
</g>
</svg>