<svg viewBox="0 0 155 58" preserveAspectRatio="none" class="svggraph" id="svgthumb_us" style="overflow:visible;width:155px;height:58px;" xmlns="http://www.w3.org/2000/svg" xlink="http://www.w3.org/1999/xlink" title="Chart for logan">
<title>Last ranked
#16 in 2020 (m)
#317 in 2020 (f)</title>
<rect x="2" y="43" height="13" width="17" style="fill:rgb(200,200,200)"/>
<image x="2.5" y="43.5" href="/images/flags/24/us.png" preserveAspectRatio="xMinYMax meet" width="16" height="12"/>
<text x="153" y="55" class="svgtitle" text-anchor="end" style="fill:#000000;font-size:13px;">United States</text>
<line x1="0" y1="41" x2="155" y2="41" class="svggridline" style="stroke:rgb(200,200,200);stroke-width:1.3"/>
<g id="svgthumb_us-namepaths">
<g style="fill:none;stroke:#0000ff;stroke-width:1.3;" class="svgcurveline" id="svgthumb_us-logan-m">
<path d="M0 40.45 L1.1071 40.4 L2.2143 40.3 L3.3214 40.1 L4.4286 38.45 L5.5357 39.6 L6.6429 39.75 L7.75 39.65 L8.8571 40.3 L9.9643 39.65 L11.0714 40.35 L12.1786 40.3 L13.2857 40.45 L14.3929 40.4 L15.5 40.35 L16.6071 40.4 L17.7143 40.4 L18.8214 40.35 L19.9286 40.3 L21.0357 40.55 L22.1429 40.3 L23.25 40.65 L24.3571 40.5 L25.4643 40.55 L26.5714 40.55 L27.6786 40.35 L28.7857 40.6 L29.3393 40.75 M30.4464 40.75 L31 40.65 L32.1071 40.5 L33.2143 40.6 L34.3214 40.65 L35.4286 40.6 L36.5357 40.65 L37.6429 40.5 L38.75 40.7 L39.8571 40.55 L40.9643 40.5 L42.0714 40.6 L43.1786 40.6 L44.2857 40.65 L45.3929 40.6 L46.5 40.7 L47.6071 40.75 L48.7143 40.65 L49.8214 40.65 L50.9286 40.75 L52.0357 40.7 L52.5893 40.8 M53.6964 40.8 L54.25 40.7 L54.8036 40.8 M57.0179 40.8 L57.5714 40.7 L58.6786 40.7 L59.7857 40.7 L60.8929 40.8 L62 40.8 L62.5536 40.8 M64.7679 40.8 L65.3214 40.8 L66.4286 40.75 L67.5357 40.8 L68.0893 40.85 M69.1964 40.85 L69.75 40.8 L70.8571 40.85 L71.9643 40.8 L73.0714 40.85 L74.1786 40.85 L75.2857 40.85 L76.3929 40.85 L76.9464 40.85 M78.0536 40.85 L78.6071 40.85 L79.1607 40.85 M80.2679 40.85 L80.8214 40.85 L81.9286 40.85 L83.0357 40.85 L83.5893 40.85 M90.2321 40.85 L90.7857 40.85 L91.3393 40.85 M92.4464 40.85 L93 40.85 L93.5536 40.85 M94.6607 40.85 L95.2143 40.85 L95.7679 40.85 M96.875 40.85 L97.4286 40.85 L97.9821 40.85 M102.4107 40.8 L102.9643 40.8 L104.0714 40.8 L105.1786 40.75 L106.2857 40.65 L107.3929 40.4 L108.5 40.1 L109.6071 39.7 L110.7143 39.6 L111.8214 39.15 L112.9286 39.2 L114.0357 38.9 L115.1429 38.35 L116.25 38.4 L117.3571 37.55 L118.4643 36 L119.5714 34.1 L120.6786 33.15 L121.7857 33 L122.8929 31.8 L124 30.95 L125.1071 29.3 L126.2143 27.6 L127.3214 23.7 L128.4286 20.1 L129.5357 19.4 L130.6429 19.7 L131.75 18.6 L132.8571 17.7 L133.9643 10.25 L135.0714 9.6 L136.1786 9.6 L137.2857 9.9 L138.3929 9.3 L139.5 6.45 L140.6071 6.4 L141.7143 9.2 L142.8214 6.9 L143.9286 6.85 L145.0357 9 L146.1429 10.2 L147.25 10.4 L148.3571 7.65 L149.4643 9.35 L150.5714 13.15 L151.6786 5.45 L152.7857 9 L153.8929 13.45 L155 16.2"/>
</g>
<g style="fill:none;stroke:#ff0000;stroke-width:1.3;" class="svgcurveline" id="svgthumb_us-logan-f">
<path d=" M119.0179 40.6 L119.5714 40.35 L120.6786 40.15 L121.7857 40.1 L122.8929 39.75 L124 39.6 L125.1071 39 L126.2143 38.75 L127.3214 38.3 L128.4286 38.15 L129.5357 38.2 L130.6429 38.35 L131.75 38.25 L132.8571 38.5 L133.9643 38.35 L135.0714 38.65 L136.1786 38.8 L137.2857 38.75 L138.3929 39.15 L139.5 39.25 L140.6071 39.35 L141.7143 39.25 L142.8214 39.3 L143.9286 39.4 L145.0357 39.6 L146.1429 39.25 L147.25 39.15 L148.3571 38.85 L149.4643 38.85 L150.5714 38.8 L151.6786 38.05 L152.7857 38.1 L153.8929 38.3 L155 38.15"/>
</g>
</g>
</svg>