<svg viewBox="0 0 155 58" preserveAspectRatio="none" class="svggraph" id="svgthumb_us" style="overflow:visible;width:155px;height:58px;" xmlns="http://www.w3.org/2000/svg" xlink="http://www.w3.org/1999/xlink" title="Chart for lola">
<title>Last ranked
#240 in 2020 (f)
#933 in 1902 (m)</title>
<rect x="2" y="43" height="13" width="17" style="fill:rgb(200,200,200)"/>
<image x="2.5" y="43.5" href="/images/flags/24/us.png" preserveAspectRatio="xMinYMax meet" width="16" height="12"/>
<text x="153" y="55" class="svgtitle" text-anchor="end" style="fill:#000000;font-size:13px;">United States</text>
<line x1="0" y1="41" x2="155" y2="41" class="svggridline" style="stroke:rgb(200,200,200);stroke-width:1.3"/>
<g id="svgthumb_us-namepaths">
<g style="fill:none;stroke:#ff0000;stroke-width:1.3;" class="svgcurveline" id="svgthumb_us-lola-f">
<path d="M0 22.2 L1.1071 23.6667 L2.2143 21 L3.3214 21.9333 L4.4286 21.9333 L5.5357 23 L6.6429 24.4667 L7.75 19.9333 L8.8571 19.6667 L9.9643 19 L11.0714 18.0667 L12.1786 18.2 L13.2857 17.9333 L14.3929 18.2 L15.5 18.0667 L16.6071 17 L17.7143 17.1333 L18.8214 14.8667 L19.9286 15 L21.0357 17.4 L22.1429 16.4667 L23.25 15.1333 L24.3571 14.0667 L25.4643 14.7333 L26.5714 12.6 L27.6786 14.2 L28.7857 14.7333 L29.8929 15.8 L31 17.5333 L32.1071 18.0667 L33.2143 19.2667 L34.3214 19.5333 L35.4286 20.4667 L36.5357 21.4 L37.6429 23.8 L38.75 22.4667 L39.8571 24.2 L40.9643 23.2667 L42.0714 23.6667 L43.1786 22.6 L44.2857 24.0667 L45.3929 25 L46.5 25.2667 L47.6071 24.8667 L48.7143 25.1333 L49.8214 25.5333 L50.9286 25.4 L52.0357 24.4667 L53.1429 26.6 L54.25 26.3333 L55.3571 26.4667 L56.4643 26.4667 L57.5714 26.6 L58.6786 26.7333 L59.7857 27.5333 L60.8929 29.4 L62 29.1333 L63.1071 30.4667 L64.2143 30.6 L65.3214 31.1333 L66.4286 31.2667 L67.5357 32.0667 L68.6429 32.4667 L69.75 33.4 L70.8571 33 L71.9643 34.2 L73.0714 35.2667 L74.1786 35.8 L75.2857 35.9333 L76.3929 36.3333 L77.5 36.2 L78.6071 36.3333 L79.7143 36.7333 L80.8214 37.2667 L81.9286 37.2667 L83.0357 36.7333 L84.1429 37.6667 L85.25 37.9333 L86.3571 38.2 L87.4643 37.9333 L88.5714 38.3333 L89.6786 38.4667 L90.7857 38.7333 L91.8929 38.8667 L93 38.7333 L94.1071 39 L95.2143 39.2667 L96.3214 39.5333 L97.4286 39.5333 L98.5357 39.6667 L99.6429 39.8 L100.75 39.6667 L101.8571 39.6667 L102.9643 39.6667 L104.0714 39.6667 L105.1786 39.6667 L106.2857 39.2667 L106.8393 39.9333 M107.9464 39.9333 L108.5 39.8 L109.0536 39.9333 M110.1607 39.9333 L110.7143 39.9333 L111.2679 39.9333 M134.5179 39.5333 L135.0714 38.8667 L136.1786 38.0667 L137.2857 37.2667 L138.3929 35.4 L139.5 33.4 L140.6071 33 L141.7143 31.9333 L142.8214 31.4 L143.9286 31 L145.0357 31.9333 L146.1429 31.5333 L147.25 30.6 L148.3571 31.5333 L149.4643 31 L150.5714 31.4 L151.6786 31.5333 L152.7857 31.2667 L153.8929 31.5333 L155 31.5333"/>
</g>
<g style="fill:none;stroke:#0000ff;stroke-width:1.3;" class="svgcurveline" id="svgthumb_us-lola-m">
<path d=" M22.6964 40.3333 L23.25 40.0667 L24.3571 40.3333 L24.9107 40.3333"/>
</g>
</g>
</svg>