<svg viewBox="0 0 155 58" preserveAspectRatio="none" class="svggraph" id="svgthumb_us" style="overflow:visible;width:155px;height:58px;" xmlns="http://www.w3.org/2000/svg" xlink="http://www.w3.org/1999/xlink" title="Chart for london">
<title>Last ranked
#195 in 2020 (f)
#871 in 2020 (m)</title>
<rect x="2" y="43" height="13" width="17" style="fill:rgb(200,200,200)"/>
<image x="2.5" y="43.5" href="/images/flags/24/us.png" preserveAspectRatio="xMinYMax meet" width="16" height="12"/>
<text x="153" y="55" class="svgtitle" text-anchor="end" style="fill:#000000;font-size:13px;">United States</text>
<line x1="0" y1="41" x2="155" y2="41" class="svggridline" style="stroke:rgb(200,200,200);stroke-width:1.3"/>
<g id="svgthumb_us-namepaths">
<g style="fill:none;stroke:#ff0000;stroke-width:1.3;" class="svgcurveline" id="svgthumb_us-london-f">
<path d=" M125.6607 39.2 L126.2143 39 L126.7679 39 M131.1964 39 L131.75 38.6 L132.8571 38.2 L133.9643 38.2 L135.0714 38.2 L136.1786 37.8 L137.2857 37 L138.3929 35.6 L139.5 32 L140.6071 29.6 L141.7143 20.2 L142.8214 15 L143.9286 11.6 L145.0357 8.4 L146.1429 8 L147.25 5 L148.3571 7.4 L149.4643 11 L150.5714 16.6 L151.6786 20.2 L152.7857 23.4 L153.8929 22.2 L155 24.2"/>
</g>
<g style="fill:none;stroke:#0000ff;stroke-width:1.3;" class="svgcurveline" id="svgthumb_us-london-m">
<path d=" M132.3036 39.6 L132.8571 39.4 L133.9643 39.2 L135.0714 39.2 L136.1786 39.2 L137.2857 39 L138.3929 38.2 L139.5 37.6 L140.6071 37.8 L141.7143 36.6 L142.8214 36 L143.9286 36 L145.0357 36.6 L146.1429 36.2 L147.25 36.8 L148.3571 36.8 L149.4643 36.6 L150.5714 37.6 L151.6786 38.2 L152.7857 38.2 L153.8929 38.2 L155 38.2"/>
</g>
</g>
</svg>