<svg viewBox="0 0 155 58" preserveAspectRatio="none" class="svggraph" id="svgthumb_us" style="overflow:visible;width:155px;height:58px;" xmlns="http://www.w3.org/2000/svg" xlink="http://www.w3.org/1999/xlink" title="Chart for lorelei">
<title>Last ranked
#506 in 2020</title>
<rect x="2" y="43" height="13" width="17" style="fill:rgb(200,200,200)"/>
<image x="2.5" y="43.5" href="/images/flags/24/us.png" preserveAspectRatio="xMinYMax meet" width="16" height="12"/>
<text x="153" y="55" class="svgtitle" text-anchor="end" style="fill:#000000;font-size:13px;">United States</text>
<line x1="0" y1="41" x2="155" y2="41" class="svggridline" style="stroke:rgb(200,200,200);stroke-width:1.3"/>
<g id="svgthumb_us-namepaths">
<g style="fill:none;stroke:#ff0000;stroke-width:1.3;" class="svgcurveline" id="svgthumb_us-lorelei-f">
<path d=" M63.6607 37.6667 L64.2143 33.6667 L65.3214 36.3333 L66.4286 37.6667 L67.5357 36.3333 L68.6429 37 L69.1964 38.3333 M78.0536 37.6667 L78.6071 37 L79.7143 37 L80.8214 36.3333 L81.9286 35 L83.0357 36.3333 L84.1429 36.3333 L85.25 36.3333 L86.3571 37 L86.9107 37.6667 M91.3393 37 L91.8929 37 L92.4464 37 M93.5536 37 L94.1071 37 L94.6607 37 M136.7321 33 L137.2857 33 L138.3929 30.3333 L139.5 29 L140.6071 27.6667 L141.7143 27 L142.8214 24.3333 L143.9286 22.3333 L145.0357 21 L146.1429 21 L147.25 20.3333 L148.3571 19 L149.4643 17 L150.5714 16.3333 L151.6786 17 L152.7857 17 L153.8929 16.3333 L155 18.3333"/>
</g>
</g>
</svg>