<svg viewBox="0 0 155 58" preserveAspectRatio="none" class="svggraph" id="svgthumb_us" style="overflow:visible;width:155px;height:58px;" xmlns="http://www.w3.org/2000/svg" xlink="http://www.w3.org/1999/xlink" title="Chart for lucia">
<title>Last ranked
#163 in 2020</title>
<rect x="2" y="43" height="13" width="17" style="fill:rgb(200,200,200)"/>
<image x="2.5" y="43.5" href="/images/flags/24/us.png" preserveAspectRatio="xMinYMax meet" width="16" height="12"/>
<text x="153" y="55" class="svgtitle" text-anchor="end" style="fill:#000000;font-size:13px;">United States</text>
<line x1="0" y1="41" x2="155" y2="41" class="svggridline" style="stroke:rgb(200,200,200);stroke-width:1.3"/>
<g id="svgthumb_us-namepaths">
<g style="fill:none;stroke:#ff0000;stroke-width:1.3;" class="svgcurveline" id="svgthumb_us-lucia-f">
<path d="M0 38 L1.1071 37.8 L2.2143 37.6 L3.3214 37 L4.4286 37.8 L5.5357 37.8 L6.6429 36.8 L7.75 39 L8.8571 37.4 L9.9643 37 L11.0714 38 L12.1786 37.4 L13.2857 37.8 L14.3929 37.8 L15.5 38.2 L16.6071 39 L17.7143 38.4 L18.8214 38 L19.9286 37.4 L21.0357 38.4 L22.1429 38.4 L23.25 37.8 L24.3571 38 L25.4643 39.2 L26.5714 37.8 L27.6786 38.2 L28.7857 37.2 L29.8929 37.6 L31 38.6 L32.1071 37.2 L33.2143 38 L34.3214 38 L35.4286 38 L36.5357 37.6 L37.6429 37.8 L38.75 38.2 L39.8571 38 L40.9643 38.2 L42.0714 37.8 L43.1786 38.4 L44.2857 38.6 L45.3929 38.2 L46.5 38 L47.6071 38.2 L48.7143 38.2 L49.8214 38.6 L50.9286 38 L52.0357 38 L53.1429 37.8 L54.25 38 L55.3571 38 L56.4643 38 L57.5714 37.6 L58.6786 37.8 L59.7857 38 L60.8929 38.2 L62 37.8 L63.1071 38.2 L64.2143 38.2 L65.3214 38.4 L66.4286 38.4 L67.5357 38.2 L68.6429 38.4 L69.75 38.4 L70.8571 38.6 L71.9643 38.6 L73.0714 38.6 L74.1786 38.8 L75.2857 38.4 L76.3929 38.4 L77.5 38.6 L78.6071 38.2 L79.7143 38.2 L80.8214 38.4 L81.9286 38.4 L83.0357 38.2 L84.1429 38.8 L85.25 38.6 L86.3571 38.8 L87.4643 38.4 L88.5714 38.4 L89.6786 38.2 L90.7857 38.8 L91.8929 38.4 L93 38 L94.1071 38.2 L95.2143 38 L96.3214 38.2 L97.4286 38 L98.5357 38.6 L99.6429 38.2 L100.75 38.4 L101.8571 38.2 L102.9643 38.2 L104.0714 38.4 L105.1786 37.8 L106.2857 37.4 L107.3929 37.8 L108.5 37.8 L109.6071 37.8 L110.7143 37.4 L111.8214 37.4 L112.9286 37.4 L114.0357 37.6 L115.1429 37.2 L116.25 37 L117.3571 37.4 L118.4643 37.4 L119.5714 37.8 L120.6786 37 L121.7857 37.2 L122.8929 37.2 L124 37 L125.1071 36.6 L126.2143 37.2 L127.3214 37 L128.4286 36.8 L129.5357 37 L130.6429 37.2 L131.75 36.6 L132.8571 35.4 L133.9643 35.4 L135.0714 35.6 L136.1786 34.8 L137.2857 33.6 L138.3929 32.6 L139.5 31.6 L140.6071 30.6 L141.7143 30.4 L142.8214 30.2 L143.9286 28.4 L145.0357 27.2 L146.1429 27.6 L147.25 27.2 L148.3571 26.4 L149.4643 26 L150.5714 25.2 L151.6786 23.4 L152.7857 23.6 L153.8929 21.2 L155 21.4"/>
</g>
</g>
</svg>