<svg viewBox="0 0 155 58" preserveAspectRatio="none" class="svggraph" id="svgthumb_us" style="overflow:visible;width:155px;height:58px;" xmlns="http://www.w3.org/2000/svg" xlink="http://www.w3.org/1999/xlink" title="Chart for lucille">
<title>Last ranked
#271 in 2020 (f)
#925 in 1911 (m)</title>
<rect x="2" y="43" height="13" width="17" style="fill:rgb(200,200,200)"/>
<image x="2.5" y="43.5" href="/images/flags/24/us.png" preserveAspectRatio="xMinYMax meet" width="16" height="12"/>
<text x="153" y="55" class="svgtitle" text-anchor="end" style="fill:#000000;font-size:13px;">United States</text>
<line x1="0" y1="41" x2="155" y2="41" class="svggridline" style="stroke:rgb(200,200,200);stroke-width:1.3"/>
<g id="svgthumb_us-namepaths">
<g style="fill:none;stroke:#ff0000;stroke-width:1.3;" class="svgcurveline" id="svgthumb_us-lucille-f">
<path d="M0 38.6571 L1.1071 38.2 L2.2143 36.8286 L3.3214 37.8571 L4.4286 37.1143 L5.5357 37 L6.6429 35.8571 L7.75 35.5143 L8.8571 35.6286 L9.9643 34.7143 L11.0714 34.1429 L12.1786 33.6857 L13.2857 31.3429 L14.3929 31.6857 L15.5 30.3714 L16.6071 28.7143 L17.7143 26.5429 L18.8214 26.0857 L19.9286 24.4286 L21.0357 22.2571 L22.1429 19.7429 L23.25 20.8857 L24.3571 18.8286 L25.4643 16.4857 L26.5714 14.6 L27.6786 12.7143 L28.7857 10.4286 L29.8929 9.6286 L31 7.4571 L32.1071 7 L33.2143 4.3143 L34.3214 5.5714 L35.4286 4.3714 L36.5357 5.2286 L37.6429 2.8286 L38.75 1.9143 L39.8571 2.8857 L40.9643 2.7143 L42.0714 3.4571 L43.1786 2.7714 L44.2857 4.3143 L45.3929 6.6 L46.5 8.2571 L47.6071 9.4571 L48.7143 11.2857 L49.8214 12.0857 L50.9286 14.2571 L52.0357 14.9429 L53.1429 16.6571 L54.25 18.7714 L55.3571 19.8 L56.4643 21.0571 L57.5714 22.1429 L58.6786 23.9714 L59.7857 25.4571 L60.8929 25.8 L62 27.0571 L63.1071 27.3429 L64.2143 28.6 L65.3214 29.3429 L66.4286 30.0286 L67.5357 30.8857 L68.6429 31.5714 L69.75 32.0286 L70.8571 32.7143 L71.9643 33 L73.0714 34.0857 L74.1786 34.7143 L75.2857 34.9429 L76.3929 35.2857 L77.5 35.9714 L78.6071 36.4286 L79.7143 36.6571 L80.8214 36.6 L81.9286 37.1714 L83.0357 37.7429 L84.1429 38.0857 L85.25 38.4286 L86.3571 38.7143 L87.4643 38.8286 L88.5714 39.1143 L89.6786 39.2286 L90.7857 39.5143 L91.8929 39.5714 L93 39.6286 L94.1071 39.6857 L95.2143 39.8571 L96.3214 40.0286 L97.4286 40.0857 L98.5357 40.1429 L99.6429 40.2571 L100.75 40.3143 L101.8571 40.4286 L102.9643 40.5429 L104.0714 40.5429 L104.625 40.5429 M105.7321 40.5429 L106.2857 40.4857 L106.8393 40.5429 M135.625 40.3714 L136.1786 40.2571 L137.2857 40.2 L138.3929 40.0857 L139.5 39.9714 L140.6071 39.9714 L141.7143 39.6286 L142.8214 39.4571 L143.9286 39.1714 L145.0357 39.0571 L146.1429 38.6571 L147.25 38.3714 L148.3571 38.1429 L149.4643 37.7429 L150.5714 37.6857 L151.6786 37.3429 L152.7857 37.5143 L153.8929 37.4571 L155 37.2857"/>
</g>
<g style="fill:none;stroke:#0000ff;stroke-width:1.3;" class="svgcurveline" id="svgthumb_us-lucille-m">
<path d=" M28.2321 40.6571 L28.7857 40.6 L29.3393 40.7143 M30.4464 40.7143 L31 40.7143 L32.1071 40.5429 L32.6607 40.7143 M33.7679 40.7143 L34.3214 40.7143 L34.875 40.7143"/>
</g>
</g>
</svg>