<svg viewBox="0 0 155 58" preserveAspectRatio="none" class="svggraph" id="svgthumb_us" style="overflow:visible;width:155px;height:58px;" xmlns="http://www.w3.org/2000/svg" xlink="http://www.w3.org/1999/xlink" title="Chart for lucy">
<title>Last ranked
#49 in 2020 (f)
#927 in 1906 (m)</title>
<rect x="2" y="43" height="13" width="17" style="fill:rgb(200,200,200)"/>
<image x="2.5" y="43.5" href="/images/flags/24/us.png" preserveAspectRatio="xMinYMax meet" width="16" height="12"/>
<text x="153" y="55" class="svgtitle" text-anchor="end" style="fill:#000000;font-size:13px;">United States</text>
<line x1="0" y1="41" x2="155" y2="41" class="svggridline" style="stroke:rgb(200,200,200);stroke-width:1.3"/>
<g id="svgthumb_us-namepaths">
<g style="fill:none;stroke:#ff0000;stroke-width:1.3;" class="svgcurveline" id="svgthumb_us-lucy-f">
<path d="M0 6.4857 L1.1071 5.6857 L2.2143 7.7429 L3.3214 9.4571 L4.4286 8.3143 L5.5357 12.3714 L6.6429 10.6571 L7.75 11.1714 L8.8571 11.9143 L9.9643 14.0286 L11.0714 13.4571 L12.1786 13.5714 L13.2857 14.1429 L14.3929 14.7143 L15.5 14.9429 L16.6071 17.5143 L17.7143 16.6571 L18.8214 18.3714 L19.9286 17.1714 L21.0357 17.5143 L22.1429 18.6 L23.25 19 L24.3571 19.2857 L25.4643 20.6571 L26.5714 19.8 L27.6786 20.1429 L28.7857 21.3429 L29.8929 21.5143 L31 23 L32.1071 22.7714 L33.2143 23.5143 L34.3214 24.0857 L35.4286 25.0571 L36.5357 24.8286 L37.6429 24.5429 L38.75 25.2857 L39.8571 25.8571 L40.9643 26.0857 L42.0714 26.2571 L43.1786 26.3714 L44.2857 27.1143 L45.3929 26.8857 L46.5 27.3429 L47.6071 27.2857 L48.7143 27.8571 L49.8214 28.4857 L50.9286 29.1714 L52.0357 29.2286 L53.1429 29.9143 L54.25 30.4857 L55.3571 30.6 L56.4643 31.5143 L57.5714 31.5714 L58.6786 31.4571 L59.7857 32.3143 L60.8929 33.0571 L62 33.3429 L63.1071 33.4571 L64.2143 33.8571 L65.3214 33.9143 L66.4286 34.3143 L67.5357 34.3714 L68.6429 35.5143 L69.75 35.7429 L70.8571 35.9714 L71.9643 36.1429 L73.0714 36.6 L74.1786 36.8286 L75.2857 36.6 L76.3929 36.4286 L77.5 36.8286 L78.6071 37.0571 L79.7143 36.7714 L80.8214 36.3714 L81.9286 36.6 L83.0357 37 L84.1429 37.2286 L85.25 37.3429 L86.3571 37.5143 L87.4643 37.6857 L88.5714 37.9143 L89.6786 38.0286 L90.7857 38.1429 L91.8929 38.3143 L93 38.2 L94.1071 38.2571 L95.2143 38.5429 L96.3214 38.7143 L97.4286 38.7714 L98.5357 39.1143 L99.6429 39.4571 L100.75 39.6286 L101.8571 39.5143 L102.9643 39.7429 L104.0714 39.5714 L105.1786 39.8 L106.2857 39.7429 L107.3929 39.9143 L108.5 39.9714 L109.6071 39.8571 L110.7143 39.5714 L111.8214 39.6286 L112.9286 39.5143 L114.0357 39.6857 L115.1429 39.6286 L116.25 39.5143 L117.3571 39.4571 L118.4643 39.4571 L119.5714 39.4571 L120.6786 39.4571 L121.7857 39.4571 L122.8929 39.5143 L124 39.5143 L125.1071 39.4571 L126.2143 39.4571 L127.3214 39.2857 L128.4286 39.0571 L129.5357 38.8857 L130.6429 38.9429 L131.75 38.6 L132.8571 38.2 L133.9643 37.9714 L135.0714 37.5143 L136.1786 36.8286 L137.2857 36.3714 L138.3929 35.4571 L139.5 34.8286 L140.6071 34.0286 L141.7143 32.6 L142.8214 32.0286 L143.9286 30.4286 L145.0357 30.0857 L146.1429 29.7429 L147.25 29.2857 L148.3571 28.4286 L149.4643 27.6857 L150.5714 27.4 L151.6786 27.0571 L152.7857 27.5143 L153.8929 27 L155 26.8286"/>
</g>
<g style="fill:none;stroke:#0000ff;stroke-width:1.3;" class="svgcurveline" id="svgthumb_us-lucy-m">
<path d=" M0.5536 40.7714 L1.1071 40.7143 L1.6607 40.7714 M16.0536 40.7143 L16.6071 40.6571 L17.1607 40.7143 M20.4821 40.7143 L21.0357 40.6 L21.5893 40.7143 M22.6964 40.7143 L23.25 40.6 L23.8036 40.7143 M28.2321 40.6571 L28.7857 40.6571 L29.3393 40.7143"/>
</g>
</g>
</svg>