<svg viewBox="0 0 155 58" preserveAspectRatio="none" class="svggraph" id="svgthumb_us" style="overflow:visible;width:155px;height:58px;" xmlns="http://www.w3.org/2000/svg" xlink="http://www.w3.org/1999/xlink" title="Chart for luna">
<title>Last ranked
#14 in 2020</title>
<rect x="2" y="43" height="13" width="17" style="fill:rgb(200,200,200)"/>
<image x="2.5" y="43.5" href="/images/flags/24/us.png" preserveAspectRatio="xMinYMax meet" width="16" height="12"/>
<text x="153" y="55" class="svgtitle" text-anchor="end" style="fill:#000000;font-size:13px;">United States</text>
<line x1="0" y1="41" x2="155" y2="41" class="svggridline" style="stroke:rgb(200,200,200);stroke-width:1.3"/>
<g id="svgthumb_us-namepaths">
<g style="fill:none;stroke:#ff0000;stroke-width:1.3;" class="svgcurveline" id="svgthumb_us-luna-f">
<path d="M0 39.8 L1.1071 39.56 L1.6607 40.68 M2.7679 40.68 L3.3214 39.88 L4.4286 39.96 L5.5357 40.12 L6.6429 39.96 L7.75 39.88 L8.8571 39.96 L9.9643 40.2 L11.0714 40.04 L12.1786 40.04 L13.2857 40.12 L14.3929 40.04 L15.5 39.96 L16.6071 40.28 L17.7143 40.12 L18.8214 39.8 L19.9286 40.04 L21.0357 40.04 L22.1429 40.28 L23.25 40.28 L24.3571 40.12 L25.4643 40.2 L26.5714 40.2 L27.6786 40.2 L28.7857 40.36 L29.8929 40.2 L31 40.12 L32.1071 40.44 L33.2143 40.28 L34.3214 40.6 L35.4286 40.6 L36.5357 40.6 L37.6429 40.52 L38.1964 40.68 M39.3036 40.68 L39.8571 40.6 L40.4107 40.68 M44.8393 40.68 L45.3929 40.6 L45.9464 40.68 M135.625 40.12 L136.1786 39.88 L137.2857 39.56 L138.3929 39.08 L139.5 38.76 L140.6071 38.28 L141.7143 37.88 L142.8214 37 L143.9286 37.16 L145.0357 36.28 L146.1429 35.16 L147.25 33.72 L148.3571 31.4 L149.4643 29.48 L150.5714 25.8 L151.6786 18.28 L152.7857 11.08 L153.8929 6.92 L155 5.48"/>
</g>
</g>
</svg>