<svg viewBox="0 0 155 58" preserveAspectRatio="none" class="svggraph" id="svgthumb_us" style="overflow:visible;width:155px;height:58px;" xmlns="http://www.w3.org/2000/svg" xlink="http://www.w3.org/1999/xlink" title="Chart for lydia">
<title>Last ranked
#96 in 2020</title>
<rect x="2" y="43" height="13" width="17" style="fill:rgb(200,200,200)"/>
<image x="2.5" y="43.5" href="/images/flags/24/us.png" preserveAspectRatio="xMinYMax meet" width="16" height="12"/>
<text x="153" y="55" class="svgtitle" text-anchor="end" style="fill:#000000;font-size:13px;">United States</text>
<line x1="0" y1="41" x2="155" y2="41" class="svggridline" style="stroke:rgb(200,200,200);stroke-width:1.3"/>
<g id="svgthumb_us-namepaths">
<g style="fill:none;stroke:#ff0000;stroke-width:1.3;" class="svgcurveline" id="svgthumb_us-lydia-f">
<path d="M0 10.1 L1.1071 10.8 L2.2143 11.4 L3.3214 9.5 L4.4286 14.2 L5.5357 12.5 L6.6429 15.5 L7.75 12.2 L8.8571 16.1 L9.9643 14.8 L11.0714 12.4 L12.1786 15.2 L13.2857 17.8 L14.3929 14.4 L15.5 14.8 L16.6071 14.5 L17.7143 18 L18.8214 15.1 L19.9286 16.3 L21.0357 18.1 L22.1429 20.7 L23.25 21.1 L24.3571 21.9 L25.4643 23 L26.5714 22.4 L27.6786 24.3 L28.7857 25.8 L29.8929 25.8 L31 26.9 L32.1071 27.3 L33.2143 28.2 L34.3214 28.1 L35.4286 29.1 L36.5357 29.4 L37.6429 30.5 L38.75 30.4 L39.8571 30.4 L40.9643 30.5 L42.0714 31.5 L43.1786 32 L44.2857 32 L45.3929 32.8 L46.5 32.8 L47.6071 33.3 L48.7143 34 L49.8214 33.4 L50.9286 34.4 L52.0357 33.9 L53.1429 34.2 L54.25 34.6 L55.3571 35.1 L56.4643 35.1 L57.5714 35.3 L58.6786 34.6 L59.7857 35.2 L60.8929 34.8 L62 34.6 L63.1071 34.8 L64.2143 35.1 L65.3214 35 L66.4286 34.9 L67.5357 35.5 L68.6429 34.9 L69.75 35 L70.8571 35.1 L71.9643 34.6 L73.0714 35.5 L74.1786 35.2 L75.2857 34 L76.3929 33.9 L77.5 34.6 L78.6071 34.8 L79.7143 34 L80.8214 32.9 L81.9286 33.2 L83.0357 33.1 L84.1429 33.5 L85.25 33.3 L86.3571 33.4 L87.4643 33.5 L88.5714 33 L89.6786 33.4 L90.7857 34 L91.8929 34.5 L93 35 L94.1071 35.1 L95.2143 35.6 L96.3214 35.9 L97.4286 36 L98.5357 36.4 L99.6429 36 L100.75 36.2 L101.8571 36.3 L102.9643 36.7 L104.0714 36.4 L105.1786 36.7 L106.2857 36.3 L107.3929 36.4 L108.5 36.7 L109.6071 36.3 L110.7143 36.2 L111.8214 35.7 L112.9286 35.2 L114.0357 35.3 L115.1429 34.3 L116.25 34.4 L117.3571 34.9 L118.4643 34.5 L119.5714 34.9 L120.6786 34.7 L121.7857 34.2 L122.8929 34.2 L124 33.9 L125.1071 33.8 L126.2143 32.8 L127.3214 31.9 L128.4286 31.5 L129.5357 30.9 L130.6429 30.3 L131.75 29.8 L132.8571 29.4 L133.9643 29.1 L135.0714 28.3 L136.1786 27.9 L137.2857 28 L138.3929 27.3 L139.5 28.3 L140.6071 27.9 L141.7143 27.2 L142.8214 27 L143.9286 26.5 L145.0357 25.1 L146.1429 24.6 L147.25 24.1 L148.3571 22.4 L149.4643 23 L150.5714 22.3 L151.6786 23.3 L152.7857 23.7 L153.8929 24.5 L155 25.2"/>
</g>
</g>
</svg>