<svg viewBox="0 0 155 58" preserveAspectRatio="none" class="svggraph" id="svgthumb_us" style="overflow:visible;width:155px;height:58px;" xmlns="http://www.w3.org/2000/svg" xlink="http://www.w3.org/1999/xlink" title="Chart for lyla">
<title>Last ranked
#118 in 2020</title>
<rect x="2" y="43" height="13" width="17" style="fill:rgb(200,200,200)"/>
<image x="2.5" y="43.5" href="/images/flags/24/us.png" preserveAspectRatio="xMinYMax meet" width="16" height="12"/>
<text x="153" y="55" class="svgtitle" text-anchor="end" style="fill:#000000;font-size:13px;">United States</text>
<line x1="0" y1="41" x2="155" y2="41" class="svggridline" style="stroke:rgb(200,200,200);stroke-width:1.3"/>
<g id="svgthumb_us-namepaths">
<g style="fill:none;stroke:#ff0000;stroke-width:1.3;" class="svgcurveline" id="svgthumb_us-lyla-f">
<path d=" M3.875 40.2 L4.4286 40 L4.9821 40.2 M10.5179 40.2 L11.0714 40 L11.625 40 M13.8393 40.2 L14.3929 39.8 L15.5 39.8 L16.0536 40.2 M17.1607 40.2 L17.7143 39.8 L18.8214 40 L19.9286 40 L20.4821 40.2 M28.2321 40 L28.7857 40 L29.3393 40.2 M30.4464 40.2 L31 39.8 L31.5536 40 M32.6607 40 L33.2143 40 L33.7679 40 M34.875 40 L35.4286 39.8 L36.5357 40 L37.6429 40 L38.75 40 L39.8571 39.8 L40.9643 40 L42.0714 39.8 L42.625 40.2 M43.7321 40.2 L44.2857 39.8 L45.3929 39.6 L46.5 39.8 L47.6071 39.6 L48.7143 39.4 L49.8214 39.2 L50.9286 39.6 L52.0357 39.8 L53.1429 39.8 L54.25 39.6 L55.3571 39.8 L56.4643 39.8 L57.5714 39.8 L58.6786 39.8 L59.7857 39.8 L60.8929 39.8 L62 39.8 L63.1071 40 L64.2143 40 L65.3214 39.8 L66.4286 39.8 L66.9821 40.2 M68.0893 40.2 L68.6429 40 L69.75 39.8 L70.3036 40.2 M71.4107 40.2 L71.9643 40 L72.5179 40.2 M137.8393 38.6 L138.3929 38.2 L139.5 36.8 L140.6071 32.6 L141.7143 26.6 L142.8214 20.6 L143.9286 17.6 L145.0357 16 L146.1429 18 L147.25 19.4 L148.3571 16.6 L149.4643 17.6 L150.5714 18 L151.6786 17 L152.7857 16.2 L153.8929 14.2 L155 14.8"/>
</g>
</g>
</svg>