<svg viewBox="0 0 155 58" preserveAspectRatio="none" class="svggraph" id="svgthumb_us" style="overflow:visible;width:155px;height:58px;" xmlns="http://www.w3.org/2000/svg" xlink="http://www.w3.org/1999/xlink" title="Chart for lyric">
<title>Last ranked
#412 in 2020 (f)
#958 in 2020 (m)</title>
<rect x="2" y="43" height="13" width="17" style="fill:rgb(200,200,200)"/>
<image x="2.5" y="43.5" href="/images/flags/24/us.png" preserveAspectRatio="xMinYMax meet" width="16" height="12"/>
<text x="153" y="55" class="svgtitle" text-anchor="end" style="fill:#000000;font-size:13px;">United States</text>
<line x1="0" y1="41" x2="155" y2="41" class="svggridline" style="stroke:rgb(200,200,200);stroke-width:1.3"/>
<g id="svgthumb_us-namepaths">
<g style="fill:none;stroke:#ff0000;stroke-width:1.3;" class="svgcurveline" id="svgthumb_us-lyric-f">
<path d=" M126.7679 36 L127.3214 32 L128.4286 30 L129.5357 31 L130.6429 31.5 L131.75 32.5 L132.8571 34 L133.9643 34 L135.0714 32.5 L136.1786 31.5 L137.2857 32 L138.3929 31 L139.5 30.5 L140.6071 28 L141.7143 23.5 L142.8214 22 L143.9286 20.5 L145.0357 16 L146.1429 13 L147.25 10.5 L148.3571 10 L149.4643 12.5 L150.5714 11.5 L151.6786 13 L152.7857 13.5 L153.8929 17.5 L155 19.5"/>
</g>
<g style="fill:none;stroke:#0000ff;stroke-width:1.3;" class="svgcurveline" id="svgthumb_us-lyric-m">
<path d=" M140.0536 37 L140.6071 36.5 L141.7143 36 L142.8214 35.5 L143.9286 34.5 L145.0357 35 L146.1429 34.5 L147.25 34 L148.3571 35 L149.4643 35 L150.5714 35.5 L151.6786 35.5 L152.7857 35 L153.3393 35.5 M154.4464 35.5 L155 35"/>
</g>
</g>
</svg>