<svg viewBox="0 0 155 58" preserveAspectRatio="none" class="svggraph" id="svgthumb_us" style="overflow:visible;width:155px;height:58px;" xmlns="http://www.w3.org/2000/svg" xlink="http://www.w3.org/1999/xlink" title="Chart for mabel">
<title>Last ranked
#427 in 2020 (f)
#893 in 1909 (m)</title>
<rect x="2" y="43" height="13" width="17" style="fill:rgb(200,200,200)"/>
<image x="2.5" y="43.5" href="/images/flags/24/us.png" preserveAspectRatio="xMinYMax meet" width="16" height="12"/>
<text x="153" y="55" class="svgtitle" text-anchor="end" style="fill:#000000;font-size:13px;">United States</text>
<line x1="0" y1="41" x2="155" y2="41" class="svggridline" style="stroke:rgb(200,200,200);stroke-width:1.3"/>
<g id="svgthumb_us-namepaths">
<g style="fill:none;stroke:#ff0000;stroke-width:1.3;" class="svgcurveline" id="svgthumb_us-mabel-f">
<path d="M0 10.8909 L1.1071 8.1636 L2.2143 9.6545 L3.3214 8.0909 L4.4286 7.4364 L5.5357 6.4545 L6.6429 7.3636 L7.75 6.0545 L8.8571 5.8727 L9.9643 3.5818 L11.0714 3.8727 L12.1786 3.4727 L13.2857 5.9091 L14.3929 5.6182 L15.5 6.7818 L16.6071 6.2727 L17.7143 8.0545 L18.8214 8.4545 L19.9286 10.0909 L21.0357 9.7636 L22.1429 12.2727 L23.25 11 L24.3571 11.4364 L25.4643 12.7091 L26.5714 13.9818 L27.6786 15.4364 L28.7857 17.1818 L29.8929 18.7091 L31 19.5091 L32.1071 21.1818 L33.2143 22.6 L34.3214 23.1455 L35.4286 24.1636 L36.5357 25.7636 L37.6429 26.7091 L38.75 27.9091 L39.8571 28.6727 L40.9643 29.6909 L42.0714 30.0182 L43.1786 30.4545 L44.2857 31.1818 L45.3929 31.5091 L46.5 32.5636 L47.6071 33.1818 L48.7143 33.5455 L49.8214 34.3818 L50.9286 34.8545 L52.0357 35.2545 L53.1429 35.6909 L54.25 36.2364 L55.3571 36.7455 L56.4643 37.5091 L57.5714 37.3636 L58.6786 37.9455 L59.7857 38.1273 L60.8929 38.2364 L62 38.4909 L63.1071 38.7091 L64.2143 38.8545 L65.3214 39.1091 L66.4286 39.2909 L67.5357 39.5091 L68.6429 39.6545 L69.75 39.8 L70.8571 39.9818 L71.9643 40.0545 L73.0714 40.2364 L74.1786 40.3091 L75.2857 40.3455 L76.3929 40.4909 L77.5 40.5273 L78.6071 40.6 L79.7143 40.6 L80.8214 40.6364 L81.9286 40.6727 L83.0357 40.6364 L84.1429 40.6727 L85.25 40.7091 L86.3571 40.7818 L87.4643 40.7455 L88.5714 40.7818 L89.6786 40.7455 L90.7857 40.7818 L91.8929 40.7818 L93 40.7818 L93.5536 40.7818 M146.6964 40.5273 L147.25 40.2727 L148.3571 40.2 L149.4643 40.0182 L150.5714 39.8727 L151.6786 39.6545 L152.7857 39.5818 L153.8929 39.5818 L155 39.5091"/>
</g>
<g style="fill:none;stroke:#0000ff;stroke-width:1.3;" class="svgcurveline" id="svgthumb_us-mabel-m">
<path d=" M2.7679 40.8545 L3.3214 40.8182 L3.875 40.8545 M4.9821 40.8545 L5.5357 40.7818 L6.6429 40.8182 L7.1964 40.8182 M9.4107 40.8182 L9.9643 40.7818 L11.0714 40.7455 L12.1786 40.7455 L12.7321 40.8182 M13.8393 40.8182 L14.3929 40.7091 L14.9464 40.8182 M18.2679 40.8182 L18.8214 40.7091 L19.9286 40.8182 L20.4821 40.8182 M22.6964 40.8182 L23.25 40.6364 L24.3571 40.6727 L25.4643 40.7818 L26.5714 40.6727 L27.125 40.7818 M28.2321 40.7818 L28.7857 40.7455 L29.8929 40.7455 L31 40.7455 L32.1071 40.7818 L32.6607 40.8182"/>
</g>
</g>
</svg>