<svg viewBox="0 0 155 58" preserveAspectRatio="none" class="svggraph" id="svgthumb_us" style="overflow:visible;width:155px;height:58px;" xmlns="http://www.w3.org/2000/svg" xlink="http://www.w3.org/1999/xlink" title="Chart for maci">
<title>Last ranked
#455 in 2020</title>
<rect x="2" y="43" height="13" width="17" style="fill:rgb(200,200,200)"/>
<image x="2.5" y="43.5" href="/images/flags/24/us.png" preserveAspectRatio="xMinYMax meet" width="16" height="12"/>
<text x="153" y="55" class="svgtitle" text-anchor="end" style="fill:#000000;font-size:13px;">United States</text>
<line x1="0" y1="41" x2="155" y2="41" class="svggridline" style="stroke:rgb(200,200,200);stroke-width:1.3"/>
<g id="svgthumb_us-namepaths">
<g style="fill:none;stroke:#ff0000;stroke-width:1.3;" class="svgcurveline" id="svgthumb_us-maci-f">
<path d=" M126.7679 39 L127.3214 39 L127.875 39 M130.0893 39 L130.6429 38.6 L131.75 38.2 L132.8571 38 L133.9643 37 L135.0714 37.6 L136.1786 36 L137.2857 36 L138.3929 36 L139.5 36.8 L140.6071 37 L141.7143 37 L142.8214 36.6 L143.9286 27.2 L145.0357 23.2 L146.1429 25.8 L147.25 27 L148.3571 28.4 L149.4643 28.8 L150.5714 28.6 L151.6786 30.4 L152.7857 31.4 L153.8929 32 L155 33.4"/>
</g>
</g>
</svg>