<svg viewBox="0 0 155 58" preserveAspectRatio="none" class="svggraph" id="svgthumb_us" style="overflow:visible;width:155px;height:58px;" xmlns="http://www.w3.org/2000/svg" xlink="http://www.w3.org/1999/xlink" title="Chart for maddison">
<title>Last ranked
#475 in 2020</title>
<rect x="2" y="43" height="13" width="17" style="fill:rgb(200,200,200)"/>
<image x="2.5" y="43.5" href="/images/flags/24/us.png" preserveAspectRatio="xMinYMax meet" width="16" height="12"/>
<text x="153" y="55" class="svgtitle" text-anchor="end" style="fill:#000000;font-size:13px;">United States</text>
<line x1="0" y1="41" x2="155" y2="41" class="svggridline" style="stroke:rgb(200,200,200);stroke-width:1.3"/>
<g id="svgthumb_us-namepaths">
<g style="fill:none;stroke:#ff0000;stroke-width:1.3;" class="svgcurveline" id="svgthumb_us-maddison-f">
<path d=" M125.6607 36.5 L126.2143 34 L127.3214 31 L128.4286 29.5 L129.5357 28 L130.6429 26.5 L131.75 26.5 L132.8571 25 L133.9643 26.5 L135.0714 27 L136.1786 27 L137.2857 27 L138.3929 24 L139.5 22 L140.6071 20.5 L141.7143 16.5 L142.8214 12 L143.9286 12.5 L145.0357 15.5 L146.1429 17.5 L147.25 17.5 L148.3571 16 L149.4643 14 L150.5714 15.5 L151.6786 17.5 L152.7857 20.5 L153.8929 21 L155 23"/>
</g>
</g>
</svg>