<svg viewBox="0 0 155 58" preserveAspectRatio="none" class="svggraph" id="svgthumb_us" style="overflow:visible;width:155px;height:58px;" xmlns="http://www.w3.org/2000/svg" xlink="http://www.w3.org/1999/xlink" title="Chart for madelynn">
<title>Last ranked
#479 in 2020</title>
<rect x="2" y="43" height="13" width="17" style="fill:rgb(200,200,200)"/>
<image x="2.5" y="43.5" href="/images/flags/24/us.png" preserveAspectRatio="xMinYMax meet" width="16" height="12"/>
<text x="153" y="55" class="svgtitle" text-anchor="end" style="fill:#000000;font-size:13px;">United States</text>
<line x1="0" y1="41" x2="155" y2="41" class="svggridline" style="stroke:rgb(200,200,200);stroke-width:1.3"/>
<g id="svgthumb_us-namepaths">
<g style="fill:none;stroke:#ff0000;stroke-width:1.3;" class="svgcurveline" id="svgthumb_us-madelynn-f">
<path d=" M128.9821 35.2857 L129.5357 34.7143 L130.6429 30.1429 L131.75 30.7143 L132.8571 27.2857 L133.9643 26.7143 L135.0714 25.5714 L136.1786 26.1429 L137.2857 26.1429 L138.3929 26.1429 L139.5 26.1429 L140.6071 22.7143 L141.7143 18.1429 L142.8214 16.4286 L143.9286 17.5714 L145.0357 18.1429 L146.1429 18.1429 L147.25 18.1429 L148.3571 19.8571 L149.4643 18.7143 L150.5714 21 L151.6786 19.8571 L152.7857 21 L153.8929 19.8571 L155 20.4286"/>
</g>
</g>
</svg>