<svg viewBox="0 0 155 58" preserveAspectRatio="none" class="svggraph" id="svgthumb_us" style="overflow:visible;width:155px;height:58px;" xmlns="http://www.w3.org/2000/svg" xlink="http://www.w3.org/1999/xlink" title="Chart for madeleine">
<title>Last ranked
#394 in 2020</title>
<rect x="2" y="43" height="13" width="17" style="fill:rgb(200,200,200)"/>
<image x="2.5" y="43.5" href="/images/flags/24/us.png" preserveAspectRatio="xMinYMax meet" width="16" height="12"/>
<text x="153" y="55" class="svgtitle" text-anchor="end" style="fill:#000000;font-size:13px;">United States</text>
<line x1="0" y1="41" x2="155" y2="41" class="svggridline" style="stroke:rgb(200,200,200);stroke-width:1.3"/>
<g id="svgthumb_us-namepaths">
<g style="fill:none;stroke:#ff0000;stroke-width:1.3;" class="svgcurveline" id="svgthumb_us-madeleine-f">
<path d=" M0.5536 39.2222 L1.1071 38.7778 L1.6607 39.2222 M2.7679 39.2222 L3.3214 38.7778 L4.4286 36.5556 L5.5357 38.3333 L6.6429 37.8889 L7.75 34.7778 L8.8571 35.2222 L9.9643 37.8889 L11.0714 33.8889 L12.1786 32.5556 L13.2857 33.4444 L14.3929 33.8889 L15.5 32.1111 L16.6071 31.6667 L17.7143 32.5556 L18.8214 33.4444 L19.9286 33.4444 L21.0357 31.6667 L22.1429 33 L23.25 33 L24.3571 33.8889 L25.4643 32.5556 L26.5714 33.4444 L27.6786 35.2222 L28.7857 33 L29.8929 35.6667 L31 34.7778 L32.1071 33 L33.2143 35.6667 L34.3214 33.4444 L35.4286 31.2222 L36.5357 33 L37.6429 32.1111 L38.75 33.4444 L39.8571 34.7778 L40.9643 34.7778 L42.0714 34.3333 L43.1786 34.7778 L44.2857 33 L45.3929 32.5556 L46.5 32.5556 L47.6071 33.8889 L48.7143 33.4444 L49.8214 33 L50.9286 33 L52.0357 33.8889 L53.1429 34.7778 L54.25 34.3333 L55.3571 35.6667 L56.4643 35.6667 L57.5714 36.5556 L58.6786 35.6667 L59.7857 37 L60.8929 37 L62 36.1111 L63.1071 34.7778 L64.2143 34.3333 L65.3214 33.4444 L66.4286 33.8889 L67.5357 33.4444 L68.6429 32.1111 L69.75 34.3333 L70.8571 36.5556 L71.9643 35.6667 L73.0714 35.6667 L74.1786 35.6667 L75.2857 35.2222 L76.3929 35.6667 L77.5 36.1111 L78.6071 37.4444 L79.7143 37.4444 L80.8214 37.8889 L81.9286 38.3333 L83.0357 38.3333 L84.1429 38.3333 L85.25 38.7778 L85.8036 38.7778 M86.9107 38.7778 L87.4643 38.3333 L88.0179 38.3333 M116.8036 37.4444 L117.3571 37 L118.4643 35.6667 L119.5714 35.2222 L120.6786 34.7778 L121.7857 32.1111 L122.8929 30.7778 L124 29.4444 L125.1071 25.8889 L126.2143 20.1111 L127.3214 18.3333 L128.4286 15.6667 L129.5357 10.7778 L130.6429 8.5556 L131.75 14.7778 L132.8571 15.2222 L133.9643 16.1111 L135.0714 17 L136.1786 19.6667 L137.2857 19.6667 L138.3929 19.6667 L139.5 20.1111 L140.6071 16.5556 L141.7143 14.3333 L142.8214 19.2222 L143.9286 18.3333 L145.0357 18.3333 L146.1429 16.1111 L147.25 14.7778 L148.3571 14.7778 L149.4643 16.5556 L150.5714 19.2222 L151.6786 21 L152.7857 21 L153.8929 20.1111 L155 21"/>
</g>
</g>
</svg>