<svg viewBox="0 0 155 58" preserveAspectRatio="none" class="svggraph" id="svgthumb_us" style="overflow:visible;width:155px;height:58px;" xmlns="http://www.w3.org/2000/svg" xlink="http://www.w3.org/1999/xlink" title="Chart for madeline">
<title>Last ranked
#95 in 2020</title>
<rect x="2" y="43" height="13" width="17" style="fill:rgb(200,200,200)"/>
<image x="2.5" y="43.5" href="/images/flags/24/us.png" preserveAspectRatio="xMinYMax meet" width="16" height="12"/>
<text x="153" y="55" class="svgtitle" text-anchor="end" style="fill:#000000;font-size:13px;">United States</text>
<line x1="0" y1="41" x2="155" y2="41" class="svggridline" style="stroke:rgb(200,200,200);stroke-width:1.3"/>
<g id="svgthumb_us-namepaths">
<g style="fill:none;stroke:#ff0000;stroke-width:1.3;" class="svgcurveline" id="svgthumb_us-madeline-f">
<path d="M0 38.7 L1.1071 39.6 L2.2143 38.5 L3.3214 38.4 L4.4286 37.3 L5.5357 38.1 L6.6429 38.1 L7.75 37.6 L8.8571 36.8 L9.9643 36.3 L11.0714 36.2 L12.1786 34.6 L13.2857 34 L14.3929 32.6 L15.5 31.9 L16.6071 31.4 L17.7143 29.9 L18.8214 29.3 L19.9286 28.7 L21.0357 28.2 L22.1429 28.8 L23.25 27.6 L24.3571 28.3 L25.4643 26.6 L26.5714 27.6 L27.6786 27.7 L28.7857 27.7 L29.8929 27.7 L31 28.1 L32.1071 28.3 L33.2143 27.7 L34.3214 26.8 L35.4286 24.9 L36.5357 24.4 L37.6429 23.7 L38.75 24.7 L39.8571 25.9 L40.9643 25.6 L42.0714 26.5 L43.1786 26.9 L44.2857 26.7 L45.3929 26.7 L46.5 27.1 L47.6071 27 L48.7143 27.5 L49.8214 29.1 L50.9286 29.6 L52.0357 29.9 L53.1429 30.5 L54.25 30.8 L55.3571 31.2 L56.4643 32.6 L57.5714 32.9 L58.6786 33.1 L59.7857 33.7 L60.8929 34.4 L62 34.3 L63.1071 34.2 L64.2143 33.6 L65.3214 33.2 L66.4286 33.6 L67.5357 33.5 L68.6429 32 L69.75 33.3 L70.8571 34.4 L71.9643 35.2 L73.0714 35.3 L74.1786 35.7 L75.2857 35.6 L76.3929 35.9 L77.5 36.7 L78.6071 37 L79.7143 37.5 L80.8214 37.7 L81.9286 38 L83.0357 38 L84.1429 38.3 L85.25 38.5 L86.3571 38.2 L87.4643 38.1 L88.5714 38.2 L89.6786 38.3 L90.7857 38.1 L91.8929 38.4 L93 38.3 L94.1071 38.5 L95.2143 38.6 L96.3214 38.6 L97.4286 38.9 L98.5357 39 L99.6429 39.1 L100.75 39.2 L101.8571 39.3 L102.9643 39 L104.0714 39.3 L105.1786 39.3 L106.2857 39.4 L107.3929 39.5 L108.5 39.6 L109.6071 39.6 L110.7143 39.7 L111.8214 39.6 L112.9286 39.6 L114.0357 39.5 L115.1429 39.4 L116.25 38.9 L117.3571 36.4 L118.4643 36.3 L119.5714 36.2 L120.6786 35.1 L121.7857 33.7 L122.8929 31.3 L124 29.7 L125.1071 27.8 L126.2143 23 L127.3214 17.9 L128.4286 15.4 L129.5357 13.2 L130.6429 10.7 L131.75 17.5 L132.8571 14.1 L133.9643 14.6 L135.0714 15.1 L136.1786 16.2 L137.2857 17.4 L138.3929 18.7 L139.5 19.6 L140.6071 18.8 L141.7143 17.9 L142.8214 19.8 L143.9286 22.6 L145.0357 23.3 L146.1429 24.7 L147.25 23.5 L148.3571 23.4 L149.4643 23.9 L150.5714 24 L151.6786 25.3 L152.7857 25.3 L153.8929 25.3 L155 25.2"/>
</g>
</g>
</svg>