<svg viewBox="0 0 155 58" preserveAspectRatio="none" class="svggraph" id="svgthumb_us" style="overflow:visible;width:155px;height:58px;" xmlns="http://www.w3.org/2000/svg" xlink="http://www.w3.org/1999/xlink" title="Chart for madelyn">
<title>Last ranked
#66 in 2020</title>
<rect x="2" y="43" height="13" width="17" style="fill:rgb(200,200,200)"/>
<image x="2.5" y="43.5" href="/images/flags/24/us.png" preserveAspectRatio="xMinYMax meet" width="16" height="12"/>
<text x="153" y="55" class="svgtitle" text-anchor="end" style="fill:#000000;font-size:13px;">United States</text>
<line x1="0" y1="41" x2="155" y2="41" class="svggridline" style="stroke:rgb(200,200,200);stroke-width:1.3"/>
<g id="svgthumb_us-namepaths">
<g style="fill:none;stroke:#ff0000;stroke-width:1.3;" class="svgcurveline" id="svgthumb_us-madelyn-f">
<path d=" M13.8393 40.4667 L14.3929 40.3333 L14.9464 40.4667 M16.0536 40.4667 L16.6071 40.2 L17.7143 39.6667 L18.8214 39.9333 L19.9286 39.8 L21.0357 39.5333 L22.1429 39.4 L23.25 39.9333 L24.3571 39.8 L25.4643 38.7333 L26.5714 39.2667 L27.6786 39.5333 L28.7857 38.6 L29.8929 39.2667 L31 39.4 L32.1071 38.4667 L33.2143 39 L34.3214 38.8667 L35.4286 38.2 L36.5357 37.8 L37.6429 37.2667 L38.75 38.3333 L39.8571 37.9333 L40.9643 37.8 L42.0714 37.9333 L43.1786 37.8 L44.2857 37.8 L45.3929 37.5333 L46.5 37.8 L47.6071 37.6667 L48.7143 37.8 L49.8214 37.8 L50.9286 37.8 L52.0357 38.2 L53.1429 38.3333 L54.25 38.6 L55.3571 38.8667 L56.4643 39 L57.5714 39 L58.6786 39.2667 L59.7857 38.8667 L60.8929 39.5333 L62 39.6667 L63.1071 39 L64.2143 38.8667 L65.3214 38.4667 L66.4286 38.8667 L67.5357 38.6 L68.6429 38.3333 L69.75 39 L70.8571 39.1333 L71.9643 39.2667 L73.0714 38.7333 L74.1786 39.1333 L75.2857 39.1333 L76.3929 39 L77.5 39.1333 L78.6071 39.4 L79.7143 39.6667 L80.8214 39.4 L81.9286 39.6667 L83.0357 39.8 L84.1429 40.0667 L85.25 39.9333 L86.3571 39.8 L87.4643 39.9333 L88.5714 40.0667 L89.6786 39.9333 L90.7857 40.2 L91.8929 40.2 L93 40.2 L94.1071 40.2 L94.6607 40.2 M116.8036 39.9333 L117.3571 39.5333 L118.4643 39.6667 L119.5714 39.8 L120.6786 39.4 L121.7857 39.1333 L122.8929 38.7333 L124 38.3333 L125.1071 37.8 L126.2143 37.1333 L127.3214 36.0667 L128.4286 35 L129.5357 32.8667 L130.6429 27.8 L131.75 28.0667 L132.8571 23 L133.9643 21.8 L135.0714 21.8 L136.1786 21.1333 L137.2857 21.1333 L138.3929 21.1333 L139.5 22.2 L140.6071 20.7333 L141.7143 11.8 L142.8214 11.4 L143.9286 16.3333 L145.0357 16.2 L146.1429 14.8667 L147.25 13.8 L148.3571 11.5333 L149.4643 10.3333 L150.5714 11.8 L151.6786 13 L152.7857 14.7333 L153.8929 14.8667 L155 14.2"/>
</g>
</g>
</svg>