<svg viewBox="0 0 155 58" preserveAspectRatio="none" class="svggraph" id="svgthumb_us" style="overflow:visible;width:155px;height:58px;" xmlns="http://www.w3.org/2000/svg" xlink="http://www.w3.org/1999/xlink" title="Chart for madison">
<title>Last ranked
#23 in 2020 (f)
#857 in 2004 (m)</title>
<rect x="2" y="43" height="13" width="17" style="fill:rgb(200,200,200)"/>
<image x="2.5" y="43.5" href="/images/flags/24/us.png" preserveAspectRatio="xMinYMax meet" width="16" height="12"/>
<text x="153" y="55" class="svgtitle" text-anchor="end" style="fill:#000000;font-size:13px;">United States</text>
<line x1="0" y1="41" x2="155" y2="41" class="svggridline" style="stroke:rgb(200,200,200);stroke-width:1.3"/>
<g id="svgthumb_us-namepaths">
<g style="fill:none;stroke:#ff0000;stroke-width:1.3;" class="svgcurveline" id="svgthumb_us-madison-f">
<path d=" M115.6964 40.7333 L116.25 40.4667 L117.3571 39.8333 L118.4643 39.6667 L119.5714 39.5667 L120.6786 38.9667 L121.7857 38.7333 L122.8929 36.9667 L124 35.7333 L125.1071 33.6 L126.2143 30.3 L127.3214 24.0333 L128.4286 17.6667 L129.5357 14.4667 L130.6429 10.4 L131.75 10.0667 L132.8571 7.6333 L133.9643 3.7 L135.0714 4.2333 L136.1786 7.4333 L137.2857 6.9 L138.3929 8.8333 L139.5 11.3 L140.6071 12.7 L141.7143 13.7333 L142.8214 15.9 L143.9286 18.5667 L145.0357 19.6667 L146.1429 21.3667 L147.25 22.6667 L148.3571 23.4 L149.4643 23.7333 L150.5714 25.4 L151.6786 27.0667 L152.7857 28.3 L153.8929 29.5 L155 29.2"/>
</g>
<g style="fill:none;stroke:#0000ff;stroke-width:1.3;" class="svgcurveline" id="svgthumb_us-madison-m">
<path d="M0 40.3667 L1.1071 40.1333 L2.2143 40.2667 L3.3214 40.3333 L4.4286 40.4667 L5.5357 40.4333 L6.6429 40.5333 L7.75 40.4667 L8.8571 40.4667 L9.9643 40.3667 L11.0714 40.6 L12.1786 40.4 L13.2857 40.5 L14.3929 40.6667 L15.5 40.6667 L16.6071 40.6 L17.7143 40.6333 L18.8214 40.6333 L19.375 40.8333 M20.4821 40.8333 L21.0357 40.6333 L22.1429 40.6667 L23.25 40.8 L24.3571 40.8333 L25.4643 40.5333 L26.5714 40.7333 L27.6786 40.7 L28.7857 40.6667 L29.8929 40.6 L31 40.7667 L31.5536 40.8 M32.6607 40.8 L33.2143 40.7667 L34.3214 40.7 L35.4286 40.7333 L36.5357 40.7 L37.6429 40.7333 L38.75 40.7333 L39.8571 40.7667 L40.9643 40.8 L42.0714 40.8 L43.1786 40.8 L44.2857 40.8 L45.3929 40.8 L46.5 40.7667 L47.6071 40.7667 L48.7143 40.8 L49.8214 40.8 L50.9286 40.8333 L52.0357 40.8333 L53.1429 40.8667 L54.25 40.8333 L55.3571 40.8667 L55.9107 40.8667 M59.2321 40.8667 L59.7857 40.8667 L60.8929 40.8667 L62 40.8333 L62.5536 40.8667 M64.7679 40.8667 L65.3214 40.8667 L66.4286 40.8667 L66.9821 40.9 M70.3036 40.9 L70.8571 40.9 L71.4107 40.9 M72.5179 40.9 L73.0714 40.9 L74.1786 40.9 L74.7321 40.9 M78.0536 40.9 L78.6071 40.9 L79.7143 40.9 L80.2679 40.9 M117.9107 40.8667 L118.4643 40.7667 L119.5714 40.8333 L120.6786 40.8 L121.7857 40.7667 L122.8929 40.7333 L124 40.7 L125.1071 40.6333 L126.2143 40.6 L127.3214 40.5667 L128.4286 40.5667 L129.5357 40.5667 L130.6429 40.6333 L131.75 40.7333 L132.3036 40.7667 M136.7321 40.7333 L137.2857 40.6667 L137.8393 40.7333"/>
</g>
</g>
</svg>