<svg viewBox="0 0 155 58" preserveAspectRatio="none" class="svggraph" id="svgthumb_us" style="overflow:visible;width:155px;height:58px;" xmlns="http://www.w3.org/2000/svg" xlink="http://www.w3.org/1999/xlink" title="Chart for maeve">
<title>Last ranked
#173 in 2020</title>
<rect x="2" y="43" height="13" width="17" style="fill:rgb(200,200,200)"/>
<image x="2.5" y="43.5" href="/images/flags/24/us.png" preserveAspectRatio="xMinYMax meet" width="16" height="12"/>
<text x="153" y="55" class="svgtitle" text-anchor="end" style="fill:#000000;font-size:13px;">United States</text>
<line x1="0" y1="41" x2="155" y2="41" class="svggridline" style="stroke:rgb(200,200,200);stroke-width:1.3"/>
<g id="svgthumb_us-namepaths">
<g style="fill:none;stroke:#ff0000;stroke-width:1.3;" class="svgcurveline" id="svgthumb_us-maeve-f">
<path d=" M128.9821 39 L129.5357 38.8 L130.6429 38.6 L131.75 37.4 L132.8571 38 L133.9643 37.8 L135.0714 37.4 L136.1786 36.8 L137.2857 37.2 L138.3929 37 L139.5 36.8 L140.6071 36.4 L141.7143 36.4 L142.8214 36 L143.9286 35.4 L145.0357 36 L146.1429 35.2 L147.25 34.6 L148.3571 34.4 L149.4643 33.8 L150.5714 32.6 L151.6786 31.8 L152.7857 30.6 L153.8929 26.8 L155 22.4"/>
</g>
</g>
</svg>