<svg viewBox="0 0 155 58" preserveAspectRatio="none" class="svggraph" id="svgthumb_us" style="overflow:visible;width:155px;height:58px;" xmlns="http://www.w3.org/2000/svg" xlink="http://www.w3.org/1999/xlink" title="Chart for maggie">
<title>Last ranked
#293 in 2020 (f)
#798 in 1906 (m)</title>
<rect x="2" y="43" height="13" width="17" style="fill:rgb(200,200,200)"/>
<image x="2.5" y="43.5" href="/images/flags/24/us.png" preserveAspectRatio="xMinYMax meet" width="16" height="12"/>
<text x="153" y="55" class="svgtitle" text-anchor="end" style="fill:#000000;font-size:13px;">United States</text>
<line x1="0" y1="41" x2="155" y2="41" class="svggridline" style="stroke:rgb(200,200,200);stroke-width:1.3"/>
<g id="svgthumb_us-namepaths">
<g style="fill:none;stroke:#ff0000;stroke-width:1.3;" class="svgcurveline" id="svgthumb_us-maggie-f">
<path d="M0 6.9429 L1.1071 10.2571 L2.2143 10.0286 L3.3214 9.4571 L4.4286 9.9143 L5.5357 12.2 L6.6429 12.8857 L7.75 13.8 L8.8571 14.3714 L9.9643 16.0857 L11.0714 15.7429 L12.1786 16.5429 L13.2857 18.5429 L14.3929 18.5429 L15.5 19.3429 L16.6071 20.4286 L17.7143 21.2286 L18.8214 23.5143 L19.9286 22.7143 L21.0357 22.2 L22.1429 22.2 L23.25 24.2571 L24.3571 23.6286 L25.4643 25 L26.5714 25.2857 L27.6786 26.0857 L28.7857 25.6857 L29.8929 26.6571 L31 28.5429 L32.1071 28.6571 L33.2143 28.2 L34.3214 30.3714 L35.4286 31.1143 L36.5357 32.0857 L37.6429 33.4571 L38.75 33.9143 L39.8571 34.2571 L40.9643 34.5429 L42.0714 34.3714 L43.1786 34.0286 L44.2857 35.0571 L45.3929 35.1714 L46.5 35 L47.6071 35.2857 L48.7143 35.4571 L49.8214 35.5143 L50.9286 35.9143 L52.0357 35.9714 L53.1429 36.1429 L54.25 36.7714 L55.3571 37.1143 L56.4643 37.1714 L57.5714 37.2286 L58.6786 37.2857 L59.7857 37.1714 L60.8929 37.4 L62 37.5143 L63.1071 37.6857 L64.2143 38.0857 L65.3214 38.1429 L66.4286 38.5429 L67.5357 38.5429 L68.6429 38.7714 L69.75 38.7714 L70.8571 38.8286 L71.9643 39.1143 L73.0714 39.3429 L74.1786 39.3429 L75.2857 39.4 L76.3929 39.6286 L77.5 39.5714 L78.6071 39.8 L79.7143 39.8 L80.8214 40.0286 L81.9286 40.0286 L83.0357 40.0286 L84.1429 40.2 L85.25 40.2 L86.3571 40.1429 L87.4643 40.0286 L88.5714 40.0857 L89.6786 40.1429 L90.7857 40.2571 L91.8929 40.2 L93 40.2571 L94.1071 40.4286 L95.2143 40.4286 L96.3214 40.3143 L97.4286 40.4286 L98.5357 40.4286 L99.6429 40.4857 L100.75 40.3143 L101.8571 40.1429 L102.9643 39.7429 L104.0714 39.6857 L105.1786 39.5143 L106.2857 39.5143 L107.3929 39.5714 L108.5 39.8 L109.6071 39.4571 L110.7143 39.5143 L111.8214 39.4571 L112.9286 39.1143 L114.0357 38.6571 L115.1429 38.3143 L116.25 38.0857 L117.3571 38.4286 L118.4643 38.3143 L119.5714 38.3714 L120.6786 38.6 L121.7857 38.3143 L122.8929 38.3714 L124 38.0286 L125.1071 38.1429 L126.2143 37.4 L127.3214 37.6286 L128.4286 37.6857 L129.5357 37.8571 L130.6429 37.3429 L131.75 36.8286 L132.8571 36.3714 L133.9643 35.7429 L135.0714 36.0857 L136.1786 36.0857 L137.2857 36.3714 L138.3929 36.3143 L139.5 35.9143 L140.6071 35.9143 L141.7143 36.6 L142.8214 37 L143.9286 36.8857 L145.0357 36.8857 L146.1429 37.1714 L147.25 36.8857 L148.3571 37.0571 L149.4643 37.0571 L150.5714 37.1143 L151.6786 37.1143 L152.7857 37.5143 L153.8929 37.4571 L155 37.4571"/>
</g>
<g style="fill:none;stroke:#0000ff;stroke-width:1.3;" class="svgcurveline" id="svgthumb_us-maggie-m">
<path d=" M10.5179 40.7714 L11.0714 40.5429 L12.1786 40.6 L12.7321 40.7143 M19.375 40.7143 L19.9286 40.7143 L20.4821 40.7143 M28.2321 40.6571 L28.7857 40.6 L29.3393 40.7143"/>
</g>
</g>
</svg>