<svg viewBox="0 0 155 58" preserveAspectRatio="none" class="svggraph" id="svgthumb_us" style="overflow:visible;width:155px;height:58px;" xmlns="http://www.w3.org/2000/svg" xlink="http://www.w3.org/1999/xlink" title="Chart for magnolia">
<title>Last ranked
#177 in 2020</title>
<rect x="2" y="43" height="13" width="17" style="fill:rgb(200,200,200)"/>
<image x="2.5" y="43.5" href="/images/flags/24/us.png" preserveAspectRatio="xMinYMax meet" width="16" height="12"/>
<text x="153" y="55" class="svgtitle" text-anchor="end" style="fill:#000000;font-size:13px;">United States</text>
<line x1="0" y1="41" x2="155" y2="41" class="svggridline" style="stroke:rgb(200,200,200);stroke-width:1.3"/>
<g id="svgthumb_us-namepaths">
<g style="fill:none;stroke:#ff0000;stroke-width:1.3;" class="svgcurveline" id="svgthumb_us-magnolia-f">
<path d="M0 39.4 L1.1071 38.6 L2.2143 39.8 L3.3214 39.6 L4.4286 39.8 L4.9821 40.2 M6.0893 40.2 L6.6429 39 L7.75 39.8 L8.8571 39.6 L9.9643 39.2 L11.0714 40.2 L12.1786 39.4 L13.2857 39.8 L14.3929 39 L15.5 39.6 L16.6071 38.4 L17.7143 39 L18.8214 38.8 L19.9286 39.2 L21.0357 39.4 L22.1429 38.2 L23.25 39.6 L24.3571 37.6 L25.4643 37.6 L26.5714 38.2 L27.6786 38 L28.7857 38.2 L29.8929 38.6 L31 36.8 L32.1071 36.8 L33.2143 37 L34.3214 37.6 L35.4286 37.4 L36.5357 38.2 L37.6429 38.2 L38.75 38.6 L39.8571 38.6 L40.9643 39.2 L42.0714 38.6 L43.1786 38.6 L44.2857 39 L45.3929 38.6 L46.5 38.6 L47.6071 39 L48.7143 39.2 L49.8214 39 L50.9286 39.6 L52.0357 39.2 L53.1429 39.4 L54.25 39.6 L55.3571 39.4 L56.4643 39.8 L57.5714 39.6 L58.6786 39.4 L59.7857 40 L60.8929 39.6 L62 40 L63.1071 40 L64.2143 40 L64.7679 40.2 M65.875 40.2 L66.4286 39.6 L66.9821 40.2 M146.6964 38.4 L147.25 38.4 L148.3571 37.6 L149.4643 36.4 L150.5714 34.6 L151.6786 32.4 L152.7857 29.6 L153.8929 26.6 L155 22.8"/>
</g>
</g>
</svg>