<svg viewBox="0 0 155 58" preserveAspectRatio="none" class="svggraph" id="svgthumb_us" style="overflow:visible;width:155px;height:58px;" xmlns="http://www.w3.org/2000/svg" xlink="http://www.w3.org/1999/xlink" title="Chart for makayla">
<title>Last ranked
#326 in 2020</title>
<rect x="2" y="43" height="13" width="17" style="fill:rgb(200,200,200)"/>
<image x="2.5" y="43.5" href="/images/flags/24/us.png" preserveAspectRatio="xMinYMax meet" width="16" height="12"/>
<text x="153" y="55" class="svgtitle" text-anchor="end" style="fill:#000000;font-size:13px;">United States</text>
<line x1="0" y1="41" x2="155" y2="41" class="svggridline" style="stroke:rgb(200,200,200);stroke-width:1.3"/>
<g id="svgthumb_us-namepaths">
<g style="fill:none;stroke:#ff0000;stroke-width:1.3;" class="svgcurveline" id="svgthumb_us-makayla-f">
<path d=" M120.125 39.8 L120.6786 39.6667 L121.7857 39.4 L122.8929 39.1333 L124 38.2 L125.1071 35.8 L126.2143 30.7333 L127.3214 27.6667 L128.4286 23.9333 L129.5357 17.6667 L130.6429 11 L131.75 8.2 L132.8571 8.2 L133.9643 5.2667 L135.0714 4.0667 L136.1786 3.9333 L137.2857 3.5333 L138.3929 3.4 L139.5 5 L140.6071 6.8667 L141.7143 2.8667 L142.8214 6.3333 L143.9286 4.3333 L145.0357 10.3333 L146.1429 15 L147.25 18.2 L148.3571 23.4 L149.4643 25.5333 L150.5714 27.6667 L151.6786 30.3333 L152.7857 31.1333 L153.8929 31.8 L155 33.8"/>
</g>
</g>
</svg>