<svg viewBox="0 0 155 58" preserveAspectRatio="none" class="svggraph" id="svgthumb_us" style="overflow:visible;width:155px;height:58px;" xmlns="http://www.w3.org/2000/svg" xlink="http://www.w3.org/1999/xlink" title="Chart for makenna">
<title>Last ranked
#401 in 2020</title>
<rect x="2" y="43" height="13" width="17" style="fill:rgb(200,200,200)"/>
<image x="2.5" y="43.5" href="/images/flags/24/us.png" preserveAspectRatio="xMinYMax meet" width="16" height="12"/>
<text x="153" y="55" class="svgtitle" text-anchor="end" style="fill:#000000;font-size:13px;">United States</text>
<line x1="0" y1="41" x2="155" y2="41" class="svggridline" style="stroke:rgb(200,200,200);stroke-width:1.3"/>
<g id="svgthumb_us-namepaths">
<g style="fill:none;stroke:#ff0000;stroke-width:1.3;" class="svgcurveline" id="svgthumb_us-makenna-f">
<path d=" M125.6607 37.4 L126.2143 36.6 L127.3214 34.6 L128.4286 31.8 L129.5357 28.6 L130.6429 28.2 L131.75 18.2 L132.8571 17.8 L133.9643 16.6 L135.0714 14.2 L136.1786 12.2 L137.2857 11.8 L138.3929 9 L139.5 12.6 L140.6071 13.4 L141.7143 12.6 L142.8214 13.8 L143.9286 9.4 L145.0357 11 L146.1429 12.6 L147.25 14.2 L148.3571 17.4 L149.4643 18.2 L150.5714 19.8 L151.6786 20.2 L152.7857 19.8 L153.8929 22.6 L155 23.4"/>
</g>
</g>
</svg>