<svg viewBox="0 0 155 58" preserveAspectRatio="none" class="svggraph" id="svgthumb_us" style="overflow:visible;width:155px;height:58px;" xmlns="http://www.w3.org/2000/svg" xlink="http://www.w3.org/1999/xlink" title="Chart for makenzie">
<title>Last ranked
#344 in 2020</title>
<rect x="2" y="43" height="13" width="17" style="fill:rgb(200,200,200)"/>
<image x="2.5" y="43.5" href="/images/flags/24/us.png" preserveAspectRatio="xMinYMax meet" width="16" height="12"/>
<text x="153" y="55" class="svgtitle" text-anchor="end" style="fill:#000000;font-size:13px;">United States</text>
<line x1="0" y1="41" x2="155" y2="41" class="svggridline" style="stroke:rgb(200,200,200);stroke-width:1.3"/>
<g id="svgthumb_us-namepaths">
<g style="fill:none;stroke:#ff0000;stroke-width:1.3;" class="svgcurveline" id="svgthumb_us-makenzie-f">
<path d=" M122.3393 39.2 L122.8929 38.2 L124 37.2 L125.1071 35.6 L126.2143 34.6 L127.3214 33.4 L128.4286 31.2 L129.5357 30.6 L130.6429 29 L131.75 26.4 L132.8571 24.8 L133.9643 24.2 L135.0714 24.6 L136.1786 25.2 L137.2857 25 L138.3929 24.2 L139.5 24 L140.6071 22.6 L141.7143 21.2 L142.8214 22.2 L143.9286 20.6 L145.0357 18.2 L146.1429 19 L147.25 20.8 L148.3571 22.8 L149.4643 25.2 L150.5714 27.4 L151.6786 29.4 L152.7857 29.8 L153.8929 30.6 L155 30.8"/>
</g>
</g>
</svg>