<svg viewBox="0 0 155 58" preserveAspectRatio="none" class="svggraph" id="svgthumb_us" style="overflow:visible;width:155px;height:58px;" xmlns="http://www.w3.org/2000/svg" xlink="http://www.w3.org/1999/xlink" title="Chart for malia">
<title>Last ranked
#257 in 2020</title>
<rect x="2" y="43" height="13" width="17" style="fill:rgb(200,200,200)"/>
<image x="2.5" y="43.5" href="/images/flags/24/us.png" preserveAspectRatio="xMinYMax meet" width="16" height="12"/>
<text x="153" y="55" class="svgtitle" text-anchor="end" style="fill:#000000;font-size:13px;">United States</text>
<line x1="0" y1="41" x2="155" y2="41" class="svggridline" style="stroke:rgb(200,200,200);stroke-width:1.3"/>
<g id="svgthumb_us-namepaths">
<g style="fill:none;stroke:#ff0000;stroke-width:1.3;" class="svgcurveline" id="svgthumb_us-malia-f">
<path d=" M106.8393 37.8 L107.3929 37.4 L108.5 37.4 L109.0536 37.8 M110.1607 37.8 L110.7143 37.8 L111.8214 37.8 L112.9286 37.4 L114.0357 37.8 L115.1429 37.8 L115.6964 37.8 M125.6607 37.4 L126.2143 37 L127.3214 36.2 L128.4286 35.4 L129.5357 34.6 L130.6429 33.8 L131.75 32.2 L132.8571 30.2 L133.9643 29 L135.0714 27 L136.1786 27 L137.2857 27.4 L138.3929 26.2 L139.5 26.2 L140.6071 25.4 L141.7143 22.6 L142.8214 7.4 L143.9286 19 L145.0357 20.2 L146.1429 22.6 L147.25 21 L148.3571 21.4 L149.4643 19.8 L150.5714 15.4 L151.6786 10.6 L152.7857 13.4 L153.8929 13.4 L155 14.6"/>
</g>
</g>
</svg>