<svg viewBox="0 0 155 58" preserveAspectRatio="none" class="svggraph" id="svgthumb_us" style="overflow:visible;width:155px;height:58px;" xmlns="http://www.w3.org/2000/svg" xlink="http://www.w3.org/1999/xlink" title="Chart for margaret">
<title>Last ranked
#126 in 2020 (f)
#846 in 1943 (m)</title>
<rect x="2" y="43" height="13" width="17" style="fill:rgb(200,200,200)"/>
<image x="2.5" y="43.5" href="/images/flags/24/us.png" preserveAspectRatio="xMinYMax meet" width="16" height="12"/>
<text x="153" y="55" class="svgtitle" text-anchor="end" style="fill:#000000;font-size:13px;">United States</text>
<line x1="0" y1="41" x2="155" y2="41" class="svggridline" style="stroke:rgb(200,200,200);stroke-width:1.3"/>
<g id="svgthumb_us-namepaths">
<g style="fill:none;stroke:#ff0000;stroke-width:1.3;" class="svgcurveline" id="svgthumb_us-margaret-f">
<path d="M0 14.05 L1.1071 13.05 L2.2143 14.7667 L3.3214 14.8833 L4.4286 15.05 L5.5357 15.1167 L6.6429 16.3333 L7.75 15.0667 L8.8571 15.45 L9.9643 15.3 L11.0714 15.3833 L12.1786 15.0167 L13.2857 15.55 L14.3929 14.6167 L15.5 14.8667 L16.6071 14.4833 L17.7143 14.2167 L18.8214 13.1667 L19.9286 12.45 L21.0357 12.3833 L22.1429 13.1833 L23.25 12 L24.3571 11.2 L25.4643 10.7667 L26.5714 10.7833 L27.6786 10.4 L28.7857 8.5833 L29.8929 7.85 L31 8.2 L32.1071 7.6833 L33.2143 8.3167 L34.3214 6 L35.4286 5.3833 L36.5357 4.1333 L37.6429 3.8333 L38.75 3.4667 L39.8571 2.7 L40.9643 3.0833 L42.0714 3.3833 L43.1786 3.7667 L44.2857 3.5 L45.3929 3.9167 L46.5 5.1167 L47.6071 6.2167 L48.7143 6.85 L49.8214 8.7167 L50.9286 9.7333 L52.0357 11.4 L53.1429 12.7 L54.25 13.35 L55.3571 14.7833 L56.4643 14.8333 L57.5714 16.0667 L58.6786 16.7167 L59.7857 17.6833 L60.8929 18.4167 L62 18.4333 L63.1071 18.1 L64.2143 18.6167 L65.3214 19.0333 L66.4286 19.75 L67.5357 20 L68.6429 21.1667 L69.75 21.0833 L70.8571 21.1 L71.9643 21.5833 L73.0714 22.2667 L74.1786 22.5667 L75.2857 22.95 L76.3929 22.5333 L77.5 23.8333 L78.6071 25.0333 L79.7143 26.0167 L80.8214 27.0167 L81.9286 28.25 L83.0357 29 L84.1429 29.7333 L85.25 30.6667 L86.3571 31.0667 L87.4643 31.7167 L88.5714 31.9 L89.6786 32.5333 L90.7857 32.7167 L91.8929 33.2 L93 33.25 L94.1071 33.9 L95.2143 34.4 L96.3214 34.95 L97.4286 35.7 L98.5357 36.2333 L99.6429 36.7167 L100.75 37.2 L101.8571 37.6 L102.9643 37.6 L104.0714 37.7167 L105.1786 37.85 L106.2857 38.1667 L107.3929 38.3333 L108.5 38.3333 L109.6071 38.2667 L110.7143 38.3167 L111.8214 38.4 L112.9286 38.25 L114.0357 38.25 L115.1429 38.1833 L116.25 38.2333 L117.3571 38.2167 L118.4643 38.2 L119.5714 38.2833 L120.6786 38.25 L121.7857 38.2667 L122.8929 38.3833 L124 38.3 L125.1071 38.3167 L126.2143 38.35 L127.3214 38.2 L128.4286 38.3 L129.5357 38.4167 L130.6429 38.45 L131.75 38.4667 L132.8571 38.4 L133.9643 38.5667 L135.0714 38.7333 L136.1786 38.8167 L137.2857 38.9833 L138.3929 39.1 L139.5 39.25 L140.6071 39.4 L141.7143 39.5167 L142.8214 39.55 L143.9286 39.55 L145.0357 39.5333 L146.1429 39.4667 L147.25 39.4667 L148.3571 39.3333 L149.4643 39.2 L150.5714 39.0833 L151.6786 39 L152.7857 38.9 L153.8929 38.9833 L155 38.9333"/>
</g>
<g style="fill:none;stroke:#0000ff;stroke-width:1.3;" class="svgcurveline" id="svgthumb_us-margaret-m">
<path d=" M0.5536 40.9333 L1.1071 40.8667 L2.2143 40.9 L3.3214 40.8 L4.4286 40.8667 L5.5357 40.85 L6.6429 40.8833 L7.75 40.8 L8.8571 40.8667 L9.9643 40.8167 L11.0714 40.7833 L12.1786 40.8167 L13.2857 40.85 L14.3929 40.8 L15.5 40.8 L16.6071 40.8833 L17.7143 40.9 L18.8214 40.8833 L19.9286 40.8 L21.0357 40.8167 L22.1429 40.8333 L23.25 40.7 L24.3571 40.7167 L25.4643 40.7 L26.5714 40.7667 L27.6786 40.85 L28.7857 40.8167 L29.8929 40.65 L31 40.7667 L32.1071 40.7167 L33.2143 40.75 L34.3214 40.8 L35.4286 40.8333 L36.5357 40.8833 L37.6429 40.8833 L38.75 40.9 L39.8571 40.9 L40.9643 40.9 L42.0714 40.9 L43.1786 40.9 L44.2857 40.9167 L45.3929 40.9167 L45.9464 40.9333 M47.0536 40.9333 L47.6071 40.9167 L48.7143 40.8667 L49.8214 40.8833 L50.9286 40.8667 L52.0357 40.8833 L53.1429 40.8667 L54.25 40.8833 L55.3571 40.9 L56.4643 40.8833 L57.5714 40.8667 L58.6786 40.9 L59.7857 40.9 L60.8929 40.8833 L62 40.8667 L63.1071 40.9 L64.2143 40.9 L65.3214 40.9 L66.4286 40.9 L67.5357 40.9333 L68.6429 40.9167 L69.75 40.9333 L70.3036 40.95"/>
</g>
</g>
</svg>