<svg viewBox="0 0 155 58" preserveAspectRatio="none" class="svggraph" id="svgthumb_us" style="overflow:visible;width:155px;height:58px;" xmlns="http://www.w3.org/2000/svg" xlink="http://www.w3.org/1999/xlink" title="Chart for mariah">
<title>Last ranked
#305 in 2020</title>
<rect x="2" y="43" height="13" width="17" style="fill:rgb(200,200,200)"/>
<image x="2.5" y="43.5" href="/images/flags/24/us.png" preserveAspectRatio="xMinYMax meet" width="16" height="12"/>
<text x="153" y="55" class="svgtitle" text-anchor="end" style="fill:#000000;font-size:13px;">United States</text>
<line x1="0" y1="41" x2="155" y2="41" class="svggridline" style="stroke:rgb(200,200,200);stroke-width:1.3"/>
<g id="svgthumb_us-namepaths">
<g style="fill:none;stroke:#ff0000;stroke-width:1.3;" class="svgcurveline" id="svgthumb_us-mariah-f">
<path d="M0 37.9333 L1.1071 39.2667 L2.2143 38.4667 L3.3214 39.4 L4.4286 39 L5.5357 38.6 L6.6429 38.8667 L7.75 38.4667 L8.8571 39.6667 L9.9643 38.8667 L11.0714 39 L12.1786 39.5333 L13.2857 39.6667 L14.3929 39.4 L15.5 39.1333 L16.6071 39.4 L17.7143 39.8 L18.8214 39.6667 L19.9286 39.8 L21.0357 40.0667 L22.1429 39.8 L23.25 40.2 L24.3571 39.9333 L25.4643 39.9333 L26.5714 39.9333 L27.6786 39.9333 L28.7857 39.9333 L29.8929 40.3333 L31 40.2 L31.5536 40.3333 M32.6607 40.3333 L33.2143 40.2 L34.3214 40.2 L34.875 40.3333 M35.9821 40.3333 L36.5357 40.3333 L37.0893 40.3333 M102.4107 40.0667 L102.9643 39.8 L103.5179 39.9333 M104.625 39.9333 L105.1786 39.6667 L106.2857 39.4 L107.3929 38.6 L108.5 38.6 L109.6071 38.6 L110.7143 38.0667 L111.8214 38.6 L112.9286 38.3333 L114.0357 38.4667 L115.1429 38.7333 L116.25 38.4667 L117.3571 39 L118.4643 37.9333 L119.5714 38.0667 L120.6786 38.3333 L121.7857 33.8 L122.8929 7 L124 9.6667 L125.1071 13.2667 L126.2143 8.4667 L127.3214 7.9333 L128.4286 3.1333 L129.5357 7.4 L130.6429 6.0667 L131.75 9.1333 L132.8571 13.5333 L133.9643 16.8667 L135.0714 23 L136.1786 20.6 L137.2857 21.2667 L138.3929 15.8 L139.5 15 L140.6071 17.6667 L141.7143 15.1333 L142.8214 17.2667 L143.9286 19.8 L145.0357 20.4667 L146.1429 21.1333 L147.25 21.8 L148.3571 24.6 L149.4643 26.6 L150.5714 27.6667 L151.6786 29.5333 L152.7857 30.7333 L153.8929 32.3333 L155 33"/>
</g>
</g>
</svg>