<svg viewBox="0 0 155 58" preserveAspectRatio="none" class="svggraph" id="svgthumb_us" style="overflow:visible;width:155px;height:58px;" xmlns="http://www.w3.org/2000/svg" xlink="http://www.w3.org/1999/xlink" title="Chart for maria">
<title>Last ranked
#109 in 2020 (f)
#967 in 1989 (m)</title>
<rect x="2" y="43" height="13" width="17" style="fill:rgb(200,200,200)"/>
<image x="2.5" y="43.5" href="/images/flags/24/us.png" preserveAspectRatio="xMinYMax meet" width="16" height="12"/>
<text x="153" y="55" class="svgtitle" text-anchor="end" style="fill:#000000;font-size:13px;">United States</text>
<line x1="0" y1="41" x2="155" y2="41" class="svggridline" style="stroke:rgb(200,200,200);stroke-width:1.3"/>
<g id="svgthumb_us-namepaths">
<g style="fill:none;stroke:#ff0000;stroke-width:1.3;" class="svgcurveline" id="svgthumb_us-maria-f">
<path d="M0 32.4667 L1.1071 32.9333 L2.2143 34 L3.3214 33.2 L4.4286 31.8 L5.5357 32.8 L6.6429 33.2 L7.75 32.2667 L8.8571 32.6 L9.9643 32.6 L11.0714 32.8667 L12.1786 32.6 L13.2857 32.0667 L14.3929 33.4667 L15.5 32.2667 L16.6071 33.0667 L17.7143 32.7333 L18.8214 32.8667 L19.9286 33 L21.0357 33.8667 L22.1429 32.8667 L23.25 31.8 L24.3571 33.1333 L25.4643 31.9333 L26.5714 32.0667 L27.6786 31.7333 L28.7857 32.7333 L29.8929 31.3333 L31 32 L32.1071 31.1333 L33.2143 31.1333 L34.3214 31.2667 L35.4286 31.6 L36.5357 31.7333 L37.6429 31.6667 L38.75 32.6 L39.8571 33.2667 L40.9643 32.4667 L42.0714 32.4667 L43.1786 31.4667 L44.2857 30.6 L45.3929 30.4667 L46.5 30.6667 L47.6071 30.3333 L48.7143 29.2 L49.8214 28.5333 L50.9286 28.2667 L52.0357 27 L53.1429 26.6667 L54.25 26.4 L55.3571 26.4667 L56.4643 27.8 L57.5714 28.6667 L58.6786 29.1333 L59.7857 28.7333 L60.8929 28.8 L62 28.7333 L63.1071 29.2 L64.2143 29.2667 L65.3214 28.8 L66.4286 28.9333 L67.5357 27.8 L68.6429 27.4667 L69.75 27.6667 L70.8571 24.6 L71.9643 24.6 L73.0714 24.6 L74.1786 23.7333 L75.2857 22.6 L76.3929 21.5333 L77.5 21.7333 L78.6071 22.1333 L79.7143 21.0667 L80.8214 20.3333 L81.9286 18.9333 L83.0357 20.3333 L84.1429 19.2 L85.25 19.4667 L86.3571 18.7333 L87.4643 17.7333 L88.5714 16.8667 L89.6786 15.5333 L90.7857 11.1333 L91.8929 8 L93 6.4667 L94.1071 6.4667 L95.2143 6.3333 L96.3214 6.5333 L97.4286 8.3333 L98.5357 9.2667 L99.6429 9.4 L100.75 10.0667 L101.8571 9.1333 L102.9643 8.1333 L104.0714 7.8 L105.1786 8.8 L106.2857 9.8667 L107.3929 12.2667 L108.5 12.5333 L109.6071 12.6667 L110.7143 11.5333 L111.8214 12.4 L112.9286 14 L114.0357 15.4667 L115.1429 18.3333 L116.25 19.2667 L117.3571 18.8667 L118.4643 20.8 L119.5714 21.2 L120.6786 19.8 L121.7857 17.6667 L122.8929 17.6 L124 17.4 L125.1071 17.4 L126.2143 17.9333 L127.3214 16.7333 L128.4286 14.6 L129.5357 15.4667 L130.6429 17.5333 L131.75 16.9333 L132.8571 18.1333 L133.9643 18 L135.0714 19.4667 L136.1786 20.8 L137.2857 22 L138.3929 22.6 L139.5 23.1333 L140.6071 24.8667 L141.7143 26.3333 L142.8214 27.4 L143.9286 29.4 L145.0357 29.9333 L146.1429 30.6 L147.25 31.2667 L148.3571 31.5333 L149.4643 31.3333 L150.5714 31.3333 L151.6786 31.4 L152.7857 31.6 L153.8929 31.0667 L155 31.6667"/>
</g>
<g style="fill:none;stroke:#0000ff;stroke-width:1.3;" class="svgcurveline" id="svgthumb_us-maria-m">
<path d=" M51.4821 40.7333 L52.0357 40.7333 L52.5893 40.7333 M54.8036 40.7333 L55.3571 40.6667 L55.9107 40.7333 M60.3393 40.7333 L60.8929 40.7333 L61.4464 40.7333 M94.6607 40.8 L95.2143 40.8 L96.3214 40.8 L96.875 40.8 M97.9821 40.8 L98.5357 40.7333 L99.0893 40.8 M104.625 40.7333 L105.1786 40.6667 L105.7321 40.7333 M109.0536 40.7333 L109.6071 40.6667 L110.1607 40.7333 M111.2679 40.7333 L111.8214 40.6667 L112.9286 40.6 L113.4821 40.7333 M114.5893 40.7333 L115.1429 40.6667 L116.25 40.6667 L117.3571 40.6667 L118.4643 40.6667 L119.5714 40.6667 L120.6786 40.6667 L121.2321 40.6667"/>
</g>
</g>
</svg>