<svg viewBox="0 0 155 58" preserveAspectRatio="none" class="svggraph" id="svgthumb_us" style="overflow:visible;width:155px;height:58px;" xmlns="http://www.w3.org/2000/svg" xlink="http://www.w3.org/1999/xlink" title="Chart for mariana">
<title>Last ranked
#276 in 2020</title>
<rect x="2" y="43" height="13" width="17" style="fill:rgb(200,200,200)"/>
<image x="2.5" y="43.5" href="/images/flags/24/us.png" preserveAspectRatio="xMinYMax meet" width="16" height="12"/>
<text x="153" y="55" class="svgtitle" text-anchor="end" style="fill:#000000;font-size:13px;">United States</text>
<line x1="0" y1="41" x2="155" y2="41" class="svggridline" style="stroke:rgb(200,200,200);stroke-width:1.3"/>
<g id="svgthumb_us-namepaths">
<g style="fill:none;stroke:#ff0000;stroke-width:1.3;" class="svgcurveline" id="svgthumb_us-mariana-f">
<path d=" M110.1607 39.4 L110.7143 38.2 L111.8214 38.6 L112.9286 39 L114.0357 38.8 L115.1429 38.8 L116.25 38.8 L117.3571 39 L118.4643 38.6 L119.5714 38.2 L120.6786 37.4 L121.7857 36.4 L122.8929 36.4 L124 36.6 L125.1071 35.8 L126.2143 35.2 L127.3214 34.6 L128.4286 34.6 L129.5357 34.2 L130.6429 32 L131.75 31.8 L132.8571 31.6 L133.9643 29.2 L135.0714 28.4 L136.1786 28 L137.2857 21.2 L138.3929 20.6 L139.5 22 L140.6071 22.4 L141.7143 24.8 L142.8214 26.4 L143.9286 28.2 L145.0357 30 L146.1429 30.4 L147.25 31.2 L148.3571 30.6 L149.4643 29.8 L150.5714 29.4 L151.6786 29.4 L152.7857 28.6 L153.8929 27.4 L155 28.2"/>
</g>
</g>
</svg>