<svg viewBox="0 0 155 58" preserveAspectRatio="none" class="svggraph" id="svgthumb_us" style="overflow:visible;width:155px;height:58px;" xmlns="http://www.w3.org/2000/svg" xlink="http://www.w3.org/1999/xlink" title="Chart for marlee">
<title>Last ranked
#430 in 2020</title>
<rect x="2" y="43" height="13" width="17" style="fill:rgb(200,200,200)"/>
<image x="2.5" y="43.5" href="/images/flags/24/us.png" preserveAspectRatio="xMinYMax meet" width="16" height="12"/>
<text x="153" y="55" class="svgtitle" text-anchor="end" style="fill:#000000;font-size:13px;">United States</text>
<line x1="0" y1="41" x2="155" y2="41" class="svggridline" style="stroke:rgb(200,200,200);stroke-width:1.3"/>
<g id="svgthumb_us-namepaths">
<g style="fill:none;stroke:#ff0000;stroke-width:1.3;" class="svgcurveline" id="svgthumb_us-marlee-f">
<path d=" M123.4464 35.8571 L124 34.7143 L125.1071 32.4286 L126.2143 34.7143 L126.7679 35.2857 M127.875 35.2857 L128.4286 34.7143 L128.9821 35.2857 M130.0893 35.2857 L130.6429 34.7143 L131.75 34.7143 L132.8571 34.7143 L133.9643 34.1429 L135.0714 34.1429 L136.1786 33 L137.2857 32.4286 L138.3929 31.8571 L139.5 31.2857 L140.6071 31.2857 L141.7143 16.4286 L142.8214 18.7143 L143.9286 23.8571 L145.0357 25 L146.1429 24.4286 L147.25 21.5714 L148.3571 21.5714 L149.4643 20.4286 L150.5714 19.8571 L151.6786 21.5714 L152.7857 21 L153.8929 19.2857 L155 18.1429"/>
</g>
</g>
</svg>