<svg viewBox="0 0 155 58" preserveAspectRatio="none" class="svggraph" id="svgthumb_us" style="overflow:visible;width:155px;height:58px;" xmlns="http://www.w3.org/2000/svg" xlink="http://www.w3.org/1999/xlink" title="Chart for marley">
<title>Last ranked
#211 in 2020 (f)
#939 in 2020 (m)</title>
<rect x="2" y="43" height="13" width="17" style="fill:rgb(200,200,200)"/>
<image x="2.5" y="43.5" href="/images/flags/24/us.png" preserveAspectRatio="xMinYMax meet" width="16" height="12"/>
<text x="153" y="55" class="svgtitle" text-anchor="end" style="fill:#000000;font-size:13px;">United States</text>
<line x1="0" y1="41" x2="155" y2="41" class="svggridline" style="stroke:rgb(200,200,200);stroke-width:1.3"/>
<g id="svgthumb_us-namepaths">
<g style="fill:none;stroke:#ff0000;stroke-width:1.3;" class="svgcurveline" id="svgthumb_us-marley-f">
<path d=" M125.6607 39.2 L126.2143 38.8 L127.3214 38.8 L128.4286 38.6 L129.5357 38.6 L130.6429 38 L131.75 37.8 L132.8571 37.6 L133.9643 36.8 L135.0714 37 L136.1786 36.2 L137.2857 35.4 L138.3929 34.6 L139.5 33.6 L140.6071 33 L141.7143 18.4 L142.8214 19.6 L143.9286 27.2 L145.0357 28.2 L146.1429 28.2 L147.25 25.2 L148.3571 24.2 L149.4643 25.6 L150.5714 25.6 L151.6786 25.4 L152.7857 25.8 L153.8929 26.4 L155 25.6"/>
</g>
<g style="fill:none;stroke:#0000ff;stroke-width:1.3;" class="svgcurveline" id="svgthumb_us-marley-m">
<path d=" M141.1607 39.2 L141.7143 38.4 L142.8214 38.4 L143.9286 38.8 L144.4821 39 M146.6964 39 L147.25 38.6 L148.3571 38.2 L149.4643 38.4 L150.5714 38.4 L151.6786 38.8 L152.7857 38.4 L153.3393 38.8 M154.4464 38.8 L155 38.4"/>
</g>
</g>
</svg>