<svg viewBox="0 0 155 58" preserveAspectRatio="none" class="svggraph" id="svgthumb_us" style="overflow:visible;width:155px;height:58px;" xmlns="http://www.w3.org/2000/svg" xlink="http://www.w3.org/1999/xlink" title="Chart for mary">
<title>Last ranked
#124 in 2020 (f)
#928 in 1972 (m)</title>
<rect x="2" y="43" height="13" width="17" style="fill:rgb(200,200,200)"/>
<image x="2.5" y="43.5" href="/images/flags/24/us.png" preserveAspectRatio="xMinYMax meet" width="16" height="12"/>
<text x="153" y="55" class="svgtitle" text-anchor="end" style="fill:#000000;font-size:13px;">United States</text>
<line x1="0" y1="41" x2="155" y2="41" class="svggridline" style="stroke:rgb(200,200,200);stroke-width:1.3"/>
<g id="svgthumb_us-namepaths">
<g style="fill:none;stroke:#ff0000;stroke-width:1.3;" class="svgcurveline" id="svgthumb_us-mary-f">
<path d="M0 1.3397 L1.1071 2.6493 L2.2143 2.4082 L3.3214 4.4356 L4.4286 4.2932 L5.5357 5.7616 L6.6429 5.7562 L7.75 6.1397 L8.8571 7.0055 L9.9643 7.2685 L11.0714 8.1836 L12.1786 8.3753 L13.2857 8.9123 L14.3929 9.8986 L15.5 10.463 L16.6071 11.1808 L17.7143 10.9671 L18.8214 11.4 L19.9286 12.2055 L21.0357 11.8384 L22.1429 12.1945 L23.25 12.6877 L24.3571 12.6877 L25.4643 12.8849 L26.5714 12.9671 L27.6786 12.589 L28.7857 12.3808 L29.8929 12.4521 L31 12.1507 L32.1071 12.3315 L33.2143 11.1589 L34.3214 10.7534 L35.4286 10.8301 L36.5357 10.3425 L37.6429 9.811 L38.75 9.8603 L39.8571 9.9918 L40.9643 9.6575 L42.0714 10.2986 L43.1786 10.2877 L44.2857 9.7342 L45.3929 9.3233 L46.5 9.3014 L47.6071 9.663 L48.7143 9.9041 L49.8214 10.3808 L50.9286 10.7863 L52.0357 9.6959 L53.1429 10.3479 L54.25 10.9342 L55.3571 10.8685 L56.4643 11.0658 L57.5714 11.3397 L58.6786 11.9151 L59.7857 12.1781 L60.8929 13.2301 L62 13.3507 L63.1071 13.3288 L64.2143 14.0137 L65.3214 14.474 L66.4286 14.9288 L67.5357 15.4767 L68.6429 16.074 L69.75 15.7397 L70.8571 15.9479 L71.9643 16.8685 L73.0714 18.0795 L74.1786 19.389 L75.2857 19.4274 L76.3929 20.1288 L77.5 20.6 L78.6071 21.5041 L79.7143 22.0959 L80.8214 22.7151 L81.9286 22.2822 L83.0357 23.7342 L84.1429 24.5726 L85.25 25.0384 L86.3571 26.1781 L87.4643 26.6384 L88.5714 27.4384 L89.6786 28.4192 L90.7857 29.2466 L91.8929 29.5479 L93 29.526 L94.1071 30.726 L95.2143 31.9863 L96.3214 32.9178 L97.4286 34.0356 L98.5357 34.8301 L99.6429 35.2575 L100.75 35.7781 L101.8571 36.326 L102.9643 36.6603 L104.0714 36.8904 L105.1786 37.1479 L106.2857 37.4055 L107.3929 37.4493 L108.5 37.6521 L109.6071 37.6411 L110.7143 37.4712 L111.8214 37.6137 L112.9286 37.7233 L114.0357 37.9699 L115.1429 38.1781 L116.25 38.2548 L117.3571 38.474 L118.4643 38.5452 L119.5714 38.5726 L120.6786 38.6219 L121.7857 38.6877 L122.8929 38.6384 L124 38.6877 L125.1071 38.7425 L126.2143 38.8192 L127.3214 38.874 L128.4286 39.011 L129.5357 39.0932 L130.6429 39.1753 L131.75 39.2027 L132.8571 39.2959 L133.9643 39.411 L135.0714 39.4822 L136.1786 39.6247 L137.2857 39.6904 L138.3929 39.7945 L139.5 39.926 L140.6071 40.0466 L141.7143 40.0795 L142.8214 40.1452 L143.9286 40.1945 L145.0357 40.2329 L146.1429 40.2712 L147.25 40.2438 L148.3571 40.2603 L149.4643 40.2603 L150.5714 40.2877 L151.6786 40.2986 L152.7857 40.3041 L153.8929 40.3315 L155 40.3151"/>
</g>
<g style="fill:none;stroke:#0000ff;stroke-width:1.3;" class="svgcurveline" id="svgthumb_us-mary-m">
<path d="M0 40.874 L1.1071 40.8521 L2.2143 40.863 L3.3214 40.8466 L4.4286 40.8411 L5.5357 40.8192 L6.6429 40.8521 L7.75 40.7644 L8.8571 40.7918 L9.9643 40.8137 L11.0714 40.8411 L12.1786 40.8027 L13.2857 40.7918 L14.3929 40.7534 L15.5 40.7918 L16.6071 40.7973 L17.7143 40.7589 L18.8214 40.7151 L19.9286 40.7918 L21.0357 40.7644 L22.1429 40.7479 L23.25 40.726 L24.3571 40.7699 L25.4643 40.7315 L26.5714 40.7699 L27.6786 40.7425 L28.7857 40.7096 L29.8929 40.7589 L31 40.7425 L32.1071 40.7534 L33.2143 40.7425 L34.3214 40.7753 L35.4286 40.8575 L36.5357 40.874 L37.6429 40.8959 L38.75 40.9014 L39.8571 40.9014 L40.9643 40.9068 L42.0714 40.9123 L43.1786 40.9178 L44.2857 40.9014 L45.3929 40.9123 L46.5 40.9068 L47.6071 40.9014 L48.7143 40.8959 L49.8214 40.874 L50.9286 40.8685 L52.0357 40.8685 L53.1429 40.8575 L54.25 40.8356 L55.3571 40.8356 L56.4643 40.8356 L57.5714 40.8301 L58.6786 40.8301 L59.7857 40.8466 L60.8929 40.8575 L62 40.8466 L63.1071 40.8575 L64.2143 40.863 L65.3214 40.8685 L66.4286 40.8575 L67.5357 40.863 L68.6429 40.8904 L69.75 40.9068 L70.8571 40.9014 L71.9643 40.9233 L73.0714 40.9397 L74.1786 40.9452 L75.2857 40.9507 L76.3929 40.9507 L77.5 40.9616 L78.6071 40.9562 L79.7143 40.9562 L80.8214 40.9616 L81.9286 40.9562 L83.0357 40.9616 L84.1429 40.9616 L85.25 40.9562 L86.3571 40.9616 L87.4643 40.9562 L88.5714 40.9562 L89.6786 40.9562 L90.7857 40.9562 L91.8929 40.9616 L93 40.9616 L94.1071 40.9616 L95.2143 40.9671 L96.3214 40.9616 L97.4286 40.9671 L98.5357 40.9671 L99.6429 40.9726 L100.75 40.9726 L101.8571 40.9781 L102.4107 40.9781"/>
</g>
</g>
</svg>