<svg viewBox="0 0 155 58" preserveAspectRatio="none" class="svggraph" id="svgthumb_us" style="overflow:visible;width:155px;height:58px;" xmlns="http://www.w3.org/2000/svg" xlink="http://www.w3.org/1999/xlink" title="Chart for maryam">
<title>Last ranked
#503 in 2020</title>
<rect x="2" y="43" height="13" width="17" style="fill:rgb(200,200,200)"/>
<image x="2.5" y="43.5" href="/images/flags/24/us.png" preserveAspectRatio="xMinYMax meet" width="16" height="12"/>
<text x="153" y="55" class="svgtitle" text-anchor="end" style="fill:#000000;font-size:13px;">United States</text>
<line x1="0" y1="41" x2="155" y2="41" class="svggridline" style="stroke:rgb(200,200,200);stroke-width:1.3"/>
<g id="svgthumb_us-namepaths">
<g style="fill:none;stroke:#ff0000;stroke-width:1.3;" class="svgcurveline" id="svgthumb_us-maryam-f">
<path d=" M132.3036 33.6667 L132.8571 33 L133.4107 33.6667 M134.5179 33.6667 L135.0714 33.6667 L135.625 33 M136.7321 33 L137.2857 32.3333 L137.8393 33 M138.9464 33 L139.5 32.3333 L140.6071 31.6667 L141.1607 32.3333 M142.2679 32.3333 L142.8214 31.6667 L143.9286 29 L145.0357 29 L146.1429 27 L147.25 26.3333 L148.3571 24.3333 L149.4643 22.3333 L150.5714 21.6667 L151.6786 18.3333 L152.7857 21 L153.8929 19.6667 L155 18.3333"/>
</g>
</g>
</svg>