<svg viewBox="0 0 155 58" preserveAspectRatio="none" class="svggraph" id="svgthumb_us" style="overflow:visible;width:155px;height:58px;" xmlns="http://www.w3.org/2000/svg" xlink="http://www.w3.org/1999/xlink" title="Chart for matilda">
<title>Last ranked
#478 in 2020</title>
<rect x="2" y="43" height="13" width="17" style="fill:rgb(200,200,200)"/>
<image x="2.5" y="43.5" href="/images/flags/24/us.png" preserveAspectRatio="xMinYMax meet" width="16" height="12"/>
<text x="153" y="55" class="svgtitle" text-anchor="end" style="fill:#000000;font-size:13px;">United States</text>
<line x1="0" y1="41" x2="155" y2="41" class="svggridline" style="stroke:rgb(200,200,200);stroke-width:1.3"/>
<g id="svgthumb_us-namepaths">
<g style="fill:none;stroke:#ff0000;stroke-width:1.3;" class="svgcurveline" id="svgthumb_us-matilda-f">
<path d="M0 12.3333 L1.1071 15.8 L2.2143 13.1333 L3.3214 22.4667 L4.4286 17.4 L5.5357 16.6 L6.6429 14.2 L7.75 18.2 L8.8571 17.9333 L9.9643 18.4667 L11.0714 21.6667 L12.1786 18.2 L13.2857 21.2667 L14.3929 21.5333 L15.5 24.3333 L16.6071 22.7333 L17.7143 23 L18.8214 23.5333 L19.9286 24.0667 L21.0357 24.2 L22.1429 26.3333 L23.25 26.6 L24.3571 27.2667 L25.4643 29.2667 L26.5714 28.0667 L27.6786 29.5333 L28.7857 28.4667 L29.8929 28.3333 L31 30.3333 L32.1071 30.8667 L33.2143 32.0667 L34.3214 31.2667 L35.4286 31.9333 L36.5357 32.2 L37.6429 32.7333 L38.75 32.0667 L39.8571 32.8667 L40.9643 32.8667 L42.0714 33.4 L43.1786 33.6667 L44.2857 34.2 L45.3929 34.7333 L46.5 34.3333 L47.6071 34.8667 L48.7143 35.5333 L49.8214 35.9333 L50.9286 36.4667 L52.0357 36.4667 L53.1429 36.6 L54.25 37 L55.3571 37.5333 L56.4643 38.0667 L57.5714 37.9333 L58.6786 38.4667 L59.7857 38.4667 L60.8929 38.6 L62 38.6 L63.1071 39 L64.2143 39.2667 L65.3214 39.5333 L66.4286 39.2667 L67.5357 39.6667 L68.6429 39.8 L69.75 39.8 L70.8571 39.8 L71.9643 40.2 L73.0714 39.9333 L74.1786 40.0667 L75.2857 39.9333 L76.3929 39.9333 L77.5 39.9333 L78.6071 40.0667 L79.7143 40.2 L80.8214 40.2 L81.9286 40.2 L83.0357 40.2 L84.1429 40.3333 L84.6964 40.3333 M86.9107 40.3333 L87.4643 40.2 L88.5714 40.2 L89.125 40.2 M91.3393 40.2 L91.8929 40.2 L93 40.0667 L93.5536 40.2 M141.1607 39.2667 L141.7143 38.7333 L142.8214 38.4667 L143.9286 38.6 L145.0357 38.6 L146.1429 38.0667 L147.25 37.9333 L148.3571 37.4 L149.4643 37 L150.5714 36.6 L151.6786 36.7333 L152.7857 36.3333 L153.8929 35.9333 L155 36.2"/>
</g>
</g>
</svg>