<svg viewBox="0 0 155 58" preserveAspectRatio="none" class="svggraph" id="svgthumb_us" style="overflow:visible;width:155px;height:58px;" xmlns="http://www.w3.org/2000/svg" xlink="http://www.w3.org/1999/xlink" title="Chart for mckenzie">
<title>Last ranked
#278 in 2020</title>
<rect x="2" y="43" height="13" width="17" style="fill:rgb(200,200,200)"/>
<image x="2.5" y="43.5" href="/images/flags/24/us.png" preserveAspectRatio="xMinYMax meet" width="16" height="12"/>
<text x="153" y="55" class="svgtitle" text-anchor="end" style="fill:#000000;font-size:13px;">United States</text>
<line x1="0" y1="41" x2="155" y2="41" class="svggridline" style="stroke:rgb(200,200,200);stroke-width:1.3"/>
<g id="svgthumb_us-namepaths">
<g style="fill:none;stroke:#ff0000;stroke-width:1.3;" class="svgcurveline" id="svgthumb_us-mckenzie-f">
<path d=" M114.5893 39.4 L115.1429 39.2 L116.25 39 L117.3571 38.6 L118.4643 37.8 L119.5714 37.4 L120.6786 37.2 L121.7857 36.2 L122.8929 34.4 L124 31.6 L125.1071 28.4 L126.2143 25.2 L127.3214 22.2 L128.4286 20.4 L129.5357 19.4 L130.6429 17.8 L131.75 17.6 L132.8571 15.6 L133.9643 16 L135.0714 17.2 L136.1786 18.6 L137.2857 19.4 L138.3929 20.6 L139.5 20.6 L140.6071 20 L141.7143 19 L142.8214 20.6 L143.9286 19.2 L145.0357 17.8 L146.1429 19.2 L147.25 18 L148.3571 17.2 L149.4643 19.2 L150.5714 20.4 L151.6786 23.4 L152.7857 24.6 L153.8929 26.4 L155 28.2"/>
</g>
</g>
</svg>