<svg viewBox="0 0 155 58" preserveAspectRatio="none" class="svggraph" id="svgthumb_us" style="overflow:visible;width:155px;height:58px;" xmlns="http://www.w3.org/2000/svg" xlink="http://www.w3.org/1999/xlink" title="Chart for mckenna">
<title>Last ranked
#271 in 2020</title>
<rect x="2" y="43" height="13" width="17" style="fill:rgb(200,200,200)"/>
<image x="2.5" y="43.5" href="/images/flags/24/us.png" preserveAspectRatio="xMinYMax meet" width="16" height="12"/>
<text x="153" y="55" class="svgtitle" text-anchor="end" style="fill:#000000;font-size:13px;">United States</text>
<line x1="0" y1="41" x2="155" y2="41" class="svggridline" style="stroke:rgb(200,200,200);stroke-width:1.3"/>
<g id="svgthumb_us-namepaths">
<g style="fill:none;stroke:#ff0000;stroke-width:1.3;" class="svgcurveline" id="svgthumb_us-mckenna-f">
<path d=" M122.3393 39.2 L122.8929 39 L124 37.2 L125.1071 37.2 L126.2143 34.2 L127.3214 30 L128.4286 28.2 L129.5357 27 L130.6429 26.2 L131.75 24.8 L132.8571 24 L133.9643 24 L135.0714 22.8 L136.1786 24.2 L137.2857 24.6 L138.3929 24.6 L139.5 26 L140.6071 26.4 L141.7143 26.4 L142.8214 26.2 L143.9286 27 L145.0357 27.2 L146.1429 26.6 L147.25 25.8 L148.3571 26.6 L149.4643 27.6 L150.5714 28 L151.6786 27.8 L152.7857 27.4 L153.8929 28.4 L155 28"/>
</g>
</g>
</svg>