<svg viewBox="0 0 155 58" preserveAspectRatio="none" class="svggraph" id="svgthumb_us" style="overflow:visible;width:155px;height:58px;" xmlns="http://www.w3.org/2000/svg" xlink="http://www.w3.org/1999/xlink" title="Chart for melanie">
<title>Last ranked
#105 in 2020</title>
<rect x="2" y="43" height="13" width="17" style="fill:rgb(200,200,200)"/>
<image x="2.5" y="43.5" href="/images/flags/24/us.png" preserveAspectRatio="xMinYMax meet" width="16" height="12"/>
<text x="153" y="55" class="svgtitle" text-anchor="end" style="fill:#000000;font-size:13px;">United States</text>
<line x1="0" y1="41" x2="155" y2="41" class="svggridline" style="stroke:rgb(200,200,200);stroke-width:1.3"/>
<g id="svgthumb_us-namepaths">
<g style="fill:none;stroke:#ff0000;stroke-width:1.3;" class="svgcurveline" id="svgthumb_us-melanie-f">
<path d=" M6.0893 40.68 L6.6429 40.6 L7.1964 40.6 M63.6607 40.6 L64.2143 40.6 L65.3214 40.6 L66.4286 39.64 L67.5357 39 L68.6429 38.76 L69.75 38.76 L70.8571 39.16 L71.9643 39 L73.0714 39 L74.1786 38.68 L75.2857 36.6 L76.3929 35.56 L77.5 36.36 L78.6071 36.68 L79.7143 35.32 L80.8214 35.08 L81.9286 33.56 L83.0357 30.36 L84.1429 30.52 L85.25 31.56 L86.3571 31.16 L87.4643 30.12 L88.5714 26.92 L89.6786 26.52 L90.7857 24.12 L91.8929 23.8 L93 24.92 L94.1071 27.32 L95.2143 27.08 L96.3214 26.52 L97.4286 23.96 L98.5357 23.16 L99.6429 22.12 L100.75 17.56 L101.8571 9.8 L102.9643 9.72 L104.0714 13 L105.1786 13.48 L106.2857 14.36 L107.3929 14.84 L108.5 16.68 L109.6071 17.72 L110.7143 19.24 L111.8214 21 L112.9286 22.2 L114.0357 25.16 L115.1429 25.4 L116.25 27.4 L117.3571 28.12 L118.4643 29.24 L119.5714 29.24 L120.6786 26.44 L121.7857 26.12 L122.8929 26.92 L124 27.64 L125.1071 28.84 L126.2143 30.04 L127.3214 29.96 L128.4286 29.88 L129.5357 30.44 L130.6429 30.84 L131.75 30.12 L132.8571 29.08 L133.9643 29.24 L135.0714 26.92 L136.1786 26.84 L137.2857 26.84 L138.3929 27.24 L139.5 25.56 L140.6071 25.88 L141.7143 26.76 L142.8214 27.24 L143.9286 26.76 L145.0357 27.4 L146.1429 26.68 L147.25 26.6 L148.3571 25.88 L149.4643 26.68 L150.5714 26.6 L151.6786 27.32 L152.7857 28.68 L153.8929 29.64 L155 29.56"/>
</g>
</g>
</svg>