<svg viewBox="0 0 155 58" preserveAspectRatio="none" class="svggraph" id="svgthumb_us" style="overflow:visible;width:155px;height:58px;" xmlns="http://www.w3.org/2000/svg" xlink="http://www.w3.org/1999/xlink" title="Chart for melissa">
<title>Last ranked
#348 in 2020 (f)
#991 in 1985 (m)</title>
<rect x="2" y="43" height="13" width="17" style="fill:rgb(200,200,200)"/>
<image x="2.5" y="43.5" href="/images/flags/24/us.png" preserveAspectRatio="xMinYMax meet" width="16" height="12"/>
<text x="153" y="55" class="svgtitle" text-anchor="end" style="fill:#000000;font-size:13px;">United States</text>
<line x1="0" y1="41" x2="155" y2="41" class="svggridline" style="stroke:rgb(200,200,200);stroke-width:1.3"/>
<g id="svgthumb_us-namepaths">
<g style="fill:none;stroke:#ff0000;stroke-width:1.3;" class="svgcurveline" id="svgthumb_us-melissa-f">
<path d="M0 40.32 L1.1071 40.2 L2.2143 40.3 L3.3214 40.3 L4.4286 40.3 L5.5357 40.36 L6.6429 40.24 L7.75 40.56 L8.8571 40.58 L9.9643 40.52 L11.0714 40.58 L12.1786 40.7 L13.2857 40.7 L14.3929 40.52 L15.5 40.56 L16.6071 40.66 L17.7143 40.76 L18.8214 40.72 L19.9286 40.74 L21.0357 40.62 L22.1429 40.74 L23.25 40.74 L24.3571 40.72 L25.4643 40.74 L26.5714 40.84 L27.6786 40.8 L28.7857 40.86 L29.8929 40.78 L31 40.84 L32.1071 40.82 L33.2143 40.78 L34.3214 40.86 L35.4286 40.86 L36.5357 40.86 L37.6429 40.86 L38.75 40.86 L39.8571 40.88 L40.9643 40.9 L42.0714 40.9 L42.625 40.92 M43.7321 40.92 L44.2857 40.9 L45.3929 40.9 L46.5 40.9 L47.0536 40.9 M54.8036 40.9 L55.3571 40.9 L55.9107 40.92 M57.0179 40.92 L57.5714 40.88 L58.6786 40.9 L59.2321 40.92 M60.3393 40.92 L60.8929 40.88 L62 40.9 L63.1071 40.84 L64.2143 40.86 L65.3214 40.8 L66.4286 40.84 L67.5357 40.78 L68.6429 40.78 L69.75 40.74 L70.8571 40.74 L71.9643 40.72 L73.0714 40.76 L74.1786 40.64 L75.2857 40.32 L76.3929 40.12 L77.5 39.88 L78.6071 39.78 L79.7143 39.48 L80.8214 38.92 L81.9286 38.92 L83.0357 38.6 L84.1429 38.54 L85.25 38.36 L86.3571 37.78 L87.4643 37.5 L88.5714 36.76 L89.6786 36.28 L90.7857 34.78 L91.8929 33.64 L93 32.5 L94.1071 29.44 L95.2143 24.76 L96.3214 19.6 L97.4286 15.58 L98.5357 14.88 L99.6429 15.08 L100.75 13.76 L101.8571 13.08 L102.9643 12.06 L104.0714 12.7 L105.1786 10.04 L106.2857 9.06 L107.3929 8.32 L108.5 6.54 L109.6071 1.48 L110.7143 5.46 L111.8214 9.68 L112.9286 12.48 L114.0357 14.76 L115.1429 16.72 L116.25 19.38 L117.3571 21.86 L118.4643 22.14 L119.5714 23.8 L120.6786 25.74 L121.7857 27.38 L122.8929 27.88 L124 29.32 L125.1071 30.62 L126.2143 31.98 L127.3214 32.8 L128.4286 33.52 L129.5357 34 L130.6429 35.48 L131.75 36.04 L132.8571 36.46 L133.9643 36.82 L135.0714 37.18 L136.1786 37.5 L137.2857 37.7 L138.3929 37.96 L139.5 38.24 L140.6071 38.64 L141.7143 38.58 L142.8214 38.7 L143.9286 39 L145.0357 39.24 L146.1429 39.18 L147.25 39.34 L148.3571 39.46 L149.4643 39.68 L150.5714 39.72 L151.6786 39.76 L152.7857 39.8 L153.8929 39.98 L155 40"/>
</g>
<g style="fill:none;stroke:#0000ff;stroke-width:1.3;" class="svgcurveline" id="svgthumb_us-melissa-m">
<path d=" M96.875 40.94 L97.4286 40.94 L98.5357 40.92 L99.6429 40.92 L100.75 40.92 L101.8571 40.9 L102.9643 40.9 L104.0714 40.9 L105.1786 40.88 L106.2857 40.9 L107.3929 40.9 L108.5 40.88 L109.6071 40.86 L110.7143 40.86 L111.8214 40.9 L112.9286 40.88 L114.0357 40.9 L115.1429 40.92 L116.25 40.92 L116.8036 40.92"/>
</g>
</g>
</svg>