<svg viewBox="0 0 155 58" preserveAspectRatio="none" class="svggraph" id="svgthumb_us" style="overflow:visible;width:155px;height:58px;" xmlns="http://www.w3.org/2000/svg" xlink="http://www.w3.org/1999/xlink" title="Chart for melody">
<title>Last ranked
#106 in 2020</title>
<rect x="2" y="43" height="13" width="17" style="fill:rgb(200,200,200)"/>
<image x="2.5" y="43.5" href="/images/flags/24/us.png" preserveAspectRatio="xMinYMax meet" width="16" height="12"/>
<text x="153" y="55" class="svgtitle" text-anchor="end" style="fill:#000000;font-size:13px;">United States</text>
<line x1="0" y1="41" x2="155" y2="41" class="svggridline" style="stroke:rgb(200,200,200);stroke-width:1.3"/>
<g id="svgthumb_us-namepaths">
<g style="fill:none;stroke:#ff0000;stroke-width:1.3;" class="svgcurveline" id="svgthumb_us-melody-f">
<path d=" M68.0893 40.2 L68.6429 38 L69.75 38.2 L70.8571 38 L71.9643 36.4 L73.0714 34.4 L74.1786 32.6 L75.2857 32.6 L76.3929 32.6 L77.5 32 L78.6071 31.4 L79.7143 29.2 L80.8214 27.6 L81.9286 25.4 L83.0357 23 L84.1429 17.8 L85.25 22 L86.3571 24.2 L87.4643 22.2 L88.5714 14.4 L89.6786 19.2 L90.7857 21 L91.8929 20 L93 21.6 L94.1071 22.8 L95.2143 21.6 L96.3214 23.2 L97.4286 26 L98.5357 26.8 L99.6429 28.2 L100.75 27.2 L101.8571 27 L102.9643 26.6 L104.0714 25.8 L105.1786 25.6 L106.2857 25.6 L107.3929 24.4 L108.5 24.8 L109.6071 25.2 L110.7143 26.2 L111.8214 27.8 L112.9286 28.8 L114.0357 28.6 L115.1429 29 L116.25 30.6 L117.3571 30.8 L118.4643 31.4 L119.5714 31.8 L120.6786 32.2 L121.7857 32.6 L122.8929 32.6 L124 32 L125.1071 33.6 L126.2143 33.6 L127.3214 33.6 L128.4286 34 L129.5357 33.2 L130.6429 33.6 L131.75 34.6 L132.8571 33.8 L133.9643 30 L135.0714 30.4 L136.1786 30.8 L137.2857 31 L138.3929 30.8 L139.5 30.4 L140.6071 30.2 L141.7143 29.2 L142.8214 26.6 L143.9286 25 L145.0357 25 L146.1429 22.6 L147.25 21.6 L148.3571 19.8 L149.4643 18.6 L150.5714 18.8 L151.6786 19.2 L152.7857 17.8 L153.8929 14.2 L155 12.4"/>
</g>
</g>
</svg>