<svg viewBox="0 0 155 58" preserveAspectRatio="none" class="svggraph" id="svgthumb_us" style="overflow:visible;width:155px;height:58px;" xmlns="http://www.w3.org/2000/svg" xlink="http://www.w3.org/1999/xlink" title="Chart for michelle">
<title>Last ranked
#336 in 2020 (f)
#971 in 1983 (m)</title>
<rect x="2" y="43" height="13" width="17" style="fill:rgb(200,200,200)"/>
<image x="2.5" y="43.5" href="/images/flags/24/us.png" preserveAspectRatio="xMinYMax meet" width="16" height="12"/>
<text x="153" y="55" class="svgtitle" text-anchor="end" style="fill:#000000;font-size:13px;">United States</text>
<line x1="0" y1="41" x2="155" y2="41" class="svggridline" style="stroke:rgb(200,200,200);stroke-width:1.3"/>
<g id="svgthumb_us-namepaths">
<g style="fill:none;stroke:#ff0000;stroke-width:1.3;" class="svgcurveline" id="svgthumb_us-michelle-f">
<path d=" M63.6607 40.9 L64.2143 40.9 L65.3214 40.9 L66.4286 40.84 L67.5357 40.78 L68.6429 40.66 L69.75 40.48 L70.8571 40.4 L71.9643 40.26 L73.0714 40.06 L74.1786 40 L75.2857 39.8 L76.3929 39.58 L77.5 39.14 L78.6071 38.7 L79.7143 37.98 L80.8214 37.24 L81.9286 36.54 L83.0357 36.48 L84.1429 35.82 L85.25 35.3 L86.3571 33.78 L87.4643 32.56 L88.5714 31.48 L89.6786 28.74 L90.7857 27.82 L91.8929 26.54 L93 24.46 L94.1071 23.26 L95.2143 10.06 L96.3214 5.1 L97.4286 2.14 L98.5357 2.06 L99.6429 3.82 L100.75 3.16 L101.8571 4.68 L102.9643 6.34 L104.0714 8.02 L105.1786 11.96 L106.2857 16.12 L107.3929 17.24 L108.5 18.06 L109.6071 18.64 L110.7143 19.52 L111.8214 21.12 L112.9286 21.42 L114.0357 22.18 L115.1429 23.8 L116.25 25.86 L117.3571 26.58 L118.4643 27.08 L119.5714 27.12 L120.6786 27.58 L121.7857 27.94 L122.8929 28.98 L124 29.52 L125.1071 30.66 L126.2143 32.14 L127.3214 33.3 L128.4286 34.12 L129.5357 35.04 L130.6429 35.26 L131.75 35.56 L132.8571 35.44 L133.9643 35.92 L135.0714 35.98 L136.1786 36.14 L137.2857 36.32 L138.3929 36.74 L139.5 37.08 L140.6071 37.6 L141.7143 37.8 L142.8214 37.96 L143.9286 38.44 L145.0357 38.76 L146.1429 39 L147.25 39.04 L148.3571 39.2 L149.4643 39.26 L150.5714 39.38 L151.6786 39.48 L152.7857 39.66 L153.8929 39.76 L155 39.96"/>
</g>
<g style="fill:none;stroke:#0000ff;stroke-width:1.3;" class="svgcurveline" id="svgthumb_us-michelle-m">
<path d=" M94.6607 40.94 L95.2143 40.9 L96.3214 40.88 L97.4286 40.86 L98.5357 40.84 L99.6429 40.86 L100.75 40.84 L101.8571 40.84 L102.9643 40.86 L104.0714 40.86 L105.1786 40.86 L106.2857 40.9 L107.3929 40.9 L108.5 40.9 L109.0536 40.92 M110.1607 40.92 L110.7143 40.9 L111.8214 40.9 L112.375 40.92 M113.4821 40.92 L114.0357 40.92 L114.5893 40.92"/>
</g>
</g>
</svg>