<svg viewBox="0 0 155 58" preserveAspectRatio="none" class="svggraph" id="svgthumb_us" style="overflow:visible;width:155px;height:58px;" xmlns="http://www.w3.org/2000/svg" xlink="http://www.w3.org/1999/xlink" title="Chart for millie">
<title>Last ranked
#190 in 2020</title>
<rect x="2" y="43" height="13" width="17" style="fill:rgb(200,200,200)"/>
<image x="2.5" y="43.5" href="/images/flags/24/us.png" preserveAspectRatio="xMinYMax meet" width="16" height="12"/>
<text x="153" y="55" class="svgtitle" text-anchor="end" style="fill:#000000;font-size:13px;">United States</text>
<line x1="0" y1="41" x2="155" y2="41" class="svggridline" style="stroke:rgb(200,200,200);stroke-width:1.3"/>
<g id="svgthumb_us-namepaths">
<g style="fill:none;stroke:#ff0000;stroke-width:1.3;" class="svgcurveline" id="svgthumb_us-millie-f">
<path d="M0 19.4 L1.1071 16 L2.2143 20 L3.3214 15.2 L4.4286 20 L5.5357 19.6 L6.6429 18.8 L7.75 19.4 L8.8571 18.6 L9.9643 22.6 L11.0714 20.8 L12.1786 21.4 L13.2857 23.8 L14.3929 23.4 L15.5 25.4 L16.6071 26.4 L17.7143 24 L18.8214 24.6 L19.9286 26.6 L21.0357 25.4 L22.1429 26.6 L23.25 25.6 L24.3571 27.8 L25.4643 27.4 L26.5714 28.6 L27.6786 28.6 L28.7857 27.4 L29.8929 28.8 L31 31 L32.1071 29.2 L33.2143 29.2 L34.3214 31.2 L35.4286 31 L36.5357 30.8 L37.6429 31 L38.75 30.8 L39.8571 31.4 L40.9643 30.8 L42.0714 32.6 L43.1786 32.4 L44.2857 33.4 L45.3929 33.4 L46.5 33.6 L47.6071 34.6 L48.7143 35 L49.8214 35.2 L50.9286 35 L52.0357 35.6 L53.1429 36 L54.25 36.2 L55.3571 36.6 L56.4643 35.6 L57.5714 35.8 L58.6786 35.2 L59.7857 36 L60.8929 36 L62 36.4 L63.1071 37.2 L64.2143 37.2 L65.3214 36.8 L66.4286 37 L67.5357 37.4 L68.6429 37.6 L69.75 37.8 L70.8571 37.8 L71.9643 37.8 L73.0714 38.2 L74.1786 38.2 L75.2857 38.2 L76.3929 38.6 L77.5 39 L78.6071 38.6 L79.7143 39 L80.8214 39 L81.9286 39.2 L83.0357 39.2 L84.1429 39 L85.25 39.2 L86.3571 39.2 L87.4643 39 L88.5714 39.4 L89.6786 39.6 L90.7857 39.4 L91.8929 39.4 L93 39.4 L94.1071 39.4 L95.2143 39.8 L95.7679 39.8 M142.2679 38.4 L142.8214 37.8 L143.9286 37.8 L145.0357 37.6 L146.1429 37 L147.25 36 L148.3571 34.6 L149.4643 34 L150.5714 33.4 L151.6786 31.6 L152.7857 29.2 L153.8929 26.6 L155 24"/>
</g>
</g>
</svg>