<svg viewBox="0 0 155 58" preserveAspectRatio="none" class="svggraph" id="svgthumb_us" style="overflow:visible;width:155px;height:58px;" xmlns="http://www.w3.org/2000/svg" xlink="http://www.w3.org/1999/xlink" title="Chart for miriam">
<title>Last ranked
#280 in 2020</title>
<rect x="2" y="43" height="13" width="17" style="fill:rgb(200,200,200)"/>
<image x="2.5" y="43.5" href="/images/flags/24/us.png" preserveAspectRatio="xMinYMax meet" width="16" height="12"/>
<text x="153" y="55" class="svgtitle" text-anchor="end" style="fill:#000000;font-size:13px;">United States</text>
<line x1="0" y1="41" x2="155" y2="41" class="svggridline" style="stroke:rgb(200,200,200);stroke-width:1.3"/>
<g id="svgthumb_us-namepaths">
<g style="fill:none;stroke:#ff0000;stroke-width:1.3;" class="svgcurveline" id="svgthumb_us-miriam-f">
<path d="M0 35.2 L1.1071 35.6 L2.2143 34 L3.3214 35.4 L4.4286 34.4 L5.5357 35 L6.6429 33.8 L7.75 35 L8.8571 34.2 L9.9643 32.6 L11.0714 32.8 L12.1786 32.6 L13.2857 33.2 L14.3929 31.4 L15.5 28.2 L16.6071 27.4 L17.7143 27.6 L18.8214 25.8 L19.9286 28.2 L21.0357 26.4 L22.1429 27.6 L23.25 23.8 L24.3571 26.8 L25.4643 25.4 L26.5714 25.4 L27.6786 25.8 L28.7857 23.6 L29.8929 23.2 L31 21.8 L32.1071 22.6 L33.2143 23.4 L34.3214 19 L35.4286 17.6 L36.5357 15.8 L37.6429 16.4 L38.75 14.2 L39.8571 14.2 L40.9643 12.2 L42.0714 12.6 L43.1786 14.8 L44.2857 13 L45.3929 13.8 L46.5 14.8 L47.6071 13.4 L48.7143 12.6 L49.8214 15.6 L50.9286 16.4 L52.0357 18.8 L53.1429 20 L54.25 22.4 L55.3571 23 L56.4643 25.2 L57.5714 24.6 L58.6786 23.6 L59.7857 25.8 L60.8929 26.4 L62 26.8 L63.1071 27.4 L64.2143 27.6 L65.3214 28.4 L66.4286 28.6 L67.5357 29.6 L68.6429 30.8 L69.75 31.2 L70.8571 30.6 L71.9643 31 L73.0714 32.4 L74.1786 32.6 L75.2857 33 L76.3929 33 L77.5 31.4 L78.6071 31.6 L79.7143 31.4 L80.8214 31.6 L81.9286 30.4 L83.0357 30.8 L84.1429 30.8 L85.25 32 L86.3571 31.4 L87.4643 31.8 L88.5714 30.8 L89.6786 31.8 L90.7857 31.2 L91.8929 32 L93 32.2 L94.1071 32.8 L95.2143 33.4 L96.3214 33.4 L97.4286 33.4 L98.5357 34 L99.6429 33.8 L100.75 33.2 L101.8571 34 L102.9643 33.4 L104.0714 33.4 L105.1786 32.4 L106.2857 33.2 L107.3929 33 L108.5 33.6 L109.6071 32.2 L110.7143 32.2 L111.8214 32 L112.9286 32 L114.0357 32.8 L115.1429 32.2 L116.25 33 L117.3571 32.8 L118.4643 33 L119.5714 33.4 L120.6786 32.8 L121.7857 31.4 L122.8929 31 L124 30.4 L125.1071 30.6 L126.2143 30.4 L127.3214 30.8 L128.4286 30.4 L129.5357 31.2 L130.6429 30.8 L131.75 30.2 L132.8571 29.4 L133.9643 30.2 L135.0714 29.8 L136.1786 30 L137.2857 29.2 L138.3929 29.4 L139.5 30 L140.6071 30.2 L141.7143 30.4 L142.8214 30.4 L143.9286 30 L145.0357 31.2 L146.1429 30.2 L147.25 29.6 L148.3571 30 L149.4643 29.6 L150.5714 29.4 L151.6786 28.8 L152.7857 29.2 L153.8929 28.4 L155 28.2"/>
</g>
</g>
</svg>