<svg viewBox="0 0 155 58" preserveAspectRatio="none" class="svggraph" id="svgthumb_us" style="overflow:visible;width:155px;height:58px;" xmlns="http://www.w3.org/2000/svg" xlink="http://www.w3.org/1999/xlink" title="Chart for molly">
<title>Last ranked
#174 in 2020</title>
<rect x="2" y="43" height="13" width="17" style="fill:rgb(200,200,200)"/>
<image x="2.5" y="43.5" href="/images/flags/24/us.png" preserveAspectRatio="xMinYMax meet" width="16" height="12"/>
<text x="153" y="55" class="svgtitle" text-anchor="end" style="fill:#000000;font-size:13px;">United States</text>
<line x1="0" y1="41" x2="155" y2="41" class="svggridline" style="stroke:rgb(200,200,200);stroke-width:1.3"/>
<g id="svgthumb_us-namepaths">
<g style="fill:none;stroke:#ff0000;stroke-width:1.3;" class="svgcurveline" id="svgthumb_us-molly-f">
<path d="M0 38.6 L1.1071 36.6 L2.2143 37.5333 L3.3214 37.6667 L4.4286 37.9333 L5.5357 38.2 L6.6429 38.4667 L7.75 38.2 L8.8571 38.3333 L9.9643 38.6 L11.0714 37.9333 L12.1786 38.7333 L13.2857 37.9333 L14.3929 37.5333 L15.5 39 L16.6071 38.6 L17.7143 38.4667 L18.8214 38.3333 L19.9286 39.1333 L21.0357 38.4667 L22.1429 38.2 L23.25 38.0667 L24.3571 38.4667 L25.4643 37.4 L26.5714 37.6667 L27.6786 37.9333 L28.7857 37.4 L29.8929 36.6 L31 37.2667 L32.1071 37 L33.2143 36.3333 L34.3214 37.1333 L35.4286 36.4667 L36.5357 37 L37.6429 36.8667 L38.75 36.7333 L39.8571 36.8667 L40.9643 37.2667 L42.0714 37.6667 L43.1786 38.0667 L44.2857 38.3333 L45.3929 37.8 L46.5 38.0667 L47.6071 37.9333 L48.7143 38.0667 L49.8214 38.4667 L50.9286 38.2 L52.0357 38.2 L53.1429 37.5333 L54.25 37.2667 L55.3571 37.1333 L56.4643 37.4 L57.5714 37.2667 L58.6786 37.5333 L59.7857 37.4 L60.8929 37.2667 L62 37.1333 L63.1071 37.2667 L64.2143 37.1333 L65.3214 36.8667 L66.4286 37.1333 L67.5357 37.4 L68.6429 37.4 L69.75 37.4 L70.8571 37.4 L71.9643 37.6667 L73.0714 37.5333 L74.1786 37.4 L75.2857 36.7333 L76.3929 36.7333 L77.5 36.7333 L78.6071 36.6 L79.7143 36.7333 L80.8214 37 L81.9286 37 L83.0357 36.8667 L84.1429 36.7333 L85.25 36.6 L86.3571 36.2 L87.4643 36.0667 L88.5714 36.3333 L89.6786 35.9333 L90.7857 35.5333 L91.8929 35.2667 L93 34.2 L94.1071 33.2667 L95.2143 33.5333 L96.3214 33.1333 L97.4286 33 L98.5357 32.7333 L99.6429 32.3333 L100.75 31.9333 L101.8571 30.7333 L102.9643 29.6667 L104.0714 28.4667 L105.1786 27.8 L106.2857 26.3333 L107.3929 24.2 L108.5 25.2667 L109.6071 25.4 L110.7143 24.4667 L111.8214 25.4 L112.9286 23.9333 L114.0357 23.8 L115.1429 24.8667 L116.25 23.4 L117.3571 22.6 L118.4643 20.4667 L119.5714 17 L120.6786 17.8 L121.7857 15.2667 L122.8929 10.4667 L124 13.5333 L125.1071 15.9333 L126.2143 17.5333 L127.3214 17.5333 L128.4286 17.9333 L129.5357 16.8667 L130.6429 19 L131.75 18.2 L132.8571 18.3333 L133.9643 18.0667 L135.0714 19.9333 L136.1786 18.3333 L137.2857 18.8667 L138.3929 19.9333 L139.5 21 L140.6071 19.5333 L141.7143 19.6667 L142.8214 17.9333 L143.9286 18.0667 L145.0357 16.0667 L146.1429 18.6 L147.25 19.6667 L148.3571 23.2667 L149.4643 25.5333 L150.5714 27.2667 L151.6786 28.0667 L152.7857 28.0667 L153.8929 28.2 L155 28.6"/>
</g>
</g>
</svg>