<svg viewBox="0 0 155 58" preserveAspectRatio="none" class="svggraph" id="svgthumb_us" style="overflow:visible;width:155px;height:58px;" xmlns="http://www.w3.org/2000/svg" xlink="http://www.w3.org/1999/xlink" title="Chart for mya">
<title>Last ranked
#242 in 2020</title>
<rect x="2" y="43" height="13" width="17" style="fill:rgb(200,200,200)"/>
<image x="2.5" y="43.5" href="/images/flags/24/us.png" preserveAspectRatio="xMinYMax meet" width="16" height="12"/>
<text x="153" y="55" class="svgtitle" text-anchor="end" style="fill:#000000;font-size:13px;">United States</text>
<line x1="0" y1="41" x2="155" y2="41" class="svggridline" style="stroke:rgb(200,200,200);stroke-width:1.3"/>
<g id="svgthumb_us-namepaths">
<g style="fill:none;stroke:#ff0000;stroke-width:1.3;" class="svgcurveline" id="svgthumb_us-mya-f">
<path d=" M128.9821 39 L129.5357 39 L130.6429 27.8 L131.75 21.6 L132.8571 22.6 L133.9643 18.8 L135.0714 17.8 L136.1786 11.6 L137.2857 12.2 L138.3929 9.4 L139.5 8.8 L140.6071 9.6 L141.7143 9 L142.8214 7.2 L143.9286 10.4 L145.0357 11.4 L146.1429 14.6 L147.25 13 L148.3571 16.4 L149.4643 18.4 L150.5714 21.2 L151.6786 22.6 L152.7857 24.2 L153.8929 25.8 L155 27"/>
</g>
</g>
</svg>