<svg viewBox="0 0 155 58" preserveAspectRatio="none" class="svggraph" id="svgthumb_us" style="overflow:visible;width:155px;height:58px;" xmlns="http://www.w3.org/2000/svg" xlink="http://www.w3.org/1999/xlink" title="Chart for natalia">
<title>Last ranked
#84 in 2020</title>
<rect x="2" y="43" height="13" width="17" style="fill:rgb(200,200,200)"/>
<image x="2.5" y="43.5" href="/images/flags/24/us.png" preserveAspectRatio="xMinYMax meet" width="16" height="12"/>
<text x="153" y="55" class="svgtitle" text-anchor="end" style="fill:#000000;font-size:13px;">United States</text>
<line x1="0" y1="41" x2="155" y2="41" class="svggridline" style="stroke:rgb(200,200,200);stroke-width:1.3"/>
<g id="svgthumb_us-namepaths">
<g style="fill:none;stroke:#ff0000;stroke-width:1.3;" class="svgcurveline" id="svgthumb_us-natalia-f">
<path d=" M49.2679 40.2 L49.8214 40 L50.9286 40 L52.0357 39.8 L53.1429 39.8 L54.25 39.8 L54.8036 40 M59.2321 40 L59.7857 40 L60.3393 40.2 M104.625 39.4 L105.1786 39.2 L106.2857 39 L107.3929 39.2 L108.5 38.4 L109.6071 37.6 L110.7143 37.6 L111.8214 37.4 L112.9286 37 L114.0357 36.8 L115.1429 37.2 L116.25 37 L117.3571 37 L118.4643 36 L119.5714 36 L120.6786 36.2 L121.7857 36 L122.8929 35.4 L124 34 L125.1071 35.6 L126.2143 34 L127.3214 33 L128.4286 32.4 L129.5357 31 L130.6429 29 L131.75 28 L132.8571 26.8 L133.9643 20.8 L135.0714 22 L136.1786 18.6 L137.2857 18.2 L138.3929 14.8 L139.5 6.6 L140.6071 12 L141.7143 9.8 L142.8214 10.2 L143.9286 10 L145.0357 12 L146.1429 14.2 L147.25 13.6 L148.3571 12.4 L149.4643 13.2 L150.5714 11.8 L151.6786 13.4 L152.7857 12.8 L153.8929 11 L155 6"/>
</g>
</g>
</svg>