<svg viewBox="0 0 155 58" preserveAspectRatio="none" class="svggraph" id="svgthumb_us" style="overflow:visible;width:155px;height:58px;" xmlns="http://www.w3.org/2000/svg" xlink="http://www.w3.org/1999/xlink" title="Chart for natalie">
<title>Last ranked
#51 in 2020</title>
<rect x="2" y="43" height="13" width="17" style="fill:rgb(200,200,200)"/>
<image x="2.5" y="43.5" href="/images/flags/24/us.png" preserveAspectRatio="xMinYMax meet" width="16" height="12"/>
<text x="153" y="55" class="svgtitle" text-anchor="end" style="fill:#000000;font-size:13px;">United States</text>
<line x1="0" y1="41" x2="155" y2="41" class="svggridline" style="stroke:rgb(200,200,200);stroke-width:1.3"/>
<g id="svgthumb_us-namepaths">
<g style="fill:none;stroke:#ff0000;stroke-width:1.3;" class="svgcurveline" id="svgthumb_us-natalie-f">
<path d="M0 40.6667 L1.1071 40.2 L2.2143 40.1333 L3.3214 40.5333 L4.4286 40.4667 L5.5357 40.2 L6.6429 40.3333 L7.75 40.3333 L8.8571 40.0667 L9.9643 40.1333 L11.0714 39.8667 L12.1786 40.2 L13.2857 39.9333 L14.3929 40 L15.5 39.8 L16.6071 39.9333 L17.7143 40.0667 L18.8214 40.2 L19.9286 40 L21.0357 40 L22.1429 39.6 L23.25 40.2667 L24.3571 40.0667 L25.4643 39.7333 L26.5714 39.8 L27.6786 39.5333 L28.7857 39.2667 L29.8929 39.7333 L31 39.4 L32.1071 38.8 L33.2143 38.8667 L34.3214 38.1333 L35.4286 38.4667 L36.5357 38.4 L37.6429 37.6667 L38.75 38.2 L39.8571 38.4 L40.9643 38.1333 L42.0714 38.4 L43.1786 38.0667 L44.2857 38.0667 L45.3929 37.2 L46.5 37.4 L47.6071 37.3333 L48.7143 37.3333 L49.8214 37.2667 L50.9286 37.4 L52.0357 37.4667 L53.1429 37.2 L54.25 37.3333 L55.3571 37.4667 L56.4643 37.4 L57.5714 37.5333 L58.6786 37.7333 L59.7857 37.7333 L60.8929 38.2 L62 38.2667 L63.1071 38.6667 L64.2143 38.6667 L65.3214 38.6 L66.4286 38.8 L67.5357 39 L68.6429 38.7333 L69.75 38.8 L70.8571 39.1333 L71.9643 39.2 L73.0714 39.4 L74.1786 39.4 L75.2857 39.2667 L76.3929 39.4 L77.5 39.5333 L78.6071 39.5333 L79.7143 39.6 L80.8214 39.7333 L81.9286 39.6667 L83.0357 39.6667 L84.1429 39 L85.25 37.6667 L86.3571 36.8667 L87.4643 37.0667 L88.5714 36.0667 L89.6786 35.8 L90.7857 34.6 L91.8929 34.3333 L93 33.7333 L94.1071 33.9333 L95.2143 32.2 L96.3214 33.1333 L97.4286 33.6667 L98.5357 32.8667 L99.6429 32.4 L100.75 33.0667 L101.8571 32.6 L102.9643 32.1333 L104.0714 30.4667 L105.1786 29.7333 L106.2857 26.1333 L107.3929 24.6 L108.5 24.1333 L109.6071 23.8 L110.7143 23.6 L111.8214 22.8667 L112.9286 19.0667 L114.0357 19.6667 L115.1429 20.4667 L116.25 21 L117.3571 20.4 L118.4643 22.0667 L119.5714 22 L120.6786 22.1333 L121.7857 22.7333 L122.8929 22.8 L124 22.4 L125.1071 22.4667 L126.2143 21 L127.3214 18.7333 L128.4286 17.7333 L129.5357 18.1333 L130.6429 15.0667 L131.75 13.3333 L132.8571 13.9333 L133.9643 13.9333 L135.0714 12.8 L136.1786 10.6 L137.2857 9 L138.3929 5.7333 L139.5 6.0667 L140.6071 8.1333 L141.7143 8.3333 L142.8214 10 L143.9286 11.1333 L145.0357 11.2667 L146.1429 13.8 L147.25 15.1333 L148.3571 16.7333 L149.4643 18.7333 L150.5714 19.6667 L151.6786 21.4 L152.7857 22.6 L153.8929 23.4667 L155 24.8"/>
</g>
</g>
</svg>