<svg viewBox="0 0 155 58" preserveAspectRatio="none" class="svggraph" id="svgthumb_us" style="overflow:visible;width:155px;height:58px;" xmlns="http://www.w3.org/2000/svg" xlink="http://www.w3.org/1999/xlink" title="Chart for nicole">
<title>Last ranked
#266 in 2020 (f)
#985 in 1989 (m)</title>
<rect x="2" y="43" height="13" width="17" style="fill:rgb(200,200,200)"/>
<image x="2.5" y="43.5" href="/images/flags/24/us.png" preserveAspectRatio="xMinYMax meet" width="16" height="12"/>
<text x="153" y="55" class="svgtitle" text-anchor="end" style="fill:#000000;font-size:13px;">United States</text>
<line x1="0" y1="41" x2="155" y2="41" class="svggridline" style="stroke:rgb(200,200,200);stroke-width:1.3"/>
<g id="svgthumb_us-namepaths">
<g style="fill:none;stroke:#ff0000;stroke-width:1.3;" class="svgcurveline" id="svgthumb_us-nicole-f">
<path d=" M68.0893 40.8769 L68.6429 40.8462 L69.75 40.8154 L70.3036 40.8769 M71.4107 40.8769 L71.9643 40.8462 L73.0714 40.8462 L73.625 40.8769 M76.9464 40.8462 L77.5 40.8462 L78.6071 40.8462 L79.7143 40.8462 L80.8214 40.8154 L81.9286 40.8154 L83.0357 40.8154 L84.1429 40.7846 L85.25 40.7846 L86.3571 40.7231 L87.4643 40.6923 L88.5714 40.6308 L89.6786 40.6 L90.7857 40.1385 L91.8929 39.9846 L93 39.6769 L94.1071 39.4923 L95.2143 37.4308 L96.3214 36.0154 L97.4286 35.4615 L98.5357 28.4154 L99.6429 23.0308 L100.75 22.6923 L101.8571 10.9385 L102.9643 13.4308 L104.0714 15.2462 L105.1786 12.8462 L106.2857 12.7231 L107.3929 12.4769 L108.5 8.6615 L109.6071 6.1692 L110.7143 6.5692 L111.8214 6.0462 L112.9286 4.2 L114.0357 2.4769 L115.1429 3 L116.25 2.7231 L117.3571 5.4923 L118.4643 7.6769 L119.5714 8.5077 L120.6786 11.6154 L121.7857 14.1077 L122.8929 16.7231 L124 15.9538 L125.1071 15.7385 L126.2143 15.7385 L127.3214 21.3385 L128.4286 23.1231 L129.5357 23.6769 L130.6429 25.2769 L131.75 25.9538 L132.8571 27.8 L133.9643 28.8462 L135.0714 30.1385 L136.1786 31.4308 L137.2857 32.2308 L138.3929 33.4308 L139.5 34.6308 L140.6071 35.3692 L141.7143 36.1385 L142.8214 36.7846 L143.9286 36.9692 L145.0357 36.7846 L146.1429 36.7846 L147.25 35.6462 L148.3571 37 L149.4643 37.6462 L150.5714 37.8923 L151.6786 38.2923 L152.7857 38.6308 L153.8929 38.7231 L155 38.9692"/>
</g>
<g style="fill:none;stroke:#0000ff;stroke-width:1.3;" class="svgcurveline" id="svgthumb_us-nicole-m">
<path d=" M101.3036 40.8769 L101.8571 40.8769 L102.4107 40.8769 M107.9464 40.8769 L108.5 40.8462 L109.0536 40.8769 M110.1607 40.8769 L110.7143 40.8462 L111.8214 40.8462 L112.9286 40.8769 L114.0357 40.8462 L114.5893 40.8769 M120.125 40.8462 L120.6786 40.8462 L121.2321 40.8462"/>
</g>
</g>
</svg>