<svg viewBox="0 0 155 58" preserveAspectRatio="none" class="svggraph" id="svgthumb_us" style="overflow:visible;width:155px;height:58px;" xmlns="http://www.w3.org/2000/svg" xlink="http://www.w3.org/1999/xlink" title="Chart for noelle">
<title>Last ranked
#210 in 2020</title>
<rect x="2" y="43" height="13" width="17" style="fill:rgb(200,200,200)"/>
<image x="2.5" y="43.5" href="/images/flags/24/us.png" preserveAspectRatio="xMinYMax meet" width="16" height="12"/>
<text x="153" y="55" class="svgtitle" text-anchor="end" style="fill:#000000;font-size:13px;">United States</text>
<line x1="0" y1="41" x2="155" y2="41" class="svggridline" style="stroke:rgb(200,200,200);stroke-width:1.3"/>
<g id="svgthumb_us-namepaths">
<g style="fill:none;stroke:#ff0000;stroke-width:1.3;" class="svgcurveline" id="svgthumb_us-noelle-f">
<path d=" M92.4464 38.6 L93 37.4 L94.1071 36.2 L95.2143 33 L96.3214 31 L97.4286 30.2 L98.5357 31 L99.6429 31.8 L100.75 33 L101.8571 34.2 L102.9643 34.6 L104.0714 34.6 L105.1786 33 L106.2857 33 L107.3929 30.2 L108.5 30.2 L109.6071 30.6 L110.7143 31 L111.8214 32.6 L112.9286 34.2 L114.0357 31.8 L115.1429 31.4 L116.25 30.2 L117.3571 31.4 L118.4643 28.6 L119.5714 29 L120.6786 30.6 L121.7857 30.6 L122.8929 29.4 L124 30.2 L125.1071 29.8 L126.2143 29.8 L127.3214 29 L128.4286 27.8 L129.5357 25.8 L130.6429 27 L131.75 27.8 L132.8571 26.6 L133.9643 28.2 L135.0714 26.2 L136.1786 26.2 L137.2857 27.4 L138.3929 28.2 L139.5 27.8 L140.6071 28.6 L141.7143 27 L142.8214 26.2 L143.9286 23 L145.0357 22.2 L146.1429 19.8 L147.25 18.6 L148.3571 14.6 L149.4643 14.6 L150.5714 14.6 L151.6786 12.6 L152.7857 11.4 L153.8929 10.6 L155 9.8"/>
</g>
</g>
</svg>