<svg viewBox="0 0 155 58" preserveAspectRatio="none" class="svggraph" id="svgthumb_us" style="overflow:visible;width:155px;height:58px;" xmlns="http://www.w3.org/2000/svg" xlink="http://www.w3.org/1999/xlink" title="Chart for nova">
<title>Last ranked
#38 in 2020 (f)
#757 in 2020 (m)</title>
<rect x="2" y="43" height="13" width="17" style="fill:rgb(200,200,200)"/>
<image x="2.5" y="43.5" href="/images/flags/24/us.png" preserveAspectRatio="xMinYMax meet" width="16" height="12"/>
<text x="153" y="55" class="svgtitle" text-anchor="end" style="fill:#000000;font-size:13px;">United States</text>
<line x1="0" y1="41" x2="155" y2="41" class="svggridline" style="stroke:rgb(200,200,200);stroke-width:1.3"/>
<g id="svgthumb_us-namepaths">
<g style="fill:none;stroke:#ff0000;stroke-width:1.3;" class="svgcurveline" id="svgthumb_us-nova-f">
<path d=" M4.9821 40.4667 L5.5357 39.9333 L6.6429 40.3333 L7.1964 40.3333 M8.3036 40.3333 L8.8571 39.9333 L9.9643 40.2 L11.0714 40.0667 L12.1786 40.0667 L13.2857 39.8 L13.8393 40.4667 M14.9464 40.4667 L15.5 39.9333 L16.6071 39.9333 L17.7143 39.6667 L18.8214 40.0667 L19.9286 39.5333 L21.0357 39.9333 L22.1429 39.8 L23.25 39.8 L24.3571 40.2 L25.4643 39.9333 L26.5714 39.9333 L27.6786 39.6667 L28.7857 39.8 L29.8929 39.8 L31 39.6667 L32.1071 39.5333 L33.2143 39.9333 L34.3214 39.9333 L35.4286 39.8 L36.5357 39.8 L37.6429 40.2 L38.75 40.0667 L39.8571 40.0667 L40.9643 39.9333 L42.0714 40.0667 L43.1786 40.0667 L44.2857 39.8 L45.3929 40.0667 L46.5 40.0667 L47.6071 40.2 L48.7143 40.0667 L49.8214 40.0667 L50.9286 40.2 L52.0357 40.2 L53.1429 40.0667 L54.25 39.8 L55.3571 40.2 L56.4643 40.0667 L57.5714 40.0667 L58.6786 40.2 L59.7857 40.0667 L60.8929 40.0667 L62 40.3333 L63.1071 40.3333 L64.2143 40.2 L64.7679 40.4667 M144.4821 39.2667 L145.0357 39 L146.1429 37.8 L147.25 37.1333 L148.3571 33.2667 L149.4643 30.6 L150.5714 25.2667 L151.6786 19.5333 L152.7857 11.1333 L153.8929 9.5333 L155 3.4"/>
</g>
<g style="fill:none;stroke:#0000ff;stroke-width:1.3;" class="svgcurveline" id="svgthumb_us-nova-m">
<path d=" M151.125 39.6667 L151.6786 39.4 L152.7857 39.2667 L153.8929 39.2667 L155 38.7333"/>
</g>
</g>
</svg>