<svg viewBox="0 0 155 58" preserveAspectRatio="none" class="svggraph" id="svgthumb_us" style="overflow:visible;width:155px;height:58px;" xmlns="http://www.w3.org/2000/svg" xlink="http://www.w3.org/1999/xlink" title="Chart for oakley">
<title>Last ranked
#281 in 2020 (f)
#419 in 2020 (m)</title>
<rect x="2" y="43" height="13" width="17" style="fill:rgb(200,200,200)"/>
<image x="2.5" y="43.5" href="/images/flags/24/us.png" preserveAspectRatio="xMinYMax meet" width="16" height="12"/>
<text x="153" y="55" class="svgtitle" text-anchor="end" style="fill:#000000;font-size:13px;">United States</text>
<line x1="0" y1="41" x2="155" y2="41" class="svggridline" style="stroke:rgb(200,200,200);stroke-width:1.3"/>
<g id="svgthumb_us-namepaths">
<g style="fill:none;stroke:#ff0000;stroke-width:1.3;" class="svgcurveline" id="svgthumb_us-oakley-f">
<path d=" M146.6964 35.2222 L147.25 34.7778 L148.3571 32.5556 L149.4643 30.3333 L150.5714 28.5556 L151.6786 25.4444 L152.7857 21.8889 L153.8929 19.2222 L155 12.5556"/>
</g>
<g style="fill:none;stroke:#0000ff;stroke-width:1.3;" class="svgcurveline" id="svgthumb_us-oakley-m">
<path d=" M3.875 39.2222 L4.4286 37.8889 L4.9821 39.2222 M9.4107 38.7778 L9.9643 37.8889 L11.0714 38.7778 L11.625 38.7778 M12.7321 38.7778 L13.2857 38.7778 L13.8393 38.7778 M14.9464 38.7778 L15.5 38.3333 L16.6071 38.3333 L17.7143 37 L18.2679 38.7778 M19.375 38.7778 L19.9286 35.6667 L21.0357 37.8889 L21.5893 38.7778 M22.6964 38.7778 L23.25 37.8889 L24.3571 37 L24.9107 38.7778 M27.125 38.7778 L27.6786 38.3333 L28.2321 38.3333 M32.6607 38.3333 L33.2143 38.3333 L33.7679 38.7778 M34.875 38.7778 L35.4286 38.7778 L36.5357 37.8889 L37.0893 38.7778 M38.1964 38.7778 L38.75 38.7778 L39.3036 39.2222 M40.4107 39.2222 L40.9643 38.7778 L41.5179 39.2222 M42.625 39.2222 L43.1786 38.7778 L44.2857 38.7778 L44.8393 39.2222 M144.4821 36.5556 L145.0357 36.5556 L146.1429 35.6667 L147.25 34.7778 L148.3571 32.5556 L149.4643 30.3333 L150.5714 30.3333 L151.6786 27.2222 L152.7857 26.3333 L153.8929 25 L155 24.1111"/>
</g>
</g>
</svg>