<svg viewBox="0 0 155 58" preserveAspectRatio="none" class="svggraph" id="svgthumb_us" style="overflow:visible;width:155px;height:58px;" xmlns="http://www.w3.org/2000/svg" xlink="http://www.w3.org/1999/xlink" title="Chart for octavia">
<title>Last ranked
#335 in 2020</title>
<rect x="2" y="43" height="13" width="17" style="fill:rgb(200,200,200)"/>
<image x="2.5" y="43.5" href="/images/flags/24/us.png" preserveAspectRatio="xMinYMax meet" width="16" height="12"/>
<text x="153" y="55" class="svgtitle" text-anchor="end" style="fill:#000000;font-size:13px;">United States</text>
<line x1="0" y1="41" x2="155" y2="41" class="svggridline" style="stroke:rgb(200,200,200);stroke-width:1.3"/>
<g id="svgthumb_us-namepaths">
<g style="fill:none;stroke:#ff0000;stroke-width:1.3;" class="svgcurveline" id="svgthumb_us-octavia-f">
<path d="M0 25 L1.1071 30.1429 L2.2143 30.7143 L3.3214 28.4286 L4.4286 29 L5.5357 31.2857 L6.6429 29.5714 L7.75 30.1429 L8.8571 25.5714 L9.9643 31.2857 L11.0714 31.8571 L12.1786 30.7143 L13.2857 32.4286 L14.3929 30.7143 L15.5 33 L16.6071 32.4286 L17.7143 30.1429 L18.8214 30.1429 L19.9286 30.1429 L21.0357 31.2857 L22.1429 31.2857 L23.25 32.4286 L24.3571 33 L25.4643 33 L26.5714 30.1429 L27.6786 31.2857 L28.7857 32.4286 L29.8929 29.5714 L31 34.1429 L32.1071 32.4286 L33.2143 32.4286 L34.3214 34.7143 L35.4286 34.1429 L36.5357 34.7143 L37.6429 35.2857 L38.75 37.5714 L39.8571 35.2857 L40.9643 35.8571 L42.0714 36.4286 L43.1786 36.4286 L44.2857 35.8571 L45.3929 36.4286 L46.5 36.4286 L47.6071 37 L48.7143 37 L49.8214 37.5714 L50.9286 36.4286 L52.0357 37.5714 L53.1429 38.1429 L53.6964 38.1429 M54.8036 38.1429 L55.3571 38.1429 L56.4643 38.1429 L57.5714 37 L58.6786 38.1429 L59.2321 38.7143 M62.5536 38.7143 L63.1071 38.1429 L63.6607 38.7143 M100.1964 37 L100.75 36.4286 L101.8571 36.4286 L102.9643 34.7143 L104.0714 35.2857 L105.1786 34.1429 L106.2857 34.7143 L107.3929 34.7143 L108.5 34.1429 L109.6071 34.7143 L110.7143 34.7143 L111.8214 34.1429 L112.9286 33 L114.0357 33 L115.1429 32.4286 L116.25 31.2857 L117.3571 30.7143 L118.4643 27.2857 L119.5714 28.4286 L120.6786 30.1429 L121.7857 30.7143 L122.8929 30.1429 L124 30.1429 L125.1071 30.1429 L126.2143 32.4286 L127.3214 33 L128.4286 34.1429 L129.5357 33.5714 L130.6429 34.1429 L131.1964 34.7143 M151.125 33 L151.6786 25.5714 L152.7857 18.1429 L153.8929 14.7143 L155 11.2857"/>
</g>
</g>
</svg>