<svg viewBox="0 0 155 58" preserveAspectRatio="none" class="svggraph" id="svgthumb_us" style="overflow:visible;width:155px;height:58px;" xmlns="http://www.w3.org/2000/svg" xlink="http://www.w3.org/1999/xlink" title="Chart for olivia">
<title>Last ranked
#1 in 2020</title>
<rect x="2" y="43" height="13" width="17" style="fill:rgb(200,200,200)"/>
<image x="2.5" y="43.5" href="/images/flags/24/us.png" preserveAspectRatio="xMinYMax meet" width="16" height="12"/>
<text x="153" y="55" class="svgtitle" text-anchor="end" style="fill:#000000;font-size:13px;">United States</text>
<line x1="0" y1="41" x2="155" y2="41" class="svggridline" style="stroke:rgb(200,200,200);stroke-width:1.3"/>
<g id="svgthumb_us-namepaths">
<g style="fill:none;stroke:#ff0000;stroke-width:1.3;" class="svgcurveline" id="svgthumb_us-olivia-f">
<path d="M0 39.3636 L1.1071 39.1091 L2.2143 39.3636 L3.3214 39.6182 L4.4286 39.5818 L5.5357 39.4727 L6.6429 39.2909 L7.75 39.4 L8.8571 39.6545 L9.9643 39.0727 L11.0714 39.4727 L12.1786 39.7636 L13.2857 39.3636 L14.3929 39.2545 L15.5 39.0364 L16.6071 39.2909 L17.7143 39.3636 L18.8214 39.0727 L19.9286 39.1455 L21.0357 39.4 L22.1429 39.0727 L23.25 39.1818 L24.3571 39.3273 L25.4643 39.2909 L26.5714 39.0364 L27.6786 39.2182 L28.7857 38.8909 L29.8929 39.1455 L31 39.1455 L32.1071 39.2182 L33.2143 39.1818 L34.3214 39.4364 L35.4286 39.2182 L36.5357 39.4 L37.6429 39.4364 L38.75 39.6909 L39.8571 39.5091 L40.9643 39.4727 L42.0714 39.5818 L43.1786 39.5455 L44.2857 39.4727 L45.3929 39.5818 L46.5 39.4364 L47.6071 39.4727 L48.7143 39.5818 L49.8214 39.4727 L50.9286 39.6182 L52.0357 39.5455 L53.1429 39.6545 L54.25 39.5455 L55.3571 39.7636 L56.4643 39.7636 L57.5714 39.6909 L58.6786 39.7273 L59.7857 39.8 L60.8929 39.7636 L62 39.7273 L63.1071 39.6909 L64.2143 39.5818 L65.3214 39.6182 L66.4286 39.3273 L67.5357 39.2909 L68.6429 39.0727 L69.75 39.2545 L70.8571 39.0727 L71.9643 39.3273 L73.0714 39.3636 L74.1786 39.2909 L75.2857 39.2182 L76.3929 39.2182 L77.5 39.4 L78.6071 39.6909 L79.7143 39.6909 L80.8214 39.8364 L81.9286 39.8364 L83.0357 39.9091 L84.1429 40.0545 L85.25 40.0909 L86.3571 40.0182 L87.4643 40.1273 L88.5714 40.1636 L89.6786 40.2364 L90.7857 40.2364 L91.8929 40.1636 L93 40.2 L94.1071 40.1273 L95.2143 40.3091 L96.3214 40.2727 L97.4286 40.3091 L98.5357 40.2727 L99.6429 40.3091 L100.75 40.3091 L101.8571 40.2364 L102.9643 40.1636 L104.0714 39.8364 L105.1786 38.5636 L106.2857 38.1636 L107.3929 38.5636 L108.5 38.0909 L109.6071 38.3455 L110.7143 38.7091 L111.8214 38.8909 L112.9286 38.7455 L114.0357 38.7818 L115.1429 38.6727 L116.25 38.9636 L117.3571 38.5636 L118.4643 37.6909 L119.5714 36.9636 L120.6786 36.5636 L121.7857 32.8182 L122.8929 31 L124 30.4545 L125.1071 29.2909 L126.2143 29 L127.3214 26.5636 L128.4286 25.5818 L129.5357 22.9636 L130.6429 21.1091 L131.75 19.9818 L132.8571 17.5818 L133.9643 15.3273 L135.0714 14.0545 L136.1786 11.7273 L137.2857 11.9818 L138.3929 12.8545 L139.5 14.0182 L140.6071 12.4909 L141.7143 11.1455 L142.8214 9.6545 L143.9286 9.4 L145.0357 8.4545 L146.1429 8.4909 L147.25 6.2 L148.3571 4.1273 L149.4643 4.2 L150.5714 4.5273 L151.6786 4.8545 L152.7857 5.6909 L153.8929 4.0909 L155 4.6"/>
</g>
</g>
</svg>