<svg viewBox="0 0 155 58" preserveAspectRatio="none" class="svggraph" id="svgthumb_us" style="overflow:visible;width:155px;height:58px;" xmlns="http://www.w3.org/2000/svg" xlink="http://www.w3.org/1999/xlink" title="Chart for olive">
<title>Last ranked
#197 in 2020 (f)
#861 in 1892 (m)</title>
<rect x="2" y="43" height="13" width="17" style="fill:rgb(200,200,200)"/>
<image x="2.5" y="43.5" href="/images/flags/24/us.png" preserveAspectRatio="xMinYMax meet" width="16" height="12"/>
<text x="153" y="55" class="svgtitle" text-anchor="end" style="fill:#000000;font-size:13px;">United States</text>
<line x1="0" y1="41" x2="155" y2="41" class="svggridline" style="stroke:rgb(200,200,200);stroke-width:1.3"/>
<g id="svgthumb_us-namepaths">
<g style="fill:none;stroke:#ff0000;stroke-width:1.3;" class="svgcurveline" id="svgthumb_us-olive-f">
<path d="M0 10.4667 L1.1071 12.6 L2.2143 7.4 L3.3214 8.3333 L4.4286 6.0667 L5.5357 8.2 L6.6429 5.9333 L7.75 7.1333 L8.8571 8.3333 L9.9643 8.3333 L11.0714 8.6 L12.1786 6.4667 L13.2857 6.4667 L14.3929 6.0667 L15.5 7.6667 L16.6071 9.8 L17.7143 10.2 L18.8214 9.6667 L19.9286 9.6667 L21.0357 10.6 L22.1429 11.4 L23.25 12.7333 L24.3571 12.7333 L25.4643 12.3333 L26.5714 14.8667 L27.6786 15.2667 L28.7857 17.1333 L29.8929 18.6 L31 16.6 L32.1071 17.6667 L33.2143 20.4667 L34.3214 19.9333 L35.4286 21.1333 L36.5357 20.7333 L37.6429 20.8667 L38.75 19.4 L39.8571 21.1333 L40.9643 22.4667 L42.0714 23 L43.1786 24.0667 L44.2857 24.3333 L45.3929 24.7333 L46.5 26.8667 L47.6071 27.9333 L48.7143 30.0667 L49.8214 30.7333 L50.9286 31.5333 L52.0357 31.5333 L53.1429 32.2 L54.25 33.5333 L55.3571 34.8667 L56.4643 34.7333 L57.5714 35.1333 L58.6786 36.0667 L59.7857 37 L60.8929 37.4 L62 37.5333 L63.1071 37.9333 L64.2143 38.2 L65.3214 38.2 L66.4286 39.1333 L67.5357 38.7333 L68.6429 39.2667 L69.75 39.1333 L70.8571 39.9333 L71.9643 39.6667 L73.0714 39.9333 L74.1786 40.3333 L75.2857 40.0667 L76.3929 40.2 L77.5 40.2 L78.0536 40.3333 M140.0536 39.4 L140.6071 39.2667 L141.7143 38.7333 L142.8214 37.6667 L143.9286 37.2667 L145.0357 35.8 L146.1429 35.1333 L147.25 33.4 L148.3571 33.1333 L149.4643 32.7333 L150.5714 33 L151.6786 32.2 L152.7857 32.2 L153.8929 30.6 L155 29.8"/>
</g>
<g style="fill:none;stroke:#0000ff;stroke-width:1.3;" class="svgcurveline" id="svgthumb_us-olive-m">
<path d=" M11.625 40.4667 L12.1786 40.3333 L13.2857 40.3333 L13.8393 40.3333"/>
</g>
</g>
</svg>