<svg viewBox="0 0 155 58" preserveAspectRatio="none" class="svggraph" id="svgthumb_us" style="overflow:visible;width:155px;height:58px;" xmlns="http://www.w3.org/2000/svg" xlink="http://www.w3.org/1999/xlink" title="Chart for ophelia">
<title>Last ranked
#390 in 2020</title>
<rect x="2" y="43" height="13" width="17" style="fill:rgb(200,200,200)"/>
<image x="2.5" y="43.5" href="/images/flags/24/us.png" preserveAspectRatio="xMinYMax meet" width="16" height="12"/>
<text x="153" y="55" class="svgtitle" text-anchor="end" style="fill:#000000;font-size:13px;">United States</text>
<line x1="0" y1="41" x2="155" y2="41" class="svggridline" style="stroke:rgb(200,200,200);stroke-width:1.3"/>
<g id="svgthumb_us-namepaths">
<g style="fill:none;stroke:#ff0000;stroke-width:1.3;" class="svgcurveline" id="svgthumb_us-ophelia-f">
<path d="M0 11 L1.1071 23 L2.2143 9 L3.3214 10.3333 L4.4286 11.6667 L5.5357 17 L6.6429 15 L7.75 11 L8.8571 12.3333 L9.9643 14.3333 L11.0714 19.6667 L12.1786 13 L13.2857 11 L14.3929 14.3333 L15.5 19 L16.6071 16.3333 L17.7143 20.3333 L18.8214 13.6667 L19.9286 17 L21.0357 11 L22.1429 9.6667 L23.25 15 L24.3571 18.3333 L25.4643 11.6667 L26.5714 16.3333 L27.6786 14.3333 L28.7857 15.6667 L29.8929 15 L31 17.6667 L32.1071 12.3333 L33.2143 14.3333 L34.3214 21.6667 L35.4286 17.6667 L36.5357 21.6667 L37.6429 22.3333 L38.75 24.3333 L39.8571 25 L40.9643 24.3333 L42.0714 23.6667 L43.1786 22.3333 L44.2857 22.3333 L45.3929 23 L46.5 21.6667 L47.6071 23.6667 L48.7143 22.3333 L49.8214 21.6667 L50.9286 23.6667 L52.0357 24.3333 L53.1429 25 L54.25 26.3333 L55.3571 26.3333 L56.4643 29 L57.5714 27 L58.6786 27.6667 L59.7857 29 L60.8929 29.6667 L62 30.3333 L63.1071 29.6667 L64.2143 31 L65.3214 32.3333 L66.4286 32.3333 L67.5357 33.6667 L68.6429 33.6667 L69.75 33.6667 L70.8571 34.3333 L71.9643 35 L73.0714 36.3333 L74.1786 35.6667 L75.2857 35.6667 L76.3929 35.6667 L77.5 34.3333 L78.6071 35 L79.7143 36.3333 L80.8214 35.6667 L81.9286 35.6667 L83.0357 37 L84.1429 37 L85.25 37 L86.3571 37 L86.9107 37.6667 M148.9107 31.6667 L149.4643 31.6667 L150.5714 22.3333 L151.6786 14.3333 L152.7857 11 L153.8929 11.6667 L155 11"/>
</g>
</g>
</svg>