<svg viewBox="0 0 155 58" preserveAspectRatio="none" class="svggraph" id="svgthumb_us" style="overflow:visible;width:155px;height:58px;" xmlns="http://www.w3.org/2000/svg" xlink="http://www.w3.org/1999/xlink" title="Chart for paige">
<title>Last ranked
#271 in 2020</title>
<rect x="2" y="43" height="13" width="17" style="fill:rgb(200,200,200)"/>
<image x="2.5" y="43.5" href="/images/flags/24/us.png" preserveAspectRatio="xMinYMax meet" width="16" height="12"/>
<text x="153" y="55" class="svgtitle" text-anchor="end" style="fill:#000000;font-size:13px;">United States</text>
<line x1="0" y1="41" x2="155" y2="41" class="svggridline" style="stroke:rgb(200,200,200);stroke-width:1.3"/>
<g id="svgthumb_us-namepaths">
<g style="fill:none;stroke:#ff0000;stroke-width:1.3;" class="svgcurveline" id="svgthumb_us-paige-f">
<path d=" M79.1607 40.5 L79.7143 40.4 L80.2679 40.5 M82.4821 40.5 L83.0357 40.5 L84.1429 40.4 L84.6964 40.5 M85.8036 40.5 L86.3571 40.4 L87.4643 40.4 L88.5714 40.1 L89.6786 39.3 L90.7857 38.3 L91.8929 38.4 L93 38.3 L94.1071 38.1 L95.2143 36.5 L96.3214 36.4 L97.4286 36.9 L98.5357 36.8 L99.6429 36.8 L100.75 37.6 L101.8571 38 L102.9643 38.1 L104.0714 38 L105.1786 38.3 L106.2857 38.6 L107.3929 38.9 L108.5 38.8 L109.6071 38.7 L110.7143 38.3 L111.8214 37.6 L112.9286 37.8 L114.0357 37.7 L115.1429 37.6 L116.25 37.1 L117.3571 36.2 L118.4643 32.3 L119.5714 31.3 L120.6786 29 L121.7857 21 L122.8929 18.8 L124 14.5 L125.1071 12.5 L126.2143 14.3 L127.3214 11.2 L128.4286 13.1 L129.5357 14.7 L130.6429 15.3 L131.75 16.8 L132.8571 17.9 L133.9643 19.4 L135.0714 13.3 L136.1786 12.3 L137.2857 14 L138.3929 16.8 L139.5 20.6 L140.6071 23.1 L141.7143 23.5 L142.8214 24.2 L143.9286 25.6 L145.0357 26.5 L146.1429 26 L147.25 27.6 L148.3571 28.6 L149.4643 29.2 L150.5714 30.4 L151.6786 32 L152.7857 33.2 L153.8929 33.5 L155 34.5"/>
</g>
</g>
</svg>