<svg viewBox="0 0 155 58" preserveAspectRatio="none" class="svggraph" id="svgthumb_us" style="overflow:visible;width:155px;height:58px;" xmlns="http://www.w3.org/2000/svg" xlink="http://www.w3.org/1999/xlink" title="Chart for palmer">
<title>Last ranked
#346 in 2020 (f)
#900 in 1949 (m)</title>
<rect x="2" y="43" height="13" width="17" style="fill:rgb(200,200,200)"/>
<image x="2.5" y="43.5" href="/images/flags/24/us.png" preserveAspectRatio="xMinYMax meet" width="16" height="12"/>
<text x="153" y="55" class="svgtitle" text-anchor="end" style="fill:#000000;font-size:13px;">United States</text>
<line x1="0" y1="41" x2="155" y2="41" class="svggridline" style="stroke:rgb(200,200,200);stroke-width:1.3"/>
<g id="svgthumb_us-namepaths">
<g style="fill:none;stroke:#ff0000;stroke-width:1.3;" class="svgcurveline" id="svgthumb_us-palmer-f">
<path d=" M152.2321 33 L152.7857 27.8571 L153.8929 19.8571 L155 12.4286"/>
</g>
<g style="fill:none;stroke:#0000ff;stroke-width:1.3;" class="svgcurveline" id="svgthumb_us-palmer-m">
<path d="M0 36.4286 L1.1071 37 L2.2143 34.1429 L2.7679 38.7143 M3.875 38.7143 L4.4286 38.1429 L5.5357 37 L6.6429 35.2857 L7.75 34.1429 L8.8571 34.1429 L9.9643 37 L11.0714 36.4286 L12.1786 33 L13.2857 36.4286 L14.3929 34.1429 L15.5 33 L16.6071 35.2857 L17.7143 35.8571 L18.8214 30.1429 L19.9286 34.1429 L21.0357 35.8571 L22.1429 33.5714 L23.25 31.2857 L24.3571 36.4286 L25.4643 31.2857 L26.5714 33 L27.6786 33.5714 L28.7857 30.1429 L29.8929 33 L31 28.4286 L32.1071 31.8571 L33.2143 34.1429 L34.3214 31.2857 L35.4286 31.8571 L36.5357 31.8571 L37.6429 34.1429 L38.75 32.4286 L39.8571 32.4286 L40.9643 33 L42.0714 31.8571 L43.1786 33 L44.2857 33.5714 L45.3929 33 L46.5 33 L47.6071 34.1429 L48.7143 34.7143 L49.8214 34.7143 L50.9286 35.2857 L52.0357 35.8571 L53.1429 35.8571 L54.25 35.2857 L55.3571 35.8571 L56.4643 35.8571 L57.5714 36.4286 L58.6786 35.8571 L59.7857 37.5714 L60.8929 35.8571 L62 36.4286 L63.1071 37 L64.2143 38.1429 L65.3214 38.1429 L66.4286 37.5714 L67.5357 37.5714 L68.6429 38.1429 L69.75 38.1429 L70.8571 38.1429 L71.9643 39.2857 L73.0714 39.2857 L74.1786 39.2857 L75.2857 39.2857 L76.3929 39.2857 L76.9464 39.2857"/>
</g>
</g>
</svg>