<svg viewBox="0 0 155 58" preserveAspectRatio="none" class="svggraph" id="svgthumb_us" style="overflow:visible;width:155px;height:58px;" xmlns="http://www.w3.org/2000/svg" xlink="http://www.w3.org/1999/xlink" title="Chart for parker">
<title>Last ranked
#95 in 2020 (m)
#128 in 2020 (f)</title>
<rect x="2" y="43" height="13" width="17" style="fill:rgb(200,200,200)"/>
<image x="2.5" y="43.5" href="/images/flags/24/us.png" preserveAspectRatio="xMinYMax meet" width="16" height="12"/>
<text x="153" y="55" class="svgtitle" text-anchor="end" style="fill:#000000;font-size:13px;">United States</text>
<line x1="0" y1="41" x2="155" y2="41" class="svggridline" style="stroke:rgb(200,200,200);stroke-width:1.3"/>
<g id="svgthumb_us-namepaths">
<g style="fill:none;stroke:#0000ff;stroke-width:1.3;" class="svgcurveline" id="svgthumb_us-parker-m">
<path d="M0 39.4 L1.1071 39.5333 L2.2143 39.5333 L3.3214 40.0667 L4.4286 40.0667 L5.5357 40.3333 L6.6429 39.8 L7.75 39.2667 L8.8571 39.9333 L9.9643 39.5333 L11.0714 39.6667 L12.1786 39.1333 L13.2857 39.9333 L14.3929 39.5333 L15.5 38.8667 L16.6071 39.4 L17.7143 39.4 L18.8214 39.9333 L19.9286 39.5333 L21.0357 39.9333 L22.1429 39.6667 L23.25 39.9333 L24.3571 40.2 L25.4643 39.4 L26.5714 38.6 L27.6786 39.6667 L28.7857 39.5333 L29.3393 40.3333 M30.4464 40.3333 L31 39.9333 L32.1071 39.6667 L33.2143 40.0667 L34.3214 40.2 L35.4286 39.9333 L36.5357 39.6667 L37.6429 39.9333 L38.75 39.9333 L39.8571 40.0667 L40.9643 40.0667 L42.0714 39.9333 L43.1786 39.8 L44.2857 40.2 L45.3929 40.2 L46.5 40.0667 L47.6071 40.2 L48.7143 40.0667 L49.8214 40.0667 L50.9286 40.3333 L52.0357 40.0667 L53.1429 40.2 L54.25 39.9333 L55.3571 40.4667 L56.4643 40.3333 L57.5714 40.2 L58.6786 40.2 L59.7857 40.2 L60.8929 40.3333 L62 40.3333 L63.1071 40.4667 L64.2143 40.3333 L65.3214 40.3333 L66.4286 40.3333 L67.5357 40.4667 L68.6429 40.4667 L69.75 40.4667 L70.8571 40.6 L71.9643 40.4667 L73.0714 40.6 L74.1786 40.4667 L75.2857 40.4667 L76.3929 40.6 L77.5 40.6 L78.6071 40.6 L79.7143 40.6 L80.8214 40.6 L81.9286 40.6 L82.4821 40.6 M84.6964 40.6 L85.25 40.6 L85.8036 40.6 M93.5536 40.6 L94.1071 40.6 L94.6607 40.6 M96.875 40.6 L97.4286 40.4667 L97.9821 40.6 M100.1964 40.6 L100.75 40.4667 L101.3036 40.4667 M107.9464 40.4667 L108.5 40.2 L109.6071 39.9333 L110.7143 40.0667 L111.8214 40.0667 L112.9286 39.9333 L114.0357 39.5333 L115.1429 39.2667 L116.25 38.8667 L117.3571 38.6 L118.4643 38.7333 L119.5714 38.2 L120.6786 37.6667 L121.7857 36.4667 L122.8929 35.4 L124 33.9333 L125.1071 33.5333 L126.2143 32.8667 L127.3214 31.9333 L128.4286 29 L129.5357 25.6667 L130.6429 23.6667 L131.75 21.2667 L132.8571 21.2667 L133.9643 20.4667 L135.0714 21 L136.1786 20.7333 L137.2857 21.6667 L138.3929 19.6667 L139.5 18.7333 L140.6071 16.4667 L141.7143 14.6 L142.8214 11.9333 L143.9286 10.3333 L145.0357 6.2 L146.1429 5.6667 L147.25 3.5333 L148.3571 3.8 L149.4643 5.6667 L150.5714 9.9333 L151.6786 11.5333 L152.7857 13.5333 L153.8929 13.8 L155 13.4"/>
</g>
<g style="fill:none;stroke:#ff0000;stroke-width:1.3;" class="svgcurveline" id="svgthumb_us-parker-f">
<path d=" M131.1964 39.6667 L131.75 39.2667 L132.8571 39.2667 L133.9643 38.8667 L135.0714 38.8667 L136.1786 39 L137.2857 38.2 L138.3929 38.4667 L139.5 38.0667 L140.6071 37.8 L141.7143 37 L142.8214 37 L143.9286 36.6 L145.0357 35 L146.1429 33.9333 L147.25 32.7333 L148.3571 31.4 L149.4643 31.1333 L150.5714 30.7333 L151.6786 30.4667 L152.7857 28.3333 L153.8929 26.6 L155 24.7333"/>
</g>
</g>
</svg>