<svg viewBox="0 0 155 58" preserveAspectRatio="none" class="svggraph" id="svgthumb_us" style="overflow:visible;width:155px;height:58px;" xmlns="http://www.w3.org/2000/svg" xlink="http://www.w3.org/1999/xlink" title="Chart for payton">
<title>Last ranked
#218 in 2020 (f)
#906 in 2018 (m)</title>
<rect x="2" y="43" height="13" width="17" style="fill:rgb(200,200,200)"/>
<image x="2.5" y="43.5" href="/images/flags/24/us.png" preserveAspectRatio="xMinYMax meet" width="16" height="12"/>
<text x="153" y="55" class="svgtitle" text-anchor="end" style="fill:#000000;font-size:13px;">United States</text>
<line x1="0" y1="41" x2="155" y2="41" class="svggridline" style="stroke:rgb(200,200,200);stroke-width:1.3"/>
<g id="svgthumb_us-namepaths">
<g style="fill:none;stroke:#ff0000;stroke-width:1.3;" class="svgcurveline" id="svgthumb_us-payton-f">
<path d=" M123.4464 39.2 L124 38 L125.1071 35.8 L126.2143 35.2 L127.3214 34.4 L128.4286 30.4 L129.5357 27 L130.6429 26.8 L131.75 26.6 L132.8571 20.4 L133.9643 21 L135.0714 23.2 L136.1786 24.8 L137.2857 20.4 L138.3929 19.4 L139.5 20.4 L140.6071 19.4 L141.7143 6.4 L142.8214 5 L143.9286 4.4 L145.0357 8.4 L146.1429 10.6 L147.25 13.8 L148.3571 16.4 L149.4643 19.4 L150.5714 22.4 L151.6786 23.6 L152.7857 25.6 L153.8929 25.4 L155 26"/>
</g>
<g style="fill:none;stroke:#0000ff;stroke-width:1.3;" class="svgcurveline" id="svgthumb_us-payton-m">
<path d=" M116.8036 40.2 L117.3571 40 L118.4643 40 L119.5714 40 L120.125 40 M121.2321 40 L121.7857 39.8 L122.8929 39.4 L124 38.6 L125.1071 38 L126.2143 37 L127.3214 37 L128.4286 35.2 L129.5357 34.2 L130.6429 32 L131.75 31.8 L132.8571 25.8 L133.9643 28.2 L135.0714 28.6 L136.1786 29 L137.2857 27.8 L138.3929 27.6 L139.5 29.2 L140.6071 29.8 L141.7143 29.6 L142.8214 31.8 L143.9286 32.4 L145.0357 34 L146.1429 35.2 L147.25 36 L148.3571 37 L149.4643 37.4 L150.5714 38.2 L151.6786 38 L152.7857 38.6 L153.3393 38.8"/>
</g>
</g>
</svg>