<svg viewBox="0 0 155 58" preserveAspectRatio="none" class="svggraph" id="svgthumb_us" style="overflow:visible;width:155px;height:58px;" xmlns="http://www.w3.org/2000/svg" xlink="http://www.w3.org/1999/xlink" title="Chart for penelope">
<title>Last ranked
#25 in 2020</title>
<rect x="2" y="43" height="13" width="17" style="fill:rgb(200,200,200)"/>
<image x="2.5" y="43.5" href="/images/flags/24/us.png" preserveAspectRatio="xMinYMax meet" width="16" height="12"/>
<text x="153" y="55" class="svgtitle" text-anchor="end" style="fill:#000000;font-size:13px;">United States</text>
<line x1="0" y1="41" x2="155" y2="41" class="svggridline" style="stroke:rgb(200,200,200);stroke-width:1.3"/>
<g id="svgthumb_us-namepaths">
<g style="fill:none;stroke:#ff0000;stroke-width:1.3;" class="svgcurveline" id="svgthumb_us-penelope-f">
<path d="M0 40.5 L0.5536 40.6 M2.7679 40.6 L3.3214 40.5 L3.875 40.6 M6.0893 40.6 L6.6429 40.5 L7.1964 40.5 M11.625 40.6 L12.1786 40.5 L12.7321 40.6 M45.9464 40.6 L46.5 40.5 L47.6071 40.5 L48.7143 40.5 L49.8214 40.5 L50.9286 40.5 L51.4821 40.5 M60.3393 40.6 L60.8929 40.4 L62 40.1 L63.1071 39.4 L64.2143 39.4 L65.3214 37.8 L66.4286 37.3 L67.5357 36.6 L68.6429 36.2 L69.75 36.5 L70.8571 36 L71.9643 37.2 L73.0714 37 L74.1786 36.6 L75.2857 36.5 L76.3929 37.1 L77.5 37.3 L78.6071 37.9 L79.7143 38.2 L80.8214 38.2 L81.9286 38.6 L83.0357 38.9 L84.1429 39.2 L85.25 39 L86.3571 39.1 L87.4643 39.1 L88.5714 39.5 L89.6786 39.5 L90.7857 39.6 L91.8929 39.4 L93 39.6 L94.1071 39.6 L95.2143 39.7 L96.3214 39.5 L97.4286 39.4 L98.5357 39 L99.6429 39.3 L100.75 39.8 L101.8571 39.6 L102.9643 39.6 L104.0714 39.8 L105.1786 40 L105.7321 40.2 M133.4107 39.9 L133.9643 39.8 L135.0714 39.2 L136.1786 39.2 L137.2857 38.9 L138.3929 38.5 L139.5 37.9 L140.6071 37.2 L141.7143 36.6 L142.8214 34.6 L143.9286 33.1 L145.0357 31.3 L146.1429 27.9 L147.25 18.7 L148.3571 15 L149.4643 10.5 L150.5714 7.9 L151.6786 5.7 L152.7857 5.9 L153.8929 4.2 L155 6.2"/>
</g>
</g>
</svg>