<svg viewBox="0 0 155 58" preserveAspectRatio="none" class="svggraph" id="svgthumb_us" style="overflow:visible;width:155px;height:58px;" xmlns="http://www.w3.org/2000/svg" xlink="http://www.w3.org/1999/xlink" title="Chart for peyton">
<title>Last ranked
#98 in 2020 (f)
#430 in 2020 (m)</title>
<rect x="2" y="43" height="13" width="17" style="fill:rgb(200,200,200)"/>
<image x="2.5" y="43.5" href="/images/flags/24/us.png" preserveAspectRatio="xMinYMax meet" width="16" height="12"/>
<text x="153" y="55" class="svgtitle" text-anchor="end" style="fill:#000000;font-size:13px;">United States</text>
<line x1="0" y1="41" x2="155" y2="41" class="svggridline" style="stroke:rgb(200,200,200);stroke-width:1.3"/>
<g id="svgthumb_us-namepaths">
<g style="fill:none;stroke:#ff0000;stroke-width:1.3;" class="svgcurveline" id="svgthumb_us-peyton-f">
<path d=" M123.4464 39.8 L124 38.3333 L125.1071 36.8667 L126.2143 37 L127.3214 36.8667 L128.4286 33.2667 L129.5357 31.9333 L130.6429 31.2667 L131.75 31.6667 L132.8571 27.8 L133.9643 28.3333 L135.0714 29.5333 L136.1786 29.6667 L137.2857 25.1333 L138.3929 24.8667 L139.5 24.8667 L140.6071 23.5333 L141.7143 10.7333 L142.8214 5.9333 L143.9286 7.1333 L145.0357 8.7333 L146.1429 10.2 L147.25 9.2667 L148.3571 10.6 L149.4643 14.3333 L150.5714 16.8667 L151.6786 17.9333 L152.7857 20.0667 L153.8929 20.0667 L155 20.4667"/>
</g>
<g style="fill:none;stroke:#0000ff;stroke-width:1.3;" class="svgcurveline" id="svgthumb_us-peyton-m">
<path d=" M7.1964 40.4667 L7.75 40.2 L8.3036 40.3333 M10.5179 40.4667 L11.0714 40.3333 L12.1786 40.3333 L13.2857 40.2 L14.3929 40.2 L14.9464 40.3333 M19.375 40.3333 L19.9286 40.3333 L20.4821 40.3333 M120.125 40.3333 L120.6786 40.3333 L121.7857 40.2 L122.8929 40.2 L124 39.8 L125.1071 39.4 L126.2143 38.6 L127.3214 37.9333 L128.4286 35.8 L129.5357 33.5333 L130.6429 31.4 L131.75 31.9333 L132.8571 28.2 L133.9643 27.4 L135.0714 29.6667 L136.1786 29.8 L137.2857 25.2667 L138.3929 23.1333 L139.5 24.6 L140.6071 20.7333 L141.7143 21.2667 L142.8214 23.9333 L143.9286 23.8 L145.0357 25.9333 L146.1429 27.4 L147.25 28.8667 L148.3571 29 L149.4643 31.9333 L150.5714 32.8667 L151.6786 34.3333 L152.7857 35.5333 L153.8929 36.2 L155 36.0667"/>
</g>
</g>
</svg>