<svg viewBox="0 0 155 58" preserveAspectRatio="none" class="svggraph" id="svgthumb_us" style="overflow:visible;width:155px;height:58px;" xmlns="http://www.w3.org/2000/svg" xlink="http://www.w3.org/1999/xlink" title="Chart for phoenix">
<title>Last ranked
#238 in 2020 (m)
#286 in 2020 (f)</title>
<rect x="2" y="43" height="13" width="17" style="fill:rgb(200,200,200)"/>
<image x="2.5" y="43.5" href="/images/flags/24/us.png" preserveAspectRatio="xMinYMax meet" width="16" height="12"/>
<text x="153" y="55" class="svgtitle" text-anchor="end" style="fill:#000000;font-size:13px;">United States</text>
<line x1="0" y1="41" x2="155" y2="41" class="svggridline" style="stroke:rgb(200,200,200);stroke-width:1.3"/>
<g id="svgthumb_us-namepaths">
<g style="fill:none;stroke:#0000ff;stroke-width:1.3;" class="svgcurveline" id="svgthumb_us-phoenix-m">
<path d=" M126.7679 39.8 L127.3214 39.6 L127.875 39.8 M128.9821 39.8 L129.5357 39.6 L130.6429 39.4 L131.75 39.4 L132.8571 39.2 L133.9643 38 L135.0714 37.8 L136.1786 37.2 L137.2857 37 L138.3929 36 L139.5 34.8 L140.6071 34.8 L141.7143 34.2 L142.8214 33.2 L143.9286 33.6 L145.0357 33.8 L146.1429 33.2 L147.25 33.2 L148.3571 32.2 L149.4643 29.6 L150.5714 28.8 L151.6786 27.4 L152.7857 26 L153.8929 26.2 L155 24.6"/>
</g>
<g style="fill:none;stroke:#ff0000;stroke-width:1.3;" class="svgcurveline" id="svgthumb_us-phoenix-f">
<path d=" M135.625 38.8 L136.1786 38.6 L137.2857 38.2 L138.3929 38.2 L139.5 37.8 L140.6071 37.2 L141.7143 37 L142.8214 37 L143.9286 36.6 L145.0357 36.4 L146.1429 35.8 L147.25 34.6 L148.3571 34.6 L149.4643 33.8 L150.5714 33.4 L151.6786 32 L152.7857 31.2 L153.8929 29.8 L155 28.4"/>
</g>
</g>
</svg>