<svg viewBox="0 0 155 58" preserveAspectRatio="none" class="svggraph" id="svgthumb_us" style="overflow:visible;width:155px;height:58px;" xmlns="http://www.w3.org/2000/svg" xlink="http://www.w3.org/1999/xlink" title="Chart for phoebe">
<title>Last ranked
#256 in 2020</title>
<rect x="2" y="43" height="13" width="17" style="fill:rgb(200,200,200)"/>
<image x="2.5" y="43.5" href="/images/flags/24/us.png" preserveAspectRatio="xMinYMax meet" width="16" height="12"/>
<text x="153" y="55" class="svgtitle" text-anchor="end" style="fill:#000000;font-size:13px;">United States</text>
<line x1="0" y1="41" x2="155" y2="41" class="svggridline" style="stroke:rgb(200,200,200);stroke-width:1.3"/>
<g id="svgthumb_us-namepaths">
<g style="fill:none;stroke:#ff0000;stroke-width:1.3;" class="svgcurveline" id="svgthumb_us-phoebe-f">
<path d="M0 15.5 L1.1071 17.5 L2.2143 14 L3.3214 13.5 L4.4286 13.5 L5.5357 15.5 L6.6429 15 L7.75 20.5 L8.8571 24 L9.9643 23.5 L11.0714 22.5 L12.1786 19.5 L13.2857 21.5 L14.3929 22 L15.5 23 L16.6071 23 L17.7143 20 L18.8214 26.5 L19.9286 26.5 L21.0357 24 L22.1429 30 L23.25 30.5 L24.3571 25.5 L25.4643 29 L26.5714 30 L27.6786 27 L28.7857 32.5 L29.8929 29 L31 30.5 L32.1071 30.5 L33.2143 30.5 L34.3214 31 L35.4286 32 L36.5357 32.5 L37.6429 30 L38.75 31.5 L39.8571 32 L40.9643 31 L42.0714 32 L43.1786 33 L44.2857 32 L45.3929 33 L46.5 33.5 L47.6071 33.5 L48.7143 33.5 L49.8214 33.5 L50.9286 34.5 L52.0357 34 L53.1429 33.5 L54.25 34.5 L55.3571 34 L56.4643 34.5 L57.5714 34.5 L58.6786 34 L59.7857 35 L60.8929 35 L62 34.5 L63.1071 35.5 L64.2143 34.5 L65.3214 34.5 L66.4286 34.5 L67.5357 35 L68.6429 36.5 L69.75 36.5 L70.8571 37 L71.9643 37 L73.0714 37.5 L74.1786 37.5 L75.2857 38 L76.3929 38 L77.5 38 L78.6071 38 L79.7143 38.5 L80.8214 38.5 L81.9286 37.5 L83.0357 38 L84.1429 38.5 L84.6964 38.5 M85.8036 38.5 L86.3571 38.5 L87.4643 38 L88.5714 38 L89.6786 38 L90.2321 38 M94.6607 38 L95.2143 38 L96.3214 37 L96.875 38 M106.8393 37 L107.3929 36.5 L107.9464 37 M120.125 36.5 L120.6786 36.5 L121.7857 35.5 L122.8929 35 L124 36 L125.1071 35.5 L126.2143 34.5 L127.3214 30.5 L128.4286 29.5 L129.5357 30 L130.6429 30.5 L131.75 27.5 L132.8571 25 L133.9643 22 L135.0714 24 L136.1786 24 L137.2857 22.5 L138.3929 23 L139.5 19.5 L140.6071 17.5 L141.7143 18 L142.8214 16 L143.9286 14.5 L145.0357 14.5 L146.1429 13.5 L147.25 13.5 L148.3571 13 L149.4643 12.5 L150.5714 14 L151.6786 14 L152.7857 13.5 L153.8929 9.5 L155 8"/>
</g>
</g>
</svg>