<svg viewBox="0 0 155 58" preserveAspectRatio="none" class="svggraph" id="svgthumb_us" style="overflow:visible;width:155px;height:58px;" xmlns="http://www.w3.org/2000/svg" xlink="http://www.w3.org/1999/xlink" title="Chart for piper">
<title>Last ranked
#91 in 2020</title>
<rect x="2" y="43" height="13" width="17" style="fill:rgb(200,200,200)"/>
<image x="2.5" y="43.5" href="/images/flags/24/us.png" preserveAspectRatio="xMinYMax meet" width="16" height="12"/>
<text x="153" y="55" class="svgtitle" text-anchor="end" style="fill:#000000;font-size:13px;">United States</text>
<line x1="0" y1="41" x2="155" y2="41" class="svggridline" style="stroke:rgb(200,200,200);stroke-width:1.3"/>
<g id="svgthumb_us-namepaths">
<g style="fill:none;stroke:#ff0000;stroke-width:1.3;" class="svgcurveline" id="svgthumb_us-piper-f">
<path d=" M131.1964 39.6667 L131.75 38.7333 L132.8571 37.5333 L133.9643 36.2 L135.0714 36.6 L136.1786 35 L137.2857 33 L138.3929 32.7333 L139.5 32.2 L140.6071 31.6667 L141.7143 28.7333 L142.8214 26.6 L143.9286 26.4667 L145.0357 22.2 L146.1429 19.9333 L147.25 18.8667 L148.3571 14.6 L149.4643 12.7333 L150.5714 13.8 L151.6786 15.8 L152.7857 17.9333 L153.8929 17.8 L155 19"/>
</g>
</g>
</svg>