<svg viewBox="0 0 155 58" preserveAspectRatio="none" class="svggraph" id="svgthumb_us" style="overflow:visible;width:155px;height:58px;" xmlns="http://www.w3.org/2000/svg" xlink="http://www.w3.org/1999/xlink" title="Chart for presley">
<title>Last ranked
#213 in 2020 (f)
#783 in 1903 (m)</title>
<rect x="2" y="43" height="13" width="17" style="fill:rgb(200,200,200)"/>
<image x="2.5" y="43.5" href="/images/flags/24/us.png" preserveAspectRatio="xMinYMax meet" width="16" height="12"/>
<text x="153" y="55" class="svgtitle" text-anchor="end" style="fill:#000000;font-size:13px;">United States</text>
<line x1="0" y1="41" x2="155" y2="41" class="svggridline" style="stroke:rgb(200,200,200);stroke-width:1.3"/>
<g id="svgthumb_us-namepaths">
<g style="fill:none;stroke:#ff0000;stroke-width:1.3;" class="svgcurveline" id="svgthumb_us-presley-f">
<path d=" M130.0893 39 L130.6429 38.8 L131.75 38.8 L132.8571 38 L133.9643 38 L135.0714 37.4 L136.1786 37 L137.2857 36 L138.3929 35.2 L139.5 32 L140.6071 31.8 L141.7143 31.4 L142.8214 29 L143.9286 28.8 L145.0357 26.6 L146.1429 25.2 L147.25 24 L148.3571 23.2 L149.4643 23.2 L150.5714 24.4 L151.6786 24.8 L152.7857 24.8 L153.8929 24.8 L155 25.6"/>
</g>
<g style="fill:none;stroke:#0000ff;stroke-width:1.3;" class="svgcurveline" id="svgthumb_us-presley-m">
<path d=" M0.5536 40.2 L1.1071 39.8 L1.6607 40.2 M11.625 40.2 L12.1786 39.8 L12.7321 40 M24.9107 40 L25.4643 39.6 L26.0179 40"/>
</g>
</g>
</svg>