<svg viewBox="0 0 155 58" preserveAspectRatio="none" class="svggraph" id="svgthumb_us" style="overflow:visible;width:155px;height:58px;" xmlns="http://www.w3.org/2000/svg" xlink="http://www.w3.org/1999/xlink" title="Chart for quinn">
<title>Last ranked
#85 in 2020 (f)
#439 in 2020 (m)</title>
<rect x="2" y="43" height="13" width="17" style="fill:rgb(200,200,200)"/>
<image x="2.5" y="43.5" href="/images/flags/24/us.png" preserveAspectRatio="xMinYMax meet" width="16" height="12"/>
<text x="153" y="55" class="svgtitle" text-anchor="end" style="fill:#000000;font-size:13px;">United States</text>
<line x1="0" y1="41" x2="155" y2="41" class="svggridline" style="stroke:rgb(200,200,200);stroke-width:1.3"/>
<g id="svgthumb_us-namepaths">
<g style="fill:none;stroke:#ff0000;stroke-width:1.3;" class="svgcurveline" id="svgthumb_us-quinn-f">
<path d=" M109.0536 39.9333 L109.6071 39.9333 L110.1607 39.9333 M126.7679 39.6667 L127.3214 39.6667 L128.4286 39.6667 L129.5357 39.5333 L130.6429 39 L131.75 38.7333 L132.8571 39 L133.9643 39 L135.0714 38.7333 L136.1786 38.3333 L137.2857 38.3333 L138.3929 38.3333 L139.5 37.5333 L140.6071 37.6667 L141.7143 37.1333 L142.8214 36.8667 L143.9286 32.3333 L145.0357 29.4 L146.1429 26.4667 L147.25 22.6 L148.3571 23.5333 L149.4643 19.8 L150.5714 15.8 L151.6786 15.5333 L152.7857 16.7333 L153.8929 17.6667 L155 17.6667"/>
</g>
<g style="fill:none;stroke:#0000ff;stroke-width:1.3;" class="svgcurveline" id="svgthumb_us-quinn-m">
<path d=" M88.0179 40.6 L88.5714 40.6 L89.6786 40.6 L90.7857 40.6 L91.8929 40.3333 L93 40.2 L94.1071 40.3333 L95.2143 40.2 L96.3214 39.9333 L97.4286 40.2 L98.5357 40.2 L99.6429 39.9333 L100.75 39.9333 L101.8571 40.0667 L102.9643 39.9333 L104.0714 39.6667 L105.1786 39.8 L106.2857 39.8 L107.3929 39.8 L108.5 39.6667 L109.6071 39.4 L110.7143 39.4 L111.8214 39.6667 L112.9286 39.6667 L114.0357 39.8 L115.1429 39.6667 L116.25 39.8 L117.3571 39.2667 L118.4643 39.1333 L119.5714 39.2667 L120.6786 38.7333 L121.7857 38.7333 L122.8929 38.0667 L124 37.9333 L125.1071 37.4 L126.2143 37.1333 L127.3214 37 L128.4286 35.8 L129.5357 34.8667 L130.6429 35.6667 L131.75 34.4667 L132.8571 35 L133.9643 35 L135.0714 35.1333 L136.1786 34.2 L137.2857 34.4667 L138.3929 34.2 L139.5 33.5333 L140.6071 33 L141.7143 33.5333 L142.8214 32.6 L143.9286 33 L145.0357 33.5333 L146.1429 34.4667 L147.25 35.1333 L148.3571 35.2667 L149.4643 34.8667 L150.5714 34.0667 L151.6786 34.8667 L152.7857 35.2667 L153.8929 35.5333 L155 36.0667"/>
</g>
</g>
</svg>