<svg viewBox="0 0 155 58" preserveAspectRatio="none" class="svggraph" id="svgthumb_us" style="overflow:visible;width:155px;height:58px;" xmlns="http://www.w3.org/2000/svg" xlink="http://www.w3.org/1999/xlink" title="Chart for rachel">
<title>Last ranked
#227 in 2020 (f)
#993 in 1989 (m)</title>
<rect x="2" y="43" height="13" width="17" style="fill:rgb(200,200,200)"/>
<image x="2.5" y="43.5" href="/images/flags/24/us.png" preserveAspectRatio="xMinYMax meet" width="16" height="12"/>
<text x="153" y="55" class="svgtitle" text-anchor="end" style="fill:#000000;font-size:13px;">United States</text>
<line x1="0" y1="41" x2="155" y2="41" class="svggridline" style="stroke:rgb(200,200,200);stroke-width:1.3"/>
<g id="svgthumb_us-namepaths">
<g style="fill:none;stroke:#ff0000;stroke-width:1.3;" class="svgcurveline" id="svgthumb_us-rachel-f">
<path d="M0 33.4444 L1.1071 33.9333 L2.2143 33.2222 L3.3214 34.5556 L4.4286 33.5778 L5.5357 34.3778 L6.6429 34.8222 L7.75 34.5556 L8.8571 34.4222 L9.9643 34.7333 L11.0714 33.9778 L12.1786 34.9556 L13.2857 33.7111 L14.3929 34.6444 L15.5 35.0444 L16.6071 34.6889 L17.7143 34.8667 L18.8214 35.6667 L19.9286 35.0444 L21.0357 35.1778 L22.1429 35.7111 L23.25 34.5556 L24.3571 34.7778 L25.4643 34.8667 L26.5714 35.5778 L27.6786 34.9556 L28.7857 35.8 L29.8929 35.4889 L31 35.6667 L32.1071 35.4 L33.2143 35.3111 L34.3214 35.5778 L35.4286 35.6667 L36.5357 35.4 L37.6429 35.5778 L38.75 35.7556 L39.8571 35.5778 L40.9643 35.7111 L42.0714 35.3111 L43.1786 35.3556 L44.2857 35.7111 L45.3929 35.4889 L46.5 35.4889 L47.6071 35.7556 L48.7143 35.5333 L49.8214 35.9333 L50.9286 35.9778 L52.0357 36.3778 L53.1429 36.6 L54.25 36.3333 L55.3571 36.2 L56.4643 36.2889 L57.5714 35.9778 L58.6786 36.1556 L59.7857 36.1556 L60.8929 36.1111 L62 36.0222 L63.1071 36.0222 L64.2143 36.0222 L65.3214 35.7111 L66.4286 36.2444 L67.5357 36.0667 L68.6429 36.4667 L69.75 36.7333 L70.8571 36.9556 L71.9643 37 L73.0714 37.6222 L74.1786 37.4444 L75.2857 37.4444 L76.3929 37.3556 L77.5 37.3111 L78.6071 37.5333 L79.7143 37.2667 L80.8214 36.9111 L81.9286 36.9556 L83.0357 37 L84.1429 37.4 L85.25 37.1333 L86.3571 37.4444 L87.4643 37.2667 L88.5714 37.1778 L89.6786 36.6 L90.7857 36.7333 L91.8929 36.1111 L93 35.8444 L94.1071 36.1111 L95.2143 35.2222 L96.3214 32.4222 L97.4286 31.3111 L98.5357 27.8 L99.6429 26.3778 L100.75 25.4889 L101.8571 23.3111 L102.9643 23.5333 L104.0714 20.0222 L105.1786 17.5778 L106.2857 17.0889 L107.3929 16.7333 L108.5 14.5111 L109.6071 14.6 L110.7143 11.9778 L111.8214 9.7111 L112.9286 7 L114.0357 4.7778 L115.1429 1.9778 L116.25 1.6222 L117.3571 3.8 L118.4643 3.8889 L119.5714 5.5333 L120.6786 6.7333 L121.7857 7 L122.8929 5.2667 L124 5.8889 L125.1071 5 L126.2143 5.6667 L127.3214 3.8889 L128.4286 3.6222 L129.5357 8.8667 L130.6429 13 L131.75 14.4667 L132.8571 17.2222 L133.9643 19.5778 L135.0714 20.8667 L136.1786 23.3111 L137.2857 25.7556 L138.3929 27.4 L139.5 29.2222 L140.6071 30.8667 L141.7143 32.2889 L142.8214 33.1333 L143.9286 34.1556 L145.0357 34.9111 L146.1429 35.4444 L147.25 35.6667 L148.3571 36.2444 L149.4643 36.6 L150.5714 36.6889 L151.6786 37.1778 L152.7857 37.2667 L153.8929 37.2222 L155 37.7556"/>
</g>
<g style="fill:none;stroke:#0000ff;stroke-width:1.3;" class="svgcurveline" id="svgthumb_us-rachel-m">
<path d=" M114.5893 40.8222 L115.1429 40.8222 L115.6964 40.8222 M120.125 40.7778 L120.6786 40.7778 L121.2321 40.7778"/>
</g>
</g>
</svg>