<svg viewBox="0 0 155 58" preserveAspectRatio="none" class="svggraph" id="svgthumb_us" style="overflow:visible;width:155px;height:58px;" xmlns="http://www.w3.org/2000/svg" xlink="http://www.w3.org/1999/xlink" title="Chart for raegan">
<title>Last ranked
#254 in 2020</title>
<rect x="2" y="43" height="13" width="17" style="fill:rgb(200,200,200)"/>
<image x="2.5" y="43.5" href="/images/flags/24/us.png" preserveAspectRatio="xMinYMax meet" width="16" height="12"/>
<text x="153" y="55" class="svgtitle" text-anchor="end" style="fill:#000000;font-size:13px;">United States</text>
<line x1="0" y1="41" x2="155" y2="41" class="svggridline" style="stroke:rgb(200,200,200);stroke-width:1.3"/>
<g id="svgthumb_us-namepaths">
<g style="fill:none;stroke:#ff0000;stroke-width:1.3;" class="svgcurveline" id="svgthumb_us-raegan-f">
<path d=" M128.9821 37 L129.5357 35.4 L130.6429 35 L131.75 34.6 L132.8571 32.6 L133.9643 31.4 L135.0714 30.2 L136.1786 30.6 L137.2857 29 L138.3929 28.6 L139.5 27 L140.6071 25.4 L141.7143 25.4 L142.8214 23.8 L143.9286 23 L145.0357 21.8 L146.1429 18.6 L147.25 19.4 L148.3571 20.2 L149.4643 17 L150.5714 17.4 L151.6786 15.4 L152.7857 14.2 L153.8929 10.2 L155 14.2"/>
</g>
</g>
</svg>