<svg viewBox="0 0 155 58" preserveAspectRatio="none" class="svggraph" id="svgthumb_us" style="overflow:visible;width:155px;height:58px;" xmlns="http://www.w3.org/2000/svg" xlink="http://www.w3.org/1999/xlink" title="Chart for reagan">
<title>Last ranked
#114 in 2020 (f)
#970 in 2017 (m)</title>
<rect x="2" y="43" height="13" width="17" style="fill:rgb(200,200,200)"/>
<image x="2.5" y="43.5" href="/images/flags/24/us.png" preserveAspectRatio="xMinYMax meet" width="16" height="12"/>
<text x="153" y="55" class="svgtitle" text-anchor="end" style="fill:#000000;font-size:13px;">United States</text>
<line x1="0" y1="41" x2="155" y2="41" class="svggridline" style="stroke:rgb(200,200,200);stroke-width:1.3"/>
<g id="svgthumb_us-namepaths">
<g style="fill:none;stroke:#ff0000;stroke-width:1.3;" class="svgcurveline" id="svgthumb_us-reagan-f">
<path d=" M104.625 39.4 L105.1786 39.2 L105.7321 39.4 M106.8393 39.4 L107.3929 39.2 L108.5 39 L109.0536 39.4 M110.1607 39.4 L110.7143 39.2 L111.2679 39.4 M124.5536 39.2 L125.1071 39 L126.2143 38 L127.3214 36.8 L128.4286 35 L129.5357 33.8 L130.6429 31.8 L131.75 32.2 L132.8571 29.6 L133.9643 26.4 L135.0714 24.6 L136.1786 24.4 L137.2857 18.6 L138.3929 17 L139.5 19.6 L140.6071 19.6 L141.7143 18 L142.8214 16 L143.9286 15.6 L145.0357 14 L146.1429 9.2 L147.25 9.4 L148.3571 11.4 L149.4643 9.6 L150.5714 9 L151.6786 9.2 L152.7857 10.6 L153.8929 10.8 L155 14.2"/>
</g>
<g style="fill:none;stroke:#0000ff;stroke-width:1.3;" class="svgcurveline" id="svgthumb_us-reagan-m">
<path d=" M127.875 39.8 L128.4286 39.6 L129.5357 39.4 L130.6429 39.4 L131.75 39.2 L132.8571 39.2 L133.9643 38.8 L135.0714 38.8 L136.1786 39 L137.2857 37.6 L138.3929 38.2 L139.5 38.6 L140.6071 38.8 L141.7143 39.2 L142.8214 39 L143.9286 39 L145.0357 38.8 L146.1429 38.6 L147.25 39 L147.8036 39 M148.9107 39 L149.4643 39 L150.0179 39 M151.125 39 L151.6786 38.8 L152.2321 38.8"/>
</g>
</g>
</svg>