<svg viewBox="0 0 155 58" preserveAspectRatio="none" class="svggraph" id="svgthumb_us" style="overflow:visible;width:155px;height:58px;" xmlns="http://www.w3.org/2000/svg" xlink="http://www.w3.org/1999/xlink" title="Chart for rebecca">
<title>Last ranked
#250 in 2020 (f)
#982 in 1975 (m)</title>
<rect x="2" y="43" height="13" width="17" style="fill:rgb(200,200,200)"/>
<image x="2.5" y="43.5" href="/images/flags/24/us.png" preserveAspectRatio="xMinYMax meet" width="16" height="12"/>
<text x="153" y="55" class="svgtitle" text-anchor="end" style="fill:#000000;font-size:13px;">United States</text>
<line x1="0" y1="41" x2="155" y2="41" class="svggridline" style="stroke:rgb(200,200,200);stroke-width:1.3"/>
<g id="svgthumb_us-namepaths">
<g style="fill:none;stroke:#ff0000;stroke-width:1.3;" class="svgcurveline" id="svgthumb_us-rebecca-f">
<path d="M0 31.32 L1.1071 31.84 L2.2143 32.04 L3.3214 32.88 L4.4286 32.92 L5.5357 32.48 L6.6429 31.76 L7.75 33.92 L8.8571 33.88 L9.9643 33.88 L11.0714 33.6 L12.1786 34.48 L13.2857 34.72 L14.3929 34.64 L15.5 34.24 L16.6071 34.76 L17.7143 35.12 L18.8214 34.96 L19.9286 35.52 L21.0357 35.4 L22.1429 34.68 L23.25 35.6 L24.3571 35.56 L25.4643 36.2 L26.5714 35.92 L27.6786 35.8 L28.7857 35.92 L29.8929 36.24 L31 35.92 L32.1071 35.88 L33.2143 36.04 L34.3214 36.04 L35.4286 35.84 L36.5357 36.48 L37.6429 36.52 L38.75 36.44 L39.8571 36.84 L40.9643 36.68 L42.0714 36.88 L43.1786 36.68 L44.2857 36.92 L45.3929 37.04 L46.5 36.84 L47.6071 36.92 L48.7143 36.8 L49.8214 37.2 L50.9286 37.28 L52.0357 36.92 L53.1429 37.24 L54.25 37.24 L55.3571 37.2 L56.4643 37.04 L57.5714 36.68 L58.6786 36.92 L59.7857 36.72 L60.8929 36.56 L62 36.56 L63.1071 36.6 L64.2143 35.48 L65.3214 34.68 L66.4286 32.36 L67.5357 31.6 L68.6429 31.68 L69.75 31.88 L70.8571 31.48 L71.9643 31.12 L73.0714 29 L74.1786 27.08 L75.2857 25.4 L76.3929 21 L77.5 19.56 L78.6071 17.32 L79.7143 15.28 L80.8214 14.12 L81.9286 14.48 L83.0357 16.28 L84.1429 17.36 L85.25 19.12 L86.3571 20.84 L87.4643 20.84 L88.5714 21.84 L89.6786 21.28 L90.7857 22.44 L91.8929 22.12 L93 21.64 L94.1071 18.64 L95.2143 18.72 L96.3214 18.12 L97.4286 17.08 L98.5357 16.16 L99.6429 17.28 L100.75 13.16 L101.8571 8.12 L102.9643 2.72 L104.0714 2.28 L105.1786 5.32 L106.2857 4.12 L107.3929 6.48 L108.5 7.44 L109.6071 7.24 L110.7143 6.68 L111.8214 3.56 L112.9286 6.32 L114.0357 8.12 L115.1429 11.4 L116.25 13.48 L117.3571 15.44 L118.4643 16.16 L119.5714 16.32 L120.6786 16.04 L121.7857 14.36 L122.8929 14.84 L124 14.84 L125.1071 16 L126.2143 17.84 L127.3214 20.36 L128.4286 18.84 L129.5357 20.84 L130.6429 23.64 L131.75 25.72 L132.8571 26.84 L133.9643 29.12 L135.0714 30.44 L136.1786 31.28 L137.2857 32.16 L138.3929 33.08 L139.5 34.16 L140.6071 34.92 L141.7143 35.4 L142.8214 36.12 L143.9286 36.32 L145.0357 36.64 L146.1429 36.84 L147.25 37.24 L148.3571 37.36 L149.4643 37.48 L150.5714 37.72 L151.6786 37.96 L152.7857 37.88 L153.8929 38.24 L155 38.28"/>
</g>
<g style="fill:none;stroke:#0000ff;stroke-width:1.3;" class="svgcurveline" id="svgthumb_us-rebecca-m">
<path d=" M104.625 40.84 L105.1786 40.84 L105.7321 40.84"/>
</g>
</g>
</svg>