<svg viewBox="0 0 155 58" preserveAspectRatio="none" class="svggraph" id="svgthumb_us" style="overflow:visible;width:155px;height:58px;" xmlns="http://www.w3.org/2000/svg" xlink="http://www.w3.org/1999/xlink" title="Chart for reese">
<title>Last ranked
#144 in 2020 (f)
#729 in 2020 (m)</title>
<rect x="2" y="43" height="13" width="17" style="fill:rgb(200,200,200)"/>
<image x="2.5" y="43.5" href="/images/flags/24/us.png" preserveAspectRatio="xMinYMax meet" width="16" height="12"/>
<text x="153" y="55" class="svgtitle" text-anchor="end" style="fill:#000000;font-size:13px;">United States</text>
<line x1="0" y1="41" x2="155" y2="41" class="svggridline" style="stroke:rgb(200,200,200);stroke-width:1.3"/>
<g id="svgthumb_us-namepaths">
<g style="fill:none;stroke:#ff0000;stroke-width:1.3;" class="svgcurveline" id="svgthumb_us-reese-f">
<path d=" M132.3036 38.8 L132.8571 38.6 L133.9643 38 L135.0714 34.8 L136.1786 31 L137.2857 28.6 L138.3929 27 L139.5 20 L140.6071 18.8 L141.7143 19.6 L142.8214 19 L143.9286 17.8 L145.0357 16.4 L146.1429 15.6 L147.25 19.6 L148.3571 20.8 L149.4643 22 L150.5714 22.2 L151.6786 22.4 L152.7857 21.6 L153.8929 21.2 L155 19.6"/>
</g>
<g style="fill:none;stroke:#0000ff;stroke-width:1.3;" class="svgcurveline" id="svgthumb_us-reese-m">
<path d="M0 40 L1.1071 39.6 L2.2143 39.6 L3.3214 39.6 L4.4286 39.4 L5.5357 39.6 L6.6429 39.4 L7.1964 40 M8.3036 40 L8.8571 40 L9.9643 38.4 L10.5179 40.2 M11.625 40.2 L12.1786 39 L13.2857 39.4 L14.3929 39 L15.5 39.6 L16.6071 39.8 L17.7143 39.8 L18.8214 38.6 L19.9286 39.6 L21.0357 39.6 L22.1429 39.8 L23.25 39.4 L24.3571 39.2 L24.9107 40 M26.0179 40 L26.5714 39.4 L27.6786 39.2 L28.7857 39.8 L29.3393 40 M30.4464 40 L31 39.2 L32.1071 39.6 L33.2143 38.6 L34.3214 39.8 L35.4286 40 L36.5357 40 L37.6429 39.8 L38.75 40 L39.8571 39.8 L40.9643 40 L41.5179 40.2 M42.625 40.2 L43.1786 40 L43.7321 40.2 M44.8393 40.2 L45.3929 39.8 L45.9464 40.2 M47.0536 40.2 L47.6071 40 L48.7143 40 L49.2679 40.2 M50.375 40.2 L50.9286 40.2 L52.0357 40.2 L53.1429 40 L53.6964 40.2 M62.5536 40.2 L63.1071 40.2 L63.6607 40.2 M69.1964 40.4 L69.75 40.2 L70.3036 40.4 M75.8393 40.4 L76.3929 40.4 L77.5 40.4 L78.0536 40.4 M83.5893 40.4 L84.1429 40.4 L85.25 40.4 L85.8036 40.4 M93.5536 40.4 L94.1071 40.4 L95.2143 40.2 L96.3214 40.2 L97.4286 40.2 L97.9821 40.4 M99.0893 40.4 L99.6429 40.2 L100.1964 40.2 M115.6964 40.2 L116.25 40 L117.3571 40 L117.9107 40 M119.0179 40 L119.5714 40 L120.6786 39.8 L121.7857 39.8 L122.8929 39.8 L124 39.4 L125.1071 39.2 L126.2143 39.2 L127.3214 38.8 L128.4286 39 L129.5357 38.6 L130.6429 37.4 L131.75 36 L132.8571 35.4 L133.9643 34.8 L135.0714 34.4 L136.1786 34.2 L137.2857 34.4 L138.3929 34.4 L139.5 35.2 L140.6071 35.6 L141.7143 35.6 L142.8214 35.6 L143.9286 35.8 L145.0357 36.4 L146.1429 36.4 L147.25 36.8 L148.3571 37 L149.4643 37.6 L150.5714 37.2 L151.6786 37.4 L152.7857 37 L153.8929 37.8 L155 37.4"/>
</g>
</g>
</svg>