<svg viewBox="0 0 155 58" preserveAspectRatio="none" class="svggraph" id="svgthumb_us" style="overflow:visible;width:155px;height:58px;" xmlns="http://www.w3.org/2000/svg" xlink="http://www.w3.org/1999/xlink" title="Chart for regina">
<title>Last ranked
#431 in 2020</title>
<rect x="2" y="43" height="13" width="17" style="fill:rgb(200,200,200)"/>
<image x="2.5" y="43.5" href="/images/flags/24/us.png" preserveAspectRatio="xMinYMax meet" width="16" height="12"/>
<text x="153" y="55" class="svgtitle" text-anchor="end" style="fill:#000000;font-size:13px;">United States</text>
<line x1="0" y1="41" x2="155" y2="41" class="svggridline" style="stroke:rgb(200,200,200);stroke-width:1.3"/>
<g id="svgthumb_us-namepaths">
<g style="fill:none;stroke:#ff0000;stroke-width:1.3;" class="svgcurveline" id="svgthumb_us-regina-f">
<path d="M0 36.0667 L1.1071 35.5333 L2.2143 36.0667 L3.3214 36.7333 L4.4286 34.4667 L5.5357 34.3333 L6.6429 35 L7.75 35.4 L8.8571 34.4667 L9.9643 34.0667 L11.0714 33.4 L12.1786 33.9333 L13.2857 33.4 L14.3929 34.2 L15.5 33.5333 L16.6071 33.5333 L17.7143 33.1333 L18.8214 31.5333 L19.9286 32.8667 L21.0357 33.9333 L22.1429 32.6 L23.25 29.5333 L24.3571 31.5333 L25.4643 30.7333 L26.5714 31.9333 L27.6786 31.4 L28.7857 31.2667 L29.8929 31.4 L31 31.4 L32.1071 31.4 L33.2143 29.5333 L34.3214 30.6 L35.4286 30.0667 L36.5357 30.7333 L37.6429 29.4 L38.75 29.6667 L39.8571 29.6667 L40.9643 29 L42.0714 28.4667 L43.1786 28.8667 L44.2857 29 L45.3929 29.1333 L46.5 28.8667 L47.6071 28.4667 L48.7143 28.3333 L49.8214 29.6667 L50.9286 30.2 L52.0357 30.6 L53.1429 30.3333 L54.25 30.7333 L55.3571 31.8 L56.4643 31.6667 L57.5714 32.3333 L58.6786 32.7333 L59.7857 32.6 L60.8929 33.1333 L62 32.3333 L63.1071 32.4667 L64.2143 33 L65.3214 32.8667 L66.4286 32.8667 L67.5357 33.2667 L68.6429 31.6667 L69.75 30.8667 L70.8571 31.8 L71.9643 31.2667 L73.0714 30.8667 L74.1786 30.0667 L75.2857 23.4 L76.3929 23.8 L77.5 24.6 L78.6071 23.5333 L79.7143 23.1333 L80.8214 22.2 L81.9286 22.8667 L83.0357 18.6 L84.1429 18.8667 L85.25 17.6667 L86.3571 16.3333 L87.4643 15.8 L88.5714 11.6667 L89.6786 10.4667 L90.7857 8.0667 L91.8929 9.4 L93 6.8667 L94.1071 7.8 L95.2143 8.3333 L96.3214 7.1333 L97.4286 7.5333 L98.5357 8.7333 L99.6429 8.7333 L100.75 11.5333 L101.8571 15.2667 L102.9643 16.6 L104.0714 19 L105.1786 19 L106.2857 21.6667 L107.3929 22.2 L108.5 23.2667 L109.6071 24.6 L110.7143 25.6667 L111.8214 27 L112.9286 28.4667 L114.0357 28.7333 L115.1429 29.9333 L116.25 31.8 L117.3571 31.8 L118.4643 32.4667 L119.5714 33.6667 L120.6786 34.3333 L121.7857 34.6 L122.8929 35.2667 L124 35.5333 L125.1071 35.9333 L126.2143 36.4667 L127.3214 36.4667 L128.4286 36.6 L129.5357 37 L130.6429 37.5333 L131.75 37.8 L132.8571 37.6667 L133.9643 37.9333 L135.0714 38.2 L136.1786 38.2 L137.2857 38.2 L138.3929 37.9333 L139.5 37.9333 L140.6071 37.6667 L141.7143 38.2 L142.8214 38.3333 L143.9286 37.5333 L145.0357 37.4 L146.1429 37.5333 L147.25 37.5333 L148.3571 37 L149.4643 36.8667 L150.5714 35.9333 L151.6786 35.5333 L152.7857 35.5333 L153.8929 35.5333 L155 35.6667"/>
</g>
</g>
</svg>