<svg viewBox="0 0 155 58" preserveAspectRatio="none" class="svggraph" id="svgthumb_us" style="overflow:visible;width:155px;height:58px;" xmlns="http://www.w3.org/2000/svg" xlink="http://www.w3.org/1999/xlink" title="Chart for remington">
<title>Last ranked
#230 in 2020 (m)
#360 in 2020 (f)</title>
<rect x="2" y="43" height="13" width="17" style="fill:rgb(200,200,200)"/>
<image x="2.5" y="43.5" href="/images/flags/24/us.png" preserveAspectRatio="xMinYMax meet" width="16" height="12"/>
<text x="153" y="55" class="svgtitle" text-anchor="end" style="fill:#000000;font-size:13px;">United States</text>
<line x1="0" y1="41" x2="155" y2="41" class="svggridline" style="stroke:rgb(200,200,200);stroke-width:1.3"/>
<g id="svgthumb_us-namepaths">
<g style="fill:none;stroke:#0000ff;stroke-width:1.3;" class="svgcurveline" id="svgthumb_us-remington-m">
<path d=" M113.4821 40.2 L114.0357 39.8 L115.1429 40 L115.6964 40.2 M120.125 40 L120.6786 39.6 L121.7857 39.8 L122.8929 39.8 L124 39.8 L125.1071 39.8 L126.2143 39.4 L127.3214 39.6 L128.4286 39.4 L129.5357 39 L130.6429 38.8 L131.75 38.8 L132.8571 39 L133.9643 39.2 L135.0714 39.2 L136.1786 39 L137.2857 39 L138.3929 38.8 L139.5 38.6 L140.6071 38.6 L141.7143 38 L142.8214 36.8 L143.9286 36.4 L145.0357 35.6 L146.1429 34.4 L147.25 32.4 L148.3571 30.2 L149.4643 29.2 L150.5714 27 L151.6786 25.8 L152.7857 25.2 L153.8929 23.8 L155 23.4"/>
</g>
<g style="fill:none;stroke:#ff0000;stroke-width:1.3;" class="svgcurveline" id="svgthumb_us-remington-f">
<path d=" M147.8036 38.4 L148.3571 36.8 L149.4643 36.2 L150.5714 33.8 L151.6786 33 L152.7857 31.6 L153.8929 31.8 L155 31.2"/>
</g>
</g>
</svg>