<svg viewBox="0 0 155 58" preserveAspectRatio="none" class="svggraph" id="svgthumb_us" style="overflow:visible;width:155px;height:58px;" xmlns="http://www.w3.org/2000/svg" xlink="http://www.w3.org/1999/xlink" title="Chart for riley">
<title>Last ranked
#33 in 2020 (f)
#258 in 2020 (m)</title>
<rect x="2" y="43" height="13" width="17" style="fill:rgb(200,200,200)"/>
<image x="2.5" y="43.5" href="/images/flags/24/us.png" preserveAspectRatio="xMinYMax meet" width="16" height="12"/>
<text x="153" y="55" class="svgtitle" text-anchor="end" style="fill:#000000;font-size:13px;">United States</text>
<line x1="0" y1="41" x2="155" y2="41" class="svggridline" style="stroke:rgb(200,200,200);stroke-width:1.3"/>
<g id="svgthumb_us-namepaths">
<g style="fill:none;stroke:#ff0000;stroke-width:1.3;" class="svgcurveline" id="svgthumb_us-riley-f">
<path d=" M121.2321 40.1 L121.7857 39.8 L122.8929 39.6 L124 38.9 L125.1071 38.2 L126.2143 37.1 L127.3214 36 L128.4286 35 L129.5357 32.3 L130.6429 31.3 L131.75 29.1 L132.8571 28.2 L133.9643 25.6 L135.0714 21.2 L136.1786 19.8 L137.2857 16.3 L138.3929 15.7 L139.5 16.8 L140.6071 16.4 L141.7143 13.3 L142.8214 13.2 L143.9286 12.7 L145.0357 15 L146.1429 16.1 L147.25 15.4 L148.3571 16.5 L149.4643 11.6 L150.5714 4 L151.6786 7.3 L152.7857 8.7 L153.8929 9.8 L155 10.7"/>
</g>
<g style="fill:none;stroke:#0000ff;stroke-width:1.3;" class="svgcurveline" id="svgthumb_us-riley-m">
<path d="M0 37.5 L1.1071 36.7 L2.2143 36.6 L3.3214 37 L4.4286 37.2 L5.5357 36 L6.6429 37.7 L7.75 36.8 L8.8571 38.2 L9.9643 37.3 L11.0714 37.7 L12.1786 38.4 L13.2857 38 L14.3929 38 L15.5 38 L16.6071 37.1 L17.7143 38 L18.8214 37.4 L19.9286 38 L21.0357 38 L22.1429 37.7 L23.25 38.4 L24.3571 38.2 L25.4643 38.8 L26.5714 38.7 L27.6786 38.6 L28.7857 38.4 L29.8929 38.5 L31 38.5 L32.1071 38.2 L33.2143 38 L34.3214 39.1 L35.4286 39.1 L36.5357 39.2 L37.6429 39.5 L38.75 39.4 L39.8571 39.2 L40.9643 39.6 L42.0714 39.3 L43.1786 39.1 L44.2857 39.5 L45.3929 39.6 L46.5 39.6 L47.6071 39.5 L48.7143 39.6 L49.8214 39.6 L50.9286 39.4 L52.0357 39.6 L53.1429 39.5 L54.25 39.5 L55.3571 39.6 L56.4643 39.7 L57.5714 39.8 L58.6786 39.5 L59.7857 39.5 L60.8929 39.5 L62 39.5 L63.1071 39.7 L64.2143 39.8 L65.3214 39.8 L66.4286 39.7 L67.5357 39.6 L68.6429 39.9 L69.75 39.8 L70.8571 39.8 L71.9643 40 L73.0714 40 L74.1786 40 L75.2857 40 L76.3929 40.1 L77.5 40.2 L78.6071 40.2 L79.7143 40.2 L80.8214 40.2 L81.9286 40.2 L83.0357 40.4 L84.1429 40.4 L85.25 40.4 L86.3571 40.5 L87.4643 40.5 L88.5714 40.5 L89.6786 40.5 L90.7857 40.5 L91.8929 40.5 L93 40.5 L94.1071 40.6 L95.2143 40.5 L96.3214 40.6 L97.4286 40.5 L98.5357 40.6 L99.6429 40.6 L100.75 40.5 L101.8571 40.5 L102.9643 40.4 L104.0714 40.5 L105.1786 40.3 L106.2857 40.4 L107.3929 40.3 L108.5 40 L109.6071 40.1 L110.7143 40.1 L111.8214 40 L112.9286 40 L114.0357 39.8 L115.1429 39.7 L116.25 39.3 L117.3571 38.9 L118.4643 38.6 L119.5714 38.4 L120.6786 37.8 L121.7857 37.2 L122.8929 36.9 L124 35.9 L125.1071 34.3 L126.2143 33.2 L127.3214 31.5 L128.4286 29.1 L129.5357 26.8 L130.6429 26.1 L131.75 26.4 L132.8571 24.6 L133.9643 23.3 L135.0714 21.8 L136.1786 21.6 L137.2857 21.5 L138.3929 21.7 L139.5 20.9 L140.6071 23.1 L141.7143 22 L142.8214 23.1 L143.9286 23.3 L145.0357 24 L146.1429 26.8 L147.25 28.3 L148.3571 29.1 L149.4643 30.8 L150.5714 32.5 L151.6786 33.6 L152.7857 33.5 L153.8929 33.8 L155 33.6"/>
</g>
</g>
</svg>