<svg viewBox="0 0 155 58" preserveAspectRatio="none" class="svggraph" id="svgthumb_us" style="overflow:visible;width:155px;height:58px;" xmlns="http://www.w3.org/2000/svg" xlink="http://www.w3.org/1999/xlink" title="Chart for river">
<title>Last ranked
#129 in 2020 (m)
#186 in 2020 (f)</title>
<rect x="2" y="43" height="13" width="17" style="fill:rgb(200,200,200)"/>
<image x="2.5" y="43.5" href="/images/flags/24/us.png" preserveAspectRatio="xMinYMax meet" width="16" height="12"/>
<text x="153" y="55" class="svgtitle" text-anchor="end" style="fill:#000000;font-size:13px;">United States</text>
<line x1="0" y1="41" x2="155" y2="41" class="svggridline" style="stroke:rgb(200,200,200);stroke-width:1.3"/>
<g id="svgthumb_us-namepaths">
<g style="fill:none;stroke:#0000ff;stroke-width:1.3;" class="svgcurveline" id="svgthumb_us-river-m">
<path d=" M125.6607 39.8 L126.2143 39.6 L127.3214 38.2 L128.4286 38.4 L129.5357 37.2 L130.6429 36.8 L131.75 37.4 L132.8571 38 L133.9643 37.8 L135.0714 37.8 L136.1786 37.4 L137.2857 37 L138.3929 36.6 L139.5 36.4 L140.6071 36.8 L141.7143 35.4 L142.8214 35.2 L143.9286 34.8 L145.0357 34.6 L146.1429 33.8 L147.25 32.8 L148.3571 28.8 L149.4643 26.2 L150.5714 22.8 L151.6786 21 L152.7857 19.6 L153.8929 16.2 L155 10.8"/>
</g>
<g style="fill:none;stroke:#ff0000;stroke-width:1.3;" class="svgcurveline" id="svgthumb_us-river-f">
<path d=" M142.2679 38.4 L142.8214 38.2 L143.9286 38.4 L145.0357 38 L146.1429 36.8 L147.25 36 L148.3571 33.8 L149.4643 31.2 L150.5714 29.2 L151.6786 28.4 L152.7857 26.6 L153.8929 25.4 L155 23.4"/>
</g>
</g>
</svg>