<svg viewBox="0 0 155 58" preserveAspectRatio="none" class="svggraph" id="svgthumb_us" style="overflow:visible;width:155px;height:58px;" xmlns="http://www.w3.org/2000/svg" xlink="http://www.w3.org/1999/xlink" title="Chart for rory">
<title>Last ranked
#330 in 2020 (m)
#457 in 2020 (f)</title>
<rect x="2" y="43" height="13" width="17" style="fill:rgb(200,200,200)"/>
<image x="2.5" y="43.5" href="/images/flags/24/us.png" preserveAspectRatio="xMinYMax meet" width="16" height="12"/>
<text x="153" y="55" class="svgtitle" text-anchor="end" style="fill:#000000;font-size:13px;">United States</text>
<line x1="0" y1="41" x2="155" y2="41" class="svggridline" style="stroke:rgb(200,200,200);stroke-width:1.3"/>
<g id="svgthumb_us-namepaths">
<g style="fill:none;stroke:#0000ff;stroke-width:1.3;" class="svgcurveline" id="svgthumb_us-rory-m">
<path d=" M73.625 39.2857 L74.1786 38.7143 L75.2857 37 L76.3929 36.4286 L77.5 35.8571 L78.6071 37 L79.7143 36.4286 L80.8214 34.7143 L81.9286 33 L83.0357 30.7143 L84.1429 27.2857 L85.25 28.4286 L86.3571 27.8571 L87.4643 19.8571 L88.5714 24.4286 L89.6786 27.8571 L90.7857 27.2857 L91.8929 30.1429 L93 30.7143 L94.1071 30.1429 L95.2143 33 L96.3214 34.7143 L97.4286 35.2857 L98.5357 30.1429 L99.6429 32.4286 L100.75 34.7143 L101.8571 34.7143 L102.9643 36.4286 L104.0714 35.2857 L105.1786 35.2857 L106.2857 32.4286 L107.3929 23.2857 L108.5 26.7143 L109.6071 30.1429 L110.7143 30.1429 L111.8214 27.8571 L112.9286 18.7143 L114.0357 24.4286 L115.1429 24.4286 L116.25 26.1429 L117.3571 27.8571 L118.4643 29.5714 L119.5714 29.5714 L120.6786 30.1429 L121.7857 31.2857 L122.8929 31.8571 L124 33.5714 L125.1071 34.7143 L126.2143 34.7143 L127.3214 35.2857 L128.4286 34.1429 L129.5357 34.1429 L130.6429 32.4286 L131.75 33 L132.8571 33 L133.9643 34.7143 L135.0714 34.1429 L136.1786 32.4286 L137.2857 34.1429 L138.3929 33.5714 L139.5 34.7143 L140.6071 34.1429 L141.7143 33.5714 L142.8214 33 L143.9286 32.4286 L145.0357 29.5714 L146.1429 25 L147.25 23.8571 L148.3571 19.8571 L149.4643 17 L150.5714 17.5714 L151.6786 15.8571 L152.7857 14.7143 L153.8929 13.5714 L155 10.1429"/>
</g>
<g style="fill:none;stroke:#ff0000;stroke-width:1.3;" class="svgcurveline" id="svgthumb_us-rory-f">
<path d=" M135.625 34.7143 L136.1786 34.1429 L136.7321 34.1429 M141.1607 33.5714 L141.7143 33.5714 L142.8214 33 L143.375 33.5714 M144.4821 33.5714 L145.0357 32.4286 L145.5893 33.5714 M146.6964 33.5714 L147.25 32.4286 L148.3571 31.2857 L149.4643 29 L150.5714 27.2857 L151.6786 25 L152.7857 24.4286 L153.8929 19.8571 L155 19.2857"/>
</g>
</g>
</svg>