<svg viewBox="0 0 155 58" preserveAspectRatio="none" class="svggraph" id="svgthumb_us" style="overflow:visible;width:155px;height:58px;" xmlns="http://www.w3.org/2000/svg" xlink="http://www.w3.org/1999/xlink" title="Chart for rosalie">
<title>Last ranked
#198 in 2020</title>
<rect x="2" y="43" height="13" width="17" style="fill:rgb(200,200,200)"/>
<image x="2.5" y="43.5" href="/images/flags/24/us.png" preserveAspectRatio="xMinYMax meet" width="16" height="12"/>
<text x="153" y="55" class="svgtitle" text-anchor="end" style="fill:#000000;font-size:13px;">United States</text>
<line x1="0" y1="41" x2="155" y2="41" class="svggridline" style="stroke:rgb(200,200,200);stroke-width:1.3"/>
<g id="svgthumb_us-namepaths">
<g style="fill:none;stroke:#ff0000;stroke-width:1.3;" class="svgcurveline" id="svgthumb_us-rosalie-f">
<path d="M0 37 L1.1071 38.4 L2.2143 37.5 L3.3214 39.1 L4.4286 37.1 L5.5357 37.5 L6.6429 37.8 L7.75 37.3 L8.8571 37.7 L9.9643 37.9 L11.0714 38.2 L12.1786 37.4 L13.2857 37.3 L14.3929 37.2 L15.5 37.6 L16.6071 37.5 L17.7143 37.2 L18.8214 36.9 L19.9286 37.3 L21.0357 36.8 L22.1429 37.2 L23.25 36.4 L24.3571 35.5 L25.4643 36.4 L26.5714 35.1 L27.6786 36.1 L28.7857 35.8 L29.8929 35.5 L31 35.9 L32.1071 35.6 L33.2143 34.3 L34.3214 34 L35.4286 33.6 L36.5357 33.9 L37.6429 33.7 L38.75 32.8 L39.8571 33.8 L40.9643 33.8 L42.0714 33.6 L43.1786 33.3 L44.2857 33.1 L45.3929 32.6 L46.5 32.2 L47.6071 31.7 L48.7143 32.1 L49.8214 32.4 L50.9286 31.6 L52.0357 31.5 L53.1429 30.7 L54.25 31 L55.3571 31.4 L56.4643 31.9 L57.5714 31 L58.6786 32.1 L59.7857 32.7 L60.8929 33.8 L62 33.2 L63.1071 30.9 L64.2143 8.1 L65.3214 21.9 L66.4286 26.3 L67.5357 28.9 L68.6429 29.9 L69.75 31.1 L70.8571 33 L71.9643 33.8 L73.0714 34 L74.1786 35.1 L75.2857 34.6 L76.3929 35.4 L77.5 36 L78.6071 36.3 L79.7143 37 L80.8214 37.1 L81.9286 37.6 L83.0357 37.9 L84.1429 38.2 L85.25 38.3 L86.3571 38.4 L87.4643 38.4 L88.5714 38.5 L89.6786 38.6 L90.7857 38.7 L91.8929 38.7 L93 39 L94.1071 39.3 L95.2143 39.3 L96.3214 39.6 L97.4286 39.7 L98.5357 39.8 L99.6429 40 L100.75 40 L101.8571 40 L102.9643 39.9 L104.0714 39.9 L105.1786 40 L106.2857 39.9 L107.3929 40.1 L108.5 40 L109.6071 39.9 L110.7143 40.1 L111.8214 40 L112.9286 39.9 L114.0357 40.1 L115.1429 40.1 L116.25 40.1 L117.3571 40.1 L117.9107 40.2 M119.0179 40.2 L119.5714 40.1 L120.125 40.1 M142.2679 39.7 L142.8214 39.3 L143.9286 38.5 L145.0357 38.2 L146.1429 37 L147.25 36.1 L148.3571 35.6 L149.4643 34.9 L150.5714 34.6 L151.6786 33.9 L152.7857 33.1 L153.8929 33 L155 32.7"/>
</g>
</g>
</svg>