<svg viewBox="0 0 155 58" preserveAspectRatio="none" class="svggraph" id="svgthumb_us" style="overflow:visible;width:155px;height:58px;" xmlns="http://www.w3.org/2000/svg" xlink="http://www.w3.org/1999/xlink" title="Chart for rose">
<title>Last ranked
#112 in 2020 (f)
#967 in 1937 (m)</title>
<rect x="2" y="43" height="13" width="17" style="fill:rgb(200,200,200)"/>
<image x="2.5" y="43.5" href="/images/flags/24/us.png" preserveAspectRatio="xMinYMax meet" width="16" height="12"/>
<text x="153" y="55" class="svgtitle" text-anchor="end" style="fill:#000000;font-size:13px;">United States</text>
<line x1="0" y1="41" x2="155" y2="41" class="svggridline" style="stroke:rgb(200,200,200);stroke-width:1.3"/>
<g id="svgthumb_us-namepaths">
<g style="fill:none;stroke:#ff0000;stroke-width:1.3;" class="svgcurveline" id="svgthumb_us-rose-f">
<path d="M0 12.32 L1.1071 11.28 L2.2143 10.36 L3.3214 11.8 L4.4286 10.2 L5.5357 8.2 L6.6429 8.2 L7.75 9.04 L8.8571 7.44 L9.9643 8.24 L11.0714 6.8 L12.1786 6.48 L13.2857 5.04 L14.3929 5.28 L15.5 4.96 L16.6071 4.4 L17.7143 3.84 L18.8214 3.68 L19.9286 5.44 L21.0357 5.48 L22.1429 5.2 L23.25 6.2 L24.3571 6.12 L25.4643 5.36 L26.5714 5 L27.6786 5.84 L28.7857 3.96 L29.8929 4.08 L31 2.84 L32.1071 4.32 L33.2143 4.4 L34.3214 3.4 L35.4286 3.96 L36.5357 3.32 L37.6429 2.96 L38.75 4.36 L39.8571 5.6 L40.9643 6.16 L42.0714 9.16 L43.1786 9.68 L44.2857 12.04 L45.3929 11.76 L46.5 12.8 L47.6071 14.04 L48.7143 14.84 L49.8214 14.76 L50.9286 13.32 L52.0357 13.52 L53.1429 13.68 L54.25 14.08 L55.3571 14.64 L56.4643 16.08 L57.5714 17.6 L58.6786 18.92 L59.7857 20.36 L60.8929 21.76 L62 19.84 L63.1071 21.24 L64.2143 22.44 L65.3214 23.24 L66.4286 23.4 L67.5357 25.12 L68.6429 25.88 L69.75 26.48 L70.8571 27.2 L71.9643 27.44 L73.0714 28.16 L74.1786 28.56 L75.2857 28.24 L76.3929 28.76 L77.5 28.76 L78.6071 27.6 L79.7143 27.2 L80.8214 26.48 L81.9286 24.92 L83.0357 25.32 L84.1429 26.76 L85.25 27.84 L86.3571 29.28 L87.4643 30.52 L88.5714 31.6 L89.6786 32.68 L90.7857 33.12 L91.8929 33.56 L93 33.88 L94.1071 34.72 L95.2143 35.24 L96.3214 35.76 L97.4286 36.44 L98.5357 36.76 L99.6429 37.12 L100.75 37.72 L101.8571 37.76 L102.9643 38.2 L104.0714 38.32 L105.1786 38.56 L106.2857 38.52 L107.3929 38.64 L108.5 38.76 L109.6071 38.88 L110.7143 38.44 L111.8214 38.56 L112.9286 38.56 L114.0357 38.64 L115.1429 38.64 L116.25 38.92 L117.3571 39.24 L118.4643 39.2 L119.5714 39.2 L120.6786 39.2 L121.7857 39.24 L122.8929 39.28 L124 39.28 L125.1071 39.48 L126.2143 39.36 L127.3214 39.36 L128.4286 39.52 L129.5357 39.6 L130.6429 38.88 L131.75 38.68 L132.8571 38.84 L133.9643 38.92 L135.0714 39.12 L136.1786 39.28 L137.2857 39.24 L138.3929 39.08 L139.5 39.16 L140.6071 39.2 L141.7143 39.12 L142.8214 39.16 L143.9286 39.04 L145.0357 38.72 L146.1429 38.4 L147.25 38.04 L148.3571 37.52 L149.4643 37 L150.5714 36.8 L151.6786 36.6 L152.7857 35.72 L153.8929 35.48 L155 35.6"/>
</g>
<g style="fill:none;stroke:#0000ff;stroke-width:1.3;" class="svgcurveline" id="svgthumb_us-rose-m">
<path d="M0 40.76 L0.5536 40.84 M4.9821 40.84 L5.5357 40.68 L6.6429 40.8 L7.75 40.8 L8.8571 40.72 L9.9643 40.64 L11.0714 40.72 L11.625 40.8 M12.7321 40.8 L13.2857 40.52 L14.3929 40.72 L14.9464 40.8 M16.0536 40.8 L16.6071 40.76 L17.7143 40.68 L18.8214 40.6 L19.9286 40.76 L21.0357 40.56 L22.1429 40.72 L23.25 40.72 L23.8036 40.8 M24.9107 40.8 L25.4643 40.52 L26.5714 40.72 L27.6786 40.52 L28.7857 40.48 L29.8929 40.4 L31 40.44 L32.1071 40.48 L33.2143 40.68 L34.3214 40.64 L34.875 40.8 M37.0893 40.8 L37.6429 40.76 L38.1964 40.8 M53.6964 40.84 L54.25 40.8 L55.3571 40.8 L55.9107 40.84 M58.125 40.84 L58.6786 40.84 L59.7857 40.84 L60.3393 40.84 M62.5536 40.84 L63.1071 40.84 L63.6607 40.84"/>
</g>
</g>
</svg>