<svg viewBox="0 0 155 58" preserveAspectRatio="none" class="svggraph" id="svgthumb_us" style="overflow:visible;width:155px;height:58px;" xmlns="http://www.w3.org/2000/svg" xlink="http://www.w3.org/1999/xlink" title="Chart for rosemary">
<title>Last ranked
#445 in 2020</title>
<rect x="2" y="43" height="13" width="17" style="fill:rgb(200,200,200)"/>
<image x="2.5" y="43.5" href="/images/flags/24/us.png" preserveAspectRatio="xMinYMax meet" width="16" height="12"/>
<text x="153" y="55" class="svgtitle" text-anchor="end" style="fill:#000000;font-size:13px;">United States</text>
<line x1="0" y1="41" x2="155" y2="41" class="svggridline" style="stroke:rgb(200,200,200);stroke-width:1.3"/>
<g id="svgthumb_us-namepaths">
<g style="fill:none;stroke:#ff0000;stroke-width:1.3;" class="svgcurveline" id="svgthumb_us-rosemary-f">
<path d=" M1.6607 40.4667 L2.2143 39.9333 L3.3214 40.0667 L4.4286 40.3333 L4.9821 40.4667 M6.0893 40.4667 L6.6429 40.0667 L7.75 40.0667 L8.3036 40.4667 M9.4107 40.4667 L9.9643 40.0667 L11.0714 39.9333 L12.1786 40.2 L13.2857 40.0667 L14.3929 39.6667 L15.5 40.3333 L16.6071 39.8 L17.7143 40.0667 L18.8214 39.4 L19.9286 39.5333 L21.0357 39.8 L22.1429 39.2667 L23.25 39.5333 L24.3571 39.2667 L25.4643 38.7333 L26.5714 38.6 L27.6786 38.2 L28.7857 38.4667 L29.8929 37.5333 L31 37.5333 L32.1071 36.6 L33.2143 36.4667 L34.3214 36.2 L35.4286 34.2 L36.5357 33.1333 L37.6429 31.5333 L38.75 30.3333 L39.8571 28.7333 L40.9643 27.6667 L42.0714 27 L43.1786 25.9333 L44.2857 22.6 L45.3929 19.8 L46.5 17.8 L47.6071 15.1333 L48.7143 12.8667 L49.8214 11.9333 L50.9286 9.5333 L52.0357 7 L53.1429 7.8 L54.25 5.2667 L55.3571 5 L56.4643 8.0667 L57.5714 11.1333 L58.6786 12.6 L59.7857 14.7333 L60.8929 11.6667 L62 14.4667 L63.1071 13.1333 L64.2143 9.6667 L65.3214 10.3333 L66.4286 8.6 L67.5357 12.3333 L68.6429 12.2 L69.75 13.4 L70.8571 14.2 L71.9643 6.3333 L73.0714 3.9333 L74.1786 7.6667 L75.2857 11.4 L76.3929 13.4 L77.5 14.7333 L78.6071 16.8667 L79.7143 21.5333 L80.8214 24.2 L81.9286 26.3333 L83.0357 27.5333 L84.1429 27.6667 L85.25 26.6 L86.3571 26.6 L87.4643 26.7333 L88.5714 27 L89.6786 27.2667 L90.7857 28.2 L91.8929 29.4 L93 29.9333 L94.1071 31.6667 L95.2143 32.4667 L96.3214 33.9333 L97.4286 34.2 L98.5357 35 L99.6429 35.1333 L100.75 35.4 L101.8571 35.9333 L102.9643 35.8 L104.0714 35.6667 L105.1786 36.4667 L106.2857 36.7333 L107.3929 37.2667 L108.5 37.2667 L109.6071 37.2667 L110.7143 36.7333 L111.8214 36.7333 L112.9286 37.1333 L114.0357 37.4 L115.1429 37.4 L116.25 37.2667 L117.3571 37.5333 L118.4643 37.8 L119.5714 38.0667 L120.6786 37.9333 L121.7857 37.9333 L122.8929 38.2 L124 38.2 L125.1071 38.3333 L126.2143 38.2 L127.3214 38.2 L128.4286 38.0667 L129.5357 38.6 L130.6429 38.3333 L131.75 38.4667 L132.8571 38.3333 L133.9643 38.3333 L135.0714 38.3333 L136.1786 38.3333 L137.2857 38.4667 L138.3929 38.6 L139.5 38.3333 L140.6071 38.4667 L141.7143 38.4667 L142.8214 38.3333 L143.9286 38.3333 L145.0357 37.9333 L146.1429 37.6667 L147.25 37.1333 L148.3571 37.4 L149.4643 36.8667 L150.5714 35.9333 L151.6786 36.0667 L152.7857 35.9333 L153.8929 35.4 L155 35.8"/>
</g>
</g>
</svg>