<svg viewBox="0 0 155 58" preserveAspectRatio="none" class="svggraph" id="svgthumb_us" style="overflow:visible;width:155px;height:58px;" xmlns="http://www.w3.org/2000/svg" xlink="http://www.w3.org/1999/xlink" title="Chart for rosie">
<title>Last ranked
#470 in 2020</title>
<rect x="2" y="43" height="13" width="17" style="fill:rgb(200,200,200)"/>
<image x="2.5" y="43.5" href="/images/flags/24/us.png" preserveAspectRatio="xMinYMax meet" width="16" height="12"/>
<text x="153" y="55" class="svgtitle" text-anchor="end" style="fill:#000000;font-size:13px;">United States</text>
<line x1="0" y1="41" x2="155" y2="41" class="svggridline" style="stroke:rgb(200,200,200);stroke-width:1.3"/>
<g id="svgthumb_us-namepaths">
<g style="fill:none;stroke:#ff0000;stroke-width:1.3;" class="svgcurveline" id="svgthumb_us-rosie-f">
<path d="M0 19.2 L1.1071 23.8 L2.2143 16.8 L3.3214 21.8 L4.4286 19 L5.5357 21 L6.6429 23.6 L7.75 20.2 L8.8571 18.8 L9.9643 15.8 L11.0714 17.4 L12.1786 14.2 L13.2857 18.8 L14.3929 19.6 L15.5 16.6 L16.6071 15 L17.7143 16 L18.8214 13.6 L19.9286 17 L21.0357 14.2 L22.1429 4.8 L23.25 15 L24.3571 11.2 L25.4643 10.6 L26.5714 9 L27.6786 8.8 L28.7857 9.2 L29.8929 10.8 L31 12.6 L32.1071 8.2 L33.2143 6 L34.3214 11.8 L35.4286 14 L36.5357 18.2 L37.6429 17 L38.75 22 L39.8571 22 L40.9643 21.4 L42.0714 21.2 L43.1786 17.2 L44.2857 18.6 L45.3929 20.4 L46.5 18.8 L47.6071 18.8 L48.7143 18.2 L49.8214 17 L50.9286 16.8 L52.0357 15.8 L53.1429 17.8 L54.25 17.4 L55.3571 18 L56.4643 19.2 L57.5714 17.2 L58.6786 18.4 L59.7857 18.2 L60.8929 19 L62 20.4 L63.1071 20.6 L64.2143 20 L65.3214 20.6 L66.4286 22 L67.5357 23.2 L68.6429 25 L69.75 25.2 L70.8571 25 L71.9643 24.8 L73.0714 26.4 L74.1786 27.8 L75.2857 27.8 L76.3929 27.2 L77.5 28.4 L78.6071 29.2 L79.7143 30.4 L80.8214 30.6 L81.9286 30.2 L83.0357 30.8 L84.1429 31.2 L85.25 31.6 L86.3571 32.2 L87.4643 33.2 L88.5714 33.8 L89.6786 34.4 L90.7857 35 L91.8929 35.2 L93 35.4 L94.1071 35.8 L95.2143 36.6 L96.3214 37 L97.4286 37.6 L98.5357 37.6 L99.6429 38.2 L100.75 38 L101.8571 38 L102.9643 38.2 L104.0714 39 L105.1786 38.8 L106.2857 38.8 L107.3929 38.8 L108.5 39 L109.6071 39.2 L110.7143 39.2 L111.8214 39.2 L112.9286 39.2 L113.4821 39.4 M146.6964 38.4 L147.25 38 L148.3571 37.6 L149.4643 37.2 L150.5714 37 L151.6786 36.4 L152.7857 35.8 L153.8929 35 L155 33.6"/>
</g>
</g>
</svg>