<svg viewBox="0 0 155 58" preserveAspectRatio="none" class="svggraph" id="svgthumb_us" style="overflow:visible;width:155px;height:58px;" xmlns="http://www.w3.org/2000/svg" xlink="http://www.w3.org/1999/xlink" title="Chart for rowan">
<title>Last ranked
#113 in 2020 (m)
#255 in 2020 (f)</title>
<rect x="2" y="43" height="13" width="17" style="fill:rgb(200,200,200)"/>
<image x="2.5" y="43.5" href="/images/flags/24/us.png" preserveAspectRatio="xMinYMax meet" width="16" height="12"/>
<text x="153" y="55" class="svgtitle" text-anchor="end" style="fill:#000000;font-size:13px;">United States</text>
<line x1="0" y1="41" x2="155" y2="41" class="svggridline" style="stroke:rgb(200,200,200);stroke-width:1.3"/>
<g id="svgthumb_us-namepaths">
<g style="fill:none;stroke:#0000ff;stroke-width:1.3;" class="svgcurveline" id="svgthumb_us-rowan-m">
<path d=" M131.1964 39.6 L131.75 39.6 L132.8571 39.6 L133.9643 39 L135.0714 39 L136.1786 37.8 L137.2857 36 L138.3929 35.4 L139.5 34.8 L140.6071 33.2 L141.7143 32 L142.8214 32 L143.9286 31.6 L145.0357 30.6 L146.1429 29.6 L147.25 29.2 L148.3571 25.8 L149.4643 23.2 L150.5714 19.4 L151.6786 12.2 L152.7857 9.6 L153.8929 7.4 L155 5.8"/>
</g>
<g style="fill:none;stroke:#ff0000;stroke-width:1.3;" class="svgcurveline" id="svgthumb_us-rowan-f">
<path d=" M135.625 38.8 L136.1786 38.6 L137.2857 37.2 L138.3929 37.6 L139.5 36.6 L140.6071 34.2 L141.7143 34.6 L142.8214 35 L143.9286 34.8 L145.0357 35.4 L146.1429 34 L147.25 33.6 L148.3571 33 L149.4643 30.8 L150.5714 27 L151.6786 25.6 L152.7857 25.2 L153.8929 26.2 L155 27.6"/>
</g>
</g>
</svg>