<svg viewBox="0 0 155 58" preserveAspectRatio="none" class="svggraph" id="svgthumb_us" style="overflow:visible;width:155px;height:58px;" xmlns="http://www.w3.org/2000/svg" xlink="http://www.w3.org/1999/xlink" title="Chart for ruby">
<title>Last ranked
#74 in 2020 (f)
#938 in 1940 (m)</title>
<rect x="2" y="43" height="13" width="17" style="fill:rgb(200,200,200)"/>
<image x="2.5" y="43.5" href="/images/flags/24/us.png" preserveAspectRatio="xMinYMax meet" width="16" height="12"/>
<text x="153" y="55" class="svgtitle" text-anchor="end" style="fill:#000000;font-size:13px;">United States</text>
<line x1="0" y1="41" x2="155" y2="41" class="svggridline" style="stroke:rgb(200,200,200);stroke-width:1.3"/>
<g id="svgthumb_us-namepaths">
<g style="fill:none;stroke:#ff0000;stroke-width:1.3;" class="svgcurveline" id="svgthumb_us-ruby-f">
<path d="M0 36.3 L1.1071 35 L2.2143 35.1 L3.3214 34.2 L4.4286 32.15 L5.5357 31.4 L6.6429 31.2 L7.75 31.05 L8.8571 29.25 L9.9643 27.2 L11.0714 27.6 L12.1786 26.9 L13.2857 25.55 L14.3929 23.95 L15.5 22.5 L16.6071 21.7 L17.7143 21.3 L18.8214 20.35 L19.9286 19.3 L21.0357 18.7 L22.1429 16.75 L23.25 16.9 L24.3571 15 L25.4643 13.35 L26.5714 11.9 L27.6786 10.6 L28.7857 9.7 L29.8929 9.7 L31 9.55 L32.1071 6.7 L33.2143 6.5 L34.3214 2.85 L35.4286 3.05 L36.5357 3.5 L37.6429 5.7 L38.75 5.65 L39.8571 5.6 L40.9643 6.9 L42.0714 7.15 L43.1786 5.55 L44.2857 7.5 L45.3929 8.45 L46.5 8.95 L47.6071 8.15 L48.7143 8.55 L49.8214 9.95 L50.9286 10.6 L52.0357 11.6 L53.1429 13 L54.25 14.45 L55.3571 15.3 L56.4643 16.85 L57.5714 16.3 L58.6786 17.35 L59.7857 18 L60.8929 19.1 L62 21.4 L63.1071 21.55 L64.2143 23.75 L65.3214 24.65 L66.4286 25.7 L67.5357 26.6 L68.6429 28.35 L69.75 28.95 L70.8571 29.35 L71.9643 30.2 L73.0714 31.55 L74.1786 32.55 L75.2857 32.7 L76.3929 33.65 L77.5 34.15 L78.6071 34.65 L79.7143 34.75 L80.8214 34.95 L81.9286 35.6 L83.0357 36 L84.1429 36.15 L85.25 36.75 L86.3571 37.05 L87.4643 37.4 L88.5714 37.65 L89.6786 37.95 L90.7857 38.15 L91.8929 37.55 L93 38.15 L94.1071 38.3 L95.2143 38.7 L96.3214 38.85 L97.4286 39.15 L98.5357 39.05 L99.6429 39.1 L100.75 38.9 L101.8571 39 L102.9643 38.95 L104.0714 39.1 L105.1786 39 L106.2857 39.05 L107.3929 39.15 L108.5 39.1 L109.6071 39.1 L110.7143 39.15 L111.8214 39.1 L112.9286 39.3 L114.0357 39.35 L115.1429 39.35 L116.25 39.4 L117.3571 39.5 L118.4643 39.3 L119.5714 39.4 L120.6786 39.1 L121.7857 38.7 L122.8929 38.55 L124 38.4 L125.1071 38.4 L126.2143 38.35 L127.3214 38.25 L128.4286 38.45 L129.5357 38.3 L130.6429 37.9 L131.75 37.9 L132.8571 37.85 L133.9643 37.55 L135.0714 37 L136.1786 36.75 L137.2857 35.75 L138.3929 34.9 L139.5 34.85 L140.6071 34.15 L141.7143 33.75 L142.8214 33.55 L143.9286 33.85 L145.0357 33.85 L146.1429 33.5 L147.25 32.4 L148.3571 32.25 L149.4643 32.1 L150.5714 31.05 L151.6786 31.5 L152.7857 31.35 L153.8929 30.8 L155 31.55"/>
</g>
<g style="fill:none;stroke:#0000ff;stroke-width:1.3;" class="svgcurveline" id="svgthumb_us-ruby-m">
<path d="M0 40.75 L0.5536 40.8 M7.1964 40.8 L7.75 40.6 L8.8571 40.55 L9.4107 40.8 M11.625 40.8 L12.1786 40.5 L13.2857 40.7 L14.3929 40.65 L15.5 40.5 L16.6071 40.25 L17.7143 40.3 L18.8214 40.55 L19.9286 40.45 L21.0357 40.5 L22.1429 40.3 L23.25 40.45 L24.3571 40.45 L25.4643 40.25 L26.5714 40.25 L27.6786 40.5 L28.7857 40.05 L29.8929 40.25 L30.4464 40.75 M31.5536 40.75 L32.1071 40.6 L33.2143 40.45 L34.3214 40.4 L35.4286 40.45 L36.5357 40.55 L37.6429 40.7 L38.75 40.65 L39.8571 40.65 L40.9643 40.75 L42.0714 40.6 L43.1786 40.7 L44.2857 40.65 L45.3929 40.65 L46.5 40.75 L47.6071 40.75 L48.7143 40.7 L49.8214 40.7 L50.9286 40.75 L52.0357 40.65 L53.1429 40.75 L54.25 40.7 L55.3571 40.75 L56.4643 40.7 L57.5714 40.75 L58.6786 40.75 L59.7857 40.75 L60.8929 40.75 L62 40.75 L63.1071 40.75 L64.2143 40.8 L64.7679 40.8 M65.875 40.8 L66.4286 40.8 L66.9821 40.85"/>
</g>
</g>
</svg>