<svg viewBox="0 0 155 58" preserveAspectRatio="none" class="svggraph" id="svgthumb_us" style="overflow:visible;width:155px;height:58px;" xmlns="http://www.w3.org/2000/svg" xlink="http://www.w3.org/1999/xlink" title="Chart for ryan">
<title>Last ranked
#57 in 2020 (m)
#448 in 2020 (f)</title>
<rect x="2" y="43" height="13" width="17" style="fill:rgb(200,200,200)"/>
<image x="2.5" y="43.5" href="/images/flags/24/us.png" preserveAspectRatio="xMinYMax meet" width="16" height="12"/>
<text x="153" y="55" class="svgtitle" text-anchor="end" style="fill:#000000;font-size:13px;">United States</text>
<line x1="0" y1="41" x2="155" y2="41" class="svggridline" style="stroke:rgb(200,200,200);stroke-width:1.3"/>
<g id="svgthumb_us-namepaths">
<g style="fill:none;stroke:#0000ff;stroke-width:1.3;" class="svgcurveline" id="svgthumb_us-ryan-m">
<path d=" M28.2321 40.85 L28.7857 40.825 L29.3393 40.875 M72.5179 40.925 L73.0714 40.9 L74.1786 40.875 L75.2857 40.875 L76.3929 40.85 L77.5 40.875 L78.6071 40.875 L79.7143 40.85 L80.8214 40.825 L81.9286 40.85 L83.0357 40.8 L84.1429 40.775 L85.25 40.675 L86.3571 40.65 L87.4643 40.55 L88.5714 40.55 L89.6786 40.55 L90.7857 40.525 L91.8929 40.225 L93 40.35 L94.1071 39.575 L95.2143 38.825 L96.3214 38.3 L97.4286 37.95 L98.5357 37.925 L99.6429 37.95 L100.75 32.5 L101.8571 27.725 L102.9643 24.725 L104.0714 20.775 L105.1786 17.425 L106.2857 14.2 L107.3929 9.925 L108.5 9.8 L109.6071 8.6 L110.7143 7.575 L111.8214 5 L112.9286 5.625 L114.0357 3.625 L115.1429 2.725 L116.25 2.15 L117.3571 2.575 L118.4643 4.475 L119.5714 6.35 L120.6786 7.1 L121.7857 7 L122.8929 8.525 L124 8.825 L125.1071 8.65 L126.2143 11.5 L127.3214 12.3 L128.4286 13.8 L129.5357 15.3 L130.6429 16.1 L131.75 15.225 L132.8571 16.725 L133.9643 18.9 L135.0714 19.625 L136.1786 17.7 L137.2857 17.925 L138.3929 19.85 L139.5 22.25 L140.6071 23.25 L141.7143 24.15 L142.8214 25.525 L143.9286 26.425 L145.0357 26.85 L146.1429 27.5 L147.25 28.75 L148.3571 29.9 L149.4643 30.55 L150.5714 30.8 L151.6786 31.275 L152.7857 32.075 L153.8929 33 L155 33.775"/>
</g>
<g style="fill:none;stroke:#ff0000;stroke-width:1.3;" class="svgcurveline" id="svgthumb_us-ryan-f">
<path d=" M103.5179 40.8 L104.0714 40.8 L105.1786 40.775 L106.2857 40.75 L107.3929 40.45 L108.5 40.125 L109.6071 40.2 L110.7143 40.15 L111.8214 40.05 L112.9286 40.175 L114.0357 40.15 L115.1429 40.25 L116.25 40.225 L117.3571 40.05 L118.4643 40.075 L119.5714 40.2 L120.6786 40.3 L121.7857 40.45 L122.8929 40.475 L124 40.525 L125.1071 40.55 L126.2143 40.55 L127.3214 40.55 L128.4286 40.5 L129.5357 40.525 L130.6429 40.375 L131.75 40.425 L132.8571 40.45 L133.9643 40.425 L135.0714 40.35 L136.1786 40.25 L137.2857 40.125 L138.3929 40.175 L139.5 40.175 L140.6071 40.175 L141.7143 40.3 L142.8214 40.35 L143.9286 40.4 L145.0357 40.35 L146.1429 40.4 L147.25 40.425 L148.3571 40.225 L149.4643 40.125 L150.5714 40.1 L151.6786 39.975 L152.7857 39.825 L153.8929 39.95 L155 40.025"/>
</g>
</g>
</svg>