<svg viewBox="0 0 155 58" preserveAspectRatio="none" class="svggraph" id="svgthumb_us" style="overflow:visible;width:155px;height:58px;" xmlns="http://www.w3.org/2000/svg" xlink="http://www.w3.org/1999/xlink" title="Chart for ryleigh">
<title>Last ranked
#159 in 2020</title>
<rect x="2" y="43" height="13" width="17" style="fill:rgb(200,200,200)"/>
<image x="2.5" y="43.5" href="/images/flags/24/us.png" preserveAspectRatio="xMinYMax meet" width="16" height="12"/>
<text x="153" y="55" class="svgtitle" text-anchor="end" style="fill:#000000;font-size:13px;">United States</text>
<line x1="0" y1="41" x2="155" y2="41" class="svggridline" style="stroke:rgb(200,200,200);stroke-width:1.3"/>
<g id="svgthumb_us-namepaths">
<g style="fill:none;stroke:#ff0000;stroke-width:1.3;" class="svgcurveline" id="svgthumb_us-ryleigh-f">
<path d=" M131.1964 39 L131.75 38.8 L132.8571 38.4 L133.9643 37.2 L135.0714 35.4 L136.1786 34.8 L137.2857 33.6 L138.3929 32.2 L139.5 31.4 L140.6071 30.4 L141.7143 28.6 L142.8214 27.4 L143.9286 23.8 L145.0357 24 L146.1429 23.4 L147.25 23.2 L148.3571 23 L149.4643 24 L150.5714 21.4 L151.6786 21.4 L152.7857 20.2 L153.8929 18.8 L155 21.2"/>
</g>
</g>
</svg>