<svg viewBox="0 0 155 58" preserveAspectRatio="none" class="svggraph" id="svgthumb_us" style="overflow:visible;width:155px;height:58px;" xmlns="http://www.w3.org/2000/svg" xlink="http://www.w3.org/1999/xlink" title="Chart for rylee">
<title>Last ranked
#102 in 2020 (f)
#876 in 2014 (m)</title>
<rect x="2" y="43" height="13" width="17" style="fill:rgb(200,200,200)"/>
<image x="2.5" y="43.5" href="/images/flags/24/us.png" preserveAspectRatio="xMinYMax meet" width="16" height="12"/>
<text x="153" y="55" class="svgtitle" text-anchor="end" style="fill:#000000;font-size:13px;">United States</text>
<line x1="0" y1="41" x2="155" y2="41" class="svggridline" style="stroke:rgb(200,200,200);stroke-width:1.3"/>
<g id="svgthumb_us-namepaths">
<g style="fill:none;stroke:#ff0000;stroke-width:1.3;" class="svgcurveline" id="svgthumb_us-rylee-f">
<path d=" M125.6607 39.2 L126.2143 38.8 L127.3214 37.8 L128.4286 37 L129.5357 34.4 L130.6429 33.6 L131.75 31.6 L132.8571 30 L133.9643 27.6 L135.0714 24.6 L136.1786 20.8 L137.2857 17.4 L138.3929 16.2 L139.5 16.2 L140.6071 16.2 L141.7143 12.8 L142.8214 13 L143.9286 10.6 L145.0357 11.4 L146.1429 12.2 L147.25 10.8 L148.3571 12.6 L149.4643 13.4 L150.5714 10.2 L151.6786 10.6 L152.7857 9.8 L153.8929 10.6 L155 10.4"/>
</g>
<g style="fill:none;stroke:#0000ff;stroke-width:1.3;" class="svgcurveline" id="svgthumb_us-rylee-m">
<path d=" M133.4107 39.6 L133.9643 39.6 L135.0714 39.4 L136.1786 39 L137.2857 38.8 L138.3929 38.6 L139.5 38.6 L140.6071 38.6 L141.7143 38.2 L142.8214 38.4 L143.9286 38 L145.0357 38 L146.1429 38.4 L147.25 39 L148.3571 38.6 L148.9107 39"/>
</g>
</g>
</svg>