<svg viewBox="0 0 155 58" preserveAspectRatio="none" class="svggraph" id="svgthumb_us" style="overflow:visible;width:155px;height:58px;" xmlns="http://www.w3.org/2000/svg" xlink="http://www.w3.org/1999/xlink" title="Chart for sabrina">
<title>Last ranked
#388 in 2020</title>
<rect x="2" y="43" height="13" width="17" style="fill:rgb(200,200,200)"/>
<image x="2.5" y="43.5" href="/images/flags/24/us.png" preserveAspectRatio="xMinYMax meet" width="16" height="12"/>
<text x="153" y="55" class="svgtitle" text-anchor="end" style="fill:#000000;font-size:13px;">United States</text>
<line x1="0" y1="41" x2="155" y2="41" class="svggridline" style="stroke:rgb(200,200,200);stroke-width:1.3"/>
<g id="svgthumb_us-namepaths">
<g style="fill:none;stroke:#ff0000;stroke-width:1.3;" class="svgcurveline" id="svgthumb_us-sabrina-f">
<path d=" M81.375 40.5 L81.9286 40.3 L83.0357 35.4 L84.1429 36.4 L85.25 36.6 L86.3571 36.8 L87.4643 36.9 L88.5714 36.3 L89.6786 36.7 L90.7857 36.6 L91.8929 36.6 L93 36.5 L94.1071 36.7 L95.2143 35.6 L96.3214 25.7 L97.4286 31.4 L98.5357 30 L99.6429 21.5 L100.75 27.2 L101.8571 29.3 L102.9643 30.7 L104.0714 32.5 L105.1786 32.5 L106.2857 29.2 L107.3929 14.8 L108.5 20.6 L109.6071 24.4 L110.7143 25.4 L111.8214 27 L112.9286 27.9 L114.0357 26.7 L115.1429 28.2 L116.25 28.7 L117.3571 28.5 L118.4643 27.4 L119.5714 28.3 L120.6786 28.1 L121.7857 27.7 L122.8929 26.7 L124 26.3 L125.1071 24.2 L126.2143 23.6 L127.3214 22.6 L128.4286 10.9 L129.5357 10.5 L130.6429 17.2 L131.75 22.2 L132.8571 23.6 L133.9643 26.3 L135.0714 28.2 L136.1786 29.1 L137.2857 30.1 L138.3929 31.2 L139.5 32.4 L140.6071 32.8 L141.7143 32.2 L142.8214 33.5 L143.9286 33.7 L145.0357 34.6 L146.1429 34.9 L147.25 35.1 L148.3571 35.8 L149.4643 36.3 L150.5714 36.5 L151.6786 37.1 L152.7857 37 L153.8929 36.7 L155 36.5"/>
</g>
</g>
</svg>