<svg viewBox="0 0 155 58" preserveAspectRatio="none" class="svggraph" id="svgthumb_us" style="overflow:visible;width:155px;height:58px;" xmlns="http://www.w3.org/2000/svg" xlink="http://www.w3.org/1999/xlink" title="Chart for sadie">
<title>Last ranked
#78 in 2020</title>
<rect x="2" y="43" height="13" width="17" style="fill:rgb(200,200,200)"/>
<image x="2.5" y="43.5" href="/images/flags/24/us.png" preserveAspectRatio="xMinYMax meet" width="16" height="12"/>
<text x="153" y="55" class="svgtitle" text-anchor="end" style="fill:#000000;font-size:13px;">United States</text>
<line x1="0" y1="41" x2="155" y2="41" class="svggridline" style="stroke:rgb(200,200,200);stroke-width:1.3"/>
<g id="svgthumb_us-namepaths">
<g style="fill:none;stroke:#ff0000;stroke-width:1.3;" class="svgcurveline" id="svgthumb_us-sadie-f">
<path d="M0 8.5 L1.1071 4 L2.2143 7.2 L3.3214 5.6 L4.4286 7.1 L5.5357 4.8 L6.6429 4.4 L7.75 7.6 L8.8571 4.5 L9.9643 5.9 L11.0714 7.3 L12.1786 9.6 L13.2857 8.8 L14.3929 9.7 L15.5 9.4 L16.6071 7.5 L17.7143 8.2 L18.8214 10.5 L19.9286 11.5 L21.0357 12.5 L22.1429 12.8 L23.25 14.4 L24.3571 15.5 L25.4643 16.4 L26.5714 17 L27.6786 16.8 L28.7857 17.1 L29.8929 18.2 L31 19.3 L32.1071 20.7 L33.2143 19.9 L34.3214 22.8 L35.4286 23.4 L36.5357 24 L37.6429 24.7 L38.75 26.8 L39.8571 26.9 L40.9643 28.5 L42.0714 28.9 L43.1786 29 L44.2857 30.7 L45.3929 31.2 L46.5 30.9 L47.6071 31.6 L48.7143 32.4 L49.8214 32.7 L50.9286 32.6 L52.0357 33.3 L53.1429 33.5 L54.25 33.8 L55.3571 34 L56.4643 34.4 L57.5714 34.9 L58.6786 34.5 L59.7857 35 L60.8929 35.2 L62 35.8 L63.1071 36.2 L64.2143 36.4 L65.3214 36.6 L66.4286 36.6 L67.5357 37 L68.6429 37.7 L69.75 38 L70.8571 38 L71.9643 38 L73.0714 38.6 L74.1786 38.9 L75.2857 39.1 L76.3929 39 L77.5 39.2 L78.6071 39.4 L79.7143 39.4 L80.8214 39.6 L81.9286 39.7 L83.0357 39.9 L84.1429 39.8 L85.25 40 L86.3571 40.1 L87.4643 40.3 L88.5714 40.3 L89.6786 40.3 L90.7857 40.4 L91.8929 40.3 L92.4464 40.4 M93.5536 40.4 L94.1071 40.4 L94.6607 40.4 M103.5179 40.2 L104.0714 40 L105.1786 39.7 L106.2857 39.6 L107.3929 39.6 L108.5 39.4 L109.6071 39.4 L110.7143 39.4 L111.8214 39.4 L112.9286 39.5 L114.0357 39.8 L115.1429 39.8 L116.25 39.4 L117.3571 39.2 L118.4643 38.9 L119.5714 38.9 L120.6786 38.6 L121.7857 38.4 L122.8929 38.1 L124 38 L125.1071 37.5 L126.2143 36.6 L127.3214 35.9 L128.4286 35.5 L129.5357 35.4 L130.6429 35.2 L131.75 35.4 L132.8571 34.4 L133.9643 33.5 L135.0714 33.1 L136.1786 32.5 L137.2857 32.3 L138.3929 31.4 L139.5 30.3 L140.6071 26 L141.7143 25.8 L142.8214 26.3 L143.9286 27.6 L145.0357 27.6 L146.1429 27.6 L147.25 16.8 L148.3571 16.1 L149.4643 16.6 L150.5714 18.8 L151.6786 21.3 L152.7857 23.4 L153.8929 23.7 L155 22.9"/>
</g>
</g>
</svg>