<svg viewBox="0 0 155 58" preserveAspectRatio="none" class="svggraph" id="svgthumb_us" style="overflow:visible;width:155px;height:58px;" xmlns="http://www.w3.org/2000/svg" xlink="http://www.w3.org/1999/xlink" title="Chart for sage">
<title>Last ranked
#222 in 2020 (f)
#442 in 2020 (m)</title>
<rect x="2" y="43" height="13" width="17" style="fill:rgb(200,200,200)"/>
<image x="2.5" y="43.5" href="/images/flags/24/us.png" preserveAspectRatio="xMinYMax meet" width="16" height="12"/>
<text x="153" y="55" class="svgtitle" text-anchor="end" style="fill:#000000;font-size:13px;">United States</text>
<line x1="0" y1="41" x2="155" y2="41" class="svggridline" style="stroke:rgb(200,200,200);stroke-width:1.3"/>
<g id="svgthumb_us-namepaths">
<g style="fill:none;stroke:#ff0000;stroke-width:1.3;" class="svgcurveline" id="svgthumb_us-sage-f">
<path d=" M124.5536 37 L125.1071 36.1111 L126.2143 35.2222 L127.3214 34.3333 L128.4286 33 L129.5357 30.3333 L130.6429 32.1111 L131.75 29 L132.8571 28.5556 L133.9643 27.6667 L135.0714 25.4444 L136.1786 24.5556 L137.2857 21.4444 L138.3929 21.8889 L139.5 24.5556 L140.6071 26.7778 L141.7143 26.3333 L142.8214 23.6667 L143.9286 26.3333 L145.0357 26.3333 L146.1429 26.7778 L147.25 25.4444 L148.3571 21.8889 L149.4643 20.5556 L150.5714 19.2222 L151.6786 16.1111 L152.7857 14.7778 L153.8929 12.5556 L155 8.1111"/>
</g>
<g style="fill:none;stroke:#0000ff;stroke-width:1.3;" class="svgcurveline" id="svgthumb_us-sage-m">
<path d=" M122.3393 38.7778 L122.8929 35.6667 L124 37 L125.1071 37 L126.2143 36.5556 L127.3214 35.2222 L128.4286 33.8889 L129.5357 31.6667 L130.6429 33 L131.75 32.5556 L132.8571 32.5556 L133.9643 32.5556 L135.0714 33 L136.1786 33.4444 L137.2857 34.3333 L138.3929 33.8889 L139.5 34.3333 L140.6071 34.3333 L141.7143 34.7778 L142.8214 34.7778 L143.9286 35.2222 L145.0357 35.2222 L146.1429 33.8889 L147.25 33.8889 L148.3571 32.1111 L149.4643 32.1111 L150.5714 29.4444 L151.6786 26.7778 L152.7857 25 L153.8929 25.4444 L155 25"/>
</g>
</g>
</svg>