<svg viewBox="0 0 155 58" preserveAspectRatio="none" class="svggraph" id="svgthumb_us" style="overflow:visible;width:155px;height:58px;" xmlns="http://www.w3.org/2000/svg" xlink="http://www.w3.org/1999/xlink" title="Chart for samantha">
<title>Last ranked
#90 in 2020 (f)
#926 in 1989 (m)</title>
<rect x="2" y="43" height="13" width="17" style="fill:rgb(200,200,200)"/>
<image x="2.5" y="43.5" href="/images/flags/24/us.png" preserveAspectRatio="xMinYMax meet" width="16" height="12"/>
<text x="153" y="55" class="svgtitle" text-anchor="end" style="fill:#000000;font-size:13px;">United States</text>
<line x1="0" y1="41" x2="155" y2="41" class="svggridline" style="stroke:rgb(200,200,200);stroke-width:1.3"/>
<g id="svgthumb_us-namepaths">
<g style="fill:none;stroke:#ff0000;stroke-width:1.3;" class="svgcurveline" id="svgthumb_us-samantha-f">
<path d="M0 40.3231 L1.1071 40.6308 L2.2143 40.6 L3.3214 40.5692 L4.4286 40.6308 L5.5357 40.6308 L6.6429 40.7538 L7.75 40.6923 L8.8571 40.6923 L9.9643 40.7846 L11.0714 40.7846 L12.1786 40.6923 L13.2857 40.7231 L14.3929 40.7231 L15.5 40.7846 L16.6071 40.8154 L17.7143 40.7846 L18.8214 40.8462 L19.9286 40.7538 L21.0357 40.8154 L22.1429 40.7538 L23.25 40.8154 L24.3571 40.8462 L24.9107 40.8462 M29.3393 40.8462 L29.8929 40.8462 L30.4464 40.8462 M85.8036 40.8462 L86.3571 40.8462 L86.9107 40.8462 M92.4464 40.8154 L93 40.3538 L94.1071 37.7077 L95.2143 37.8615 L96.3214 37.7692 L97.4286 36.7846 L98.5357 36.7846 L99.6429 37.1538 L100.75 37.1231 L101.8571 36.7538 L102.9643 36.8154 L104.0714 36.5692 L105.1786 35.4 L106.2857 34.4462 L107.3929 34.8462 L108.5 33.7385 L109.6071 33.0308 L110.7143 32.5077 L111.8214 31.4923 L112.9286 29.5231 L114.0357 27.7385 L115.1429 27.2769 L116.25 23.2462 L117.3571 17.4923 L118.4643 11.5538 L119.5714 7.8615 L120.6786 2.6923 L121.7857 2.2615 L122.8929 2.2 L124 3.5231 L125.1071 4.0462 L126.2143 4.9692 L127.3214 6.3538 L128.4286 8.0154 L129.5357 8.4769 L130.6429 8.9385 L131.75 10.9077 L132.8571 14.3846 L133.9643 16.3538 L135.0714 18.1385 L136.1786 19.7385 L137.2857 19.9846 L138.3929 20.3231 L139.5 22.6308 L140.6071 23.7077 L141.7143 24.4769 L142.8214 26.3231 L143.9286 27.8 L145.0357 29.2462 L146.1429 29.9846 L147.25 30.6 L148.3571 31.9846 L149.4643 32.5692 L150.5714 33.1231 L151.6786 33.9538 L152.7857 34.5077 L153.8929 35.3385 L155 35.8615"/>
</g>
<g style="fill:none;stroke:#0000ff;stroke-width:1.3;" class="svgcurveline" id="svgthumb_us-samantha-m">
<path d=" M120.125 40.8462 L120.6786 40.8154 L121.2321 40.8462"/>
</g>
</g>
</svg>