<svg viewBox="0 0 155 58" preserveAspectRatio="none" class="svggraph" id="svgthumb_us" style="overflow:visible;width:155px;height:58px;" xmlns="http://www.w3.org/2000/svg" xlink="http://www.w3.org/1999/xlink" title="Chart for samara">
<title>Last ranked
#350 in 2020</title>
<rect x="2" y="43" height="13" width="17" style="fill:rgb(200,200,200)"/>
<image x="2.5" y="43.5" href="/images/flags/24/us.png" preserveAspectRatio="xMinYMax meet" width="16" height="12"/>
<text x="153" y="55" class="svgtitle" text-anchor="end" style="fill:#000000;font-size:13px;">United States</text>
<line x1="0" y1="41" x2="155" y2="41" class="svggridline" style="stroke:rgb(200,200,200);stroke-width:1.3"/>
<g id="svgthumb_us-namepaths">
<g style="fill:none;stroke:#ff0000;stroke-width:1.3;" class="svgcurveline" id="svgthumb_us-samara-f">
<path d=" M128.9821 36.5556 L129.5357 36.5556 L130.6429 36.1111 L131.75 36.1111 L132.8571 35.6667 L133.9643 35.2222 L135.0714 35.6667 L136.1786 26.3333 L137.2857 22.3333 L138.3929 22.7778 L139.5 21 L140.6071 26.3333 L141.7143 27.6667 L142.8214 28.1111 L143.9286 29.8889 L145.0357 29 L146.1429 29 L147.25 29.8889 L148.3571 30.7778 L149.4643 30.7778 L150.5714 25.4444 L151.6786 17.4444 L152.7857 10.7778 L153.8929 17 L155 18.7778"/>
</g>
</g>
</svg>