<svg viewBox="0 0 155 58" preserveAspectRatio="none" class="svggraph" id="svgthumb_us" style="overflow:visible;width:155px;height:58px;" xmlns="http://www.w3.org/2000/svg" xlink="http://www.w3.org/1999/xlink" title="Chart for sarai">
<title>Last ranked
#471 in 2020</title>
<rect x="2" y="43" height="13" width="17" style="fill:rgb(200,200,200)"/>
<image x="2.5" y="43.5" href="/images/flags/24/us.png" preserveAspectRatio="xMinYMax meet" width="16" height="12"/>
<text x="153" y="55" class="svgtitle" text-anchor="end" style="fill:#000000;font-size:13px;">United States</text>
<line x1="0" y1="41" x2="155" y2="41" class="svggridline" style="stroke:rgb(200,200,200);stroke-width:1.3"/>
<g id="svgthumb_us-namepaths">
<g style="fill:none;stroke:#ff0000;stroke-width:1.3;" class="svgcurveline" id="svgthumb_us-sarai-f">
<path d=" M117.9107 36.4286 L118.4643 35.8571 L119.0179 35.8571 M120.125 35.8571 L120.6786 35.8571 L121.7857 34.7143 L122.8929 34.1429 L124 33.5714 L125.1071 32.4286 L126.2143 32.4286 L127.3214 30.7143 L128.4286 29.5714 L129.5357 29.5714 L130.6429 29.5714 L131.75 27.8571 L132.8571 27.8571 L133.9643 27.2857 L135.0714 25.5714 L136.1786 22.7143 L137.2857 23.2857 L138.3929 22.7143 L139.5 21.5714 L140.6071 18.7143 L141.7143 19.2857 L142.8214 18.7143 L143.9286 19.2857 L145.0357 20.4286 L146.1429 18.7143 L147.25 19.2857 L148.3571 19.8571 L149.4643 19.8571 L150.5714 22.1429 L151.6786 19.2857 L152.7857 17.5714 L153.8929 18.1429 L155 19.8571"/>
</g>
</g>
</svg>