<svg viewBox="0 0 155 58" preserveAspectRatio="none" class="svggraph" id="svgthumb_us" style="overflow:visible;width:155px;height:58px;" xmlns="http://www.w3.org/2000/svg" xlink="http://www.w3.org/1999/xlink" title="Chart for sarah">
<title>Last ranked
#87 in 2020 (f)
#819 in 1989 (m)</title>
<rect x="2" y="43" height="13" width="17" style="fill:rgb(200,200,200)"/>
<image x="2.5" y="43.5" href="/images/flags/24/us.png" preserveAspectRatio="xMinYMax meet" width="16" height="12"/>
<text x="153" y="55" class="svgtitle" text-anchor="end" style="fill:#000000;font-size:13px;">United States</text>
<line x1="0" y1="41" x2="155" y2="41" class="svggridline" style="stroke:rgb(200,200,200);stroke-width:1.3"/>
<g id="svgthumb_us-namepaths">
<g style="fill:none;stroke:#ff0000;stroke-width:1.3;" class="svgcurveline" id="svgthumb_us-sarah-f">
<path d="M0 8 L1.1071 10 L2.2143 10.525 L3.3214 12.7 L4.4286 13.425 L5.5357 15.925 L6.6429 15.475 L7.75 17.9 L8.8571 17.85 L9.9643 18.15 L11.0714 18.85 L12.1786 19.775 L13.2857 21.025 L14.3929 22.875 L15.5 22.975 L16.6071 23.025 L17.7143 24.225 L18.8214 23.75 L19.9286 24.575 L21.0357 24.975 L22.1429 24.85 L23.25 26.1 L24.3571 25.75 L25.4643 27.05 L26.5714 27.375 L27.6786 26.775 L28.7857 27.475 L29.8929 27.675 L31 28.2 L32.1071 28.475 L33.2143 28.05 L34.3214 28.55 L35.4286 28.55 L36.5357 28.875 L37.6429 29.45 L38.75 30.225 L39.8571 29.95 L40.9643 30.4 L42.0714 30.675 L43.1786 30.3 L44.2857 30.9 L45.3929 31.175 L46.5 31.025 L47.6071 31.1 L48.7143 31.275 L49.8214 31.725 L50.9286 32 L52.0357 31.8 L53.1429 32.125 L54.25 32.75 L55.3571 32.6 L56.4643 32.775 L57.5714 32.875 L58.6786 32.35 L59.7857 32.675 L60.8929 32.675 L62 32.85 L63.1071 32.85 L64.2143 32.8 L65.3214 32.9 L66.4286 32.8 L67.5357 33 L68.6429 33.625 L69.75 34.05 L70.8571 33.95 L71.9643 34.325 L73.0714 34.95 L74.1786 35.2 L75.2857 35.025 L76.3929 34.875 L77.5 35.1 L78.6071 35.55 L79.7143 35.675 L80.8214 35.7 L81.9286 35.925 L83.0357 36.025 L84.1429 36.3 L85.25 36.25 L86.3571 36.275 L87.4643 36.35 L88.5714 35.95 L89.6786 35.925 L90.7857 35.4 L91.8929 35.25 L93 35.15 L94.1071 35.45 L95.2143 35.25 L96.3214 34.975 L97.4286 34.45 L98.5357 33.8 L99.6429 33.325 L100.75 32.65 L101.8571 31.525 L102.9643 29.4 L104.0714 25.375 L105.1786 23.1 L106.2857 18.75 L107.3929 13.5 L108.5 10.625 L109.6071 10.5 L110.7143 4.825 L111.8214 1.625 L112.9286 1.75 L114.0357 2.95 L115.1429 5.125 L116.25 7.3 L117.3571 2.85 L118.4643 3.8 L119.5714 4.125 L120.6786 6.125 L121.7857 9.575 L122.8929 9.975 L124 10.275 L125.1071 10.25 L126.2143 12.4 L127.3214 13.175 L128.4286 13.55 L129.5357 13.875 L130.6429 15.35 L131.75 16.45 L132.8571 18.825 L133.9643 20.925 L135.0714 22.3 L136.1786 23.85 L137.2857 25.2 L138.3929 26.775 L139.5 27.65 L140.6071 29.2 L141.7143 30.125 L142.8214 31.375 L143.9286 32.925 L145.0357 33.825 L146.1429 34.3 L147.25 34.9 L148.3571 34.975 L149.4643 35.2 L150.5714 35.275 L151.6786 35.65 L152.7857 35.925 L153.8929 36.475 L155 36.675"/>
</g>
<g style="fill:none;stroke:#0000ff;stroke-width:1.3;" class="svgcurveline" id="svgthumb_us-sarah-m">
<path d=" M2.7679 40.9 L3.3214 40.85 L4.4286 40.875 L5.5357 40.85 L6.6429 40.875 L7.1964 40.875 M14.9464 40.875 L15.5 40.8 L16.6071 40.85 L17.1607 40.875 M18.2679 40.875 L18.8214 40.825 L19.375 40.875 M20.4821 40.875 L21.0357 40.75 L21.5893 40.875 M31.5536 40.875 L32.1071 40.85 L32.6607 40.875 M107.9464 40.9 L108.5 40.875 L109.6071 40.875 L110.7143 40.875 L111.8214 40.85 L112.9286 40.825 L114.0357 40.85 L115.1429 40.825 L116.25 40.875 L117.3571 40.85 L118.4643 40.85 L119.0179 40.875 M120.125 40.875 L120.6786 40.825 L121.2321 40.875"/>
</g>
</g>
</svg>