<svg viewBox="0 0 155 58" preserveAspectRatio="none" class="svggraph" id="svgthumb_us" style="overflow:visible;width:155px;height:58px;" xmlns="http://www.w3.org/2000/svg" xlink="http://www.w3.org/1999/xlink" title="Chart for sara">
<title>Last ranked
#183 in 2020</title>
<rect x="2" y="43" height="13" width="17" style="fill:rgb(200,200,200)"/>
<image x="2.5" y="43.5" href="/images/flags/24/us.png" preserveAspectRatio="xMinYMax meet" width="16" height="12"/>
<text x="153" y="55" class="svgtitle" text-anchor="end" style="fill:#000000;font-size:13px;">United States</text>
<line x1="0" y1="41" x2="155" y2="41" class="svggridline" style="stroke:rgb(200,200,200);stroke-width:1.3"/>
<g id="svgthumb_us-namepaths">
<g style="fill:none;stroke:#ff0000;stroke-width:1.3;" class="svgcurveline" id="svgthumb_us-sara-f">
<path d="M0 31.3429 L1.1071 32.4857 L2.2143 32.0857 L3.3214 32.3143 L4.4286 32.8286 L5.5357 32.3714 L6.6429 31.8 L7.75 33.1143 L8.8571 32.1429 L9.9643 32.3714 L11.0714 33.5714 L12.1786 33.4571 L13.2857 33.9714 L14.3929 33.6286 L15.5 33.6286 L16.6071 32.6 L17.7143 33.6286 L18.8214 32.8857 L19.9286 33.4571 L21.0357 33.5143 L22.1429 34.2571 L23.25 33.9143 L24.3571 34.1429 L25.4643 34.1429 L26.5714 33.9714 L27.6786 32.9429 L28.7857 32.6571 L29.8929 32.6571 L31 32.2 L32.1071 32.3143 L33.2143 32.3714 L34.3214 32.1429 L35.4286 31.6286 L36.5357 31.2286 L37.6429 30.3143 L38.75 30.3143 L39.8571 30.5429 L40.9643 30.0857 L42.0714 30.0857 L43.1786 30.4286 L44.2857 30.1429 L45.3929 30.4857 L46.5 30.8286 L47.6071 31.0571 L48.7143 30.7714 L49.8214 31.8 L50.9286 31.6286 L52.0357 31.8 L53.1429 32.0286 L54.25 32.3714 L55.3571 32.3143 L56.4643 32.1429 L57.5714 31.9143 L58.6786 30.8286 L59.7857 31.2857 L60.8929 31.6857 L62 31.3429 L63.1071 31.1143 L64.2143 31.2286 L65.3214 31.5714 L66.4286 30.8857 L67.5357 31.5143 L68.6429 31.9714 L69.75 32.9429 L70.8571 33.0571 L71.9643 33.3429 L73.0714 33.8 L74.1786 34.1429 L75.2857 34.3714 L76.3929 34.6 L77.5 34.3143 L78.6071 34.5429 L79.7143 34.8857 L80.8214 34.8286 L81.9286 34.8857 L83.0357 35.4 L84.1429 35.4571 L85.25 35.2857 L86.3571 35.5143 L87.4643 35.4 L88.5714 35.4 L89.6786 34.9429 L90.7857 34.0286 L91.8929 33.8571 L93 34.1429 L94.1071 34.8286 L95.2143 34.3143 L96.3214 33.6286 L97.4286 32.7714 L98.5357 31.9714 L99.6429 31.4571 L100.75 30.5429 L101.8571 29.7429 L102.9643 28.2 L104.0714 24.0286 L105.1786 22.2 L106.2857 11.8571 L107.3929 10.7714 L108.5 10.2 L109.6071 12.3143 L110.7143 5.2286 L111.8214 4.7143 L112.9286 5.2857 L114.0357 8.7714 L115.1429 11.4571 L116.25 8.3143 L117.3571 6.7714 L118.4643 10.2571 L119.5714 11.2286 L120.6786 13.1714 L121.7857 16.0286 L122.8929 16.1429 L124 16.9429 L125.1071 18.0857 L126.2143 19.8571 L127.3214 21.1143 L128.4286 22.2571 L129.5357 22.5429 L130.6429 23.2857 L131.75 24.4857 L132.8571 25.7429 L133.9643 26.1429 L135.0714 26.7143 L136.1786 27.4571 L137.2857 28.2571 L138.3929 28.9429 L139.5 28.9429 L140.6071 30.1429 L141.7143 31.1143 L142.8214 32.4286 L143.9286 33.2857 L145.0357 33.9143 L146.1429 34.3143 L147.25 34.8286 L148.3571 35.2286 L149.4643 35.2286 L150.5714 35 L151.6786 35.2857 L152.7857 35.7429 L153.8929 35.5714 L155 35.9143"/>
</g>
</g>
</svg>