<svg viewBox="0 0 155 58" preserveAspectRatio="none" class="svggraph" id="svgthumb_us" style="overflow:visible;width:155px;height:58px;" xmlns="http://www.w3.org/2000/svg" xlink="http://www.w3.org/1999/xlink" title="Chart for scarlett">
<title>Last ranked
#21 in 2020</title>
<rect x="2" y="43" height="13" width="17" style="fill:rgb(200,200,200)"/>
<image x="2.5" y="43.5" href="/images/flags/24/us.png" preserveAspectRatio="xMinYMax meet" width="16" height="12"/>
<text x="153" y="55" class="svgtitle" text-anchor="end" style="fill:#000000;font-size:13px;">United States</text>
<line x1="0" y1="41" x2="155" y2="41" class="svggridline" style="stroke:rgb(200,200,200);stroke-width:1.3"/>
<g id="svgthumb_us-namepaths">
<g style="fill:none;stroke:#ff0000;stroke-width:1.3;" class="svgcurveline" id="svgthumb_us-scarlett-f">
<path d=" M65.875 40.68 L66.4286 40.6 L67.5357 40.52 L68.6429 40.6 L69.75 40.6 L70.3036 40.68 M90.2321 40.52 L90.7857 40.52 L91.8929 40.52 L92.4464 40.52 M123.4464 40.28 L124 40.2 L125.1071 39.96 L126.2143 40.04 L127.3214 39.88 L128.4286 39.96 L129.5357 40.04 L130.6429 39.96 L131.75 39.96 L132.8571 40.12 L133.9643 40.04 L135.0714 39.8 L136.1786 39.72 L137.2857 38.84 L138.3929 38.12 L139.5 36.76 L140.6071 35 L141.7143 34.76 L142.8214 33.4 L143.9286 29.88 L145.0357 26.28 L146.1429 24.28 L147.25 20.04 L148.3571 16.44 L149.4643 11.72 L150.5714 9.08 L151.6786 8.28 L152.7857 9.88 L153.8929 10.04 L155 11.48"/>
</g>
</g>
</svg>