<svg viewBox="0 0 155 58" preserveAspectRatio="none" class="svggraph" id="svgthumb_us" style="overflow:visible;width:155px;height:58px;" xmlns="http://www.w3.org/2000/svg" xlink="http://www.w3.org/1999/xlink" title="Chart for selena">
<title>Last ranked
#241 in 2020</title>
<rect x="2" y="43" height="13" width="17" style="fill:rgb(200,200,200)"/>
<image x="2.5" y="43.5" href="/images/flags/24/us.png" preserveAspectRatio="xMinYMax meet" width="16" height="12"/>
<text x="153" y="55" class="svgtitle" text-anchor="end" style="fill:#000000;font-size:13px;">United States</text>
<line x1="0" y1="41" x2="155" y2="41" class="svggridline" style="stroke:rgb(200,200,200);stroke-width:1.3"/>
<g id="svgthumb_us-namepaths">
<g style="fill:none;stroke:#ff0000;stroke-width:1.3;" class="svgcurveline" id="svgthumb_us-selena-f">
<path d="M0 40.3333 L1.1071 40.0667 L1.6607 40.4667 M2.7679 40.4667 L3.3214 40.3333 L4.4286 39.9333 L5.5357 39.5333 L6.6429 40.0667 L7.75 39.8 L8.8571 39.6667 L9.9643 40.2 L11.0714 40.0667 L12.1786 39.8 L13.2857 40.3333 L14.3929 40.0667 L15.5 40.2 L16.0536 40.4667 M17.1607 40.4667 L17.7143 40.3333 L18.8214 40.2 L19.9286 39.9333 L20.4821 40.4667 M21.5893 40.4667 L22.1429 40.2 L23.25 40.0667 L24.3571 40.2 L25.4643 39.9333 L26.5714 40.2 L27.125 40.3333 M28.2321 40.3333 L28.7857 40.3333 L29.3393 40.4667 M30.4464 40.4667 L31 40.3333 L32.1071 40.2 L33.2143 40.3333 L34.3214 40.3333 L35.4286 40.3333 L35.9821 40.3333 M37.0893 40.3333 L37.6429 40.3333 L38.1964 40.4667 M70.3036 40.4667 L70.8571 40.3333 L71.4107 40.4667 M79.1607 40.3333 L79.7143 40.3333 L80.2679 40.3333 M85.8036 40.3333 L86.3571 39.6667 L87.4643 39.6667 L88.5714 39.6667 L89.6786 39.4 L90.7857 39.4 L91.8929 39.6667 L93 39.4 L94.1071 39 L95.2143 38.7333 L96.3214 38.7333 L97.4286 38.8667 L98.5357 39 L99.6429 38.8667 L100.75 37.6667 L101.8571 38.0667 L102.9643 35.9333 L104.0714 37.2667 L105.1786 38.0667 L106.2857 37 L107.3929 34.6 L108.5 36.2 L109.6071 37 L110.7143 37.6667 L111.8214 37.6667 L112.9286 38.0667 L114.0357 38.2 L115.1429 38.3333 L116.25 38.7333 L117.3571 39 L118.4643 39.2667 L119.5714 39.5333 L120.6786 39.1333 L121.7857 39.2667 L122.8929 39 L124 38.4667 L125.1071 36.4667 L126.2143 34.7333 L127.3214 14.4667 L128.4286 25 L129.5357 27 L130.6429 25.2667 L131.75 26.4667 L132.8571 30.0667 L133.9643 31 L135.0714 32.3333 L136.1786 33.1333 L137.2857 32.7333 L138.3929 31.9333 L139.5 33.5333 L140.6071 34.3333 L141.7143 34.8667 L142.8214 34.3333 L143.9286 34.3333 L145.0357 34.2 L146.1429 33.8 L147.25 34.4667 L148.3571 34.4667 L149.4643 34.0667 L150.5714 33.2667 L151.6786 31.8 L152.7857 31.5333 L153.8929 31.2667 L155 31.5333"/>
</g>
</g>
</svg>