<svg viewBox="0 0 155 58" preserveAspectRatio="none" class="svggraph" id="svgthumb_us" style="overflow:visible;width:155px;height:58px;" xmlns="http://www.w3.org/2000/svg" xlink="http://www.w3.org/1999/xlink" title="Chart for serenity">
<title>Last ranked
#70 in 2020</title>
<rect x="2" y="43" height="13" width="17" style="fill:rgb(200,200,200)"/>
<image x="2.5" y="43.5" href="/images/flags/24/us.png" preserveAspectRatio="xMinYMax meet" width="16" height="12"/>
<text x="153" y="55" class="svgtitle" text-anchor="end" style="fill:#000000;font-size:13px;">United States</text>
<line x1="0" y1="41" x2="155" y2="41" class="svggridline" style="stroke:rgb(200,200,200);stroke-width:1.3"/>
<g id="svgthumb_us-namepaths">
<g style="fill:none;stroke:#ff0000;stroke-width:1.3;" class="svgcurveline" id="svgthumb_us-serenity-f">
<path d=" M128.9821 39.6667 L129.5357 39.6667 L130.6429 39.2667 L131.75 37.4 L132.8571 36.6 L133.9643 35.6667 L135.0714 33.8 L136.1786 31.6667 L137.2857 29.2667 L138.3929 27.9333 L139.5 24.4667 L140.6071 23.8 L141.7143 21 L142.8214 18.0667 L143.9286 17.2667 L145.0357 14.3333 L146.1429 11.8 L147.25 10.0667 L148.3571 11.4 L149.4643 13.6667 L150.5714 14.4667 L151.6786 15.8 L152.7857 15.5333 L153.8929 16.0667 L155 15.4"/>
</g>
</g>
</svg>