<svg viewBox="0 0 155 58" preserveAspectRatio="none" class="svggraph" id="svgthumb_us" style="overflow:visible;width:155px;height:58px;" xmlns="http://www.w3.org/2000/svg" xlink="http://www.w3.org/1999/xlink" title="Chart for serena">
<title>Last ranked
#420 in 2020</title>
<rect x="2" y="43" height="13" width="17" style="fill:rgb(200,200,200)"/>
<image x="2.5" y="43.5" href="/images/flags/24/us.png" preserveAspectRatio="xMinYMax meet" width="16" height="12"/>
<text x="153" y="55" class="svgtitle" text-anchor="end" style="fill:#000000;font-size:13px;">United States</text>
<line x1="0" y1="41" x2="155" y2="41" class="svggridline" style="stroke:rgb(200,200,200);stroke-width:1.3"/>
<g id="svgthumb_us-namepaths">
<g style="fill:none;stroke:#ff0000;stroke-width:1.3;" class="svgcurveline" id="svgthumb_us-serena-f">
<path d="M0 35.2222 L1.1071 35.2222 L2.2143 35.6667 L3.3214 37.4444 L4.4286 37.8889 L5.5357 37 L6.6429 36.5556 L7.75 36.5556 L8.8571 37.8889 L9.9643 35.2222 L11.0714 37.8889 L12.1786 37.4444 L13.2857 37 L14.3929 38.3333 L15.5 38.3333 L16.6071 37.8889 L17.7143 36.1111 L18.8214 37 L19.9286 37.4444 L21.0357 37.8889 L22.1429 36.5556 L23.25 37.8889 L24.3571 37 L25.4643 38.3333 L26.5714 38.7778 L27.6786 38.3333 L28.7857 37.8889 L29.8929 37.8889 L31 37.8889 L32.1071 37.8889 L33.2143 37.8889 L33.7679 38.7778 M34.875 38.7778 L35.4286 38.7778 L35.9821 38.7778 M40.4107 39.2222 L40.9643 38.7778 L41.5179 39.2222 M63.6607 38.7778 L64.2143 38.7778 L64.7679 39.2222 M65.875 39.2222 L66.4286 38.7778 L66.9821 39.2222 M70.3036 39.2222 L70.8571 38.7778 L71.4107 39.2222 M82.4821 38.7778 L83.0357 38.3333 L83.5893 38.7778 M84.6964 38.7778 L85.25 38.3333 L86.3571 37.8889 L87.4643 37.4444 L88.0179 38.3333 M89.125 38.3333 L89.6786 37.8889 L90.7857 37.4444 L91.8929 37 L93 36.5556 L94.1071 36.5556 L95.2143 36.1111 L96.3214 34.3333 L97.4286 29.4444 L98.5357 24.1111 L99.6429 25.4444 L100.75 26.3333 L101.8571 28.5556 L102.9643 29.4444 L104.0714 29.8889 L105.1786 28.1111 L106.2857 28.1111 L107.3929 27.2222 L108.5 28.1111 L109.6071 28.1111 L110.7143 25.4444 L111.8214 27.6667 L112.9286 26.3333 L114.0357 26.3333 L115.1429 26.7778 L116.25 27.2222 L117.3571 29.8889 L118.4643 30.3333 L119.5714 31.2222 L120.6786 31.2222 L121.7857 30.7778 L122.8929 30.3333 L124 29.8889 L125.1071 28.5556 L126.2143 26.7778 L127.3214 21.8889 L128.4286 19.6667 L129.5357 13 L130.6429 9 L131.75 8.1111 L132.8571 7.6667 L133.9643 12.1111 L135.0714 11.6667 L136.1786 12.5556 L137.2857 17.4444 L138.3929 21.8889 L139.5 23.6667 L140.6071 24.1111 L141.7143 22.3333 L142.8214 23.2222 L143.9286 25.4444 L145.0357 25.4444 L146.1429 24.5556 L147.25 23.6667 L148.3571 25 L149.4643 23.2222 L150.5714 24.5556 L151.6786 22.7778 L152.7857 22.3333 L153.8929 22.7778 L155 22.7778"/>
</g>
</g>
</svg>