<svg viewBox="0 0 155 58" preserveAspectRatio="none" class="svggraph" id="svgthumb_us" style="overflow:visible;width:155px;height:58px;" xmlns="http://www.w3.org/2000/svg" xlink="http://www.w3.org/1999/xlink" title="Chart for shelby">
<title>Last ranked
#502 in 2020 (f)
#884 in 1999 (m)</title>
<rect x="2" y="43" height="13" width="17" style="fill:rgb(200,200,200)"/>
<image x="2.5" y="43.5" href="/images/flags/24/us.png" preserveAspectRatio="xMinYMax meet" width="16" height="12"/>
<text x="153" y="55" class="svgtitle" text-anchor="end" style="fill:#000000;font-size:13px;">United States</text>
<line x1="0" y1="41" x2="155" y2="41" class="svggridline" style="stroke:rgb(200,200,200);stroke-width:1.3"/>
<g id="svgthumb_us-namepaths">
<g style="fill:none;stroke:#ff0000;stroke-width:1.3;" class="svgcurveline" id="svgthumb_us-shelby-f">
<path d=" M60.3393 40.7333 L60.8929 40.6 L62 34.4 L63.1071 28.9333 L64.2143 31 L65.3214 34.1333 L66.4286 35.3333 L67.5357 36.6 L68.6429 38.1333 L69.75 38.7333 L70.8571 39.2 L71.9643 39.3333 L73.0714 39.3333 L74.1786 39.6667 L75.2857 40 L76.3929 40.0667 L77.5 40.0667 L78.6071 40.1333 L79.7143 40.2 L80.8214 40.0667 L81.9286 39.9333 L83.0357 39.8667 L84.1429 39.8667 L85.25 39.8667 L86.3571 39.8 L87.4643 39.8667 L88.5714 40 L89.6786 39.7333 L90.7857 39.8 L91.8929 39.7333 L93 39.9333 L94.1071 40 L95.2143 39.8667 L96.3214 39.8667 L97.4286 39.7333 L98.5357 39.8 L99.6429 39.5333 L100.75 38.8667 L101.8571 37.8667 L102.9643 38.0667 L104.0714 37.6 L105.1786 37.8 L106.2857 38.5333 L107.3929 38.7333 L108.5 39.0667 L109.6071 39.3333 L110.7143 39.2 L111.8214 39.0667 L112.9286 39.4 L114.0357 38.6 L115.1429 37.1333 L116.25 37.8 L117.3571 37.7333 L118.4643 37.8 L119.5714 37.9333 L120.6786 37 L121.7857 29.6 L122.8929 7.4667 L124 9.7333 L125.1071 13.5333 L126.2143 15.2 L127.3214 14.5333 L128.4286 13.3333 L129.5357 17.6 L130.6429 20.7333 L131.75 23.8 L132.8571 25.7333 L133.9643 26.2667 L135.0714 27.6 L136.1786 29.2667 L137.2857 31.1333 L138.3929 31.6667 L139.5 32.6667 L140.6071 33.6 L141.7143 34.1333 L142.8214 34.6 L143.9286 35.2667 L145.0357 36 L146.1429 36 L147.25 36.7333 L148.3571 37.2 L149.4643 37.3333 L150.5714 37.6 L151.6786 38.0667 L152.7857 38.3333 L153.8929 38.6667 L155 38.7333"/>
</g>
<g style="fill:none;stroke:#0000ff;stroke-width:1.3;" class="svgcurveline" id="svgthumb_us-shelby-m">
<path d="M0 40.5333 L1.1071 40.3333 L2.2143 40.2667 L3.3214 40.5333 L4.4286 40.1333 L5.5357 40.4 L6.6429 40.4667 L7.75 40.1333 L8.8571 40.2 L9.9643 40.4 L11.0714 40.4 L12.1786 40.6667 L13.2857 40.0667 L14.3929 40.4 L15.5 40.2667 L16.6071 40.1333 L17.7143 40.2667 L18.8214 40.2667 L19.9286 39.8667 L21.0357 40 L22.1429 40.2 L23.25 40.2 L24.3571 40.4667 L25.4643 40.0667 L26.5714 40.4 L27.6786 40.1333 L28.7857 39.6667 L29.8929 40.4 L31 39.7333 L32.1071 40 L33.2143 40.0667 L34.3214 40.2 L35.4286 40.2667 L36.5357 40.5333 L37.6429 40.2 L38.75 40.3333 L39.8571 40.2667 L40.9643 40.2 L42.0714 40.2667 L43.1786 40.0667 L44.2857 40.1333 L45.3929 40.2 L46.5 40.2667 L47.6071 40.2667 L48.7143 40.4 L49.8214 40.2667 L50.9286 40.3333 L52.0357 40.2667 L53.1429 40.4667 L54.25 40.3333 L55.3571 40.3333 L56.4643 40.3333 L57.5714 40.3333 L58.6786 40.2667 L59.7857 40.1333 L60.8929 40.2667 L62 40.0667 L63.1071 39.7333 L64.2143 39.7333 L65.3214 39.8 L66.4286 40 L67.5357 40.1333 L68.6429 40.2667 L69.75 40.0667 L70.8571 40.2 L71.9643 40.2667 L73.0714 40.3333 L74.1786 40.4667 L75.2857 40.4 L76.3929 40.4667 L77.5 40.4667 L78.6071 40.4667 L79.7143 40.5333 L80.8214 40.6 L81.9286 40.5333 L83.0357 40.5333 L84.1429 40.6 L85.25 40.6 L86.3571 40.6 L87.4643 40.6 L88.5714 40.5333 L89.6786 40.6 L90.7857 40.6 L91.8929 40.5333 L93 40.6 L94.1071 40.6 L95.2143 40.4 L96.3214 40.5333 L97.4286 40.4667 L98.5357 40.3333 L99.6429 40.4667 L100.75 40.3333 L101.8571 40.3333 L102.9643 40.2667 L104.0714 40.2667 L105.1786 40.2 L106.2857 40.2667 L107.3929 40.2667 L108.5 40.3333 L109.6071 40.4667 L110.7143 40.5333 L111.8214 40.5333 L112.9286 40.5333 L114.0357 40.4667 L115.1429 40.4667 L116.25 40.4 L117.3571 40.4 L118.4643 40.4 L119.5714 40.4 L120.6786 40.3333 L121.7857 39.9333 L122.8929 39.3333 L124 39.5333 L125.1071 39.6667 L126.2143 39.8 L127.3214 39.8667 L128.4286 40 L129.5357 40.3333 L130.6429 40.4667 L131.75 40.4667 L132.3036 40.5333"/>
</g>
</g>
</svg>