<svg viewBox="0 0 155 58" preserveAspectRatio="none" class="svggraph" id="svgthumb_us" style="overflow:visible;width:155px;height:58px;" xmlns="http://www.w3.org/2000/svg" xlink="http://www.w3.org/1999/xlink" title="Chart for sienna">
<title>Last ranked
#166 in 2020</title>
<rect x="2" y="43" height="13" width="17" style="fill:rgb(200,200,200)"/>
<image x="2.5" y="43.5" href="/images/flags/24/us.png" preserveAspectRatio="xMinYMax meet" width="16" height="12"/>
<text x="153" y="55" class="svgtitle" text-anchor="end" style="fill:#000000;font-size:13px;">United States</text>
<line x1="0" y1="41" x2="155" y2="41" class="svggridline" style="stroke:rgb(200,200,200);stroke-width:1.3"/>
<g id="svgthumb_us-namepaths">
<g style="fill:none;stroke:#ff0000;stroke-width:1.3;" class="svgcurveline" id="svgthumb_us-sienna-f">
<path d=" M126.7679 39 L127.3214 39 L128.4286 38.4 L129.5357 37.4 L130.6429 36 L131.75 36.8 L132.8571 37 L133.9643 37.4 L135.0714 37.2 L136.1786 36.8 L137.2857 36.6 L138.3929 30.4 L139.5 22 L140.6071 21.4 L141.7143 23.2 L142.8214 24.4 L143.9286 26 L145.0357 26.4 L146.1429 27.4 L147.25 28.2 L148.3571 28 L149.4643 26.2 L150.5714 26.8 L151.6786 26.2 L152.7857 23.8 L153.8929 23.2 L155 21.4"/>
</g>
</g>
</svg>