<svg viewBox="0 0 155 58" preserveAspectRatio="none" class="svggraph" id="svgthumb_us" style="overflow:visible;width:155px;height:58px;" xmlns="http://www.w3.org/2000/svg" xlink="http://www.w3.org/1999/xlink" title="Chart for skye">
<title>Last ranked
#467 in 2020</title>
<rect x="2" y="43" height="13" width="17" style="fill:rgb(200,200,200)"/>
<image x="2.5" y="43.5" href="/images/flags/24/us.png" preserveAspectRatio="xMinYMax meet" width="16" height="12"/>
<text x="153" y="55" class="svgtitle" text-anchor="end" style="fill:#000000;font-size:13px;">United States</text>
<line x1="0" y1="41" x2="155" y2="41" class="svggridline" style="stroke:rgb(200,200,200);stroke-width:1.3"/>
<g id="svgthumb_us-namepaths">
<g style="fill:none;stroke:#ff0000;stroke-width:1.3;" class="svgcurveline" id="svgthumb_us-skye-f">
<path d=" M117.9107 36.4286 L118.4643 33.5714 L119.5714 34.1429 L120.6786 34.1429 L121.7857 32.4286 L122.8929 32.4286 L124 32.4286 L125.1071 31.8571 L126.2143 31.8571 L127.3214 30.7143 L128.4286 29 L129.5357 24.4286 L130.6429 25.5714 L131.75 26.1429 L132.8571 25 L133.9643 23.8571 L135.0714 22.1429 L136.1786 20.4286 L137.2857 19.2857 L138.3929 20.4286 L139.5 21 L140.6071 22.7143 L141.7143 23.8571 L142.8214 23.2857 L143.9286 23.2857 L145.0357 22.7143 L146.1429 20.4286 L147.25 19.8571 L148.3571 15.2857 L149.4643 15.8571 L150.5714 17.5714 L151.6786 18.1429 L152.7857 18.1429 L153.8929 17.5714 L155 19.8571"/>
</g>
</g>
</svg>