<svg viewBox="0 0 155 58" preserveAspectRatio="none" class="svggraph" id="svgthumb_us" style="overflow:visible;width:155px;height:58px;" xmlns="http://www.w3.org/2000/svg" xlink="http://www.w3.org/1999/xlink" title="Chart for skyler">
<title>Last ranked
#566 in 2020 (m)
#465 in 2020 (f)</title>
<rect x="2" y="43" height="13" width="17" style="fill:rgb(200,200,200)"/>
<image x="2.5" y="43.5" href="/images/flags/24/us.png" preserveAspectRatio="xMinYMax meet" width="16" height="12"/>
<text x="153" y="55" class="svgtitle" text-anchor="end" style="fill:#000000;font-size:13px;">United States</text>
<line x1="0" y1="41" x2="155" y2="41" class="svggridline" style="stroke:rgb(200,200,200);stroke-width:1.3"/>
<g id="svgthumb_us-namepaths">
<g style="fill:none;stroke:#0000ff;stroke-width:1.3;" class="svgcurveline" id="svgthumb_us-skyler-m">
<path d=" M111.2679 39.4 L111.8214 37.4 L112.9286 36.6 L114.0357 35.8 L115.1429 34.2 L116.25 33 L117.3571 32.2 L118.4643 31.8 L119.5714 29.8 L120.6786 28.2 L121.7857 25.4 L122.8929 24.2 L124 20.2 L125.1071 17.8 L126.2143 14.6 L127.3214 14.6 L128.4286 13.4 L129.5357 13.4 L130.6429 13.8 L131.75 13 L132.8571 12.6 L133.9643 11.8 L135.0714 11 L136.1786 12.6 L137.2857 14.2 L138.3929 14.6 L139.5 17.8 L140.6071 18.2 L141.7143 17 L142.8214 15.8 L143.9286 15.4 L145.0357 17 L146.1429 16.6 L147.25 18.6 L148.3571 23 L149.4643 23 L150.5714 25.8 L151.6786 27.8 L152.7857 28.6 L153.8929 29 L155 30.2"/>
</g>
<g style="fill:none;stroke:#ff0000;stroke-width:1.3;" class="svgcurveline" id="svgthumb_us-skyler-f">
<path d=" M121.2321 37.4 L121.7857 35.4 L122.8929 36.6 L124 34.6 L125.1071 33 L126.2143 33 L127.3214 31.8 L128.4286 29.8 L129.5357 27.8 L130.6429 19.8 L131.75 15.8 L132.8571 15.4 L133.9643 17.8 L135.0714 17.4 L136.1786 18.6 L137.2857 20.6 L138.3929 21 L139.5 21 L140.6071 24.6 L141.7143 26.2 L142.8214 25.8 L143.9286 27.8 L145.0357 27.4 L146.1429 23.8 L147.25 23 L148.3571 19 L149.4643 17.8 L150.5714 22.2 L151.6786 23.8 L152.7857 24.6 L153.8929 25.4 L155 26.2"/>
</g>
</g>
</svg>