<svg viewBox="0 0 155 58" preserveAspectRatio="none" class="svggraph" id="svgthumb_us" style="overflow:visible;width:155px;height:58px;" xmlns="http://www.w3.org/2000/svg" xlink="http://www.w3.org/1999/xlink" title="Chart for skylar">
<title>Last ranked
#63 in 2020 (f)
#918 in 2018 (m)</title>
<rect x="2" y="43" height="13" width="17" style="fill:rgb(200,200,200)"/>
<image x="2.5" y="43.5" href="/images/flags/24/us.png" preserveAspectRatio="xMinYMax meet" width="16" height="12"/>
<text x="153" y="55" class="svgtitle" text-anchor="end" style="fill:#000000;font-size:13px;">United States</text>
<line x1="0" y1="41" x2="155" y2="41" class="svggridline" style="stroke:rgb(200,200,200);stroke-width:1.3"/>
<g id="svgthumb_us-namepaths">
<g style="fill:none;stroke:#ff0000;stroke-width:1.3;" class="svgcurveline" id="svgthumb_us-skylar-f">
<path d=" M121.2321 39.8 L121.7857 38.3333 L122.8929 38.6 L124 38.2 L125.1071 37.2667 L126.2143 36.7333 L127.3214 36.2 L128.4286 35 L129.5357 34.3333 L130.6429 29.1333 L131.75 23.8 L132.8571 24.3333 L133.9643 25.2667 L135.0714 24.8667 L136.1786 25.6667 L137.2857 26.6 L138.3929 26.3333 L139.5 25.9333 L140.6071 28.0667 L141.7143 29.8 L142.8214 29.4 L143.9286 29.2667 L145.0357 26.0667 L146.1429 17.9333 L147.25 14.7333 L148.3571 8.4667 L149.4643 4.8667 L150.5714 5.6667 L151.6786 7.5333 L152.7857 9.4 L153.8929 11.5333 L155 13.5333"/>
</g>
<g style="fill:none;stroke:#0000ff;stroke-width:1.3;" class="svgcurveline" id="svgthumb_us-skylar-m">
<path d=" M111.2679 40.4667 L111.8214 40.3333 L112.9286 40.3333 L114.0357 40.3333 L115.1429 39.9333 L116.25 39.8 L117.3571 39.8 L118.4643 39.2667 L119.5714 39.5333 L120.6786 39.1333 L121.7857 38.2 L122.8929 38.3333 L124 38.0667 L125.1071 37.2667 L126.2143 37.1333 L127.3214 37.2667 L128.4286 36.7333 L129.5357 36.6 L130.6429 36.2 L131.75 36.4667 L132.8571 36.2 L133.9643 36.3333 L135.0714 36.6 L136.1786 37 L137.2857 37.6667 L138.3929 37.5333 L139.5 37.1333 L140.6071 37.6667 L141.7143 37.8 L142.8214 37.5333 L143.9286 37.8 L145.0357 37.8 L146.1429 38.0667 L147.25 37.8 L148.3571 38.3333 L149.4643 38.7333 L150.5714 38.8667 L151.6786 39.1333 L152.7857 39.4 L153.3393 39.5333"/>
</g>
</g>
</svg>