<svg viewBox="0 0 155 58" preserveAspectRatio="none" class="svggraph" id="svgthumb_us" style="overflow:visible;width:155px;height:58px;" xmlns="http://www.w3.org/2000/svg" xlink="http://www.w3.org/1999/xlink" title="Chart for sofia">
<title>Last ranked
#17 in 2020</title>
<rect x="2" y="43" height="13" width="17" style="fill:rgb(200,200,200)"/>
<image x="2.5" y="43.5" href="/images/flags/24/us.png" preserveAspectRatio="xMinYMax meet" width="16" height="12"/>
<text x="153" y="55" class="svgtitle" text-anchor="end" style="fill:#000000;font-size:13px;">United States</text>
<line x1="0" y1="41" x2="155" y2="41" class="svggridline" style="stroke:rgb(200,200,200);stroke-width:1.3"/>
<g id="svgthumb_us-namepaths">
<g style="fill:none;stroke:#ff0000;stroke-width:1.3;" class="svgcurveline" id="svgthumb_us-sofia-f">
<path d=" M0.5536 40.7333 L1.1071 40.6 L1.6607 40.7333 M6.0893 40.7333 L6.6429 40.5333 L7.1964 40.6667 M8.3036 40.6667 L8.8571 40.6 L9.9643 40.6 L10.5179 40.7333 M11.625 40.7333 L12.1786 40.5333 L13.2857 40.5333 L13.8393 40.7333 M16.0536 40.7333 L16.6071 40.6667 L17.1607 40.7333 M19.375 40.7333 L19.9286 40.4667 L20.4821 40.7333 M21.5893 40.7333 L22.1429 40.6667 L23.25 40.6 L23.8036 40.6667 M28.2321 40.6667 L28.7857 40.6 L29.8929 40.6667 L31 40.6667 L32.1071 40.3333 L33.2143 40.4 L34.3214 40.5333 L35.4286 40.6667 L36.5357 40.6 L37.6429 40.6667 L38.1964 40.7333 M39.3036 40.7333 L39.8571 40.6667 L40.9643 40.6667 L41.5179 40.7333 M43.7321 40.7333 L44.2857 40.6667 L45.3929 40.6667 L46.5 40.6667 L47.6071 40.6667 L48.7143 40.6667 L49.8214 40.6 L50.375 40.6667 M51.4821 40.6667 L52.0357 40.6667 L53.1429 40.6 L54.25 40.6667 L55.3571 40.5333 L56.4643 40.6667 L57.0179 40.6667 M60.3393 40.7333 L60.8929 40.6667 L61.4464 40.7333 M97.9821 40.6 L98.5357 40.5333 L99.6429 40.5333 L100.75 40.4 L101.8571 40.4667 L102.9643 40.4 L104.0714 40.4 L105.1786 40.3333 L106.2857 40.3333 L107.3929 40.2 L108.5 40.2667 L109.6071 40.2667 L110.7143 40.2667 L111.8214 40 L112.9286 40.1333 L114.0357 40 L115.1429 40.0667 L116.25 40.0667 L117.3571 40.1333 L118.4643 39.8667 L119.5714 40 L120.6786 39.9333 L121.7857 39.8667 L122.8929 39.5333 L124 39.4667 L125.1071 39.1333 L126.2143 39.2667 L127.3214 38.8667 L128.4286 38.3333 L129.5357 36.8667 L130.6429 36.4 L131.75 35.5333 L132.8571 34 L133.9643 33.2667 L135.0714 30.6667 L136.1786 29.4 L137.2857 26.2 L138.3929 24.0667 L139.5 24.8 L140.6071 21.9333 L141.7143 21.8667 L142.8214 22.2667 L143.9286 19.4667 L145.0357 15.7333 L146.1429 14.0667 L147.25 9.2667 L148.3571 8.2667 L149.4643 7.8 L150.5714 9.3333 L151.6786 12.1333 L152.7857 13.5333 L153.8929 14 L155 14.6"/>
</g>
</g>
</svg>