<svg viewBox="0 0 155 58" preserveAspectRatio="none" class="svggraph" id="svgthumb_us" style="overflow:visible;width:155px;height:58px;" xmlns="http://www.w3.org/2000/svg" xlink="http://www.w3.org/1999/xlink" title="Chart for sophie">
<title>Last ranked
#75 in 2020</title>
<rect x="2" y="43" height="13" width="17" style="fill:rgb(200,200,200)"/>
<image x="2.5" y="43.5" href="/images/flags/24/us.png" preserveAspectRatio="xMinYMax meet" width="16" height="12"/>
<text x="153" y="55" class="svgtitle" text-anchor="end" style="fill:#000000;font-size:13px;">United States</text>
<line x1="0" y1="41" x2="155" y2="41" class="svggridline" style="stroke:rgb(200,200,200);stroke-width:1.3"/>
<g id="svgthumb_us-namepaths">
<g style="fill:none;stroke:#ff0000;stroke-width:1.3;" class="svgcurveline" id="svgthumb_us-sophie-f">
<path d="M0 29.6667 L1.1071 30.4667 L2.2143 28.3333 L3.3214 29.5333 L4.4286 29.4 L5.5357 29.2667 L6.6429 27.5333 L7.75 28.2 L8.8571 29 L9.9643 28.8667 L11.0714 27.4 L12.1786 27.2667 L13.2857 29 L14.3929 27.1333 L15.5 27.8 L16.6071 28.0667 L17.7143 27.4 L18.8214 24.4667 L19.9286 28.4667 L21.0357 26.0667 L22.1429 26.8667 L23.25 24.0667 L24.3571 27.6667 L25.4643 26.0667 L26.5714 24.6 L27.6786 24.8667 L28.7857 24.6 L29.8929 23.1333 L31 21.2667 L32.1071 23 L33.2143 21.2667 L34.3214 20.7333 L35.4286 18.4667 L36.5357 18.2 L37.6429 14.4667 L38.75 13.5333 L39.8571 14.0667 L40.9643 12.7333 L42.0714 15.5333 L43.1786 16.0667 L44.2857 19.9333 L45.3929 21.5333 L46.5 24.0667 L47.6071 25.1333 L48.7143 26.8667 L49.8214 29.4 L50.9286 30.7333 L52.0357 31.5333 L53.1429 33.1333 L54.25 33.6667 L55.3571 35 L56.4643 35.8 L57.5714 36.4667 L58.6786 37.1333 L59.7857 37.8 L60.8929 37.9333 L62 38.6 L63.1071 38.4667 L64.2143 38.8667 L65.3214 39.2667 L66.4286 39.1333 L67.5357 39.1333 L68.6429 39.6667 L69.75 39.9333 L70.8571 39.9333 L71.9643 40.0667 L73.0714 40.0667 L74.1786 40.0667 L75.2857 40.0667 L76.3929 40.0667 L77.5 40.0667 L78.6071 40.0667 L79.7143 40.2 L80.8214 40.3333 L81.9286 40.3333 L83.0357 40.3333 L83.5893 40.3333 M114.5893 39.9333 L115.1429 39.8 L116.25 39.5333 L117.3571 39.5333 L118.4643 39.2667 L119.5714 39.2667 L120.6786 38.7333 L121.7857 38.6 L122.8929 38.2 L124 37.6667 L125.1071 37.2667 L126.2143 36.8667 L127.3214 36.2 L128.4286 35 L129.5357 33.4 L130.6429 32.6 L131.75 29.4 L132.8571 27 L133.9643 26.3333 L135.0714 25.8 L136.1786 26.2 L137.2857 25.2667 L138.3929 25 L139.5 23.2667 L140.6071 15.9333 L141.7143 15 L142.8214 12.8667 L143.9286 11 L145.0357 8.4667 L146.1429 9.5333 L147.25 15 L148.3571 17.9333 L149.4643 20.8667 L150.5714 21.1333 L151.6786 21 L152.7857 19.8 L153.8929 17.8 L155 15.9333"/>
</g>
</g>
</svg>