<svg viewBox="0 0 155 58" preserveAspectRatio="none" class="svggraph" id="svgthumb_us" style="overflow:visible;width:155px;height:58px;" xmlns="http://www.w3.org/2000/svg" xlink="http://www.w3.org/1999/xlink" title="Chart for sophia">
<title>Last ranked
#5 in 2020</title>
<rect x="2" y="43" height="13" width="17" style="fill:rgb(200,200,200)"/>
<image x="2.5" y="43.5" href="/images/flags/24/us.png" preserveAspectRatio="xMinYMax meet" width="16" height="12"/>
<text x="153" y="55" class="svgtitle" text-anchor="end" style="fill:#000000;font-size:13px;">United States</text>
<line x1="0" y1="41" x2="155" y2="41" class="svggridline" style="stroke:rgb(200,200,200);stroke-width:1.3"/>
<g id="svgthumb_us-namepaths">
<g style="fill:none;stroke:#ff0000;stroke-width:1.3;" class="svgcurveline" id="svgthumb_us-sophia-f">
<path d="M0 36.3 L1.1071 36.9 L2.2143 35.8333 L3.3214 36.6 L4.4286 36.8667 L5.5357 36.6667 L6.6429 36.2667 L7.75 36.8667 L8.8571 36.6 L9.9643 36.5667 L11.0714 36.9667 L12.1786 37.2667 L13.2857 37.4333 L14.3929 37.3333 L15.5 37.1 L16.6071 37.5 L17.7143 37.3333 L18.8214 37.2667 L19.9286 38.0667 L21.0357 37.8 L22.1429 38.2667 L23.25 38.1 L24.3571 37.9667 L25.4643 38.4333 L26.5714 38.3667 L27.6786 38.4667 L28.7857 38.3667 L29.8929 38.3667 L31 38.4 L32.1071 38.6667 L33.2143 38.8333 L34.3214 38.9333 L35.4286 38.7333 L36.5357 38.8 L37.6429 38.7 L38.75 38.7333 L39.8571 38.8667 L40.9643 38.9333 L42.0714 39.2667 L43.1786 39.3 L44.2857 39.5333 L45.3929 39.7333 L46.5 39.9667 L47.6071 40.0333 L48.7143 40.0667 L49.8214 40.2333 L50.9286 40.3667 L52.0357 40.3667 L53.1429 40.4667 L54.25 40.5 L55.3571 40.5667 L56.4643 40.6 L57.5714 40.6 L58.6786 40.6667 L59.7857 40.6667 L60.8929 40.7 L62 40.7 L63.1071 40.7 L64.2143 40.7333 L65.3214 40.7 L66.4286 40.7 L67.5357 40.7 L68.6429 40.8 L69.75 40.7667 L70.8571 40.7333 L71.9643 40.7333 L73.0714 40.7667 L74.1786 40.8 L75.2857 40.8 L76.3929 40.7667 L77.5 40.8 L78.6071 40.7333 L79.7143 40.8 L80.8214 40.7667 L81.9286 40.8 L83.0357 40.7333 L84.1429 40.8 L85.25 40.7 L86.3571 40.6333 L87.4643 40.5667 L88.5714 40.5667 L89.6786 40.4667 L90.7857 40.2 L91.8929 40.1333 L93 40.2 L94.1071 40.0667 L95.2143 39.9 L96.3214 39.8333 L97.4286 39.9333 L98.5357 39.8667 L99.6429 39.9333 L100.75 39.8667 L101.8571 40 L102.9643 40.0333 L104.0714 40.1667 L105.1786 40.2 L106.2857 40.2333 L107.3929 40.1333 L108.5 40.1667 L109.6071 40.0667 L110.7143 39.8 L111.8214 38.7 L112.9286 38.8667 L114.0357 38.7667 L115.1429 39 L116.25 39 L117.3571 39.1 L118.4643 39 L119.5714 38.9667 L120.6786 39.2333 L121.7857 39.1667 L122.8929 38.9333 L124 38.7667 L125.1071 38.4667 L126.2143 38.2333 L127.3214 37.9333 L128.4286 36.6333 L129.5357 34.6333 L130.6429 33.6 L131.75 31.7 L132.8571 30.0333 L133.9643 28.9333 L135.0714 26.3667 L136.1786 24.9 L137.2857 22.9667 L138.3929 20.1667 L139.5 19.4667 L140.6071 14.1667 L141.7143 15.2333 L142.8214 13.1 L143.9286 5.8667 L145.0357 3.4 L146.1429 2.6 L147.25 4.2333 L148.3571 9.2333 L149.4643 11.1667 L150.5714 13.1333 L151.6786 14.6667 L152.7857 15.8667 L153.8929 15.8667 L155 16.3"/>
</g>
</g>
</svg>