<svg viewBox="0 0 155 58" preserveAspectRatio="none" class="svggraph" id="svgthumb_us" style="overflow:visible;width:155px;height:58px;" xmlns="http://www.w3.org/2000/svg" xlink="http://www.w3.org/1999/xlink" title="Chart for stephanie">
<title>Last ranked
#436 in 2020 (f)
#836 in 1989 (m)</title>
<rect x="2" y="43" height="13" width="17" style="fill:rgb(200,200,200)"/>
<image x="2.5" y="43.5" href="/images/flags/24/us.png" preserveAspectRatio="xMinYMax meet" width="16" height="12"/>
<text x="153" y="55" class="svgtitle" text-anchor="end" style="fill:#000000;font-size:13px;">United States</text>
<line x1="0" y1="41" x2="155" y2="41" class="svggridline" style="stroke:rgb(200,200,200);stroke-width:1.3"/>
<g id="svgthumb_us-namepaths">
<g style="fill:none;stroke:#ff0000;stroke-width:1.3;" class="svgcurveline" id="svgthumb_us-stephanie-f">
<path d=" M17.1607 40.8769 L17.7143 40.8462 L18.8214 40.7538 L19.9286 40.8462 L21.0357 40.8154 L22.1429 40.7538 L23.25 40.7846 L23.8036 40.8462 M24.9107 40.8462 L25.4643 40.6308 L26.5714 40.6615 L27.6786 40.6308 L28.7857 40.6615 L29.8929 40.6 L31 40.4154 L32.1071 40.4769 L33.2143 40.3538 L34.3214 40.1692 L35.4286 40.1385 L36.5357 40.1385 L37.6429 39.9231 L38.75 39.9231 L39.8571 39.8615 L40.9643 39.9231 L42.0714 40.0462 L43.1786 40.2 L44.2857 40.2308 L45.3929 40.2615 L46.5 40.4462 L47.6071 40.4154 L48.7143 40.4769 L49.8214 40.6 L50.9286 40.6 L52.0357 40.6923 L53.1429 40.6923 L54.25 40.7538 L55.3571 40.7231 L56.4643 40.7538 L57.5714 40.6308 L58.6786 40.6923 L59.7857 40.6308 L60.8929 40.5692 L62 40.5077 L63.1071 40.4154 L64.2143 40.3846 L65.3214 40.2308 L66.4286 39.9846 L67.5357 39.8 L68.6429 39.5231 L69.75 39.2769 L70.8571 38.9692 L71.9643 39 L73.0714 38.1385 L74.1786 38.1385 L75.2857 37.2769 L76.3929 36.6 L77.5 36.3846 L78.6071 36.7231 L79.7143 36.2615 L80.8214 36.0769 L81.9286 35.8 L83.0357 35.2462 L84.1429 35.1538 L85.25 34.8154 L86.3571 34.6615 L87.4643 33.8615 L88.5714 33.2154 L89.6786 32.3846 L90.7857 31.4923 L91.8929 30.4462 L93 28.5385 L94.1071 24.5692 L95.2143 23.1846 L96.3214 17.0615 L97.4286 17.6769 L98.5357 15.7077 L99.6429 15.1538 L100.75 14.4154 L101.8571 8.7846 L102.9643 6.8154 L104.0714 7.6462 L105.1786 9.8923 L106.2857 11.2769 L107.3929 12.1692 L108.5 10.6308 L109.6071 12.0769 L110.7143 10.1692 L111.8214 6.2308 L112.9286 5.6154 L114.0357 2.6 L115.1429 1.7077 L116.25 2.2615 L117.3571 3.2462 L118.4643 4.2308 L119.5714 4.4462 L120.6786 5.8308 L121.7857 3.7692 L122.8929 6.5385 L124 10.7846 L125.1071 14.1692 L126.2143 17.7077 L127.3214 20.2308 L128.4286 22.3231 L129.5357 25.2462 L130.6429 27.5231 L131.75 28.8462 L132.8571 30.1692 L133.9643 30.7231 L135.0714 31.2154 L136.1786 32.4154 L137.2857 33.0923 L138.3929 33.8615 L139.5 34.3538 L140.6071 35.4615 L141.7143 36.1077 L142.8214 36.5692 L143.9286 37.0923 L145.0357 37.5846 L146.1429 38.0154 L147.25 38.3231 L148.3571 38.4154 L149.4643 38.5385 L150.5714 38.8154 L151.6786 39.1538 L152.7857 39.3077 L153.8929 39.4923 L155 39.7692"/>
</g>
<g style="fill:none;stroke:#0000ff;stroke-width:1.3;" class="svgcurveline" id="svgthumb_us-stephanie-m">
<path d=" M102.4107 40.8769 L102.9643 40.8769 L103.5179 40.8769 M104.625 40.8769 L105.1786 40.8769 L105.7321 40.8769 M111.2679 40.8769 L111.8214 40.8462 L112.375 40.8769 M113.4821 40.8769 L114.0357 40.8462 L115.1429 40.8154 L116.25 40.8154 L117.3571 40.8462 L118.4643 40.8462 L119.0179 40.8462 M120.125 40.8462 L120.6786 40.7846 L121.2321 40.8462"/>
</g>
</g>
</svg>