<svg viewBox="0 0 155 58" preserveAspectRatio="none" class="svggraph" id="svgthumb_us" style="overflow:visible;width:155px;height:58px;" xmlns="http://www.w3.org/2000/svg" xlink="http://www.w3.org/1999/xlink" title="Chart for stevie">
<title>Last ranked
#965 in 1993 (m)
#409 in 2020 (f)</title>
<rect x="2" y="43" height="13" width="17" style="fill:rgb(200,200,200)"/>
<image x="2.5" y="43.5" href="/images/flags/24/us.png" preserveAspectRatio="xMinYMax meet" width="16" height="12"/>
<text x="153" y="55" class="svgtitle" text-anchor="end" style="fill:#000000;font-size:13px;">United States</text>
<line x1="0" y1="41" x2="155" y2="41" class="svggridline" style="stroke:rgb(200,200,200);stroke-width:1.3"/>
<g id="svgthumb_us-namepaths">
<g style="fill:none;stroke:#0000ff;stroke-width:1.3;" class="svgcurveline" id="svgthumb_us-stevie-m">
<path d=" M74.7321 39.2857 L75.2857 38.7143 L76.3929 37.5714 L77.5 37.5714 L78.6071 37 L79.7143 35.2857 L80.8214 34.1429 L81.9286 32.4286 L83.0357 31.2857 L84.1429 30.1429 L85.25 29.5714 L86.3571 30.1429 L87.4643 29 L88.5714 29.5714 L89.6786 31.2857 L90.7857 30.7143 L91.8929 29.5714 L93 29.5714 L94.1071 29 L95.2143 30.7143 L96.3214 30.1429 L97.4286 31.8571 L98.5357 33.5714 L99.6429 32.4286 L100.75 32.4286 L101.8571 31.8571 L102.9643 34.1429 L104.0714 34.7143 L105.1786 35.2857 L106.2857 35.8571 L107.3929 35.2857 L108.5 35.8571 L109.6071 36.4286 L110.7143 37 L111.8214 37.5714 L112.9286 37 L114.0357 38.1429 L115.1429 38.1429 L116.25 37.5714 L117.3571 38.1429 L118.4643 37.5714 L119.0179 38.1429 M120.125 38.1429 L120.6786 37.5714 L121.7857 37 L122.8929 36.4286 L124 37 L125.1071 37.5714 L125.6607 37.5714"/>
</g>
<g style="fill:none;stroke:#ff0000;stroke-width:1.3;" class="svgcurveline" id="svgthumb_us-stevie-f">
<path d=" M113.4821 36.4286 L114.0357 35.2857 L115.1429 34.7143 L116.25 34.1429 L117.3571 30.7143 L118.4643 30.7143 L119.5714 29 L120.6786 31.2857 L121.7857 31.2857 L122.8929 30.7143 L124 30.1429 L125.1071 31.8571 L126.2143 31.8571 L127.3214 33 L128.4286 34.1429 L129.5357 34.7143 L130.6429 34.1429 L131.1964 34.7143 M147.8036 33.5714 L148.3571 33 L149.4643 33 L150.5714 30.7143 L151.6786 28.4286 L152.7857 27.2857 L153.8929 22.7143 L155 16.4286"/>
</g>
</g>
</svg>