<svg viewBox="0 0 155 58" preserveAspectRatio="none" class="svggraph" id="svgthumb_us" style="overflow:visible;width:155px;height:58px;" xmlns="http://www.w3.org/2000/svg" xlink="http://www.w3.org/1999/xlink" title="Chart for summer">
<title>Last ranked
#148 in 2020</title>
<rect x="2" y="43" height="13" width="17" style="fill:rgb(200,200,200)"/>
<image x="2.5" y="43.5" href="/images/flags/24/us.png" preserveAspectRatio="xMinYMax meet" width="16" height="12"/>
<text x="153" y="55" class="svgtitle" text-anchor="end" style="fill:#000000;font-size:13px;">United States</text>
<line x1="0" y1="41" x2="155" y2="41" class="svggridline" style="stroke:rgb(200,200,200);stroke-width:1.3"/>
<g id="svgthumb_us-namepaths">
<g style="fill:none;stroke:#ff0000;stroke-width:1.3;" class="svgcurveline" id="svgthumb_us-summer-f">
<path d=" M100.1964 39.6 L100.75 39.2 L101.8571 38.6 L102.9643 38.6 L104.0714 37 L105.1786 31 L106.2857 27.4 L107.3929 11.2 L108.5 17.6 L109.6071 19.4 L110.7143 21.2 L111.8214 23.8 L112.9286 27 L114.0357 28 L115.1429 27.6 L116.25 28.4 L117.3571 28.8 L118.4643 29.8 L119.5714 30.8 L120.6786 31.8 L121.7857 31 L122.8929 31.4 L124 30 L125.1071 24.6 L126.2143 18 L127.3214 18.8 L128.4286 16.6 L129.5357 15 L130.6429 14.6 L131.75 17 L132.8571 17.6 L133.9643 17.6 L135.0714 18.6 L136.1786 19 L137.2857 17.8 L138.3929 17.2 L139.5 19.4 L140.6071 19.8 L141.7143 22.2 L142.8214 22.2 L143.9286 21.8 L145.0357 22.2 L146.1429 22.6 L147.25 23 L148.3571 22.8 L149.4643 23.6 L150.5714 24.4 L151.6786 26 L152.7857 24.4 L153.8929 23 L155 20.4"/>
</g>
</g>
</svg>