<svg viewBox="0 0 155 58" preserveAspectRatio="none" class="svggraph" id="svgthumb_us" style="overflow:visible;width:155px;height:58px;" xmlns="http://www.w3.org/2000/svg" xlink="http://www.w3.org/1999/xlink" title="Chart for sydney">
<title>Last ranked
#242 in 2020 (f)
#979 in 1996 (m)</title>
<rect x="2" y="43" height="13" width="17" style="fill:rgb(200,200,200)"/>
<image x="2.5" y="43.5" href="/images/flags/24/us.png" preserveAspectRatio="xMinYMax meet" width="16" height="12"/>
<text x="153" y="55" class="svgtitle" text-anchor="end" style="fill:#000000;font-size:13px;">United States</text>
<line x1="0" y1="41" x2="155" y2="41" class="svggridline" style="stroke:rgb(200,200,200);stroke-width:1.3"/>
<g id="svgthumb_us-namepaths">
<g style="fill:none;stroke:#ff0000;stroke-width:1.3;" class="svgcurveline" id="svgthumb_us-sydney-f">
<path d=" M6.0893 40.7333 L6.6429 40.6667 L7.1964 40.6667 M27.125 40.6667 L27.6786 40.5333 L28.2321 40.6667 M57.0179 40.7333 L57.5714 40.5333 L58.6786 40.3333 L59.7857 40.3333 L60.8929 40.4 L62 40.4 L63.1071 40.4667 L64.2143 40.4667 L65.3214 40.5333 L66.4286 40.5333 L67.5357 40.0667 L68.6429 40.1333 L69.75 40.1333 L70.8571 40.2667 L71.9643 40.3333 L73.0714 40.4 L74.1786 40.4667 L75.2857 40.4667 L76.3929 40.3333 L77.5 40.2667 L78.6071 40.2667 L79.7143 40.2667 L80.8214 40.4667 L81.9286 40.5333 L83.0357 40.5333 L84.1429 40.6 L85.25 40.6 L85.8036 40.6667 M86.9107 40.6667 L87.4643 40.5333 L88.5714 40.6 L89.6786 40.6 L90.2321 40.6 M91.3393 40.6 L91.8929 40.4667 L93 40.4 L94.1071 40.4 L95.2143 40.3333 L96.3214 40.5333 L96.875 40.6 M111.2679 40.4667 L111.8214 40.4 L112.9286 40.4 L114.0357 40.2667 L115.1429 39.9333 L116.25 39.4 L117.3571 39.3333 L118.4643 38.6667 L119.5714 37.8 L120.6786 37 L121.7857 34.4 L122.8929 33.2 L124 32 L125.1071 30.6667 L126.2143 24.8 L127.3214 15.4667 L128.4286 15.7333 L129.5357 12.9333 L130.6429 11.6 L131.75 7.9333 L132.8571 6.8 L133.9643 8.5333 L135.0714 10.4667 L136.1786 11.4 L137.2857 13.3333 L138.3929 16.7333 L139.5 20.2 L140.6071 22 L141.7143 24.1333 L142.8214 24.3333 L143.9286 26.2667 L145.0357 27.3333 L146.1429 29.1333 L147.25 30 L148.3571 31.2667 L149.4643 31.9333 L150.5714 33 L151.6786 33.8667 L152.7857 34.6667 L153.8929 35.4 L155 36.3333"/>
</g>
<g style="fill:none;stroke:#0000ff;stroke-width:1.3;" class="svgcurveline" id="svgthumb_us-sydney-m">
<path d="M0 40.3333 L1.1071 40.6 L2.2143 40.4667 L3.3214 40.3333 L4.4286 40.2667 L5.5357 39.5333 L6.6429 40.4667 L7.75 40.1333 L8.8571 40.0667 L9.9643 40 L11.0714 40.4 L12.1786 40.5333 L13.2857 40.2667 L14.3929 39.7333 L15.5 39.8667 L16.6071 39.7333 L17.7143 40.2 L18.8214 40.2 L19.9286 40.4667 L21.0357 40 L22.1429 40.4667 L23.25 40.2667 L24.3571 40.3333 L25.4643 39.8 L26.5714 39.6667 L27.6786 39.6667 L28.7857 40.0667 L29.8929 40.1333 L31 39.8667 L32.1071 39.9333 L33.2143 39.6667 L34.3214 39.5333 L35.4286 39.3333 L36.5357 39.2 L37.6429 39.2667 L38.75 39.6667 L39.8571 39.5333 L40.9643 39.7333 L42.0714 39.8 L43.1786 39.9333 L44.2857 39.9333 L45.3929 40 L46.5 40.0667 L47.6071 40.2 L48.7143 40.2667 L49.8214 40.2667 L50.9286 40.3333 L52.0357 40.3333 L53.1429 40.4667 L54.25 40.4667 L55.3571 40.5333 L56.4643 40.5333 L57.5714 40.4 L58.6786 40.4 L59.7857 40.4667 L60.8929 40.5333 L62 40.4667 L63.1071 40.4 L64.2143 40.5333 L65.3214 40.5333 L66.4286 40.6 L67.5357 40.5333 L68.6429 40.5333 L69.75 40.6667 L70.8571 40.6 L71.9643 40.6 L73.0714 40.6667 L74.1786 40.6667 L75.2857 40.7333 L76.3929 40.6667 L77.5 40.7333 L78.6071 40.8 L79.7143 40.8 L80.8214 40.7333 L81.375 40.8 M83.5893 40.8 L84.1429 40.8 L84.6964 40.8 M85.8036 40.8 L86.3571 40.8 L87.4643 40.8 L88.0179 40.8 M92.4464 40.8 L93 40.8 L93.5536 40.8 M95.7679 40.8 L96.3214 40.8 L96.875 40.8 M127.875 40.6 L128.4286 40.6 L128.9821 40.6"/>
</g>
</g>
</svg>