<svg viewBox="0 0 155 58" preserveAspectRatio="none" class="svggraph" id="svgthumb_us" style="overflow:visible;width:155px;height:58px;" xmlns="http://www.w3.org/2000/svg" xlink="http://www.w3.org/1999/xlink" title="Chart for sylvia">
<title>Last ranked
#504 in 2020</title>
<rect x="2" y="43" height="13" width="17" style="fill:rgb(200,200,200)"/>
<image x="2.5" y="43.5" href="/images/flags/24/us.png" preserveAspectRatio="xMinYMax meet" width="16" height="12"/>
<text x="153" y="55" class="svgtitle" text-anchor="end" style="fill:#000000;font-size:13px;">United States</text>
<line x1="0" y1="41" x2="155" y2="41" class="svggridline" style="stroke:rgb(200,200,200);stroke-width:1.3"/>
<g id="svgthumb_us-namepaths">
<g style="fill:none;stroke:#ff0000;stroke-width:1.3;" class="svgcurveline" id="svgthumb_us-sylvia-f">
<path d="M0 34.36 L1.1071 35.56 L2.2143 35.56 L3.3214 35.72 L4.4286 35.96 L5.5357 34.68 L6.6429 33.88 L7.75 34.04 L8.8571 33.96 L9.9643 33.96 L11.0714 32.12 L12.1786 32.12 L13.2857 31.24 L14.3929 30.84 L15.5 31.24 L16.6071 32.04 L17.7143 30.2 L18.8214 29.48 L19.9286 29.56 L21.0357 29 L22.1429 29.8 L23.25 28.76 L24.3571 29.24 L25.4643 27.64 L26.5714 27.4 L27.6786 27.4 L28.7857 25.24 L29.8929 26.52 L31 24.12 L32.1071 22.6 L33.2143 21.96 L34.3214 19.56 L35.4286 18.68 L36.5357 16.44 L37.6429 15.24 L38.75 15.32 L39.8571 15.88 L40.9643 16.28 L42.0714 16.52 L43.1786 17.8 L44.2857 19.64 L45.3929 20.36 L46.5 22.04 L47.6071 22.84 L48.7143 23.96 L49.8214 24.92 L50.9286 24.6 L52.0357 25.8 L53.1429 26.12 L54.25 26.92 L55.3571 28.44 L56.4643 27 L57.5714 22.44 L58.6786 18.52 L59.7857 15.32 L60.8929 14.36 L62 10.12 L63.1071 9.32 L64.2143 11.16 L65.3214 13.72 L66.4286 15.24 L67.5357 16.68 L68.6429 19.56 L69.75 20.84 L70.8571 21.72 L71.9643 20.92 L73.0714 20.68 L74.1786 23 L75.2857 24.12 L76.3929 23.64 L77.5 24.6 L78.6071 24.68 L79.7143 25.08 L80.8214 25.16 L81.9286 24.6 L83.0357 25 L84.1429 24.92 L85.25 24.6 L86.3571 24.92 L87.4643 26.2 L88.5714 26.28 L89.6786 26.6 L90.7857 27.32 L91.8929 27.8 L93 29 L94.1071 28.04 L95.2143 30.04 L96.3214 30.68 L97.4286 31.8 L98.5357 32.76 L99.6429 33.48 L100.75 33.8 L101.8571 33.72 L102.9643 34.04 L104.0714 34.12 L105.1786 35.16 L106.2857 35.64 L107.3929 36.2 L108.5 36.36 L109.6071 36.28 L110.7143 36.68 L111.8214 36.52 L112.9286 36.68 L114.0357 36.36 L115.1429 36.52 L116.25 37 L117.3571 37.16 L118.4643 37.32 L119.5714 37.48 L120.6786 37.8 L121.7857 37.8 L122.8929 37.72 L124 38.2 L125.1071 38.2 L126.2143 38.6 L127.3214 38.52 L128.4286 38.68 L129.5357 38.84 L130.6429 38.68 L131.75 38.76 L132.8571 38.84 L133.9643 38.92 L135.0714 38.84 L136.1786 39 L137.2857 39 L138.3929 38.84 L139.5 38.76 L140.6071 38.76 L141.7143 38.84 L142.8214 38.84 L143.9286 38.84 L145.0357 38.84 L146.1429 38.6 L147.25 38.52 L148.3571 38.44 L149.4643 38.28 L150.5714 38.44 L151.6786 38.28 L152.7857 38.28 L153.8929 38.36 L155 38.28"/>
</g>
</g>
</svg>