<svg viewBox="0 0 155 58" preserveAspectRatio="none" class="svggraph" id="svgthumb_us" style="overflow:visible;width:155px;height:58px;" xmlns="http://www.w3.org/2000/svg" xlink="http://www.w3.org/1999/xlink" title="Chart for tatum">
<title>Last ranked
#343 in 2020 (f)
#490 in 2020 (m)</title>
<rect x="2" y="43" height="13" width="17" style="fill:rgb(200,200,200)"/>
<image x="2.5" y="43.5" href="/images/flags/24/us.png" preserveAspectRatio="xMinYMax meet" width="16" height="12"/>
<text x="153" y="55" class="svgtitle" text-anchor="end" style="fill:#000000;font-size:13px;">United States</text>
<line x1="0" y1="41" x2="155" y2="41" class="svggridline" style="stroke:rgb(200,200,200);stroke-width:1.3"/>
<g id="svgthumb_us-namepaths">
<g style="fill:none;stroke:#ff0000;stroke-width:1.3;" class="svgcurveline" id="svgthumb_us-tatum-f">
<path d=" M125.6607 35.8571 L126.2143 35.2857 L126.7679 35.2857 M127.875 35.2857 L128.4286 34.7143 L129.5357 27.8571 L130.6429 20.4286 L131.75 22.1429 L132.8571 21.5714 L133.9643 21 L135.0714 19.2857 L136.1786 18.7143 L137.2857 18.1429 L138.3929 15.2857 L139.5 15.2857 L140.6071 14.1429 L141.7143 16.4286 L142.8214 18.7143 L143.9286 13 L145.0357 13.5714 L146.1429 13 L147.25 11.8571 L148.3571 16.4286 L149.4643 18.1429 L150.5714 18.1429 L151.6786 19.2857 L152.7857 18.1429 L153.8929 13.5714 L155 11.8571"/>
</g>
<g style="fill:none;stroke:#0000ff;stroke-width:1.3;" class="svgcurveline" id="svgthumb_us-tatum-m">
<path d=" M143.375 35.8571 L143.9286 32.4286 L145.0357 32.4286 L146.1429 29 L147.25 27.2857 L148.3571 27.8571 L149.4643 27.8571 L150.5714 29 L151.6786 27.8571 L152.7857 25.5714 L153.8929 23.2857 L155 22.7143"/>
</g>
</g>
</svg>