<svg viewBox="0 0 155 58" preserveAspectRatio="none" class="svggraph" id="svgthumb_us" style="overflow:visible;width:155px;height:58px;" xmlns="http://www.w3.org/2000/svg" xlink="http://www.w3.org/1999/xlink" title="Chart for taylor">
<title>Last ranked
#160 in 2020 (f)
#595 in 2020 (m)</title>
<rect x="2" y="43" height="13" width="17" style="fill:rgb(200,200,200)"/>
<image x="2.5" y="43.5" href="/images/flags/24/us.png" preserveAspectRatio="xMinYMax meet" width="16" height="12"/>
<text x="153" y="55" class="svgtitle" text-anchor="end" style="fill:#000000;font-size:13px;">United States</text>
<line x1="0" y1="41" x2="155" y2="41" class="svggridline" style="stroke:rgb(200,200,200);stroke-width:1.3"/>
<g id="svgthumb_us-namepaths">
<g style="fill:none;stroke:#ff0000;stroke-width:1.3;" class="svgcurveline" id="svgthumb_us-taylor-f">
<path d=" M109.0536 40.7091 L109.6071 40.6727 L110.7143 40.5273 L111.8214 40.2 L112.9286 39.8 L114.0357 39.6182 L115.1429 39.2545 L116.25 38.9273 L117.3571 38.6 L118.4643 37.6909 L119.5714 35.7273 L120.6786 33.5818 L121.7857 28.1636 L122.8929 22.6727 L124 13.8727 L125.1071 1.7636 L126.2143 2.3091 L127.3214 2.3455 L128.4286 4.6727 L129.5357 3.8364 L130.6429 6.1636 L131.75 9.4364 L132.8571 13.5091 L133.9643 15.8727 L135.0714 19.8727 L136.1786 22.3091 L137.2857 24.2364 L138.3929 25.4727 L139.5 26.0909 L140.6071 27.3273 L141.7143 26.4182 L142.8214 27.3636 L143.9286 30.0545 L145.0357 31.2545 L146.1429 31.8727 L147.25 33.1818 L148.3571 33.9091 L149.4643 34.0182 L150.5714 34.8182 L151.6786 35.8 L152.7857 36.1273 L153.8929 36.9273 L155 37.4"/>
</g>
<g style="fill:none;stroke:#0000ff;stroke-width:1.3;" class="svgcurveline" id="svgthumb_us-taylor-m">
<path d="M0 39.8727 L1.1071 39.6909 L2.2143 40.2 L3.3214 40.1273 L4.4286 40.3818 L5.5357 40.2 L6.6429 40.3455 L7.75 40.3455 L8.8571 40.2 L9.9643 40.1273 L11.0714 40.3455 L12.1786 40.2727 L13.2857 40.2 L14.3929 40.2364 L15.5 40.3455 L16.6071 40.2364 L17.7143 40.0909 L18.8214 40.0545 L19.9286 40.2727 L21.0357 40.1636 L22.1429 39.9091 L23.25 40.2 L24.3571 40.4545 L25.4643 40.4545 L26.5714 40.2 L27.6786 40.2364 L28.7857 40.3455 L29.8929 40.4182 L31 40.5273 L32.1071 40.2727 L33.2143 40.3818 L34.3214 40.3091 L35.4286 40.5273 L36.5357 40.4909 L37.6429 40.5273 L38.75 40.5636 L39.8571 40.6 L40.9643 40.5636 L42.0714 40.5273 L43.1786 40.5636 L44.2857 40.6364 L45.3929 40.6364 L46.5 40.7091 L47.6071 40.7091 L48.7143 40.6 L49.8214 40.7091 L50.9286 40.7091 L52.0357 40.7455 L53.1429 40.7091 L54.25 40.7091 L55.3571 40.7455 L56.4643 40.8182 L57.5714 40.7455 L58.6786 40.7455 L59.7857 40.7455 L60.8929 40.7091 L62 40.7818 L63.1071 40.7091 L64.2143 40.7455 L65.3214 40.7818 L66.4286 40.7818 L67.5357 40.7818 L68.6429 40.8182 L69.75 40.7818 L70.8571 40.8545 L71.9643 40.8182 L73.0714 40.8182 L74.1786 40.8182 L75.2857 40.8182 L76.3929 40.8182 L77.5 40.8182 L78.6071 40.8545 L79.7143 40.8182 L80.8214 40.8545 L81.9286 40.8545 L83.0357 40.8545 L84.1429 40.8545 L85.25 40.8545 L86.3571 40.8545 L87.4643 40.8182 L88.5714 40.8545 L89.6786 40.8182 L90.7857 40.8545 L91.8929 40.8545 L93 40.8545 L94.1071 40.8545 L95.2143 40.8182 L96.3214 40.8545 L97.4286 40.7091 L98.5357 40.7818 L99.6429 40.7818 L100.75 40.7091 L101.8571 40.7091 L102.9643 40.7091 L104.0714 40.6 L105.1786 40.6 L106.2857 40.4545 L107.3929 40.3091 L108.5 40.2727 L109.6071 40.0909 L110.7143 39.8 L111.8214 39.4727 L112.9286 39.1818 L114.0357 38.9273 L115.1429 38.2727 L116.25 37.6182 L117.3571 37.1455 L118.4643 36.4545 L119.5714 34.6727 L120.6786 32.5636 L121.7857 29.8727 L122.8929 27.3273 L124 26.7091 L125.1071 27.4727 L126.2143 29.1818 L127.3214 31.0364 L128.4286 32.3091 L129.5357 33.1091 L130.6429 34.5636 L131.75 35.5091 L132.8571 36.0182 L133.9643 36.9273 L135.0714 37.5455 L136.1786 37.8364 L137.2857 38.2364 L138.3929 38.3091 L139.5 38.3091 L140.6071 38.6364 L141.7143 38.7091 L142.8214 39.1091 L143.9286 39.2909 L145.0357 39.4 L146.1429 39.4 L147.25 39.5091 L148.3571 39.7636 L149.4643 39.8364 L150.5714 39.8364 L151.6786 39.9455 L152.7857 39.9818 L153.8929 40.1273 L155 40.0909"/>
</g>
</g>
</svg>