<svg viewBox="0 0 155 58" preserveAspectRatio="none" class="svggraph" id="svgthumb_us" style="overflow:visible;width:155px;height:58px;" xmlns="http://www.w3.org/2000/svg" xlink="http://www.w3.org/1999/xlink" title="Chart for teagan">
<title>Last ranked
#192 in 2020 (f)
#980 in 2014 (m)</title>
<rect x="2" y="43" height="13" width="17" style="fill:rgb(200,200,200)"/>
<image x="2.5" y="43.5" href="/images/flags/24/us.png" preserveAspectRatio="xMinYMax meet" width="16" height="12"/>
<text x="153" y="55" class="svgtitle" text-anchor="end" style="fill:#000000;font-size:13px;">United States</text>
<line x1="0" y1="41" x2="155" y2="41" class="svggridline" style="stroke:rgb(200,200,200);stroke-width:1.3"/>
<g id="svgthumb_us-namepaths">
<g style="fill:none;stroke:#ff0000;stroke-width:1.3;" class="svgcurveline" id="svgthumb_us-teagan-f">
<path d=" M131.1964 39 L131.75 38.2 L132.8571 38.4 L133.9643 37.8 L135.0714 36.8 L136.1786 36.8 L137.2857 35.6 L138.3929 34.8 L139.5 34 L140.6071 33.4 L141.7143 31 L142.8214 29.2 L143.9286 27.8 L145.0357 25.8 L146.1429 28.2 L147.25 28.2 L148.3571 27.8 L149.4643 26.2 L150.5714 19.8 L151.6786 22.6 L152.7857 23.2 L153.8929 23.6 L155 24"/>
</g>
<g style="fill:none;stroke:#0000ff;stroke-width:1.3;" class="svgcurveline" id="svgthumb_us-teagan-m">
<path d=" M136.7321 39.4 L137.2857 39.2 L138.3929 39 L139.5 38.8 L140.6071 37.8 L141.7143 37.6 L142.8214 37.4 L143.9286 37.6 L145.0357 38 L146.1429 38 L147.25 38.8 L148.3571 39 L148.9107 39"/>
</g>
</g>
</svg>