<svg viewBox="0 0 155 58" preserveAspectRatio="none" class="svggraph" id="svgthumb_us" style="overflow:visible;width:155px;height:58px;" xmlns="http://www.w3.org/2000/svg" xlink="http://www.w3.org/1999/xlink" title="Chart for tessa">
<title>Last ranked
#278 in 2020</title>
<rect x="2" y="43" height="13" width="17" style="fill:rgb(200,200,200)"/>
<image x="2.5" y="43.5" href="/images/flags/24/us.png" preserveAspectRatio="xMinYMax meet" width="16" height="12"/>
<text x="153" y="55" class="svgtitle" text-anchor="end" style="fill:#000000;font-size:13px;">United States</text>
<line x1="0" y1="41" x2="155" y2="41" class="svggridline" style="stroke:rgb(200,200,200);stroke-width:1.3"/>
<g id="svgthumb_us-namepaths">
<g style="fill:none;stroke:#ff0000;stroke-width:1.3;" class="svgcurveline" id="svgthumb_us-tessa-f">
<path d=" M92.4464 38.6 L93 38.2 L93.5536 38.6 M94.6607 38.6 L95.2143 38.2 L95.7679 38.6 M96.875 38.6 L97.4286 38.2 L98.5357 37.8 L99.6429 37 L100.75 36.2 L101.8571 35.8 L102.9643 33 L104.0714 33.8 L105.1786 33.4 L106.2857 32.2 L107.3929 34.6 L108.5 30.2 L109.6071 31 L110.7143 33 L111.8214 28.2 L112.9286 26.6 L114.0357 22.6 L115.1429 23.8 L116.25 26.2 L117.3571 27.4 L118.4643 29 L119.5714 28.6 L120.6786 27 L121.7857 22.6 L122.8929 18.2 L124 17.8 L125.1071 15.4 L126.2143 17.4 L127.3214 17.8 L128.4286 15 L129.5357 12.6 L130.6429 12.6 L131.75 15.4 L132.8571 16.6 L133.9643 19.8 L135.0714 19.4 L136.1786 19 L137.2857 17.4 L138.3929 17 L139.5 15 L140.6071 7.8 L141.7143 9 L142.8214 10.2 L143.9286 11.8 L145.0357 12.2 L146.1429 13 L147.25 13.4 L148.3571 9.8 L149.4643 9 L150.5714 12.2 L151.6786 13.8 L152.7857 12.6 L153.8929 13.4 L155 15.4"/>
</g>
</g>
</svg>