<svg viewBox="0 0 155 58" preserveAspectRatio="none" class="svggraph" id="svgthumb_us" style="overflow:visible;width:155px;height:58px;" xmlns="http://www.w3.org/2000/svg" xlink="http://www.w3.org/1999/xlink" title="Chart for thea">
<title>Last ranked
#302 in 2020</title>
<rect x="2" y="43" height="13" width="17" style="fill:rgb(200,200,200)"/>
<image x="2.5" y="43.5" href="/images/flags/24/us.png" preserveAspectRatio="xMinYMax meet" width="16" height="12"/>
<text x="153" y="55" class="svgtitle" text-anchor="end" style="fill:#000000;font-size:13px;">United States</text>
<line x1="0" y1="41" x2="155" y2="41" class="svggridline" style="stroke:rgb(200,200,200);stroke-width:1.3"/>
<g id="svgthumb_us-namepaths">
<g style="fill:none;stroke:#ff0000;stroke-width:1.3;" class="svgcurveline" id="svgthumb_us-thea-f">
<path d="M0 38.3333 L1.1071 38.7778 L2.2143 38.3333 L3.3214 38.7778 L4.4286 37.8889 L5.5357 38.3333 L6.6429 37.8889 L7.1964 38.7778 M8.3036 38.7778 L8.8571 37.8889 L9.9643 37.8889 L10.5179 39.2222 M11.625 39.2222 L12.1786 38.7778 L13.2857 38.7778 L13.8393 39.2222 M16.0536 39.2222 L16.6071 36.1111 L17.1607 39.2222 M22.6964 38.7778 L23.25 38.3333 L24.3571 38.7778 L24.9107 38.7778 M76.9464 38.7778 L77.5 38.7778 L78.0536 38.7778 M79.1607 38.7778 L79.7143 38.7778 L80.8214 38.7778 L81.9286 38.7778 L83.0357 37.8889 L83.5893 38.7778 M84.6964 38.7778 L85.25 38.3333 L85.8036 38.7778 M90.2321 38.3333 L90.7857 38.3333 L91.8929 38.3333 L93 38.3333 L94.1071 37.8889 L94.6607 38.3333 M147.8036 35.2222 L148.3571 32.5556 L149.4643 25.4444 L150.5714 15.2222 L151.6786 13 L152.7857 12.1111 L153.8929 13 L155 13.8889"/>
</g>
</g>
</svg>