<svg viewBox="0 0 155 58" preserveAspectRatio="none" class="svggraph" id="svgthumb_us" style="overflow:visible;width:155px;height:58px;" xmlns="http://www.w3.org/2000/svg" xlink="http://www.w3.org/1999/xlink" title="Chart for trinity">
<title>Last ranked
#228 in 2020 (f)
#982 in 1980 (m)</title>
<rect x="2" y="43" height="13" width="17" style="fill:rgb(200,200,200)"/>
<image x="2.5" y="43.5" href="/images/flags/24/us.png" preserveAspectRatio="xMinYMax meet" width="16" height="12"/>
<text x="153" y="55" class="svgtitle" text-anchor="end" style="fill:#000000;font-size:13px;">United States</text>
<line x1="0" y1="41" x2="155" y2="41" class="svggridline" style="stroke:rgb(200,200,200);stroke-width:1.3"/>
<g id="svgthumb_us-namepaths">
<g style="fill:none;stroke:#ff0000;stroke-width:1.3;" class="svgcurveline" id="svgthumb_us-trinity-f">
<path d=" M103.5179 39.9333 L104.0714 39.9333 L105.1786 39.5333 L106.2857 39.9333 L107.3929 39.6667 L108.5 39.8 L109.6071 39.9333 L110.1607 39.9333 M124.5536 39.8 L125.1071 39.5333 L126.2143 39.2667 L127.3214 38.7333 L128.4286 38.7333 L129.5357 37.9333 L130.6429 37.6667 L131.75 30.8667 L132.8571 12.3333 L133.9643 10.8667 L135.0714 11.4 L136.1786 6.8667 L137.2857 3.8 L138.3929 5.1333 L139.5 10.2 L140.6071 13.4 L141.7143 13.6667 L142.8214 14.4667 L143.9286 15.8 L145.0357 16.0667 L146.1429 18.7333 L147.25 20.7333 L148.3571 21.8 L149.4643 23.8 L150.5714 25.6667 L151.6786 27.9333 L152.7857 28.6 L153.8929 29 L155 31.2667"/>
</g>
<g style="fill:none;stroke:#0000ff;stroke-width:1.3;" class="svgcurveline" id="svgthumb_us-trinity-m">
<path d=" M103.5179 40.4667 L104.0714 40.3333 L105.1786 40.0667 L106.2857 40.0667 L107.3929 40.0667 L108.5 40.2 L109.6071 40.3333 L110.7143 40.3333 L111.2679 40.4667"/>
</g>
</g>
</svg>