<svg viewBox="0 0 155 58" preserveAspectRatio="none" class="svggraph" id="svgthumb_us" style="overflow:visible;width:155px;height:58px;" xmlns="http://www.w3.org/2000/svg" xlink="http://www.w3.org/1999/xlink" title="Chart for valeria">
<title>Last ranked
#150 in 2020</title>
<rect x="2" y="43" height="13" width="17" style="fill:rgb(200,200,200)"/>
<image x="2.5" y="43.5" href="/images/flags/24/us.png" preserveAspectRatio="xMinYMax meet" width="16" height="12"/>
<text x="153" y="55" class="svgtitle" text-anchor="end" style="fill:#000000;font-size:13px;">United States</text>
<line x1="0" y1="41" x2="155" y2="41" class="svggridline" style="stroke:rgb(200,200,200);stroke-width:1.3"/>
<g id="svgthumb_us-namepaths">
<g style="fill:none;stroke:#ff0000;stroke-width:1.3;" class="svgcurveline" id="svgthumb_us-valeria-f">
<path d=" M0.5536 40.4667 L1.1071 39.9333 L2.2143 40.3333 L3.3214 40.3333 L4.4286 40.0667 L5.5357 39.8 L6.6429 40.0667 L7.75 39.6667 L8.8571 39.9333 L9.9643 39.9333 L11.0714 39.9333 L12.1786 39.9333 L13.2857 39.8 L14.3929 39.9333 L15.5 39.1333 L16.6071 39.4 L17.7143 39.8 L18.8214 39.6667 L19.9286 39 L21.0357 39.6667 L22.1429 39.6667 L23.25 39.6667 L24.3571 39.6667 L25.4643 39.8 L26.5714 39.1333 L27.6786 39.1333 L28.7857 39.1333 L29.8929 39.6667 L31 39.4 L32.1071 39.4 L33.2143 39.1333 L34.3214 38.7333 L35.4286 38.8667 L36.5357 38.4667 L37.6429 38.4667 L38.75 38.7333 L39.8571 38.2 L40.9643 38.3333 L42.0714 38.3333 L43.1786 38.4667 L44.2857 38.4667 L45.3929 38.8667 L46.5 38.8667 L47.6071 38.8667 L48.7143 38.8667 L49.8214 39.2667 L50.9286 38.8667 L52.0357 38.8667 L53.1429 39.2667 L54.25 39.4 L55.3571 39.4 L56.4643 39.4 L57.5714 39.4 L58.6786 39.4 L59.7857 39.6667 L60.8929 39.5333 L62 39.8 L63.1071 39.6667 L64.2143 39.6667 L65.3214 39.8 L66.4286 39.9333 L67.5357 40.0667 L68.6429 40.0667 L69.75 39.9333 L70.8571 40.2 L71.4107 40.4667 M72.5179 40.4667 L73.0714 40.2 L74.1786 40.3333 L75.2857 40.0667 L76.3929 39.8 L77.5 39.6667 L78.6071 39.8 L79.7143 39.8 L80.8214 39.8 L81.9286 39.8 L83.0357 39.6667 L84.1429 39.5333 L85.25 39.8 L86.3571 39.5333 L87.4643 39.6667 L88.5714 39.8 L89.6786 39.6667 L90.7857 39.6667 L91.8929 39.8 L93 39.1333 L94.1071 39.4 L95.2143 39.5333 L96.3214 39.4 L97.4286 39.4 L98.5357 39.5333 L99.6429 39.6667 L100.75 39.9333 L101.8571 39.9333 L102.9643 39.6667 L104.0714 39.8 L105.1786 39.6667 L106.2857 39.9333 L106.8393 39.9333 M113.4821 39.9333 L114.0357 39.8 L114.5893 39.9333 M115.6964 39.9333 L116.25 39.4 L117.3571 39.5333 L118.4643 39.5333 L119.5714 39.4 L120.6786 39.4 L121.7857 39 L122.8929 38.6 L124 36.6 L125.1071 35 L126.2143 35.6667 L127.3214 35 L128.4286 35 L129.5357 34.2 L130.6429 33.9333 L131.75 33.8 L132.8571 31.5333 L133.9643 30.3333 L135.0714 29.9333 L136.1786 29.4 L137.2857 28.0667 L138.3929 25 L139.5 17.2667 L140.6071 19.5333 L141.7143 14.0667 L142.8214 14.0667 L143.9286 19.8 L145.0357 23.5333 L146.1429 26.2 L147.25 28.4667 L148.3571 28.0667 L149.4643 27.5333 L150.5714 27 L151.6786 27.6667 L152.7857 26.7333 L153.8929 26.4667 L155 27.2667"/>
</g>
</g>
</svg>