<svg viewBox="0 0 155 58" preserveAspectRatio="none" class="svggraph" id="svgthumb_us" style="overflow:visible;width:155px;height:58px;" xmlns="http://www.w3.org/2000/svg" xlink="http://www.w3.org/1999/xlink" title="Chart for valentina">
<title>Last ranked
#73 in 2020</title>
<rect x="2" y="43" height="13" width="17" style="fill:rgb(200,200,200)"/>
<image x="2.5" y="43.5" href="/images/flags/24/us.png" preserveAspectRatio="xMinYMax meet" width="16" height="12"/>
<text x="153" y="55" class="svgtitle" text-anchor="end" style="fill:#000000;font-size:13px;">United States</text>
<line x1="0" y1="41" x2="155" y2="41" class="svggridline" style="stroke:rgb(200,200,200);stroke-width:1.3"/>
<g id="svgthumb_us-namepaths">
<g style="fill:none;stroke:#ff0000;stroke-width:1.3;" class="svgcurveline" id="svgthumb_us-valentina-f">
<path d=" M125.6607 39.8 L126.2143 39.6667 L127.3214 39.6667 L128.4286 39.5333 L129.5357 39.4 L130.6429 39.2667 L131.75 39.1333 L132.8571 38.8667 L133.9643 38.3333 L135.0714 38.0667 L136.1786 36.6 L137.2857 37 L138.3929 36.7333 L139.5 36.3333 L140.6071 35.8 L141.7143 32.7333 L142.8214 30.6 L143.9286 27.4 L145.0357 27.1333 L146.1429 27.9333 L147.25 23.2667 L148.3571 22.0667 L149.4643 22.2 L150.5714 20.8667 L151.6786 19.5333 L152.7857 16.3333 L153.8929 13.2667 L155 15.6667"/>
</g>
</g>
</svg>