<svg viewBox="0 0 155 58" preserveAspectRatio="none" class="svggraph" id="svgthumb_us" style="overflow:visible;width:155px;height:58px;" xmlns="http://www.w3.org/2000/svg" xlink="http://www.w3.org/1999/xlink" title="Chart for valerie">
<title>Last ranked
#144 in 2020</title>
<rect x="2" y="43" height="13" width="17" style="fill:rgb(200,200,200)"/>
<image x="2.5" y="43.5" href="/images/flags/24/us.png" preserveAspectRatio="xMinYMax meet" width="16" height="12"/>
<text x="153" y="55" class="svgtitle" text-anchor="end" style="fill:#000000;font-size:13px;">United States</text>
<line x1="0" y1="41" x2="155" y2="41" class="svggridline" style="stroke:rgb(200,200,200);stroke-width:1.3"/>
<g id="svgthumb_us-namepaths">
<g style="fill:none;stroke:#ff0000;stroke-width:1.3;" class="svgcurveline" id="svgthumb_us-valerie-f">
<path d=" M3.875 40.6 L4.4286 40.4 L4.9821 40.6 M9.4107 40.6 L9.9643 40.4 L11.0714 40.4 L12.1786 40.4 L13.2857 40.5 L13.8393 40.6 M14.9464 40.6 L15.5 40.3 L16.6071 40.2 L17.1607 40.6 M18.2679 40.6 L18.8214 40.4 L19.9286 40.2 L21.0357 40.5 L22.1429 40.3 L23.25 40.3 L24.3571 40.3 L25.4643 40.4 L26.5714 40.1 L27.6786 40.2 L28.7857 40.2 L29.8929 40.1 L31 40.2 L32.1071 39.7 L33.2143 39.9 L34.3214 39.7 L35.4286 39.5 L36.5357 39.2 L37.6429 39.7 L38.75 39.3 L39.8571 39.4 L40.9643 39.4 L42.0714 39.3 L43.1786 39.5 L44.2857 39.6 L45.3929 39.5 L46.5 39.8 L47.6071 39.8 L48.7143 39.7 L49.8214 39.8 L50.9286 39.6 L52.0357 39.4 L53.1429 39.5 L54.25 39.4 L55.3571 39.1 L56.4643 38.8 L57.5714 38.5 L58.6786 38.2 L59.7857 38.1 L60.8929 36.5 L62 36.8 L63.1071 36.5 L64.2143 36.2 L65.3214 35.5 L66.4286 34.2 L67.5357 35 L68.6429 33.7 L69.75 34.3 L70.8571 34.3 L71.9643 33 L73.0714 32.1 L74.1786 32.5 L75.2857 28.8 L76.3929 23.6 L77.5 23.8 L78.6071 21.7 L79.7143 18.6 L80.8214 17.2 L81.9286 16.3 L83.0357 13.5 L84.1429 12.3 L85.25 11.3 L86.3571 7.5 L87.4643 5.8 L88.5714 8.7 L89.6786 8.9 L90.7857 9.8 L91.8929 10 L93 7.2 L94.1071 10.1 L95.2143 13.6 L96.3214 13.3 L97.4286 14.4 L98.5357 16.6 L99.6429 18.4 L100.75 20 L101.8571 21.2 L102.9643 21.4 L104.0714 20.7 L105.1786 20.3 L106.2857 19.5 L107.3929 21.1 L108.5 20.9 L109.6071 21.2 L110.7143 20.7 L111.8214 20.8 L112.9286 19 L114.0357 19.2 L115.1429 20.4 L116.25 20 L117.3571 21.4 L118.4643 25.2 L119.5714 26.6 L120.6786 28.1 L121.7857 29.2 L122.8929 29.3 L124 29.3 L125.1071 30 L126.2143 30.7 L127.3214 29.6 L128.4286 30.1 L129.5357 29.4 L130.6429 29.9 L131.75 30.5 L132.8571 30.9 L133.9643 31 L135.0714 30.3 L136.1786 31.5 L137.2857 31.6 L138.3929 31 L139.5 27.8 L140.6071 29.5 L141.7143 29 L142.8214 29.5 L143.9286 30.5 L145.0357 30.9 L146.1429 31.4 L147.25 31.2 L148.3571 31.3 L149.4643 31.4 L150.5714 30.8 L151.6786 31.4 L152.7857 31.3 L153.8929 30.6 L155 30.3"/>
</g>
</g>
</svg>