<svg viewBox="0 0 155 58" preserveAspectRatio="none" class="svggraph" id="svgthumb_us" style="overflow:visible;width:155px;height:58px;" xmlns="http://www.w3.org/2000/svg" xlink="http://www.w3.org/1999/xlink" title="Chart for vanessa">
<title>Last ranked
#208 in 2020</title>
<rect x="2" y="43" height="13" width="17" style="fill:rgb(200,200,200)"/>
<image x="2.5" y="43.5" href="/images/flags/24/us.png" preserveAspectRatio="xMinYMax meet" width="16" height="12"/>
<text x="153" y="55" class="svgtitle" text-anchor="end" style="fill:#000000;font-size:13px;">United States</text>
<line x1="0" y1="41" x2="155" y2="41" class="svggridline" style="stroke:rgb(200,200,200);stroke-width:1.3"/>
<g id="svgthumb_us-namepaths">
<g style="fill:none;stroke:#ff0000;stroke-width:1.3;" class="svgcurveline" id="svgthumb_us-vanessa-f">
<path d=" M76.9464 40.6 L77.5 40.6 L78.6071 40.2 L79.7143 38.04 L80.8214 32.68 L81.9286 30.36 L83.0357 30.2 L84.1429 30.84 L85.25 31.96 L86.3571 30.36 L87.4643 29 L88.5714 30.6 L89.6786 30.36 L90.7857 32.12 L91.8929 32.84 L93 32.6 L94.1071 33.88 L95.2143 33.48 L96.3214 32.28 L97.4286 32.6 L98.5357 30.84 L99.6429 29.72 L100.75 28.84 L101.8571 29.72 L102.9643 29.96 L104.0714 29 L105.1786 28.52 L106.2857 28.44 L107.3929 25.4 L108.5 22.28 L109.6071 21.96 L110.7143 21.08 L111.8214 19.8 L112.9286 13.88 L114.0357 12.44 L115.1429 9.24 L116.25 8.2 L117.3571 8.6 L118.4643 9.64 L119.5714 9.72 L120.6786 13.08 L121.7857 16.04 L122.8929 17.72 L124 16.76 L125.1071 17.08 L126.2143 18.2 L127.3214 18.52 L128.4286 17 L129.5357 16.68 L130.6429 16.92 L131.75 19.24 L132.8571 20.44 L133.9643 22.12 L135.0714 22.92 L136.1786 23.64 L137.2857 23.72 L138.3929 24.84 L139.5 25.08 L140.6071 24.2 L141.7143 25.48 L142.8214 27.08 L143.9286 29.24 L145.0357 30.2 L146.1429 30.44 L147.25 32.28 L148.3571 33.08 L149.4643 33.88 L150.5714 34.12 L151.6786 34.6 L152.7857 35.08 L153.8929 35.64 L155 34.76"/>
</g>
</g>
</svg>