<svg viewBox="0 0 155 58" preserveAspectRatio="none" class="svggraph" id="svgthumb_us" style="overflow:visible;width:155px;height:58px;" xmlns="http://www.w3.org/2000/svg" xlink="http://www.w3.org/1999/xlink" title="Chart for veronica">
<title>Last ranked
#380 in 2020</title>
<rect x="2" y="43" height="13" width="17" style="fill:rgb(200,200,200)"/>
<image x="2.5" y="43.5" href="/images/flags/24/us.png" preserveAspectRatio="xMinYMax meet" width="16" height="12"/>
<text x="153" y="55" class="svgtitle" text-anchor="end" style="fill:#000000;font-size:13px;">United States</text>
<line x1="0" y1="41" x2="155" y2="41" class="svggridline" style="stroke:rgb(200,200,200);stroke-width:1.3"/>
<g id="svgthumb_us-namepaths">
<g style="fill:none;stroke:#ff0000;stroke-width:1.3;" class="svgcurveline" id="svgthumb_us-veronica-f">
<path d="M0 39.1333 L1.1071 39 L2.2143 38.2 L3.3214 37.8 L4.4286 38.3333 L5.5357 37.8 L6.6429 38.7333 L7.75 37.9333 L8.8571 36.8667 L9.9643 36.7333 L11.0714 35.5333 L12.1786 35.2667 L13.2857 34.3333 L14.3929 35 L15.5 34.6 L16.6071 32.7333 L17.7143 33.2667 L18.8214 32.7333 L19.9286 30.4667 L21.0357 31.1333 L22.1429 31.8 L23.25 30.6 L24.3571 30.7333 L25.4643 32.6 L26.5714 31.8 L27.6786 31.6667 L28.7857 31.8 L29.8929 30.8667 L31 30.2 L32.1071 31.2667 L33.2143 31 L34.3214 30.3333 L35.4286 28.4667 L36.5357 28.4667 L37.6429 28.2 L38.75 29.1333 L39.8571 29 L40.9643 28.7333 L42.0714 28.6 L43.1786 29.1333 L44.2857 29.8 L45.3929 29.8 L46.5 30.0667 L47.6071 31 L48.7143 31.1333 L49.8214 32.3333 L50.9286 32.4667 L52.0357 32.6 L53.1429 33.2667 L54.25 34.0667 L55.3571 33.6667 L56.4643 34.0667 L57.5714 34.2 L58.6786 35.2667 L59.7857 35.4 L60.8929 35.4 L62 35.8 L63.1071 34.6 L64.2143 34.6 L65.3214 35 L66.4286 34.6 L67.5357 32.0667 L68.6429 29 L69.75 29.5333 L70.8571 29.9333 L71.9643 30.7333 L73.0714 31 L74.1786 31.1333 L75.2857 29.6667 L76.3929 30.2 L77.5 30.4667 L78.6071 30.3333 L79.7143 29.9333 L80.8214 29.8 L81.9286 30.0667 L83.0357 29.5333 L84.1429 29.2667 L85.25 28.7333 L86.3571 27 L87.4643 26.3333 L88.5714 25.4 L89.6786 23.5333 L90.7857 21.2667 L91.8929 20.7333 L93 20.2 L94.1071 18.6 L95.2143 17.5333 L96.3214 16.3333 L97.4286 17.5333 L98.5357 14.8667 L99.6429 15.5333 L100.75 15 L101.8571 11.5333 L102.9643 5.4 L104.0714 5 L105.1786 6.3333 L106.2857 6.8667 L107.3929 9.8 L108.5 9.1333 L109.6071 9.5333 L110.7143 8.2 L111.8214 8.8667 L112.9286 10.4667 L114.0357 10.7333 L115.1429 11.4 L116.25 13 L117.3571 15.1333 L118.4643 15.2667 L119.5714 16.6 L120.6786 16.2 L121.7857 17.6667 L122.8929 18.4667 L124 18.0667 L125.1071 20.0667 L126.2143 20.8667 L127.3214 23 L128.4286 21.9333 L129.5357 23.2667 L130.6429 22.8667 L131.75 21.6667 L132.8571 25.2667 L133.9643 27 L135.0714 28.0667 L136.1786 28.7333 L137.2857 29.2667 L138.3929 29.9333 L139.5 30.6 L140.6071 31.6667 L141.7143 32.4667 L142.8214 33.2667 L143.9286 33.5333 L145.0357 33.4 L146.1429 33.9333 L147.25 34.3333 L148.3571 35 L149.4643 34.8667 L150.5714 35.4 L151.6786 35.2667 L152.7857 34.6 L153.8929 34.6 L155 34.8667"/>
</g>
</g>
</svg>