<svg viewBox="0 0 155 58" preserveAspectRatio="none" class="svggraph" id="svgthumb_us" style="overflow:visible;width:155px;height:58px;" xmlns="http://www.w3.org/2000/svg" xlink="http://www.w3.org/1999/xlink" title="Chart for victoria">
<title>Last ranked
#34 in 2020</title>
<rect x="2" y="43" height="13" width="17" style="fill:rgb(200,200,200)"/>
<image x="2.5" y="43.5" href="/images/flags/24/us.png" preserveAspectRatio="xMinYMax meet" width="16" height="12"/>
<text x="153" y="55" class="svgtitle" text-anchor="end" style="fill:#000000;font-size:13px;">United States</text>
<line x1="0" y1="41" x2="155" y2="41" class="svggridline" style="stroke:rgb(200,200,200);stroke-width:1.3"/>
<g id="svgthumb_us-namepaths">
<g style="fill:none;stroke:#ff0000;stroke-width:1.3;" class="svgcurveline" id="svgthumb_us-victoria-f">
<path d="M0 35.5714 L1.1071 34.2571 L2.2143 34.4857 L3.3214 35.7429 L4.4286 35.8571 L5.5357 34.4286 L6.6429 35 L7.75 35.2286 L8.8571 34.7714 L9.9643 35.7429 L11.0714 34.6571 L12.1786 35.0571 L13.2857 35.1714 L14.3929 35.3429 L15.5 34.9429 L16.6071 34.7714 L17.7143 34.6 L18.8214 35.6286 L19.9286 35.2286 L21.0357 34.3143 L22.1429 33.9714 L23.25 33.2286 L24.3571 34.0857 L25.4643 34.2 L26.5714 34.7714 L27.6786 34.6571 L28.7857 34.4286 L29.8929 34.2 L31 33.9714 L32.1071 34.3714 L33.2143 33.1714 L34.3214 34.4857 L35.4286 34.0857 L36.5357 33.8 L37.6429 33.6286 L38.75 33.9143 L39.8571 33.9714 L40.9643 34.2 L42.0714 32.6571 L43.1786 34.0286 L44.2857 35.1143 L45.3929 35.4571 L46.5 35.7429 L47.6071 35.7429 L48.7143 36.1429 L49.8214 36.2571 L50.9286 36.5429 L52.0357 36.5429 L53.1429 37 L54.25 36.9429 L55.3571 37.5143 L56.4643 37.2857 L57.5714 37.9143 L58.6786 37.7429 L59.7857 37.9143 L60.8929 37.8571 L62 38.3143 L63.1071 37.7429 L64.2143 38.0286 L65.3214 37.5714 L66.4286 37.6857 L67.5357 37.2857 L68.6429 35.3429 L69.75 35.1714 L70.8571 33.4 L71.9643 29.6857 L73.0714 32.5429 L74.1786 32.3714 L75.2857 30.7143 L76.3929 29.0571 L77.5 28.7143 L78.6071 25.8 L79.7143 24.1429 L80.8214 25.6857 L81.9286 26.7143 L83.0357 25.7429 L84.1429 26.0286 L85.25 26.4857 L86.3571 28.6571 L87.4643 29.5714 L88.5714 29.1714 L89.6786 29.5714 L90.7857 30.5429 L91.8929 31.6857 L93 31.8 L94.1071 30.1429 L95.2143 30.0857 L96.3214 28.8286 L97.4286 26.6571 L98.5357 26.7714 L99.6429 27.1143 L100.75 28.8857 L101.8571 29.6286 L102.9643 29.6857 L104.0714 30.6 L105.1786 31.0571 L106.2857 29.9714 L107.3929 31.6286 L108.5 32.4857 L109.6071 32.1429 L110.7143 31.6286 L111.8214 29.2286 L112.9286 27.5714 L114.0357 24.8857 L115.1429 24.8857 L116.25 24.2 L117.3571 23.4 L118.4643 21.9143 L119.5714 19.3429 L120.6786 19.1143 L121.7857 15.6857 L122.8929 10.3143 L124 7.0571 L125.1071 3.5143 L126.2143 3.8 L127.3214 4.5429 L128.4286 5.6286 L129.5357 5.6857 L130.6429 5.1714 L131.75 6.1429 L132.8571 9.6857 L133.9643 11.6286 L135.0714 12.6571 L136.1786 14.6571 L137.2857 17.5714 L138.3929 18.6 L139.5 20.0857 L140.6071 20.9429 L141.7143 21.4571 L142.8214 23.0571 L143.9286 22.8286 L145.0357 20.6571 L146.1429 20.7714 L147.25 19.6286 L148.3571 17.6286 L149.4643 18.6571 L150.5714 19.3429 L151.6786 18.8857 L152.7857 19.0571 L153.8929 21.1143 L155 23.8571"/>
</g>
</g>
</svg>