<svg viewBox="0 0 155 58" preserveAspectRatio="none" class="svggraph" id="svgthumb_us" style="overflow:visible;width:155px;height:58px;" xmlns="http://www.w3.org/2000/svg" xlink="http://www.w3.org/1999/xlink" title="Chart for violet">
<title>Last ranked
#37 in 2020</title>
<rect x="2" y="43" height="13" width="17" style="fill:rgb(200,200,200)"/>
<image x="2.5" y="43.5" href="/images/flags/24/us.png" preserveAspectRatio="xMinYMax meet" width="16" height="12"/>
<text x="153" y="55" class="svgtitle" text-anchor="end" style="fill:#000000;font-size:13px;">United States</text>
<line x1="0" y1="41" x2="155" y2="41" class="svggridline" style="stroke:rgb(200,200,200);stroke-width:1.3"/>
<g id="svgthumb_us-namepaths">
<g style="fill:none;stroke:#ff0000;stroke-width:1.3;" class="svgcurveline" id="svgthumb_us-violet-f">
<path d="M0 36.7 L1.1071 36.8 L2.2143 36.9 L3.3214 34.8 L4.4286 35.1 L5.5357 34.5 L6.6429 34.3 L7.75 34.8 L8.8571 33.3 L9.9643 32.8 L11.0714 31.9 L12.1786 31.4 L13.2857 30.4 L14.3929 29.7 L15.5 28.9 L16.6071 28.2 L17.7143 27 L18.8214 24.4 L19.9286 26 L21.0357 23.4 L22.1429 21.7 L23.25 17 L24.3571 17.8 L25.4643 18.1 L26.5714 15.2 L27.6786 14.2 L28.7857 14.5 L29.8929 12.7 L31 12.3 L32.1071 15.3 L33.2143 16.3 L34.3214 14.2 L35.4286 14.8 L36.5357 14.3 L37.6429 15.1 L38.75 14.1 L39.8571 14.1 L40.9643 14.1 L42.0714 13.6 L43.1786 10.4 L44.2857 11.3 L45.3929 13.9 L46.5 15.4 L47.6071 14.8 L48.7143 16.1 L49.8214 17 L50.9286 17.4 L52.0357 19.2 L53.1429 21.6 L54.25 21.9 L55.3571 23 L56.4643 25.1 L57.5714 25.7 L58.6786 26.5 L59.7857 28.3 L60.8929 29.3 L62 30.3 L63.1071 30.7 L64.2143 32.6 L65.3214 33 L66.4286 34.4 L67.5357 34.7 L68.6429 35.2 L69.75 36 L70.8571 36.3 L71.9643 36.6 L73.0714 37.2 L74.1786 37.6 L75.2857 38 L76.3929 38.2 L77.5 38 L78.6071 38.5 L79.7143 38.8 L80.8214 38.8 L81.9286 38.7 L83.0357 39 L84.1429 39.2 L85.25 39.2 L86.3571 39.1 L87.4643 39.4 L88.5714 39.5 L89.6786 39.5 L90.7857 39.6 L91.8929 39.8 L93 39.8 L94.1071 39.8 L95.2143 39.8 L96.3214 40.1 L97.4286 40.2 L98.5357 40.2 L99.6429 40.2 L100.75 40.2 L101.3036 40.3 M102.4107 40.3 L102.9643 40.1 L104.0714 40.2 L104.625 40.2 M111.2679 40.2 L111.8214 40.2 L112.9286 40.2 L113.4821 40.2 M130.0893 40 L130.6429 39.8 L131.75 39.7 L132.8571 39.4 L133.9643 39.1 L135.0714 38.9 L136.1786 38.7 L137.2857 38.6 L138.3929 36.8 L139.5 34.9 L140.6071 33.7 L141.7143 32.2 L142.8214 29.8 L143.9286 27.9 L145.0357 26 L146.1429 24.1 L147.25 20.6 L148.3571 19.6 L149.4643 16.3 L150.5714 15.8 L151.6786 15.9 L152.7857 15 L153.8929 11.4 L155 12"/>
</g>
</g>
</svg>