<svg viewBox="0 0 155 58" preserveAspectRatio="none" class="svggraph" id="svgthumb_us" style="overflow:visible;width:155px;height:58px;" xmlns="http://www.w3.org/2000/svg" xlink="http://www.w3.org/1999/xlink" title="Chart for viviana">
<title>Last ranked
#404 in 2020</title>
<rect x="2" y="43" height="13" width="17" style="fill:rgb(200,200,200)"/>
<image x="2.5" y="43.5" href="/images/flags/24/us.png" preserveAspectRatio="xMinYMax meet" width="16" height="12"/>
<text x="153" y="55" class="svgtitle" text-anchor="end" style="fill:#000000;font-size:13px;">United States</text>
<line x1="0" y1="41" x2="155" y2="41" class="svggridline" style="stroke:rgb(200,200,200);stroke-width:1.3"/>
<g id="svgthumb_us-namepaths">
<g style="fill:none;stroke:#ff0000;stroke-width:1.3;" class="svgcurveline" id="svgthumb_us-viviana-f">
<path d=" M109.0536 36.4286 L109.6071 27.2857 L110.7143 34.1429 L111.8214 35.2857 L112.9286 35.8571 L114.0357 35.8571 L115.1429 34.1429 L116.25 34.7143 L117.3571 34.1429 L118.4643 33.5714 L119.5714 33.5714 L120.6786 35.2857 L121.7857 31.8571 L122.8929 30.7143 L124 28.4286 L125.1071 27.2857 L126.2143 26.1429 L127.3214 25.5714 L128.4286 26.1429 L129.5357 28.4286 L130.6429 25 L131.75 20.4286 L132.8571 19.8571 L133.9643 22.7143 L135.0714 22.1429 L136.1786 19.8571 L137.2857 21 L138.3929 20.4286 L139.5 21.5714 L140.6071 22.7143 L141.7143 22.7143 L142.8214 20.4286 L143.9286 22.7143 L145.0357 22.1429 L146.1429 22.1429 L147.25 20.4286 L148.3571 20.4286 L149.4643 19.2857 L150.5714 19.8571 L151.6786 17.5714 L152.7857 18.1429 L153.8929 17.5714 L155 15.8571"/>
</g>
</g>
</svg>