<svg viewBox="0 0 155 58" preserveAspectRatio="none" class="svggraph" id="svgthumb_us" style="overflow:visible;width:155px;height:58px;" xmlns="http://www.w3.org/2000/svg" xlink="http://www.w3.org/1999/xlink" title="Chart for vivian">
<title>Last ranked
#101 in 2020 (f)
#905 in 1933 (m)</title>
<rect x="2" y="43" height="13" width="17" style="fill:rgb(200,200,200)"/>
<image x="2.5" y="43.5" href="/images/flags/24/us.png" preserveAspectRatio="xMinYMax meet" width="16" height="12"/>
<text x="153" y="55" class="svgtitle" text-anchor="end" style="fill:#000000;font-size:13px;">United States</text>
<line x1="0" y1="41" x2="155" y2="41" class="svggridline" style="stroke:rgb(200,200,200);stroke-width:1.3"/>
<g id="svgthumb_us-namepaths">
<g style="fill:none;stroke:#ff0000;stroke-width:1.3;" class="svgcurveline" id="svgthumb_us-vivian-f">
<path d="M0 38.7 L1.1071 38.6 L2.2143 38.7 L3.3214 38.3 L4.4286 38.6 L5.5357 37.4 L6.6429 37.8 L7.75 36.8 L8.8571 36.9 L9.9643 36.6 L11.0714 35.9 L12.1786 35.5 L13.2857 34.2 L14.3929 32.8 L15.5 32 L16.6071 32.3 L17.7143 32.1 L18.8214 31.3 L19.9286 29.8 L21.0357 30.9 L22.1429 28.9 L23.25 27.5 L24.3571 25.8 L25.4643 25.5 L26.5714 24.9 L27.6786 25.1 L28.7857 25.4 L29.8929 24 L31 25.2 L32.1071 23.3 L33.2143 21.9 L34.3214 13.6 L35.4286 15.7 L36.5357 14.6 L37.6429 14.9 L38.75 13.1 L39.8571 12.9 L40.9643 13.2 L42.0714 10.5 L43.1786 10 L44.2857 7.8 L45.3929 8.9 L46.5 11.1 L47.6071 10.4 L48.7143 11.3 L49.8214 12.7 L50.9286 13.1 L52.0357 12.6 L53.1429 13.3 L54.25 14.2 L55.3571 16.4 L56.4643 14.8 L57.5714 16.9 L58.6786 18.3 L59.7857 18.7 L60.8929 21.4 L62 22.3 L63.1071 23.7 L64.2143 25.3 L65.3214 24.5 L66.4286 21.9 L67.5357 22.7 L68.6429 25.1 L69.75 24.8 L70.8571 26.2 L71.9643 24.9 L73.0714 26 L74.1786 27.3 L75.2857 27.1 L76.3929 27.7 L77.5 28.1 L78.6071 28 L79.7143 27.8 L80.8214 28.8 L81.9286 29.6 L83.0357 29.2 L84.1429 28.6 L85.25 29.4 L86.3571 30.3 L87.4643 30.5 L88.5714 31.3 L89.6786 31.9 L90.7857 32.4 L91.8929 32.2 L93 33.3 L94.1071 34.1 L95.2143 35 L96.3214 34.8 L97.4286 35.7 L98.5357 36.4 L99.6429 36.8 L100.75 37.2 L101.8571 37.5 L102.9643 37.6 L104.0714 37.8 L105.1786 38.3 L106.2857 38.6 L107.3929 38.8 L108.5 38.9 L109.6071 38.4 L110.7143 38.7 L111.8214 39 L112.9286 38.8 L114.0357 38.7 L115.1429 38.7 L116.25 38.8 L117.3571 38.6 L118.4643 38.7 L119.5714 38.8 L120.6786 38.7 L121.7857 38.3 L122.8929 36.8 L124 36.5 L125.1071 36.3 L126.2143 36.3 L127.3214 36.5 L128.4286 36.3 L129.5357 36.2 L130.6429 36.3 L131.75 35.3 L132.8571 35.1 L133.9643 35.8 L135.0714 34.5 L136.1786 33.8 L137.2857 33.9 L138.3929 33.3 L139.5 33.6 L140.6071 33.3 L141.7143 33.1 L142.8214 31.3 L143.9286 31.1 L145.0357 30.6 L146.1429 29.3 L147.25 27.2 L148.3571 25.3 L149.4643 24.6 L150.5714 24.7 L151.6786 24.9 L152.7857 25 L153.8929 25 L155 25.7"/>
</g>
<g style="fill:none;stroke:#0000ff;stroke-width:1.3;" class="svgcurveline" id="svgthumb_us-vivian-m">
<path d="M0 40.4 L1.1071 40.2 L1.6607 40.6 M2.7679 40.6 L3.3214 40.4 L4.4286 40 L5.5357 40.5 L6.6429 40.5 L7.75 39.8 L8.8571 40.5 L9.9643 40.2 L11.0714 40.4 L12.1786 40.1 L13.2857 40.1 L14.3929 40.3 L15.5 40 L16.6071 39.7 L17.7143 39.6 L18.8214 40.2 L19.9286 39.5 L21.0357 40.1 L22.1429 39.9 L23.25 40 L24.3571 40.3 L25.4643 39.9 L26.5714 39.6 L27.6786 40 L28.7857 40.1 L29.8929 39.7 L31 39.8 L32.1071 40.2 L33.2143 40.2 L34.3214 40 L35.4286 40.2 L36.5357 40.2 L37.6429 40.1 L38.75 40.5 L39.8571 40.4 L40.9643 40.4 L42.0714 40.4 L43.1786 40.3 L44.2857 40.3 L45.3929 40.4 L46.5 40.4 L47.6071 40.4 L48.7143 40.5 L49.8214 40.6 L50.9286 40.5 L52.0357 40.4 L52.5893 40.6 M53.6964 40.6 L54.25 40.5 L54.8036 40.6 M57.0179 40.6 L57.5714 40.5 L58.6786 40.5 L59.2321 40.6"/>
</g>
</g>
</svg>