<svg viewBox="0 0 155 58" preserveAspectRatio="none" class="svggraph" id="svgthumb_us" style="overflow:visible;width:155px;height:58px;" xmlns="http://www.w3.org/2000/svg" xlink="http://www.w3.org/1999/xlink" title="Chart for vivienne">
<title>Last ranked
#260 in 2020</title>
<rect x="2" y="43" height="13" width="17" style="fill:rgb(200,200,200)"/>
<image x="2.5" y="43.5" href="/images/flags/24/us.png" preserveAspectRatio="xMinYMax meet" width="16" height="12"/>
<text x="153" y="55" class="svgtitle" text-anchor="end" style="fill:#000000;font-size:13px;">United States</text>
<line x1="0" y1="41" x2="155" y2="41" class="svggridline" style="stroke:rgb(200,200,200);stroke-width:1.3"/>
<g id="svgthumb_us-namepaths">
<g style="fill:none;stroke:#ff0000;stroke-width:1.3;" class="svgcurveline" id="svgthumb_us-vivienne-f">
<path d=" M33.7679 38.7778 L34.3214 36.5556 L35.4286 38.3333 L36.5357 37.8889 L37.6429 37 L38.75 37 L39.8571 37.8889 L40.9643 37.4444 L42.0714 37 L43.1786 37.4444 L44.2857 37.4444 L45.3929 38.3333 L46.5 38.3333 L47.6071 38.7778 L48.7143 38.7778 L49.2679 39.2222 M50.375 39.2222 L50.9286 38.7778 L52.0357 38.7778 L52.5893 38.7778 M53.6964 38.7778 L54.25 38.7778 L55.3571 38.7778 L55.9107 39.2222 M142.2679 35.2222 L142.8214 28.5556 L143.9286 24.5556 L145.0357 21.8889 L146.1429 18.3333 L147.25 14.7778 L148.3571 11.6667 L149.4643 8.5556 L150.5714 11.6667 L151.6786 11.2222 L152.7857 11.6667 L153.8929 14.3333 L155 11.6667"/>
</g>
</g>
</svg>