<svg viewBox="0 0 155 58" preserveAspectRatio="none" class="svggraph" id="svgthumb_us" style="overflow:visible;width:155px;height:58px;" xmlns="http://www.w3.org/2000/svg" xlink="http://www.w3.org/1999/xlink" title="Chart for willa">
<title>Last ranked
#348 in 2020</title>
<rect x="2" y="43" height="13" width="17" style="fill:rgb(200,200,200)"/>
<image x="2.5" y="43.5" href="/images/flags/24/us.png" preserveAspectRatio="xMinYMax meet" width="16" height="12"/>
<text x="153" y="55" class="svgtitle" text-anchor="end" style="fill:#000000;font-size:13px;">United States</text>
<line x1="0" y1="41" x2="155" y2="41" class="svggridline" style="stroke:rgb(200,200,200);stroke-width:1.3"/>
<g id="svgthumb_us-namepaths">
<g style="fill:none;stroke:#ff0000;stroke-width:1.3;" class="svgcurveline" id="svgthumb_us-willa-f">
<path d="M0 34.1429 L1.1071 35.2857 L2.2143 33.5714 L3.3214 31.2857 L4.4286 34.1429 L5.5357 30.7143 L6.6429 29.5714 L7.75 29.5714 L8.8571 29 L9.9643 29 L11.0714 26.7143 L12.1786 30.7143 L13.2857 27.8571 L14.3929 29 L15.5 30.7143 L16.6071 29 L17.7143 25.5714 L18.8214 27.8571 L19.9286 28.4286 L21.0357 26.7143 L22.1429 26.1429 L23.25 28.4286 L24.3571 27.8571 L25.4643 25 L26.5714 23.2857 L27.6786 23.8571 L28.7857 23.2857 L29.8929 23.2857 L31 25 L32.1071 22.1429 L33.2143 22.7143 L34.3214 22.1429 L35.4286 23.2857 L36.5357 22.7143 L37.6429 22.7143 L38.75 24.4286 L39.8571 24.4286 L40.9643 23.8571 L42.0714 21 L43.1786 22.1429 L44.2857 21.5714 L45.3929 22.7143 L46.5 22.1429 L47.6071 20.4286 L48.7143 20.4286 L49.8214 17.5714 L50.9286 15.8571 L52.0357 14.7143 L53.1429 17 L54.25 16.4286 L55.3571 15.8571 L56.4643 17.5714 L57.5714 14.1429 L58.6786 15.8571 L59.7857 15.2857 L60.8929 19.2857 L62 17 L63.1071 19.8571 L64.2143 22.7143 L65.3214 22.1429 L66.4286 22.7143 L67.5357 22.7143 L68.6429 23.8571 L69.75 26.7143 L70.8571 25.5714 L71.9643 26.1429 L73.0714 30.1429 L74.1786 31.2857 L75.2857 33 L76.3929 31.2857 L77.5 32.4286 L78.6071 33.5714 L79.7143 32.4286 L80.8214 34.1429 L81.9286 34.7143 L83.0357 34.1429 L84.1429 35.8571 L85.25 36.4286 L86.3571 36.4286 L87.4643 37 L88.5714 37 L89.6786 37 L90.7857 37 L91.3393 37.5714 M143.375 33.5714 L143.9286 33 L145.0357 33.5714 L146.1429 29.5714 L147.25 29 L148.3571 24.4286 L149.4643 21 L150.5714 20.4286 L151.6786 19.8571 L152.7857 15.8571 L153.8929 13 L155 12.4286"/>
</g>
</g>
</svg>