<svg viewBox="0 0 155 58" preserveAspectRatio="none" class="svggraph" id="svgthumb_us" style="overflow:visible;width:155px;height:58px;" xmlns="http://www.w3.org/2000/svg" xlink="http://www.w3.org/1999/xlink" title="Chart for zoe">
<title>Last ranked
#41 in 2020</title>
<rect x="2" y="43" height="13" width="17" style="fill:rgb(200,200,200)"/>
<image x="2.5" y="43.5" href="/images/flags/24/us.png" preserveAspectRatio="xMinYMax meet" width="16" height="12"/>
<text x="153" y="55" class="svgtitle" text-anchor="end" style="fill:#000000;font-size:13px;">United States</text>
<line x1="0" y1="41" x2="155" y2="41" class="svggridline" style="stroke:rgb(200,200,200);stroke-width:1.3"/>
<g id="svgthumb_us-namepaths">
<g style="fill:none;stroke:#ff0000;stroke-width:1.3;" class="svgcurveline" id="svgthumb_us-zoe-f">
<path d="M0 38.6 L1.1071 38.8 L2.2143 38.8 L3.3214 39.1 L4.4286 38.7 L5.5357 39.1 L6.6429 39.4 L7.75 38.8 L8.8571 38.8 L9.9643 39.5 L11.0714 38.9 L12.1786 39.3 L13.2857 39.5 L14.3929 40 L15.5 39.8 L16.6071 39.6 L17.7143 39.6 L18.8214 39.6 L19.9286 39.9 L21.0357 39.9 L22.1429 40.2 L23.25 40 L24.3571 39.8 L25.4643 40.3 L26.5714 40.1 L27.6786 40.2 L28.7857 40.4 L29.8929 40.4 L31 40.4 L32.1071 40.4 L33.2143 40.2 L34.3214 40.3 L35.4286 40.4 L35.9821 40.5 M37.0893 40.5 L37.6429 40.5 L38.75 40.4 L39.8571 40.4 L40.9643 40.5 L42.0714 40.4 L43.1786 40.5 L44.2857 40.4 L45.3929 40.3 L46.5 40.5 L47.6071 40.5 L48.7143 40.4 L49.8214 40.4 L50.9286 40.5 L51.4821 40.5 M52.5893 40.5 L53.1429 40.5 L54.25 40.4 L54.8036 40.5 M55.9107 40.5 L56.4643 40.3 L57.5714 40.2 L58.6786 40.2 L59.7857 40.3 L60.8929 40.2 L62 40.3 L63.1071 40.3 L64.2143 40.4 L65.3214 40.5 L66.4286 40.5 L67.5357 40.5 L68.0893 40.6 M78.0536 40.5 L78.6071 40.5 L79.7143 40.5 L80.8214 40.5 L81.9286 40.4 L83.0357 40.4 L83.5893 40.5 M84.6964 40.5 L85.25 40.3 L86.3571 40.3 L87.4643 40.4 L88.5714 40.4 L89.6786 40.4 L90.2321 40.4 M94.6607 40.4 L95.2143 40.3 L95.7679 40.4 M99.0893 40.3 L99.6429 40.3 L100.1964 40.3 M102.4107 40.3 L102.9643 40.2 L103.5179 40.2 M104.625 40.2 L105.1786 40.2 L105.7321 40.2 M113.4821 40.2 L114.0357 40 L115.1429 39.9 L116.25 39.9 L117.3571 39.8 L118.4643 39.7 L119.5714 39.7 L120.6786 39.1 L121.7857 38.7 L122.8929 37.4 L124 36.1 L125.1071 35 L126.2143 34.2 L127.3214 32 L128.4286 30.2 L129.5357 28.6 L130.6429 27.1 L131.75 24.4 L132.8571 22 L133.9643 17.5 L135.0714 16.3 L136.1786 15.6 L137.2857 14.4 L138.3929 16.5 L139.5 16.3 L140.6071 17.7 L141.7143 18 L142.8214 15.6 L143.9286 9 L145.0357 8.4 L146.1429 7.7 L147.25 10 L148.3571 10.9 L149.4643 10 L150.5714 11.2 L151.6786 13.6 L152.7857 13.4 L153.8929 13.3 L155 14"/>
</g>
</g>
</svg>